<?xml version="1.0" encoding="UTF-8"?><svg id="device" xmlns="http://www.w3.org/2000/svg" viewBox="0 0 80 80"><defs><style>.cls-1{fill:#fff;}</style></defs><g id="Layer_4"><path class="cls-1" d="M46.05,39h.62v2.69h-2.87v-2.69h.58v-.69h1.68v.69ZM22.35,43.63h.62v.69h1.68v-.69h.58v-2.69h-2.87v2.69ZM24.61,35.68h-1.68v.69h-.58v2.69h2.87v-2.69h-.62v-.69ZM40.82,38.31h-1.68v.69h-.58v2.69h2.87v-2.69h-.62v-.69ZM27.59,43.63h.62v.69h1.68v-.69h.58v-2.69h-2.87v2.69ZM48.99,43.63h.62v.69h1.68v-.69h.58v-2.69h-2.87v2.69ZM51.24,35.68h-1.68v.69h-.58v2.69h2.87v-2.69h-.62v-.69ZM54.18,43.63h.62v.69h1.68v-.69h.58v-2.69h-2.87v2.69ZM80,33.63v12.75c0,.41-.33.74-.74.74h-2.4s-.09-.02-.13-.03c-.04,0-.08.03-.12.03h-.69c-1.9,2.02-4.59,3.29-7.57,3.29s-5.67-1.27-7.57-3.29H3.25s-.03,0-.04,0c-.01,0-.03,0-.04,0H.58C.28,47.12,0,46.83,0,46.54v-13.07c0-.3.28-.58.58-.58h2.59s.03,0,.04,0c.01,0,.03,0,.04,0h57.53c1.9-2.02,4.59-3.29,7.57-3.29s5.67,1.27,7.57,3.29h.69s.08.02.12.03c.04,0,.08-.03.13-.03h2.4c.41,0,.74.33.74.74ZM2.67,33.96h-1.59v12.07h1.59v-12.07ZM59.9,46.04c-1.22-1.7-1.95-3.79-1.95-6.04s.73-4.33,1.95-6.04H3.75v12.07h56.14ZM77.68,40c0-5.14-4.18-9.33-9.33-9.33s-9.33,4.18-9.33,9.33,4.18,9.33,9.33,9.33,9.33-4.18,9.33-9.33ZM78.92,33.96h-1.73v.57c.99,1.59,1.57,3.46,1.57,5.46s-.58,3.87-1.57,5.46v.57h1.73v-12.07ZM56.43,35.68h-1.68v.69h-.58v2.69h2.87v-2.69h-.62v-.69Z"/></g></svg>