<?xml version="1.0" encoding="UTF-8"?><svg id="modifiers" xmlns="http://www.w3.org/2000/svg" viewBox="0 0 80 80"><defs><style>.cls-1{fill:#fff;}</style></defs><path class="cls-1" d="M40,0C17.94,0,0,17.94,0,40s17.94,40,40,40,40-17.94,40-40S62.06,0,40,0ZM40,78.95C18.52,78.95,1.05,61.48,1.05,40S18.52,1.05,40,1.05s38.95,17.47,38.95,38.95-17.47,38.95-38.95,38.95ZM66.52,47.52c.62,0,1.13-.51,1.13-1.13v-10.85c0-.62-.51-1.13-1.13-1.13h-25.96v-5.66h4.32c.59,0,1.07-.48,1.07-1.07v-9.77c0-.59-.48-1.07-1.07-1.07h-9.77c-.59,0-1.07.48-1.07,1.07v9.77c0,.59.48,1.07,1.07,1.07h4.39v5.66H13.48c-.62,0-1.13.51-1.13,1.13v10.85c0,.62.51,1.13,1.13,1.13h3.39v5.59c-2.53.27-4.52,2.39-4.52,4.99,0,2.78,2.26,5.05,5.05,5.05s5.05-2.26,5.05-5.05c0-2.6-1.99-4.73-4.52-4.99v-5.59h14.02v5.59c-2.53.27-4.52,2.39-4.52,4.99,0,2.78,2.26,5.05,5.05,5.05s5.05-2.26,5.05-5.05c0-2.6-1.99-4.73-4.52-4.99v-5.59h14.02v5.59c-2.53.27-4.52,2.39-4.52,4.99,0,2.78,2.26,5.05,5.05,5.05s5.05-2.26,5.05-5.05c0-2.6-1.99-4.73-4.52-4.99v-5.59h14.02v5.59c-2.53.27-4.52,2.39-4.52,4.99,0,2.78,2.26,5.05,5.05,5.05s5.05-2.26,5.05-5.05c0-2.6-1.99-4.73-4.52-4.99v-5.59h3.39ZM35.1,27.69l.02-9.78,9.78.02v9.77s0,.02-.02.02l-9.78-.02ZM21.39,58.1c0,2.2-1.79,3.99-3.99,3.99s-3.99-1.79-3.99-3.99,1.79-3.99,3.99-3.99,3.99,1.79,3.99,3.99ZM36.46,58.1c0,2.2-1.79,3.99-3.99,3.99s-3.99-1.79-3.99-3.99,1.79-3.99,3.99-3.99,3.99,1.79,3.99,3.99ZM51.53,58.1c0,2.2-1.79,3.99-3.99,3.99s-3.99-1.79-3.99-3.99,1.79-3.99,3.99-3.99,3.99,1.79,3.99,3.99ZM66.6,58.1c0,2.2-1.79,3.99-3.99,3.99s-3.99-1.79-3.99-3.99,1.79-3.99,3.99-3.99,3.99,1.79,3.99,3.99ZM13.4,46.39v-10.85s.03-.08.08-.08h53.04s.08.03.08.08v10.85s-.03.08-.08.08H13.48s-.08-.03-.08-.08Z"/></svg>