<?xml version="1.0" encoding="UTF-8"?><svg id="device" xmlns="http://www.w3.org/2000/svg" viewBox="0 0 80 80"><defs><style>.cls-1{fill:#fff;}</style></defs><g id="Layer_4"><path class="cls-1" d="M15.91,37.05v1.34c0,.24-.19.43-.43.43h-7.49c-.24,0-.43-.19-.43-.43v-1.34c0-.24.19-.43.43-.43h7.49c.24,0,.43.19.43.43ZM20.1,36.62h-2.48c-.24,0-.43.19-.43.43v1.34c0,.24.19.43.43.43h2.48c.24,0,.43-.19.43-.43v-1.34c0-.24-.19-.43-.43-.43ZM32.72,36.62h-7.49c-.24,0-.43.19-.43.43v1.34c0,.24.19.43.43.43h7.49c.24,0,.43-.19.43-.43v-1.34c0-.24-.19-.43-.43-.43ZM37.35,36.62h-2.48c-.24,0-.43.19-.43.43v1.34c0,.24.19.43.43.43h2.48c.24,0,.43-.19.43-.43v-1.34c0-.24-.19-.43-.43-.43ZM49.97,36.62h-7.49c-.24,0-.43.19-.43.43v1.34c0,.24.19.43.43.43h7.49c.24,0,.43-.19.43-.43v-1.34c0-.24-.19-.43-.43-.43ZM54.59,36.62h-2.48c-.24,0-.43.19-.43.43v1.34c0,.24.19.43.43.43h2.48c.24,0,.43-.19.43-.43v-1.34c0-.24-.19-.43-.43-.43ZM15.48,41h-7.49c-.24,0-.43.19-.43.43v1.34c0,.24.19.43.43.43h7.49c.24,0,.43-.19.43-.43v-1.34c0-.24-.19-.43-.43-.43ZM20.1,41h-2.48c-.24,0-.43.19-.43.43v1.34c0,.24.19.43.43.43h2.48c.24,0,.43-.19.43-.43v-1.34c0-.24-.19-.43-.43-.43ZM32.72,41h-7.49c-.24,0-.43.19-.43.43v1.34c0,.24.19.43.43.43h7.49c.24,0,.43-.19.43-.43v-1.34c0-.24-.19-.43-.43-.43ZM37.35,41h-2.48c-.24,0-.43.19-.43.43v1.34c0,.24.19.43.43.43h2.48c.24,0,.43-.19.43-.43v-1.34c0-.24-.19-.43-.43-.43ZM49.97,41h-7.49c-.24,0-.43.19-.43.43v1.34c0,.24.19.43.43.43h7.49c.24,0,.43-.19.43-.43v-1.34c0-.24-.19-.43-.43-.43ZM54.59,41h-2.48c-.24,0-.43.19-.43.43v1.34c0,.24.19.43.43.43h2.48c.24,0,.43-.19.43-.43v-1.34c0-.24-.19-.43-.43-.43ZM80,33.37v13.07c0,.3-.28.58-.58.58h-2.73s-.03,0-.04,0c-.01,0-.03,0-.04,0h-.59c-1.9,2.07-4.63,3.38-7.65,3.38s-5.75-1.31-7.65-3.38H3.25s-.03,0-.04,0c-.01,0-.03,0-.04,0H.58c-.3,0-.58-.28-.58-.58v-13.07c0-.3.28-.58.58-.58h2.59s.03,0,.04,0c.01,0,.03,0,.04,0h57.62c1.89-1.97,4.55-3.19,7.49-3.19s5.59,1.23,7.49,3.19h.76s.03,0,.04,0c.01,0,.03,0,.04,0h2.73c.3,0,.58.28.58.58ZM1.08,45.94h1.59v-12.07h-1.59v12.07ZM59.77,45.86c-.04-.06-.07-.12-.11-.18-.13-.2-.25-.39-.36-.6-.05-.09-.1-.19-.15-.28-.09-.18-.18-.37-.27-.55-.05-.1-.09-.2-.13-.3-.11-.26-.21-.53-.29-.8-.03-.08-.05-.17-.07-.26-.06-.22-.12-.44-.17-.67-.03-.11-.05-.23-.07-.34-.04-.21-.07-.41-.1-.62-.01-.1-.03-.21-.04-.31-.03-.31-.05-.63-.05-.95s.02-.64.05-.96c0-.1.02-.2.04-.3.03-.22.06-.44.1-.66.02-.11.04-.21.06-.32.05-.23.11-.46.18-.68.02-.08.04-.15.06-.23.1-.3.2-.6.33-.89,0-.01.01-.03.02-.04.12-.28.25-.55.39-.81.03-.06.07-.12.1-.18.12-.22.26-.44.4-.65.04-.06.08-.11.11-.17.05-.08.1-.16.16-.24H3.75v12.07h56.07s-.04-.06-.06-.09ZM75.46,46.04c.25-.29.48-.6.69-.92.05-.08.09-.16.14-.23.17-.28.33-.56.47-.85.04-.09.08-.17.12-.26.16-.36.3-.72.41-1.1.02-.06.03-.13.05-.19.09-.32.16-.65.21-.98.02-.1.03-.21.05-.31.05-.4.09-.79.09-1.2s-.03-.8-.09-1.2c-.01-.1-.03-.21-.05-.31-.05-.33-.12-.66-.21-.98-.02-.07-.03-.13-.05-.2-.11-.37-.25-.74-.41-1.1-.04-.09-.08-.17-.13-.26-.14-.29-.3-.57-.47-.85-.05-.07-.09-.15-.14-.22-.24-.37-.52-.72-.81-1.06-1.71-1.93-4.2-3.16-6.98-3.16s-5.38,1.28-7.09,3.29c-.06.07-.12.14-.17.2-.13.16-.25.33-.37.49-.05.08-.11.15-.16.23-.11.17-.21.34-.31.52-.05.09-.1.17-.14.26-.09.17-.17.35-.25.52-.04.1-.09.19-.13.29-.07.17-.13.34-.19.52-.04.11-.08.22-.11.33-.05.17-.09.35-.14.53-.03.12-.06.23-.08.35-.04.19-.06.38-.09.58-.01.11-.03.21-.04.31-.03.3-.05.61-.05.91s.02.6.05.89c.01.12.03.23.05.35.02.17.05.35.08.52.03.14.06.28.1.42.03.14.07.29.11.43.04.14.09.28.14.42.05.14.1.28.15.41.05.13.11.26.17.39.06.14.13.28.2.41.06.12.12.23.19.35.08.14.17.29.26.43.06.1.13.2.2.3.1.15.21.29.32.43.07.09.13.17.2.25,1.71,2.03,4.27,3.32,7.12,3.32s5.38-1.28,7.09-3.29ZM78.92,33.87h-1.73v.63c.04.06.06.13.1.19.18.3.34.6.49.92.04.08.08.16.12.24.17.39.32.79.44,1.2.03.09.05.19.07.28.09.33.16.67.22,1.01.02.12.04.23.05.35.05.43.09.86.09,1.31s-.04.88-.09,1.31c-.01.12-.03.23-.05.35-.06.35-.13.69-.22,1.02-.02.09-.04.18-.07.27-.12.41-.27.82-.44,1.21-.04.08-.08.16-.11.24-.15.32-.31.63-.49.93-.04.06-.06.13-.1.19v.44h1.73v-12.07Z"/></g></svg>