<?xml version="1.0" encoding="UTF-8"?><svg id="modifiers" xmlns="http://www.w3.org/2000/svg" viewBox="0 0 80 80"><defs><style>.cls-1{fill:#07182d;}</style></defs><path class="cls-1" d="M78.95,32.2h-26.58c-.58,0-1.05.47-1.05,1.05v13.51c0,.58.47,1.05,1.05,1.05h26.58c.58,0,1.05-.47,1.05-1.05v-13.51c0-.58-.47-1.05-1.05-1.05ZM78.79,46.59h-26.25v-13.18h26.25v13.18ZM19.64,32.2c-.58,0-1.05.47-1.05,1.05v13.51c0,.58.47,1.05,1.05,1.05h26.58c.58,0,1.05-.47,1.05-1.05v-13.51c0-.58-.47-1.05-1.05-1.05h-26.58ZM46.06,46.59h-26.25v-13.18h26.25v13.18ZM1.05,47.8h13.51c.58,0,1.05-.47,1.05-1.05v-13.51c0-.58-.47-1.05-1.05-1.05H1.05c-.58,0-1.05.47-1.05,1.05v13.51c0,.58.47,1.05,1.05,1.05ZM1.21,33.41h13.18v13.18H1.21v-13.18ZM1.05,28.21h26.58c.58,0,1.05-.47,1.05-1.05v-13.51c0-.58-.47-1.05-1.05-1.05H1.05c-.58,0-1.05.47-1.05,1.05v13.51c0,.58.47,1.05,1.05,1.05ZM1.21,13.82h26.25v13.18H1.21v-13.18ZM33.77,28.21h26.58c.58,0,1.05-.47,1.05-1.05v-13.51c0-.58-.47-1.05-1.05-1.05h-26.58c-.58,0-1.05.47-1.05,1.05v13.51c0,.58.47,1.05,1.05,1.05ZM33.94,13.82h26.25v13.18h-26.25v-13.18ZM78.95,12.6h-13.51c-.58,0-1.05.47-1.05,1.05v13.51c0,.58.47,1.05,1.05,1.05h13.51c.58,0,1.05-.47,1.05-1.05v-13.51c0-.58-.47-1.05-1.05-1.05ZM78.79,27h-13.18v-13.18h13.18v13.18ZM27.63,51.79H1.05c-.58,0-1.05.47-1.05,1.05v13.51c0,.58.47,1.05,1.05,1.05h26.58c.58,0,1.05-.47,1.05-1.05v-13.51c0-.58-.47-1.05-1.05-1.05ZM27.46,66.18H1.21v-13.18h26.25v13.18ZM60.36,51.79h-26.58c-.58,0-1.05.47-1.05,1.05v13.51c0,.58.47,1.05,1.05,1.05h26.58c.58,0,1.05-.47,1.05-1.05v-13.51c0-.58-.47-1.05-1.05-1.05ZM60.19,66.18h-26.25v-13.18h26.25v13.18ZM78.95,51.79h-13.51c-.58,0-1.05.47-1.05,1.05v13.51c0,.58.47,1.05,1.05,1.05h13.51c.58,0,1.05-.47,1.05-1.05v-13.51c0-.58-.47-1.05-1.05-1.05ZM78.79,66.18h-13.18v-13.18h13.18v13.18Z"/></svg>