<?xml version="1.0" encoding="UTF-8"?><svg id="device" xmlns="http://www.w3.org/2000/svg" viewBox="0 0 80 80"><defs><style>.cls-1{fill:#fff;}</style></defs><g id="Layer_4"><path class="cls-1" d="M18.12,56.3h-9.19c-.3,0-.59.29-.59.59v6.91c0,.3.29.59.59.59h9.19c.3,0,.59-.29.59-.59v-6.91c0-.3-.29-.59-.59-.59ZM17.63,63.31h-8.21v-5.94h8.21v5.94ZM31.44,56.3h-9.19c-.3,0-.59.29-.59.59v6.91c0,.3.29.59.59.59h9.19c.3,0,.59-.29.59-.59v-6.91c0-.3-.29-.59-.59-.59ZM30.95,63.31h-8.21v-5.94h8.21v5.94ZM44.59,56.3h-9.19c-.3,0-.59.29-.59.59v6.91c0,.3.29.59.59.59h9.19c.3,0,.59-.29.59-.59v-6.91c0-.3-.29-.59-.59-.59ZM44.1,63.31h-8.21v-5.94h8.21v5.94ZM57.76,56.3h-9.19c-.3,0-.59.29-.59.59v6.91c0,.3.29.59.59.59h9.19c.3,0,.59-.29.59-.59v-6.91c0-.3-.29-.59-.59-.59ZM57.27,63.31h-8.21v-5.94h8.21v5.94ZM70.88,56.25h-9.19c-.3,0-.59.29-.59.59v6.92c0,.3.29.59.59.59h9.19c.3,0,.59-.29.59-.59v-6.92c0-.3-.29-.59-.59-.59ZM70.39,63.27h-8.21v-5.94h8.21v5.94ZM15.91,31.37v1.34c0,.24-.19.43-.43.43h-7.49c-.24,0-.43-.19-.43-.43v-1.34c0-.24.19-.43.43-.43h7.49c.24,0,.43.19.43.43ZM15.91,35.76v1.34c0,.24-.19.43-.43.43h-7.49c-.24,0-.43-.19-.43-.43v-1.34c0-.24.19-.43.43-.43h7.49c.24,0,.43.19.43.43ZM27.2,31.37v1.34c0,.24-.19.43-.43.43h-7.49c-.24,0-.43-.19-.43-.43v-1.34c0-.24.19-.43.43-.43h7.49c.24,0,.43.19.43.43ZM27.2,35.76v1.34c0,.24-.19.43-.43.43h-7.49c-.24,0-.43-.19-.43-.43v-1.34c0-.24.19-.43.43-.43h7.49c.24,0,.43.19.43.43ZM38.49,31.37v1.34c0,.24-.19.43-.43.43h-7.49c-.24,0-.43-.19-.43-.43v-1.34c0-.24.19-.43.43-.43h7.49c.24,0,.43.19.43.43ZM38.49,35.76v1.34c0,.24-.19.43-.43.43h-7.49c-.24,0-.43-.19-.43-.43v-1.34c0-.24.19-.43.43-.43h7.49c.24,0,.43.19.43.43ZM49.78,31.37v1.34c0,.24-.19.43-.43.43h-7.49c-.24,0-.43-.19-.43-.43v-1.34c0-.24.19-.43.43-.43h7.49c.24,0,.43.19.43.43ZM49.78,35.76v1.34c0,.24-.19.43-.43.43h-7.49c-.24,0-.43-.19-.43-.43v-1.34c0-.24.19-.43.43-.43h7.49c.24,0,.43.19.43.43ZM53.15,30.95h7.49c.24,0,.43.19.43.43v1.34c0,.24-.19.43-.43.43h-7.49c-.24,0-.43-.19-.43-.43v-1.34c0-.24.19-.43.43-.43ZM61.07,35.76v1.34c0,.24-.19.43-.43.43h-7.49c-.24,0-.43-.19-.43-.43v-1.34c0-.24.19-.43.43-.43h7.49c.24,0,.43.19.43.43ZM64.02,32.71v-1.34c0-.24.19-.43.43-.43h7.49c.24,0,.43.19.43.43v1.34c0,.24-.19.43-.43.43h-7.49c-.24,0-.43-.19-.43-.43ZM64.02,37.1v-1.34c0-.24.19-.43.43-.43h7.49c.24,0,.43.19.43.43v1.34c0,.24-.19.43-.43.43h-7.49c-.24,0-.43-.19-.43-.43ZM15.91,44.54v1.34c0,.24-.19.43-.43.43h-7.49c-.24,0-.43-.19-.43-.43v-1.34c0-.24.19-.43.43-.43h7.49c.24,0,.43.19.43.43ZM15.91,48.92v1.34c0,.24-.19.43-.43.43h-7.49c-.24,0-.43-.19-.43-.43v-1.34c0-.24.19-.43.43-.43h7.49c.24,0,.43.19.43.43ZM27.2,44.54v1.34c0,.24-.19.43-.43.43h-7.49c-.24,0-.43-.19-.43-.43v-1.34c0-.24.19-.43.43-.43h7.49c.24,0,.43.19.43.43ZM27.2,48.92v1.34c0,.24-.19.43-.43.43h-7.49c-.24,0-.43-.19-.43-.43v-1.34c0-.24.19-.43.43-.43h7.49c.24,0,.43.19.43.43ZM38.49,44.54v1.34c0,.24-.19.43-.43.43h-7.49c-.24,0-.43-.19-.43-.43v-1.34c0-.24.19-.43.43-.43h7.49c.24,0,.43.19.43.43ZM38.49,48.92v1.34c0,.24-.19.43-.43.43h-7.49c-.24,0-.43-.19-.43-.43v-1.34c0-.24.19-.43.43-.43h7.49c.24,0,.43.19.43.43ZM49.78,44.54v1.34c0,.24-.19.43-.43.43h-7.49c-.24,0-.43-.19-.43-.43v-1.34c0-.24.19-.43.43-.43h7.49c.24,0,.43.19.43.43ZM49.78,48.92v1.34c0,.24-.19.43-.43.43h-7.49c-.24,0-.43-.19-.43-.43v-1.34c0-.24.19-.43.43-.43h7.49c.24,0,.43.19.43.43ZM61.07,44.54v1.34c0,.24-.19.43-.43.43h-7.49c-.24,0-.43-.19-.43-.43v-1.34c0-.24.19-.43.43-.43h7.49c.24,0,.43.19.43.43ZM61.07,48.92v1.34c0,.24-.19.43-.43.43h-7.49c-.24,0-.43-.19-.43-.43v-1.34c0-.24.19-.43.43-.43h7.49c.24,0,.43.19.43.43ZM72.36,44.54v1.34c0,.24-.19.43-.43.43h-7.49c-.24,0-.43-.19-.43-.43v-1.34c0-.24.19-.43.43-.43h7.49c.24,0,.43.19.43.43ZM72.36,48.92v1.34c0,.24-.19.43-.43.43h-7.49c-.24,0-.43-.19-.43-.43v-1.34c0-.24.19-.43.43-.43h7.49c.24,0,.43.19.43.43ZM80,14.71c0-.41-.33-.74-.74-.74h-.96v-.64c0-.55-.45-1-1-1h-22.61c-.55,0-1,.45-1,1v.64H3.25s-.03,0-.04,0c-.01,0-.03,0-.04,0H.58C.28,13.96,0,14.25,0,14.54v13.07s0,.03,0,.04c0,.01,0,.03,0,.04v13.07s0,.03.01.05c0,.02-.01.03-.01.05v13.07s0,.03.01.05c0,.02-.01.03-.01.05v13.07c0,.3.28.58.58.58h2.59s.03,0,.04,0c.01,0,.03,0,.04,0h73.36s.03,0,.04,0c.01,0,.03,0,.04,0h2.73c.3,0,.58-.28.58-.58v-13.07s0-.03-.01-.05c0-.02.01-.03.01-.05v-13.07s0-.03-.01-.05c0-.02.01-.03.01-.05v-13.07s-.02-.08-.03-.12c0-.04.03-.08.03-.13v-12.75ZM78.92,53.44h-1.73v-12.07h1.73v12.07ZM2.67,53.44h-1.59v-12.07h1.59v12.07ZM3.75,41.36h72.36v12.07H3.75v-12.07ZM78.29,15.04h.63v12.08h-.63v-12.08ZM78.29,28.84v-.64h.63v12.07h-1.73v-10.43h.1c.55,0,1-.45,1-1ZM54.69,13.4h22.53v15.36h-22.53v-15.36ZM54.69,29.84h21.43v10.43H3.75v-12.07h49.93v.64c0,.55.45,1,1,1ZM53.68,17.49h-.63s-.06.03-.06.06v2.48s.03.06.06.06h.63v2.06h-.63s-.06.03-.06.06v2.48s.03.06.06.06h.63v2.36H3.75v-12.08h49.93v2.45ZM1.08,15.04h1.59v12.08h-1.59v-12.08ZM2.67,28.2v12.07h-1.59v-12.07h1.59ZM2.67,66.6h-1.59v-12.07h1.59v12.07ZM3.75,54.53h72.36v12.07H3.75v-12.07ZM78.92,66.6h-1.73v-12.07h1.73v12.07ZM5.95,20.09s-.06-.03-.06-.06v-2.48s.03-.06.06-.06h.66v-.69h1.44v.69h.66s.06.03.06.06v2.48s-.03.06-.06.06h-2.75ZM11.18,20.09s-.06-.03-.06-.06v-2.48s.03-.06.06-.06h.66v-.69h1.44v.69h.66s.06.03.06.06v2.48s-.03.06-.06.06h-2.75ZM16.42,20.09s-.06-.03-.06-.06v-2.48s.03-.06.06-.06h.66v-.69h1.44v.69h.66s.06.03.06.06v2.48s-.03.06-.06.06h-2.75ZM21.65,20.09s-.06-.03-.06-.06v-2.48s.03-.06.06-.06h.66v-.69h1.44v.69h.66s.06.03.06.06v2.48s-.03.06-.06.06h-2.75ZM26.88,20.09s-.06-.03-.06-.06v-2.48s.03-.06.06-.06h.66v-.69h1.44v.69h.66s.06.03.06.06v2.48s-.03.06-.06.06h-2.75ZM32.12,20.09s-.06-.03-.06-.06v-2.48s.03-.06.06-.06h.66v-.69h1.44v.69h.66s.06.03.06.06v2.48s-.03.06-.06.06h-2.75ZM37.35,20.09s-.06-.03-.06-.06v-2.48s.03-.06.06-.06h.66v-.69h1.44v.69h.66s.06.03.06.06v2.48s-.03.06-.06.06h-2.75ZM42.58,20.09s-.06-.03-.06-.06v-2.48s.03-.06.06-.06h.66v-.69h1.44v.69h.66s.06.03.06.06v2.48s-.03.06-.06.06h-2.75ZM47.82,20.09s-.06-.03-.06-.06v-2.48s.03-.06.06-.06h.66v-.69h1.44v.69h.66s.06.03.06.06v2.48s-.03.06-.06.06h-2.75ZM47.82,24.76s-.06-.03-.06-.06v-2.48s.03-.06.06-.06h2.75s.06.03.06.06v2.48s-.03.06-.06.06h-.66v.69h-1.44v-.69h-.66ZM42.58,24.76s-.06-.03-.06-.06v-2.48s.03-.06.06-.06h2.75s.06.03.06.06v2.48s-.03.06-.06.06h-.66v.69h-1.44v-.69h-.66ZM37.35,24.76s-.06-.03-.06-.06v-2.48s.03-.06.06-.06h2.75s.06.03.06.06v2.48s-.03.06-.06.06h-.66v.69h-1.44v-.69h-.66ZM32.12,24.76s-.06-.03-.06-.06v-2.48s.03-.06.06-.06h2.75s.06.03.06.06v2.48s-.03.06-.06.06h-.66v.69h-1.44v-.69h-.66ZM26.88,24.76s-.06-.03-.06-.06v-2.48s.03-.06.06-.06h2.75s.06.03.06.06v2.48s-.03.06-.06.06h-.66v.69h-1.44v-.69h-.66ZM21.65,24.76s-.06-.03-.06-.06v-2.48s.03-.06.06-.06h2.75s.06.03.06.06v2.48s-.03.06-.06.06h-.66v.69h-1.44v-.69h-.66ZM16.42,24.76s-.06-.03-.06-.06v-2.48s.03-.06.06-.06h2.75s.06.03.06.06v2.48s-.03.06-.06.06h-.66v.69h-1.44v-.69h-.66ZM11.18,24.76s-.06-.03-.06-.06v-2.48s.03-.06.06-.06h2.75s.06.03.06.06v2.48s-.03.06-.06.06h-.66v.69h-1.44v-.69h-.66ZM5.95,24.76s-.06-.03-.06-.06v-2.48s.03-.06.06-.06h2.75s.06.03.06.06v2.48s-.03.06-.06.06h-.66v.69h-1.44v-.69h-.66Z"/></g></svg>