<?xml version="1.0" encoding="UTF-8"?><svg id="device" xmlns="http://www.w3.org/2000/svg" viewBox="0 0 80 80"><defs><style>.cls-1{fill:#fff;}</style></defs><g id="Layer_4"><path class="cls-1" d="M68.64,37.75c-.16-.16-.43-.16-.58,0l-1.85,1.86c-.16.16-.16.42,0,.58l1.85,1.86c.08.08.18.12.29.12s.21-.04.29-.12l1.85-1.86c.16-.16.16-.42,0-.58l-1.85-1.86ZM68.35,41.18l-1.27-1.28,1.27-1.28,1.27,1.28-1.27,1.28ZM67.97,34.84v2.34h.82v-2.34c.53-.17.92-.65.92-1.24,0-.73-.59-1.32-1.32-1.32s-1.32.59-1.32,1.32c0,.58.38,1.06.9,1.24ZM68.39,33.1c.27,0,.5.22.5.5s-.22.5-.5.5-.5-.22-.5-.5.22-.5.5-.5ZM70.58,38.29l1.65-1.65c.19.1.39.16.59.16.34,0,.68-.13.94-.39.52-.52.52-1.36,0-1.87-.5-.5-1.37-.5-1.87,0-.25.25-.39.58-.39.93,0,.21.06.4.15.58l-1.66,1.66.58.58ZM72.48,35.13c.1-.1.22-.15.35-.15s.26.05.35.14c.19.19.19.51,0,.7-.19.19-.51.2-.7,0-.09-.09-.14-.22-.14-.35,0-.13.05-.26.15-.35ZM74.65,38.63c-.58,0-1.06.38-1.24.9h-2.34v.82h2.34c.17.53.65.92,1.24.92.73,0,1.32-.59,1.32-1.32s-.59-1.32-1.32-1.32ZM74.65,40.44c-.28,0-.5-.22-.5-.5s.22-.5.5-.5.5.22.5.5-.22.5-.5.5ZM72.19,43.21l-1.66-1.66-.58.58,1.65,1.65c-.25.5-.19,1.11.23,1.53.26.26.6.39.94.39s.68-.13.93-.38c.51-.51.51-1.35,0-1.87-.41-.41-1.02-.48-1.51-.24ZM73.12,44.74c-.19.19-.51.19-.7,0s-.2-.51,0-.7c.1-.1.22-.14.35-.14s.26.05.35.15c.09.09.15.22.15.35,0,.13-.05.26-.14.35ZM68.72,44.96v-2.34h-.82v2.34c-.53.17-.92.65-.92,1.24,0,.73.59,1.32,1.32,1.32s1.32-.59,1.32-1.32c0-.58-.38-1.06-.9-1.24ZM68.3,46.7c-.27,0-.5-.22-.5-.5s.22-.5.5-.5.5.22.5.5-.22.5-.5.5ZM66.11,41.51l-1.65,1.65c-.18-.09-.38-.16-.59-.16h0c-.35,0-.68.14-.93.39-.52.52-.52,1.35,0,1.87.26.26.59.38.93.38s.68-.13.94-.39c.41-.41.48-1.02.24-1.51l1.66-1.66-.58-.58ZM64.21,44.67c-.19.19-.51.2-.7,0-.09-.09-.14-.22-.14-.35,0-.13.05-.26.15-.35s.23-.15.35-.15.25.05.35.14c.09.09.14.22.14.35,0,.13-.05.26-.15.35ZM63.28,40.28h2.34v-.82h-2.34c-.17-.53-.65-.92-1.24-.92-.73,0-1.32.59-1.32,1.32s.59,1.32,1.32,1.32c.58,0,1.06-.38,1.24-.9ZM62.05,40.35c-.28,0-.5-.22-.5-.5s.22-.5.5-.5.5.22.5.5-.22.5-.5.5ZM63.92,36.73h0c.2,0,.39-.06.57-.15l1.66,1.66.58-.58-1.65-1.65c.09-.18.16-.38.16-.6,0-.35-.14-.68-.39-.93-.25-.25-.58-.39-.93-.39h0c-.35,0-.68.14-.93.39-.51.51-.51,1.35,0,1.87.25.25.58.39.93.39ZM63.57,35.06c.09-.09.22-.14.35-.14h0c.13,0,.26.05.35.15.09.09.15.22.15.35,0,.13-.05.26-.14.35-.19.19-.51.19-.7,0-.09-.09-.15-.22-.15-.35,0-.13.05-.26.14-.35ZM16.08,41.38v1.42c0,.21-.17.39-.39.39h-7.58c-.21,0-.39-.17-.39-.39v-1.42c0-.21.17-.39.39-.39h7.58c.21,0,.39.17.39.39ZM20.7,41.38v1.42c0,.21-.17.39-.39.39h-2.57c-.21,0-.39-.17-.39-.39v-1.42c0-.21.17-.39.39-.39h2.57c.21,0,.39.17.39.39ZM20.7,37v1.42c0,.21-.17.39-.39.39h-2.57c-.21,0-.39-.17-.39-.39v-1.42c0-.21.17-.39.39-.39h2.57c.21,0,.39.17.39.39ZM16.08,37v1.42c0,.21-.17.39-.39.39h-7.58c-.21,0-.39-.17-.39-.39v-1.42c0-.21.17-.39.39-.39h7.58c.21,0,.39.17.39.39ZM41.66,37v1.42c0,.21-.17.39-.39.39h-7.58c-.21,0-.38-.17-.38-.39v-1.42c0-.21.17-.39.38-.39h7.58c.21,0,.39.17.39.39ZM79.42,32.78h-2.73s-.02,0-.04,0c-.01,0-.02,0-.04,0h-.79c-1.89-1.96-4.54-3.19-7.48-3.19s-5.58,1.23-7.48,3.19H3.25s-.02,0-.04,0c-.01,0-.02,0-.04,0H.58c-.3,0-.58.28-.58.58v13.08c0,.3.28.58.58.58h2.6s.02,0,.04,0c.01,0,.02,0,.04,0h57.44c1.9,2.08,4.63,3.39,7.66,3.39s5.76-1.31,7.66-3.39h.61s.02,0,.04,0c.01,0,.02,0,.04,0h2.73c.3,0,.58-.28.58-.58v-13.08c0-.3-.28-.58-.58-.58ZM2.67,45.94h-1.59v-12.07h1.59v12.07ZM3.75,45.94v-12.07h56.22c-1.27,1.72-2.02,3.84-2.02,6.14s.7,4.25,1.87,5.94H3.75ZM68.35,49.32c-5.14,0-9.33-4.18-9.33-9.32s4.18-9.32,9.33-9.32,9.32,4.18,9.32,9.32-4.18,9.32-9.32,9.32ZM78.92,45.94h-1.73v-.49c.98-1.59,1.56-3.45,1.56-5.45s-.58-3.86-1.56-5.45v-.69h1.73v12.07ZM46.28,37v1.42c0,.21-.17.39-.39.39h-2.57c-.21,0-.39-.17-.39-.39v-1.42c0-.21.17-.39.39-.39h2.57c.21,0,.39.17.39.39ZM41.66,41.38v1.42c0,.21-.17.39-.39.39h-7.58c-.21,0-.38-.17-.38-.39v-1.42c0-.21.17-.39.38-.39h7.58c.21,0,.39.17.39.39ZM46.28,41.38v1.42c0,.21-.17.39-.39.39h-2.57c-.21,0-.39-.17-.39-.39v-1.42c0-.21.17-.39.39-.39h2.57c.21,0,.39.17.39.39Z"/></g></svg>