<svg width="80" height="80" viewBox="0 0 80 80" fill="none" xmlns="http://www.w3.org/2000/svg">
<path d="M78 0C79.1046 0 80 0.895431 80 2V78C80 79.0357 79.2128 79.887 78.2041 79.9893L78 80H2L1.7959 79.9893C0.854346 79.8938 0.106199 79.1457 0.0107422 78.2041L0 78V2C0 0.895431 0.895431 1.61064e-08 2 0H78ZM2 1C1.44771 1 1 1.44772 1 2V78C1 78.5523 1.44772 79 2 79H78C78.5523 79 79 78.5523 79 78V2C79 1.44771 78.5523 1 78 1H2ZM61 16C62.6569 16 64 17.3431 64 19C64 20.6569 62.6569 22 61 22C60.3519 22 59.7532 21.7927 59.2627 21.4434L48.8301 31.876C50.7976 34.0133 52 36.8659 52 40C52 43.1348 50.7964 45.9875 48.8281 48.125L59.2607 58.5576C59.7515 58.2075 60.3512 58 61 58C62.6569 58 64 59.3431 64 61C64 62.6569 62.6569 64 61 64C59.3431 64 58 62.6569 58 61C58 60.3534 58.2058 59.7555 58.5537 59.2656L48.1201 48.832C45.9831 50.7978 43.1326 52 40 52C36.8659 52 34.0133 50.7976 31.876 48.8301L21.4434 59.2627C21.7927 59.7532 22 60.3519 22 61C22 62.6569 20.6569 64 19 64C17.3431 64 16 62.6569 16 61C16 59.3431 17.3431 58 19 58C19.6476 58 20.2461 58.2068 20.7363 58.5557L31.1689 48.123C29.202 45.9858 28 43.1336 28 40C28 36.8674 29.2012 34.0159 31.167 31.8789L20.7334 21.4453C20.2436 21.7932 19.6465 22 19 22C17.3431 22 16 20.6569 16 19C16 17.3431 17.3431 16 19 16C20.6569 16 22 17.3431 22 19C22 19.6487 21.7915 20.2475 21.4414 20.7383L31.874 31.1719C33.8974 29.3085 36.562 28.1312 39.5 28.0107V21.958C38.0812 21.7199 37 20.4865 37 19L37.0039 18.8457C37.0842 17.2606 38.3949 16 40 16L40.1543 16.0039C41.7394 16.0842 43 17.3949 43 19L42.9961 19.1543C42.9243 20.571 41.8692 21.7251 40.5 21.9551V28.0107C43.4365 28.1311 46.1 29.3072 48.123 31.1689L58.5557 20.7363C58.2068 20.2461 58 19.6476 58 19C58 17.3431 59.3431 16 61 16ZM40.5 58.043C41.9187 58.2811 43 59.5136 43 61L42.9961 61.1543C42.9158 62.7394 41.6051 64 40 64C38.3431 64 37 62.6569 37 61L37.0039 60.8457C37.0757 59.4289 38.1307 58.2739 39.5 58.0439V52H40.5V58.043ZM19 59C17.8954 59 17 59.8954 17 61C17 62.1046 17.8954 63 19 63C20.1046 63 21 62.1046 21 61C21 59.8954 20.1046 59 19 59ZM40 59C38.8954 59 38 59.8954 38 61C38 62.1046 38.8954 63 40 63C41.1046 63 42 62.1046 42 61C42 59.8954 41.1046 59 40 59ZM61 59C59.8954 59 59 59.8954 59 61C59 62.1046 59.8954 63 61 63C62.1046 63 63 62.1046 63 61C63 59.8954 62.1046 59 61 59ZM40 29C33.9249 29 29 33.9249 29 40C29 46.0751 33.9249 51 40 51C46.0751 51 51 46.0751 51 40C51 33.9249 46.0751 29 40 29ZM40 33C43.866 33 47 36.134 47 40C47 43.866 43.866 47 40 47C36.134 47 33 43.866 33 40C33 36.134 36.134 33 40 33ZM40 34C36.6863 34 34 36.6863 34 40C34 43.3137 36.6863 46 40 46C43.3137 46 46 43.3137 46 40C46 36.6863 43.3137 34 40 34ZM19 37C20.4865 37 21.7199 38.0812 21.958 39.5H28V40.5H21.958C21.7199 41.9188 20.4865 43 19 43C17.3431 43 16 41.6569 16 40C16 38.3431 17.3431 37 19 37ZM61 37C62.6569 37 64 38.3431 64 40C64 41.6569 62.6569 43 61 43C59.5135 43 58.2801 41.9188 58.042 40.5H52V39.5H58.042C58.2801 38.0812 59.5135 37 61 37ZM19 38C17.8954 38 17 38.8954 17 40C17 41.1046 17.8954 42 19 42C20.1046 42 21 41.1046 21 40C21 38.8954 20.1046 38 19 38ZM61 38C59.8954 38 59 38.8954 59 40C59 41.1046 59.8954 42 61 42C62.1046 42 63 41.1046 63 40C63 38.8954 62.1046 38 61 38ZM19 17C17.8954 17 17 17.8954 17 19C17 20.1046 17.8954 21 19 21C20.1046 21 21 20.1046 21 19C21 17.8954 20.1046 17 19 17ZM40 17C38.8954 17 38 17.8954 38 19C38 20.1046 38.8954 21 40 21C41.1046 21 42 20.1046 42 19C42 17.8954 41.1046 17 40 17ZM61 17C59.8954 17 59 17.8954 59 19C59 20.1046 59.8954 21 61 21C62.1046 21 63 20.1046 63 19C63 17.8954 62.1046 17 61 17Z" fill="white"/>
</svg>
