<?xml version="1.0" encoding="UTF-8"?><svg id="device" xmlns="http://www.w3.org/2000/svg" viewBox="0 0 80 80"><defs><style>.cls-1{fill:#07182d;}</style></defs><g id="Layer_4"><path class="cls-1" d="M79.64.58c0-.3-.28-.58-.58-.58h-12.25s-.07.02-.1.02c-.03,0-.06-.02-.09-.02h-13.07s-.03,0-.04,0c-.01,0-.03,0-.04,0h-13.07s-.03,0-.04,0c-.01,0-.03,0-.04,0h-13.07s-.03,0-.04,0c-.01,0-.03,0-.04,0h-13.07s-.03,0-.04,0c-.01,0-.03,0-.04,0H.95C.65,0,.36.29.36.59v2.73s0,.03,0,.04c0,.01,0,.03,0,.04v73.34s0,.03,0,.04c0,.01,0,.03,0,.04v2.59c0,.3.28.58.59.58h13.07s.03,0,.04,0c.01,0,.03,0,.04,0h13.07s.03,0,.04,0c.01,0,.03,0,.04,0h13.07s.03,0,.04,0c.01,0,.03,0,.04,0h13.07s.03,0,.04,0c.01,0,.03,0,.04,0h13.07s.06-.01.1-.02c.03,0,.06.02.09.02h12.25c.3,0,.58-.28.58-.58v-2.59s0-.03,0-.04c0-.01,0-.03,0-.04V3.39s0-.03,0-.04c0-.01,0-.03,0-.04V.58ZM1.45,3.9h12.06v72.34H1.45V3.9ZM14.6,3.9h12.06v72.34h-12.06V3.9ZM27.75,3.9h12.06v72.34h-12.06V3.9ZM40.9,3.9h12.06v72.34h-12.06V3.9ZM54.06,3.9h12.06v72.34h-12.06V3.9ZM67.31,3.9h11.24v72.34h-11.24V3.9ZM67.31,1.09h11.24v1.72h-11.24v-1.72ZM66.12,2.81h-12.06v-1.72h12.06v1.72ZM52.97,2.81h-12.06v-1.72h12.06v1.72ZM39.82,2.81h-12.06v-1.72h12.06v1.72ZM26.66,2.81h-12.06v-1.72h12.06v1.72ZM1.45,1.09h12.06v1.72H1.45v-1.72ZM1.45,77.33h12.06v1.58H1.45v-1.58ZM14.6,77.33h12.06v1.58h-12.06v-1.58ZM27.75,77.33h12.06v1.58h-12.06v-1.58ZM40.9,77.33h12.06v1.58h-12.06v-1.58ZM66.12,78.91h-12.06v-1.58h12.06v1.58ZM78.55,78.91h-11.24v-1.58h11.24v1.58ZM75.96,61.61h-6.48c-.3,0-.59.29-.59.59v9.33c0,.3.29.59.59.59h6.48c.3,0,.59-.29.59-.59v-9.33c0-.3-.29-.59-.59-.59ZM75.47,71.04h-5.49v-8.34h5.49v8.34ZM75.96,48.09h-6.48c-.3,0-.59.29-.59.59v9.33c0,.3.29.59.59.59h6.48c.3,0,.59-.29.59-.59v-9.33c0-.3-.29-.59-.59-.59ZM75.47,57.52h-5.49v-8.34h5.49v8.34ZM75.96,34.74h-6.48c-.3,0-.59.29-.59.59v9.33c0,.3.29.59.59.59h6.48c.3,0,.59-.29.59-.59v-9.33c0-.3-.29-.59-.59-.59ZM75.47,44.17h-5.49v-8.34h5.49v8.34ZM75.96,21.38h-6.48c-.3,0-.59.29-.59.59v9.33c0,.3.29.59.59.59h6.48c.3,0,.59-.29.59-.59v-9.33c0-.3-.29-.59-.59-.59ZM75.47,30.81h-5.49v-8.34h5.49v8.34ZM69.44,18.58h6.48c.3,0,.59-.29.59-.59v-9.33c0-.3-.29-.59-.59-.59h-6.48c-.3,0-.59.29-.59.59v9.33c0,.3.29.59.59.59ZM69.94,9.15h5.49v8.34h-5.49v-8.34ZM6.39,64.52v7.49c0,.24-.19.43-.43.43h-1.34c-.24,0-.43-.19-.43-.43v-7.49c0-.24.19-.43.43-.43h1.34c.24,0,.43.19.43.43ZM6.39,59.9v2.48c0,.24-.19.43-.43.43h-1.34c-.24,0-.43-.19-.43-.43v-2.48c0-.24.19-.43.43-.43h1.34c.24,0,.43.19.43.43ZM6.39,47.28v7.49c0,.24-.19.43-.43.43h-1.34c-.24,0-.43-.19-.43-.43v-7.49c0-.24.19-.43.43-.43h1.34c.24,0,.43.19.43.43ZM6.39,42.66v2.48c0,.24-.19.43-.43.43h-1.34c-.24,0-.43-.19-.43-.43v-2.48c0-.24.19-.43.43-.43h1.34c.24,0,.43.19.43.43ZM6.39,30.04v7.49c0,.24-.19.43-.43.43h-1.34c-.24,0-.43-.19-.43-.43v-7.49c0-.24.19-.43.43-.43h1.34c.24,0,.43.19.43.43ZM6.39,25.41v2.48c0,.24-.19.43-.43.43h-1.34c-.24,0-.43-.19-.43-.43v-2.48c0-.24.19-.43.43-.43h1.34c.24,0,.43.19.43.43ZM6.39,12.79v7.49c0,.24-.19.43-.43.43h-1.34c-.24,0-.43-.19-.43-.43v-7.49c0-.24.19-.43.43-.43h1.34c.24,0,.43.19.43.43ZM6.39,8.17v2.48c0,.24-.19.43-.43.43h-1.34c-.24,0-.43-.19-.43-.43v-2.48c0-.24.19-.43.43-.43h1.34c.24,0,.43.19.43.43ZM10.77,64.52v7.49c0,.24-.19.43-.43.43h-1.34c-.24,0-.43-.19-.43-.43v-7.49c0-.24.19-.43.43-.43h1.34c.24,0,.43.19.43.43ZM10.77,59.9v2.48c0,.24-.19.43-.43.43h-1.34c-.24,0-.43-.19-.43-.43v-2.48c0-.24.19-.43.43-.43h1.34c.24,0,.43.19.43.43ZM10.77,47.28v7.49c0,.24-.19.43-.43.43h-1.34c-.24,0-.43-.19-.43-.43v-7.49c0-.24.19-.43.43-.43h1.34c.24,0,.43.19.43.43ZM10.77,42.66v2.48c0,.24-.19.43-.43.43h-1.34c-.24,0-.43-.19-.43-.43v-2.48c0-.24.19-.43.43-.43h1.34c.24,0,.43.19.43.43ZM10.77,30.04v7.49c0,.24-.19.43-.43.43h-1.34c-.24,0-.43-.19-.43-.43v-7.49c0-.24.19-.43.43-.43h1.34c.24,0,.43.19.43.43ZM10.77,25.41v2.48c0,.24-.19.43-.43.43h-1.34c-.24,0-.43-.19-.43-.43v-2.48c0-.24.19-.43.43-.43h1.34c.24,0,.43.19.43.43ZM10.77,12.79v7.49c0,.24-.19.43-.43.43h-1.34c-.24,0-.43-.19-.43-.43v-7.49c0-.24.19-.43.43-.43h1.34c.24,0,.43.19.43.43ZM10.77,8.17v2.48c0,.24-.19.43-.43.43h-1.34c-.24,0-.43-.19-.43-.43v-2.48c0-.24.19-.43.43-.43h1.34c.24,0,.43.19.43.43ZM19.54,64.52v7.49c0,.24-.19.43-.43.43h-1.34c-.24,0-.43-.19-.43-.43v-7.49c0-.24.19-.43.43-.43h1.34c.24,0,.43.19.43.43ZM19.54,59.9v2.48c0,.24-.19.43-.43.43h-1.34c-.24,0-.43-.19-.43-.43v-2.48c0-.24.19-.43.43-.43h1.34c.24,0,.43.19.43.43ZM19.54,47.28v7.49c0,.24-.19.43-.43.43h-1.34c-.24,0-.43-.19-.43-.43v-7.49c0-.24.19-.43.43-.43h1.34c.24,0,.43.19.43.43ZM19.54,42.66v2.48c0,.24-.19.43-.43.43h-1.34c-.24,0-.43-.19-.43-.43v-2.48c0-.24.19-.43.43-.43h1.34c.24,0,.43.19.43.43ZM19.54,30.04v7.49c0,.24-.19.43-.43.43h-1.34c-.24,0-.43-.19-.43-.43v-7.49c0-.24.19-.43.43-.43h1.34c.24,0,.43.19.43.43ZM19.54,25.41v2.48c0,.24-.19.43-.43.43h-1.34c-.24,0-.43-.19-.43-.43v-2.48c0-.24.19-.43.43-.43h1.34c.24,0,.43.19.43.43ZM19.54,12.79v7.49c0,.24-.19.43-.43.43h-1.34c-.24,0-.43-.19-.43-.43v-7.49c0-.24.19-.43.43-.43h1.34c.24,0,.43.19.43.43ZM19.54,8.17v2.48c0,.24-.19.43-.43.43h-1.34c-.24,0-.43-.19-.43-.43v-2.48c0-.24.19-.43.43-.43h1.34c.24,0,.43.19.43.43ZM23.92,64.52v7.49c0,.24-.19.43-.43.43h-1.34c-.24,0-.43-.19-.43-.43v-7.49c0-.24.19-.43.43-.43h1.34c.24,0,.43.19.43.43ZM23.92,59.9v2.48c0,.24-.19.43-.43.43h-1.34c-.24,0-.43-.19-.43-.43v-2.48c0-.24.19-.43.43-.43h1.34c.24,0,.43.19.43.43ZM23.92,47.28v7.49c0,.24-.19.43-.43.43h-1.34c-.24,0-.43-.19-.43-.43v-7.49c0-.24.19-.43.43-.43h1.34c.24,0,.43.19.43.43ZM23.92,42.66v2.48c0,.24-.19.43-.43.43h-1.34c-.24,0-.43-.19-.43-.43v-2.48c0-.24.19-.43.43-.43h1.34c.24,0,.43.19.43.43ZM23.92,30.04v7.49c0,.24-.19.43-.43.43h-1.34c-.24,0-.43-.19-.43-.43v-7.49c0-.24.19-.43.43-.43h1.34c.24,0,.43.19.43.43ZM23.92,25.41v2.48c0,.24-.19.43-.43.43h-1.34c-.24,0-.43-.19-.43-.43v-2.48c0-.24.19-.43.43-.43h1.34c.24,0,.43.19.43.43ZM23.92,12.79v7.49c0,.24-.19.43-.43.43h-1.34c-.24,0-.43-.19-.43-.43v-7.49c0-.24.19-.43.43-.43h1.34c.24,0,.43.19.43.43ZM23.92,8.17v2.48c0,.24-.19.43-.43.43h-1.34c-.24,0-.43-.19-.43-.43v-2.48c0-.24.19-.43.43-.43h1.34c.24,0,.43.19.43.43ZM32.69,64.52v7.49c0,.24-.19.43-.43.43h-1.34c-.24,0-.43-.19-.43-.43v-7.49c0-.24.19-.43.43-.43h1.34c.24,0,.43.19.43.43ZM32.69,59.9v2.48c0,.24-.19.43-.43.43h-1.34c-.24,0-.43-.19-.43-.43v-2.48c0-.24.19-.43.43-.43h1.34c.24,0,.43.19.43.43ZM32.69,47.28v7.49c0,.24-.19.43-.43.43h-1.34c-.24,0-.43-.19-.43-.43v-7.49c0-.24.19-.43.43-.43h1.34c.24,0,.43.19.43.43ZM32.69,42.66v2.48c0,.24-.19.43-.43.43h-1.34c-.24,0-.43-.19-.43-.43v-2.48c0-.24.19-.43.43-.43h1.34c.24,0,.43.19.43.43ZM32.69,30.04v7.49c0,.24-.19.43-.43.43h-1.34c-.24,0-.43-.19-.43-.43v-7.49c0-.24.19-.43.43-.43h1.34c.24,0,.43.19.43.43ZM32.69,25.41v2.48c0,.24-.19.43-.43.43h-1.34c-.24,0-.43-.19-.43-.43v-2.48c0-.24.19-.43.43-.43h1.34c.24,0,.43.19.43.43ZM32.69,12.79v7.49c0,.24-.19.43-.43.43h-1.34c-.24,0-.43-.19-.43-.43v-7.49c0-.24.19-.43.43-.43h1.34c.24,0,.43.19.43.43ZM32.69,8.17v2.48c0,.24-.19.43-.43.43h-1.34c-.24,0-.43-.19-.43-.43v-2.48c0-.24.19-.43.43-.43h1.34c.24,0,.43.19.43.43ZM37.07,64.52v7.49c0,.24-.19.43-.43.43h-1.34c-.24,0-.43-.19-.43-.43v-7.49c0-.24.19-.43.43-.43h1.34c.24,0,.43.19.43.43ZM37.07,59.9v2.48c0,.24-.19.43-.43.43h-1.34c-.24,0-.43-.19-.43-.43v-2.48c0-.24.19-.43.43-.43h1.34c.24,0,.43.19.43.43ZM37.07,47.28v7.49c0,.24-.19.43-.43.43h-1.34c-.24,0-.43-.19-.43-.43v-7.49c0-.24.19-.43.43-.43h1.34c.24,0,.43.19.43.43ZM37.07,42.66v2.48c0,.24-.19.43-.43.43h-1.34c-.24,0-.43-.19-.43-.43v-2.48c0-.24.19-.43.43-.43h1.34c.24,0,.43.19.43.43ZM37.07,30.04v7.49c0,.24-.19.43-.43.43h-1.34c-.24,0-.43-.19-.43-.43v-7.49c0-.24.19-.43.43-.43h1.34c.24,0,.43.19.43.43ZM37.07,25.41v2.48c0,.24-.19.43-.43.43h-1.34c-.24,0-.43-.19-.43-.43v-2.48c0-.24.19-.43.43-.43h1.34c.24,0,.43.19.43.43ZM37.07,12.79v7.49c0,.24-.19.43-.43.43h-1.34c-.24,0-.43-.19-.43-.43v-7.49c0-.24.19-.43.43-.43h1.34c.24,0,.43.19.43.43ZM37.07,8.17v2.48c0,.24-.19.43-.43.43h-1.34c-.24,0-.43-.19-.43-.43v-2.48c0-.24.19-.43.43-.43h1.34c.24,0,.43.19.43.43ZM45.84,64.52v7.49c0,.24-.19.43-.43.43h-1.34c-.24,0-.43-.19-.43-.43v-7.49c0-.24.19-.43.43-.43h1.34c.24,0,.43.19.43.43ZM45.84,59.9v2.48c0,.24-.19.43-.43.43h-1.34c-.24,0-.43-.19-.43-.43v-2.48c0-.24.19-.43.43-.43h1.34c.24,0,.43.19.43.43ZM45.84,47.28v7.49c0,.24-.19.43-.43.43h-1.34c-.24,0-.43-.19-.43-.43v-7.49c0-.24.19-.43.43-.43h1.34c.24,0,.43.19.43.43ZM45.84,42.66v2.48c0,.24-.19.43-.43.43h-1.34c-.24,0-.43-.19-.43-.43v-2.48c0-.24.19-.43.43-.43h1.34c.24,0,.43.19.43.43ZM45.84,30.04v7.49c0,.24-.19.43-.43.43h-1.34c-.24,0-.43-.19-.43-.43v-7.49c0-.24.19-.43.43-.43h1.34c.24,0,.43.19.43.43ZM45.84,25.41v2.48c0,.24-.19.43-.43.43h-1.34c-.24,0-.43-.19-.43-.43v-2.48c0-.24.19-.43.43-.43h1.34c.24,0,.43.19.43.43ZM45.84,12.79v7.49c0,.24-.19.43-.43.43h-1.34c-.24,0-.43-.19-.43-.43v-7.49c0-.24.19-.43.43-.43h1.34c.24,0,.43.19.43.43ZM45.84,8.17v2.48c0,.24-.19.43-.43.43h-1.34c-.24,0-.43-.19-.43-.43v-2.48c0-.24.19-.43.43-.43h1.34c.24,0,.43.19.43.43ZM50.22,64.52v7.49c0,.24-.19.43-.43.43h-1.34c-.24,0-.43-.19-.43-.43v-7.49c0-.24.19-.43.43-.43h1.34c.24,0,.43.19.43.43ZM50.22,59.9v2.48c0,.24-.19.43-.43.43h-1.34c-.24,0-.43-.19-.43-.43v-2.48c0-.24.19-.43.43-.43h1.34c.24,0,.43.19.43.43ZM50.22,47.28v7.49c0,.24-.19.43-.43.43h-1.34c-.24,0-.43-.19-.43-.43v-7.49c0-.24.19-.43.43-.43h1.34c.24,0,.43.19.43.43ZM50.22,42.66v2.48c0,.24-.19.43-.43.43h-1.34c-.24,0-.43-.19-.43-.43v-2.48c0-.24.19-.43.43-.43h1.34c.24,0,.43.19.43.43ZM50.22,30.04v7.49c0,.24-.19.43-.43.43h-1.34c-.24,0-.43-.19-.43-.43v-7.49c0-.24.19-.43.43-.43h1.34c.24,0,.43.19.43.43ZM50.22,25.41v2.48c0,.24-.19.43-.43.43h-1.34c-.24,0-.43-.19-.43-.43v-2.48c0-.24.19-.43.43-.43h1.34c.24,0,.43.19.43.43ZM50.22,12.79v7.49c0,.24-.19.43-.43.43h-1.34c-.24,0-.43-.19-.43-.43v-7.49c0-.24.19-.43.43-.43h1.34c.24,0,.43.19.43.43ZM50.22,8.17v2.48c0,.24-.19.43-.43.43h-1.34c-.24,0-.43-.19-.43-.43v-2.48c0-.24.19-.43.43-.43h1.34c.24,0,.43.19.43.43ZM58.99,64.52v7.49c0,.24-.19.43-.43.43h-1.34c-.24,0-.43-.19-.43-.43v-7.49c0-.24.19-.43.43-.43h1.34c.24,0,.43.19.43.43ZM58.99,59.9v2.48c0,.24-.19.43-.43.43h-1.34c-.24,0-.43-.19-.43-.43v-2.48c0-.24.19-.43.43-.43h1.34c.24,0,.43.19.43.43ZM58.99,47.28v7.49c0,.24-.19.43-.43.43h-1.34c-.24,0-.43-.19-.43-.43v-7.49c0-.24.19-.43.43-.43h1.34c.24,0,.43.19.43.43ZM58.99,42.66v2.48c0,.24-.19.43-.43.43h-1.34c-.24,0-.43-.19-.43-.43v-2.48c0-.24.19-.43.43-.43h1.34c.24,0,.43.19.43.43ZM58.99,30.04v7.49c0,.24-.19.43-.43.43h-1.34c-.24,0-.43-.19-.43-.43v-7.49c0-.24.19-.43.43-.43h1.34c.24,0,.43.19.43.43ZM58.99,25.41v2.48c0,.24-.19.43-.43.43h-1.34c-.24,0-.43-.19-.43-.43v-2.48c0-.24.19-.43.43-.43h1.34c.24,0,.43.19.43.43ZM58.99,12.79v7.49c0,.24-.19.43-.43.43h-1.34c-.24,0-.43-.19-.43-.43v-7.49c0-.24.19-.43.43-.43h1.34c.24,0,.43.19.43.43ZM58.99,8.17v2.48c0,.24-.19.43-.43.43h-1.34c-.24,0-.43-.19-.43-.43v-2.48c0-.24.19-.43.43-.43h1.34c.24,0,.43.19.43.43ZM63.37,64.52v7.49c0,.24-.19.43-.43.43h-1.34c-.24,0-.43-.19-.43-.43v-7.49c0-.24.19-.43.43-.43h1.34c.24,0,.43.19.43.43ZM63.37,59.9v2.48c0,.24-.19.43-.43.43h-1.34c-.24,0-.43-.19-.43-.43v-2.48c0-.24.19-.43.43-.43h1.34c.24,0,.43.19.43.43ZM63.37,47.28v7.49c0,.24-.19.43-.43.43h-1.34c-.24,0-.43-.19-.43-.43v-7.49c0-.24.19-.43.43-.43h1.34c.24,0,.43.19.43.43ZM63.37,42.66v2.48c0,.24-.19.43-.43.43h-1.34c-.24,0-.43-.19-.43-.43v-2.48c0-.24.19-.43.43-.43h1.34c.24,0,.43.19.43.43ZM63.37,30.04v7.49c0,.24-.19.43-.43.43h-1.34c-.24,0-.43-.19-.43-.43v-7.49c0-.24.19-.43.43-.43h1.34c.24,0,.43.19.43.43ZM63.37,25.41v2.48c0,.24-.19.43-.43.43h-1.34c-.24,0-.43-.19-.43-.43v-2.48c0-.24.19-.43.43-.43h1.34c.24,0,.43.19.43.43ZM63.37,12.79v7.49c0,.24-.19.43-.43.43h-1.34c-.24,0-.43-.19-.43-.43v-7.49c0-.24.19-.43.43-.43h1.34c.24,0,.43.19.43.43ZM63.37,8.17v2.48c0,.24-.19.43-.43.43h-1.34c-.24,0-.43-.19-.43-.43v-2.48c0-.24.19-.43.43-.43h1.34c.24,0,.43.19.43.43Z"/></g></svg>