<?xml version="1.0" encoding="UTF-8"?><svg id="device" xmlns="http://www.w3.org/2000/svg" viewBox="0 0 80 80"><defs><style>.cls-1{fill:#07182d;}</style></defs><g id="Layer_4"><path class="cls-1" d="M74.71,35.05h-3.12c-.37,0-.67.3-.69.67-.03-.37-.33-.67-.72-.67h-1.96c-.2,0-.38.11-.47.28-.09.16-.2.31-.3.43,0,0-.03.04-.03.04-.06.07-.13.17-.2.3,0,.02-.03.09-.06.23-.04.2.04.4.19.52l.58.46c.25.2.5.43.74.69.1.11.25.17.4.17h1.11c.38,0,.69-.3.72-.67.02.37.32.67.69.67h3.12c.38,0,.7-.31.7-.7v-1.74c0-.38-.31-.7-.7-.7ZM69.84,37.1h-.52c-.23-.23-.46-.44-.69-.63l-.21-.17c.04-.06.09-.12.13-.18h1.3v.97ZM74.33,37.1h-2.35v-.97h2.35v.97ZM74.7,38.4h-1.72c-.39,0-.71.32-.71.71v1.72c0,.39.32.71.71.71h1.72c.39,0,.71-.32.71-.71v-1.72c0-.39-.32-.71-.71-.71ZM74.33,40.45h-.97v-.97h.97v.97ZM67.66,37.69c-.16-.13-.38-.15-.56-.07-.43.2-.31.62-.23.9.08.27.13.48.17.65-.48-.86-.49-2.68-.21-3.33.04-.1.17-.26.26-.38.11-.14.22-.28.29-.42.09-.18.09-.48-.03-.64-.12-.16-.36-.25-.57-.22-.05,0-.09.02-.13.04-2.39,1.09-3.96,3.23-4.16,5.55,0-.01,0-.02-.01-.03-.08-.18-.07-.37,0-.55.12-.26.02-.56-.23-.7-.25-.14-.56-.06-.71.18-1.12,1.73-1.07,3.76.14,5.29.95,1.2,2.4,1.85,3.94,1.85.62,0,1.25-.11,1.87-.33,1.74-.62,2.28-1.81,2.43-2.7.28-1.69-.68-3.83-2.27-5.1ZM68.86,42.61c-.15.88-.73,1.51-1.72,1.87-1.98.71-3.74-.08-4.61-1.18-.6-.76-.82-1.65-.67-2.55.26.28.6.51,1,.66.18.07.37.03.52-.08.15-.12.22-.3.2-.49-.23-1.97.74-3.62,2.06-4.72-.19,1.14-.06,2.87.58,3.79.41.6.91.7,1.26.69.22-.01.42-.12.54-.29.08-.11.13-.25.15-.41.55.89.82,1.89.68,2.72ZM70.86,41.53h.63c.38,0,.69-.32.69-.71v-1.72c0-.39-.31-.71-.69-.71h-1.44c-.19,0-.37.1-.47.27-.1.17-.09.38,0,.54.36.61.61,1.24.75,1.89.05.25.27.43.53.43ZM71.1,39.48v.41c-.05-.14-.11-.27-.17-.41h.17ZM74.71,41.62h-3.72c-.14,0-.28.06-.38.16-.1.1-.16.24-.16.38,0,.24-.02.47-.05.7-.06.38-.19.75-.37,1.11-.09.17-.08.37.02.53.1.16.27.26.46.26h4.2c.38,0,.7-.31.7-.7v-1.74c0-.38-.31-.7-.7-.7ZM74.33,43.68h-3.02c.06-.21.11-.42.15-.64.02-.11.03-.22.04-.34h2.83v.97ZM27.92,38.36s.06.03.06.06v2.48s-.03.06-.06.06h-.66v.69h-1.44v-.69h-.66s-.06-.03-.06-.06v-2.48s.03-.06.06-.06h2.75ZM22.74,38.36s.06.03.06.06v2.48s-.03.06-.06.06h-.66v.69h-1.44v-.69h-.66s-.06-.03-.06-.06v-2.48s.03-.06.06-.06h2.75ZM79.26,32.88h-2.4s-.09.02-.13.03c-.04,0-.08-.03-.12-.03h-.67c-1.9-2.02-4.59-3.29-7.57-3.29s-5.67,1.27-7.57,3.29H3.25s-.03,0-.04,0c-.01,0-.03,0-.04,0H.58C.28,32.88,0,33.17,0,33.46v13.07c0,.3.28.58.58.58h2.59s.03,0,.04,0c.01,0,.03,0,.04,0h57.54c1.9,2.02,4.59,3.29,7.57,3.29s5.67-1.27,7.57-3.29h.67s.08-.02.12-.03c.04,0,.08.03.13.03h2.4c.41,0,.74-.33.74-.74v-12.75c0-.41-.33-.74-.74-.74ZM2.67,46.04h-1.59v-12.07h1.59v12.07ZM3.75,46.04v-12.07h56.16c-1.22,1.7-1.95,3.79-1.95,6.04s.73,4.33,1.95,6.04H3.75ZM68.37,49.33c-5.14,0-9.33-4.18-9.33-9.33s4.18-9.33,9.33-9.33,9.33,4.18,9.33,9.33-4.18,9.33-9.33,9.33ZM78.92,46.04h-1.73v-.55c1-1.6,1.58-3.47,1.58-5.49s-.59-3.89-1.58-5.49v-.55h1.73v12.07ZM33.1,38.36s.06.03.06.06v2.48s-.03.06-.06.06h-.66v.69h-1.44v-.69h-.66s-.06-.03-.06-.06v-2.48s.03-.06.06-.06h2.75ZM56.57,38.52v2.97c0,.11-.09.21-.21.21h-6.29c-.11,0-.21-.09-.21-.21v-2.97c0-.11.09-.21.21-.21h6.29c.11,0,.21.09.21.21ZM38.28,38.36s.06.03.06.06v2.48s-.03.06-.06.06h-.66v.69h-1.44v-.69h-.66s-.06-.03-.06-.06v-2.48s.03-.06.06-.06h2.75ZM48.41,38.52v2.97c0,.11-.09.21-.21.21h-6.29c-.11,0-.21-.09-.21-.21v-2.97c0-.11.09-.21.21-.21h6.29c.11,0,.21.09.21.21Z"/></g></svg>