<?xml version="1.0" encoding="UTF-8"?><svg id="modifiers" xmlns="http://www.w3.org/2000/svg" viewBox="0 0 80 80"><defs><style>.cls-1{fill:#fff;}</style></defs><path class="cls-1" d="M63.98,27.17h-15.13v1.05h14.77v24.84h-3.91c-.64,0-1.16.62-1.16,1.39v4.94l-3.04-5.87c-.22-.3-.54-.47-.87-.47h-20.82v-2.6h-1.05v2.98c0,.37.31.67.7.67l21.16-.03,3.72,7.18c.13.18.34.29.56.29.08,0,.15-.01.23-.04.28-.09.47-.35.47-.64v-6.42c0-.2.09-.32.11-.34h4.27c.38,0,.69-.3.69-.67v-25.6c0-.37-.31-.67-.69-.67ZM46.97,47.3v-24.81c0-.9-.73-1.63-1.63-1.63h-28.38c-.9,0-1.63.73-1.63,1.63v24.81c0,.9.73,1.63,1.63,1.63h4.25c.1,0,.24.15.24.37v6.9c0,.26.16.49.4.58.05.02.11.03.17.03.21,0,.45-.11.55-.27l4.62-7.53s.08-.08.14-.08h18.02c.9,0,1.63-.73,1.63-1.63ZM26.34,48.39l-3.84,6.26v-5.35c0-.79-.58-1.43-1.29-1.43h-4.25c-.32,0-.58-.26-.58-.58v-24.81c0-.32.26-.58.58-.58h28.38c.32,0,.58.26.58.58v24.81c0,.32-.26.58-.58.58h-18.02c-.36,0-.7.16-.99.52ZM40,0C17.94,0,0,17.94,0,40s17.94,40,40,40,40-17.94,40-40S62.06,0,40,0ZM40,78.95C18.52,78.95,1.05,61.48,1.05,40S18.52,1.05,40,1.05s38.95,17.47,38.95,38.95-17.47,38.95-38.95,38.95ZM40,63.02c-3.48,0-6.3,2.8-6.3,6.23s2.83,6.23,6.3,6.23,6.3-2.8,6.3-6.23-2.83-6.23-6.3-6.23ZM40,74.43c-2.89,0-5.25-2.32-5.25-5.18s2.36-5.18,5.25-5.18,5.25,2.32,5.25,5.18-2.36,5.18-5.25,5.18ZM39.37,70.35l-1.41-1.34-.72.76,1.78,1.69c.1.1.23.14.36.14s.27-.05.37-.15l3.32-3.27-.74-.75-2.96,2.91Z"/></svg>