<?xml version="1.0" encoding="UTF-8"?><svg id="device" xmlns="http://www.w3.org/2000/svg" viewBox="0 0 80 80"><defs><style>.cls-1{fill:#fff;}</style></defs><g id="Layer_4"><path class="cls-1" d="M68.27,37.37c0-.3.24-.54.54-.54h4.86c.3,0,.54.24.54.54s-.24.54-.54.54h-4.86c-.3,0-.54-.24-.54-.54ZM68.81,43.17h4.86c.3,0,.54-.24.54-.54s-.24-.54-.54-.54h-4.86c-.3,0-.54.24-.54.54s.24.54.54.54ZM80,33.63v12.75c0,.41-.33.74-.74.74h-2.4s-.09-.02-.13-.03c-.04,0-.08.03-.12.03H3.25s-.03,0-.04,0c-.01,0-.03,0-.04,0H.58C.28,47.12,0,46.83,0,46.54v-13.07C0,33.17.28,32.88.58,32.88h2.59s.03,0,.04,0c.01,0,.03,0,.04,0h73.36s.08.02.12.03c.04,0,.08-.03.13-.03h2.4c.41,0,.74.33.74.74ZM2.67,33.96h-1.59v12.07h1.59v-12.07ZM76.11,33.96H3.75v12.07h72.36v-12.07ZM78.92,33.96h-1.73v12.07h1.73v-12.07ZM8.7,39.01s.06-.03.06-.06v-2.48s-.03-.06-.06-.06h-.66v-.69h-1.44v.69h-.66s-.06.03-.06.06v2.48s.03.06.06.06h2.75ZM13.94,39.01s.06-.03.06-.06v-2.48s-.03-.06-.06-.06h-.66v-.69h-1.44v.69h-.66s-.06.03-.06.06v2.48s.03.06.06.06h2.75ZM19.17,39.01s.06-.03.06-.06v-2.48s-.03-.06-.06-.06h-.66v-.69h-1.44v.69h-.66s-.06.03-.06.06v2.48s.03.06.06.06h2.75ZM24.4,39.01s.06-.03.06-.06v-2.48s-.03-.06-.06-.06h-.66v-.69h-1.44v.69h-.66s-.06.03-.06.06v2.48s.03.06.06.06h2.75ZM29.64,39.01s.06-.03.06-.06v-2.48s-.03-.06-.06-.06h-.66v-.69h-1.44v.69h-.66s-.06.03-.06.06v2.48s.03.06.06.06h2.75ZM34.87,39.01s.06-.03.06-.06v-2.48s-.03-.06-.06-.06h-.66v-.69h-1.44v.69h-.66s-.06.03-.06.06v2.48s.03.06.06.06h2.75ZM32.77,43.59v.69h1.44v-.69h.66s.06-.03.06-.06v-2.48s-.03-.06-.06-.06h-2.75s-.06.03-.06.06v2.48s.03.06.06.06h.66ZM27.54,43.59v.69h1.44v-.69h.66s.06-.03.06-.06v-2.48s-.03-.06-.06-.06h-2.75s-.06.03-.06.06v2.48s.03.06.06.06h.66ZM22.31,43.59v.69h1.44v-.69h.66s.06-.03.06-.06v-2.48s-.03-.06-.06-.06h-2.75s-.06.03-.06.06v2.48s.03.06.06.06h.66ZM17.07,43.59v.69h1.44v-.69h.66s.06-.03.06-.06v-2.48s-.03-.06-.06-.06h-2.75s-.06.03-.06.06v2.48s.03.06.06.06h.66ZM11.84,43.59v.69h1.44v-.69h.66s.06-.03.06-.06v-2.48s-.03-.06-.06-.06h-2.75s-.06.03-.06.06v2.48s.03.06.06.06h.66ZM6.61,43.59v.69h1.44v-.69h.66s.06-.03.06-.06v-2.48s-.03-.06-.06-.06h-2.75s-.06.03-.06.06v2.48s.03.06.06.06h.66Z"/></g></svg>