<?xml version="1.0" encoding="UTF-8"?><svg id="modifiers" xmlns="http://www.w3.org/2000/svg" viewBox="0 0 80 80"><defs><style>.cls-1{fill:#07182d;}</style></defs><path class="cls-1" d="M40,0C17.94,0,0,17.94,0,40s17.94,40,40,40,40-17.94,40-40S62.06,0,40,0ZM40,78.95C18.52,78.95,1.05,61.48,1.05,40S18.52,1.05,40,1.05s38.95,17.47,38.95,38.95-17.47,38.95-38.95,38.95ZM62.66,25.76s0-.02,0-.03v-.04s0-.05-.02-.1c-.1-2.12-2-4.04-5.17-5.54-3.3-1.72-8.68-3.16-17.46-3.16s-14.12,1.43-17.42,3.14c-3.28,1.53-5.23,3.52-5.23,5.72,0,0,0,0,0,0v9.47h0v18.47c0,4.97,9.95,8.86,22.66,8.86s22.66-3.89,22.66-8.86v-18.47h0v-9.44s0-.02,0-.03ZM23.47,20.79c4-1.73,9.98-2.85,16.53-2.85s12.57,1.13,16.57,2.86c4.53,2.22,5.03,4.93,5.03,4.94,0,0,0,0,0,0,0,4.23-9.89,7.81-21.6,7.81s-21.55-3.56-21.6-7.78c.08-.35.78-2.89,5.07-4.99ZM61.6,53.69c0,4.23-9.89,7.81-21.6,7.81s-21.6-3.58-21.6-7.81v-6.76c2.87,3.6,11.33,6.14,21.6,6.14s18.73-2.54,21.6-6.14v6.76ZM61.6,44.21c0,4.23-9.89,7.81-21.6,7.81s-21.6-3.58-21.6-7.81v-6.27c2.87,3.6,11.33,6.14,21.6,6.14s18.73-2.54,21.6-6.14v6.27ZM61.6,35.22h0c0,4.23-9.89,7.81-21.6,7.81s-21.6-3.58-21.6-7.81h0s0-6.76,0-6.76c2.87,3.6,11.33,6.15,21.61,6.15s18.73-2.54,21.6-6.14v6.75Z"/></svg>