<?xml version="1.0" encoding="UTF-8"?><svg id="device" xmlns="http://www.w3.org/2000/svg" viewBox="0 0 80 80"><defs><style>.cls-1{fill:#07182d;fill-rule:evenodd;}</style></defs><g id="Layer_4"><path class="cls-1" d="M80,27.06c0-.41-.33-.75-.75-.75h-2.4s-.09.02-.13.03c-.04,0-.08-.03-.12-.03H3.26s-.03,0-.04,0c-.01,0-.03,0-.04,0H.58c-.3,0-.58.28-.58.58v13.07s0,.02,0,.03c0,.01,0,.02,0,.03v13.07c0,.3.28.58.58.58h2.59s.03,0,.04,0c.01,0,.03,0,.04,0h73.35s.08-.02.12-.03c.04,0,.08.03.13.03h2.4c.41,0,.75-.33.75-.75v-12.75c0-.07-.02-.13-.04-.19.02-.06.04-.13.04-.19v-12.75ZM2.67,52.6h-1.59v-11.84c.06,3.57.58,6.13,1.59,7.79v4.05ZM2.67,31.98c-.91,1.52-1.53,3.89-1.58,7.47h0v-12.05h1.59v4.58ZM76.11,52.6H3.76v-2.76c.77.64,1.72.98,2.85,1.05v.04h1.44v-.69h.66s.06-.03.06-.06v-2.48s-.03-.06-.06-.06h-2.04c-.91-.1-2.25-.92-2.33-7.09h71.77v12.05ZM76.11,39.45H4.34c.05-2.76.5-6.78,2.7-6.78v-.23h1.67s.06-.03.06-.06v-2.48s-.03-.06-.06-.06h-.66v-.69h-1.44v.28c-.97.07-1.97.41-2.85,1.2v-3.24h72.35v12.05ZM78.91,52.6h-1.72v-12.05h1.72v12.05ZM78.91,39.45h-1.72v-12.05h1.72v12.05ZM11.18,32.45s-.06-.03-.06-.06v-2.48s.03-.06.06-.06h.66v-.69h1.44v.69h.66s.06.03.06.06v2.48s-.03.06-.06.06h-2.75ZM16.42,32.45s-.06-.03-.06-.06v-2.48s.03-.06.06-.06h.66v-.69h1.44v.69h.66s.06.03.06.06v2.48s-.03.06-.06.06h-2.75ZM21.65,32.45s-.06-.03-.06-.06v-2.48s.03-.06.06-.06h.66v-.69h1.44v.69h.66s.06.03.06.06v2.48s-.03.06-.06.06h-2.75ZM26.88,32.45s-.06-.03-.06-.06v-2.48s.03-.06.06-.06h.66v-.69h1.44v.69h.66s.06.03.06.06v2.48s-.03.06-.06.06h-2.75ZM32.12,32.45s-.06-.03-.06-.06v-2.48s.03-.06.06-.06h.66v-.69h1.44v.69h.66s.06.03.06.06v2.48s-.03.06-.06.06h-2.75ZM37.35,32.45s-.06-.03-.06-.06v-2.48s.03-.06.06-.06h.66v-.69h1.44v.69h.66s.06.03.06.06v2.48s-.03.06-.06.06h-2.75ZM42.58,32.45s-.06-.03-.06-.06v-2.48s.03-.06.06-.06h.66v-.69h1.44v.69h.66s.06.03.06.06v2.48s-.03.06-.06.06h-2.75ZM47.82,32.45s-.06-.03-.06-.06v-2.48s.03-.06.06-.06h.66v-.69h1.44v.69h.66s.06.03.06.06v2.48s-.03.06-.06.06h-2.75ZM53.05,32.45s-.06-.03-.06-.06v-2.48s.03-.06.06-.06h.66v-.69h1.44v.69h.66s.06.03.06.06v2.48s-.03.06-.06.06h-2.75ZM58.28,32.45s-.06-.03-.06-.06v-2.48s.03-.06.06-.06h.66v-.69h1.44v.69h.66s.06.03.06.06v2.48s-.03.06-.06.06h-2.75ZM63.51,32.45s-.06-.03-.06-.06v-2.48s.03-.06.06-.06h.66v-.69h1.44v.69h.66s.06.03.06.06v2.48s-.03.06-.06.06h-2.75ZM5.95,45.58s-.06-.03-.06-.06v-2.48s.03-.06.06-.06h.66v-.69h1.44v.69h.66s.06.03.06.06v2.48s-.03.06-.06.06h-2.75ZM11.18,45.58s-.06-.03-.06-.06v-2.48s.03-.06.06-.06h.66v-.69h1.44v.69h.66s.06.03.06.06v2.48s-.03.06-.06.06h-2.75ZM16.42,45.58s-.06-.03-.06-.06v-2.48s.03-.06.06-.06h.66v-.69h1.44v.69h.66s.06.03.06.06v2.48s-.03.06-.06.06h-2.75ZM21.65,45.58s-.06-.03-.06-.06v-2.48s.03-.06.06-.06h.66v-.69h1.44v.69h.66s.06.03.06.06v2.48s-.03.06-.06.06h-2.75ZM26.88,45.58s-.06-.03-.06-.06v-2.48s.03-.06.06-.06h.66v-.69h1.44v.69h.66s.06.03.06.06v2.48s-.03.06-.06.06h-2.75ZM32.12,45.58s-.06-.03-.06-.06v-2.48s.03-.06.06-.06h.66v-.69h1.44v.69h.66s.06.03.06.06v2.48s-.03.06-.06.06h-2.75ZM37.35,45.58s-.06-.03-.06-.06v-2.48s.03-.06.06-.06h.66v-.69h1.44v.69h.66s.06.03.06.06v2.48s-.03.06-.06.06h-2.75ZM42.58,45.58s-.06-.03-.06-.06v-2.48s.03-.06.06-.06h.66v-.69h1.44v.69h.66s.06.03.06.06v2.48s-.03.06-.06.06h-2.75ZM47.82,45.58s-.06-.03-.06-.06v-2.48s.03-.06.06-.06h.66v-.69h1.44v.69h.66s.06.03.06.06v2.48s-.03.06-.06.06h-2.75ZM53.05,45.58s-.06-.03-.06-.06v-2.48s.03-.06.06-.06h.66v-.69h1.44v.69h.66s.06.03.06.06v2.48s-.03.06-.06.06h-2.75ZM58.28,45.58s-.06-.03-.06-.06v-2.48s.03-.06.06-.06h.66v-.69h1.44v.69h.66s.06.03.06.06v2.48s-.03.06-.06.06h-2.75ZM63.51,45.58s-.06-.03-.06-.06v-2.48s.03-.06.06-.06h.66v-.69h1.44v.69h.66s.06.03.06.06v2.48s-.03.06-.06.06h-2.75ZM11.18,50.24s-.06-.03-.06-.06v-2.48s.03-.06.06-.06h2.75s.06.03.06.06v2.48s-.03.06-.06.06h-.66v.69h-1.44v-.69h-.66ZM16.42,50.24s-.06-.03-.06-.06v-2.48s.03-.06.06-.06h2.75s.06.03.06.06v2.48s-.03.06-.06.06h-.66v.69h-1.44v-.69h-.66ZM21.65,50.24s-.06-.03-.06-.06v-2.48s.03-.06.06-.06h2.75s.06.03.06.06v2.48s-.03.06-.06.06h-.66v.69h-1.44v-.69h-.66ZM26.88,50.24s-.06-.03-.06-.06v-2.48s.03-.06.06-.06h2.75s.06.03.06.06v2.48s-.03.06-.06.06h-.66v.69h-1.44v-.69h-.66ZM32.12,50.24s-.06-.03-.06-.06v-2.48s.03-.06.06-.06h2.75s.06.03.06.06v2.48s-.03.06-.06.06h-.66v.69h-1.44v-.69h-.66ZM37.35,50.24s-.06-.03-.06-.06v-2.48s.03-.06.06-.06h2.75s.06.03.06.06v2.48s-.03.06-.06.06h-.66v.69h-1.44v-.69h-.66ZM42.58,50.24s-.06-.03-.06-.06v-2.48s.03-.06.06-.06h2.75s.06.03.06.06v2.48s-.03.06-.06.06h-.66v.69h-1.44v-.69h-.66ZM47.82,50.24s-.06-.03-.06-.06v-2.48s.03-.06.06-.06h2.75s.06.03.06.06v2.48s-.03.06-.06.06h-.66v.69h-1.44v-.69h-.66ZM53.05,50.24s-.06-.03-.06-.06v-2.48s.03-.06.06-.06h2.75s.06.03.06.06v2.48s-.03.06-.06.06h-.66v.69h-1.44v-.69h-.66ZM58.28,50.24s-.06-.03-.06-.06v-2.48s.03-.06.06-.06h2.75s.06.03.06.06v2.48s-.03.06-.06.06h-.66v.69h-1.44v-.69h-.66ZM63.51,50.24s-.06-.03-.06-.06v-2.48s.03-.06.06-.06h2.75s.06.03.06.06v2.48s-.03.06-.06.06h-.66v.69h-1.44v-.69h-.66ZM8.72,34.49s.06.03.06.06v2.5s-.03.06-.06.06h-.66v.69h-1.45v-.69h-.66s-.06-.03-.06-.06v-2.5s.03-.06.06-.06h2.77ZM11.17,37.11s-.06-.03-.06-.06v-2.5s.03-.06.06-.06h2.77s.06.03.06.06v2.5s-.03.06-.06.06h-.66v.69h-1.45v-.69h-.66ZM16.41,37.11s-.06-.03-.06-.06v-2.5s.03-.06.06-.06h2.77s.06.03.06.06v2.5s-.03.06-.06.06h-.66v.69h-1.45v-.69h-.66ZM21.64,37.11s-.06-.03-.06-.06v-2.5s.03-.06.06-.06h2.77s.06.03.06.06v2.5s-.03.06-.06.06h-.66v.69h-1.45v-.69h-.66ZM26.87,37.11s-.06-.03-.06-.06v-2.5s.03-.06.06-.06h2.77s.06.03.06.06v2.5s-.03.06-.06.06h-.66v.69h-1.45v-.69h-.66ZM32.11,37.11s-.06-.03-.06-.06v-2.5s.03-.06.06-.06h2.77s.06.03.06.06v2.5s-.03.06-.06.06h-.66v.69h-1.45v-.69h-.66ZM37.34,37.11s-.06-.03-.06-.06v-2.5s.03-.06.06-.06h2.77s.06.03.06.06v2.5s-.03.06-.06.06h-.66v.69h-1.45v-.69h-.66ZM42.57,37.11s-.06-.03-.06-.06v-2.5s.03-.06.06-.06h2.77s.06.03.06.06v2.5s-.03.06-.06.06h-.66v.69h-1.45v-.69h-.66ZM47.81,37.11s-.06-.03-.06-.06v-2.5s.03-.06.06-.06h2.77s.06.03.06.06v2.5s-.03.06-.06.06h-.66v.69h-1.45v-.69h-.66ZM53.04,37.11s-.06-.03-.06-.06v-2.5s.03-.06.06-.06h2.77s.06.03.06.06v2.5s-.03.06-.06.06h-.66v.69h-1.45v-.69h-.66ZM58.27,37.11s-.06-.03-.06-.06v-2.5s.03-.06.06-.06h2.77s.06.03.06.06v2.5s-.03.06-.06.06h-.66v.69h-1.45v-.69h-.66ZM63.5,37.11s-.06-.03-.06-.06v-2.5s.03-.06.06-.06h2.77s.06.03.06.06v2.5s-.03.06-.06.06h-.66v.69h-1.45v-.69h-.66Z"/></g></svg>