<?xml version="1.0" encoding="UTF-8"?><svg id="device" xmlns="http://www.w3.org/2000/svg" viewBox="0 0 80 80"><defs><style>.cls-1{fill:#07182d;}</style></defs><g id="Layer_4"><path class="cls-1" d="M80,26.1c0-.3-.28-.58-.58-.58h-1.03v-.64c0-.55-.45-1-1-1h-22.61c-.55,0-1,.45-1,1v.64H3.25s-.03,0-.04,0c-.01,0-.03,0-.04,0H.58C.28,25.52,0,25.8,0,26.09v13.07s0,.03,0,.04c0,.01,0,.03,0,.04v16.29c0,.3.29.58.58.58h2.58s.03,0,.05-.01c.02,0,.03.01.05.01h73.34s.03,0,.05-.01c.02,0,.03.01.05.01h2.72c.3,0,.59-.29.59-.59v-16.29s0-.03,0-.04c0-.01,0-.03,0-.04v-13.07ZM54.78,24.95h22.53v15.36h-22.53v-15.36ZM52.11,31.54h1.67v2.19h-1.67c-.24,0-.43.19-.43.43v1.34c0,.24.19.43.43.43h1.67v2.74H3.75v-12.07h50.02v2.75h-1.67c-.24,0-.43.19-.43.43v1.34c0,.24.19.43.43.43ZM2.67,55.05h-1.59v-15.3h1.59v15.3ZM1.08,38.66v-12.07h1.59v12.07h-1.59ZM3.75,39.75h50.02v.64c0,.55.45,1,1,1h1.45v2.43c0,.24.19.43.43.43h1.34c.24,0,.43-.19.43-.43v-2.43h2.47v2.43c0,.24.19.43.43.43h1.34c.24,0,.43-.19.43-.43v-2.43h2.47v2.43c0,.24.19.43.43.43h1.34c.24,0,.43-.19.43-.43v-2.43h2.47v2.43c0,.24.19.43.43.43h1.34c.24,0,.43-.19.43-.43v-2.43h3.71v13.66H3.75v-15.3ZM78.92,55.05h-1.73v-13.66h.19c.55,0,1-.45,1-1v-.64h.53v15.3ZM78.39,38.66v-12.07h.53v12.07h-.53ZM15.91,29.77v1.34c0,.24-.19.43-.43.43h-7.49c-.24,0-.43-.19-.43-.43v-1.34c0-.24.19-.43.43-.43h7.49c.24,0,.43.19.43.43ZM20.53,29.77v1.34c0,.24-.19.43-.43.43h-2.48c-.24,0-.43-.19-.43-.43v-1.34c0-.24.19-.43.43-.43h2.48c.24,0,.43.19.43.43ZM33.15,29.77v1.34c0,.24-.19.43-.43.43h-7.49c-.24,0-.43-.19-.43-.43v-1.34c0-.24.19-.43.43-.43h7.49c.24,0,.43.19.43.43ZM37.77,29.77v1.34c0,.24-.19.43-.43.43h-2.48c-.24,0-.43-.19-.43-.43v-1.34c0-.24.19-.43.43-.43h2.48c.24,0,.43.19.43.43ZM50.4,29.77v1.34c0,.24-.19.43-.43.43h-7.49c-.24,0-.43-.19-.43-.43v-1.34c0-.24.19-.43.43-.43h7.49c.24,0,.43.19.43.43ZM15.91,34.16v1.34c0,.24-.19.43-.43.43h-7.49c-.24,0-.43-.19-.43-.43v-1.34c0-.24.19-.43.43-.43h7.49c.24,0,.43.19.43.43ZM20.53,34.16v1.34c0,.24-.19.43-.43.43h-2.48c-.24,0-.43-.19-.43-.43v-1.34c0-.24.19-.43.43-.43h2.48c.24,0,.43.19.43.43ZM33.15,34.16v1.34c0,.24-.19.43-.43.43h-7.49c-.24,0-.43-.19-.43-.43v-1.34c0-.24.19-.43.43-.43h7.49c.24,0,.43.19.43.43ZM37.77,34.16v1.34c0,.24-.19.43-.43.43h-2.48c-.24,0-.43-.19-.43-.43v-1.34c0-.24.19-.43.43-.43h2.48c.24,0,.43.19.43.43ZM50.4,34.16v1.34c0,.24-.19.43-.43.43h-7.49c-.24,0-.43-.19-.43-.43v-1.34c0-.24.19-.43.43-.43h7.49c.24,0,.43.19.43.43ZM9.92,45.96v7.49c0,.24-.19.43-.43.43h-1.34c-.24,0-.43-.19-.43-.43v-7.49c0-.24.19-.43.43-.43h1.34c.24,0,.43.19.43.43ZM9.92,41.34v2.48c0,.24-.19.43-.43.43h-1.34c-.24,0-.43-.19-.43-.43v-2.48c0-.24.19-.43.43-.43h1.34c.24,0,.43.19.43.43ZM14.67,45.96v7.49c0,.24-.19.43-.43.43h-1.34c-.24,0-.43-.19-.43-.43v-7.49c0-.24.19-.43.43-.43h1.34c.24,0,.43.19.43.43ZM14.67,41.34v2.48c0,.24-.19.43-.43.43h-1.34c-.24,0-.43-.19-.43-.43v-2.48c0-.24.19-.43.43-.43h1.34c.24,0,.43.19.43.43ZM19.42,45.96v7.49c0,.24-.19.43-.43.43h-1.34c-.24,0-.43-.19-.43-.43v-7.49c0-.24.19-.43.43-.43h1.34c.24,0,.43.19.43.43ZM19.42,41.34v2.48c0,.24-.19.43-.43.43h-1.34c-.24,0-.43-.19-.43-.43v-2.48c0-.24.19-.43.43-.43h1.34c.24,0,.43.19.43.43ZM24.17,45.96v7.49c0,.24-.19.43-.43.43h-1.34c-.24,0-.43-.19-.43-.43v-7.49c0-.24.19-.43.43-.43h1.34c.24,0,.43.19.43.43ZM24.17,41.34v2.48c0,.24-.19.43-.43.43h-1.34c-.24,0-.43-.19-.43-.43v-2.48c0-.24.19-.43.43-.43h1.34c.24,0,.43.19.43.43ZM28.93,45.96v7.49c0,.24-.19.43-.43.43h-1.34c-.24,0-.43-.19-.43-.43v-7.49c0-.24.19-.43.43-.43h1.34c.24,0,.43.19.43.43ZM28.93,41.34v2.48c0,.24-.19.43-.43.43h-1.34c-.24,0-.43-.19-.43-.43v-2.48c0-.24.19-.43.43-.43h1.34c.24,0,.43.19.43.43ZM33.68,45.96v7.49c0,.24-.19.43-.43.43h-1.34c-.24,0-.43-.19-.43-.43v-7.49c0-.24.19-.43.43-.43h1.34c.24,0,.43.19.43.43ZM33.68,41.34v2.48c0,.24-.19.43-.43.43h-1.34c-.24,0-.43-.19-.43-.43v-2.48c0-.24.19-.43.43-.43h1.34c.24,0,.43.19.43.43ZM38.43,45.96v7.49c0,.24-.19.43-.43.43h-1.34c-.24,0-.43-.19-.43-.43v-7.49c0-.24.19-.43.43-.43h1.34c.24,0,.43.19.43.43ZM38.43,41.34v2.48c0,.24-.19.43-.43.43h-1.34c-.24,0-.43-.19-.43-.43v-2.48c0-.24.19-.43.43-.43h1.34c.24,0,.43.19.43.43ZM49.1,45.96v7.49c0,.24-.19.43-.43.43h-1.34c-.24,0-.43-.19-.43-.43v-7.49c0-.24.19-.43.43-.43h1.34c.24,0,.43.19.43.43ZM49.1,41.34v2.48c0,.24-.19.43-.43.43h-1.34c-.24,0-.43-.19-.43-.43v-2.48c0-.24.19-.43.43-.43h1.34c.24,0,.43.19.43.43ZM53.76,45.96v7.49c0,.24-.19.43-.43.43h-1.34c-.24,0-.43-.19-.43-.43v-7.49c0-.24.19-.43.43-.43h1.34c.24,0,.43.19.43.43ZM53.76,41.34v2.48c0,.24-.19.43-.43.43h-1.34c-.24,0-.43-.19-.43-.43v-2.48c0-.24.19-.43.43-.43h1.34c.24,0,.43.19.43.43ZM58.42,45.96v7.49c0,.24-.19.43-.43.43h-1.34c-.24,0-.43-.19-.43-.43v-7.49c0-.24.19-.43.43-.43h1.34c.24,0,.43.19.43.43ZM63.08,45.96v7.49c0,.24-.19.43-.43.43h-1.34c-.24,0-.43-.19-.43-.43v-7.49c0-.24.19-.43.43-.43h1.34c.24,0,.43.19.43.43ZM67.74,45.96v7.49c0,.24-.19.43-.43.43h-1.34c-.24,0-.43-.19-.43-.43v-7.49c0-.24.19-.43.43-.43h1.34c.24,0,.43.19.43.43ZM72.4,45.96v7.49c0,.24-.19.43-.43.43h-1.34c-.24,0-.43-.19-.43-.43v-7.49c0-.24.19-.43.43-.43h1.34c.24,0,.43.19.43.43Z"/></g></svg>