<?xml version="1.0" encoding="UTF-8"?><svg id="modifiers" xmlns="http://www.w3.org/2000/svg" viewBox="0 0 80 80"><defs><style>.cls-1{fill:#fff;}</style></defs><path class="cls-1" d="M40,0C17.94,0,0,17.94,0,40s17.94,40,40,40,40-17.94,40-40S62.06,0,40,0ZM40,78.95C18.52,78.95,1.05,61.48,1.05,40S18.52,1.05,40,1.05s38.95,17.47,38.95,38.95-17.47,38.95-38.95,38.95ZM20.39,27.7h-1.05s.09-7.89.09-7.89c0-.14.06-.27.16-.37.1-.1.2-.16.37-.15l7.69.09v1.05s-6.41-.08-6.41-.08l17.03,17.03-.74.74-17.06-17.06-.08,6.63ZM60.93,53.45h1.05s-.09,7.89-.09,7.89c0,.14-.06.27-.16.37-.1.1-.23.15-.37.15h0l-7.69-.09v-1.05s6.41.08,6.41.08l-17.03-17.03.74-.74,17.06,17.06.08-6.63ZM62.09,16.68l.74.74-17.06,17.06,6.63.08v1.05s-7.89-.09-7.89-.09c-.14,0-.27-.06-.37-.16-.1-.1-.15-.23-.15-.37l.09-7.69h1.05s-.08,6.41-.08,6.41l17.03-17.03ZM36.84,43.75l-17.03,17.03-.74-.74,17.06-17.06-6.63-.08v-1.05s7.89.09,7.89.09c.14,0,.27.06.37.16.1.1.15.23.15.37l-.09,7.69h-1.05s.08-6.41.08-6.41ZM44.2,65.24h-.64c.02-.17.04-.33.04-.49,0-2.14-1.61-3.89-3.59-3.89s-3.59,1.74-3.59,3.89c0,.16.02.32.04.49h-.66c-.64,0-1.15.52-1.15,1.15v6.79c0,.64.52,1.15,1.15,1.15h8.4c.64,0,1.15-.52,1.15-1.15v-6.79c0-.64-.52-1.15-1.15-1.15ZM37.48,64.75c0-1.56,1.14-2.84,2.53-2.84s2.53,1.27,2.53,2.84c0,.16-.01.32-.05.49h-4.98c-.03-.17-.05-.33-.05-.49ZM44.3,73.18c0,.06-.05.1-.1.1h-8.4c-.06,0-.1-.05-.1-.1v-6.79c0-.06.05-.1.1-.1h8.4c.06,0,.1.05.1.1v6.79ZM39.47,68.08h1.05v3.22h-1.05v-3.22Z"/></svg>