<?xml version="1.0" encoding="UTF-8"?><svg id="device" xmlns="http://www.w3.org/2000/svg" viewBox="0 0 80 80"><defs><style>.cls-1{fill:#fff;}</style></defs><g id="Layer_4"><path class="cls-1" d="M44.13,55.14h3.21v1.03h-3.21v-1.03ZM63.95,45.09s.06-.03.06-.06v-2.26s-.03-.06-.06-.06h-.6v-.63h-1.31v.63h-.6s-.06.03-.06.06v2.26s.03.06.06.06h2.51ZM50.55,56.18h3.21v-1.03h-3.21v1.03ZM37.72,56.18h3.21v-1.03h-3.21v1.03ZM56.96,56.18h3.21v-1.03h-3.21v1.03ZM69.79,56.18h3.21v-1.03h-3.21v1.03ZM63.38,56.18h3.21v-1.03h-3.21v1.03ZM54.41,45.09s.06-.03.06-.06v-2.26s-.03-.06-.06-.06h-.6v-.63h-1.31v.63h-.6s-.06.03-.06.06v2.26s.03.06.06.06h2.51ZM62.04,49.34v.63h1.31v-.63h.6s.06-.03.06-.06v-2.26s-.03-.06-.06-.06h-2.51s-.06.03-.06.06v2.26s.03.06.06.06h.6ZM42.95,49.34v.63h1.31v-.63h.6s.06-.03.06-.06v-2.26s-.03-.06-.06-.06h-2.51s-.06.03-.06.06v2.26s.03.06.06.06h.6ZM40.09,45.09s.06-.03.06-.06v-2.26s-.03-.06-.06-.06h-.6v-.63h-1.31v.63h-.6s-.06.03-.06.06v2.26s.03.06.06.06h2.51ZM47.73,49.34v.63h1.31v-.63h.6s.06-.03.06-.06v-2.26s-.03-.06-.06-.06h-2.51s-.06.03-.06.06v2.26s.03.06.06.06h.6ZM44.87,45.09s.06-.03.06-.06v-2.26s-.03-.06-.06-.06h-.6v-.63h-1.31v.63h-.6s-.06.03-.06.06v2.26s.03.06.06.06h2.51ZM59.18,45.09s.06-.03.06-.06v-2.26s-.03-.06-.06-.06h-.6v-.63h-1.31v.63h-.6s-.06.03-.06.06v2.26s.03.06.06.06h2.51ZM57.27,49.34v.63h1.31v-.63h.6s.06-.03.06-.06v-2.26s-.03-.06-.06-.06h-2.51s-.06.03-.06.06v2.26s.03.06.06.06h.6ZM31.31,56.18h3.21v-1.03h-3.21v1.03ZM52.5,49.34v.63h1.31v-.63h.6s.06-.03.06-.06v-2.26s-.03-.06-.06-.06h-2.51s-.06.03-.06.06v2.26s.03.06.06.06h.6ZM28.27,23.82h-3.21v1.03h3.21v-1.03ZM34.69,23.82h-3.21v1.03h3.21v-1.03ZM47.52,23.82h-3.21v1.03h3.21v-1.03ZM41.1,23.82h-3.21v1.03h3.21v-1.03ZM21.86,23.82h-3.21v1.03h3.21v-1.03ZM38.18,49.34v.63h1.31v-.63h.6s.06-.03.06-.06v-2.26s-.03-.06-.06-.06h-2.51s-.06.03-.06.06v2.26s.03.06.06.06h.6ZM24.89,56.18h3.21v-1.03h-3.21v1.03ZM15.45,23.82h-3.21v1.03h3.21v-1.03ZM73.18,23.82h-3.21v1.03h3.21v-1.03ZM66.76,23.82h-3.21v1.03h3.21v-1.03ZM60.35,23.82h-3.21v1.03h3.21v-1.03ZM53.93,23.82h-3.21v1.03h3.21v-1.03ZM1.03,54.34H0v1.25c0,.29.3.59.59.59h1.85v-1.03h-1.41v-.8ZM5.65,56.18h3.21v-1.03h-3.21v1.03ZM9.03,23.82h-3.21v1.03h3.21v-1.03ZM12.06,56.18h3.21v-1.03h-3.21v1.03ZM18.48,56.18h3.21v-1.03h-3.21v1.03ZM0,24.41v1.07h1.03v-.62h1.58v-1.03H.59c-.29,0-.59.3-.59.59ZM1.03,35.1H0v3.21h1.03v-3.21ZM1.03,28.69H0v3.21h1.03v-3.21ZM1.03,41.52H0v3.21h1.03v-3.21ZM1.03,47.93H0v3.21h1.03v-3.21ZM49.64,45.09s.06-.03.06-.06v-2.26s-.03-.06-.06-.06h-.6v-.63h-1.31v.63h-.6s-.06.03-.06.06v2.26s.03.06.06.06h2.51ZM25.78,33.11s.06-.03.06-.06v-2.26s-.03-.06-.06-.06h-.6v-.63h-1.31v.63h-.6s-.06.03-.06.06v2.26s.03.06.06.06h2.51ZM30.55,33.11s.06-.03.06-.06v-2.26s-.03-.06-.06-.06h-.6v-.63h-1.31v.63h-.6s-.06.03-.06.06v2.26s.03.06.06.06h2.51ZM28.64,37.36v.63h1.31v-.63h.6s.06-.03.06-.06v-2.26s-.03-.06-.06-.06h-2.51s-.06.03-.06.06v2.26s.03.06.06.06h.6ZM21.01,33.11s.06-.03.06-.06v-2.26s-.03-.06-.06-.06h-.6v-.63h-1.31v.63h-.6s-.06.03-.06.06v2.26s.03.06.06.06h2.51ZM23.87,37.36v.63h1.31v-.63h.6s.06-.03.06-.06v-2.26s-.03-.06-.06-.06h-2.51s-.06.03-.06.06v2.26s.03.06.06.06h.6ZM38.18,37.36v.63h1.31v-.63h.6s.06-.03.06-.06v-2.26s-.03-.06-.06-.06h-2.51s-.06.03-.06.06v2.26s.03.06.06.06h.6ZM19.1,37.36v.63h1.31v-.63h.6s.06-.03.06-.06v-2.26s-.03-.06-.06-.06h-2.51s-.06.03-.06.06v2.26s.03.06.06.06h.6ZM33.41,37.36v.63h1.31v-.63h.6s.06-.03.06-.06v-2.26s-.03-.06-.06-.06h-2.51s-.06.03-.06.06v2.26s.03.06.06.06h.6ZM40.09,33.11s.06-.03.06-.06v-2.26s-.03-.06-.06-.06h-.6v-.63h-1.31v.63h-.6s-.06.03-.06.06v2.26s.03.06.06.06h2.51ZM42.95,37.36v.63h1.31v-.63h.6s.06-.03.06-.06v-2.26s-.03-.06-.06-.06h-2.51s-.06.03-.06.06v2.26s.03.06.06.06h.6ZM35.32,33.11s.06-.03.06-.06v-2.26s-.03-.06-.06-.06h-.6v-.63h-1.31v.63h-.6s-.06.03-.06.06v2.26s.03.06.06.06h2.51ZM78.97,30.89h1.03v-3.21h-1.03v3.21ZM78.97,37.31h1.03v-3.21h-1.03v3.21ZM16.24,33.11s.06-.03.06-.06v-2.26s-.03-.06-.06-.06h-.6v-.63h-1.31v.63h-.6s-.06.03-.06.06v2.26s.03.06.06.06h2.51ZM80,24.4c0-.28-.3-.58-.58-.58h-3.03v1.03h3.62v-.46h0ZM78.97,43.72h1.03v-3.21h-1.03v3.21ZM78.97,50.14h1.03v-3.21h-1.03v3.21ZM14.32,37.36v.63h1.31v-.63h.6s.06-.03.06-.06v-2.26s-.03-.06-.06-.06h-2.51s-.06.03-.06.06v2.26s.03.06.06.06h.6ZM75.79,52.5h-2.19s-.08-.02-.12-.02c-.04,0-.07.02-.11.02H6.5s-.03,0-.04,0c-.01,0-.03,0-.04,0h-2.36c-.29,0-.55-.27-.55-.55v-11.92s0-.02,0-.03c0-.01,0-.02,0-.03v-11.92c0-.29.27-.55.55-.55h2.36s.03,0,.04,0c.01,0,.03,0,.04,0h66.88s.07.02.11.02c.04,0,.08-.02.12-.02h2.19c.39,0,.7.32.7.7v11.62c0,.06-.02.12-.04.18.02.06.04.11.04.18v11.62c0,.39-.32.7-.7.7ZM5.94,47.89c-.75-1.21-1.21-2.95-1.4-5.27v8.84h1.4v-3.58ZM5.94,28.53h-1.4v9.17c.2-2.34.71-3.98,1.4-5.11v-4.06ZM72.9,40.52H7.55c.08,6.37,1.63,6.39,2.39,6.39v.05h1.52s.06.03.06.06v2.26s-.03.06-.06.06h-.6v.63h-.92v.05c-1.19,0-2.18-.3-2.97-.93v2.38h65.92v-10.94ZM72.9,28.53H6.98v2.82c.8-.7,1.71-.99,2.58-1.05v-.19h1.31v.63h.6s.06.03.06.06v2.26s-.03.06-.06.06h-1.52v.27c-1.95,0-2.35,3.6-2.39,6.09h65.35v-10.94ZM75.46,40.52h-1.53v10.94h1.53v-10.94ZM75.46,28.53h-1.53v10.94h1.53v-10.94ZM78.97,55.14h-2.76v1.03h3.21c.29,0,.59-.3.59-.59v-2.24h-1.03v1.8ZM19.1,49.34v.63h1.31v-.63h.6s.06-.03.06-.06v-2.26s-.03-.06-.06-.06h-2.51s-.06.03-.06.06v2.26s.03.06.06.06h.6ZM35.32,45.09s.06-.03.06-.06v-2.26s-.03-.06-.06-.06h-.6v-.63h-1.31v.63h-.6s-.06.03-.06.06v2.26s.03.06.06.06h2.51ZM21.01,45.09s.06-.03.06-.06v-2.26s-.03-.06-.06-.06h-.6v-.63h-1.31v.63h-.6s-.06.03-.06.06v2.26s.03.06.06.06h2.51ZM14.32,49.34v.63h1.31v-.63h.6s.06-.03.06-.06v-2.26s-.03-.06-.06-.06h-2.51s-.06.03-.06.06v2.26s.03.06.06.06h.6ZM16.24,45.09s.06-.03.06-.06v-2.26s-.03-.06-.06-.06h-.6v-.63h-1.31v.63h-.6s-.06.03-.06.06v2.26s.03.06.06.06h2.51ZM23.87,49.34v.63h1.31v-.63h.6s.06-.03.06-.06v-2.26s-.03-.06-.06-.06h-2.51s-.06.03-.06.06v2.26s.03.06.06.06h.6ZM30.55,45.09s.06-.03.06-.06v-2.26s-.03-.06-.06-.06h-.6v-.63h-1.31v.63h-.6s-.06.03-.06.06v2.26s.03.06.06.06h2.51ZM11.47,45.09s.06-.03.06-.06v-2.26s-.03-.06-.06-.06h-.6v-.63h-1.31v.63h-.6s-.06.03-.06.06v2.26s.03.06.06.06h2.51ZM33.41,49.34v.63h1.31v-.63h.6s.06-.03.06-.06v-2.26s-.03-.06-.06-.06h-2.51s-.06.03-.06.06v2.26s.03.06.06.06h.6ZM28.64,49.34v.63h1.31v-.63h.6s.06-.03.06-.06v-2.26s-.03-.06-.06-.06h-2.51s-.06.03-.06.06v2.26s.03.06.06.06h.6ZM25.78,45.09s.06-.03.06-.06v-2.26s-.03-.06-.06-.06h-.6v-.63h-1.31v.63h-.6s-.06.03-.06.06v2.26s.03.06.06.06h2.51ZM49.64,33.11s.06-.03.06-.06v-2.26s-.03-.06-.06-.06h-.6v-.63h-1.31v.63h-.6s-.06.03-.06.06v2.26s.03.06.06.06h2.51ZM44.87,33.11s.06-.03.06-.06v-2.26s-.03-.06-.06-.06h-.6v-.63h-1.31v.63h-.6s-.06.03-.06.06v2.26s.03.06.06.06h2.51ZM8.95,34.99s-.06.03-.06.06v2.26s.03.06.06.06h.6v.63h1.31v-.63h.6s.06-.03.06-.06v-2.26s-.03-.06-.06-.06h-2.51ZM52.5,37.36v.63h1.31v-.63h.6s.06-.03.06-.06v-2.26s-.03-.06-.06-.06h-2.51s-.06.03-.06.06v2.26s.03.06.06.06h.6ZM47.73,37.36v.63h1.31v-.63h.6s.06-.03.06-.06v-2.26s-.03-.06-.06-.06h-2.51s-.06.03-.06.06v2.26s.03.06.06.06h.6ZM54.41,33.11s.06-.03.06-.06v-2.26s-.03-.06-.06-.06h-.6v-.63h-1.31v.63h-.6s-.06.03-.06.06v2.26s.03.06.06.06h2.51ZM63.95,33.11s.06-.03.06-.06v-2.26s-.03-.06-.06-.06h-.6v-.63h-1.31v.63h-.6s-.06.03-.06.06v2.26s.03.06.06.06h2.51ZM62.04,37.36v.63h1.31v-.63h.6s.06-.03.06-.06v-2.26s-.03-.06-.06-.06h-2.51s-.06.03-.06.06v2.26s.03.06.06.06h.6ZM57.27,37.36v.63h1.31v-.63h.6s.06-.03.06-.06v-2.26s-.03-.06-.06-.06h-2.51s-.06.03-.06.06v2.26s.03.06.06.06h.6ZM59.18,33.11s.06-.03.06-.06v-2.26s-.03-.06-.06-.06h-.6v-.63h-1.31v.63h-.6s-.06.03-.06.06v2.26s.03.06.06.06h2.51Z"/></g></svg>