<?xml version="1.0" encoding="UTF-8"?><svg id="modifiers" xmlns="http://www.w3.org/2000/svg" viewBox="0 0 80 80"><defs><style>.cls-1{fill:#07182d;}</style></defs><path class="cls-1" d="M78.86,0H1.14C.51,0,0,.51,0,1.14v77.71c0,.63.51,1.14,1.14,1.14h77.71c.63,0,1.14-.51,1.14-1.14V1.14c0-.63-.51-1.14-1.14-1.14ZM78.95,78.86s-.04.09-.09.09H1.14c-.05,0-.09-.04-.09-.09V1.14s.04-.09.09-.09h77.71c.05,0,.09.04.09.09v77.71ZM9.72,29.1l.73.76c7.99-7.69,18.49-11.93,29.58-11.93s21.52,4.2,29.49,11.84l.73-.76c-8.17-7.82-18.9-12.13-30.22-12.13s-22.13,4.34-30.31,12.22ZM21.97,38.79l.67.81c4.87-4.03,11.03-6.25,17.36-6.25s12.46,2.21,17.32,6.22l.67-.81c-5.05-4.16-11.44-6.46-17.99-6.46s-12.98,2.31-18.04,6.5ZM31.75,49.49l.63.84c2.21-1.64,4.84-2.51,7.6-2.51s5.39.87,7.6,2.51l.63-.84c-2.39-1.78-5.24-2.72-8.23-2.72s-5.83.94-8.23,2.72ZM39.98,57.28c-1.82,0-3.3,1.48-3.3,3.3s1.48,3.3,3.3,3.3,3.3-1.48,3.3-3.3-1.48-3.3-3.3-3.3ZM39.98,62.83c-1.24,0-2.25-1.01-2.25-2.25s1.01-2.25,2.25-2.25,2.25,1.01,2.25,2.25-1.01,2.25-2.25,2.25Z"/></svg>