<?xml version="1.0" encoding="UTF-8"?><svg id="modifiers" xmlns="http://www.w3.org/2000/svg" viewBox="0 0 80 80"><defs><style>.cls-1{fill:#07182d;}</style></defs><path class="cls-1" d="M57.81,13.43H22.19c-.61,0-1.1.49-1.1,1.1v50.95c0,.61.49,1.1,1.1,1.1h35.62c.61,0,1.1-.49,1.1-1.1V14.53c0-.61-.49-1.1-1.1-1.1ZM57.86,65.47s-.02.05-.05.05l-35.67-.05.05-51,35.67.05v50.95ZM25.22,30.87h29.56c.64,0,1.17-.52,1.17-1.17v-12.08c0-.64-.52-1.17-1.17-1.17h-29.56c-.64,0-1.17.52-1.17,1.17v12.08c0,.64.52,1.17,1.17,1.17ZM25.1,17.62c0-.06.05-.12.12-.12h29.56c.06,0,.12.05.12.12v12.08c0,.06-.05.12-.12.12h-29.56c-.06,0-.12-.05-.12-.12v-12.08ZM42.78,22.47h-5.55v-1.05h5.55v1.05ZM25.22,47.21h29.56c.64,0,1.17-.52,1.17-1.17v-12.08c0-.64-.52-1.17-1.17-1.17h-29.56c-.64,0-1.17.52-1.17,1.17v12.08c0,.64.52,1.17,1.17,1.17ZM25.1,33.96c0-.06.05-.12.12-.12h29.56c.06,0,.12.05.12.12v12.08c0,.06-.05.12-.12.12h-29.56c-.06,0-.12-.05-.12-.12v-12.08ZM42.78,38.81h-5.55v-1.05h5.55v1.05ZM25.22,63.55h29.56c.64,0,1.17-.52,1.17-1.17v-12.08c0-.64-.52-1.17-1.17-1.17h-29.56c-.64,0-1.17.52-1.17,1.17v12.08c0,.64.52,1.17,1.17,1.17ZM25.1,50.3c0-.06.05-.12.12-.12h29.56c.06,0,.12.05.12.12v12.08c0,.06-.05.12-.12.12h-29.56c-.06,0-.12-.05-.12-.12v-12.08ZM42.78,55.14h-5.55v-1.05h5.55v1.05ZM77.91,0H2.09C.94,0,0,.94,0,2.09v75.83c0,1.15.94,2.09,2.09,2.09h75.82c1.15,0,2.09-.94,2.09-2.09V2.09c0-1.15-.94-2.09-2.09-2.09ZM78.95,77.91c0,.57-.46,1.03-1.04,1.03H2.09c-.57,0-1.04-.46-1.04-1.03V2.09c0-.57.46-1.03,1.04-1.03h75.82c.57,0,1.04.46,1.04,1.03v75.83Z"/></svg>