<?xml version="1.0" encoding="UTF-8"?><svg id="device" xmlns="http://www.w3.org/2000/svg" viewBox="0 0 80 80"><defs><style>.cls-1{fill:#fff;}</style></defs><g id="Layer_4"><path class="cls-1" d="M77.52,4.83c0-.28-.27-.55-.55-.55h-3.47c-1.8-2.58-4.78-4.28-8.16-4.28s-6.36,1.7-8.16,4.28h-4.35s-.03,0-.04,0c-.01,0-.03,0-.04,0h-12.37s-.03,0-.04,0c-.01,0-.03,0-.04,0h-12.37s-.03,0-.04,0c-.01,0-.03,0-.04,0h-12.37s-.03,0-.04,0c-.01,0-.03,0-.04,0H3.04c-.28,0-.56.27-.56.55v2.58s0,.03,0,.04c0,.01,0,.03,0,.04v69.42s0,.03,0,.04c0,.01,0,.03,0,.04v2.45c0,.28.27.55.55.55h12.37s.03,0,.04,0c.01,0,.03,0,.04,0h12.37s.03,0,.04,0c.01,0,.03,0,.04,0h12.37s.03,0,.04,0c.01,0,.03,0,.04,0h12.37s.03,0,.04,0c.01,0,.03,0,.04,0h12.37s.06-.01.09-.02c.03,0,.05.02.08.02h11.6c.28,0,.55-.27.55-.55v-2.45s0-.02,0-.04c0-.01,0-.02,0-.04V7.49s0-.03,0-.04c0-.01,0-.03,0-.04v-2.58ZM76.49,5.31v1.63h-1.68c-.18-.57-.41-1.11-.69-1.63h2.37ZM65.34,1.03c4.91,0,8.91,4,8.91,8.91s-4,8.91-8.91,8.91-8.91-4-8.91-8.91,4-8.91,8.91-8.91ZM68.34,19.41c2.13-.68,3.95-2.06,5.19-3.86v5.28h-5.19v-1.42ZM53.3,5.31h3.24c-.27.52-.51,1.06-.69,1.63h-2.56v-1.63ZM40.86,5.31h11.42v1.63h-11.42v-1.63ZM52.27,7.97v68.47h-11.42V7.97h11.42ZM28.41,5.31h11.42v1.63h-11.42v-1.63ZM39.83,7.97v68.47h-11.42V7.97h11.42ZM15.96,5.31h11.42v1.63h-11.42v-1.63ZM27.38,7.97v68.47h-11.42V7.97h11.42ZM3.51,5.31h11.42v1.63H3.51v-1.63ZM14.93,7.97v68.47H3.51V7.97h11.42ZM3.51,77.47h11.42v1.5H3.51v-1.5ZM15.96,77.47h11.42v1.5h-11.42v-1.5ZM28.41,77.47h11.42v1.5h-11.42v-1.5ZM40.86,77.47h11.42v1.5h-11.42v-1.5ZM64.72,78.97h-11.42v-1.5h11.42v1.5ZM53.3,76.44V7.97h2.29c-.13.64-.2,1.3-.2,1.97,0,1.09.18,2.13.51,3.11v1.31c0,.22.18.4.4.4h.35c.24.43.51.83.81,1.21h-1.15c-.22,0-.4.18-.4.4v7.09c0,.22.18.4.4.4h1.27c.22,0,.4-.18.4-.4v-6.88c.61.67,1.3,1.26,2.07,1.75v5.13c0,.22.18.4.4.4h1.26c.22,0,.4-.18.4-.4v-4.14c.82.28,1.69.46,2.6.51v56.59h-11.42ZM76.49,78.97h-10.64v-1.5h10.64v1.5ZM65.85,76.44V19.85c.5-.03.99-.08,1.46-.17v1.62c0,.28.28.56.56.56h6.13c.28,0,.56-.28.56-.56v-7.68c.45-1.14.71-2.38.71-3.67,0-.68-.07-1.34-.2-1.97h1.41v68.47h-10.64ZM74.04,62.59h-6.13c-.28,0-.56.28-.56.56v8.83c0,.28.28.56.56.56h6.13c.28,0,.56-.28.56-.56v-8.83c0-.28-.28-.56-.56-.56ZM73.57,71.52h-5.19v-7.9h5.19v7.9ZM74.04,49.8h-6.13c-.28,0-.56.28-.56.56v8.83c0,.28.28.56.56.56h6.13c.28,0,.56-.28.56-.56v-8.83c0-.28-.28-.56-.56-.56ZM73.57,58.72h-5.19v-7.9h5.19v7.9ZM74.04,37.16h-6.13c-.28,0-.56.28-.56.56v8.83c0,.28.28.56.56.56h6.13c.28,0,.56-.28.56-.56v-8.83c0-.28-.28-.56-.56-.56ZM73.57,46.09h-5.19v-7.9h5.19v7.9ZM74.04,24.51h-6.13c-.28,0-.56.28-.56.56v8.83c0,.28.28.56.56.56h6.13c.28,0,.56-.28.56-.56v-8.83c0-.28-.28-.56-.56-.56ZM73.57,33.44h-5.19v-7.9h5.19v7.9ZM6.11,72.43v-7.09c0-.22.18-.4.4-.4h1.27c.22,0,.4.18.4.4v7.09c0,.22-.18.4-.4.4h-1.27c-.22,0-.4-.18-.4-.4ZM6.11,63.32v-2.35c0-.22.18-.4.4-.4h1.27c.22,0,.4.18.4.4v2.35c0,.22-.18.4-.4.4h-1.27c-.22,0-.4-.18-.4-.4ZM6.11,56.11v-7.09c0-.22.18-.4.4-.4h1.27c.22,0,.4.18.4.4v7.09c0,.22-.18.4-.4.4h-1.27c-.22,0-.4-.18-.4-.4ZM6.11,47v-2.35c0-.22.18-.4.4-.4h1.27c.22,0,.4.18.4.4v2.35c0,.22-.18.4-.4.4h-1.27c-.22,0-.4-.18-.4-.4ZM6.11,39.79v-7.09c0-.22.18-.4.4-.4h1.27c.22,0,.4.18.4.4v7.09c0,.22-.18.4-.4.4h-1.27c-.22,0-.4-.18-.4-.4ZM6.11,30.68v-2.35c0-.22.18-.4.4-.4h1.27c.22,0,.4.18.4.4v2.35c0,.22-.18.4-.4.4h-1.27c-.22,0-.4-.18-.4-.4ZM6.11,23.48v-7.09c0-.22.18-.4.4-.4h1.27c.22,0,.4.18.4.4v7.09c0,.22-.18.4-.4.4h-1.27c-.22,0-.4-.18-.4-.4ZM6.11,14.36v-2.35c0-.22.18-.4.4-.4h1.27c.22,0,.4.18.4.4v2.35c0,.22-.18.4-.4.4h-1.27c-.22,0-.4-.18-.4-.4ZM10.26,72.43v-7.09c0-.22.18-.4.4-.4h1.27c.22,0,.4.18.4.4v7.09c0,.22-.18.4-.4.4h-1.27c-.22,0-.4-.18-.4-.4ZM10.26,63.32v-2.35c0-.22.18-.4.4-.4h1.27c.22,0,.4.18.4.4v2.35c0,.22-.18.4-.4.4h-1.27c-.22,0-.4-.18-.4-.4ZM10.26,56.11v-7.09c0-.22.18-.4.4-.4h1.27c.22,0,.4.18.4.4v7.09c0,.22-.18.4-.4.4h-1.27c-.22,0-.4-.18-.4-.4ZM10.26,47v-2.35c0-.22.18-.4.4-.4h1.27c.22,0,.4.18.4.4v2.35c0,.22-.18.4-.4.4h-1.27c-.22,0-.4-.18-.4-.4ZM10.26,39.79v-7.09c0-.22.18-.4.4-.4h1.27c.22,0,.4.18.4.4v7.09c0,.22-.18.4-.4.4h-1.27c-.22,0-.4-.18-.4-.4ZM10.26,30.68v-2.35c0-.22.18-.4.4-.4h1.27c.22,0,.4.18.4.4v2.35c0,.22-.18.4-.4.4h-1.27c-.22,0-.4-.18-.4-.4ZM10.26,23.48v-7.09c0-.22.18-.4.4-.4h1.27c.22,0,.4.18.4.4v7.09c0,.22-.18.4-.4.4h-1.27c-.22,0-.4-.18-.4-.4ZM10.26,14.36v-2.35c0-.22.18-.4.4-.4h1.27c.22,0,.4.18.4.4v2.35c0,.22-.18.4-.4.4h-1.27c-.22,0-.4-.18-.4-.4ZM18.56,72.43v-7.09c0-.22.18-.4.4-.4h1.27c.22,0,.4.18.4.4v7.09c0,.22-.18.4-.4.4h-1.27c-.22,0-.4-.18-.4-.4ZM18.56,63.32v-2.35c0-.22.18-.4.4-.4h1.27c.22,0,.4.18.4.4v2.35c0,.22-.18.4-.4.4h-1.27c-.22,0-.4-.18-.4-.4ZM18.56,56.11v-7.09c0-.22.18-.4.4-.4h1.27c.22,0,.4.18.4.4v7.09c0,.22-.18.4-.4.4h-1.27c-.22,0-.4-.18-.4-.4ZM18.56,47v-2.35c0-.22.18-.4.4-.4h1.27c.22,0,.4.18.4.4v2.35c0,.22-.18.4-.4.4h-1.27c-.22,0-.4-.18-.4-.4ZM18.56,39.79v-7.09c0-.22.18-.4.4-.4h1.27c.22,0,.4.18.4.4v7.09c0,.22-.18.4-.4.4h-1.27c-.22,0-.4-.18-.4-.4ZM18.56,30.68v-2.35c0-.22.18-.4.4-.4h1.27c.22,0,.4.18.4.4v2.35c0,.22-.18.4-.4.4h-1.27c-.22,0-.4-.18-.4-.4ZM18.56,23.48v-7.09c0-.22.18-.4.4-.4h1.27c.22,0,.4.18.4.4v7.09c0,.22-.18.4-.4.4h-1.27c-.22,0-.4-.18-.4-.4ZM18.56,14.36v-2.35c0-.22.18-.4.4-.4h1.27c.22,0,.4.18.4.4v2.35c0,.22-.18.4-.4.4h-1.27c-.22,0-.4-.18-.4-.4ZM22.71,72.43v-7.09c0-.22.18-.4.4-.4h1.27c.22,0,.4.18.4.4v7.09c0,.22-.18.4-.4.4h-1.27c-.22,0-.4-.18-.4-.4ZM22.71,63.32v-2.35c0-.22.18-.4.4-.4h1.27c.22,0,.4.18.4.4v2.35c0,.22-.18.4-.4.4h-1.27c-.22,0-.4-.18-.4-.4ZM22.71,56.11v-7.09c0-.22.18-.4.4-.4h1.27c.22,0,.4.18.4.4v7.09c0,.22-.18.4-.4.4h-1.27c-.22,0-.4-.18-.4-.4ZM22.71,47v-2.35c0-.22.18-.4.4-.4h1.27c.22,0,.4.18.4.4v2.35c0,.22-.18.4-.4.4h-1.27c-.22,0-.4-.18-.4-.4ZM22.71,39.79v-7.09c0-.22.18-.4.4-.4h1.27c.22,0,.4.18.4.4v7.09c0,.22-.18.4-.4.4h-1.27c-.22,0-.4-.18-.4-.4ZM22.71,30.68v-2.35c0-.22.18-.4.4-.4h1.27c.22,0,.4.18.4.4v2.35c0,.22-.18.4-.4.4h-1.27c-.22,0-.4-.18-.4-.4ZM22.71,23.48v-7.09c0-.22.18-.4.4-.4h1.27c.22,0,.4.18.4.4v7.09c0,.22-.18.4-.4.4h-1.27c-.22,0-.4-.18-.4-.4ZM22.71,14.36v-2.35c0-.22.18-.4.4-.4h1.27c.22,0,.4.18.4.4v2.35c0,.22-.18.4-.4.4h-1.27c-.22,0-.4-.18-.4-.4ZM31,72.43v-7.09c0-.22.18-.4.4-.4h1.27c.22,0,.4.18.4.4v7.09c0,.22-.18.4-.4.4h-1.27c-.22,0-.4-.18-.4-.4ZM31,63.32v-2.35c0-.22.18-.4.4-.4h1.27c.22,0,.4.18.4.4v2.35c0,.22-.18.4-.4.4h-1.27c-.22,0-.4-.18-.4-.4ZM31,56.11v-7.09c0-.22.18-.4.4-.4h1.27c.22,0,.4.18.4.4v7.09c0,.22-.18.4-.4.4h-1.27c-.22,0-.4-.18-.4-.4ZM31,47v-2.35c0-.22.18-.4.4-.4h1.27c.22,0,.4.18.4.4v2.35c0,.22-.18.4-.4.4h-1.27c-.22,0-.4-.18-.4-.4ZM31,39.79v-7.09c0-.22.18-.4.4-.4h1.27c.22,0,.4.18.4.4v7.09c0,.22-.18.4-.4.4h-1.27c-.22,0-.4-.18-.4-.4ZM31,30.68v-2.35c0-.22.18-.4.4-.4h1.27c.22,0,.4.18.4.4v2.35c0,.22-.18.4-.4.4h-1.27c-.22,0-.4-.18-.4-.4ZM31,23.48v-7.09c0-.22.18-.4.4-.4h1.27c.22,0,.4.18.4.4v7.09c0,.22-.18.4-.4.4h-1.27c-.22,0-.4-.18-.4-.4ZM31,14.36v-2.35c0-.22.18-.4.4-.4h1.27c.22,0,.4.18.4.4v2.35c0,.22-.18.4-.4.4h-1.27c-.22,0-.4-.18-.4-.4ZM35.15,72.43v-7.09c0-.22.18-.4.4-.4h1.26c.22,0,.4.18.4.4v7.09c0,.22-.18.4-.4.4h-1.26c-.22,0-.4-.18-.4-.4ZM35.15,63.32v-2.35c0-.22.18-.4.4-.4h1.26c.22,0,.4.18.4.4v2.35c0,.22-.18.4-.4.4h-1.26c-.22,0-.4-.18-.4-.4ZM35.15,56.11v-7.09c0-.22.18-.4.4-.4h1.26c.22,0,.4.18.4.4v7.09c0,.22-.18.4-.4.4h-1.26c-.22,0-.4-.18-.4-.4ZM35.15,47v-2.35c0-.22.18-.4.4-.4h1.26c.22,0,.4.18.4.4v2.35c0,.22-.18.4-.4.4h-1.26c-.22,0-.4-.18-.4-.4ZM35.15,39.79v-7.09c0-.22.18-.4.4-.4h1.26c.22,0,.4.18.4.4v7.09c0,.22-.18.4-.4.4h-1.26c-.22,0-.4-.18-.4-.4ZM35.15,30.68v-2.35c0-.22.18-.4.4-.4h1.26c.22,0,.4.18.4.4v2.35c0,.22-.18.4-.4.4h-1.26c-.22,0-.4-.18-.4-.4ZM35.15,23.48v-7.09c0-.22.18-.4.4-.4h1.26c.22,0,.4.18.4.4v7.09c0,.22-.18.4-.4.4h-1.26c-.22,0-.4-.18-.4-.4ZM35.15,14.36v-2.35c0-.22.18-.4.4-.4h1.26c.22,0,.4.18.4.4v2.35c0,.22-.18.4-.4.4h-1.26c-.22,0-.4-.18-.4-.4ZM43.45,72.43v-7.09c0-.22.18-.4.4-.4h1.26c.22,0,.4.18.4.4v7.09c0,.22-.18.4-.4.4h-1.26c-.22,0-.4-.18-.4-.4ZM43.45,63.32v-2.35c0-.22.18-.4.4-.4h1.26c.22,0,.4.18.4.4v2.35c0,.22-.18.4-.4.4h-1.26c-.22,0-.4-.18-.4-.4ZM43.45,56.11v-7.09c0-.22.18-.4.4-.4h1.26c.22,0,.4.18.4.4v7.09c0,.22-.18.4-.4.4h-1.26c-.22,0-.4-.18-.4-.4ZM43.45,47v-2.35c0-.22.18-.4.4-.4h1.26c.22,0,.4.18.4.4v2.35c0,.22-.18.4-.4.4h-1.26c-.22,0-.4-.18-.4-.4ZM43.45,39.79v-7.09c0-.22.18-.4.4-.4h1.26c.22,0,.4.18.4.4v7.09c0,.22-.18.4-.4.4h-1.26c-.22,0-.4-.18-.4-.4ZM43.45,30.68v-2.35c0-.22.18-.4.4-.4h1.26c.22,0,.4.18.4.4v2.35c0,.22-.18.4-.4.4h-1.26c-.22,0-.4-.18-.4-.4ZM43.45,23.48v-7.09c0-.22.18-.4.4-.4h1.26c.22,0,.4.18.4.4v7.09c0,.22-.18.4-.4.4h-1.26c-.22,0-.4-.18-.4-.4ZM43.45,14.36v-2.35c0-.22.18-.4.4-.4h1.26c.22,0,.4.18.4.4v2.35c0,.22-.18.4-.4.4h-1.26c-.22,0-.4-.18-.4-.4ZM47.6,72.43v-7.09c0-.22.18-.4.4-.4h1.27c.22,0,.4.18.4.4v7.09c0,.22-.18.4-.4.4h-1.27c-.22,0-.4-.18-.4-.4ZM47.6,63.32v-2.35c0-.22.18-.4.4-.4h1.27c.22,0,.4.18.4.4v2.35c0,.22-.18.4-.4.4h-1.27c-.22,0-.4-.18-.4-.4ZM47.6,56.11v-7.09c0-.22.18-.4.4-.4h1.27c.22,0,.4.18.4.4v7.09c0,.22-.18.4-.4.4h-1.27c-.22,0-.4-.18-.4-.4ZM47.6,47v-2.35c0-.22.18-.4.4-.4h1.27c.22,0,.4.18.4.4v2.35c0,.22-.18.4-.4.4h-1.27c-.22,0-.4-.18-.4-.4ZM47.6,39.79v-7.09c0-.22.18-.4.4-.4h1.27c.22,0,.4.18.4.4v7.09c0,.22-.18.4-.4.4h-1.27c-.22,0-.4-.18-.4-.4ZM47.6,30.68v-2.35c0-.22.18-.4.4-.4h1.27c.22,0,.4.18.4.4v2.35c0,.22-.18.4-.4.4h-1.27c-.22,0-.4-.18-.4-.4ZM47.6,23.48v-7.09c0-.22.18-.4.4-.4h1.27c.22,0,.4.18.4.4v7.09c0,.22-.18.4-.4.4h-1.27c-.22,0-.4-.18-.4-.4ZM47.6,14.36v-2.35c0-.22.18-.4.4-.4h1.27c.22,0,.4.18.4.4v2.35c0,.22-.18.4-.4.4h-1.27c-.22,0-.4-.18-.4-.4ZM57.98,65.35v7.09c0,.22-.18.4-.4.4h-1.27c-.22,0-.4-.18-.4-.4v-7.09c0-.22.18-.4.4-.4h1.27c.22,0,.4.18.4.4ZM57.98,60.97v2.35c0,.22-.18.4-.4.4h-1.27c-.22,0-.4-.18-.4-.4v-2.35c0-.22.18-.4.4-.4h1.27c.22,0,.4.18.4.4ZM57.98,49.03v7.09c0,.22-.18.4-.4.4h-1.27c-.22,0-.4-.18-.4-.4v-7.09c0-.22.18-.4.4-.4h1.27c.22,0,.4.18.4.4ZM57.98,44.65v2.35c0,.22-.18.4-.4.4h-1.27c-.22,0-.4-.18-.4-.4v-2.35c0-.22.18-.4.4-.4h1.27c.22,0,.4.18.4.4ZM57.98,32.71v7.09c0,.22-.18.4-.4.4h-1.27c-.22,0-.4-.18-.4-.4v-7.09c0-.22.18-.4.4-.4h1.27c.22,0,.4.18.4.4ZM57.98,28.33v2.35c0,.22-.18.4-.4.4h-1.27c-.22,0-.4-.18-.4-.4v-2.35c0-.22.18-.4.4-.4h1.27c.22,0,.4.18.4.4ZM62.13,65.35v7.09c0,.22-.18.4-.4.4h-1.26c-.22,0-.4-.18-.4-.4v-7.09c0-.22.18-.4.4-.4h1.26c.22,0,.4.18.4.4ZM62.13,60.97v2.35c0,.22-.18.4-.4.4h-1.26c-.22,0-.4-.18-.4-.4v-2.35c0-.22.18-.4.4-.4h1.26c.22,0,.4.18.4.4ZM62.13,49.03v7.09c0,.22-.18.4-.4.4h-1.26c-.22,0-.4-.18-.4-.4v-7.09c0-.22.18-.4.4-.4h1.26c.22,0,.4.18.4.4ZM62.13,44.65v2.35c0,.22-.18.4-.4.4h-1.26c-.22,0-.4-.18-.4-.4v-2.35c0-.22.18-.4.4-.4h1.26c.22,0,.4.18.4.4ZM62.13,32.71v7.09c0,.22-.18.4-.4.4h-1.26c-.22,0-.4-.18-.4-.4v-7.09c0-.22.18-.4.4-.4h1.26c.22,0,.4.18.4.4ZM62.13,28.33v2.35c0,.22-.18.4-.4.4h-1.26c-.22,0-.4-.18-.4-.4v-2.35c0-.22.18-.4.4-.4h1.26c.22,0,.4.18.4.4Z"/></g></svg>