<?xml version="1.0" encoding="UTF-8"?><svg id="modifiers" xmlns="http://www.w3.org/2000/svg" viewBox="0 0 80 80"><defs><style>.cls-1{fill:#07182d;}</style></defs><path class="cls-1" d="M55.65,47.11c-3.3-1.42-5.29.93-6.89,2.83-.52.61-1.01,1.19-1.58,1.71-.19.24-.5.37-.93.4-2.03.12-6.53-2.24-11.26-6.96s-7.07-9.23-6.96-11.25c.02-.44.15-.74.44-.98.58-.59,1.21-1.11,1.82-1.61,2.23-1.83,4.33-3.55,2.03-7.74-.23-.42-.53-1.05-.88-1.78-1.98-4.12-3.77-7.51-5.63-7.33-3.91.34-6.66.92-9.07,5.67-2.92,5.11-1.59,10.35-.12,14.87,2.25,6.9,6.03,11.67,11.4,17.14,5.78,5.69,12.02,9.85,17.57,11.74,2.34.8,4.79,1.45,7.35,1.45,2.27,0,4.63-.52,7.06-1.9,4.74-2.4,5.33-5.15,5.69-9.07.3-2.35-6.15-5.5-10.04-7.17ZM64.64,54.18c-.37,4.02-1,6.15-5.15,8.25-4.55,2.6-8.72,2.03-13.57.39-5.4-1.84-11.5-5.92-17.17-11.49-5.26-5.35-8.96-10.01-11.14-16.72-1.79-5.49-2.4-9.75.05-14.04,2.11-4.15,4.23-4.77,8.24-5.12.02,0,.03,0,.05,0,1.29,0,3.56,4.71,4.54,6.74.36.75.67,1.39.91,1.83,1.88,3.42.43,4.61-1.77,6.42-.63.52-1.29,1.06-1.86,1.65-.48.38-.75.96-.79,1.7-.15,2.71,2.77,7.56,7.27,12.06s9.34,7.44,12.06,7.27c.74-.04,1.31-.31,1.64-.73.57-.5,1.11-1.14,1.63-1.76,1.58-1.88,3.08-3.65,5.67-2.54,5.52,2.37,9.56,4.98,9.41,6.07v.02ZM77.91,0H2.09C.94,0,0,.94,0,2.09v75.83c0,1.15.94,2.09,2.09,2.09h75.83c1.15,0,2.09-.94,2.09-2.09V2.09c0-1.15-.94-2.09-2.09-2.09ZM78.95,77.91c0,.57-.46,1.03-1.03,1.03H2.09c-.57,0-1.03-.46-1.03-1.03V2.09c0-.57.46-1.03,1.03-1.03h75.83c.57,0,1.03.46,1.03,1.03v75.83Z"/></svg>