<?xml version="1.0" encoding="UTF-8"?><svg id="modifiers" xmlns="http://www.w3.org/2000/svg" viewBox="0 0 80 80"><defs><style>.cls-1{fill:#07182d;}</style></defs><path class="cls-1" d="M40,0C17.94,0,0,17.94,0,40s17.94,40,40,40,40-17.94,40-40S62.06,0,40,0ZM40,78.95C18.52,78.95,1.05,61.48,1.05,40S18.52,1.05,40,1.05s38.95,17.47,38.95,38.95-17.47,38.95-38.95,38.95ZM64.94,21.09h-13.97c-.68,0-1.23.55-1.23,1.23v7.79c0,.68.55,1.23,1.23,1.23h13.97c.68,0,1.23-.55,1.23-1.23v-7.79c0-.68-.55-1.23-1.23-1.23ZM65.12,30.12c0,.1-.08.18-.18.18h-13.97c-.1,0-.18-.08-.18-.18v-7.79c0-.1.08-.18.18-.18h13.97c.1,0,.18.08.18.18v7.79ZM64.94,47.44h-13.97c-.68,0-1.23.55-1.23,1.23v7.79c0,.68.55,1.23,1.23,1.23h13.97c.68,0,1.23-.55,1.23-1.23v-7.79c0-.68-.55-1.23-1.23-1.23ZM65.12,56.46c0,.1-.08.18-.18.18h-13.97c-.1,0-.18-.08-.18-.18v-7.79c0-.1.08-.18.18-.18h13.97c.1,0,.18.08.18.18v7.79ZM64.89,34.4h-7.7c-.71,0-1.28.58-1.28,1.28v7.69c0,.71.57,1.28,1.28,1.28h7.7c.71,0,1.28-.58,1.28-1.28v-7.69c0-.71-.57-1.28-1.28-1.28ZM65.12,43.38c0,.13-.1.23-.23.23h-7.7c-.13,0-.23-.1-.23-.23v-7.69c0-.13.1-.23.23-.23h7.7c.13,0,.23.1.23.23v7.69ZM45.44,47.44h-3.53c-.07-.92-.21-1.85-.43-2.78h10.49c.71,0,1.28-.58,1.28-1.28v-7.69c0-.71-.58-1.28-1.28-1.28h-16.05s-.04.01-.06.01c-.76-.81-1.56-1.57-2.43-2.25-.16-.12-.37-.15-.55-.07-.45.21-.37.46-.03,1.66.36,1.25,1.45,5.06.87,5.87-.03.04-.05.05-.11.06-1.03.05-1.91-.48-2.66-1.57-1.13-1.63-1.77-4.17-2.01-6.77h16.53c.73,0,1.32-.59,1.32-1.32v-7.62c0-.73-.59-1.32-1.32-1.32h-14.48c.39-.49.72-.92.92-1.34.08-.16.26-.53.02-.85-.07-.09-.28-.31-.67-.23-.04,0-.09.02-.13.04-10.07,4.6-16.19,14.14-15.46,23.96-.88-.48-1.49-1.14-1.84-1.97-.53-1.26-.4-2.87.36-4.53.11-.25.02-.55-.23-.68-.24-.13-.54-.06-.69.18-4.24,6.53-4.17,14.02.19,19.54,3.14,3.98,7.9,6.11,13.06,6.11,2.21,0,4.5-.39,6.77-1.2,1.84-.66,3.29-1.49,4.45-2.42h7.71c.74,0,1.35-.6,1.35-1.35v-7.56c0-.74-.61-1.35-1.35-1.35ZM51.97,35.45c.13,0,.23.1.23.23v7.69c0,.13-.1.23-.23.23h-10.77s-.03-.08-.04-.12c-.05-.17-.11-.35-.17-.52-.07-.19-.13-.39-.2-.58-.09-.25-.19-.49-.29-.74-.04-.1-.08-.2-.13-.31-.13-.31-.27-.61-.41-.92,0,0,0-.02-.01-.03-.83-1.74-1.9-3.41-3.17-4.94h15.19ZM45.73,22.41v7.62c0,.15-.12.27-.27.27h-16.59c-.09-1.56-.04-3.08.13-4.41.15-1.16.38-2.17.69-2.89.06-.14.14-.29.23-.45.05-.09.11-.17.17-.26.03-.05.07-.1.1-.15h15.27c.15,0,.27.12.27.27ZM32.93,59.13c-7.13,2.54-14.45.74-18.65-4.57-3.38-4.28-3.99-9.85-1.82-15.13.04.6.17,1.16.39,1.69.56,1.33,1.68,2.33,3.24,2.91.17.06.36.03.51-.08.14-.11.22-.29.2-.47-1.24-10.6,5.68-19.08,13.47-23.16-.05.07-.1.13-.16.2-.2.25-.41.53-.61.8,0,0,0,0,0,0,0,0-.01.02-.02.03-.14.2-.28.4-.4.6-.02.02-.04.05-.05.08-.11.19-.22.38-.3.57-.09.21-.18.45-.26.7-.31.98-.52,2.23-.62,3.61,0,.05,0,.1-.01.15-.02.23-.02.47-.03.7,0,.18-.01.36-.02.55,0,.12,0,.23,0,.35-.03,3.61.65,7.67,2.31,10.06.96,1.39,2.21,2.08,3.58,2.02.38-.02.69-.19.91-.49.75-1.05.18-3.57-.55-6.18.43.4.83.81,1.22,1.24,0,0,0,.02.01.02,2.36,2.6,4.15,5.77,5.03,8.94,0,0,0,0,0,.01.36,1.3.55,2.6.59,3.85,0,.35,0,.69-.01,1.03,0,.06,0,.13,0,.19-.04.56-.12,1.09-.23,1.61-.06.29-.12.58-.2.86-.07.24-.16.46-.24.69-.07.19-.14.37-.22.55-.1.23-.21.44-.33.66-.09.17-.19.34-.29.51-.12.2-.25.4-.39.6-.13.18-.27.35-.41.52-.14.17-.27.34-.42.5-.21.22-.44.43-.67.64-.1.09-.18.18-.29.27,0,0,0,0,0,.01-1.16.97-2.59,1.76-4.25,2.35ZM45.73,56.35c0,.16-.13.3-.3.3h-6.57c1.84-1.93,2.62-4.11,2.92-5.93.04-.23.06-.48.08-.71.01-.12.03-.24.04-.36.02-.21.02-.42.03-.64,0-.17.02-.33.02-.5h3.48c.16,0,.3.13.3.3v7.56Z"/></svg>