<?xml version="1.0" encoding="UTF-8"?><svg id="modifiers" xmlns="http://www.w3.org/2000/svg" viewBox="0 0 80 80"><defs><style>.cls-1{fill:#fff;}</style></defs><path class="cls-1" d="M40,0C17.94,0,0,17.94,0,40s17.94,40,40,40,40-17.94,40-40S62.06,0,40,0ZM40,78.95C18.52,78.95,1.05,61.48,1.05,40S18.52,1.05,40,1.05s38.95,17.47,38.95,38.95-17.47,38.95-38.95,38.95ZM57.92,13.26H22.08c-.61,0-1.11.5-1.11,1.11v51.27c0,.61.5,1.11,1.11,1.11h35.85c.61,0,1.11-.5,1.11-1.11V14.37c0-.61-.5-1.11-1.11-1.11ZM57.98,65.63s-.02.05-.05.05l-35.9-.05.05-51.32,35.9.05v51.27ZM25.13,30.81h29.75c.65,0,1.17-.53,1.17-1.17v-12.16c0-.65-.53-1.17-1.17-1.17h-29.75c-.65,0-1.17.53-1.17,1.17v12.16c0,.65.53,1.17,1.17,1.17ZM25.01,17.48c0-.07.05-.12.12-.12h29.75c.07,0,.12.05.12.12v12.16c0,.07-.05.12-.12.12h-29.75c-.07,0-.12-.05-.12-.12v-12.16ZM42.79,22.36h-5.59v-1.05h5.59v1.05ZM25.13,47.25h29.75c.65,0,1.17-.53,1.17-1.17v-12.16c0-.65-.53-1.17-1.17-1.17h-29.75c-.65,0-1.17.53-1.17,1.17v12.16c0,.65.53,1.17,1.17,1.17ZM25.01,33.92c0-.07.05-.12.12-.12h29.75c.07,0,.12.05.12.12v12.16c0,.07-.05.12-.12.12h-29.75c-.07,0-.12-.05-.12-.12v-12.16ZM42.79,38.8h-5.59v-1.05h5.59v1.05ZM25.13,63.69h29.75c.65,0,1.17-.53,1.17-1.17v-12.16c0-.65-.53-1.17-1.17-1.17h-29.75c-.65,0-1.17.53-1.17,1.17v12.16c0,.65.53,1.17,1.17,1.17ZM25.01,50.36c0-.07.05-.12.12-.12h29.75c.07,0,.12.05.12.12v12.16c0,.07-.05.12-.12.12h-29.75c-.07,0-.12-.05-.12-.12v-12.16ZM42.79,55.24h-5.59v-1.05h5.59v1.05Z"/></svg>