<?xml version="1.0" encoding="UTF-8"?><svg id="modifiers" xmlns="http://www.w3.org/2000/svg" viewBox="0 0 80 80"><defs><style>.cls-1{fill:#07182d;}</style></defs><path class="cls-1" d="M77.91,0H2.09C.94,0,0,.94,0,2.09v75.83c0,1.15.94,2.09,2.09,2.09h75.83c1.15,0,2.09-.94,2.09-2.09V2.09c0-1.15-.94-2.09-2.09-2.09ZM78.95,77.91c0,.57-.46,1.03-1.03,1.03H2.09c-.57,0-1.03-.46-1.03-1.03V2.09c0-.57.46-1.03,1.03-1.03h75.83c.57,0,1.03.46,1.03,1.03v75.83ZM21.5,20.64l16.83,16.83-.74.74-16.86-16.86-.08,6.54h-1.05s.09-7.8.09-7.8c0-.14.06-.27.16-.37.1-.1.21-.16.37-.15l7.6.09v1.05s-6.32-.08-6.32-.08ZM60.73,53.35h1.05s-.09,7.8-.09,7.8c0,.14-.06.27-.16.37-.1.1-.23.15-.37.15h0l-7.6-.09v-1.05s6.32.08,6.32.08l-16.83-16.83.74-.74,16.86,16.86.08-6.54ZM61.87,16.99l.74.74-16.86,16.86,6.54.08v1.05s-7.8-.09-7.8-.09c-.14,0-.27-.06-.37-.16-.1-.1-.15-.23-.15-.37l.09-7.6h1.05s-.08,6.32-.08,6.32l16.83-16.83ZM37.83,42.12c.1.1.15.23.15.37l-.09,7.6h-1.05s.08-6.32.08-6.32l-16.83,16.83-.74-.74,16.86-16.86-6.54-.08v-1.05s7.8.09,7.8.09c.14,0,.27.06.37.16ZM75.28,7.71h-.62c.02-.16.04-.32.04-.48,0-2.12-1.59-3.85-3.55-3.85s-3.55,1.73-3.55,3.85c0,.16.02.32.04.48h-.65c-.63,0-1.15.51-1.15,1.15v6.71c0,.63.51,1.15,1.15,1.15h8.3c.63,0,1.15-.51,1.15-1.15v-6.71c0-.63-.51-1.15-1.15-1.15ZM68.64,7.23c0-1.54,1.12-2.8,2.5-2.8s2.5,1.26,2.5,2.8c0,.15-.01.31-.04.48h-4.91c-.03-.17-.04-.32-.04-.48ZM75.37,15.57c0,.05-.04.09-.09.09h-8.3c-.05,0-.09-.04-.09-.09v-6.71c0-.05.04-.09.09-.09h8.3c.05,0,.09.04.09.09v6.71ZM70.6,10.52h1.05v3.18h-1.05v-3.18Z"/></svg>