<?xml version="1.0" encoding="UTF-8"?><svg id="device" xmlns="http://www.w3.org/2000/svg" viewBox="0 0 80 80"><defs><style>.cls-1{fill:#fff;}</style></defs><g id="Layer_4"><path class="cls-1" d="M56.57,38.52v2.97c0,.11-.09.21-.21.21h-6.29c-.11,0-.21-.09-.21-.21v-2.97c0-.11.09-.21.21-.21h6.29c.11,0,.21.09.21.21ZM25.17,38.36s-.06.03-.06.06v2.48s.03.06.06.06h.66v.69h1.44v-.69h.66s.06-.03.06-.06v-2.48s-.03-.06-.06-.06h-2.75ZM80,33.63v12.75c0,.41-.33.74-.74.74h-2.4s-.09-.02-.13-.03c-.04,0-.08.03-.12.03h-.67c-1.9,2.02-4.59,3.29-7.57,3.29s-5.67-1.27-7.57-3.29H3.25s-.03,0-.04,0c-.01,0-.03,0-.04,0H.58C.28,47.12,0,46.83,0,46.54v-13.07c0-.3.28-.58.58-.58h2.59s.03,0,.04,0c.01,0,.03,0,.04,0h57.54c1.9-2.02,4.59-3.29,7.57-3.29s5.67,1.27,7.57,3.29h.67s.08.02.12.03c.04,0,.08-.03.13-.03h2.4c.41,0,.74.33.74.74ZM2.67,33.96h-1.59v12.07h1.59v-12.07ZM59.91,46.04c-1.22-1.7-1.95-3.79-1.95-6.04s.73-4.33,1.95-6.04H3.75v12.07h56.16ZM77.69,40c0-5.14-4.18-9.33-9.33-9.33s-9.33,4.18-9.33,9.33,4.18,9.33,9.33,9.33,9.33-4.18,9.33-9.33ZM78.92,33.96h-1.73v.55c1,1.6,1.58,3.47,1.58,5.49s-.59,3.89-1.58,5.49v.55h1.73v-12.07ZM19.99,38.36s-.06.03-.06.06v2.48s.03.06.06.06h.66v.69h1.44v-.69h.66s.06-.03.06-.06v-2.48s-.03-.06-.06-.06h-2.75ZM30.35,38.36s-.06.03-.06.06v2.48s.03.06.06.06h.66v.69h1.44v-.69h.66s.06-.03.06-.06v-2.48s-.03-.06-.06-.06h-2.75ZM48.2,38.31h-6.29c-.11,0-.21.09-.21.21v2.97c0,.11.09.21.21.21h6.29c.11,0,.21-.09.21-.21v-2.97c0-.11-.09-.21-.21-.21ZM35.53,38.36s-.06.03-.06.06v2.48s.03.06.06.06h.66v.69h1.44v-.69h.66s.06-.03.06-.06v-2.48s-.03-.06-.06-.06h-2.75Z"/></g></svg>