<?xml version="1.0" encoding="UTF-8"?><svg id="modifiers" xmlns="http://www.w3.org/2000/svg" viewBox="0 0 80 80"><defs><style>.cls-1{fill:#07182d;}</style></defs><path class="cls-1" d="M66.22,32.7h-25.66v-5.58h4.27c.59,0,1.06-.48,1.06-1.06v-9.65c0-.59-.48-1.06-1.06-1.06h-9.65c-.59,0-1.06.48-1.06,1.06v9.65c0,.59.48,1.06,1.06,1.06h4.34v5.58H13.78c-.62,0-1.12.5-1.12,1.12v10.73c0,.62.5,1.12,1.12,1.12h3.35v5.51c-2.5.27-4.47,2.37-4.47,4.94,0,2.75,2.24,5,5,5s5-2.24,5-5c0-2.57-1.97-4.68-4.47-4.94v-5.51h13.85v5.51c-2.5.27-4.47,2.37-4.47,4.94,0,2.75,2.24,5,5,5s5-2.24,5-5c0-2.57-1.96-4.68-4.47-4.94v-5.51h13.85v5.51c-2.5.27-4.47,2.37-4.47,4.94,0,2.75,2.24,5,5,5s5-2.24,5-5c0-2.57-1.96-4.68-4.47-4.94v-5.51h13.85v5.51c-2.5.27-4.47,2.37-4.47,4.94,0,2.75,2.24,5,5,5s5-2.24,5-5c0-2.57-1.97-4.68-4.47-4.94v-5.51h3.35c.62,0,1.12-.5,1.12-1.12v-10.73c0-.62-.5-1.12-1.12-1.12ZM35.16,26.06v-9.66s9.67.01,9.67.01v9.65s0,.01-.01.01h-9.66ZM21.6,56.13c0,2.17-1.77,3.94-3.94,3.94s-3.94-1.77-3.94-3.94,1.77-3.94,3.94-3.94,3.94,1.77,3.94,3.94ZM36.49,56.13c0,2.17-1.77,3.94-3.94,3.94s-3.94-1.77-3.94-3.94,1.77-3.94,3.94-3.94,3.94,1.77,3.94,3.94ZM51.39,56.13c0,2.17-1.77,3.94-3.94,3.94s-3.94-1.77-3.94-3.94,1.77-3.94,3.94-3.94,3.94,1.77,3.94,3.94ZM66.29,56.13c0,2.17-1.77,3.94-3.94,3.94s-3.94-1.77-3.94-3.94,1.77-3.94,3.94-3.94,3.94,1.77,3.94,3.94ZM66.29,44.55s-.03.07-.07.07l-52.51-.07.07-10.8,52.51.07v10.73ZM77.91,0H2.09C.94,0,0,.94,0,2.09v75.83c0,1.15.94,2.09,2.09,2.09h75.83c1.15,0,2.09-.94,2.09-2.09V2.09c0-1.15-.94-2.09-2.09-2.09ZM78.95,77.91c0,.57-.46,1.03-1.03,1.03H2.09c-.57,0-1.03-.46-1.03-1.03V2.09c0-.57.46-1.03,1.03-1.03h75.83c.57,0,1.03.46,1.03,1.03v75.83Z"/></svg>