<?xml version="1.0" encoding="UTF-8"?><svg id="modifiers" xmlns="http://www.w3.org/2000/svg" viewBox="0 0 80 80"><defs><style>.cls-1{fill:#07182d;}</style></defs><path class="cls-1" d="M40,0C17.94,0,0,17.94,0,40s17.94,40,40,40,40-17.94,40-40S62.06,0,40,0ZM40,78.95C18.52,78.95,1.05,61.48,1.05,40S18.52,1.05,40,1.05s38.95,17.47,38.95,38.95-17.47,38.95-38.95,38.95ZM67.72,39.69c-1.92,0-3.72.75-5.08,2.1-1.16,1.16-2.7,1.8-4.33,1.8s-3.18-.64-4.33-1.8l-1.43-1.43c.05-.19.1-.39.14-.58h.01s0-.02,0-.02c.31-1.27.49-2.58.49-3.92,0-4.35-1.69-8.44-4.77-11.51-3.07-3.07-7.16-4.77-11.51-4.77s-8.44,1.69-11.51,4.77c-3.08,3.07-4.77,7.16-4.77,11.51,0,.94.09,1.86.25,2.77-.03,0-.07,0-.1,0H4.78v1.05h15.99c.11,0,.21-.01.32-.02.69,2.89,2.15,5.55,4.3,7.71,3.07,3.08,7.16,4.77,11.51,4.77s8.11-1.58,11.13-4.43l13.21,12.95.74-.75-13.2-12.95c1.5-1.61,2.64-3.46,3.39-5.48l1.06,1.06c1.36,1.36,3.16,2.1,5.08,2.1s3.72-.75,5.08-2.1c1.16-1.16,2.7-1.79,4.33-1.79h6.59v-1.05h-6.59ZM26.13,25.08c2.88-2.88,6.7-4.46,10.77-4.46s7.89,1.58,10.77,4.46c2.88,2.88,4.46,6.7,4.46,10.77,0,1.04-.11,2.06-.31,3.05l-9.32-9.32c-1.46-1.46-3.39-2.26-5.45-2.26s-3.99.8-5.45,2.26l-6.87,6.87c-.79.79-1.81,1.3-2.89,1.52-.1-.7-.16-1.4-.16-2.12,0-4.07,1.58-7.89,4.46-10.77ZM36.9,51.08c-4.07,0-7.89-1.58-10.77-4.46-1.86-1.86-3.17-4.13-3.87-6.59,1.49-.3,2.88-1,3.96-2.08l6.87-6.87c1.06-1.06,2.47-1.64,3.96-1.64s2.9.58,3.96,1.64l10.13,10.13c-.75,2.01-1.92,3.85-3.48,5.41-2.88,2.88-6.7,4.46-10.77,4.46Z"/></svg>