<?xml version="1.0" encoding="UTF-8"?><svg id="modifiers" xmlns="http://www.w3.org/2000/svg" viewBox="0 0 80 80"><defs><style>.cls-1{fill:#07182d;}</style></defs><path class="cls-1" d="M77.51,0H2.49C1.12,0,0,1.12,0,2.49v75.03c0,1.37,1.12,2.49,2.49,2.49h75.03c1.37,0,2.49-1.12,2.49-2.49V2.49c0-1.37-1.12-2.49-2.49-2.49ZM78.95,77.51c0,.79-.64,1.43-1.43,1.43H2.49c-.79,0-1.43-.64-1.43-1.43V2.49c0-.79.64-1.43,1.43-1.43h75.03c.79,0,1.43.64,1.43,1.43v75.03ZM53.67,40.32l-.49,2.38c-.06.31-.33.34-.41.34-.09,0-.35-.02-.42-.33l-1.44-6.61c-.17-.78-.65-1.06-1.03-1.04-.39,0-.87.31-1.01,1.13l-1.79,10.38-2.09-16.25c-.12-.92-.64-1.25-1.06-1.23-.42,0-.95.36-1.04,1.31l-1.94,21.41v.02s0-.04,0-.06l-2.29-17.92c-.07-.93-.58-1.35-1.05-1.35,0,0,0,0,0,0-.48,0-.99.43-1.04,1.31l-2.39,13.1s0,.04,0,.05c0-.02,0-.05,0-.07l-1.94-13.31c-.08-.98-.61-1.34-1.04-1.34-.41.01-.95.32-1.06,1.26l-1.28,11.22c-.04.36-.35.39-.44.39-.09.02-.4-.03-.44-.4l-.45-4.2c-.08-.76-.5-1.28-1.05-1.28h-6.36v1.05h6.26c.03.05.08.16.1.34l.45,4.2c.08.78.69,1.33,1.48,1.34h0c.79,0,1.4-.54,1.49-1.33l1.28-11.21s0,.05,0,.07l1.94,13.31c.07.93.58,1.34,1.05,1.34h0c.48,0,.99-.43,1.04-1.31l2.39-13.1s0-.03,0-.05c0,.02,0,.04,0,.06l2.29,17.92c.07.93.58,1.34,1.05,1.35h0c.43,0,.96-.34,1.05-1.31l1.94-21.41s0-.01,0-.02l2.09,16.24c.11.89.62,1.22,1.02,1.23.38,0,.9-.28,1.04-1.13l1.8-10.4,1.41,6.51c.15.7.73,1.16,1.44,1.16h0c.72,0,1.29-.48,1.44-1.18l.49-2.38c.02-.11.05-.18.08-.22h5.54v-1.05h-5.63c-.48,0-.88.42-1.01,1.06ZM65.54,12.82c-.14,0-.27.06-.37.16l-5.31,5.44.75.73,4.41-4.52v18.26c-3.17-10.81-13.17-18.74-24.99-18.74-.46,0-.91.01-1.36.04v-.03H14.82l4.57-4.68-.75-.73-5.44,5.57c-.1.1-.15.23-.15.37,0,.14.06.27.16.37l5.44,5.31.73-.75-4.51-4.41h17.83c-10.8,3.17-18.71,13.17-18.71,24.98,0,.46.01.91.04,1.36h-.03v23.84l-4.68-4.57-.73.75,5.57,5.44c.1.1.23.15.37.15h0c.14,0,.27-.06.37-.16l5.31-5.44-.75-.73-4.41,4.52v-17.81c3.18,10.79,13.17,18.7,24.98,18.7.57,0,1.13-.02,1.69-.06v.06h23.84l-4.57,4.68.75.73,5.44-5.57c.1-.1.15-.23.15-.37,0-.14-.06-.27-.16-.37l-5.44-5.31-.73.75,4.51,4.41h-18.18c10.81-3.17,18.73-13.17,18.73-24.99,0-.59-.03-1.18-.07-1.76h.07V14.59l4.68,4.57.73-.75-5.57-5.44c-.1-.1-.24-.17-.37-.15ZM40.02,65.19c-13.78,0-24.99-11.21-24.99-24.99s11.21-24.99,24.99-24.99,24.99,11.21,24.99,24.99-11.21,24.99-24.99,24.99Z"/></svg>