<?xml version="1.0" encoding="UTF-8"?><svg id="device" xmlns="http://www.w3.org/2000/svg" viewBox="0 0 80 80"><defs><style>.cls-1{fill:#07182d;}</style></defs><g id="Layer_4"><path class="cls-1" d="M79.42,32.88h-2.74s-.02,0-.04,0c-.01,0-.02,0-.04,0H3.25s-.02,0-.04,0c-.01,0-.02,0-.04,0H.58C.28,32.88,0,33.16,0,33.46v13.08c0,.3.28.58.58.58h2.6s.02,0,.04,0c.01,0,.02,0,.04,0h73.36s.02,0,.04,0c.01,0,.02,0,.04,0h2.74c.3,0,.58-.28.58-.58v-13.08c0-.3-.28-.58-.58-.58ZM1.08,33.96h1.59v12.07h-1.59v-12.07ZM3.75,33.96h72.36v12.07H3.75v-12.07ZM78.92,46.04h-1.73v-12.07h1.73v12.07ZM16.08,37.1v1.42c0,.21-.17.38-.39.38h-7.58c-.21,0-.39-.17-.39-.38v-1.42c0-.21.17-.38.39-.38h7.58c.21,0,.39.17.39.38ZM20.7,37.1v1.42c0,.21-.17.38-.38.38h-2.57c-.21,0-.39-.17-.39-.38v-1.42c0-.21.17-.38.39-.38h2.57c.21,0,.38.17.38.38ZM16.08,41.48v1.42c0,.21-.17.39-.39.39h-7.58c-.21,0-.39-.17-.39-.39v-1.42c0-.21.17-.39.39-.39h7.58c.21,0,.39.17.39.39ZM20.7,41.48v1.42c0,.21-.17.39-.38.39h-2.57c-.21,0-.39-.17-.39-.39v-1.42c0-.21.17-.39.39-.39h2.57c.21,0,.38.17.38.39ZM41.66,37.1v1.42c0,.21-.17.38-.39.38h-7.58c-.21,0-.38-.17-.38-.38v-1.42c0-.21.17-.38.38-.38h7.58c.21,0,.39.17.39.38ZM46.28,37.1v1.42c0,.21-.17.38-.39.38h-2.57c-.21,0-.38-.17-.38-.38v-1.42c0-.21.17-.38.38-.38h2.57c.21,0,.39.17.39.38ZM41.66,41.48v1.42c0,.21-.17.39-.39.39h-7.58c-.21,0-.38-.17-.38-.39v-1.42c0-.21.17-.39.38-.39h7.58c.21,0,.39.17.39.39ZM46.28,41.48v1.42c0,.21-.17.39-.39.39h-2.57c-.21,0-.38-.17-.38-.39v-1.42c0-.21.17-.39.38-.39h2.57c.21,0,.39.17.39.39ZM67.23,37.1v1.42c0,.21-.17.38-.38.38h-7.58c-.21,0-.38-.17-.38-.38v-1.42c0-.21.17-.38.38-.38h7.58c.21,0,.38.17.38.38ZM71.86,37.1v1.42c0,.21-.17.38-.38.38h-2.57c-.21,0-.39-.17-.39-.38v-1.42c0-.21.17-.38.39-.38h2.57c.21,0,.38.17.38.38ZM67.23,41.48v1.42c0,.21-.17.39-.38.39h-7.58c-.21,0-.38-.17-.38-.39v-1.42c0-.21.17-.39.38-.39h7.58c.21,0,.38.17.38.39ZM71.86,41.48v1.42c0,.21-.17.39-.38.39h-2.57c-.21,0-.39-.17-.39-.39v-1.42c0-.21.17-.39.39-.39h2.57c.21,0,.38.17.38.39Z"/></g></svg>