<?xml version="1.0" encoding="UTF-8"?><svg id="device" xmlns="http://www.w3.org/2000/svg" viewBox="0 0 80 80"><defs><style>.cls-1{fill:#fff;}</style></defs><g id="Layer_4"><path class="cls-1" d="M80,27.03c0-.4-.32-.72-.72-.72h-2.45s-.07.02-.11.02c-.03,0-.07-.02-.1-.02H3.25s-.02,0-.04,0c-.01,0-.02,0-.04,0H.58C.28,26.31,0,26.59,0,26.89v13.08s0,.02,0,.03c0,0,0,.02,0,.03v13.08c0,.3.28.58.58.58h2.6s.02,0,.04,0c.01,0,.02,0,.04,0h73.36s.07-.02.1-.02c.04,0,.07.02.11.02h2.45c.4,0,.72-.32.72-.72v-12.8c0-.06-.02-.11-.03-.17.01-.06.03-.11.03-.17v-12.8ZM78.91,39.45h-1.72v-12.05h1.72v12.05ZM76.11,39.45H3.76v-4.08c.37-1.61,1.03-2.92,2.13-3.45v.47s.03.06.06.06h2.75s.06-.03.06-.06v-2.48s-.03-.06-.06-.06h-.66v-.69h-1.44v.69h-.66s-.06.03-.06.06v.67c-.86.24-1.57.76-2.13,1.56v-4.74h72.35v12.05ZM2.67,27.4v7.2c-.35,1.31-.54,2.93-.57,4.85h-1.01v-12.05h1.59ZM1.08,40.55h1.01c.03,2.27.24,4,.57,5.32v6.73h-1.59v-12.05ZM3.76,48.37c.62.84,1.36,1.25,2.13,1.42v.4s.03.06.06.06h.66v.69h1.44v-.69h.66s.06-.03.06-.06v-2.48s-.03-.06-.06-.06h-2.75s-.06.03-.06.06v.82c-.79-.27-1.64-1.06-2.13-3.35v-4.63h72.35v12.05H3.76v-4.23ZM77.19,52.6v-12.05h1.72v12.05h-1.72ZM14.17,37.11s-.06-.03-.06-.06v-2.48s.03-.06.06-.06h2.75s.06.03.06.06v2.48s-.03.06-.06.06h-.66v.69h-1.44v-.69h-.66ZM22.4,37.11s-.06-.03-.06-.06v-2.48s.03-.06.06-.06h2.75s.06.03.06.06v2.48s-.03.06-.06.06h-.66v.69h-1.44v-.69h-.66ZM30.62,37.11s-.06-.03-.06-.06v-2.48s.03-.06.06-.06h2.75s.06.03.06.06v2.48s-.03.06-.06.06h-.66v.69h-1.44v-.69h-.66ZM38.84,37.11s-.06-.03-.06-.06v-2.48s.03-.06.06-.06h2.75s.06.03.06.06v2.48s-.03.06-.06.06h-.66v.69h-1.44v-.69h-.66ZM47.07,37.11s-.06-.03-.06-.06v-2.48s.03-.06.06-.06h2.75s.06.03.06.06v2.48s-.03.06-.06.06h-.66v.69h-1.44v-.69h-.66ZM55.29,37.11s-.06-.03-.06-.06v-2.48s.03-.06.06-.06h2.75s.06.03.06.06v2.48s-.03.06-.06.06h-.66v.69h-1.44v-.69h-.66ZM63.51,37.11s-.06-.03-.06-.06v-2.48s.03-.06.06-.06h2.75s.06.03.06.06v2.48s-.03.06-.06.06h-.66v.69h-1.44v-.69h-.66ZM8.71,34.51s.06.03.06.06v2.48s-.03.06-.06.06h-.66v.69h-1.44v-.69h-.66s-.06-.03-.06-.06v-2.48s.03-.06.06-.06h2.75ZM14.17,32.45s-.06-.03-.06-.06v-2.48s.03-.06.06-.06h.66v-.69h1.44v.69h.66s.06.03.06.06v2.48s-.03.06-.06.06h-2.75ZM22.4,32.45s-.06-.03-.06-.06v-2.48s.03-.06.06-.06h.66v-.69h1.44v.69h.66s.06.03.06.06v2.48s-.03.06-.06.06h-2.75ZM30.62,32.45s-.06-.03-.06-.06v-2.48s.03-.06.06-.06h.66v-.69h1.44v.69h.66s.06.03.06.06v2.48s-.03.06-.06.06h-2.75ZM38.84,32.45s-.06-.03-.06-.06v-2.48s.03-.06.06-.06h.66v-.69h1.44v.69h.66s.06.03.06.06v2.48s-.03.06-.06.06h-2.75ZM47.07,32.45s-.06-.03-.06-.06v-2.48s.03-.06.06-.06h.66v-.69h1.44v.69h.66s.06.03.06.06v2.48s-.03.06-.06.06h-2.75ZM55.29,32.45s-.06-.03-.06-.06v-2.48s.03-.06.06-.06h.66v-.69h1.44v.69h.66s.06.03.06.06v2.48s-.03.06-.06.06h-2.75ZM63.51,32.45s-.06-.03-.06-.06v-2.48s.03-.06.06-.06h.66v-.69h1.44v.69h.66s.06.03.06.06v2.48s-.03.06-.06.06h-2.75ZM8.71,42.98s.06.03.06.06v2.48s-.03.06-.06.06h-2.75s-.06-.03-.06-.06v-2.48s.03-.06.06-.06h.66v-.69h1.44v.69h.66ZM16.93,42.98s.06.03.06.06v2.48s-.03.06-.06.06h-2.75s-.06-.03-.06-.06v-2.48s.03-.06.06-.06h.66v-.69h1.44v.69h.66ZM25.15,42.98s.06.03.06.06v2.48s-.03.06-.06.06h-2.75s-.06-.03-.06-.06v-2.48s.03-.06.06-.06h.66v-.69h1.44v.69h.66ZM33.38,42.98s.06.03.06.06v2.48s-.03.06-.06.06h-2.75s-.06-.03-.06-.06v-2.48s.03-.06.06-.06h.66v-.69h1.44v.69h.66ZM41.6,42.98s.06.03.06.06v2.48s-.03.06-.06.06h-2.75s-.06-.03-.06-.06v-2.48s.03-.06.06-.06h.66v-.69h1.44v.69h.66ZM49.82,42.98s.06.03.06.06v2.48s-.03.06-.06.06h-2.75s-.06-.03-.06-.06v-2.48s.03-.06.06-.06h.66v-.69h1.44v.69h.66ZM58.05,42.98s.06.03.06.06v2.48s-.03.06-.06.06h-2.75s-.06-.03-.06-.06v-2.48s.03-.06.06-.06h.66v-.69h1.44v.69h.66ZM66.27,42.98s.06.03.06.06v2.48s-.03.06-.06.06h-2.75s-.06-.03-.06-.06v-2.48s.03-.06.06-.06h.66v-.69h1.44v.69h.66ZM16.93,47.64s.06.03.06.06v2.48s-.03.06-.06.06h-.66v.69h-1.44v-.69h-.66s-.06-.03-.06-.06v-2.48s.03-.06.06-.06h2.75ZM25.15,47.64s.06.03.06.06v2.48s-.03.06-.06.06h-.66v.69h-1.44v-.69h-.66s-.06-.03-.06-.06v-2.48s.03-.06.06-.06h2.75ZM33.38,47.64s.06.03.06.06v2.48s-.03.06-.06.06h-.66v.69h-1.44v-.69h-.66s-.06-.03-.06-.06v-2.48s.03-.06.06-.06h2.75ZM41.6,47.64s.06.03.06.06v2.48s-.03.06-.06.06h-.66v.69h-1.44v-.69h-.66s-.06-.03-.06-.06v-2.48s.03-.06.06-.06h2.75ZM49.82,47.64s.06.03.06.06v2.48s-.03.06-.06.06h-.66v.69h-1.44v-.69h-.66s-.06-.03-.06-.06v-2.48s.03-.06.06-.06h2.75ZM58.05,47.64s.06.03.06.06v2.48s-.03.06-.06.06h-.66v.69h-1.44v-.69h-.66s-.06-.03-.06-.06v-2.48s.03-.06.06-.06h2.75ZM66.27,47.64s.06.03.06.06v2.48s-.03.06-.06.06h-.66v.69h-1.44v-.69h-.66s-.06-.03-.06-.06v-2.48s.03-.06.06-.06h2.75Z"/></g></svg>