<?xml version="1.0" encoding="UTF-8"?><svg id="modifiers" xmlns="http://www.w3.org/2000/svg" viewBox="0 0 80 80"><defs><style>.cls-1{fill:#fff;}</style></defs><path class="cls-1" d="M27.38,18.28h1.05s-.11,9.34-.11,9.34c0,.14-.06.28-.16.37-.1.1-.23.15-.37.15h0l-9.04-.11v-1.06s7.76.1,7.76.1l-12.96-13.06.75-.75,12.99,13.09.1-8.07ZM56.07,57.17l-12.37-12.47-.75.75,12.34,12.44-7.74-.1v1.06s9.03.11,9.03.11h0c.14,0,.27-.05.37-.15.1-.1.16-.23.16-.37l.11-9.33h-1.05s-.1,8.06-.1,8.06ZM17.59,42.92l.74.76,6.47-6.36c.1-.1.16-.23.16-.37s-.05-.28-.15-.38l-6.47-6.68-.75.74,5.6,5.77H4.8v1.06h18.33l-5.54,5.45ZM64.42,36.86l-6.47-6.68-.75.74,5.6,5.77h-17.58v1.06h17.54l-5.54,5.45.74.76,6.47-6.36c.1-.1.16-.23.16-.37s-.05-.28-.15-.38ZM44.13,29.82l11.97-13.42-.1,8.46h1.05s.11-9.1.11-9.1c0-.14-.05-.28-.15-.38-.1-.1-.23-.16-.37-.16h-.58s-.18-.17-.18-.17l-.14.16-8.36-.1v1.06s7.42.09,7.42.09l-11.46,12.84.78.71ZM27.86,45.47l-9.26-.11v1.06s8,.1,8,.1l-12.99,13.09.75.75,12.96-13.06-.09,7.8h1.05s.11-9.1.11-9.1c0-.14-.05-.28-.15-.38-.1-.1-.23-.16-.37-.16ZM41.52,31.64v10.27c0,.29-.3.6-.6.6h-10.2c-.29,0-.6-.31-.6-.6v-10.27c0-.29.3-.6.6-.6h10.2c.29,0,.6.31.6.6ZM40.46,32.11h-9.28v9.35h9.28v-9.35ZM79.27,80l-18.46-18.04c-6.72,6.6-15.57,10.24-24.98,10.24s-18.57-3.76-25.33-10.57S0,45.74,0,36.1,3.73,17.39,10.49,10.57C17.26,3.76,26.26,0,35.83,0s18.57,3.76,25.33,10.57c6.77,6.82,10.49,15.88,10.49,25.53s-3.59,18.34-10.1,25.11l18.45,18.03-.73.76ZM60.41,60.88c6.57-6.62,10.18-15.42,10.18-24.78s-3.62-18.16-10.18-24.78S45.11,1.06,35.83,1.06s-18.02,3.64-24.59,10.26C4.67,17.94,1.05,26.74,1.05,36.1s3.62,18.16,10.18,24.78c6.57,6.62,15.3,10.26,24.59,10.26s18.02-3.64,24.59-10.26Z"/></svg>