<?xml version="1.0" encoding="UTF-8"?><svg id="modifiers" xmlns="http://www.w3.org/2000/svg" viewBox="0 0 80 80"><defs><style>.cls-1{fill:#07182d;}</style></defs><path class="cls-1" d="M8.49,56.38h63.11c.29,0,.53-.24.53-.53V15.45c0-.29-.24-.53-.53-.53H8.49c-.29,0-.53.24-.53.53v40.41c0,.29.24.53.53.53ZM9.02,15.97h62.06v39.35H9.02V15.97ZM7.04,62.14h66.06v1.05H7.04v-1.05ZM58.2,21.3H21.9c-.29,0-.53.24-.53.53v29.03c0,.29.24.53.53.53h36.3c.29,0,.53-.24.53-.53v-29.03c0-.29-.24-.53-.53-.53ZM57.67,22.36v3.83H22.43v-3.83h35.25ZM22.43,50.34v-23.1h35.25v23.1H22.43ZM24.87,24.33c0-.43.35-.78.78-.78s.78.35.78.78-.35.78-.78.78-.78-.35-.78-.78ZM28.48,24.33c0-.43.35-.78.78-.78s.78.35.78.78-.35.78-.78.78-.78-.35-.78-.78ZM32.09,24.33c0-.43.35-.78.78-.78s.78.35.78.78-.35.78-.78.78-.78-.35-.78-.78ZM38.43,37.99l-7.65,3.85-.47-.94,7.65-3.85-7.64-3.72.46-.95,7.64,3.73c.36.18.58.53.59.93,0,.4-.22.76-.58.94ZM36.09,43.43h12.68v1.05h-12.68v-1.05ZM77.91,0H2.09C.94,0,0,.94,0,2.09v75.82c0,1.15.94,2.09,2.09,2.09h75.82c1.15,0,2.09-.94,2.09-2.09V2.09c0-1.15-.94-2.09-2.09-2.09ZM78.95,77.91c0,.57-.46,1.04-1.04,1.04H2.09c-.57,0-1.04-.46-1.04-1.04V2.09c0-.57.46-1.04,1.04-1.04h75.82c.57,0,1.04.46,1.04,1.04v75.82Z"/></svg>