<?xml version="1.0" encoding="UTF-8"?><svg id="device" xmlns="http://www.w3.org/2000/svg" viewBox="0 0 80 80"><defs><style>.cls-1{fill:#fff;}</style></defs><g id="Layer_4"><path class="cls-1" d="M79.42,32.88h-.75v-.64c0-.55-.45-1-1-1h-22.6c-.55,0-1,.45-1,1v.64H3.25s-.02,0-.04,0c-.01,0-.02,0-.04,0H.58C.28,32.88,0,33.16,0,33.46v13.08c0,.3.28.58.58.58h2.6s.03,0,.04,0c.01,0,.02,0,.04,0h50.81v.64c0,.55.45,1,1,1h22.6c.55,0,1-.45,1-1v-.64h.75c.3,0,.58-.28.58-.58v-13.08c0-.3-.28-.58-.58-.58ZM2.67,46.04h-1.59v-12.07h1.59v12.07ZM54.06,46.04H3.75v-12.07h50.31v12.07ZM77.59,47.68h-22.53v-15.36h22.53v15.36ZM78.92,46.04h-.25v-12.07h.25v12.07ZM7.74,38.52v-1.42c0-.21.17-.38.38-.38h7.58c.21,0,.38.17.38.38v1.42c0,.21-.17.38-.38.38h-7.58c-.21,0-.38-.17-.38-.38ZM17.36,38.52v-1.42c0-.21.17-.38.39-.38h2.57c.21,0,.38.17.38.38v1.42c0,.21-.17.38-.38.38h-2.57c-.21,0-.39-.17-.39-.38ZM7.74,42.9v-1.42c0-.21.17-.39.38-.39h7.58c.21,0,.38.17.38.39v1.42c0,.21-.17.39-.38.39h-7.58c-.21,0-.38-.17-.38-.39ZM17.36,42.9v-1.42c0-.21.17-.39.39-.39h2.57c.21,0,.38.17.38.39v1.42c0,.21-.17.39-.38.39h-2.57c-.21,0-.39-.17-.39-.39ZM33.31,38.52v-1.42c0-.21.17-.38.39-.38h7.58c.21,0,.38.17.38.38v1.42c0,.21-.17.38-.38.38h-7.58c-.21,0-.39-.17-.39-.38ZM42.94,38.52v-1.42c0-.21.17-.38.38-.38h2.57c.21,0,.38.17.38.38v1.42c0,.21-.17.38-.38.38h-2.57c-.21,0-.38-.17-.38-.38ZM33.31,42.9v-1.42c0-.21.17-.39.39-.39h7.58c.21,0,.38.17.38.39v1.42c0,.21-.17.39-.38.39h-7.58c-.21,0-.39-.17-.39-.39ZM42.94,42.9v-1.42c0-.21.17-.39.38-.39h2.57c.21,0,.38.17.38.39v1.42c0,.21-.17.39-.38.39h-2.57c-.21,0-.38-.17-.38-.39Z"/></g></svg>