<?xml version="1.0" encoding="UTF-8"?><svg id="device" xmlns="http://www.w3.org/2000/svg" viewBox="0 0 80 80"><defs><style>.cls-1{fill:#07182d;}</style></defs><g id="Layer_4"><path class="cls-1" d="M79.28,32.88h-.59v-.64c0-.55-.45-1-1-1h-22.6c-.55,0-1,.45-1,1v.64H3.25s-.02,0-.04,0c-.01,0-.02,0-.04,0H.58C.28,32.88,0,33.16,0,33.46v13.08c0,.3.28.58.58.58h2.6s.03,0,.04,0c.01,0,.02,0,.04,0h50.83v.64c0,.55.45,1,1,1h22.6c.55,0,1-.45,1-1v-.64h.59c.4,0,.72-.32.72-.72v-12.79c0-.4-.32-.72-.72-.72ZM2.67,46.04h-1.59v-12.08h1.59v12.08ZM54.08,46.04H3.75v-12.08h50.33v12.08ZM77.61,47.68h-22.53v-15.36h22.53v15.36ZM78.92,46.04h-.23v-12.08h.23v12.08ZM5.95,39.01s-.06-.03-.06-.06v-2.48s.03-.06.06-.06h.66v-.69h1.44v.69h.66s.06.03.06.06v2.48s-.03.06-.06.06h-2.75ZM14.67,39.01s-.06-.03-.06-.06v-2.48s.03-.06.06-.06h.66v-.69h1.44v.69h.66s.06.03.06.06v2.48s-.03.06-.06.06h-2.75ZM23.39,39.01s-.06-.03-.06-.06v-2.48s.03-.06.06-.06h.66v-.69h1.44v.69h.66s.06.03.06.06v2.48s-.03.06-.06.06h-2.75ZM32.12,39.01s-.06-.03-.06-.06v-2.48s.03-.06.06-.06h.66v-.69h1.44v.69h.66s.06.03.06.06v2.48s-.03.06-.06.06h-2.75ZM32.12,43.59s-.06-.03-.06-.06v-2.48s.03-.06.06-.06h2.75s.06.03.06.06v2.48s-.03.06-.06.06h-.66v.69h-1.44v-.69h-.66ZM23.39,43.59s-.06-.03-.06-.06v-2.48s.03-.06.06-.06h2.75s.06.03.06.06v2.48s-.03.06-.06.06h-.66v.69h-1.44v-.69h-.66ZM14.67,43.59s-.06-.03-.06-.06v-2.48s.03-.06.06-.06h2.75s.06.03.06.06v2.48s-.03.06-.06.06h-.66v.69h-1.44v-.69h-.66ZM5.95,43.59s-.06-.03-.06-.06v-2.48s.03-.06.06-.06h2.75s.06.03.06.06v2.48s-.03.06-.06.06h-.66v.69h-1.44v-.69h-.66Z"/></g></svg>