<?xml version="1.0" encoding="UTF-8"?><svg id="modifiers" xmlns="http://www.w3.org/2000/svg" viewBox="0 0 80 80"><defs><style>.cls-1{fill:#07182d;}</style></defs><path class="cls-1" d="M40,0C17.94,0,0,17.94,0,40s17.94,40,40,40,40-17.94,40-40S62.06,0,40,0ZM40,78.95C18.52,78.95,1.05,61.48,1.05,40S18.52,1.05,40,1.05s38.95,17.47,38.95,38.95-17.47,38.95-38.95,38.95ZM40.04,18.72c-10.47,0-20.38,4-27.91,11.26l.73.76c7.34-7.07,16.99-10.96,27.18-10.96s19.77,3.86,27.1,10.88l.73-.76c-7.52-7.2-17.41-11.17-27.83-11.17ZM23.43,38.89l.67.81c4.47-3.7,10.13-5.74,15.95-5.74s11.44,2.03,15.91,5.71l.67-.81c-4.65-3.84-10.54-5.95-16.58-5.95s-11.96,2.13-16.62,5.99ZM32.45,48.73l.63.84c2.03-1.51,4.43-2.3,6.97-2.3s4.94.8,6.97,2.3l.63-.84c-2.21-1.64-4.84-2.51-7.59-2.51s-5.39.87-7.6,2.51ZM40.04,55.88c-1.7,0-3.08,1.38-3.08,3.08s1.38,3.08,3.08,3.08,3.08-1.38,3.08-3.08-1.38-3.08-3.08-3.08ZM40.04,60.99c-1.12,0-2.03-.91-2.03-2.03s.91-2.03,2.03-2.03,2.03.91,2.03,2.03-.91,2.03-2.03,2.03Z"/></svg>