<?xml version="1.0" encoding="UTF-8"?><svg id="device" xmlns="http://www.w3.org/2000/svg" viewBox="0 0 80 80"><defs><style>.cls-1{fill:#fff;fill-rule:evenodd;}</style></defs><g id="Layer_4"><path class="cls-1" d="M74.21,37.37c0,.3-.24.54-.54.54h-4.86c-.3,0-.54-.24-.54-.54s.24-.54.54-.54h4.86c.3,0,.54.24.54.54ZM73.67,42.09h-4.86c-.3,0-.54.24-.54.54s.24.54.54.54h4.86c.3,0,.54-.24.54-.54s-.24-.54-.54-.54ZM80,33.63v12.75c0,.41-.33.74-.74.74h-2.4s-.09-.02-.13-.03c-.04,0-.08.03-.12.03H3.25s-.03,0-.04,0c-.01,0-.03,0-.04,0H.58c-.3,0-.58-.28-.58-.58v-13.07c0-.3.28-.58.58-.58h2.59s.03,0,.04,0c.01,0,.03,0,.04,0h73.35s.08.02.12.03c.04,0,.08-.03.13-.03h2.4c.41,0,.74.33.74.74ZM1.08,46.04h1.59v-12.07h-1.59v12.07ZM3.75,46.04h72.36v-12.07H3.75v12.07ZM78.92,33.96h-1.73v12.07h1.73v-12.07ZM8.05,36.41v-.69h-1.44v.69h-.66s-.06.03-.06.06v2.48s.03.06.06.06h2.75s.06-.03.06-.06v-2.48s-.03-.06-.06-.06h-.66ZM13.28,36.41v-.69h-1.44v.69h-.66s-.06.03-.06.06v2.48s.03.06.06.06h2.75s.06-.03.06-.06v-2.48s-.03-.06-.06-.06h-.66ZM18.51,36.41v-.69h-1.44v.69h-.66s-.06.03-.06.06v2.48s.03.06.06.06h2.75s.06-.03.06-.06v-2.48s-.03-.06-.06-.06h-.66ZM23.75,36.41v-.69h-1.44v.69h-.66s-.06.03-.06.06v2.48s.03.06.06.06h2.75s.06-.03.06-.06v-2.48s-.03-.06-.06-.06h-.66ZM28.98,36.41v-.69h-1.44v.69h-.66s-.06.03-.06.06v2.48s.03.06.06.06h2.75s.06-.03.06-.06v-2.48s-.03-.06-.06-.06h-.66ZM34.21,36.41v-.69h-1.44v.69h-.66s-.06.03-.06.06v2.48s.03.06.06.06h2.75s.06-.03.06-.06v-2.48s-.03-.06-.06-.06h-.66ZM39.45,36.41v-.69h-1.44v.69h-.66s-.06.03-.06.06v2.48s.03.06.06.06h2.75s.06-.03.06-.06v-2.48s-.03-.06-.06-.06h-.66ZM44.68,36.41v-.69h-1.44v.69h-.66s-.06.03-.06.06v2.48s.03.06.06.06h2.75s.06-.03.06-.06v-2.48s-.03-.06-.06-.06h-.66ZM49.91,36.41v-.69h-1.44v.69h-.66s-.06.03-.06.06v2.48s.03.06.06.06h2.75s.06-.03.06-.06v-2.48s-.03-.06-.06-.06h-.66ZM55.15,36.41v-.69h-1.44v.69h-.66s-.06.03-.06.06v2.48s.03.06.06.06h2.75s.06-.03.06-.06v-2.48s-.03-.06-.06-.06h-.66ZM60.38,36.41v-.69h-1.44v.69h-.66s-.06.03-.06.06v2.48s.03.06.06.06h2.75s.06-.03.06-.06v-2.48s-.03-.06-.06-.06h-.66ZM65.61,36.41v-.69h-1.44v.69h-.66s-.06.03-.06.06v2.48s.03.06.06.06h2.75s.06-.03.06-.06v-2.48s-.03-.06-.06-.06h-.66ZM63.52,41.08s-.06.03-.06.06v2.48s.03.06.06.06h.66v.69h1.44v-.69h.66s.06-.03.06-.06v-2.48s-.03-.06-.06-.06h-2.75ZM58.28,41.08s-.06.03-.06.06v2.48s.03.06.06.06h.66v.69h1.44v-.69h.66s.06-.03.06-.06v-2.48s-.03-.06-.06-.06h-2.75ZM53.05,41.08s-.06.03-.06.06v2.48s.03.06.06.06h.66v.69h1.44v-.69h.66s.06-.03.06-.06v-2.48s-.03-.06-.06-.06h-2.75ZM47.82,41.08s-.06.03-.06.06v2.48s.03.06.06.06h.66v.69h1.44v-.69h.66s.06-.03.06-.06v-2.48s-.03-.06-.06-.06h-2.75ZM42.58,41.08s-.06.03-.06.06v2.48s.03.06.06.06h.66v.69h1.44v-.69h.66s.06-.03.06-.06v-2.48s-.03-.06-.06-.06h-2.75ZM37.35,41.08s-.06.03-.06.06v2.48s.03.06.06.06h.66v.69h1.44v-.69h.66s.06-.03.06-.06v-2.48s-.03-.06-.06-.06h-2.75ZM32.12,41.08s-.06.03-.06.06v2.48s.03.06.06.06h.66v.69h1.44v-.69h.66s.06-.03.06-.06v-2.48s-.03-.06-.06-.06h-2.75ZM26.88,41.08s-.06.03-.06.06v2.48s.03.06.06.06h.66v.69h1.44v-.69h.66s.06-.03.06-.06v-2.48s-.03-.06-.06-.06h-2.75ZM21.65,41.08s-.06.03-.06.06v2.48s.03.06.06.06h.66v.69h1.44v-.69h.66s.06-.03.06-.06v-2.48s-.03-.06-.06-.06h-2.75ZM16.42,41.08s-.06.03-.06.06v2.48s.03.06.06.06h.66v.69h1.44v-.69h.66s.06-.03.06-.06v-2.48s-.03-.06-.06-.06h-2.75ZM11.18,41.08s-.06.03-.06.06v2.48s.03.06.06.06h.66v.69h1.44v-.69h.66s.06-.03.06-.06v-2.48s-.03-.06-.06-.06h-2.75ZM5.95,41.08s-.06.03-.06.06v2.48s.03.06.06.06h.66v.69h1.44v-.69h.66s.06-.03.06-.06v-2.48s-.03-.06-.06-.06h-2.75Z"/></g></svg>