<?xml version="1.0" encoding="UTF-8"?><svg id="device" xmlns="http://www.w3.org/2000/svg" viewBox="0 0 80 80"><defs><style>.cls-1{fill:#07182d;}</style></defs><g id="Layer_4"><path class="cls-1" d="M80,25.26c0-.3-.28-.58-.58-.58h-2.73s-.03,0-.04,0c-.01,0-.02,0-.04,0H3.25s-.02,0-.04,0c-.01,0-.02,0-.04,0H.58C.28,24.69,0,24.96,0,25.26v13.09s0,.02,0,.04c0,.01,0,.02,0,.04v16.31c0,.3.28.58.58.58h2.59s.03,0,.04,0c.01,0,.03,0,.04,0h73.35s.03,0,.04,0c.01,0,.03,0,.04,0h2.73c.3,0,.58-.28.58-.58v-16.31s0-.02,0-.04c0-.01,0-.03,0-.04v-13.08ZM78.92,37.84h-1.73v-12.08h1.73v12.08ZM76.11,37.84H3.75v-12.08h72.36v12.08ZM2.67,25.77v12.08h-1.59v-12.08h1.59ZM1.08,38.92h1.59v15.31h-1.59v-15.31ZM3.75,38.92h72.36v15.31H3.75v-15.31ZM77.19,54.23v-15.31h1.73v15.31h-1.73ZM7.53,30.32v-1.42c0-.21.17-.38.39-.38h7.58c.21,0,.38.17.38.38v1.42c0,.21-.17.38-.38.38h-7.58c-.21,0-.39-.17-.39-.38ZM17.16,30.32v-1.42c0-.21.17-.38.38-.38h2.57c.21,0,.38.17.38.38v1.42c0,.21-.17.38-.38.38h-2.57c-.21,0-.38-.17-.38-.38ZM7.53,34.71v-1.42c0-.21.17-.38.39-.38h7.58c.21,0,.38.17.38.38v1.42c0,.21-.17.38-.38.38h-7.58c-.21,0-.39-.17-.39-.38ZM17.16,34.71v-1.42c0-.21.17-.38.38-.38h2.57c.21,0,.38.17.38.38v1.42c0,.21-.17.38-.38.38h-2.57c-.21,0-.38-.17-.38-.38ZM33.11,30.32v-1.42c0-.21.17-.38.38-.38h7.58c.21,0,.38.17.38.38v1.42c0,.21-.17.38-.38.38h-7.58c-.21,0-.38-.17-.38-.38ZM42.74,30.32v-1.42c0-.21.17-.38.38-.38h2.57c.21,0,.38.17.38.38v1.42c0,.21-.17.38-.38.38h-2.57c-.21,0-.38-.17-.38-.38ZM33.11,34.71v-1.42c0-.21.17-.38.38-.38h7.58c.21,0,.38.17.38.38v1.42c0,.21-.17.38-.38.38h-7.58c-.21,0-.38-.17-.38-.38ZM42.74,34.71v-1.42c0-.21.17-.38.38-.38h2.57c.21,0,.38.17.38.38v1.42c0,.21-.17.38-.38.38h-2.57c-.21,0-.38-.17-.38-.38ZM58.68,30.32v-1.42c0-.21.17-.38.38-.38h7.58c.21,0,.38.17.38.38v1.42c0,.21-.17.38-.38.38h-7.58c-.21,0-.38-.17-.38-.38ZM68.31,30.32v-1.42c0-.21.17-.38.39-.38h2.57c.21,0,.38.17.38.38v1.42c0,.21-.17.38-.38.38h-2.57c-.21,0-.39-.17-.39-.38ZM58.68,34.71v-1.42c0-.21.17-.38.38-.38h7.58c.21,0,.38.17.38.38v1.42c0,.21-.17.38-.38.38h-7.58c-.21,0-.38-.17-.38-.38ZM68.31,34.71v-1.42c0-.21.17-.38.39-.38h2.57c.21,0,.38.17.38.38v1.42c0,.21-.17.38-.38.38h-2.57c-.21,0-.39-.17-.39-.38ZM11.78,45.1v7.58c0,.21-.17.39-.38.39h-1.42c-.21,0-.38-.17-.38-.39v-7.58c0-.21.17-.38.38-.38h1.42c.21,0,.38.17.38.38ZM11.78,40.48v2.57c0,.21-.17.38-.38.38h-1.42c-.21,0-.38-.17-.38-.38v-2.57c0-.21.17-.39.38-.39h1.42c.21,0,.38.17.38.39ZM21.41,45.1v7.58c0,.21-.17.39-.38.39h-1.42c-.21,0-.38-.17-.38-.39v-7.58c0-.21.17-.38.38-.38h1.42c.21,0,.38.17.38.38ZM21.41,40.48v2.57c0,.21-.17.38-.38.38h-1.42c-.21,0-.38-.17-.38-.38v-2.57c0-.21.17-.39.38-.39h1.42c.21,0,.38.17.38.39ZM31.05,45.1v7.58c0,.21-.17.39-.39.39h-1.42c-.21,0-.39-.17-.39-.39v-7.58c0-.21.17-.38.39-.38h1.42c.21,0,.39.17.39.38ZM31.05,40.48v2.57c0,.21-.17.38-.39.38h-1.42c-.21,0-.39-.17-.39-.38v-2.57c0-.21.17-.39.39-.39h1.42c.21,0,.39.17.39.39ZM40.69,45.1v7.58c0,.21-.17.39-.38.39h-1.42c-.21,0-.38-.17-.38-.39v-7.58c0-.21.17-.38.38-.38h1.42c.21,0,.38.17.38.38ZM40.69,40.48v2.57c0,.21-.17.38-.38.38h-1.42c-.21,0-.38-.17-.38-.38v-2.57c0-.21.17-.39.38-.39h1.42c.21,0,.38.17.38.39ZM50.32,45.1v7.58c0,.21-.17.39-.39.39h-1.42c-.21,0-.38-.17-.38-.39v-7.58c0-.21.17-.38.38-.38h1.42c.21,0,.39.17.39.38ZM50.32,40.48v2.57c0,.21-.17.38-.39.38h-1.42c-.21,0-.38-.17-.38-.38v-2.57c0-.21.17-.39.38-.39h1.42c.21,0,.39.17.39.39ZM59.96,45.1v7.58c0,.21-.17.39-.38.39h-1.42c-.21,0-.39-.17-.39-.39v-7.58c0-.21.17-.38.39-.38h1.42c.21,0,.38.17.38.38ZM59.96,40.48v2.57c0,.21-.17.38-.38.38h-1.42c-.21,0-.39-.17-.39-.38v-2.57c0-.21.17-.39.39-.39h1.42c.21,0,.38.17.38.39ZM69.6,45.1v7.58c0,.21-.17.39-.38.39h-1.42c-.21,0-.38-.17-.38-.39v-7.58c0-.21.17-.38.38-.38h1.42c.21,0,.38.17.38.38ZM69.6,40.48v2.57c0,.21-.17.38-.38.38h-1.42c-.21,0-.38-.17-.38-.38v-2.57c0-.21.17-.39.38-.39h1.42c.21,0,.38.17.38.39Z"/></g></svg>