<?xml version="1.0" encoding="UTF-8"?><svg id="modifiers" xmlns="http://www.w3.org/2000/svg" viewBox="0 0 80 80"><defs><style>.cls-1{fill:#fff;}</style></defs><path class="cls-1" d="M40,0C17.94,0,0,17.94,0,40s17.94,40,40,40,40-17.94,40-40S62.06,0,40,0ZM40,78.95C18.52,78.95,1.05,61.48,1.05,40S18.52,1.05,40,1.05s38.95,17.47,38.95,38.95-17.47,38.95-38.95,38.95ZM13.67,53.52h52.67c.29,0,.53-.24.53-.53V19.27c0-.29-.24-.53-.53-.53H13.67c-.29,0-.53.24-.53.53v33.72c0,.29.24.53.53.53ZM14.2,19.8h51.61v32.67H14.2V19.8ZM67.59,58.15v1.05H12.46v-1.05h55.13ZM55.15,24.07h-30.29c-.29,0-.53.24-.53.53v24.23c0,.29.24.53.53.53h30.29c.29,0,.53-.24.53-.53v-24.23c0-.29-.24-.53-.53-.53ZM54.62,25.13v3.02h-29.24v-3.02h29.24ZM25.38,48.3v-19.1h29.24v19.1h-29.24ZM27.34,26.69c0-.36.29-.65.65-.65s.65.29.65.65-.29.65-.65.65-.65-.29-.65-.65ZM30.35,26.69c0-.36.29-.65.65-.65s.65.29.65.65-.29.65-.65.65-.65-.29-.65-.65ZM33.36,26.69c0-.36.29-.65.65-.65s.65.29.65.65-.29.65-.65.65-.65-.29-.65-.65ZM38.69,38.17l-6.38,3.21-.47-.94,6.22-3.13-6.21-3.03.46-.95,6.38,3.12c.33.16.54.49.54.86,0,.37-.2.7-.53.86ZM36.7,42.54h10.58v1.05h-10.58v-1.05Z"/></svg>