<?xml version="1.0" encoding="UTF-8"?><svg id="modifiers" xmlns="http://www.w3.org/2000/svg" viewBox="0 0 80 80"><defs><style>.cls-1{fill:#07182d;}</style></defs><path class="cls-1" d="M53.38,50.27h-8.66c-.37,0-.67.3-.67.67v4.4c0,.37.3.67.67.67h8.66c.37,0,.67-.3.67-.67v-4.4c0-.37-.3-.67-.67-.67ZM52.99,54.96h-7.89v-3.64h7.89v3.64ZM33.56,50.27c-.37,0-.67.3-.67.67v4.4c0,.37.3.67.67.67h8.66c.37,0,.67-.3.67-.67v-4.4c0-.37-.3-.67-.67-.67h-8.66ZM41.83,54.96h-7.9v-3.64h7.9v3.64ZM26.33,55.34c0,.37.3.67.67.67h4.4c.37,0,.67-.3.67-.67v-4.4c0-.37-.3-.67-.67-.67h-4.4c-.37,0-.67.3-.67.67v4.4ZM27.38,51.33h3.64v3.64h-3.64v-3.64ZM26.33,44.06v4.4c0,.37.3.67.67.67h8.66c.37,0,.67-.3.67-.67v-4.4c0-.37-.3-.67-.67-.67h-8.66c-.37,0-.67.3-.67.67ZM27.38,44.44h7.89v3.64h-7.89v-3.64ZM47.49,48.46v-4.4c0-.37-.3-.67-.67-.67h-8.66c-.37,0-.67.3-.67.67v4.4c0,.37.3.67.67.67h8.66c.37,0,.67-.3.67-.67ZM46.44,48.08h-7.9v-3.64h7.9v3.64ZM53.38,43.39h-4.4c-.37,0-.67.3-.67.67v4.4c0,.37.3.67.67.67h4.4c.37,0,.67-.3.67-.67v-4.4c0-.37-.3-.67-.67-.67ZM52.99,48.08h-3.64v-3.64h3.64v3.64ZM35.66,57.15h-8.66c-.37,0-.67.3-.67.67v4.4c0,.37.3.67.67.67h8.66c.37,0,.67-.3.67-.67v-4.4c0-.37-.3-.67-.67-.67ZM35.28,61.84h-7.89v-3.64h7.89v3.64ZM46.82,57.15h-8.66c-.37,0-.67.3-.67.67v4.4c0,.37.3.67.67.67h8.66c.37,0,.67-.3.67-.67v-4.4c0-.37-.3-.67-.67-.67ZM46.44,61.84h-7.9v-3.64h7.9v3.64ZM53.38,57.15h-4.4c-.37,0-.67.3-.67.67v4.4c0,.37.3.67.67.67h4.4c.37,0,.67-.3.67-.67v-4.4c0-.37-.3-.67-.67-.67ZM52.99,61.84h-3.64v-3.64h3.64v3.64ZM47.55,25.97h-19.51c-.46,0-.83.37-.83.83v13.01c0,.46.37.83.83.83h19.51c.46,0,.83-.37.83-.83v-2.5l3.65,1.99c.26.14.57.13.82-.02.25-.15.41-.42.41-.71v-10.53c0-.29-.16-.57-.4-.71-.25-.15-.56-.16-.82-.02h0s-3.65,1.97-3.65,1.97v-2.48c0-.46-.37-.83-.83-.83ZM48.4,30.46l3.8-2.05v9.78l-3.8-2.07c-.23-.12-.5-.12-.72.01-.22.13-.36.37-.36.63v2.82h-19.07v-12.56h19.07v2.8c0,.26.13.49.36.63.22.13.49.14.72.02ZM65,38.08c0-6.68-2.6-12.95-7.32-17.67-4.72-4.72-11-7.32-17.67-7.32s-12.95,2.6-17.67,7.32c-4.72,4.72-7.32,11-7.32,17.67h-1.05c0-6.96,2.71-13.5,7.63-18.41,4.92-4.92,11.46-7.63,18.41-7.63s13.5,2.71,18.41,7.63c4.92,4.92,7.63,11.46,7.63,18.41h-1.05ZM14.68,46.73c1.75,0,3.17-1.42,3.17-3.17s-1.42-3.17-3.17-3.17-3.17,1.42-3.17,3.17,1.42,3.17,3.17,3.17ZM14.68,41.45c1.17,0,2.12.95,2.12,2.12s-.95,2.12-2.12,2.12-2.12-.95-2.12-2.12.95-2.12,2.12-2.12ZM20.67,50.35v5.73h-1.05v-5.73c0-1.24-1.01-2.25-2.26-2.25h-5.25c-1.24,0-2.26,1.01-2.26,2.25v5.73h-1.05v-5.73c0-1.82,1.48-3.31,3.31-3.31h5.25c1.82,0,3.31,1.48,3.31,3.31ZM62.3,43.57c0,1.75,1.42,3.17,3.17,3.17s3.17-1.42,3.17-3.17-1.42-3.17-3.17-3.17-3.17,1.42-3.17,3.17ZM67.59,43.57c0,1.17-.95,2.12-2.12,2.12s-2.12-.95-2.12-2.12.95-2.12,2.12-2.12,2.12.95,2.12,2.12ZM71.46,50.35v5.73h-1.05v-5.73c0-1.24-1.01-2.25-2.25-2.25h-5.25c-1.24,0-2.25,1.01-2.25,2.25v5.73h-1.05v-5.73c0-1.82,1.48-3.31,3.31-3.31h5.25c1.82,0,3.31,1.48,3.31,3.31ZM40,0C17.94,0,0,17.94,0,40s17.94,40,40,40,40-17.94,40-40S62.06,0,40,0ZM40,78.95C18.52,78.95,1.05,61.48,1.05,40S18.52,1.05,40,1.05s38.95,17.47,38.95,38.95-17.47,38.95-38.95,38.95Z"/></svg>