<?xml version="1.0" encoding="UTF-8"?><svg id="device" xmlns="http://www.w3.org/2000/svg" viewBox="0 0 80 80"><defs><style>.cls-1{fill:#fff;}</style></defs><g id="Layer_4"><path class="cls-1" d="M80,26.92c0-.3-.28-.58-.58-.58h-2.24c-1.9-2.03-4.59-3.3-7.58-3.3s-5.68,1.28-7.58,3.3H3.25s-.02,0-.04,0c-.01,0-.02,0-.04,0H.58C.28,26.34,0,26.62,0,26.91v13.09s0,.02,0,.04c0,.01,0,.02,0,.04v16.31c0,.3.28.58.58.58h2.59s.03,0,.04,0c.01,0,.03,0,.04,0h73.36s.03,0,.04,0c.01,0,.03,0,.04,0h2.73c.3,0,.58-.28.58-.58v-16.31s0-.02,0-.04c0-.01,0-.03,0-.04v-13.08ZM78.92,27.42v1.44c-.25-.5-.53-.99-.86-1.44h.86ZM69.6,24.11c5.14,0,9.32,4.18,9.32,9.32s-4.18,9.32-9.32,9.32-9.32-4.18-9.32-9.32,4.18-9.32,9.32-9.32ZM59.73,30.17h-.66c-.21,0-.39.17-.39.38v1.42c0,.21.17.38.39.38h.18c-.04.35-.06.71-.06,1.08s.02.75.06,1.12h-.19c-.21,0-.39.17-.39.38v1.42c0,.21.17.38.39.38h.68c.33.99.81,1.91,1.41,2.75H3.75v-12.08h57.38c-.6.83-1.07,1.76-1.4,2.75ZM2.67,55.89h-1.59v-15.31h1.59v15.31ZM1.08,39.49v-12.08h1.59v12.08h-1.59ZM3.75,40.58h58.3c1.42,1.5,3.27,2.57,5.35,3.02v1.1c0,.21.17.38.39.38h1.42c.21,0,.39-.17.39-.38v-.86h0c2.47,0,4.73-.87,6.52-2.31v14.35H3.75v-15.31ZM78.92,55.89h-1.73v-15.31h1.73v15.31ZM78.04,39.49c.33-.47.63-.96.89-1.48v1.48h-.89ZM7.53,31.98v-1.42c0-.21.17-.38.39-.38h7.58c.21,0,.39.17.39.38v1.42c0,.21-.17.38-.39.38h-7.58c-.21,0-.39-.17-.39-.38ZM17.16,31.98v-1.42c0-.21.17-.38.39-.38h2.57c.21,0,.39.17.39.38v1.42c0,.21-.17.38-.39.38h-2.57c-.21,0-.39-.17-.39-.38ZM7.53,36.36v-1.42c0-.21.17-.38.39-.38h7.58c.21,0,.39.17.39.38v1.42c0,.21-.17.38-.39.38h-7.58c-.21,0-.39-.17-.39-.38ZM17.16,36.36v-1.42c0-.21.17-.38.39-.38h2.57c.21,0,.39.17.39.38v1.42c0,.21-.17.38-.39.38h-2.57c-.21,0-.39-.17-.39-.38ZM33.11,31.98v-1.42c0-.21.17-.38.39-.38h7.58c.21,0,.39.17.39.38v1.42c0,.21-.17.38-.39.38h-7.58c-.21,0-.39-.17-.39-.38ZM42.74,31.98v-1.42c0-.21.17-.38.38-.38h2.57c.21,0,.39.17.39.38v1.42c0,.21-.17.38-.39.38h-2.57c-.21,0-.38-.17-.38-.38ZM33.11,36.36v-1.42c0-.21.17-.38.39-.38h7.58c.21,0,.39.17.39.38v1.42c0,.21-.17.38-.39.38h-7.58c-.21,0-.39-.17-.39-.38ZM42.74,36.36v-1.42c0-.21.17-.38.38-.38h2.57c.21,0,.39.17.39.38v1.42c0,.21-.17.38-.39.38h-2.57c-.21,0-.38-.17-.38-.38ZM11.78,46.75v7.58c0,.21-.17.39-.39.39h-1.42c-.21,0-.39-.17-.39-.39v-7.58c0-.21.17-.38.39-.38h1.42c.21,0,.39.17.39.38ZM11.78,42.13v2.57c0,.21-.17.38-.39.38h-1.42c-.21,0-.39-.17-.39-.38v-2.57c0-.21.17-.39.39-.39h1.42c.21,0,.39.17.39.39ZM21.41,46.75v7.58c0,.21-.17.39-.38.39h-1.42c-.21,0-.39-.17-.39-.39v-7.58c0-.21.17-.38.39-.38h1.42c.21,0,.38.17.38.38ZM21.41,42.13v2.57c0,.21-.17.38-.38.38h-1.42c-.21,0-.39-.17-.39-.38v-2.57c0-.21.17-.39.39-.39h1.42c.21,0,.38.17.38.39ZM31.05,46.75v7.58c0,.21-.17.39-.39.39h-1.42c-.21,0-.38-.17-.38-.39v-7.58c0-.21.17-.38.38-.38h1.42c.21,0,.39.17.39.38ZM31.05,42.13v2.57c0,.21-.17.38-.39.38h-1.42c-.21,0-.38-.17-.38-.38v-2.57c0-.21.17-.39.38-.39h1.42c.21,0,.39.17.39.39ZM40.69,46.75v7.58c0,.21-.17.39-.39.39h-1.42c-.21,0-.39-.17-.39-.39v-7.58c0-.21.17-.38.39-.38h1.42c.21,0,.39.17.39.38ZM40.69,42.13v2.57c0,.21-.17.38-.39.38h-1.42c-.21,0-.39-.17-.39-.38v-2.57c0-.21.17-.39.39-.39h1.42c.21,0,.39.17.39.39ZM50.32,46.75v7.58c0,.21-.17.39-.38.39h-1.42c-.21,0-.39-.17-.39-.39v-7.58c0-.21.17-.38.39-.38h1.42c.21,0,.38.17.38.38ZM50.32,42.13v2.57c0,.21-.17.38-.38.38h-1.42c-.21,0-.39-.17-.39-.38v-2.57c0-.21.17-.39.39-.39h1.42c.21,0,.38.17.38.39ZM59.96,46.75v7.58c0,.21-.17.39-.39.39h-1.42c-.21,0-.38-.17-.38-.39v-7.58c0-.21.17-.38.38-.38h1.42c.21,0,.39.17.39.38ZM59.96,42.13v2.57c0,.21-.17.38-.39.38h-1.42c-.21,0-.38-.17-.38-.38v-2.57c0-.21.17-.39.38-.39h1.42c.21,0,.39.17.39.39ZM69.6,46.75v7.58c0,.21-.17.39-.39.39h-1.42c-.21,0-.39-.17-.39-.39v-7.58c0-.21.17-.38.39-.38h1.42c.21,0,.39.17.39.38Z"/></g></svg>