<?xml version="1.0" encoding="UTF-8"?><svg id="modifiers" xmlns="http://www.w3.org/2000/svg" viewBox="0 0 80 80"><defs><style>.cls-1{fill:#07182d;}</style></defs><path class="cls-1" d="M40,0C17.94,0,0,17.94,0,40s17.94,40,40,40,40-17.94,40-40S62.06,0,40,0ZM40,78.95C18.52,78.95,1.05,61.48,1.05,40S18.52,1.05,40,1.05s38.95,17.47,38.95,38.95-17.47,38.95-38.95,38.95ZM67.75,47.39l-1.02-.25c1.78-7.09.69-14.46-3.07-20.73-3.76-6.27-9.73-10.71-16.82-12.48-2.18-.55-4.42-.83-6.67-.83-12.58,0-23.5,8.52-26.55,20.73l-1.02-.25c3.18-12.67,14.52-21.53,27.58-21.53,2.33,0,4.66.29,6.93.86,7.36,1.85,13.56,6.45,17.47,12.96,3.9,6.51,5.04,14.16,3.19,21.53ZM58.58,29.45c2.95,4.91,3.8,10.68,2.41,16.24-2,7.97-5.42,15.02-10.17,20.97l-.82-.66c4.65-5.83,8.01-12.75,9.97-20.57,1.33-5.29.51-10.78-2.29-15.45-2.8-4.68-7.25-7.98-12.54-9.3-1.63-.41-3.3-.62-4.97-.62-9.37,0-17.51,6.35-19.79,15.45-1,4-2.95,6.45-6.72,8.44l-.49-.93c3.47-1.84,5.27-4.09,6.19-7.77,2.4-9.57,10.95-16.24,20.81-16.24,1.76,0,3.52.22,5.23.65,5.56,1.39,10.24,4.87,13.18,9.78ZM54.22,44c-2.49,9.92-7.47,18.14-14.81,24.43l-.68-.8c7.17-6.15,12.04-14.18,14.47-23.89.87-3.48.34-7.09-1.51-10.17-1.84-3.08-4.77-5.25-8.25-6.12-1.07-.27-2.17-.41-3.27-.41-6.16,0-11.52,4.18-13.02,10.17-1.48,5.9-4.73,10.01-10.22,12.91-.63.33-1.23.72-1.79,1.14l-.63-.84c.61-.46,1.26-.87,1.93-1.23,5.21-2.76,8.29-6.64,9.69-12.24,1.62-6.46,7.39-10.96,14.04-10.96,1.19,0,2.37.15,3.53.44,3.75.94,6.91,3.29,8.9,6.6s2.57,7.21,1.63,10.96ZM47.45,42.3c-2.59,10.35-8.34,18.49-17.09,24.19l-.57-.88c8.52-5.55,14.12-13.47,16.64-23.56.42-1.67.16-3.41-.72-4.88s-2.29-2.52-3.96-2.94c-1.67-.42-3.41-.16-4.88.72-1.48.89-2.52,2.29-2.94,3.97-1.97,7.85-6.46,13.54-13.73,17.39-.59.31-1.12.7-1.58,1.17l-.75-.74c.54-.55,1.16-1.01,1.84-1.37,6.99-3.7,11.31-9.16,13.2-16.71.49-1.94,1.7-3.58,3.42-4.61,1.72-1.03,3.74-1.33,5.68-.84,1.94.49,3.58,1.7,4.61,3.42,1.03,1.72,1.33,3.74.84,5.68ZM23.44,62.47l-.49-.93c8.72-4.61,14.34-11.74,16.71-21.18l1.02.25c-2.44,9.75-8.24,17.1-17.24,21.86Z"/></svg>