<?xml version="1.0" encoding="UTF-8"?><svg id="modifiers" xmlns="http://www.w3.org/2000/svg" viewBox="0 0 80 80"><defs><style>.cls-1{fill:#fff;}</style></defs><path class="cls-1" d="M39.41,36.33l-8.59-8.8.75-.73,7.68,7.87V10.46h1.05v24.26l8.12-7.93.73.75-9.01,8.8c-.1.1-.23.15-.37.15h0c-.14,0-.27-.06-.37-.16ZM62.16,50.62H17.86s0-10.89,0-10.89h-1.05v10.9c0,.57.47,1.04,1.04,1.04h44.31c.57,0,1.04-.47,1.04-1.04v-10.9h-1.05v10.89ZM62.16,66.91H17.86s0-10.89,0-10.89h-1.05v10.9c0,.57.47,1.04,1.04,1.04h44.31c.57,0,1.04-.47,1.04-1.04v-10.9h-1.05v10.89ZM80,2.09v75.83c0,1.15-.94,2.09-2.09,2.09H2.09c-1.15,0-2.09-.94-2.09-2.09V2.09C0,.94.94,0,2.09,0h75.83c1.15,0,2.09.94,2.09,2.09ZM78.95,2.09c0-.57-.46-1.03-1.03-1.03H2.09c-.57,0-1.03.46-1.03,1.03v75.83c0,.57.46,1.03,1.03,1.03h75.83c.57,0,1.03-.46,1.03-1.03V2.09Z"/></svg>