<?xml version="1.0" encoding="UTF-8"?><svg id="modifiers" xmlns="http://www.w3.org/2000/svg" viewBox="0 0 80 80"><defs><style>.cls-1{fill:#fff;}</style></defs><path class="cls-1" d="M77.91,0H2.09C.94,0,0,.94,0,2.09v75.82c0,1.15.94,2.09,2.09,2.09h75.83c1.15,0,2.09-.94,2.09-2.09V2.09c0-1.15-.94-2.09-2.09-2.09ZM78.95,77.91c0,.57-.46,1.04-1.03,1.04H2.09c-.57,0-1.03-.46-1.03-1.04V2.09c0-.57.46-1.04,1.03-1.04h75.83c.57,0,1.03.46,1.03,1.04v75.82ZM56.36,23.7c-2.12-2.12-4.6-3.79-7.35-4.96l.41-.97c2.88,1.22,5.47,2.96,7.69,5.18,2.22,2.22,3.96,4.81,5.18,7.69l-.97.41c-1.17-2.75-2.83-5.23-4.96-7.35ZM18.68,31.05l-.97-.41c1.22-2.88,2.96-5.47,5.18-7.69,2.22-2.22,4.81-3.96,7.69-5.18l.41.97c-2.75,1.16-5.23,2.83-7.35,4.96-2.12,2.13-3.79,4.6-4.96,7.35ZM23.64,56.42c2.13,2.13,4.6,3.79,7.35,4.96l-.41.97c-2.88-1.22-5.46-2.96-7.69-5.18-2.22-2.22-3.96-4.81-5.18-7.69l.97-.41c1.17,2.75,2.83,5.23,4.96,7.35ZM61.32,49.06l.97.41c-1.22,2.88-2.96,5.47-5.18,7.69-2.22,2.22-4.81,3.97-7.69,5.18l-.41-.97c2.75-1.16,5.23-2.83,7.35-4.96,2.12-2.13,3.79-4.6,4.96-7.35ZM25.42,40.06c0,8.04,6.54,14.58,14.58,14.58s14.58-6.54,14.58-14.58-6.54-14.57-14.58-14.57-14.58,6.54-14.58,14.57ZM53.52,40.06c0,7.46-6.07,13.52-13.52,13.52s-13.52-6.07-13.52-13.52,6.07-13.52,13.52-13.52,13.52,6.07,13.52,13.52ZM28.99,36.49c2.98-2.87,6.89-4.44,11.02-4.44s8.02,1.57,10.99,4.41l-.73.76c-2.78-2.66-6.42-4.12-10.26-4.12s-7.51,1.47-10.29,4.15l-.73-.76ZM40.02,37.53c2.41,0,4.76.84,6.62,2.38l-.67.81c-1.67-1.38-3.78-2.14-5.95-2.14s-4.29.76-5.96,2.15l-.67-.81c1.86-1.54,4.22-2.39,6.63-2.39ZM43.15,43.72l-.63.84c-1.46-1.08-3.55-1.08-5.01,0l-.63-.84c1.82-1.35,4.44-1.35,6.26,0ZM41.32,47.94c0,.72-.58,1.3-1.3,1.3s-1.3-.58-1.3-1.3.58-1.3,1.3-1.3,1.3.58,1.3,1.3ZM40.53,23.39h-1.05V6.1h1.05v17.29ZM39.47,56.73h1.05v17.29h-1.05v-17.29ZM56.68,39.68h17.29v1.05h-17.29v-1.05ZM23.39,40.73H6.1v-1.05h17.29v1.05Z"/></svg>