<?xml version="1.0" encoding="UTF-8"?><svg id="device" xmlns="http://www.w3.org/2000/svg" viewBox="0 0 80 80"><defs><style>.cls-1{fill:#07182d;}</style></defs><g id="Layer_4"><path class="cls-1" d="M8.71,43.9s.06.03.06.06v2.48s-.03.06-.06.06h-2.75s-.06-.03-.06-.06v-2.48s.03-.06.06-.06h.66v-.69h1.44v.69h.66ZM5.94,35.41s-.06.03-.06.06v2.5s.03.06.06.06h.66v.69h1.45v-.69h.66s.06-.03.06-.06v-2.5s-.03-.06-.06-.06h-2.77ZM80,27.98v25.88c0,.41-.33.75-.75.75h-2.4s-.09-.02-.13-.03c-.04,0-.08.03-.12.03H3.26s-.03,0-.04,0c-.01,0-.03,0-.04,0H.58C.28,54.61,0,54.33,0,54.03v-13.07s0-.02,0-.03c0-.01,0-.02,0-.03v-13.07c0-.3.28-.58.58-.58h2.59s.03,0,.04,0c.01,0,.03,0,.04,0h50.7v-.83c0-.56.45-1.01,1.01-1.01h22.75c.56,0,1.01.45,1.01,1.01v.83h.53c.41,0,.75.33.75.75ZM2.67,49.47c-1.01-1.66-1.52-4.22-1.59-7.79v11.84h1.59v-4.05ZM2.67,28.32h-1.59v12.05h0c.06-3.58.68-5.95,1.58-7.47v-4.58ZM54.97,41.94h22.67v-15.46h-22.67v15.46ZM3.76,31.56c.88-.8,1.89-1.13,2.85-1.2v-.28h1.44v.69h.66s.06.03.06.06v2.48s-.03.06-.06.06h-1.67v.23c-2.2,0-2.65,4.02-2.7,6.78h49.62v-1.64h-.26v-.69h-.66s-.06-.03-.06-.06v-2.5s.03-.06.06-.06h.92v-2.05h-.91s-.06-.03-.06-.06v-2.48s.03-.06.06-.06h.66v-.69h.25v-1.76H3.76v3.24ZM76.11,43.02h-21.14c-.56,0-1.01-.45-1.01-1.01v-.54H4.34c.08,6.17,1.42,6.99,2.33,7.09h2.04s.06.03.06.06v2.48s-.03.06-.06.06h-.66v.69h-1.44v-.04c-1.13-.07-2.08-.41-2.85-1.05v2.76h72.35v-10.5ZM78.91,41.47h-.19v.54c0,.56-.45,1.01-1.01,1.01h-.52v10.5h1.72v-12.05ZM78.91,28.32h-.19v12.05h.19v-12.05ZM13.94,33.37s.06-.03.06-.06v-2.48s-.03-.06-.06-.06h-.66v-.69h-1.44v.69h-.66s-.06.03-.06.06v2.48s.03.06.06.06h2.75ZM19.17,33.37s.06-.03.06-.06v-2.48s-.03-.06-.06-.06h-.66v-.69h-1.44v.69h-.66s-.06.03-.06.06v2.48s.03.06.06.06h2.75ZM24.4,33.37s.06-.03.06-.06v-2.48s-.03-.06-.06-.06h-.66v-.69h-1.44v.69h-.66s-.06.03-.06.06v2.48s.03.06.06.06h2.75ZM29.64,33.37s.06-.03.06-.06v-2.48s-.03-.06-.06-.06h-.66v-.69h-1.44v.69h-.66s-.06.03-.06.06v2.48s.03.06.06.06h2.75ZM34.87,33.37s.06-.03.06-.06v-2.48s-.03-.06-.06-.06h-.66v-.69h-1.44v.69h-.66s-.06.03-.06.06v2.48s.03.06.06.06h2.75ZM40.1,33.37s.06-.03.06-.06v-2.48s-.03-.06-.06-.06h-.66v-.69h-1.44v.69h-.66s-.06.03-.06.06v2.48s.03.06.06.06h2.75ZM45.34,33.37s.06-.03.06-.06v-2.48s-.03-.06-.06-.06h-.66v-.69h-1.44v.69h-.66s-.06.03-.06.06v2.48s.03.06.06.06h2.75ZM50.57,33.37s.06-.03.06-.06v-2.48s-.03-.06-.06-.06h-.66v-.69h-1.44v.69h-.66s-.06.03-.06.06v2.48s.03.06.06.06h2.75ZM13.28,43.9v-.69h-1.44v.69h-.66s-.06.03-.06.06v2.48s.03.06.06.06h2.75s.06-.03.06-.06v-2.48s-.03-.06-.06-.06h-.66ZM18.51,43.9v-.69h-1.44v.69h-.66s-.06.03-.06.06v2.48s.03.06.06.06h2.75s.06-.03.06-.06v-2.48s-.03-.06-.06-.06h-.66ZM23.75,43.9v-.69h-1.44v.69h-.66s-.06.03-.06.06v2.48s.03.06.06.06h2.75s.06-.03.06-.06v-2.48s-.03-.06-.06-.06h-.66ZM28.98,43.9v-.69h-1.44v.69h-.66s-.06.03-.06.06v2.48s.03.06.06.06h2.75s.06-.03.06-.06v-2.48s-.03-.06-.06-.06h-.66ZM34.21,43.9v-.69h-1.44v.69h-.66s-.06.03-.06.06v2.48s.03.06.06.06h2.75s.06-.03.06-.06v-2.48s-.03-.06-.06-.06h-.66ZM39.45,43.9v-.69h-1.44v.69h-.66s-.06.03-.06.06v2.48s.03.06.06.06h2.75s.06-.03.06-.06v-2.48s-.03-.06-.06-.06h-.66ZM44.68,43.9v-.69h-1.44v.69h-.66s-.06.03-.06.06v2.48s.03.06.06.06h2.75s.06-.03.06-.06v-2.48s-.03-.06-.06-.06h-.66ZM49.91,43.9v-.69h-1.44v.69h-.66s-.06.03-.06.06v2.48s.03.06.06.06h2.75s.06-.03.06-.06v-2.48s-.03-.06-.06-.06h-.66ZM53.71,43.22v.69h-.66s-.06.03-.06.06v2.48s.03.06.06.06h2.75s.06-.03.06-.06v-2.48s-.03-.06-.06-.06h-.66v-.69h-1.44ZM61.04,46.5s.06-.03.06-.06v-2.48s-.03-.06-.06-.06h-.66v-.69h-1.44v.69h-.66s-.06.03-.06.06v2.48s.03.06.06.06h2.75ZM66.27,46.5s.06-.03.06-.06v-2.48s-.03-.06-.06-.06h-.66v-.69h-1.44v.69h-.66s-.06.03-.06.06v2.48s.03.06.06.06h2.75ZM11.18,48.57s-.06.03-.06.06v2.48s.03.06.06.06h.66v.69h1.44v-.69h.66s.06-.03.06-.06v-2.48s-.03-.06-.06-.06h-2.75ZM16.42,48.57s-.06.03-.06.06v2.48s.03.06.06.06h.66v.69h1.44v-.69h.66s.06-.03.06-.06v-2.48s-.03-.06-.06-.06h-2.75ZM21.65,48.57s-.06.03-.06.06v2.48s.03.06.06.06h.66v.69h1.44v-.69h.66s.06-.03.06-.06v-2.48s-.03-.06-.06-.06h-2.75ZM26.88,48.57s-.06.03-.06.06v2.48s.03.06.06.06h.66v.69h1.44v-.69h.66s.06-.03.06-.06v-2.48s-.03-.06-.06-.06h-2.75ZM32.12,48.57s-.06.03-.06.06v2.48s.03.06.06.06h.66v.69h1.44v-.69h.66s.06-.03.06-.06v-2.48s-.03-.06-.06-.06h-2.75ZM37.35,48.57s-.06.03-.06.06v2.48s.03.06.06.06h.66v.69h1.44v-.69h.66s.06-.03.06-.06v-2.48s-.03-.06-.06-.06h-2.75ZM42.58,48.57s-.06.03-.06.06v2.48s.03.06.06.06h.66v.69h1.44v-.69h.66s.06-.03.06-.06v-2.48s-.03-.06-.06-.06h-2.75ZM47.82,48.57s-.06.03-.06.06v2.48s.03.06.06.06h.66v.69h1.44v-.69h.66s.06-.03.06-.06v-2.48s-.03-.06-.06-.06h-2.75ZM53.05,48.57s-.06.03-.06.06v2.48s.03.06.06.06h.66v.69h1.44v-.69h.66s.06-.03.06-.06v-2.48s-.03-.06-.06-.06h-2.75ZM58.94,51.17v.69h1.44v-.69h.66s.06-.03.06-.06v-2.48s-.03-.06-.06-.06h-2.75s-.06.03-.06.06v2.48s.03.06.06.06h.66ZM64.17,51.17v.69h1.44v-.69h.66s.06-.03.06-.06v-2.48s-.03-.06-.06-.06h-2.75s-.06.03-.06.06v2.48s.03.06.06.06h.66ZM11.84,38.04v.69h1.45v-.69h.66s.06-.03.06-.06v-2.5s-.03-.06-.06-.06h-2.77s-.06.03-.06.06v2.5s.03.06.06.06h.66ZM17.07,38.04v.69h1.45v-.69h.66s.06-.03.06-.06v-2.5s-.03-.06-.06-.06h-2.77s-.06.03-.06.06v2.5s.03.06.06.06h.66ZM22.3,38.04v.69h1.45v-.69h.66s.06-.03.06-.06v-2.5s-.03-.06-.06-.06h-2.77s-.06.03-.06.06v2.5s.03.06.06.06h.66ZM27.54,38.04v.69h1.45v-.69h.66s.06-.03.06-.06v-2.5s-.03-.06-.06-.06h-2.77s-.06.03-.06.06v2.5s.03.06.06.06h.66ZM32.77,38.04v.69h1.45v-.69h.66s.06-.03.06-.06v-2.5s-.03-.06-.06-.06h-2.77s-.06.03-.06.06v2.5s.03.06.06.06h.66ZM38,38.04v.69h1.45v-.69h.66s.06-.03.06-.06v-2.5s-.03-.06-.06-.06h-2.77s-.06.03-.06.06v2.5s.03.06.06.06h.66ZM43.23,38.04v.69h1.45v-.69h.66s.06-.03.06-.06v-2.5s-.03-.06-.06-.06h-2.77s-.06.03-.06.06v2.5s.03.06.06.06h.66ZM48.47,38.04v.69h1.45v-.69h.66s.06-.03.06-.06v-2.5s-.03-.06-.06-.06h-2.77s-.06.03-.06.06v2.5s.03.06.06.06h.66Z"/></g></svg>