<?xml version="1.0" encoding="UTF-8"?><svg id="device" xmlns="http://www.w3.org/2000/svg" viewBox="0 0 80 80"><defs><style>.cls-1{fill:#fff;}</style></defs><g id="Layer_4"><path class="cls-1" d="M79.42,32.78h-2.73s-.02,0-.04,0c-.01,0-.02,0-.04,0h-.79c-1.89-1.96-4.54-3.19-7.48-3.19s-5.58,1.23-7.48,3.19H3.25s-.02,0-.04,0c-.01,0-.02,0-.04,0H.58C.28,32.78,0,33.06,0,33.36v13.08c0,.3.28.58.58.58h2.6s.02,0,.04,0c.01,0,.02,0,.04,0h57.44c1.9,2.08,4.63,3.39,7.66,3.39s5.76-1.31,7.66-3.39h.61s.02,0,.04,0c.01,0,.02,0,.04,0h2.73c.3,0,.58-.28.58-.58v-13.08c0-.3-.28-.58-.58-.58ZM2.67,45.94h-1.59v-12.07h1.59v12.07ZM3.75,45.94v-12.07h56.22c-1.27,1.72-2.02,3.84-2.02,6.14s.7,4.25,1.87,5.94H3.75ZM68.35,49.32c-5.14,0-9.33-4.18-9.33-9.32s4.18-9.32,9.33-9.32,9.32,4.18,9.32,9.32-4.18,9.32-9.32,9.32ZM78.92,45.94h-1.73v-.49c.98-1.59,1.56-3.45,1.56-5.45s-.58-3.86-1.56-5.45v-.69h1.73v12.07ZM16.08,37v1.42c0,.21-.17.38-.39.38h-7.58c-.21,0-.39-.17-.39-.38v-1.42c0-.21.17-.38.39-.38h7.58c.21,0,.39.17.39.38ZM20.7,37v1.42c0,.21-.17.38-.39.38h-2.57c-.21,0-.39-.17-.39-.38v-1.42c0-.21.17-.38.39-.38h2.57c.21,0,.39.17.39.38ZM16.08,41.38v1.42c0,.21-.17.39-.39.39h-7.58c-.21,0-.39-.17-.39-.39v-1.42c0-.21.17-.39.39-.39h7.58c.21,0,.39.17.39.39ZM20.7,41.38v1.42c0,.21-.17.39-.39.39h-2.57c-.21,0-.39-.17-.39-.39v-1.42c0-.21.17-.39.39-.39h2.57c.21,0,.39.17.39.39ZM41.66,37v1.42c0,.21-.17.38-.39.38h-7.58c-.21,0-.38-.17-.38-.38v-1.42c0-.21.17-.38.38-.38h7.58c.21,0,.39.17.39.38ZM46.28,37v1.42c0,.21-.17.38-.39.38h-2.57c-.21,0-.39-.17-.39-.38v-1.42c0-.21.17-.38.39-.38h2.57c.21,0,.39.17.39.38ZM41.66,41.38v1.42c0,.21-.17.39-.39.39h-7.58c-.21,0-.38-.17-.38-.39v-1.42c0-.21.17-.39.38-.39h7.58c.21,0,.39.17.39.39ZM46.28,41.38v1.42c0,.21-.17.39-.39.39h-2.57c-.21,0-.39-.17-.39-.39v-1.42c0-.21.17-.39.39-.39h2.57c.21,0,.39.17.39.39Z"/></g></svg>