<?xml version="1.0" encoding="UTF-8"?><svg id="modifiers" xmlns="http://www.w3.org/2000/svg" viewBox="0 0 80 80"><defs><style>.cls-1{fill:#fff;}</style></defs><path class="cls-1" d="M40,0C17.94,0,0,17.94,0,40s17.94,40,40,40,40-17.94,40-40S62.06,0,40,0ZM40,78.95C18.52,78.95,1.05,61.48,1.05,40S18.52,1.05,40,1.05s38.95,17.47,38.95,38.95-17.47,38.95-38.95,38.95ZM67.87,29.89l-.73.76c-7.33-7.02-16.95-10.88-27.1-10.88s-19.85,3.89-27.18,10.96l-.73-.76c7.53-7.26,17.45-11.26,27.91-11.26s20.3,3.97,27.83,11.17ZM40.04,32.9c6.04,0,11.93,2.11,16.58,5.95l-.67.81c-4.46-3.68-10.11-5.71-15.91-5.71s-11.48,2.04-15.95,5.74l-.67-.81c4.66-3.86,10.56-5.99,16.62-5.99ZM40.04,46.22c2.76,0,5.39.87,7.59,2.51l-.63.84c-2.03-1.51-4.44-2.3-6.97-2.3s-4.94.8-6.97,2.3l-.63-.84c2.21-1.64,4.84-2.51,7.6-2.51Z"/></svg>