<?xml version="1.0" encoding="UTF-8"?><svg id="device" xmlns="http://www.w3.org/2000/svg" viewBox="0 0 80 80"><defs><style>.cls-1{fill:#fff;}</style></defs><g id="Layer_4"><path class="cls-1" d="M28.2,43.63h-.62v-2.69h2.87v2.69h-.58v.69h-1.68v-.69ZM25.22,36.37h-.62v-.69h-1.68v.69h-.58v2.69h2.87v-2.69ZM46.67,39h-.62v-.69h-1.68v.69h-.58v2.69h2.87v-2.69ZM41.43,39h-.62v-.69h-1.68v.69h-.58v2.69h2.87v-2.69ZM22.97,44.32h1.68v-.69h.58v-2.69h-2.87v2.69h.62v.69ZM80,33.63v12.75c0,.41-.33.74-.74.74h-.49v.64c0,.55-.45,1-1,1h-22.61c-.55,0-1-.45-1-1v-.64H3.25s-.03,0-.04,0c-.01,0-.03,0-.04,0H.58C.28,47.12,0,46.83,0,46.54v-13.07c0-.3.28-.58.58-.58h2.59s.03,0,.04,0c.01,0,.03,0,.04,0h50.9v-.64c0-.55.45-1,1-1h22.61c.55,0,1,.45,1,1v.64h.49c.41,0,.74.33.74.74ZM2.67,33.96h-1.59v12.07h1.59v-12.07ZM54.15,33.96H3.75v12.07h50.4v-12.07ZM77.69,32.32h-22.53v15.36h22.53v-15.36ZM78.92,33.96h-.15v12.07h.15v-12.07ZM51.86,36.37h-.62v-.69h-1.68v.69h-.58v2.69h2.87v-2.69ZM49.6,44.32h1.68v-.69h.58v-2.69h-2.87v2.69h.62v.69Z"/></g></svg>