<?xml version="1.0" encoding="UTF-8"?><svg id="modifiers" xmlns="http://www.w3.org/2000/svg" viewBox="0 0 80 80"><defs><style>.cls-1{fill:#07182d;}</style></defs><path class="cls-1" d="M77.91,0H2.09C.94,0,0,.94,0,2.09v75.82c0,1.15.94,2.09,2.09,2.09h75.82c1.15,0,2.09-.94,2.09-2.09V2.09c0-1.15-.94-2.09-2.09-2.09ZM78.95,77.91c0,.57-.46,1.04-1.04,1.04H2.09c-.57,0-1.04-.46-1.04-1.04V2.09c0-.57.46-1.04,1.04-1.04h75.82c.57,0,1.04.46,1.04,1.04v75.82ZM74.4,9.07l-2.75-.03,1.12-3.72c.07-.23.02-.47-.12-.66-.14-.19-.36-.3-.59-.3h-4.66c-.32,0-.6.2-.71.51l-2.33,6.99c-.08.23-.04.48.1.67.14.2.36.31.61.31h2.82l-1.22,6.11c-.07.34.11.68.42.82.07.03.23.07.31.07.23,0,.45-.11.59-.3l7-9.29c.17-.23.2-.52.07-.77-.12-.25-.38-.41-.66-.42ZM67.97,17.83l1.02-5.09c.05-.23-.01-.47-.16-.65-.15-.18-.37-.29-.61-.29h-2.72l2.12-6.38h4.02l-1.1,3.66c-.07.24-.03.49.12.69.15.2.38.32.62.32l2.49.03-5.81,7.71ZM56.82,19.62H23.18c-.29,0-.53.24-.53.53v36.3c0,.29.24.53.53.53h6.69v2.78c0,.29.24.53.53.53h19.66c.29,0,.53-.24.53-.53v-2.78h6.23c.29,0,.53-.24.53-.53V20.15c0-.29-.24-.53-.53-.53ZM56.29,55.92h-6.23c-.29,0-.53.24-.53.53v2.78h-18.61v-2.78c0-.29-.24-.53-.53-.53h-6.69V20.67h32.58v35.24Z"/></svg>