<?xml version="1.0" encoding="UTF-8"?><svg id="device" xmlns="http://www.w3.org/2000/svg" viewBox="0 0 80 80"><defs><style>.cls-1{fill:#07182d;}</style></defs><g id="Layer_4"><path class="cls-1" d="M28.04,33.19s-.06-.03-.06-.06v-2.26s.03-.06.06-.06h.6v-.63h1.31v.63h.6s.06.03.06.06v2.26s-.03.06-.06.06h-2.51ZM18.5,47.04s-.06.03-.06.06v2.26s.03.06.06.06h.6v.63h1.31v-.63h.6s.06-.03.06-.06v-2.26s-.03-.06-.06-.06h-2.51ZM15.64,42.79v-.63h-1.31v.63h-.6s-.06.03-.06.06v2.26s.03.06.06.06h2.51s.06-.03.06-.06v-2.26s-.03-.06-.06-.06h-.6ZM13.73,47.04s-.06.03-.06.06v2.26s.03.06.06.06h.6v.63h1.31v-.63h.6s.06-.03.06-.06v-2.26s-.03-.06-.06-.06h-2.51ZM10.87,42.79v-.63h-1.31v.63h-.6s-.06.03-.06.06v2.26s.03.06.06.06h2.51s.06-.03.06-.06v-2.26s-.03-.06-.06-.06h-.6ZM20.41,42.79v-.63h-1.31v.63h-.6s-.06.03-.06.06v2.26s.03.06.06.06h2.51s.06-.03.06-.06v-2.26s-.03-.06-.06-.06h-.6ZM29.95,42.79v-.63h-1.31v.63h-.6s-.06.03-.06.06v2.26s.03.06.06.06h2.51s.06-.03.06-.06v-2.26s-.03-.06-.06-.06h-.6ZM28.04,47.04s-.06.03-.06.06v2.26s.03.06.06.06h.6v.63h1.31v-.63h.6s.06-.03.06-.06v-2.26s-.03-.06-.06-.06h-2.51ZM25.18,42.79v-.63h-1.31v.63h-.6s-.06.03-.06.06v2.26s.03.06.06.06h2.51s.06-.03.06-.06v-2.26s-.03-.06-.06-.06h-.6ZM23.27,47.04s-.06.03-.06.06v2.26s.03.06.06.06h.6v.63h1.31v-.63h.6s.06-.03.06-.06v-2.26s-.03-.06-.06-.06h-2.51ZM49.64,33.19s.06-.03.06-.06v-2.26s-.03-.06-.06-.06h-.6v-.63h-1.31v.63h-.6s-.06.03-.06.06v2.26s.03.06.06.06h2.51ZM42.95,37.44v.63h1.31v-.63h.6s.06-.03.06-.06v-2.26s-.03-.06-.06-.06h-2.51s-.06.03-.06.06v2.26s.03.06.06.06h.6ZM54.41,33.19s.06-.03.06-.06v-2.26s-.03-.06-.06-.06h-.6v-.63h-1.31v.63h-.6s-.06.03-.06.06v2.26s.03.06.06.06h2.51ZM38.18,37.44v.63h1.31v-.63h.6s.06-.03.06-.06v-2.26s-.03-.06-.06-.06h-2.51s-.06.03-.06.06v2.26s.03.06.06.06h.6ZM35.32,33.19s.06-.03.06-.06v-2.26s-.03-.06-.06-.06h-.6v-.63h-1.31v.63h-.6s-.06.03-.06.06v2.26s.03.06.06.06h2.51ZM40.09,33.19s.06-.03.06-.06v-2.26s-.03-.06-.06-.06h-.6v-.63h-1.31v.63h-.6s-.06.03-.06.06v2.26s.03.06.06.06h2.51ZM32.81,47.04s-.06.03-.06.06v2.26s.03.06.06.06h.6v.63h1.31v-.63h.6s.06-.03.06-.06v-2.26s-.03-.06-.06-.06h-2.51ZM52.5,37.44v.63h1.31v-.63h.6s.06-.03.06-.06v-2.26s-.03-.06-.06-.06h-2.51s-.06.03-.06.06v2.26s.03.06.06.06h.6ZM47.73,37.44v.63h1.31v-.63h.6s.06-.03.06-.06v-2.26s-.03-.06-.06-.06h-2.51s-.06.03-.06.06v2.26s.03.06.06.06h.6ZM44.87,33.19s.06-.03.06-.06v-2.26s-.03-.06-.06-.06h-.6v-.63h-1.31v.63h-.6s-.06.03-.06.06v2.26s.03.06.06.06h2.51ZM78.97,37.38h1.03v-3.21h-1.03v3.21ZM78.97,55.21h-2.76v1.03h3.21c.29,0,.59-.3.59-.59v-2.24h-1.03v1.8ZM75.79,52.58h-2.19s-.08-.02-.12-.02c-.04,0-.07.02-.11.02H6.5s-.03,0-.04,0c-.01,0-.03,0-.04,0h-2.36c-.29,0-.55-.27-.55-.55v-11.92s0-.02,0-.03c0-.01,0-.02,0-.03v-11.92c0-.29.27-.55.55-.55h2.36s.03,0,.04,0c.01,0,.03,0,.04,0h50.83c1.83-2.32,4.66-3.82,7.84-3.82s6.01,1.5,7.84,3.82h.38s.07.02.11.02c.04,0,.08-.02.12-.02h2.19c.39,0,.7.32.7.7v11.62c0,.06-.02.12-.04.18.02.06.04.11.04.18v11.62c0,.39-.32.7-.7.7ZM5.94,47.96c-.75-1.21-1.21-2.95-1.4-5.27v8.84h1.4v-3.58ZM5.94,28.61h-1.4v9.17c.2-2.34.71-3.98,1.4-5.11v-4.06ZM56.22,33.73c0,4.93,4.01,8.94,8.94,8.94s8.94-4.01,8.94-8.94-4.01-8.94-8.94-8.94-8.94,4.01-8.94,8.94ZM6.98,31.42c.8-.7,1.71-.99,2.58-1.05v-.19h1.31v.63h.6s.06.03.06.06v2.26s-.03.06-.06.06h-1.52v.27c-1.95,0-2.35,3.6-2.39,6.09h49.52c-1.18-1.64-1.89-3.65-1.89-5.82,0-1.87.53-3.62,1.43-5.12H6.98v2.82ZM72.9,40.6h-.53c-1.82,1.91-4.38,3.1-7.21,3.1-.39,0-.77-.03-1.15-.07v1.48s-.03.06-.06.06h-2.51s-.06-.03-.06-.06v-2.15c-1.31-.54-2.48-1.35-3.44-2.36H7.55c.08,6.37,1.63,6.39,2.39,6.39v.05h1.52s.06.03.06.06v2.26s-.03.06-.06.06h-.6v.63h-.92v.05c-1.19,0-2.18-.3-2.97-.93v2.38h65.92v-10.94ZM75.46,40.6h-1.53v10.94h1.53v-10.94ZM75.46,28.61h-1.53v.38c.77,1.41,1.2,3.03,1.2,4.74s-.44,3.33-1.2,4.74v1.08h1.53v-10.94ZM61.44,47.04s-.06.03-.06.06v2.26s.03.06.06.06h.6v.63h1.31v-.63h.6s.06-.03.06-.06v-2.26s-.03-.06-.06-.06h-2.51ZM78.97,50.21h1.03v-3.21h-1.03v3.21ZM78.97,43.8h1.03v-3.21h-1.03v3.21ZM80,24.47c0-.28-.3-.58-.58-.58h-3.03v1.03h3.62v-.46h0ZM58.58,42.79v-.63h-1.31v.63h-.6s-.06.03-.06.06v2.26s.03.06.06.06h2.51s.06-.03.06-.06v-2.26s-.03-.06-.06-.06h-.6ZM78.97,30.97h1.03v-3.21h-1.03v3.21ZM33.41,37.44v.63h1.31v-.63h.6s.06-.03.06-.06v-2.26s-.03-.06-.06-.06h-2.51s-.06.03-.06.06v2.26s.03.06.06.06h.6ZM34.72,42.79v-.63h-1.31v.63h-.6s-.06.03-.06.06v2.26s.03.06.06.06h2.51s.06-.03.06-.06v-2.26s-.03-.06-.06-.06h-.6ZM56.67,47.04s-.06.03-.06.06v2.26s.03.06.06.06h.6v.63h1.31v-.63h.6s.06-.03.06-.06v-2.26s-.03-.06-.06-.06h-2.51ZM42.35,47.04s-.06.03-.06.06v2.26s.03.06.06.06h.6v.63h1.31v-.63h.6s.06-.03.06-.06v-2.26s-.03-.06-.06-.06h-2.51ZM39.5,42.79v-.63h-1.31v.63h-.6s-.06.03-.06.06v2.26s.03.06.06.06h2.51s.06-.03.06-.06v-2.26s-.03-.06-.06-.06h-.6ZM37.58,47.04s-.06.03-.06.06v2.26s.03.06.06.06h.6v.63h1.31v-.63h.6s.06-.03.06-.06v-2.26s-.03-.06-.06-.06h-2.51ZM44.27,42.79v-.63h-1.31v.63h-.6s-.06.03-.06.06v2.26s.03.06.06.06h2.51s.06-.03.06-.06v-2.26s-.03-.06-.06-.06h-.6ZM51.9,47.04s-.06.03-.06.06v2.26s.03.06.06.06h.6v.63h1.31v-.63h.6s.06-.03.06-.06v-2.26s-.03-.06-.06-.06h-2.51ZM53.81,42.79v-.63h-1.31v.63h-.6s-.06.03-.06.06v2.26s.03.06.06.06h2.51s.06-.03.06-.06v-2.26s-.03-.06-.06-.06h-.6ZM49.04,42.79v-.63h-1.31v.63h-.6s-.06.03-.06.06v2.26s.03.06.06.06h2.51s.06-.03.06-.06v-2.26s-.03-.06-.06-.06h-.6ZM47.13,47.04s-.06.03-.06.06v2.26s.03.06.06.06h.6v.63h1.31v-.63h.6s.06-.03.06-.06v-2.26s-.03-.06-.06-.06h-2.51ZM28.64,37.44v.63h1.31v-.63h.6s.06-.03.06-.06v-2.26s-.03-.06-.06-.06h-2.51s-.06.03-.06.06v2.26s.03.06.06.06h.6ZM0,24.48v1.07h1.03v-.62h1.58v-1.03H.59C.3,23.9,0,24.2,0,24.48ZM1.03,54.42H0v1.25c0,.29.3.59.59.59h1.85v-1.03h-1.41v-.8ZM1.03,48H0v3.21h1.03v-3.21ZM53.93,23.9h-3.21v1.03h3.21v-1.03ZM5.65,56.25h3.21v-1.03h-3.21v1.03ZM18.48,56.25h3.21v-1.03h-3.21v1.03ZM24.89,56.25h3.21v-1.03h-3.21v1.03ZM31.31,56.25h3.21v-1.03h-3.21v1.03ZM12.06,56.25h3.21v-1.03h-3.21v1.03ZM60.35,23.9h-3.21v1.03h3.21v-1.03ZM1.03,35.17H0v3.21h1.03v-3.21ZM41.1,23.9h-3.21v1.03h3.21v-1.03ZM34.69,23.9h-3.21v1.03h3.21v-1.03ZM47.52,23.9h-3.21v1.03h3.21v-1.03ZM28.27,23.9h-3.21v1.03h3.21v-1.03ZM15.45,23.9h-3.21v1.03h3.21v-1.03ZM21.86,23.9h-3.21v1.03h3.21v-1.03ZM9.03,23.9h-3.21v1.03h3.21v-1.03ZM1.03,28.76H0v3.21h1.03v-3.21ZM73.18,23.9h-3.21v1.03h3.21v-1.03ZM1.03,41.59H0v3.21h1.03v-3.21ZM56.96,56.25h3.21v-1.03h-3.21v1.03ZM19.1,37.44v.63h1.31v-.63h.6s.06-.03.06-.06v-2.26s-.03-.06-.06-.06h-2.51s-.06.03-.06.06v2.26s.03.06.06.06h.6ZM16.24,33.19s.06-.03.06-.06v-2.26s-.03-.06-.06-.06h-.6v-.63h-1.31v.63h-.6s-.06.03-.06.06v2.26s.03.06.06.06h2.51ZM63.38,56.25h3.21v-1.03h-3.21v1.03ZM8.95,35.07s-.06.03-.06.06v2.26s.03.06.06.06h.6v.63h1.31v-.63h.6s.06-.03.06-.06v-2.26s-.03-.06-.06-.06h-2.51ZM69.79,56.25h3.21v-1.03h-3.21v1.03ZM14.33,37.44v.63h1.31v-.63h.6s.06-.03.06-.06v-2.26s-.03-.06-.06-.06h-2.51s-.06.03-.06.06v2.26s.03.06.06.06h.6ZM23.87,37.44v.63h1.31v-.63h.6s.06-.03.06-.06v-2.26s-.03-.06-.06-.06h-2.51s-.06.03-.06.06v2.26s.03.06.06.06h.6ZM25.78,33.19s.06-.03.06-.06v-2.26s-.03-.06-.06-.06h-.6v-.63h-1.31v.63h-.6s-.06.03-.06.06v2.26s.03.06.06.06h2.51ZM50.55,56.25h3.21v-1.03h-3.21v1.03ZM44.13,56.25h3.21v-1.03h-3.21v1.03ZM37.72,56.25h3.21v-1.03h-3.21v1.03ZM21.01,33.19s.06-.03.06-.06v-2.26s-.03-.06-.06-.06h-.6v-.63h-1.31v.63h-.6s-.06.03-.06.06v2.26s.03.06.06.06h2.51Z"/></g></svg>