<?xml version="1.0" encoding="UTF-8"?><svg id="device" xmlns="http://www.w3.org/2000/svg" viewBox="0 0 80 80"><defs><style>.cls-1{fill:#07182d;fill-rule:evenodd;}</style></defs><g id="Layer_4"><path class="cls-1" d="M18.12,55.48h-9.19c-.3,0-.59.29-.59.59v6.92c0,.3.29.59.59.59h9.19c.3,0,.59-.29.59-.59v-6.92c0-.3-.29-.59-.59-.59ZM17.63,62.49h-8.21v-5.94h8.21v5.94ZM31.44,55.48h-9.19c-.3,0-.59.29-.59.59v6.92c0,.3.29.59.59.59h9.19c.3,0,.59-.29.59-.59v-6.92c0-.3-.29-.59-.59-.59ZM30.95,62.49h-8.21v-5.94h8.21v5.94ZM44.59,55.48h-9.19c-.3,0-.59.29-.59.59v6.92c0,.3.29.59.59.59h9.19c.3,0,.59-.29.59-.59v-6.92c0-.3-.29-.59-.59-.59ZM44.1,62.49h-8.21v-5.94h8.21v5.94ZM57.76,55.48h-9.19c-.3,0-.59.29-.59.59v6.92c0,.3.29.59.59.59h9.19c.3,0,.59-.29.59-.59v-6.92c0-.3-.29-.59-.59-.59ZM57.27,62.49h-8.21v-5.94h8.21v5.94ZM70.88,55.43h-9.19c-.3,0-.59.29-.59.59v6.92c0,.3.29.59.59.59h9.19c.3,0,.59-.29.59-.59v-6.92c0-.3-.29-.59-.59-.59ZM70.39,62.45h-8.21v-5.94h8.21v5.94ZM7.56,34.08v-1.34c0-.24.19-.43.43-.43h7.49c.24,0,.43.19.43.43v1.34c0,.24-.19.43-.43.43h-7.49c-.24,0-.43-.19-.43-.43ZM18.85,34.08v-1.34c0-.24.19-.43.43-.43h7.49c.24,0,.43.19.43.43v1.34c0,.24-.19.43-.43.43h-7.49c-.24,0-.43-.19-.43-.43ZM30.14,34.08v-1.34c0-.24.19-.43.43-.43h7.49c.24,0,.43.19.43.43v1.34c0,.24-.19.43-.43.43h-7.49c-.24,0-.43-.19-.43-.43ZM41.44,34.08v-1.34c0-.24.19-.43.43-.43h7.49c.24,0,.43.19.43.43v1.34c0,.24-.19.43-.43.43h-7.49c-.24,0-.43-.19-.43-.43ZM52.73,34.08v-1.34c0-.24.19-.43.43-.43h7.49c.24,0,.43.19.43.43v1.34c0,.24-.19.43-.43.43h-7.49c-.24,0-.43-.19-.43-.43ZM64.02,34.08v-1.34c0-.24.19-.43.43-.43h7.49c.24,0,.43.19.43.43v1.34c0,.24-.19.43-.43.43h-7.49c-.24,0-.43-.19-.43-.43ZM15.91,45.91v1.34c0,.24-.19.43-.43.43h-7.49c-.24,0-.43-.19-.43-.43v-1.34c0-.24.19-.43.43-.43h7.49c.24,0,.43.19.43.43ZM27.2,45.91v1.34c0,.24-.19.43-.43.43h-7.49c-.24,0-.43-.19-.43-.43v-1.34c0-.24.19-.43.43-.43h7.49c.24,0,.43.19.43.43ZM38.49,45.91v1.34c0,.24-.19.43-.43.43h-7.49c-.24,0-.43-.19-.43-.43v-1.34c0-.24.19-.43.43-.43h7.49c.24,0,.43.19.43.43ZM49.78,45.91v1.34c0,.24-.19.43-.43.43h-7.49c-.24,0-.43-.19-.43-.43v-1.34c0-.24.19-.43.43-.43h7.49c.24,0,.43.19.43.43ZM61.07,45.91v1.34c0,.24-.19.43-.43.43h-7.49c-.24,0-.43-.19-.43-.43v-1.34c0-.24.19-.43.43-.43h7.49c.24,0,.43.19.43.43ZM72.36,45.91v1.34c0,.24-.19.43-.43.43h-7.49c-.24,0-.43-.19-.43-.43v-1.34c0-.24.19-.43.43-.43h7.49c.24,0,.43.19.43.43ZM68.27,17.63c0-.3.24-.54.54-.54h4.86c.3,0,.54.24.54.54s-.24.54-.54.54h-4.86c-.3,0-.54-.24-.54-.54ZM68.27,22.89c0-.3.24-.54.54-.54h4.86c.3,0,.54.24.54.54s-.24.54-.54.54h-4.86c-.3,0-.54-.24-.54-.54ZM80,13.89c0-.41-.33-.74-.74-.74h-2.4s-.09.02-.13.03c-.04,0-.08-.03-.12-.03H3.25s-.03,0-.04,0c-.01,0-.03,0-.04,0H.58C.28,13.14,0,13.42,0,13.72v13.07s0,.03,0,.04c0,.01,0,.03,0,.04v13.07s0,.03.01.05c0,.02-.01.03-.01.05v13.07s0,.03.01.05c0,.02-.01.03-.01.05v13.07c0,.3.28.58.58.58h2.59s.03,0,.04,0c.01,0,.03,0,.04,0h73.36s.03,0,.04,0c.01,0,.03,0,.04,0h2.73c.3,0,.58-.28.58-.58v-13.07s0-.03-.01-.05c0-.02.01-.03.01-.05v-13.07s0-.03-.01-.05c0-.02.01-.03.01-.05v-13.07s-.02-.08-.03-.12c0-.04.03-.08.03-.13v-12.75ZM3.75,40.54h72.36v12.07H3.75v-12.07ZM1.08,40.54h1.59v12.07h-1.59v-12.07ZM77.19,40.54h1.73v12.07h-1.73v-12.07ZM78.92,39.45h-1.73v-12.08h1.73v12.08ZM76.11,39.45H3.75v-12.08h72.36v12.08ZM2.67,39.45h-1.59v-12.08h1.59v12.08ZM78.92,26.3h-1.73v-12.07h1.73v12.07ZM76.11,26.3H3.75v-12.07h72.36v12.07ZM1.08,14.22h1.59v12.07h-1.59v-12.07ZM1.08,53.7h1.59v12.07h-1.59v-12.07ZM3.75,53.7h72.36v12.07H3.75v-12.07ZM78.92,65.78h-1.73v-12.07h1.73v12.07ZM6.52,19.25s-.06-.03-.06-.06v-2.44s.03-.06.06-.06h.65v-.67h1.41v.67h.65s.06.03.06.06v2.44s-.03.06-.06.06h-2.71ZM14.6,19.25s-.06-.03-.06-.06v-2.44s.03-.06.06-.06h.65v-.67h1.41v.67h.65s.06.03.06.06v2.44s-.03.06-.06.06h-2.71ZM22.68,19.25s-.06-.03-.06-.06v-2.44s.03-.06.06-.06h.65v-.67h1.41v.67h.65s.06.03.06.06v2.44s-.03.06-.06.06h-2.71ZM30.76,19.25s-.06-.03-.06-.06v-2.44s.03-.06.06-.06h.65v-.67h1.41v.67h.65s.06.03.06.06v2.44s-.03.06-.06.06h-2.71ZM38.83,19.25s-.06-.03-.06-.06v-2.44s.03-.06.06-.06h.65v-.67h1.41v.67h.65s.06.03.06.06v2.44s-.03.06-.06.06h-2.71ZM46.91,19.25s-.06-.03-.06-.06v-2.44s.03-.06.06-.06h.65v-.67h1.41v.67h.65s.06.03.06.06v2.44s-.03.06-.06.06h-2.71ZM54.99,19.25s-.06-.03-.06-.06v-2.44s.03-.06.06-.06h.65v-.67h1.41v.67h.65s.06.03.06.06v2.44s-.03.06-.06.06h-2.71ZM63.07,19.25s-.06-.03-.06-.06v-2.44s.03-.06.06-.06h.65v-.67h1.41v.67h.65s.06.03.06.06v2.44s-.03.06-.06.06h-2.71ZM63.07,23.83s-.06-.03-.06-.06v-2.44s.03-.06.06-.06h2.71s.06.03.06.06v2.44s-.03.06-.06.06h-.65v.67h-1.41v-.67h-.65ZM54.99,23.83s-.06-.03-.06-.06v-2.44s.03-.06.06-.06h2.71s.06.03.06.06v2.44s-.03.06-.06.06h-.65v.67h-1.41v-.67h-.65ZM46.91,23.83s-.06-.03-.06-.06v-2.44s.03-.06.06-.06h2.71s.06.03.06.06v2.44s-.03.06-.06.06h-.65v.67h-1.41v-.67h-.65ZM38.83,23.83s-.06-.03-.06-.06v-2.44s.03-.06.06-.06h2.71s.06.03.06.06v2.44s-.03.06-.06.06h-.65v.67h-1.41v-.67h-.65ZM30.76,23.83s-.06-.03-.06-.06v-2.44s.03-.06.06-.06h2.71s.06.03.06.06v2.44s-.03.06-.06.06h-.65v.67h-1.41v-.67h-.65ZM22.68,23.83s-.06-.03-.06-.06v-2.44s.03-.06.06-.06h2.71s.06.03.06.06v2.44s-.03.06-.06.06h-.65v.67h-1.41v-.67h-.65ZM14.6,23.83s-.06-.03-.06-.06v-2.44s.03-.06.06-.06h2.71s.06.03.06.06v2.44s-.03.06-.06.06h-.65v.67h-1.41v-.67h-.65ZM6.52,23.83s-.06-.03-.06-.06v-2.44s.03-.06.06-.06h2.71s.06.03.06.06v2.44s-.03.06-.06.06h-.65v.67h-1.41v-.67h-.65Z"/></g></svg>