<?xml version="1.0" encoding="UTF-8"?><svg id="device" xmlns="http://www.w3.org/2000/svg" viewBox="0 0 80 80"><defs><style>.cls-1{fill:#07182d;}</style></defs><g id="Layer_4"><path class="cls-1" d="M6.94,22.28h1.51c.25,0,.45-.2.45-.45v-7.4c0-.25-.2-.45-.45-.45h-1.51c-.25,0-.45.2-.45.45v7.4c0,.25.2.45.45.45ZM6.94,46.97h1.51c.25,0,.45-.2.45-.45v-2.42c0-.25-.2-.45-.45-.45h-1.51c-.25,0-.45.2-.45.45v2.42c0,.25.2.45.45.45ZM6.94,29.84h1.51c.25,0,.45-.2.45-.45v-2.42c0-.25-.2-.45-.45-.45h-1.51c-.25,0-.45.2-.45.45v2.42c0,.25.2.45.45.45ZM6.94,39.41h1.51c.25,0,.45-.2.45-.45v-7.4c0-.25-.2-.45-.45-.45h-1.51c-.25,0-.45.2-.45.45v7.4c0,.25.2.45.45.45ZM75.39,35.46h-6.37c-.3,0-.58.29-.58.59v9.18c0,.3.29.58.58.58h6.37c.3,0,.58-.29.58-.58v-9.18c0-.3-.29-.59-.58-.59ZM74.9,44.74h-5.4v-8.21h5.4v8.21ZM75.39,48.6h-6.37c-.3,0-.58.29-.58.58v9.19c0,.3.29.58.58.58h6.37c.3,0,.58-.29.58-.58v-9.19c0-.3-.29-.58-.58-.58ZM74.9,57.88h-5.4v-8.21h5.4v8.21ZM75.39,22.31h-6.37c-.3,0-.58.29-.58.58v9.19c0,.3.29.58.58.58h6.37c.3,0,.58-.29.58-.58v-9.19c0-.3-.29-.58-.58-.58ZM74.9,31.59h-5.4v-8.21h5.4v8.21ZM33.07,22.28h1.51c.25,0,.45-.2.45-.45v-7.4c0-.25-.2-.45-.45-.45h-1.51c-.25,0-.45.2-.45.45v7.4c0,.25.2.45.45.45ZM6.94,12.71h1.51c.25,0,.45-.2.45-.45v-2.42c0-.25-.2-.45-.45-.45h-1.51c-.25,0-.45.2-.45.45v2.42c0,.25.2.45.45.45ZM33.07,29.84h1.51c.25,0,.45-.2.45-.45v-2.42c0-.25-.2-.45-.45-.45h-1.51c-.25,0-.45.2-.45.45v2.42c0,.25.2.45.45.45ZM75.39,61.9h-6.37c-.3,0-.58.29-.58.58v9.18c0,.3.29.58.58.58h6.37c.3,0,.58-.29.58-.58v-9.18c0-.3-.29-.58-.58-.58ZM74.9,71.18h-5.4v-8.21h5.4v8.21ZM20,56.53h1.51c.25,0,.45-.2.45-.45v-7.4c0-.25-.2-.45-.45-.45h-1.51c-.25,0-.45.2-.45.45v7.4c0,.25.2.45.45.45ZM20,46.97h1.51c.25,0,.45-.2.45-.45v-2.42c0-.25-.2-.45-.45-.45h-1.51c-.25,0-.45.2-.45.45v2.42c0,.25.2.45.45.45ZM20,64.1h1.51c.25,0,.45-.2.45-.45v-2.42c0-.25-.2-.45-.45-.45h-1.51c-.25,0-.45.2-.45.45v2.42c0,.25.2.45.45.45ZM6.94,56.53h1.51c.25,0,.45-.2.45-.45v-7.4c0-.25-.2-.45-.45-.45h-1.51c-.25,0-.45.2-.45.45v7.4c0,.25.2.45.45.45ZM20,39.41h1.51c.25,0,.45-.2.45-.45v-7.4c0-.25-.2-.45-.45-.45h-1.51c-.25,0-.45.2-.45.45v7.4c0,.25.2.45.45.45ZM20,73.66h1.51c.25,0,.45-.2.45-.45v-7.4c0-.25-.2-.45-.45-.45h-1.51c-.25,0-.45.2-.45.45v7.4c0,.25.2.45.45.45ZM6.94,73.66h1.51c.25,0,.45-.2.45-.45v-7.4c0-.25-.2-.45-.45-.45h-1.51c-.25,0-.45.2-.45.45v7.4c0,.25.2.45.45.45ZM6.94,64.1h1.51c.25,0,.45-.2.45-.45v-2.42c0-.25-.2-.45-.45-.45h-1.51c-.25,0-.45.2-.45.45v2.42c0,.25.2.45.45.45ZM20,29.84h1.51c.25,0,.45-.2.45-.45v-2.42c0-.25-.2-.45-.45-.45h-1.51c-.25,0-.45.2-.45.45v2.42c0,.25.2.45.45.45ZM20,12.71h1.51c.25,0,.45-.2.45-.45v-2.42c0-.25-.2-.45-.45-.45h-1.51c-.25,0-.45.2-.45.45v2.42c0,.25.2.45.45.45ZM20,22.28h1.51c.25,0,.45-.2.45-.45v-7.4c0-.25-.2-.45-.45-.45h-1.51c-.25,0-.45.2-.45.45v7.4c0,.25.2.45.45.45ZM79.01,1.85c0-.3-.28-.58-.57-.58h-.93v-.28c0-.55-.45-1-1-1h-22.45c-.55,0-1,.45-1,1v.28h-12.66s-.03,0-.04,0c-.01,0-.03,0-.04,0h-12.86s-.03,0-.04,0c-.01,0-.03,0-.04,0h-12.86s-.03,0-.04,0c-.01,0-.03,0-.04,0H1.57c-.3,0-.58.28-.58.58v2.68s0,.03,0,.04c0,.01,0,.03,0,.04v72.17s0,.03,0,.04c0,.01,0,.03,0,.04v2.55c0,.3.28.58.58.58h12.86s.03,0,.04,0c.01,0,.03,0,.04,0h12.86s.03,0,.04,0c.01,0,.03,0,.04,0h12.86s.03,0,.04,0c.01,0,.03,0,.04,0h12.86s.03,0,.04,0c.01,0,.03,0,.04,0h12.86s.06-.01.09-.02c.03,0,.06.02.09.02h12.05c.3,0,.57-.28.57-.57v-2.55s0-.03,0-.04c0-.01,0-.03,0-.04V4.62s0-.03,0-.04c0-.01,0-.03,0-.04V1.85ZM13.93,78.93H2.06v-1.56h11.87v1.56ZM13.93,76.3H2.06V5.11h11.87v71.19ZM13.93,4.04H2.06v-1.69h11.87v1.69ZM26.88,78.93h-11.87v-1.56h11.87v1.56ZM26.88,76.3h-11.87V5.11h11.87v71.19ZM26.88,4.04h-11.87v-1.69h11.87v1.69ZM39.82,78.93h-11.87v-1.56h11.87v1.56ZM39.82,76.3h-11.87V5.11h11.87v71.19ZM39.82,4.04h-11.87v-1.69h11.87v1.69ZM54.05,1.07h22.38v15.26h-22.38V1.07ZM69.46,17.4h5.4v1.08h-5.4v-1.08ZM52.76,78.93h-11.87v-1.56h11.87v1.56ZM52.76,76.3h-11.87V5.11h11.87v71.19ZM52.76,4.04h-11.87v-1.69h11.87v1.69ZM65.7,78.93h-11.87v-1.56h11.87v1.56ZM65.7,76.3h-11.87V17.36c.07.02.14.04.22.04h4.7v4.43c0,.25.2.45.45.45h1.51c.25,0,.45-.2.45-.45v-4.43h4.55v58.9ZM77.93,78.93h-11.06v-1.56h11.06v1.56ZM77.93,76.3h-11.06V17.4h1.52v1.57c0,.3.29.58.58.58h6.37c.3,0,.58-.29.58-.58v-1.57h.57c.55,0,1-.45,1-1V5.11h.44v71.19ZM77.93,4.04h-.44v-1.69h.44v1.69ZM46.13,22.28h1.51c.25,0,.45-.2.45-.45v-7.4c0-.25-.2-.45-.45-.45h-1.51c-.25,0-.45.2-.45.45v7.4c0,.25.2.45.45.45ZM46.13,29.84h1.51c.25,0,.45-.2.45-.45v-2.42c0-.25-.2-.45-.45-.45h-1.51c-.25,0-.45.2-.45.45v2.42c0,.25.2.45.45.45ZM46.13,12.71h1.51c.25,0,.45-.2.45-.45v-2.42c0-.25-.2-.45-.45-.45h-1.51c-.25,0-.45.2-.45.45v2.42c0,.25.2.45.45.45ZM46.13,39.41h1.51c.25,0,.45-.2.45-.45v-7.4c0-.25-.2-.45-.45-.45h-1.51c-.25,0-.45.2-.45.45v7.4c0,.25.2.45.45.45ZM46.13,56.53h1.51c.25,0,.45-.2.45-.45v-7.4c0-.25-.2-.45-.45-.45h-1.51c-.25,0-.45.2-.45.45v7.4c0,.25.2.45.45.45ZM33.07,12.71h1.51c.25,0,.45-.2.45-.45v-2.42c0-.25-.2-.45-.45-.45h-1.51c-.25,0-.45.2-.45.45v2.42c0,.25.2.45.45.45ZM46.13,73.66h1.51c.25,0,.45-.2.45-.45v-7.4c0-.25-.2-.45-.45-.45h-1.51c-.25,0-.45.2-.45.45v7.4c0,.25.2.45.45.45ZM46.13,64.1h1.51c.25,0,.45-.2.45-.45v-2.42c0-.25-.2-.45-.45-.45h-1.51c-.25,0-.45.2-.45.45v2.42c0,.25.2.45.45.45ZM33.07,64.1h1.51c.25,0,.45-.2.45-.45v-2.42c0-.25-.2-.45-.45-.45h-1.51c-.25,0-.45.2-.45.45v2.42c0,.25.2.45.45.45ZM46.13,46.97h1.51c.25,0,.45-.2.45-.45v-2.42c0-.25-.2-.45-.45-.45h-1.51c-.25,0-.45.2-.45.45v2.42c0,.25.2.45.45.45ZM33.07,73.66h1.51c.25,0,.45-.2.45-.45v-7.4c0-.25-.2-.45-.45-.45h-1.51c-.25,0-.45.2-.45.45v7.4c0,.25.2.45.45.45ZM60.71,48.24h-1.51c-.25,0-.45.2-.45.45v7.4c0,.25.2.45.45.45h1.51c.25,0,.45-.2.45-.45v-7.4c0-.25-.2-.45-.45-.45ZM60.71,43.65h-1.51c-.25,0-.45.2-.45.45v2.42c0,.25.2.45.45.45h1.51c.25,0,.45-.2.45-.45v-2.42c0-.25-.2-.45-.45-.45ZM33.07,56.53h1.51c.25,0,.45-.2.45-.45v-7.4c0-.25-.2-.45-.45-.45h-1.51c-.25,0-.45.2-.45.45v7.4c0,.25.2.45.45.45ZM60.71,26.53h-1.51c-.25,0-.45.2-.45.45v2.42c0,.25.2.45.45.45h1.51c.25,0,.45-.2.45-.45v-2.42c0-.25-.2-.45-.45-.45ZM60.71,31.12h-1.51c-.25,0-.45.2-.45.45v7.4c0,.25.2.45.45.45h1.51c.25,0,.45-.2.45-.45v-7.4c0-.25-.2-.45-.45-.45ZM33.07,39.41h1.51c.25,0,.45-.2.45-.45v-7.4c0-.25-.2-.45-.45-.45h-1.51c-.25,0-.45.2-.45.45v7.4c0,.25.2.45.45.45ZM60.71,60.78h-1.51c-.25,0-.45.2-.45.45v2.42c0,.25.2.45.45.45h1.51c.25,0,.45-.2.45-.45v-2.42c0-.25-.2-.45-.45-.45ZM33.07,46.97h1.51c.25,0,.45-.2.45-.45v-2.42c0-.25-.2-.45-.45-.45h-1.51c-.25,0-.45.2-.45.45v2.42c0,.25.2.45.45.45ZM60.71,65.37h-1.51c-.25,0-.45.2-.45.45v7.4c0,.25.2.45.45.45h1.51c.25,0,.45-.2.45-.45v-7.4c0-.25-.2-.45-.45-.45Z"/></g></svg>