<?xml version="1.0" encoding="UTF-8"?><svg id="modifiers" xmlns="http://www.w3.org/2000/svg" viewBox="0 0 80 80"><defs><style>.cls-1{fill:#fff;}</style></defs><path class="cls-1" d="M34.51,23.23l-.36-.99,5.55-2.04c.12-.04.25-.04.37,0l5.28,2.04-.38.98-4.57-1.76v8.64h-1.05v-8.65l-4.84,1.78ZM40.33,41.67v-8.65h-1.05v8.64l-4.57-1.76-.38.98,5.28,2.04c.06.02.12.04.19.04s.12-.01.18-.03l5.54-2.04-.36-.99-4.84,1.78ZM43.69,31.6c0,.22.13.42.34.49l5.41,2.09.38-.98-2.78-1.07h22.15v-1.05h-22.01l2.64-.97-.36-.99-5.41,1.99c-.21.08-.34.27-.34.49ZM29.78,33.02l.36.99,5.41-1.99c.21-.08.34-.27.34-.49,0-.22-.13-.42-.34-.49l-5.41-2.09-.38.98,2.78,1.07H10.4v1.05h22.01l-2.64.97ZM80,31.54v16.9c0,8.63-17.57,15.39-40,15.39S0,57.08,0,48.45v-16.9c0-4.21,4.23-8.11,11.9-11,15.49-5.83,40.7-5.83,56.19,0,7.68,2.89,11.9,6.8,11.9,11ZM1.05,31.54c0,3.68,4.09,7.33,11.22,10.02,15.29,5.76,40.16,5.76,55.45,0,7.13-2.69,11.22-6.34,11.22-10.02s-4.09-7.33-11.22-10.02c-7.64-2.88-17.69-4.32-27.73-4.32s-20.08,1.44-27.73,4.32c-7.13,2.69-11.22,6.34-11.22,10.02ZM78.95,35.1c-1.69,2.82-5.39,5.39-10.85,7.45-7.75,2.92-17.92,4.38-28.1,4.38s-20.35-1.46-28.1-4.38c-5.46-2.05-9.16-4.62-10.85-7.45v13.35c0,7.91,17.47,14.34,38.95,14.34s38.95-6.43,38.95-14.34v-13.35Z"/></svg>