<?xml version="1.0" encoding="UTF-8"?><svg id="device" xmlns="http://www.w3.org/2000/svg" viewBox="0 0 80 80"><defs><style>.cls-1{fill:#07182d;}</style></defs><g id="Layer_4"><path class="cls-1" d="M80,26.09c0-.3-.28-.58-.58-.58h-1.08v-.66c0-.55-.45-1-1-1h-22.6c-.55,0-1,.45-1,1v.66H3.25s-.02,0-.04,0c-.01,0-.02,0-.04,0H.58C.28,25.52,0,25.79,0,26.09v13.09s0,.02,0,.04c0,.01,0,.02,0,.04v16.31c0,.3.28.58.58.58h2.59s.03,0,.04,0c.01,0,.03,0,.04,0h73.35s.03,0,.04,0c.01,0,.03,0,.04,0h2.73c.3,0,.58-.28.58-.58v-16.31s0-.02,0-.04c0-.01,0-.03,0-.04v-13.08ZM54.74,24.94h22.52v15.36h-22.52v-15.36ZM3.75,38.67v-12.08h49.98v12.08H3.75ZM2.67,55.06h-1.59v-15.31h1.59v15.31ZM1.08,38.67v-12.08h1.59v12.08h-1.59ZM3.75,39.76h49.98v.61c0,.55.45,1,1,1h3.03v2.5c0,.21.17.38.38.38h1.42c.21,0,.39-.17.39-.38v-2.5h7.44v2.5c0,.21.17.38.39.38h1.42c.21,0,.38-.17.38-.38v-2.5h6.52v13.69H3.75v-15.31ZM78.92,55.06h-1.73v-13.69h.15c.55,0,1-.45,1-1v-.61h.58v15.31ZM78.34,38.67v-12.08h.58v12.08h-.58ZM15.88,29.73v1.42c0,.21-.17.38-.38.38h-7.58c-.21,0-.38-.17-.38-.38v-1.42c0-.21.17-.38.38-.38h7.58c.21,0,.38.17.38.38ZM20.5,29.73v1.42c0,.21-.17.38-.38.38h-2.57c-.21,0-.38-.17-.38-.38v-1.42c0-.21.17-.38.38-.38h2.57c.21,0,.38.17.38.38ZM15.88,34.12v1.42c0,.21-.17.38-.38.38h-7.58c-.21,0-.38-.17-.38-.38v-1.42c0-.21.17-.38.38-.38h7.58c.21,0,.38.17.38.38ZM20.5,34.12v1.42c0,.21-.17.38-.38.38h-2.57c-.21,0-.38-.17-.38-.38v-1.42c0-.21.17-.38.38-.38h2.57c.21,0,.38.17.38.38ZM41.45,29.73v1.42c0,.21-.17.38-.39.38h-7.58c-.21,0-.39-.17-.39-.38v-1.42c0-.21.17-.38.39-.38h7.58c.21,0,.39.17.39.38ZM46.07,29.73v1.42c0,.21-.17.38-.39.38h-2.57c-.21,0-.39-.17-.39-.38v-1.42c0-.21.17-.38.39-.38h2.57c.21,0,.39.17.39.38ZM41.45,34.12v1.42c0,.21-.17.38-.39.38h-7.58c-.21,0-.39-.17-.39-.38v-1.42c0-.21.17-.38.39-.38h7.58c.21,0,.39.17.39.38ZM46.07,34.12v1.42c0,.21-.17.38-.39.38h-2.57c-.21,0-.39-.17-.39-.38v-1.42c0-.21.17-.38.39-.38h2.57c.21,0,.39.17.39.38ZM11.78,45.93v7.58c0,.21-.17.39-.39.39h-1.42c-.21,0-.39-.17-.39-.39v-7.58c0-.21.17-.38.39-.38h1.42c.21,0,.39.17.39.38ZM11.78,41.31v2.57c0,.21-.17.38-.39.38h-1.42c-.21,0-.39-.17-.39-.38v-2.57c0-.21.17-.39.39-.39h1.42c.21,0,.39.17.39.39ZM21.41,45.93v7.58c0,.21-.17.39-.38.39h-1.42c-.21,0-.38-.17-.38-.39v-7.58c0-.21.17-.38.38-.38h1.42c.21,0,.38.17.38.38ZM21.41,41.31v2.57c0,.21-.17.38-.38.38h-1.42c-.21,0-.38-.17-.38-.38v-2.57c0-.21.17-.39.38-.39h1.42c.21,0,.38.17.38.39ZM31.05,45.93v7.58c0,.21-.17.39-.38.39h-1.42c-.21,0-.38-.17-.38-.39v-7.58c0-.21.17-.38.38-.38h1.42c.21,0,.38.17.38.38ZM31.05,41.31v2.57c0,.21-.17.38-.38.38h-1.42c-.21,0-.38-.17-.38-.38v-2.57c0-.21.17-.39.38-.39h1.42c.21,0,.38.17.38.39ZM40.69,45.93v7.58c0,.21-.17.39-.39.39h-1.42c-.21,0-.39-.17-.39-.39v-7.58c0-.21.17-.38.39-.38h1.42c.21,0,.39.17.39.38ZM40.69,41.31v2.57c0,.21-.17.38-.39.38h-1.42c-.21,0-.39-.17-.39-.38v-2.57c0-.21.17-.39.39-.39h1.42c.21,0,.39.17.39.39ZM50.32,45.93v7.58c0,.21-.17.39-.38.39h-1.42c-.21,0-.38-.17-.38-.39v-7.58c0-.21.17-.38.38-.38h1.42c.21,0,.38.17.38.38ZM50.32,41.31v2.57c0,.21-.17.38-.38.38h-1.42c-.21,0-.38-.17-.38-.38v-2.57c0-.21.17-.39.38-.39h1.42c.21,0,.38.17.38.39ZM59.96,45.93v7.58c0,.21-.17.39-.39.39h-1.42c-.21,0-.38-.17-.38-.39v-7.58c0-.21.17-.38.38-.38h1.42c.21,0,.39.17.39.38ZM69.6,45.93v7.58c0,.21-.17.39-.38.39h-1.42c-.21,0-.39-.17-.39-.39v-7.58c0-.21.17-.38.39-.38h1.42c.21,0,.38.17.38.38Z"/></g></svg>