<?xml version="1.0" encoding="UTF-8"?><svg id="device" xmlns="http://www.w3.org/2000/svg" viewBox="0 0 80 80"><defs><style>.cls-1{fill:#07182d;}</style></defs><g id="Layer_4"><path class="cls-1" d="M16.42,39.01s-.06-.03-.06-.06v-2.48s.03-.06.06-.06h.66v-.69h1.44v.69h.66s.06.03.06.06v2.48s-.03.06-.06.06h-2.75ZM45.34,39.01s.06-.03.06-.06v-2.48s-.03-.06-.06-.06h-.66v-.69h-1.44v.69h-.66s-.06.03-.06.06v2.48s.03.06.06.06h2.75ZM48.47,43.68v.69h1.44v-.69h.66s.06-.03.06-.06v-2.48s-.03-.06-.06-.06h-2.75s-.06.03-.06.06v2.48s.03.06.06.06h.66ZM43.24,43.68v.69h1.44v-.69h.66s.06-.03.06-.06v-2.48s-.03-.06-.06-.06h-2.75s-.06.03-.06.06v2.48s.03.06.06.06h.66ZM22.31,43.68v.69h1.44v-.69h.66s.06-.03.06-.06v-2.48s-.03-.06-.06-.06h-2.75s-.06.03-.06.06v2.48s.03.06.06.06h.66ZM50.57,39.01s.06-.03.06-.06v-2.48s-.03-.06-.06-.06h-.66v-.69h-1.44v.69h-.66s-.06.03-.06.06v2.48s.03.06.06.06h2.75ZM24.4,39.01s.06-.03.06-.06v-2.48s-.03-.06-.06-.06h-.66v-.69h-1.44v.69h-.66s-.06.03-.06.06v2.48s.03.06.06.06h2.75ZM40.1,39.01s.06-.03.06-.06v-2.48s-.03-.06-.06-.06h-.66v-.69h-1.44v.69h-.66s-.06.03-.06.06v2.48s.03.06.06.06h2.75ZM29.64,39.01s.06-.03.06-.06v-2.48s-.03-.06-.06-.06h-.66v-.69h-1.44v.69h-.66s-.06.03-.06.06v2.48s.03.06.06.06h2.75ZM32.77,43.68v.69h1.44v-.69h.66s.06-.03.06-.06v-2.48s-.03-.06-.06-.06h-2.75s-.06.03-.06.06v2.48s.03.06.06.06h.66ZM38.01,43.68v.69h1.44v-.69h.66s.06-.03.06-.06v-2.48s-.03-.06-.06-.06h-2.75s-.06.03-.06.06v2.48s.03.06.06.06h.66ZM34.87,39.01s.06-.03.06-.06v-2.48s-.03-.06-.06-.06h-.66v-.69h-1.44v.69h-.66s-.06.03-.06.06v2.48s.03.06.06.06h2.75ZM6.61,43.68v.69h1.44v-.69h.66s.06-.03.06-.06v-2.48s-.03-.06-.06-.06h-2.75s-.06.03-.06.06v2.48s.03.06.06.06h.66ZM27.54,43.68v.69h1.44v-.69h.66s.06-.03.06-.06v-2.48s-.03-.06-.06-.06h-2.75s-.06.03-.06.06v2.48s.03.06.06.06h.66ZM80,33.63v12.75c0,.41-.33.74-.74.74h-.49v.64c0,.55-.45,1-1,1h-22.61c-.55,0-1-.45-1-1v-.64H3.25s-.03,0-.04,0c-.01,0-.03,0-.04,0H.58C.28,47.12,0,46.83,0,46.54v-13.07c0-.3.28-.58.58-.58h2.59s.03,0,.04,0c.01,0,.03,0,.04,0h50.9v-.64c0-.55.45-1,1-1h22.61c.55,0,1,.45,1,1v.64h.49c.41,0,.74.33.74.74ZM2.67,33.96h-1.59v12.07h1.59v-12.07ZM54.15,33.96H3.75v12.07h50.4v-1.67h-.45v-.69h-.66s-.06-.03-.06-.06v-2.48s.03-.06.06-.06h1.1v-2.06h-1.1s-.06-.03-.06-.06v-2.48s.03-.06.06-.06h.66v-.69h.45v-1.76ZM77.69,32.32h-22.53v15.36h22.53v-15.36ZM78.92,33.96h-.15v12.07h.15v-12.07ZM8.7,39.01s.06-.03.06-.06v-2.48s-.03-.06-.06-.06h-.66v-.69h-1.44v.69h-.66s-.06.03-.06.06v2.48s.03.06.06.06h2.75ZM17.07,43.68v.69h1.44v-.69h.66s.06-.03.06-.06v-2.48s-.03-.06-.06-.06h-2.75s-.06.03-.06.06v2.48s.03.06.06.06h.66ZM13.94,39.01s.06-.03.06-.06v-2.48s-.03-.06-.06-.06h-.66v-.69h-1.44v.69h-.66s-.06.03-.06.06v2.48s.03.06.06.06h2.75ZM11.84,43.68v.69h1.44v-.69h.66s.06-.03.06-.06v-2.48s-.03-.06-.06-.06h-2.75s-.06.03-.06.06v2.48s.03.06.06.06h.66Z"/></g></svg>