<?xml version="1.0" encoding="UTF-8"?><svg id="modifiers" xmlns="http://www.w3.org/2000/svg" viewBox="0 0 80 80"><defs><style>.cls-1{fill:#07182d;}</style></defs><path class="cls-1" d="M40,0C17.94,0,0,17.94,0,40s17.94,40,40,40,40-17.94,40-40S62.06,0,40,0ZM40,78.95C18.52,78.95,1.05,61.48,1.05,40S18.52,1.05,40,1.05s38.95,17.47,38.95,38.95-17.47,38.95-38.95,38.95ZM21.24,20.36l17.03,17.03-.74.74-17.06-17.06-.08,6.63h-1.05s.09-7.89.09-7.89c0-.14.06-.27.16-.37.1-.1.27-.13.37-.15l7.69.09v1.05s-6.41-.08-6.41-.08ZM60.93,53.45h1.05s-.09,7.89-.09,7.89c0,.14-.06.27-.16.37-.1.1-.23.15-.37.15h0l-7.69-.09v-1.05s6.41.08,6.41.08l-17.03-17.03.74-.74,17.06,17.06.08-6.63ZM62.09,16.68l.74.74-17.06,17.06,6.63.08v1.05s-7.89-.09-7.89-.09c-.14,0-.27-.06-.37-.16-.1-.1-.15-.23-.15-.37l.09-7.69h1.05s-.08,6.41-.08,6.41l17.03-17.03ZM37.76,42.09c.1.1.15.23.15.37l-.09,7.69h-1.05s.08-6.41.08-6.41l-17.03,17.03-.74-.74,17.06-17.06-6.63-.08v-1.05s7.89.09,7.89.09c.14,0,.27.06.37.16Z"/></svg>