<?xml version="1.0" encoding="UTF-8"?><svg id="device" xmlns="http://www.w3.org/2000/svg" viewBox="0 0 80 80"><defs><style>.cls-1{fill:#07182d;}</style></defs><g id="Layer_4"><path class="cls-1" d="M11.47,42.72s.06.03.06.06v2.26s-.03.06-.06.06h-2.51s-.06-.03-.06-.06v-2.26s.03-.06.06-.06h.6v-.63h1.31v.63h.6ZM28.64,37.36v.63h1.31v-.63h.6s.06-.03.06-.06v-2.26s-.03-.06-.06-.06h-2.51s-.06.03-.06.06v2.26s.03.06.06.06h.6ZM15.64,42.72v-.63h-1.31v.63h-.6s-.06.03-.06.06v2.26s.03.06.06.06h2.51s.06-.03.06-.06v-2.26s-.03-.06-.06-.06h-.6ZM23.27,46.97s-.06.03-.06.06v2.26s.03.06.06.06h.6v.63h1.31v-.63h.6s.06-.03.06-.06v-2.26s-.03-.06-.06-.06h-2.51ZM25.18,42.72v-.63h-1.31v.63h-.6s-.06.03-.06.06v2.26s.03.06.06.06h2.51s.06-.03.06-.06v-2.26s-.03-.06-.06-.06h-.6ZM28.04,46.97s-.06.03-.06.06v2.26s.03.06.06.06h.6v.63h1.31v-.63h.6s.06-.03.06-.06v-2.26s-.03-.06-.06-.06h-2.51ZM20.41,42.72v-.63h-1.31v.63h-.6s-.06.03-.06.06v2.26s.03.06.06.06h2.51s.06-.03.06-.06v-2.26s-.03-.06-.06-.06h-.6ZM18.5,46.97s-.06.03-.06.06v2.26s.03.06.06.06h.6v.63h1.31v-.63h.6s.06-.03.06-.06v-2.26s-.03-.06-.06-.06h-2.51ZM38.18,37.36v.63h1.31v-.63h.6s.06-.03.06-.06v-2.26s-.03-.06-.06-.06h-2.51s-.06.03-.06.06v2.26s.03.06.06.06h.6ZM35.32,33.11s.06-.03.06-.06v-2.26s-.03-.06-.06-.06h-.6v-.63h-1.31v.63h-.6s-.06.03-.06.06v2.26s.03.06.06.06h2.51ZM33.41,37.36v.63h1.31v-.63h.6s.06-.03.06-.06v-2.26s-.03-.06-.06-.06h-2.51s-.06.03-.06.06v2.26s.03.06.06.06h.6ZM40.09,33.11s.06-.03.06-.06v-2.26s-.03-.06-.06-.06h-.6v-.63h-1.31v.63h-.6s-.06.03-.06.06v2.26s.03.06.06.06h2.51ZM47.73,37.36v.63h1.31v-.63h.6s.06-.03.06-.06v-2.26s-.03-.06-.06-.06h-2.51s-.06.03-.06.06v2.26s.03.06.06.06h.6ZM49.64,33.11s.06-.03.06-.06v-2.26s-.03-.06-.06-.06h-.6v-.63h-1.31v.63h-.6s-.06.03-.06.06v2.26s.03.06.06.06h2.51ZM44.87,33.11s.06-.03.06-.06v-2.26s-.03-.06-.06-.06h-.6v-.63h-1.31v.63h-.6s-.06.03-.06.06v2.26s.03.06.06.06h2.51ZM42.95,37.36v.63h1.31v-.63h.6s.06-.03.06-.06v-2.26s-.03-.06-.06-.06h-2.51s-.06.03-.06.06v2.26s.03.06.06.06h.6ZM13.73,46.97s-.06.03-.06.06v2.26s.03.06.06.06h.6v.63h1.31v-.63h.6s.06-.03.06-.06v-2.26s-.03-.06-.06-.06h-2.51ZM29.95,42.72v-.63h-1.31v.63h-.6s-.06.03-.06.06v2.26s.03.06.06.06h2.51s.06-.03.06-.06v-2.26s-.03-.06-.06-.06h-.6ZM56.67,46.97s-.06.03-.06.06v2.26s.03.06.06.06h.6v.63h1.31v-.63h.6s.06-.03.06-.06v-2.26s-.03-.06-.06-.06h-2.51ZM75.79,52.5h-2.19s-.08-.02-.12-.02c-.04,0-.07.02-.11.02H6.5s-.03,0-.04,0c-.01,0-.03,0-.04,0h-2.36c-.29,0-.55-.27-.55-.55v-11.92s0-.02,0-.03c0-.01,0-.02,0-.03v-11.92c0-.29.27-.55.55-.55h2.36s.03,0,.04,0c.01,0,.03,0,.04,0h45.15v-.59c0-.53.43-.96.96-.96h21.68c.53,0,.96.43.96.96v.59h.55c.39,0,.7.32.7.7v11.62c0,.06-.02.12-.04.18.02.06.04.11.04.18v11.62c0,.39-.32.7-.7.7ZM5.94,47.89c-.75-1.21-1.21-2.95-1.4-5.27v8.84h1.4v-3.58ZM5.94,28.53h-1.4v9.17c.2-2.34.71-3.98,1.4-5.11v-4.06ZM6.98,31.35c.8-.7,1.71-.99,2.58-1.05v-.19h1.31v.63h.6s.06.03.06.06v2.26s-.03.06-.06.06h-1.52v.27c-1.95,0-2.35,3.6-2.39,6.09h44.1v-10.94H6.98v2.82ZM72.9,42.74h-8.92s.03.01.03.03v2.26s-.03.06-.06.06h-2.51s-.06-.03-.06-.06v-2.26s.02-.02.03-.03h-2.21s.03.01.03.03v2.26s-.03.06-.06.06h-2.51s-.06-.03-.06-.06v-2.26s.02-.02.03-.03h-2.21s.03.01.03.03v2.26s-.03.06-.06.06h-2.51s-.06-.03-.06-.06v-2.26s.03-.06.06-.06h.58c-.47-.07-.83-.45-.83-.94v-1.26H7.55c.08,6.37,1.63,6.39,2.39,6.39v.05h1.52s.06.03.06.06v2.26s-.03.06-.06.06h-.6v.63h-.92v.05c-1.19,0-2.18-.3-2.97-.93v2.38h65.92v-8.72ZM74.21,41.71v-14.73h-21.6v14.73h21.6ZM75.46,40.52h-.21v1.26c0,.53-.43.96-.96.96h-.35v8.72h1.53v-10.94ZM75.46,28.53h-.21v10.94h.21v-10.94ZM61.44,46.97s-.06.03-.06.06v2.26s.03.06.06.06h.6v.63h1.31v-.63h.6s.06-.03.06-.06v-2.26s-.03-.06-.06-.06h-2.51ZM78.97,50.14h1.03v-3.21h-1.03v3.21ZM78.97,43.72h1.03v-3.21h-1.03v3.21ZM78.97,30.89h1.03v-3.21h-1.03v3.21ZM80,24.4c0-.28-.3-.58-.58-.58h-3.03v1.03h3.62v-.46h0ZM78.97,37.31h1.03v-3.21h-1.03v3.21ZM78.97,55.14h-2.76v1.03h3.21c.29,0,.59-.3.59-.59v-2.24h-1.03v1.8ZM34.72,42.72v-.63h-1.31v.63h-.6s-.06.03-.06.06v2.26s.03.06.06.06h2.51s.06-.03.06-.06v-2.26s-.03-.06-.06-.06h-.6ZM37.58,46.97s-.06.03-.06.06v2.26s.03.06.06.06h.6v.63h1.31v-.63h.6s.06-.03.06-.06v-2.26s-.03-.06-.06-.06h-2.51ZM51.9,46.97s-.06.03-.06.06v2.26s.03.06.06.06h.6v.63h1.31v-.63h.6s.06-.03.06-.06v-2.26s-.03-.06-.06-.06h-2.51ZM39.5,42.72v-.63h-1.31v.63h-.6s-.06.03-.06.06v2.26s.03.06.06.06h2.51s.06-.03.06-.06v-2.26s-.03-.06-.06-.06h-.6ZM32.81,46.97s-.06.03-.06.06v2.26s.03.06.06.06h.6v.63h1.31v-.63h.6s.06-.03.06-.06v-2.26s-.03-.06-.06-.06h-2.51ZM47.13,46.97s-.06.03-.06.06v2.26s.03.06.06.06h.6v.63h1.31v-.63h.6s.06-.03.06-.06v-2.26s-.03-.06-.06-.06h-2.51ZM49.04,42.72v-.63h-1.31v.63h-.6s-.06.03-.06.06v2.26s.03.06.06.06h2.51s.06-.03.06-.06v-2.26s-.03-.06-.06-.06h-.6ZM42.35,46.97s-.06.03-.06.06v2.26s.03.06.06.06h.6v.63h1.31v-.63h.6s.06-.03.06-.06v-2.26s-.03-.06-.06-.06h-2.51ZM44.27,42.72v-.63h-1.31v.63h-.6s-.06.03-.06.06v2.26s.03.06.06.06h2.51s.06-.03.06-.06v-2.26s-.03-.06-.06-.06h-.6ZM30.55,33.11s.06-.03.06-.06v-2.26s-.03-.06-.06-.06h-.6v-.63h-1.31v.63h-.6s-.06.03-.06.06v2.26s.03.06.06.06h2.51ZM0,24.41v1.07h1.03v-.62h1.58v-1.03H.59C.3,23.82,0,24.12,0,24.41ZM1.03,54.34H0v1.25c0,.29.3.59.59.59h1.85v-1.03h-1.41v-.8ZM41.1,23.82h-3.21v1.03h3.21v-1.03ZM5.65,56.18h3.21v-1.03h-3.21v1.03ZM12.06,56.18h3.21v-1.03h-3.21v1.03ZM1.03,47.93H0v3.21h1.03v-3.21ZM24.89,56.18h3.21v-1.03h-3.21v1.03ZM18.48,56.18h3.21v-1.03h-3.21v1.03ZM47.52,23.82h-3.21v1.03h3.21v-1.03ZM15.45,23.82h-3.21v1.03h3.21v-1.03ZM9.03,23.82h-3.21v1.03h3.21v-1.03ZM1.03,28.69H0v3.21h1.03v-3.21ZM21.86,23.82h-3.21v1.03h3.21v-1.03ZM28.27,23.82h-3.21v1.03h3.21v-1.03ZM34.69,23.82h-3.21v1.03h3.21v-1.03ZM1.03,41.52H0v3.21h1.03v-3.21ZM1.03,35.1H0v3.21h1.03v-3.21ZM63.38,56.18h3.21v-1.03h-3.21v1.03ZM8.95,34.99s-.06.03-.06.06v2.26s.03.06.06.06h.6v.63h1.31v-.63h.6s.06-.03.06-.06v-2.26s-.03-.06-.06-.06h-2.51ZM25.78,33.11s.06-.03.06-.06v-2.26s-.03-.06-.06-.06h-.6v-.63h-1.31v.63h-.6s-.06.03-.06.06v2.26s.03.06.06.06h2.51ZM14.33,37.36v.63h1.31v-.63h.6s.06-.03.06-.06v-2.26s-.03-.06-.06-.06h-2.51s-.06.03-.06.06v2.26s.03.06.06.06h.6ZM69.79,56.18h3.21v-1.03h-3.21v1.03ZM16.24,33.11s.06-.03.06-.06v-2.26s-.03-.06-.06-.06h-.6v-.63h-1.31v.63h-.6s-.06.03-.06.06v2.26s.03.06.06.06h2.51ZM19.1,37.36v.63h1.31v-.63h.6s.06-.03.06-.06v-2.26s-.03-.06-.06-.06h-2.51s-.06.03-.06.06v2.26s.03.06.06.06h.6ZM23.87,37.36v.63h1.31v-.63h.6s.06-.03.06-.06v-2.26s-.03-.06-.06-.06h-2.51s-.06.03-.06.06v2.26s.03.06.06.06h.6ZM21.01,33.11s.06-.03.06-.06v-2.26s-.03-.06-.06-.06h-.6v-.63h-1.31v.63h-.6s-.06.03-.06.06v2.26s.03.06.06.06h2.51ZM31.31,56.18h3.21v-1.03h-3.21v1.03ZM56.96,56.18h3.21v-1.03h-3.21v1.03ZM60.35,23.82h-3.21v1.03h3.21v-1.03ZM53.93,23.82h-3.21v1.03h3.21v-1.03ZM37.72,56.18h3.21v-1.03h-3.21v1.03ZM44.13,56.18h3.21v-1.03h-3.21v1.03ZM50.55,56.18h3.21v-1.03h-3.21v1.03ZM73.18,23.82h-3.21v1.03h3.21v-1.03ZM66.76,23.82h-3.21v1.03h3.21v-1.03Z"/></g></svg>