<?xml version="1.0" encoding="UTF-8"?><svg id="device" xmlns="http://www.w3.org/2000/svg" viewBox="0 0 80 80"><defs><style>.cls-1{fill:#07182d;}</style></defs><g id="Layer_4"><path class="cls-1" d="M77.91,0H2.09C.94,0,0,.94,0,2.09v75.83c0,1.15.94,2.09,2.09,2.09h75.83c1.15,0,2.09-.94,2.09-2.09V2.09c0-1.15-.94-2.09-2.09-2.09ZM78.95,77.91c0,.57-.46,1.03-1.03,1.03H2.09c-.57,0-1.03-.46-1.03-1.03V2.09c0-.57.46-1.03,1.03-1.03h75.83c.57,0,1.03.46,1.03,1.03v75.83ZM14.85,35.07c-.1-.1-.15-.23-.15-.37,0-.14.06-.27.16-.37l5.44-5.31.73.75-4.51,4.41h23.8v1.05h-23.84l4.57,4.68-.75.73-5.44-5.57ZM16.52,50.61h23.8v1.05h-23.84l4.57,4.68-.75.73-5.44-5.57c-.1-.1-.15-.23-.15-.37,0-.14.06-.27.16-.37l5.44-5.31.73.75-4.51,4.41ZM65.19,28.23c.1.1.16.23.16.37,0,.14-.05.27-.15.37l-5.44,5.57-.75-.73,4.57-4.68h-23.84v-1.05h23.8l-4.51-4.41.73-.75,5.44,5.31ZM65.19,44.67c.1.1.16.23.16.37,0,.14-.05.27-.15.37l-5.44,5.57-.75-.73,4.57-4.68h-23.84v-1.05h23.8l-4.51-4.41.73-.75,5.44,5.31Z"/></g></svg>