<?xml version="1.0" encoding="UTF-8"?><svg id="modifiers" xmlns="http://www.w3.org/2000/svg" viewBox="0 0 80 80"><defs><style>.cls-1{fill:#07182d;}</style></defs><path class="cls-1" d="M77.91,0H2.09C.94,0,0,.94,0,2.09v75.83c0,1.15.94,2.09,2.09,2.09h75.83c1.15,0,2.09-.94,2.09-2.09V2.09c0-1.15-.94-2.09-2.09-2.09ZM78.95,77.91c0,.57-.46,1.03-1.03,1.03H2.09c-.57,0-1.03-.46-1.03-1.03V2.09c0-.57.46-1.03,1.03-1.03h75.83c.57,0,1.03.46,1.03,1.03v75.83ZM66.03,21.46h-14c-.68,0-1.24.55-1.24,1.24v7.81c0,.68.55,1.24,1.24,1.24h14c.68,0,1.24-.55,1.24-1.24v-7.81c0-.68-.55-1.24-1.24-1.24ZM66.21,30.5c0,.1-.08.18-.18.18h-14c-.1,0-.18-.08-.18-.18v-7.81c0-.1.08-.18.18-.18h14c.1,0,.18.08.18.18v7.81ZM66.03,47.87h-14c-.68,0-1.24.55-1.24,1.24v7.81c0,.68.55,1.24,1.24,1.24h14c.68,0,1.24-.55,1.24-1.24v-7.81c0-.68-.55-1.24-1.24-1.24ZM66.21,56.91c0,.1-.08.18-.18.18h-14c-.1,0-.18-.08-.18-.18v-7.81c0-.1.08-.18.18-.18h14c.1,0,.18.08.18.18v7.81ZM65.98,34.8h-7.71c-.71,0-1.28.58-1.28,1.28v7.71c0,.71.58,1.28,1.28,1.28h7.71c.71,0,1.28-.58,1.28-1.28v-7.71c0-.71-.58-1.28-1.28-1.28ZM66.21,43.79c0,.13-.1.23-.23.23h-7.71c-.13,0-.23-.1-.23-.23v-7.71c0-.13.1-.23.23-.23h7.71c.13,0,.23.1.23.23v7.71ZM46.48,47.87h-3.54c-.07-.92-.21-1.85-.43-2.79h10.51c.71,0,1.28-.58,1.28-1.28v-7.71c0-.71-.58-1.28-1.28-1.28h-16.09s-.04.01-.06.01c-.76-.81-1.57-1.57-2.43-2.26-.04-.03-.09-.04-.14-.06-.13-.05-.28-.07-.41,0-.45.21-.37.46-.03,1.66.02.07.04.15.07.24.31,1.08.91,3.29.97,4.65.02.45-.02.81-.16,1-.03.04-.05.05-.11.06-1.03.05-1.92-.48-2.67-1.57-.03-.04-.05-.1-.08-.14-1.08-1.64-1.69-4.11-1.93-6.64h16.57c.73,0,1.32-.59,1.32-1.32v-7.64c0-.73-.59-1.32-1.32-1.32h-14.52c.39-.49.72-.93.92-1.34.08-.16.26-.53.02-.85-.07-.09-.27-.3-.67-.23-.04,0-.09.02-.13.04-1.15.53-2.24,1.12-3.28,1.77-.5.31-.97.63-1.44.96-5.92,4.19-9.76,10.31-10.62,16.89-.08.62-.14,1.25-.16,1.88-.04.83-.04,1.67.02,2.51-.88-.48-1.5-1.14-1.85-1.98-.53-1.26-.4-2.88.36-4.54.11-.25.02-.55-.23-.68-.24-.13-.54-.06-.69.18-2.01,3.1-3.04,6.41-3.12,9.63-.09,3.58,1.01,7.04,3.31,9.95,3.15,3.98,7.92,6.13,13.09,6.13.05,0,.11,0,.16,0,2.17-.02,4.4-.41,6.62-1.2,1.85-.66,3.3-1.5,4.46-2.43h7.73c.74,0,1.35-.61,1.35-1.35v-7.58c0-.74-.61-1.35-1.35-1.35ZM53.03,35.85c.13,0,.23.1.23.23v7.71c0,.13-.1.23-.23.23h-10.79s-.03-.08-.04-.11c-.06-.18-.12-.36-.18-.55-.06-.19-.12-.37-.19-.56-.09-.25-.19-.5-.29-.75-.04-.1-.08-.2-.12-.3-.13-.31-.27-.62-.42-.92,0,0,0-.02-.01-.03-.04-.09-.09-.18-.13-.27-.24-.48-.49-.96-.77-1.43-.66-1.14-1.43-2.23-2.28-3.25h15.23ZM46.51,22.51c.15,0,.27.12.27.27v7.64c0,.15-.12.27-.27.27h-16.63c-.03-.53-.04-1.06-.04-1.58,0-.54.02-1.07.05-1.58,0-.03,0-.05,0-.08.04-.52.09-1.02.15-1.49,0-.04.01-.09.02-.13.15-.97.36-1.82.63-2.45.04-.1.1-.2.16-.3.09-.16.18-.31.28-.46.02-.04.04-.07.07-.11h15.31ZM38.47,56.98c-.09.08-.16.16-.25.24,0,0,0,0,0,.01-1.17.97-2.59,1.76-4.27,2.36-.1.03-.19.06-.29.09-3.57,1.21-7.18,1.35-10.41.5-3.15-.83-5.95-2.58-8-5.17-3.39-4.29-4-9.87-1.82-15.17.04.6.17,1.17.39,1.69.56,1.33,1.68,2.34,3.25,2.91.17.06.36.03.51-.08.14-.11.22-.29.2-.47-.09-.78-.13-1.54-.13-2.3-.01-1.38.12-2.72.37-4.02,1.16-6.09,4.98-11.15,9.62-14.59.46-.34.93-.67,1.41-.98.74-.48,1.48-.93,2.24-1.33-.05.07-.11.14-.16.21-.2.25-.41.53-.61.8,0,0,0,0,0,0,0,.01-.01.02-.02.03-.14.19-.27.39-.4.59-.02.03-.04.06-.06.09-.11.19-.22.38-.3.57-.09.21-.18.45-.26.7-.01.04-.03.09-.04.13-.05.16-.09.34-.14.51-.01.05-.03.1-.04.15-.13.55-.23,1.15-.31,1.8,0,.04,0,.08-.01.12-.03.23-.05.46-.07.69,0,.07-.01.14-.02.22,0,.05,0,.09-.01.14-.02.23-.03.47-.03.71,0,.18-.01.36-.02.55,0,.11,0,.23,0,.35-.02,3.27.53,6.91,1.86,9.35.14.26.29.51.45.74.81,1.17,1.81,1.83,2.93,1.98.22.03.43.05.66.04.38-.02.7-.19.92-.5.61-.84.35-2.66-.15-4.7-.12-.49-.25-.99-.4-1.5.43.4.84.82,1.23,1.25,0,0,0,.01.01.02,2.37,2.6,4.16,5.79,5.04,8.96,0,0,0,0,.01.02.26.94.43,1.88.52,2.8.04.36.06.72.07,1.07,0,.34,0,.67-.01,1,0,.07,0,.15,0,.22-.01.17-.04.33-.06.49-.04.35-.09.7-.15,1.04-.06.32-.13.64-.22.95-.07.23-.15.45-.24.67,0,.02-.02.04-.03.06-.06.17-.13.34-.2.51-.1.22-.21.44-.32.65-.1.18-.2.36-.3.53-.12.2-.25.39-.38.58-.13.18-.28.36-.42.54-.14.16-.27.33-.41.49-.22.23-.46.46-.71.67ZM46.78,50.29v6.51c0,.16-.13.3-.3.3h-6.59c1.25-1.31,2.01-2.73,2.47-4.08.22-.65.37-1.28.46-1.87.04-.23.06-.47.08-.71,0-.05.01-.1.02-.15,0-.08.02-.15.02-.23.02-.21.02-.42.03-.63,0-.17.02-.34.02-.52h3.48c.16,0,.3.13.3.3v1.07Z"/></svg>