<?xml version="1.0" encoding="UTF-8"?><svg id="device" xmlns="http://www.w3.org/2000/svg" viewBox="0 0 80 80"><defs><style>.cls-1{fill:#fff;}</style></defs><g id="Layer_4"><path class="cls-1" d="M74.42,36.05l-5.68-3.28c-.24-.13-.53-.14-.78,0l-5.68,3.28c-.24.14-.39.4-.39.67v6.56c0,.28.15.54.39.67l5.68,3.28c.12.07.25.1.39.1s.27-.03.39-.1l5.68-3.28c.24-.14.39-.4.39-.67v-6.56c0-.28-.15-.54-.39-.67ZM73.73,43.11l-5.38,3.11-5.38-3.11v-6.21l5.38-3.11,5.38,3.11v6.21ZM64.86,40c0,1.92,1.57,3.49,3.49,3.49s3.49-1.56,3.49-3.49-1.57-3.49-3.49-3.49-3.49,1.56-3.49,3.49ZM70.76,40c0,1.33-1.08,2.41-2.41,2.41s-2.41-1.08-2.41-2.41,1.08-2.41,2.41-2.41,2.41,1.08,2.41,2.41ZM40.82,39.01h.62v2.69h-2.87v-2.69h.58v-.69h1.68v.69ZM27.59,40.94h2.87v2.69h-.58v.69h-1.68v-.69h-.62v-2.69ZM46.05,39.01h.62v2.69h-2.87v-2.69h.58v-.69h1.68v.69ZM22.35,40.94h2.87v2.69h-.58v.69h-1.68v-.69h-.62v-2.69ZM24.61,36.37h.62v2.69h-2.87v-2.69h.58v-.69h1.68v.69ZM79.26,32.89h-2.4s-.09.02-.13.03c-.04,0-.08-.03-.12-.03h-.68c-1.9-2.02-4.59-3.29-7.57-3.29s-5.64,1.26-7.54,3.26v-.73h-3.77v.76h-3.84v-.76h-3.77v.76h-3.84v-.76h-3.77v.76h-3.84v-.76h-3.77v.76h-3.84v-.76h-3.77v.76h-3.84v-.76h-3.77v.76h-3.84v-.76h-3.77v.76h-3.84v-.76h-3.77v.76h-.54s-.03,0-.04,0c-.01,0-.03,0-.04,0H.58c-.3,0-.58.28-.58.58v13.07c0,.3.28.58.58.58h2.59s.03,0,.04,0c.01,0,.03,0,.04,0h.54v.76h3.77v-.76h3.84v.76h3.77v-.76h3.84v.76h3.77v-.76h3.84v.76h3.77v-.76h3.84v.76h3.77v-.76h3.84v.76h3.77v-.76h3.84v.76h3.77v-.76h3.83v.76h3.77v-.73s0,0,0,0c.2.22.42.42.64.62.04.03.07.07.11.1.21.19.44.36.67.53.05.04.1.08.16.12.21.15.43.29.66.42.08.05.15.1.23.14.2.11.4.21.6.31.11.06.23.12.34.17.17.07.34.13.51.2.16.06.32.13.48.18.12.04.24.06.36.1.22.06.44.13.67.17.03,0,.06,0,.09.01.65.13,1.32.2,2.01.2s1.36-.08,2.02-.2c.03,0,.06,0,.08-.01.23-.05.45-.11.68-.17.12-.03.24-.06.35-.1.17-.05.33-.12.49-.18.17-.06.34-.12.5-.19.12-.05.23-.11.35-.17.2-.1.4-.19.6-.3.08-.05.16-.1.24-.14.22-.13.44-.27.65-.42.05-.04.11-.08.16-.12.23-.17.45-.34.67-.53.04-.03.07-.07.11-.1.22-.2.43-.4.64-.62.01-.01.02-.02.03-.03h.69s.08-.02.12-.03c.04,0,.08.03.13.03h2.4c.41,0,.74-.33.74-.74v-12.75c0-.41-.33-.74-.74-.74ZM2.67,46.04h-1.59v-12.07h1.59v12.07ZM3.75,45.27v-10.54h55.65c-.11.19-.22.38-.32.57,0,.02-.02.04-.03.05-.22.44-.41.89-.57,1.36,0,.02-.02.04-.02.07-.05.15-.09.31-.14.47-.04.15-.08.3-.12.45-.03.14-.06.27-.08.41-.04.19-.06.39-.09.58-.01.11-.03.22-.04.34-.03.32-.05.64-.05.96s.02.65.05.97c0,.1.02.2.04.3.03.22.06.43.1.64.02.12.05.24.07.36.04.19.09.37.14.55.04.12.07.25.11.37.06.19.13.37.2.55.1.25.2.49.31.73.05.1.09.19.14.29.09.17.19.34.28.51,0,0,0,0,0,0H3.75ZM68.35,49.32c-5.14,0-9.33-4.18-9.33-9.33s4.18-9.33,9.33-9.33,9.33,4.18,9.33,9.33-4.18,9.33-9.33,9.33ZM78.92,46.04h-1.73v-.57s.01-.03.02-.04c.48-.77.86-1.61,1.12-2.5.01-.05.02-.1.04-.14.1-.37.18-.74.24-1.12.02-.11.04-.22.05-.33.06-.43.09-.86.09-1.31,0,0,0-.01,0-.02,0,0,0,0,0,0h0c0-.45-.04-.9-.1-1.34-.01-.1-.03-.2-.05-.3-.06-.4-.15-.8-.26-1.19,0-.02-.01-.05-.02-.08-.27-.91-.66-1.77-1.15-2.56v-.57h1.73v12.07ZM56.43,36.37h.62v2.69h-2.87v-2.69h.58v-.69h1.68v.69ZM48.99,40.94h2.87v2.69h-.58v.69h-1.68v-.69h-.62v-2.69ZM51.24,36.37h.62v2.69h-2.87v-2.69h.58v-.69h1.68v.69ZM54.18,40.94h2.87v2.69h-.58v.69h-1.68v-.69h-.62v-2.69Z"/></g></svg>