<?xml version="1.0" encoding="UTF-8"?><svg id="modifiers" xmlns="http://www.w3.org/2000/svg" viewBox="0 0 80 80"><defs><style>.cls-1{fill:#07182d;}</style></defs><path class="cls-1" d="M39.44,34l-7.38-7.57.75-.73,6.48,6.64V11.7h1.05v20.68l6.86-6.69.74.75-7.75,7.57c-.1.1-.23.15-.37.15h0c-.14,0-.27-.06-.37-.16ZM80,40c0,22.06-17.94,40-40,40S0,62.06,0,40,17.94,0,40,0s40,17.94,40,40ZM78.95,40C78.95,18.52,61.48,1.05,40,1.05S1.05,18.52,1.05,40s17.47,38.95,38.95,38.95,38.95-17.47,38.95-38.95ZM58.97,46.15H21.03v-9.29h-1.05v9.37c0,.53.43.97.97.97h38.1c.53,0,.97-.43.97-.97v-9.37h-1.05v9.29ZM58.97,60.16H21.03v-9.29h-1.05v9.37c0,.53.43.97.97.97h38.1c.53,0,.97-.43.97-.97v-9.37h-1.05v9.29Z"/></svg>