<?xml version="1.0" encoding="UTF-8"?><svg id="modifiers" xmlns="http://www.w3.org/2000/svg" viewBox="0 0 80 80"><defs><style>.cls-1{fill:#07182d;}</style></defs><path class="cls-1" d="M77.91,0H2.09C.94,0,0,.94,0,2.09v75.82c0,1.15.94,2.09,2.09,2.09h75.83c1.15,0,2.09-.94,2.09-2.09V2.09c0-1.15-.94-2.09-2.09-2.09ZM78.95,77.91c0,.57-.46,1.04-1.03,1.04H2.09c-.57,0-1.03-.46-1.03-1.04V2.09c0-.57.46-1.04,1.03-1.04h75.83c.57,0,1.03.46,1.03,1.04v75.82ZM60.51,53.6h1.05s-.09,7.8-.09,7.8c0,.14-.06.27-.16.37-.1.1-.23.15-.37.15h0l-7.6-.09v-1.05s6.32.08,6.32.08l-15.33-15.33.74-.74,15.36,15.36.08-6.54ZM39.42,40.17c.1.1.15.23.15.37s-.06.27-.16.37l-5.44,5.31-.73-.75,4.52-4.41H11.4v-1.05h26.4l-4.57-4.68.75-.74,5.44,5.57ZM69.72,40.04c.1.1.15.23.15.37s-.06.27-.16.37l-5.44,5.31-.73-.75,4.51-4.41h-23.13v-1.05h23.17l-4.57-4.68.75-.74,5.44,5.57ZM43.99,35.64l14.64-15.74-6.03-.07v-1.05s7,.08,7,.08l.1-.11.12.11h.57c.14,0,.27.07.37.17.1.1.15.23.15.37l-.09,7.6h-1.05s.08-6.87.08-6.87l-15.1,16.23-.77-.72Z"/></svg>