<?xml version="1.0" encoding="UTF-8"?><svg id="modifiers" xmlns="http://www.w3.org/2000/svg" viewBox="0 0 80 80"><defs><style>.cls-1{fill:#07182d;}</style></defs><path class="cls-1" d="M55.59,24.35c-2.02-2.02-4.38-3.61-7.01-4.72l.41-.97c2.75,1.16,5.22,2.83,7.34,4.95,2.12,2.12,3.78,4.59,4.95,7.34l-.97.41c-1.11-2.62-2.7-4.98-4.72-7ZM24.42,24.35c2.03-2.02,4.38-3.61,7.01-4.72l-.41-.97c-2.75,1.16-5.22,2.83-7.34,4.95-2.12,2.12-3.79,4.59-4.95,7.34l.97.41c1.11-2.62,2.7-4.98,4.72-7ZM19.69,48.49l-.97.41c1.16,2.75,2.83,5.21,4.95,7.33s4.59,3.78,7.34,4.95l.41-.97c-2.62-1.11-4.98-2.7-7.01-4.72s-3.61-4.38-4.72-7ZM55.59,55.5c-2.02,2.02-4.38,3.61-7.01,4.72l.41.97c2.75-1.16,5.22-2.83,7.34-4.95,2.12-2.12,3.78-4.59,4.95-7.33l-.97-.41c-1.11,2.62-2.7,4.98-4.72,7ZM40,26c7.68,0,13.93,6.24,13.93,13.92s-6.25,13.92-13.93,13.92-13.93-6.24-13.93-13.92,6.25-13.92,13.93-13.92ZM40,27.05c-7.1,0-12.87,5.77-12.87,12.87s5.78,12.86,12.87,12.86,12.87-5.77,12.87-12.86-5.78-12.87-12.87-12.87ZM66.68,33.94l-.75.74,4.61,4.72h-14.62v1.05h14.57l-4.55,4.44.74.75,5.48-5.35c.1-.1.16-.23.16-.37s-.05-.27-.15-.37l-5.48-5.61ZM40.55,70.31v-14.62h-1.05v14.57l-4.44-4.56-.75.74,5.35,5.48c.1.1.23.16.37.16h0c.14,0,.27-.05.37-.15l5.61-5.48-.74-.75-4.72,4.61ZM24.16,40.46v-1.05h-14.57l4.55-4.44-.74-.75-5.48,5.35c-.1.1-.16.23-.16.37s.05.27.15.37l5.48,5.61.75-.74-4.61-4.72h14.62ZM39.6,9.12v14.91h1.05v-14.86l4.44,4.64.76-.73-5.35-5.59c-.1-.1-.23-.16-.37-.16-.14.04-.28.05-.38.15l-5.61,5.59.74.75,4.72-4.69ZM80,2.09v75.82c0,1.15-.94,2.09-2.09,2.09H2.09c-1.15,0-2.09-.94-2.09-2.09V2.09C0,.94.94,0,2.09,0h75.82c1.15,0,2.09.94,2.09,2.09ZM78.95,2.09c0-.57-.46-1.04-1.04-1.04H2.09c-.57,0-1.04.46-1.04,1.04v75.82c0,.57.46,1.04,1.04,1.04h75.82c.57,0,1.04-.46,1.04-1.04V2.09Z"/></svg>