<?xml version="1.0" encoding="UTF-8"?><svg id="device" xmlns="http://www.w3.org/2000/svg" viewBox="0 0 80 80"><defs><style>.cls-1{fill:#07182d;}</style></defs><g id="Layer_4"><path class="cls-1" d="M80,25.28c0-.3-.28-.58-.58-.58h-2.73s-.03,0-.04,0c-.01,0-.03,0-.04,0H3.25s-.03,0-.04,0c-.01,0-.03,0-.04,0H.58c-.3,0-.58.28-.58.58v13.07s0,.03,0,.04c0,.01,0,.03,0,.04v16.29c0,.3.29.58.58.58h2.58s.03,0,.05-.01c.02,0,.03.01.05.01h73.34s.03,0,.05-.01c.02,0,.03.01.05.01h2.72c.3,0,.59-.29.59-.59v-16.29s0-.03,0-.04c0-.01,0-.03,0-.04v-13.07ZM78.92,37.84h-1.73v-12.07h1.73v12.07ZM76.11,37.84H3.75v-12.07h72.36v12.07ZM2.67,25.77v12.07h-1.59v-12.07h1.59ZM1.08,38.93h1.59v15.3h-1.59v-15.3ZM3.75,38.93h72.36v15.3H3.75v-15.3ZM77.19,54.23v-15.3h1.73v15.3h-1.73ZM7.56,30.29v-1.34c0-.24.19-.43.43-.43h7.49c.24,0,.43.19.43.43v1.34c0,.24-.19.43-.43.43h-7.49c-.24,0-.43-.19-.43-.43ZM17.19,30.29v-1.34c0-.24.19-.43.43-.43h2.48c.24,0,.43.19.43.43v1.34c0,.24-.19.43-.43.43h-2.48c-.24,0-.43-.19-.43-.43ZM24.81,30.29v-1.34c0-.24.19-.43.43-.43h7.49c.24,0,.43.19.43.43v1.34c0,.24-.19.43-.43.43h-7.49c-.24,0-.43-.19-.43-.43ZM34.44,30.29v-1.34c0-.24.19-.43.43-.43h2.48c.24,0,.43.19.43.43v1.34c0,.24-.19.43-.43.43h-2.48c-.24,0-.43-.19-.43-.43ZM42.05,30.29v-1.34c0-.24.19-.43.43-.43h7.49c.24,0,.43.19.43.43v1.34c0,.24-.19.43-.43.43h-7.49c-.24,0-.43-.19-.43-.43ZM51.68,30.29v-1.34c0-.24.19-.43.43-.43h2.48c.24,0,.43.19.43.43v1.34c0,.24-.19.43-.43.43h-2.48c-.24,0-.43-.19-.43-.43ZM59.29,30.29v-1.34c0-.24.19-.43.43-.43h7.49c.24,0,.43.19.43.43v1.34c0,.24-.19.43-.43.43h-7.49c-.24,0-.43-.19-.43-.43ZM68.92,30.29v-1.34c0-.24.19-.43.43-.43h2.48c.24,0,.43.19.43.43v1.34c0,.24-.19.43-.43.43h-2.48c-.24,0-.43-.19-.43-.43ZM7.56,34.67v-1.34c0-.24.19-.43.43-.43h7.49c.24,0,.43.19.43.43v1.34c0,.24-.19.43-.43.43h-7.49c-.24,0-.43-.19-.43-.43ZM17.19,34.67v-1.34c0-.24.19-.43.43-.43h2.48c.24,0,.43.19.43.43v1.34c0,.24-.19.43-.43.43h-2.48c-.24,0-.43-.19-.43-.43ZM24.81,34.67v-1.34c0-.24.19-.43.43-.43h7.49c.24,0,.43.19.43.43v1.34c0,.24-.19.43-.43.43h-7.49c-.24,0-.43-.19-.43-.43ZM34.44,34.67v-1.34c0-.24.19-.43.43-.43h2.48c.24,0,.43.19.43.43v1.34c0,.24-.19.43-.43.43h-2.48c-.24,0-.43-.19-.43-.43ZM42.05,34.67v-1.34c0-.24.19-.43.43-.43h7.49c.24,0,.43.19.43.43v1.34c0,.24-.19.43-.43.43h-7.49c-.24,0-.43-.19-.43-.43ZM51.68,34.67v-1.34c0-.24.19-.43.43-.43h2.48c.24,0,.43.19.43.43v1.34c0,.24-.19.43-.43.43h-2.48c-.24,0-.43-.19-.43-.43ZM59.29,34.67v-1.34c0-.24.19-.43.43-.43h7.49c.24,0,.43.19.43.43v1.34c0,.24-.19.43-.43.43h-7.49c-.24,0-.43-.19-.43-.43ZM68.92,34.67v-1.34c0-.24.19-.43.43-.43h2.48c.24,0,.43.19.43.43v1.34c0,.24-.19.43-.43.43h-2.48c-.24,0-.43-.19-.43-.43ZM9.92,45.14v7.49c0,.24-.19.43-.43.43h-1.34c-.24,0-.43-.19-.43-.43v-7.49c0-.24.19-.43.43-.43h1.34c.24,0,.43.19.43.43ZM9.92,40.52v2.48c0,.24-.19.43-.43.43h-1.34c-.24,0-.43-.19-.43-.43v-2.48c0-.24.19-.43.43-.43h1.34c.24,0,.43.19.43.43ZM14.67,45.14v7.49c0,.24-.19.43-.43.43h-1.34c-.24,0-.43-.19-.43-.43v-7.49c0-.24.19-.43.43-.43h1.34c.24,0,.43.19.43.43ZM14.67,40.52v2.48c0,.24-.19.43-.43.43h-1.34c-.24,0-.43-.19-.43-.43v-2.48c0-.24.19-.43.43-.43h1.34c.24,0,.43.19.43.43ZM19.42,45.14v7.49c0,.24-.19.43-.43.43h-1.34c-.24,0-.43-.19-.43-.43v-7.49c0-.24.19-.43.43-.43h1.34c.24,0,.43.19.43.43ZM19.42,40.52v2.48c0,.24-.19.43-.43.43h-1.34c-.24,0-.43-.19-.43-.43v-2.48c0-.24.19-.43.43-.43h1.34c.24,0,.43.19.43.43ZM24.17,45.14v7.49c0,.24-.19.43-.43.43h-1.34c-.24,0-.43-.19-.43-.43v-7.49c0-.24.19-.43.43-.43h1.34c.24,0,.43.19.43.43ZM24.17,40.52v2.48c0,.24-.19.43-.43.43h-1.34c-.24,0-.43-.19-.43-.43v-2.48c0-.24.19-.43.43-.43h1.34c.24,0,.43.19.43.43ZM28.93,45.14v7.49c0,.24-.19.43-.43.43h-1.34c-.24,0-.43-.19-.43-.43v-7.49c0-.24.19-.43.43-.43h1.34c.24,0,.43.19.43.43ZM28.93,40.52v2.48c0,.24-.19.43-.43.43h-1.34c-.24,0-.43-.19-.43-.43v-2.48c0-.24.19-.43.43-.43h1.34c.24,0,.43.19.43.43ZM33.68,45.14v7.49c0,.24-.19.43-.43.43h-1.34c-.24,0-.43-.19-.43-.43v-7.49c0-.24.19-.43.43-.43h1.34c.24,0,.43.19.43.43ZM33.68,40.52v2.48c0,.24-.19.43-.43.43h-1.34c-.24,0-.43-.19-.43-.43v-2.48c0-.24.19-.43.43-.43h1.34c.24,0,.43.19.43.43ZM38.43,45.14v7.49c0,.24-.19.43-.43.43h-1.34c-.24,0-.43-.19-.43-.43v-7.49c0-.24.19-.43.43-.43h1.34c.24,0,.43.19.43.43ZM38.43,40.52v2.48c0,.24-.19.43-.43.43h-1.34c-.24,0-.43-.19-.43-.43v-2.48c0-.24.19-.43.43-.43h1.34c.24,0,.43.19.43.43ZM49.1,45.14v7.49c0,.24-.19.43-.43.43h-1.34c-.24,0-.43-.19-.43-.43v-7.49c0-.24.19-.43.43-.43h1.34c.24,0,.43.19.43.43ZM49.1,40.52v2.48c0,.24-.19.43-.43.43h-1.34c-.24,0-.43-.19-.43-.43v-2.48c0-.24.19-.43.43-.43h1.34c.24,0,.43.19.43.43ZM53.76,45.14v7.49c0,.24-.19.43-.43.43h-1.34c-.24,0-.43-.19-.43-.43v-7.49c0-.24.19-.43.43-.43h1.34c.24,0,.43.19.43.43ZM53.76,40.52v2.48c0,.24-.19.43-.43.43h-1.34c-.24,0-.43-.19-.43-.43v-2.48c0-.24.19-.43.43-.43h1.34c.24,0,.43.19.43.43ZM58.42,45.14v7.49c0,.24-.19.43-.43.43h-1.34c-.24,0-.43-.19-.43-.43v-7.49c0-.24.19-.43.43-.43h1.34c.24,0,.43.19.43.43ZM58.42,40.52v2.48c0,.24-.19.43-.43.43h-1.34c-.24,0-.43-.19-.43-.43v-2.48c0-.24.19-.43.43-.43h1.34c.24,0,.43.19.43.43ZM63.08,45.14v7.49c0,.24-.19.43-.43.43h-1.34c-.24,0-.43-.19-.43-.43v-7.49c0-.24.19-.43.43-.43h1.34c.24,0,.43.19.43.43ZM63.08,40.52v2.48c0,.24-.19.43-.43.43h-1.34c-.24,0-.43-.19-.43-.43v-2.48c0-.24.19-.43.43-.43h1.34c.24,0,.43.19.43.43ZM67.74,45.14v7.49c0,.24-.19.43-.43.43h-1.34c-.24,0-.43-.19-.43-.43v-7.49c0-.24.19-.43.43-.43h1.34c.24,0,.43.19.43.43ZM67.74,40.52v2.48c0,.24-.19.43-.43.43h-1.34c-.24,0-.43-.19-.43-.43v-2.48c0-.24.19-.43.43-.43h1.34c.24,0,.43.19.43.43ZM72.4,45.14v7.49c0,.24-.19.43-.43.43h-1.34c-.24,0-.43-.19-.43-.43v-7.49c0-.24.19-.43.43-.43h1.34c.24,0,.43.19.43.43ZM72.4,40.52v2.48c0,.24-.19.43-.43.43h-1.34c-.24,0-.43-.19-.43-.43v-2.48c0-.24.19-.43.43-.43h1.34c.24,0,.43.19.43.43Z"/></g></svg>