<?xml version="1.0" encoding="UTF-8"?><svg id="modifiers" xmlns="http://www.w3.org/2000/svg" viewBox="0 0 80 80"><defs><style>.cls-1{fill:#fff;}</style></defs><path class="cls-1" d="M77.91,0H2.09C.94,0,0,.94,0,2.09v75.83c0,1.15.94,2.09,2.09,2.09h75.83c1.15,0,2.09-.94,2.09-2.09V2.09c0-1.15-.94-2.09-2.09-2.09ZM78.95,77.91c0,.57-.46,1.03-1.03,1.03H2.09c-.57,0-1.03-.46-1.03-1.03V2.09c0-.57.46-1.03,1.03-1.03h75.83c.57,0,1.03.46,1.03,1.03v75.83ZM23.18,17.64c1.8,0,3.26-1.46,3.26-3.26s-1.46-3.26-3.26-3.26-3.26,1.46-3.26,3.26,1.46,3.26,3.26,3.26ZM23.18,12.17c1.22,0,2.21.99,2.21,2.21s-.99,2.21-2.21,2.21-2.21-.99-2.21-2.21.99-2.21,2.21-2.21ZM18.16,27.35h-1.05v-5.94c0-1.88,1.53-3.41,3.41-3.41h5.45c1.88,0,3.41,1.53,3.41,3.41v5.94h-1.05v-5.94c0-1.3-1.06-2.36-2.36-2.36h-5.45c-1.3,0-2.36,1.06-2.36,2.36v5.94ZM61.7,34.63c0,1.8,1.46,3.26,3.26,3.26s3.26-1.46,3.26-3.26-1.46-3.26-3.26-3.26-3.26,1.46-3.26,3.26ZM67.17,34.63c0,1.22-.99,2.21-2.21,2.21s-2.21-.99-2.21-2.21.99-2.21,2.21-2.21,2.21.99,2.21,2.21ZM71.15,41.66v5.94h-1.05v-5.94c0-1.3-1.06-2.36-2.36-2.36h-5.45c-1.3,0-2.36,1.06-2.36,2.36v5.94h-1.05v-5.94c0-1.88,1.53-3.41,3.41-3.41h5.45c1.88,0,3.41,1.53,3.41,3.41ZM30.1,53.71c-1.8,0-3.27,1.46-3.27,3.26s1.46,3.26,3.27,3.26,3.26-1.46,3.26-3.26-1.46-3.26-3.26-3.26ZM30.1,59.18c-1.22,0-2.21-.99-2.21-2.21s.99-2.21,2.21-2.21,2.21.99,2.21,2.21-.99,2.21-2.21,2.21ZM36.29,64v5.94h-1.05v-5.94c0-1.3-1.06-2.36-2.36-2.36h-5.45c-1.3,0-2.36,1.06-2.36,2.36v5.94h-1.05v-5.94c0-1.88,1.53-3.41,3.41-3.41h5.45c1.88,0,3.41,1.53,3.41,3.41ZM16.67,50.14c1.3,3.06,3.15,5.81,5.51,8.18l-.74.74c-2.46-2.46-4.39-5.32-5.74-8.51-1.4-3.3-2.1-6.81-2.1-10.42s.71-7.12,2.1-10.42l.97.41c-1.34,3.17-2.02,6.54-2.02,10.01s.68,6.84,2.02,10.01ZM64.08,50.14l.97.41c-1.35,3.19-3.28,6.05-5.74,8.51s-5.32,4.39-8.51,5.74c-3.3,1.4-6.81,2.1-10.42,2.1v-1.05c3.47,0,6.84-.68,10.01-2.02,3.06-1.3,5.81-3.15,8.18-5.51s4.22-5.11,5.51-8.18ZM30.36,16.42l-.41-.97c3.3-1.4,6.81-2.1,10.42-2.1s7.12.71,10.42,2.1c3.19,1.35,6.05,3.28,8.51,5.74s4.39,5.32,5.74,8.51l-.97.41c-1.3-3.06-3.15-5.81-5.51-8.18s-5.11-4.22-8.18-5.51c-3.17-1.34-6.54-2.02-10.01-2.02s-6.84.68-10.01,2.02ZM33.72,49.31l17.45-10.07c.16-.09.26-.27.26-.46s-.1-.36-.26-.46l-17.45-10.07c-.16-.09-.36-.09-.53,0-.16.09-.26.27-.26.46v20.15c0,.19.1.36.26.46.08.05.17.07.26.07s.18-.02.26-.07ZM33.99,29.61l15.87,9.16-15.87,9.16v-18.33Z"/></svg>