<?xml version="1.0" encoding="UTF-8"?><svg id="modifiers" xmlns="http://www.w3.org/2000/svg" viewBox="0 0 80 80"><defs><style>.cls-1{fill:#fff;}</style></defs><path class="cls-1" d="M77.91,0H2.09C.94,0,0,.94,0,2.09v75.83c0,1.15.94,2.09,2.09,2.09h75.82c1.15,0,2.09-.94,2.09-2.09V2.09c0-1.15-.94-2.09-2.09-2.09ZM78.95,77.91c0,.57-.46,1.03-1.04,1.03H2.09c-.57,0-1.04-.46-1.04-1.03V2.09c0-.57.46-1.03,1.04-1.03h75.82c.57,0,1.04.46,1.04,1.03v75.83ZM61.33,55.96h1.05v10.52c0,.56-.46,1.02-1.02,1.02H18.56c-.56,0-1.02-.46-1.02-1.02v-10.52h1.05v10.52l42.77-.03-.03-10.5ZM35.2,52.03l4.08,4.39v-12.31h1.43v12.31s4.08-4.39,4.08-4.39l1.05.97-5.32,5.72c-.28.3-.76.3-1.05,0l-5.32-5.72,1.05-.97ZM36.46,40.05h-12.38V13.52h31.83v26.52h-12.38v-15.92h-7.07v15.92Z"/></svg>