<?xml version="1.0" encoding="UTF-8"?><svg id="device" xmlns="http://www.w3.org/2000/svg" viewBox="0 0 80 80"><defs><style>.cls-1{fill:#fff;}</style></defs><g id="Layer_4"><path class="cls-1" d="M79.04,1.79c0-.3-.28-.58-.58-.58h-.84v-.22c0-.55-.45-1-1-1h-22.47c-.55,0-1,.45-1,1v.22h-12.76s-.03,0-.04,0c-.01,0-.03,0-.04,0h-12.87s-.03,0-.04,0c-.01,0-.03,0-.04,0h-12.87s-.03,0-.04,0c-.01,0-.03,0-.04,0H1.54c-.3,0-.58.28-.58.58v2.68s0,.03,0,.04c0,.01,0,.03,0,.04v72.23s0,.03,0,.04c0,.01,0,.03,0,.04v2.55c0,.3.28.58.58.58h12.87s.03,0,.04,0c.01,0,.03,0,.04,0h12.87s.03,0,.04,0c.01,0,.03,0,.04,0h12.87s.03,0,.04,0c.01,0,.03,0,.04,0h12.87s.03,0,.04,0c.01,0,.03,0,.04,0h12.87s.06-.01.09-.02c.03,0,.06.02.09.02h12.06c.3,0,.58-.28.58-.58v-2.55s0-.03,0-.04c0-.01,0-.03,0-.04V4.56s0-.03,0-.04c0-.01,0-.03,0-.04V1.79ZM77.62,2.29h.34v1.69h-.34v-1.69ZM54.16,1.07h22.39v15.27h-22.39V1.07ZM40.89,2.29h11.88v1.69h-11.88v-1.69ZM52.77,5.06v71.24h-11.88V5.06h11.88ZM27.94,2.29h11.88v1.69h-11.88v-1.69ZM39.82,5.06v71.24h-11.88V5.06h11.88ZM14.99,2.29h11.88v1.69h-11.88v-1.69ZM26.87,5.06v71.24h-11.88V5.06h11.88ZM2.04,2.29h11.88v1.69H2.04v-1.69ZM13.92,5.06v71.24H2.04V5.06h11.88ZM2.04,77.37h11.88v1.56H2.04v-1.56ZM14.99,77.37h11.88v1.56h-11.88v-1.56ZM27.94,77.37h11.88v1.56h-11.88v-1.56ZM40.89,77.37h11.88v1.56h-11.88v-1.56ZM65.72,78.93h-11.88v-1.56h11.88v1.56ZM53.84,76.3V17.35c.1.03.2.06.32.06h2.39v3.78c0,.23.19.42.42.42h1.32c.23,0,.42-.19.42-.42v-3.78h2.16v3.78c0,.23.19.42.42.42h1.32c.23,0,.42-.19.42-.42v-3.78h2.7v58.88h-11.88ZM77.96,78.93h-11.07v-1.56h11.07v1.56ZM66.89,76.29V17.42h2.59v1.02h5.4v-1.02h1.74c.55,0,1-.45,1-1V5.06h.34v71.24h-11.07ZM75.42,61.89h-6.38c-.3,0-.58.29-.58.58v9.19c0,.3.29.58.58.58h6.38c.3,0,.58-.29.58-.58v-9.19c0-.3-.29-.58-.58-.58ZM74.93,71.18h-5.4v-8.22h5.4v8.22ZM75.42,48.58h-6.38c-.3,0-.58.29-.58.58v9.19c0,.3.29.58.58.58h6.38c.3,0,.58-.29.58-.58v-9.19c0-.3-.29-.58-.58-.58ZM74.93,57.87h-5.4v-8.22h5.4v8.22ZM75.42,35.43h-6.38c-.3,0-.58.29-.58.58v9.19c0,.3.29.58.58.58h6.38c.3,0,.58-.29.58-.58v-9.19c0-.3-.29-.58-.58-.58ZM74.93,44.72h-5.4v-8.21h5.4v8.21ZM75.42,22.27h-6.38c-.3,0-.58.29-.58.58v9.19c0,.3.29.58.58.58h6.38c.3,0,.58-.29.58-.58v-9.19c0-.3-.29-.58-.58-.58ZM74.93,31.56h-5.4v-8.21h5.4v8.21ZM4.74,72.13v-7.37c0-.23.19-.42.42-.42h1.32c.23,0,.42.19.42.42v7.37c0,.23-.19.42-.42.42h-1.32c-.23,0-.42-.19-.42-.42ZM4.74,62.65v-2.44c0-.23.19-.42.42-.42h1.32c.23,0,.42.19.42.42v2.44c0,.23-.19.42-.42.42h-1.32c-.23,0-.42-.19-.42-.42ZM4.74,55.15v-7.37c0-.23.19-.42.42-.42h1.32c.23,0,.42.19.42.42v7.37c0,.23-.19.42-.42.42h-1.32c-.23,0-.42-.19-.42-.42ZM4.74,45.67v-2.44c0-.23.19-.42.42-.42h1.32c.23,0,.42.19.42.42v2.44c0,.23-.19.42-.42.42h-1.32c-.23,0-.42-.19-.42-.42ZM4.74,38.17v-7.37c0-.23.19-.42.42-.42h1.32c.23,0,.42.19.42.42v7.37c0,.23-.19.42-.42.42h-1.32c-.23,0-.42-.19-.42-.42ZM4.74,28.69v-2.44c0-.23.19-.42.42-.42h1.32c.23,0,.42.19.42.42v2.44c0,.23-.19.42-.42.42h-1.32c-.23,0-.42-.19-.42-.42ZM4.74,21.19v-7.37c0-.23.19-.42.42-.42h1.32c.23,0,.42.19.42.42v7.37c0,.23-.19.42-.42.42h-1.32c-.23,0-.42-.19-.42-.42ZM4.74,11.71v-2.44c0-.23.19-.42.42-.42h1.32c.23,0,.42.19.42.42v2.44c0,.23-.19.42-.42.42h-1.32c-.23,0-.42-.19-.42-.42ZM9.06,72.13v-7.37c0-.23.19-.42.42-.42h1.32c.23,0,.42.19.42.42v7.37c0,.23-.19.42-.42.42h-1.32c-.23,0-.42-.19-.42-.42ZM9.06,62.65v-2.44c0-.23.19-.42.42-.42h1.32c.23,0,.42.19.42.42v2.44c0,.23-.19.42-.42.42h-1.32c-.23,0-.42-.19-.42-.42ZM9.06,55.15v-7.37c0-.23.19-.42.42-.42h1.32c.23,0,.42.19.42.42v7.37c0,.23-.19.42-.42.42h-1.32c-.23,0-.42-.19-.42-.42ZM9.06,45.67v-2.44c0-.23.19-.42.42-.42h1.32c.23,0,.42.19.42.42v2.44c0,.23-.19.42-.42.42h-1.32c-.23,0-.42-.19-.42-.42ZM9.06,38.17v-7.37c0-.23.19-.42.42-.42h1.32c.23,0,.42.19.42.42v7.37c0,.23-.19.42-.42.42h-1.32c-.23,0-.42-.19-.42-.42ZM9.06,28.69v-2.44c0-.23.19-.42.42-.42h1.32c.23,0,.42.19.42.42v2.44c0,.23-.19.42-.42.42h-1.32c-.23,0-.42-.19-.42-.42ZM9.06,21.19v-7.37c0-.23.19-.42.42-.42h1.32c.23,0,.42.19.42.42v7.37c0,.23-.19.42-.42.42h-1.32c-.23,0-.42-.19-.42-.42ZM9.06,11.71v-2.44c0-.23.19-.42.42-.42h1.32c.23,0,.42.19.42.42v2.44c0,.23-.19.42-.42.42h-1.32c-.23,0-.42-.19-.42-.42ZM17.69,72.13v-7.37c0-.23.19-.42.42-.42h1.32c.23,0,.42.19.42.42v7.37c0,.23-.19.42-.42.42h-1.32c-.23,0-.42-.19-.42-.42ZM17.69,62.65v-2.44c0-.23.19-.42.42-.42h1.32c.23,0,.42.19.42.42v2.44c0,.23-.19.42-.42.42h-1.32c-.23,0-.42-.19-.42-.42ZM17.69,55.15v-7.37c0-.23.19-.42.42-.42h1.32c.23,0,.42.19.42.42v7.37c0,.23-.19.42-.42.42h-1.32c-.23,0-.42-.19-.42-.42ZM17.69,45.67v-2.44c0-.23.19-.42.42-.42h1.32c.23,0,.42.19.42.42v2.44c0,.23-.19.42-.42.42h-1.32c-.23,0-.42-.19-.42-.42ZM17.69,38.17v-7.37c0-.23.19-.42.42-.42h1.32c.23,0,.42.19.42.42v7.37c0,.23-.19.42-.42.42h-1.32c-.23,0-.42-.19-.42-.42ZM17.69,28.69v-2.44c0-.23.19-.42.42-.42h1.32c.23,0,.42.19.42.42v2.44c0,.23-.19.42-.42.42h-1.32c-.23,0-.42-.19-.42-.42ZM17.69,21.19v-7.37c0-.23.19-.42.42-.42h1.32c.23,0,.42.19.42.42v7.37c0,.23-.19.42-.42.42h-1.32c-.23,0-.42-.19-.42-.42ZM17.69,11.71v-2.44c0-.23.19-.42.42-.42h1.32c.23,0,.42.19.42.42v2.44c0,.23-.19.42-.42.42h-1.32c-.23,0-.42-.19-.42-.42ZM22.01,72.13v-7.37c0-.23.19-.42.42-.42h1.32c.23,0,.42.19.42.42v7.37c0,.23-.19.42-.42.42h-1.32c-.23,0-.42-.19-.42-.42ZM22.01,62.65v-2.44c0-.23.19-.42.42-.42h1.32c.23,0,.42.19.42.42v2.44c0,.23-.19.42-.42.42h-1.32c-.23,0-.42-.19-.42-.42ZM22.01,55.15v-7.37c0-.23.19-.42.42-.42h1.32c.23,0,.42.19.42.42v7.37c0,.23-.19.42-.42.42h-1.32c-.23,0-.42-.19-.42-.42ZM22.01,45.67v-2.44c0-.23.19-.42.42-.42h1.32c.23,0,.42.19.42.42v2.44c0,.23-.19.42-.42.42h-1.32c-.23,0-.42-.19-.42-.42ZM22.01,38.17v-7.37c0-.23.19-.42.42-.42h1.32c.23,0,.42.19.42.42v7.37c0,.23-.19.42-.42.42h-1.32c-.23,0-.42-.19-.42-.42ZM22.01,28.69v-2.44c0-.23.19-.42.42-.42h1.32c.23,0,.42.19.42.42v2.44c0,.23-.19.42-.42.42h-1.32c-.23,0-.42-.19-.42-.42ZM22.01,21.19v-7.37c0-.23.19-.42.42-.42h1.32c.23,0,.42.19.42.42v7.37c0,.23-.19.42-.42.42h-1.32c-.23,0-.42-.19-.42-.42ZM22.01,11.71v-2.44c0-.23.19-.42.42-.42h1.32c.23,0,.42.19.42.42v2.44c0,.23-.19.42-.42.42h-1.32c-.23,0-.42-.19-.42-.42ZM30.64,72.13v-7.37c0-.23.19-.42.42-.42h1.32c.23,0,.42.19.42.42v7.37c0,.23-.19.42-.42.42h-1.32c-.23,0-.42-.19-.42-.42ZM30.64,62.65v-2.44c0-.23.19-.42.42-.42h1.32c.23,0,.42.19.42.42v2.44c0,.23-.19.42-.42.42h-1.32c-.23,0-.42-.19-.42-.42ZM30.64,55.15v-7.37c0-.23.19-.42.42-.42h1.32c.23,0,.42.19.42.42v7.37c0,.23-.19.42-.42.42h-1.32c-.23,0-.42-.19-.42-.42ZM30.64,45.67v-2.44c0-.23.19-.42.42-.42h1.32c.23,0,.42.19.42.42v2.44c0,.23-.19.42-.42.42h-1.32c-.23,0-.42-.19-.42-.42ZM30.64,38.17v-7.37c0-.23.19-.42.42-.42h1.32c.23,0,.42.19.42.42v7.37c0,.23-.19.42-.42.42h-1.32c-.23,0-.42-.19-.42-.42ZM30.64,28.69v-2.44c0-.23.19-.42.42-.42h1.32c.23,0,.42.19.42.42v2.44c0,.23-.19.42-.42.42h-1.32c-.23,0-.42-.19-.42-.42ZM30.64,21.19v-7.37c0-.23.19-.42.42-.42h1.32c.23,0,.42.19.42.42v7.37c0,.23-.19.42-.42.42h-1.32c-.23,0-.42-.19-.42-.42ZM30.64,11.71v-2.44c0-.23.19-.42.42-.42h1.32c.23,0,.42.19.42.42v2.44c0,.23-.19.42-.42.42h-1.32c-.23,0-.42-.19-.42-.42ZM34.96,72.13v-7.37c0-.23.19-.42.42-.42h1.32c.23,0,.42.19.42.42v7.37c0,.23-.19.42-.42.42h-1.32c-.23,0-.42-.19-.42-.42ZM34.96,62.65v-2.44c0-.23.19-.42.42-.42h1.32c.23,0,.42.19.42.42v2.44c0,.23-.19.42-.42.42h-1.32c-.23,0-.42-.19-.42-.42ZM34.96,55.15v-7.37c0-.23.19-.42.42-.42h1.32c.23,0,.42.19.42.42v7.37c0,.23-.19.42-.42.42h-1.32c-.23,0-.42-.19-.42-.42ZM34.96,45.67v-2.44c0-.23.19-.42.42-.42h1.32c.23,0,.42.19.42.42v2.44c0,.23-.19.42-.42.42h-1.32c-.23,0-.42-.19-.42-.42ZM34.96,38.17v-7.37c0-.23.19-.42.42-.42h1.32c.23,0,.42.19.42.42v7.37c0,.23-.19.42-.42.42h-1.32c-.23,0-.42-.19-.42-.42ZM34.96,28.69v-2.44c0-.23.19-.42.42-.42h1.32c.23,0,.42.19.42.42v2.44c0,.23-.19.42-.42.42h-1.32c-.23,0-.42-.19-.42-.42ZM34.96,21.19v-7.37c0-.23.19-.42.42-.42h1.32c.23,0,.42.19.42.42v7.37c0,.23-.19.42-.42.42h-1.32c-.23,0-.42-.19-.42-.42ZM34.96,11.71v-2.44c0-.23.19-.42.42-.42h1.32c.23,0,.42.19.42.42v2.44c0,.23-.19.42-.42.42h-1.32c-.23,0-.42-.19-.42-.42ZM43.59,72.13v-7.37c0-.23.19-.42.42-.42h1.32c.23,0,.42.19.42.42v7.37c0,.23-.19.42-.42.42h-1.32c-.23,0-.42-.19-.42-.42ZM43.59,62.65v-2.44c0-.23.19-.42.42-.42h1.32c.23,0,.42.19.42.42v2.44c0,.23-.19.42-.42.42h-1.32c-.23,0-.42-.19-.42-.42ZM43.59,55.15v-7.37c0-.23.19-.42.42-.42h1.32c.23,0,.42.19.42.42v7.37c0,.23-.19.42-.42.42h-1.32c-.23,0-.42-.19-.42-.42ZM43.59,45.67v-2.44c0-.23.19-.42.42-.42h1.32c.23,0,.42.19.42.42v2.44c0,.23-.19.42-.42.42h-1.32c-.23,0-.42-.19-.42-.42ZM43.59,38.17v-7.37c0-.23.19-.42.42-.42h1.32c.23,0,.42.19.42.42v7.37c0,.23-.19.42-.42.42h-1.32c-.23,0-.42-.19-.42-.42ZM43.59,28.69v-2.44c0-.23.19-.42.42-.42h1.32c.23,0,.42.19.42.42v2.44c0,.23-.19.42-.42.42h-1.32c-.23,0-.42-.19-.42-.42ZM43.59,21.19v-7.37c0-.23.19-.42.42-.42h1.32c.23,0,.42.19.42.42v7.37c0,.23-.19.42-.42.42h-1.32c-.23,0-.42-.19-.42-.42ZM43.59,11.71v-2.44c0-.23.19-.42.42-.42h1.32c.23,0,.42.19.42.42v2.44c0,.23-.19.42-.42.42h-1.32c-.23,0-.42-.19-.42-.42ZM47.91,72.13v-7.37c0-.23.19-.42.42-.42h1.32c.23,0,.42.19.42.42v7.37c0,.23-.19.42-.42.42h-1.32c-.23,0-.42-.19-.42-.42ZM47.91,62.65v-2.44c0-.23.19-.42.42-.42h1.32c.23,0,.42.19.42.42v2.44c0,.23-.19.42-.42.42h-1.32c-.23,0-.42-.19-.42-.42ZM47.91,55.15v-7.37c0-.23.19-.42.42-.42h1.32c.23,0,.42.19.42.42v7.37c0,.23-.19.42-.42.42h-1.32c-.23,0-.42-.19-.42-.42ZM47.91,45.67v-2.44c0-.23.19-.42.42-.42h1.32c.23,0,.42.19.42.42v2.44c0,.23-.19.42-.42.42h-1.32c-.23,0-.42-.19-.42-.42ZM47.91,38.17v-7.37c0-.23.19-.42.42-.42h1.32c.23,0,.42.19.42.42v7.37c0,.23-.19.42-.42.42h-1.32c-.23,0-.42-.19-.42-.42ZM47.91,28.69v-2.44c0-.23.19-.42.42-.42h1.32c.23,0,.42.19.42.42v2.44c0,.23-.19.42-.42.42h-1.32c-.23,0-.42-.19-.42-.42ZM47.91,21.19v-7.37c0-.23.19-.42.42-.42h1.32c.23,0,.42.19.42.42v7.37c0,.23-.19.42-.42.42h-1.32c-.23,0-.42-.19-.42-.42ZM47.91,11.71v-2.44c0-.23.19-.42.42-.42h1.32c.23,0,.42.19.42.42v2.44c0,.23-.19.42-.42.42h-1.32c-.23,0-.42-.19-.42-.42ZM58.7,64.75v7.37c0,.23-.19.42-.42.42h-1.32c-.23,0-.42-.19-.42-.42v-7.37c0-.23.19-.42.42-.42h1.32c.23,0,.42.19.42.42ZM58.7,60.2v2.44c0,.23-.19.42-.42.42h-1.32c-.23,0-.42-.19-.42-.42v-2.44c0-.23.19-.42.42-.42h1.32c.23,0,.42.19.42.42ZM58.7,47.78v7.37c0,.23-.19.42-.42.42h-1.32c-.23,0-.42-.19-.42-.42v-7.37c0-.23.19-.42.42-.42h1.32c.23,0,.42.19.42.42ZM58.7,43.22v2.44c0,.23-.19.42-.42.42h-1.32c-.23,0-.42-.19-.42-.42v-2.44c0-.23.19-.42.42-.42h1.32c.23,0,.42.19.42.42ZM58.7,30.8v7.37c0,.23-.19.42-.42.42h-1.32c-.23,0-.42-.19-.42-.42v-7.37c0-.23.19-.42.42-.42h1.32c.23,0,.42.19.42.42ZM58.7,26.25v2.44c0,.23-.19.42-.42.42h-1.32c-.23,0-.42-.19-.42-.42v-2.44c0-.23.19-.42.42-.42h1.32c.23,0,.42.19.42.42ZM63.02,64.75v7.37c0,.23-.19.42-.42.42h-1.32c-.23,0-.42-.19-.42-.42v-7.37c0-.23.19-.42.42-.42h1.32c.23,0,.42.19.42.42ZM63.02,60.2v2.44c0,.23-.19.42-.42.42h-1.32c-.23,0-.42-.19-.42-.42v-2.44c0-.23.19-.42.42-.42h1.32c.23,0,.42.19.42.42ZM63.02,47.78v7.37c0,.23-.19.42-.42.42h-1.32c-.23,0-.42-.19-.42-.42v-7.37c0-.23.19-.42.42-.42h1.32c.23,0,.42.19.42.42ZM63.02,43.22v2.44c0,.23-.19.42-.42.42h-1.32c-.23,0-.42-.19-.42-.42v-2.44c0-.23.19-.42.42-.42h1.32c.23,0,.42.19.42.42ZM63.02,30.8v7.37c0,.23-.19.42-.42.42h-1.32c-.23,0-.42-.19-.42-.42v-7.37c0-.23.19-.42.42-.42h1.32c.23,0,.42.19.42.42ZM63.02,26.25v2.44c0,.23-.19.42-.42.42h-1.32c-.23,0-.42-.19-.42-.42v-2.44c0-.23.19-.42.42-.42h1.32c.23,0,.42.19.42.42Z"/></g></svg>