<?xml version="1.0" encoding="UTF-8"?><svg id="modifiers" xmlns="http://www.w3.org/2000/svg" viewBox="0 0 80 80"><defs><style>.cls-1{fill:#07182d;}</style></defs><path class="cls-1" d="M64.02,25.17s0-.04,0-.07h0s0,0,0,0c-.04-2.3-2.1-4.37-5.53-5.98-3.31-1.71-8.59-3.15-17-3.31-.49-.01-.98-.02-1.48-.02s-.99,0-1.48.02c-8.36.15-13.64,1.58-16.95,3.28-3.5,1.63-5.59,3.74-5.59,6.07h0v10.05h0v19.6c0,5.26,10.55,9.37,24.02,9.37s24.02-4.12,24.02-9.37v-19.6h0v-9.99s0-.04,0-.06ZM20.3,21.09c.48-.34,1.05-.68,1.71-1.02,3.97-1.82,9.94-3.05,16.58-3.2.46,0,.92-.02,1.41-.02s.91,0,1.35.02c6.47.14,12.31,1.31,16.29,3.04,4.81,2.37,5.32,5.25,5.33,5.26h0c0,4.51-10.52,8.32-22.97,8.32s-22.91-3.79-22.97-8.29c.06-.28.54-2.2,3.26-4.11ZM62.97,54.83c0,4.51-10.52,8.32-22.97,8.32s-22.97-3.81-22.97-8.32v-7.26c2.99,3.85,12.01,6.57,22.97,6.57s19.98-2.73,22.97-6.57v7.26ZM62.97,44.77c0,4.51-10.52,8.32-22.97,8.32s-22.97-3.81-22.97-8.32v-6.73c2.99,3.85,12.01,6.57,22.97,6.57s19.98-2.73,22.97-6.57v6.73ZM62.97,35.22c0,4.51-10.52,8.32-22.97,8.32s-22.97-3.81-22.97-8.32h0v-7.25c2.98,3.85,12.01,6.58,22.97,6.58s19.98-2.73,22.97-6.57v7.25ZM77.91,0H2.09C.94,0,0,.94,0,2.09v75.83c0,1.15.94,2.09,2.09,2.09h75.82c1.15,0,2.09-.94,2.09-2.09V2.09c0-1.15-.94-2.09-2.09-2.09ZM78.95,77.91c0,.57-.46,1.03-1.04,1.03H2.09c-.57,0-1.04-.46-1.04-1.03V2.09c0-.57.46-1.03,1.04-1.03h75.82c.57,0,1.04.46,1.04,1.03v75.83Z"/></svg>