<?xml version="1.0" encoding="UTF-8"?><svg id="modifiers" xmlns="http://www.w3.org/2000/svg" viewBox="0 0 80 80"><defs><style>.cls-1{fill:#07182d;}</style></defs><path class="cls-1" d="M40,0C17.94,0,0,17.94,0,40s17.94,40,40,40,40-17.94,40-40S62.06,0,40,0ZM40,78.95C18.52,78.95,1.05,61.48,1.05,40S18.52,1.05,40,1.05s38.95,17.47,38.95,38.95-17.47,38.95-38.95,38.95ZM59.83,31.63l.97-.41c-1.14-2.69-2.76-5.1-4.84-7.17-2.07-2.07-4.49-3.7-7.17-4.83l-.41.97c2.56,1.08,4.86,2.63,6.84,4.61,1.98,1.97,3.53,4.27,4.61,6.83ZM24.8,24.8c1.98-1.97,4.28-3.52,6.84-4.61l-.41-.97c-2.69,1.14-5.1,2.76-7.17,4.83-2.07,2.07-3.7,4.48-4.84,7.17l.97.41c1.08-2.56,2.64-4.86,4.61-6.83ZM20.19,48.37l-.97.41c1.14,2.69,2.76,5.1,4.84,7.17,2.07,2.07,4.49,3.7,7.17,4.83l.41-.97c-2.56-1.08-4.86-2.63-6.84-4.61-1.98-1.97-3.53-4.27-4.61-6.83ZM55.22,55.2c-1.98,1.97-4.28,3.53-6.84,4.61l.41.97c2.69-1.14,5.1-2.76,7.17-4.83,2.07-2.07,3.7-4.48,4.84-7.17l-.97-.41c-1.08,2.56-2.64,4.86-4.61,6.83ZM26.4,40c0,7.5,6.11,13.6,13.61,13.6s13.61-6.1,13.61-13.6-6.11-13.6-13.61-13.6-13.61,6.1-13.61,13.6ZM52.57,40c0,6.92-5.63,12.55-12.56,12.55s-12.56-5.63-12.56-12.55,5.63-12.55,12.56-12.55,12.56,5.63,12.56,12.55ZM71.42,39.63l-5.35-5.48-.75.74,4.48,4.59h-14.24v1.05h14.2l-4.43,4.32.73.75,5.35-5.22c.1-.1.16-.23.16-.37s-.05-.27-.15-.37ZM40.55,69.65v-14.24h-1.05v14.2l-4.32-4.43-.75.74,5.22,5.35c.1.1.23.16.37.16h0c.14,0,.27-.05.37-.15l5.48-5.35-.73-.75-4.59,4.48ZM24.54,40.54v-1.05h-14.2l4.43-4.32-.73-.75-5.35,5.22c-.1.1-.16.23-.16.37s.05.27.15.37l5.35,5.48.75-.74-4.48-4.59h14.24ZM39.6,9.96v14.53h1.05v-14.48l4.31,4.51.76-.73-5.22-5.46c-.1-.1-.23-.16-.37-.16-.15-.03-.28.05-.38.15l-5.48,5.46.74.75,4.58-4.56Z"/></svg>