<svg width="299" height="64" viewBox="0 0 299 64" fill="none" xmlns="http://www.w3.org/2000/svg">
<rect width="298.667" height="64" fill="white"/>
<g clip-path="url(#clip0_1178_55355)">
<path d="M15.28 27.5303C16.2721 23.6513 18.5979 20.2777 21.8233 18.0394C25.0486 15.8011 28.953 14.8512 32.8072 15.367C36.6614 15.8828 40.202 17.8291 42.7677 20.8424C45.3335 23.8557 46.7491 27.7301 46.75 31.7419C46.7357 32.9179 46.6118 34.0897 46.38 35.2413L46.21 36.0258" stroke="#1B1C1D" stroke-width="1.5" stroke-linejoin="round"/>
<path d="M14.8101 33.858C15.8771 33.4393 16.8272 32.7545 17.5758 31.8648C18.3243 30.9751 18.8479 29.908 19.1001 28.7587V28.5626C19.8464 25.6539 21.5928 23.1251 24.0133 21.4484C26.4337 19.7717 29.3626 19.0618 32.253 19.4512C35.1434 19.8406 37.7977 21.3027 39.7202 23.5644C41.6427 25.8262 42.7019 28.733 42.7001 31.7419C42.6836 32.6473 42.5866 33.5491 42.4101 34.4361L42.2901 34.9626C41.17 39.4002 39.1788 43.5531 36.4401 47.1638" stroke="#1B1C1D" stroke-width="1.5" stroke-linejoin="round"/>
<path d="M15.8799 37.8529C17.6019 37.2437 19.1494 36.2005 20.3822 34.818C21.615 33.4355 22.4941 31.7573 22.9399 29.9355L22.9999 29.6258C23.4998 27.69 24.6645 26.0078 26.2768 24.8926C27.8891 23.7775 29.8392 23.3054 31.7637 23.5643C33.6883 23.8232 35.456 24.7954 36.7376 26.2999C38.0192 27.8044 38.7273 29.7385 38.7299 31.7419C38.7149 32.3734 38.6446 33.0022 38.5199 33.6206L38.4599 33.889C37.1013 39.438 34.1529 44.435 29.9999 48.2271" stroke="#1B1C1D" stroke-width="1.5" stroke-linejoin="round"/>
<path d="M17.8501 41.5071C20.0765 40.5713 22.0545 39.1007 23.6198 37.2174C25.1851 35.3341 26.2926 33.0925 26.8501 30.6787V30.6787C27.0958 29.7084 27.6752 28.8635 28.4801 28.3019C29.285 27.7402 30.2605 27.5002 31.2243 27.6266C32.1881 27.7531 33.0744 28.2373 33.7177 28.9889C34.361 29.7404 34.7173 30.708 34.7201 31.7109C34.697 32.058 34.6502 32.4029 34.5801 32.7432C33.1905 38.6257 29.6921 43.7457 24.7901 47.0709" stroke="#1B1C1D" stroke-width="1.5" stroke-linejoin="round"/>
<path d="M55.75 11.0968C58.5114 11.0968 60.75 8.78596 60.75 5.93546C60.75 3.08496 58.5114 0.77417 55.75 0.77417C52.9886 0.77417 50.75 3.08496 50.75 5.93546C50.75 8.78596 52.9886 11.0968 55.75 11.0968Z" stroke="#1B1C1D" stroke-width="1.5" stroke-linejoin="round"/>
<path d="M52.22 9.57935L44.75 17.2903" stroke="#1B1C1D" stroke-width="1.5" stroke-linejoin="round"/>
<path d="M5.75 11.0968C8.51142 11.0968 10.75 8.78596 10.75 5.93546C10.75 3.08496 8.51142 0.77417 5.75 0.77417C2.98858 0.77417 0.75 3.08496 0.75 5.93546C0.75 8.78596 2.98858 11.0968 5.75 11.0968Z" stroke="#1B1C1D" stroke-width="1.5" stroke-linejoin="round"/>
<path d="M16.75 17.2903L9.29004 9.58966" stroke="#1B1C1D" stroke-width="1.5" stroke-linejoin="round"/>
<path d="M55.75 62.7097C58.5114 62.7097 60.75 60.3989 60.75 57.5484C60.75 54.6979 58.5114 52.3871 55.75 52.3871C52.9886 52.3871 50.75 54.6979 50.75 57.5484C50.75 60.3989 52.9886 62.7097 55.75 62.7097Z" stroke="#1B1C1D" stroke-width="1.5" stroke-linejoin="round"/>
<path d="M52.21 53.8942L44.75 46.1935" stroke="#1B1C1D" stroke-width="1.5" stroke-linejoin="round"/>
<path d="M5.75 62.7097C8.51142 62.7097 10.75 60.3989 10.75 57.5484C10.75 54.6979 8.51142 52.3871 5.75 52.3871C2.98858 52.3871 0.75 54.6979 0.75 57.5484C0.75 60.3989 2.98858 62.7097 5.75 62.7097Z" stroke="#1B1C1D" stroke-width="1.5" stroke-linejoin="round"/>
<path d="M16.75 46.1935L9.27002 53.9148" stroke="#1B1C1D" stroke-width="1.5" stroke-linejoin="round"/>
<path d="M20.8 44.6761C23.2734 43.397 25.4484 41.579 27.1748 39.3477C28.9013 37.1164 30.1382 34.525 30.8 31.7523" stroke="#1B1C1D" stroke-width="1.5" stroke-miterlimit="10"/>
</g>
<defs>
<clipPath id="clip0_1178_55355">
<rect width="61.5" height="63.4839" fill="white"/>
</clipPath>
</defs>
</svg>
