<?xml version="1.0" encoding="UTF-8"?><svg id="a" xmlns="http://www.w3.org/2000/svg" viewBox="0 0 80 80"><path d="M54.72461,43.98096l1.46094,.34082,.18262-.78564c.17383-.87354,.38184-2.19629,.38184-3.53613,0-9.23584-7.51367-16.75-16.75-16.75-7.5918,0-14.25195,5.12891-16.19531,12.47314l1.44922,.38379c1.77051-6.68701,7.83398-11.35693,14.74609-11.35693,8.40918,0,15.25,6.84131,15.25,15.25,0,1.21777-.19141,2.43555-.34766,3.21924l-.17773,.76172Z"/><path d="M52.32227,43.28467l.12305-.53174c.13867-.69287,.30469-1.73291,.30469-2.75293,0-7.03027-5.71973-12.75-12.75-12.75-5.7793,0-10.84766,3.89893-12.32715,9.48633l-.04199,.16504c-.65332,2.2627-1.90918,3.71924-3.83691,4.45215l.5332,1.40234c2.36621-.8999,3.96191-2.72949,4.75098-5.45898l.0459-.18115c1.30469-4.92578,5.77637-8.36572,10.87598-8.36572,6.20312,0,11.25,5.04688,11.25,11.25,0,.89697-.14941,1.83154-.27051,2.43604l-.1123,.48486c-1.16406,4.34424-3.08594,8.23047-5.71191,11.55176l1.17578,.93066c2.75391-3.48242,4.76758-7.55127,5.99121-12.11865Z"/><path d="M48.45801,42.25l.06445-.27832c.08496-.42383,.22754-1.24365,.22754-1.97168,0-4.82471-3.9248-8.75-8.75-8.75-3.96582,0-7.44434,2.67627-8.45996,6.50928l-.06641,.25342c-.72168,2.49902-2.45117,5.77686-6.58594,7.19971l.48828,1.41797c4.74414-1.63184,6.71777-5.36084,7.54395-8.21875l.07031-.26953c.84082-3.1748,3.72363-5.39209,7.00977-5.39209,3.99805,0,7.25,3.25244,7.25,7.25,0,.62109-.13867,1.37939-.19336,1.6543l-.05371,.23145c-1.4502,5.41211-4.30957,10.0874-8.26953,13.51953l.98242,1.13379c4.1875-3.62939,7.20801-8.5625,8.74219-14.28906Z"/><path d="M44.59961,41.19092c.01562-.07715,.15039-.76807,.15039-1.19092,0-2.61914-2.13086-4.75-4.75-4.75-2.15332,0-4.04199,1.45215-4.5918,3.53174-.00684,.02344-.01172,.04736-.01562,.07129-.75684,2.77295-2.86914,7.67236-8.57129,9.91016l.54883,1.39648c6.36523-2.49854,8.67871-7.9585,9.49121-10.99072,.00586-.02344,.01074-.04688,.01465-.07031,.39941-1.38623,1.67383-2.34863,3.12402-2.34863,1.79199,0,3.25,1.45801,3.25,3.25,0,.19727-.07129,.64453-.11035,.85059-1.53711,5.7373-4.8252,10.36084-9.50684,13.37061l.81055,1.26172c5.00098-3.21484,8.50977-8.14062,10.15625-14.29199Z"/><path d="M65,9.25c-3.1709,0-5.75,2.57959-5.75,5.75,0,1.31512,.44873,2.52478,1.19434,3.49463l-6.97461,6.9751,1.06055,1.06055,6.97461-6.97498c.96973,.74597,2.17969,1.1947,3.49512,1.1947,3.1709,0,5.75-2.57959,5.75-5.75s-2.5791-5.75-5.75-5.75Zm0,10c-2.34375,0-4.25-1.90674-4.25-4.25s1.90625-4.25,4.25-4.25,4.25,1.90674,4.25,4.25-1.90625,4.25-4.25,4.25Z"/><path d="M15,9.25c-3.1709,0-5.75,2.57959-5.75,5.75s2.5791,5.75,5.75,5.75c1.31543,0,2.52515-.44867,3.49487-1.19452l6.97485,6.97479,1.06055-1.06055-6.97485-6.97479c.74585-.96991,1.19458-2.17969,1.19458-3.49493,0-3.17041-2.5791-5.75-5.75-5.75Zm0,10c-2.34375,0-4.25-1.90674-4.25-4.25s1.90625-4.25,4.25-4.25,4.25,1.90674,4.25,4.25-1.90625,4.25-4.25,4.25Z"/><path d="M65,59.25c-1.31519,0-2.5249,.44861-3.49463,1.19434l-6.9751-6.97461-1.06055,1.06055,6.9751,6.97455c-.74609,.96997-1.19482,2.17981-1.19482,3.49518,0,3.17041,2.5791,5.75,5.75,5.75s5.75-2.57959,5.75-5.75-2.5791-5.75-5.75-5.75Zm0,10c-2.34375,0-4.25-1.90674-4.25-4.25s1.90625-4.25,4.25-4.25,4.25,1.90674,4.25,4.25-1.90625,4.25-4.25,4.25Z"/><path d="M15,70.75c3.1709,0,5.75-2.57959,5.75-5.75,0-1.31537-.44873-2.52521-1.19482-3.49518l6.9751-6.97455-1.06055-1.06055-6.9751,6.97461c-.96973-.74573-2.17944-1.19434-3.49463-1.19434-3.1709,0-5.75,2.57959-5.75,5.75s2.5791,5.75,5.75,5.75Zm0-10c2.34375,0,4.25,1.90674,4.25,4.25s-1.90625,4.25-4.25,4.25-4.25-1.90674-4.25-4.25,1.90625-4.25,4.25-4.25Z"/><path d="M39.27539,39.81543c-1.45898,5.4502-4.85352,9.72656-9.55762,12.04102l.66211,1.3457c5.09766-2.5083,8.77148-7.12451,10.34473-12.99902l-1.44922-.3877Z"/></svg>