<?xml version="1.0" encoding="UTF-8"?><svg id="modifiers" xmlns="http://www.w3.org/2000/svg" viewBox="0 0 80 80"><defs><style>.cls-1{fill:#07182d;}</style></defs><path class="cls-1" d="M68.81,42.7l-.73.75-3.91-3.82v10.73h0v.15s0,.09-.02.14l-.06.23c-.01.08-.05.24-.11.41-.1.28-.2.48-.28.6-.08.13-.2.33-.39.54-.13.15-.26.27-.38.37-.14.13-.31.25-.5.36l-15.23,8.76-.52-.91,15.23-8.76c.12-.07.23-.15.33-.24.09-.08.18-.16.27-.26.13-.15.22-.29.27-.38.05-.09.13-.23.19-.42.04-.12.07-.22.08-.31l.05-.2v-10.76l-3.67,3.76-.75-.73,4.58-4.69c.1-.1.23-.16.37-.16.13-.02.27.05.37.15l4.81,4.69ZM16.38,39.3h0c.14,0,.27-.06.37-.16l4.58-4.69-.75-.73-3.67,3.77v-10.56c.01-.24.05-.47.14-.71l.09-.2c.12-.25.27-.47.46-.65.16-.15.32-.28.5-.38l20.72-11.9c.72-.41,1.65-.41,2.37,0l20.72,11.9c.18.1.34.23.49.37.2.2.35.42.5.73l.05.13c.1.27.15.55.15.83v7.87h1.05v-7.87c0-.41-.07-.81-.22-1.21l-.05-.13s-.05-.11-.06-.12c-.17-.36-.4-.69-.68-.97-.21-.21-.45-.39-.71-.54l-20.72-11.9c-1.04-.6-2.39-.6-3.42,0l-20.72,11.9c-.26.15-.5.33-.72.55-.27.27-.5.59-.67.95l-.12.28c-.12.31-.17.63-.2.95h-.01v.12s-.01.08-.01.12v10.47l-3.9-3.81-.73.75,4.81,4.69c.1.1.23.15.37.15ZM17.71,51.95c-.07-.06-.14-.13-.22-.21-.14-.16-.22-.29-.27-.38-.05-.09-.13-.23-.19-.41-.05-.14-.08-.26-.1-.37-.03-.14-.04-.28-.04-.42v-7.87h-1.05v7.87c0,.21.02.42.06.62.02.14.06.31.13.51.09.26.2.46.27.59.07.12.19.31.39.54.11.13.22.23.29.29l.17.17s.07.06.11.09l15.55,8.93.52-.91-15.49-8.9-.15-.15ZM80,40c0,22.06-17.94,40-40,40S0,62.06,0,40,17.94,0,40,0s40,17.94,40,40ZM78.95,40C78.95,18.52,61.48,1.05,40,1.05S1.05,18.52,1.05,40s17.47,38.95,38.95,38.95,38.95-17.47,38.95-38.95ZM55.34,30.11s.02.05.03.07c.04.1.06.2.06.3v16.25s-.01.12-.02.16c0,0,0,.06-.03.12-.01.03-.05.12-.07.15-.03.05-.06.1-.1.14-.02.03-.11.1-.14.12.02-.01-.01.02-.09.06l-14.56,8.36s-.07.03-.1.05c0,0,0,0,0,0l-.05.03c-.09.05-.18.08-.28.08s-.19-.02-.28-.07c0,0,0-.01-.02-.02,0,0,0,0,0,0-.03,0-.11-.04-.13-.06l-14.56-8.37s-.1-.07-.14-.11c.03.03-.04-.02-.08-.08-.02-.03-.08-.11-.09-.13-.02-.04-.05-.09-.07-.15-.01-.03-.03-.14-.04-.17,0,0-.01-.03-.01-.11v-16.25c0-.1.02-.2.06-.3.07-.16.13-.24.2-.31.03-.03.14-.11.18-.14l14.56-8.36s.05,0,.07-.02l.08-.05c.17-.1.38-.1.54,0l.08.05s.05,0,.07.02l14.56,8.36s.14.1.17.13c.07.07.13.15.17.25ZM40,37.87l13.47-7.73-13.47-7.74-13.47,7.73,13.47,7.73ZM39.45,38.96l-13.57-7.79v15.09l13.57,7.79v-15.09ZM40.56,54.47l13.56-7.93v-15.36l-13.56,7.93v15.36ZM44.22,62.68v5.2c0,.56-.45,1.01-1.01,1.01h-6.43c-.56,0-1.01-.45-1.01-1.01v-5.2c0-.56.45-1.01,1.01-1.01h.38c0-.08-.02-.17-.02-.25,0-1.71,1.29-3.1,2.87-3.1s2.87,1.39,2.87,3.1c0,.08-.01.17-.02.25h.35c.56,0,1.01.45,1.01,1.01ZM38.21,61.67h3.6c.01-.09.02-.17.02-.25,0-1.13-.82-2.05-1.82-2.05s-1.82.92-1.82,2.05c0,.08,0,.16.02.25ZM43.17,62.68h-.82s-.08.05-.12.05h-4.45s-.01,0-.02,0h-.98s.05,5.16.05,5.16l6.34-.05v-5.16ZM39.47,66.44h1.05v-2.47h-1.05v2.47Z"/></svg>