<?xml version="1.0" encoding="UTF-8"?><svg id="modifiers" xmlns="http://www.w3.org/2000/svg" viewBox="0 0 80 80"><defs><style>.cls-1{fill:#fff;}</style></defs><path class="cls-1" d="M40,0C17.94,0,0,17.94,0,40s17.94,40,40,40,40-17.94,40-40S62.06,0,40,0ZM40,78.95C18.52,78.95,1.05,61.48,1.05,40S18.52,1.05,40,1.05s38.95,17.47,38.95,38.95-17.47,38.95-38.95,38.95ZM65.34,29.45c0-5.53-11.13-9.87-25.34-9.87s-25.34,4.34-25.34,9.87c0,1.97,1.42,3.79,3.88,5.31-2.53,1.56-3.88,3.39-3.88,5.3s1.25,3.57,3.45,5.04c-2.26,1.5-3.45,3.23-3.45,5.04,0,5.53,11.13,9.87,25.34,9.87s25.34-4.34,25.34-9.87c0-1.81-1.19-3.53-3.45-5.04,2.2-1.47,3.45-3.19,3.45-5.04s-1.33-3.74-3.87-5.31c2.45-1.52,3.87-3.34,3.87-5.31ZM64.28,50.15c0,4.78-11.12,8.82-24.28,8.82s-24.28-4.04-24.28-8.82c0-1.9,1.76-3.42,3.4-4.42,3.53,2,8.92,3.44,15.28,3.98.32,1.42,2.98,2.16,5.61,2.16s5.29-.74,5.61-2.16c6.36-.54,11.75-1.98,15.28-3.98,1.64,1.01,3.4,2.52,3.4,4.42ZM35.68,49.8c1.4.09,2.84.14,4.32.14s2.92-.05,4.32-.14c-.57.47-2.04,1.01-4.32,1.01s-3.76-.54-4.32-1.01ZM64.28,40.07c0,4.78-11.12,8.82-24.28,8.82s-24.28-4.04-24.28-8.82c0-2.08,2.1-3.7,3.86-4.7,3.57,1.89,8.84,3.24,15.01,3.74-.18.27-.23.53-.23.74,0,1.61,2.84,2.45,5.64,2.45s5.64-.84,5.64-2.45c0-.21-.06-.47-.23-.74,6.17-.5,11.44-1.85,15.01-3.74,1.88,1.06,3.87,2.66,3.87,4.7ZM43.93,39.21c.47.25.66.49.66.64,0,.47-1.62,1.4-4.59,1.4s-4.59-.92-4.59-1.4c0-.17.23-.41.6-.62v-.02c1.29.08,2.62.12,3.98.12s2.65-.04,3.93-.11ZM60.4,34.16s-.03-.02-.04-.02l-.03.07c-4.38,2.43-11.94,4.07-20.33,4.07-13.16,0-24.28-4.04-24.28-8.82s11.12-8.82,24.28-8.82,24.28,4.04,24.28,8.82c0,1.71-1.44,3.33-3.88,4.7ZM34.36,29.45c0,.75.65,1.41,1.84,1.85,1.02.39,2.37.6,3.8.6h0c2.8,0,5.64-.84,5.64-2.45,0-3.22-11.28-3.22-11.28,0ZM40,30.85h0c-1.3,0-2.52-.19-3.43-.53-.8-.3-1.16-.65-1.16-.87,0-.47,1.62-1.4,4.59-1.4s4.59.92,4.59,1.4-1.62,1.4-4.59,1.4Z"/></svg>