<?xml version="1.0" encoding="UTF-8"?><svg id="modifiers" xmlns="http://www.w3.org/2000/svg" viewBox="0 0 80 80"><defs><style>.cls-1{fill:#fff;}</style></defs><path class="cls-1" d="M53.77,25.42c-.21-.17-.5-.2-.74-.09-.63.29-.54.58.09,2.81.76,2.65,2.78,9.7,1.61,11.33-.11.15-.23.21-.42.22-2,.11-3.79-.94-5.27-3.08-4.87-7.05-4.95-22.94-2.41-28.81.5-1.15,1.5-2.43,2.39-3.55.76-.97,1.42-1.8,1.8-2.59.14-.27.42-.84.06-1.32-.12-.17-.42-.43-1-.33-.06.01-.12.03-.17.05-19.08,8.71-30.6,26.87-28.99,45.47-1.95-.94-3.31-2.32-4.06-4.09-1.02-2.45-.78-5.57.68-8.78.15-.34.02-.74-.31-.92-.33-.18-.74-.08-.94.24-7.94,12.24-7.8,26.25.35,36.58,5.88,7.44,14.78,11.44,24.45,11.44,4.15,0,8.43-.74,12.68-2.25,11.41-4.07,14.94-11.79,15.89-17.55,1.89-11.46-4.71-26.08-15.69-34.77ZM68.05,59.95c-1.27,7.72-6.45,13.41-14.96,16.44-13.57,4.84-27.52,1.41-35.53-8.73-6.71-8.49-7.7-19.64-2.94-30.06-.07,1.57.17,3.06.72,4.39,1.02,2.44,3.08,4.28,5.96,5.34.24.09.49.05.69-.11.19-.15.3-.4.27-.64-1.75-14.99,5.85-34.4,26.68-44.57-.3.42-.66.88-1.04,1.36-.94,1.19-2,2.55-2.58,3.87-2.72,6.29-2.66,22.66,2.55,30.19,1.78,2.57,3.97,3.83,6.52,3.7.63-.03,1.15-.31,1.51-.82,1.43-2,.08-7.4-1.34-12.36,9.59,8.48,15.21,21.63,13.5,32.02Z"/></svg>