<?xml version="1.0" encoding="UTF-8"?><svg id="device" xmlns="http://www.w3.org/2000/svg" viewBox="0 0 80 80"><defs><style>.cls-1{fill:#07182d;fill-rule:evenodd;}</style></defs><g id="Layer_4"><path class="cls-1" d="M74.21,37.37c0,.3-.24.54-.54.54h-4.87c-.3,0-.54-.24-.54-.54s.24-.54.54-.54h4.87c.3,0,.54.24.54.54ZM73.67,42.09h-4.87c-.3,0-.54.24-.54.54s.24.54.54.54h4.87c.3,0,.54-.24.54-.54s-.24-.54-.54-.54ZM80,33.61v12.79c0,.4-.32.72-.72.72h-2.44s-.08-.02-.12-.02c-.04,0-.07.02-.1.02H3.25s-.02,0-.04,0c-.01,0-.03,0-.04,0H.58c-.3,0-.58-.28-.58-.58v-13.08c0-.3.28-.58.58-.58h2.6s.03,0,.04,0c.01,0,.02,0,.04,0h73.36s.07.02.1.02c.04,0,.08-.02.12-.02h2.44c.4,0,.72.32.72.72ZM1.08,46.04h1.59v-12.08h-1.59v12.08ZM3.75,46.04h72.36v-12.08H3.75v12.08ZM78.92,33.96h-1.73v12.08h1.73v-12.08ZM8.05,36.41v-.69h-1.44v.69h-.66s-.06.03-.06.06v2.48s.03.06.06.06h2.75s.06-.03.06-.06v-2.48s-.03-.06-.06-.06h-.66ZM16.77,36.41v-.69h-1.44v.69h-.66s-.06.03-.06.06v2.48s.03.06.06.06h2.75s.06-.03.06-.06v-2.48s-.03-.06-.06-.06h-.66ZM25.49,36.41v-.69h-1.44v.69h-.66s-.06.03-.06.06v2.48s.03.06.06.06h2.75s.06-.03.06-.06v-2.48s-.03-.06-.06-.06h-.66ZM34.21,36.41v-.69h-1.44v.69h-.66s-.06.03-.06.06v2.48s.03.06.06.06h2.75s.06-.03.06-.06v-2.48s-.03-.06-.06-.06h-.66ZM32.12,40.99s-.06.03-.06.06v2.48s.03.06.06.06h.66v.69h1.44v-.69h.66s.06-.03.06-.06v-2.48s-.03-.06-.06-.06h-2.75ZM23.39,40.99s-.06.03-.06.06v2.48s.03.06.06.06h.66v.69h1.44v-.69h.66s.06-.03.06-.06v-2.48s-.03-.06-.06-.06h-2.75ZM14.67,40.99s-.06.03-.06.06v2.48s.03.06.06.06h.66v.69h1.44v-.69h.66s.06-.03.06-.06v-2.48s-.03-.06-.06-.06h-2.75ZM5.95,40.99s-.06.03-.06.06v2.48s.03.06.06.06h.66v.69h1.44v-.69h.66s.06-.03.06-.06v-2.48s-.03-.06-.06-.06h-2.75Z"/></g></svg>