<?xml version="1.0" encoding="UTF-8"?><svg id="modifiers" xmlns="http://www.w3.org/2000/svg" viewBox="0 0 80 80"><defs><style>.cls-1{fill:#fff;}</style></defs><path class="cls-1" d="M77.91,0H2.09C.94,0,0,.94,0,2.09v75.83c0,1.15.94,2.09,2.09,2.09h75.83c1.15,0,2.09-.94,2.09-2.09V2.09c0-1.15-.94-2.09-2.09-2.09ZM78.95,77.91c0,.57-.46,1.03-1.03,1.03H2.09c-.57,0-1.03-.46-1.03-1.03V2.09c0-.57.46-1.03,1.03-1.03h75.83c.57,0,1.03.46,1.03,1.03v75.83ZM64.4,27.95v25.31c0,.37-.31.67-.69.67h-4.22s-.1.13-.1.33v6.35c0,.29-.19.54-.47.64-.07.02-.15.04-.23.04-.22,0-.43-.1-.56-.28l-3.68-7.1-20.92.03c-.38,0-.69-.3-.69-.67v-2.94h1.05v2.56h20.58c.33,0,.65.17.87.46l3,5.78v-4.86c0-.76.52-1.38,1.15-1.38h3.86v-24.55h-14.6v-1.05h14.96c.38,0,.69.3.69.67ZM46.9,47.18v-24.53c0-.89-.73-1.62-1.62-1.62h-28.06c-.89,0-1.62.73-1.62,1.62v24.53c0,.89.73,1.62,1.62,1.62h4.2c.09,0,.23.14.23.36v6.83c0,.26.16.49.4.57.05.02.11.03.17.03.21,0,.45-.11.55-.27l4.56-7.44s.07-.08.13-.08h17.81c.89,0,1.62-.73,1.62-1.62ZM26.48,48.26l-3.78,6.17v-5.27c0-.78-.58-1.42-1.28-1.42h-4.2c-.31,0-.57-.25-.57-.57v-24.53c0-.31.25-.57.57-.57h28.06c.31,0,.57.25.57.57v24.53c0,.31-.25.57-.57.57h-17.81c-.35,0-.69.16-.98.51ZM70.52,3.7c-3.44,0-6.24,2.77-6.24,6.17s2.8,6.17,6.24,6.17,6.24-2.77,6.24-6.17-2.8-6.17-6.24-6.17ZM70.52,14.98c-2.86,0-5.19-2.29-5.19-5.12s2.33-5.11,5.19-5.11,5.19,2.29,5.19,5.11-2.33,5.12-5.19,5.12ZM72.83,8.07l.74.75-3.29,3.23c-.1.1-.24.15-.37.15s-.26-.05-.36-.14l-1.76-1.67.72-.76,1.39,1.32,2.92-2.88Z"/></svg>