<?xml version="1.0" encoding="UTF-8"?><svg id="modifiers" xmlns="http://www.w3.org/2000/svg" viewBox="0 0 80 80"><defs><style>.cls-1{fill:#fff;}</style></defs><path class="cls-1" d="M55.19,24.6c-1.97-1.97-4.27-3.52-6.83-4.6l.41-.97c2.68,1.13,5.09,2.76,7.16,4.83,2.07,2.07,3.69,4.48,4.83,7.16l-.97.41c-1.08-2.56-2.63-4.86-4.6-6.83ZM24.81,24.6c1.97-1.97,4.27-3.52,6.83-4.6l-.41-.97c-2.68,1.13-5.09,2.76-7.16,4.83s-3.69,4.48-4.83,7.16l.97.41c1.08-2.56,2.63-4.85,4.6-6.83ZM20.21,48.15l-.97.41c1.13,2.68,2.76,5.09,4.83,7.16s4.48,3.69,7.16,4.83l.41-.97c-2.56-1.08-4.86-2.63-6.83-4.6s-3.52-4.27-4.6-6.83ZM55.19,54.98c-1.97,1.97-4.27,3.52-6.83,4.6l.41.97c2.68-1.13,5.09-2.76,7.16-4.83,2.07-2.07,3.69-4.48,4.83-7.16l-.97-.41c-1.08,2.56-2.63,4.86-4.6,6.83ZM40,26.19c7.5,0,13.59,6.1,13.59,13.59s-6.1,13.59-13.59,13.59-13.59-6.1-13.59-13.59,6.1-13.59,13.59-13.59ZM40,27.25c-6.92,0-12.54,5.63-12.54,12.54s5.63,12.54,12.54,12.54,12.54-5.63,12.54-12.54-5.63-12.54-12.54-12.54ZM30.47,37.2c2.58-2.48,5.97-3.85,9.55-3.85s6.95,1.36,9.52,3.82l.73-.76c-2.77-2.65-6.41-4.11-10.25-4.11s-7.5,1.47-10.28,4.14l.73.76ZM33.82,39.64l.67.81c1.55-1.28,3.51-1.99,5.52-1.99s3.96.7,5.51,1.98l.67-.81c-1.73-1.43-3.93-2.22-6.18-2.22s-4.46.79-6.2,2.23ZM37.08,43.17l.63.84c1.34-1,3.27-1,4.61,0l.63-.84c-1.71-1.27-4.16-1.27-5.87,0ZM40.02,45.8c-.73,0-1.32.59-1.32,1.32s.59,1.32,1.32,1.32,1.32-.59,1.32-1.32-.59-1.32-1.32-1.32ZM40.53,8.2h-1.05v16.09h1.05V8.2ZM39.48,71.38h1.05v-16.09h-1.05v16.09ZM55.52,39.4v1.05h16.09v-1.05h-16.09ZM24.56,39.4H8.47v1.05h16.09v-1.05ZM80,40c0,22.06-17.94,40-40,40S0,62.06,0,40,17.94,0,40,0s40,17.94,40,40ZM78.95,40C78.95,18.52,61.48,1.05,40,1.05S1.05,18.52,1.05,40s17.47,38.95,38.95,38.95,38.95-17.47,38.95-38.95Z"/></svg>