<?xml version="1.0" encoding="UTF-8"?><svg id="device" xmlns="http://www.w3.org/2000/svg" viewBox="0 0 80 80"><defs><style>.cls-1{fill:#07182d;}</style></defs><g id="Layer_4"><path class="cls-1" d="M40.04,23.2s.06.03.06.06v2.48s-.03.06-.06.06h-.66v.69h-1.44v-.69h-.66s-.06-.03-.06-.06v-2.48s.03-.06.06-.06h2.75ZM49.29,31.99h-7.49c-.24,0-.43.19-.43.43v1.34c0,.24.19.43.43.43h7.49c.24,0,.43-.19.43-.43v-1.34c0-.24-.19-.43-.43-.43ZM34.75,64.84v-6.91c0-.3.29-.59.59-.59h9.19c.3,0,.59.29.59.59v6.91c0,.3-.29.59-.59.59h-9.19c-.3,0-.59-.29-.59-.59ZM35.82,64.35h8.21v-5.94h-8.21v5.94ZM60.58,36.37h-7.49c-.24,0-.43.19-.43.43v1.34c0,.24.19.43.43.43h7.49c.24,0,.43-.19.43-.43v-1.34c0-.24-.19-.43-.43-.43ZM49.29,36.37h-7.49c-.24,0-.43.19-.43.43v1.34c0,.24.19.43.43.43h7.49c.24,0,.43-.19.43-.43v-1.34c0-.24-.19-.43-.43-.43ZM71.87,36.37h-7.49c-.24,0-.43.19-.43.43v1.34c0,.24.19.43.43.43h7.49c.24,0,.43-.19.43-.43v-1.34c0-.24-.19-.43-.43-.43ZM38,31.99h-7.49c-.24,0-.43.19-.43.43v1.34c0,.24.19.43.43.43h7.49c.24,0,.43-.19.43-.43v-1.34c0-.24-.19-.43-.43-.43ZM47.91,64.84v-6.91c0-.3.29-.59.59-.59h9.19c.3,0,.59.29.59.59v6.91c0,.3-.29.59-.59.59h-9.19c-.3,0-.59-.29-.59-.59ZM48.99,64.35h8.21v-5.94h-8.21v5.94ZM61.04,64.8v-6.92c0-.3.29-.59.59-.59h9.19c.3,0,.59.29.59.59v6.92c0,.3-.29.59-.59.59h-9.19c-.3,0-.59-.29-.59-.59ZM62.11,64.31h8.21v-5.94h-8.21v5.94ZM60.58,31.99h-7.49c-.24,0-.43.19-.43.43v1.34c0,.24.19.43.43.43h7.49c.24,0,.43-.19.43-.43v-1.34c0-.24-.19-.43-.43-.43ZM15.41,36.37h-7.49c-.24,0-.43.19-.43.43v1.34c0,.24.19.43.43.43h7.49c.24,0,.43-.19.43-.43v-1.34c0-.24-.19-.43-.43-.43ZM55.08,18.53v-.69h-1.44v.69h-.66s-.06.03-.06.06v2.48s.03.06.06.06h2.75s.06-.03.06-.06v-2.48s-.03-.06-.06-.06h-.66ZM26.7,36.37h-7.49c-.24,0-.43.19-.43.43v1.34c0,.24.19.43.43.43h7.49c.24,0,.43-.19.43-.43v-1.34c0-.24-.19-.43-.43-.43ZM15.41,31.99h-7.49c-.24,0-.43.19-.43.43v1.34c0,.24.19.43.43.43h7.49c.24,0,.43-.19.43-.43v-1.34c0-.24-.19-.43-.43-.43ZM26.7,31.99h-7.49c-.24,0-.43.19-.43.43v1.34c0,.24.19.43.43.43h7.49c.24,0,.43-.19.43-.43v-1.34c0-.24-.19-.43-.43-.43ZM38,36.37h-7.49c-.24,0-.43.19-.43.43v1.34c0,.24.19.43.43.43h7.49c.24,0,.43-.19.43-.43v-1.34c0-.24-.19-.43-.43-.43ZM30.51,47.34h7.49c.24,0,.43-.19.43-.43v-1.34c0-.24-.19-.43-.43-.43h-7.49c-.24,0-.43.19-.43.43v1.34c0,.24.19.43.43.43ZM19.21,47.34h7.49c.24,0,.43-.19.43-.43v-1.34c0-.24-.19-.43-.43-.43h-7.49c-.24,0-.43.19-.43.43v1.34c0,.24.19.43.43.43ZM52.98,23.2s-.06.03-.06.06v2.48s.03.06.06.06h.66v.69h1.44v-.69h.66s.06-.03.06-.06v-2.48s-.03-.06-.06-.06h-2.75ZM21.59,64.84v-6.91c0-.3.29-.59.59-.59h9.19c.3,0,.59.29.59.59v6.91c0,.3-.29.59-.59.59h-9.19c-.3,0-.59-.29-.59-.59ZM22.67,64.35h8.21v-5.94h-8.21v5.94ZM30.51,51.73h7.49c.24,0,.43-.19.43-.43v-1.34c0-.24-.19-.43-.43-.43h-7.49c-.24,0-.43.19-.43.43v1.34c0,.24.19.43.43.43ZM7.92,47.34h7.49c.24,0,.43-.19.43-.43v-1.34c0-.24-.19-.43-.43-.43h-7.49c-.24,0-.43.19-.43.43v1.34c0,.24.19.43.43.43ZM79.93,28.5s-.02.09-.03.13c0,.04.03.08.03.12v13.07s0,.03-.01.05c0,.02.01.03.01.05v13.07s0,.03-.01.05c0,.02.01.03.01.05v13.07c0,.3-.28.58-.58.58h-2.73s-.03,0-.04,0c-.01,0-.03,0-.04,0H3.19s-.03,0-.04,0c-.01,0-.03,0-.04,0H.51c-.3,0-.58-.28-.58-.58v-13.07s0-.03.01-.05c0-.02-.01-.03-.01-.05v-13.07s0-.03.01-.05c0-.02-.01-.03-.01-.05v-13.07s0-.03,0-.04c0-.01,0-.03,0-.04v-13.07c0-.3.28-.58.58-.58h2.59s.03,0,.04,0c.01,0,.03,0,.04,0h58.31c1.91-2.27,4.77-3.72,7.97-3.72s6.06,1.45,7.97,3.72h1.76c.41,0,.74.33.74.74v12.75ZM2.61,55.57h-1.59v12.07h1.59v-12.07ZM2.61,42.4h-1.59v12.07h1.59v-12.07ZM2.61,29.24h-1.59v12.07h1.59v-12.07ZM2.61,16.08h-1.59v12.08h1.59v-12.08ZM78.22,16.08c.24.37.45.76.64,1.16v-1.16h-.64ZM60.14,21.69c0,5.14,4.18,9.33,9.33,9.33s9.33-4.18,9.33-9.33-4.18-9.33-9.33-9.33-9.33,4.18-9.33,9.33ZM3.68,28.16h57.65c-.41-.52-.78-1.08-1.09-1.67h-1.37v-.69h-.66s-.06-.03-.06-.06v-2.48s.03-.06.06-.06h.96c-.07-.5-.12-1-.12-1.51,0-.19.02-.37.03-.55h-.87s-.06-.03-.06-.06v-2.48s.03-.06.06-.06h.66v-.69h.93c.25-.62.55-1.21.91-1.76H3.68v12.08ZM76.04,55.57H3.68v12.07h72.36v-12.07ZM76.04,42.4H3.68v12.07h72.36v-12.07ZM76.04,29.73c-1.46,1.19-3.24,1.99-5.2,2.25h1.02c.24,0,.43.19.43.43v1.34c0,.24-.19.43-.43.43h-7.49c-.24,0-.43-.19-.43-.43v-1.34c0-.24.19-.43.43-.43h3.7c-2.21-.3-4.2-1.29-5.75-2.75H3.68v12.07h72.36v-11.58ZM78.85,55.57h-1.73v12.07h1.73v-12.07ZM78.85,42.4h-1.73v12.07h1.73v-12.07ZM78.85,29.24h-1.73v12.07h1.73v-12.07ZM78.85,26.13c-.34.73-.77,1.41-1.26,2.03h1.26v-2.03ZM7.92,51.73h7.49c.24,0,.43-.19.43-.43v-1.34c0-.24-.19-.43-.43-.43h-7.49c-.24,0-.43.19-.43.43v1.34c0,.24.19.43.43.43ZM19.21,51.73h7.49c.24,0,.43-.19.43-.43v-1.34c0-.24-.19-.43-.43-.43h-7.49c-.24,0-.43.19-.43.43v1.34c0,.24.19.43.43.43ZM64.38,51.73h7.49c.24,0,.43-.19.43-.43v-1.34c0-.24-.19-.43-.43-.43h-7.49c-.24,0-.43.19-.43.43v1.34c0,.24.19.43.43.43ZM64.38,47.34h7.49c.24,0,.43-.19.43-.43v-1.34c0-.24-.19-.43-.43-.43h-7.49c-.24,0-.43.19-.43.43v1.34c0,.24.19.43.43.43ZM8.27,64.84v-6.91c0-.3.29-.59.59-.59h9.19c.3,0,.59.29.59.59v6.91c0,.3-.29.59-.59.59h-9.19c-.3,0-.59-.29-.59-.59ZM9.35,64.35h8.21v-5.94h-8.21v5.94ZM53.09,47.34h7.49c.24,0,.43-.19.43-.43v-1.34c0-.24-.19-.43-.43-.43h-7.49c-.24,0-.43.19-.43.43v1.34c0,.24.19.43.43.43ZM41.8,47.34h7.49c.24,0,.43-.19.43-.43v-1.34c0-.24-.19-.43-.43-.43h-7.49c-.24,0-.43.19-.43.43v1.34c0,.24.19.43.43.43ZM53.09,51.73h7.49c.24,0,.43-.19.43-.43v-1.34c0-.24-.19-.43-.43-.43h-7.49c-.24,0-.43.19-.43.43v1.34c0,.24.19.43.43.43ZM41.8,51.73h7.49c.24,0,.43-.19.43-.43v-1.34c0-.24-.19-.43-.43-.43h-7.49c-.24,0-.43.19-.43.43v1.34c0,.24.19.43.43.43ZM21.58,23.2s-.06.03-.06.06v2.48s.03.06.06.06h.66v.69h1.44v-.69h.66s.06-.03.06-.06v-2.48s-.03-.06-.06-.06h-2.75ZM16.35,23.2s-.06.03-.06.06v2.48s.03.06.06.06h.66v.69h1.44v-.69h.66s.06-.03.06-.06v-2.48s-.03-.06-.06-.06h-2.75ZM18.45,18.53v-.69h-1.44v.69h-.66s-.06.03-.06.06v2.48s.03.06.06.06h2.75s.06-.03.06-.06v-2.48s-.03-.06-.06-.06h-.66ZM49.85,18.53v-.69h-1.44v.69h-.66s-.06.03-.06.06v2.48s.03.06.06.06h2.75s.06-.03.06-.06v-2.48s-.03-.06-.06-.06h-.66ZM13.21,18.53v-.69h-1.44v.69h-.66s-.06.03-.06.06v2.48s.03.06.06.06h2.75s.06-.03.06-.06v-2.48s-.03-.06-.06-.06h-.66ZM11.12,23.2s-.06.03-.06.06v2.48s.03.06.06.06h.66v.69h1.44v-.69h.66s.06-.03.06-.06v-2.48s-.03-.06-.06-.06h-2.75ZM5.88,23.2s-.06.03-.06.06v2.48s.03.06.06.06h.66v.69h1.44v-.69h.66s.06-.03.06-.06v-2.48s-.03-.06-.06-.06h-2.75ZM23.68,18.53v-.69h-1.44v.69h-.66s-.06.03-.06.06v2.48s.03.06.06.06h2.75s.06-.03.06-.06v-2.48s-.03-.06-.06-.06h-.66ZM7.98,18.53v-.69h-1.44v.69h-.66s-.06.03-.06.06v2.48s.03.06.06.06h2.75s.06-.03.06-.06v-2.48s-.03-.06-.06-.06h-.66ZM26.82,23.2s-.06.03-.06.06v2.48s.03.06.06.06h.66v.69h1.44v-.69h.66s.06-.03.06-.06v-2.48s-.03-.06-.06-.06h-2.75ZM39.38,18.53v-.69h-1.44v.69h-.66s-.06.03-.06.06v2.48s.03.06.06.06h2.75s.06-.03.06-.06v-2.48s-.03-.06-.06-.06h-.66ZM47.75,23.2s-.06.03-.06.06v2.48s.03.06.06.06h.66v.69h1.44v-.69h.66s.06-.03.06-.06v-2.48s-.03-.06-.06-.06h-2.75ZM44.61,18.53v-.69h-1.44v.69h-.66s-.06.03-.06.06v2.48s.03.06.06.06h2.75s.06-.03.06-.06v-2.48s-.03-.06-.06-.06h-.66ZM34.15,18.53v-.69h-1.44v.69h-.66s-.06.03-.06.06v2.48s.03.06.06.06h2.75s.06-.03.06-.06v-2.48s-.03-.06-.06-.06h-.66ZM42.52,23.2s-.06.03-.06.06v2.48s.03.06.06.06h.66v.69h1.44v-.69h.66s.06-.03.06-.06v-2.48s-.03-.06-.06-.06h-2.75ZM32.05,23.2s-.06.03-.06.06v2.48s.03.06.06.06h.66v.69h1.44v-.69h.66s.06-.03.06-.06v-2.48s-.03-.06-.06-.06h-2.75ZM28.91,18.53v-.69h-1.44v.69h-.66s-.06.03-.06.06v2.48s.03.06.06.06h2.75s.06-.03.06-.06v-2.48s-.03-.06-.06-.06h-.66Z"/></g></svg>