<?xml version="1.0" encoding="UTF-8"?><svg id="modifiers" xmlns="http://www.w3.org/2000/svg" viewBox="0 0 80 80"><defs><style>.cls-1{fill:#07182d;}</style></defs><path class="cls-1" d="M78.95,36.31v42.3c0,.18-.15.33-.33.33H1.38c-.18,0-.33-.15-.33-.33V1.44c0-.18.15-.33.33-.33h42.2V.06H1.38C.62.06,0,.68,0,1.44v77.18c0,.76.62,1.38,1.38,1.38h77.23c.76,0,1.38-.62,1.38-1.38v-42.3h-1.05ZM60.18,20.71h18.81c.53,0,.95-.43.95-.96V.95c0-.53-.43-.95-.95-.95h-18.81c-.53,0-.96.43-.96.95v18.8c0,.53.43.96.96.96ZM60.27,1.05h18.62v18.6h-18.62V1.05ZM36.2,41.87h-18.81c-.53,0-.96.43-.96.95v18.8c0,.53.43.95.96.95h18.81c.53,0,.95-.43.95-.95v-18.8c0-.53-.43-.95-.95-.95ZM36.1,61.52h-18.62v-18.6h18.62v18.6ZM42.97,42.82v18.8c0,.53.43.95.96.95h18.81c.53,0,.95-.43.95-.95v-18.8c0-.53-.43-.95-.95-.95h-18.81c-.53,0-.96.43-.96.95ZM44.02,42.92h18.62v18.6h-18.62v-18.6ZM37.16,17.16c0-.53-.43-.95-.95-.95h-18.81c-.53,0-.96.43-.96.95v18.8c0,.53.43.95.96.95h18.81c.53,0,.95-.43.95-.95v-18.8ZM36.1,35.86h-18.62v-18.6h18.62v18.6Z"/></svg>