<?xml version="1.0" encoding="UTF-8"?><svg id="device" xmlns="http://www.w3.org/2000/svg" viewBox="0 0 80 80"><defs><style>.cls-1{fill:#07182d;}</style></defs><g id="Layer_4"><path class="cls-1" d="M0,50.5h1.03v2.9H0v-2.9ZM9.27,23.9h-2.9v1.03h2.9v-1.03ZM0,30.19h1.03v-2.9H0v2.9ZM0,35.99h1.03v-2.9H0v2.9ZM0,47.59h1.03v-2.9H0v2.9ZM0,41.79h1.03v-2.9H0v2.9ZM1.1,56.25h2.9v-1.03H1.1v1.03ZM6.91,56.25h2.9v-1.03h-2.9v1.03ZM15.08,23.9h-2.9v1.03h2.9v-1.03ZM49.88,23.9h-2.9v1.03h2.9v-1.03ZM78.89,23.9h-2.9v1.03h2.9v-1.03ZM73.09,23.9h-2.9v1.03h2.9v-1.03ZM44.08,23.9h-2.9v1.03h2.9v-1.03ZM55.69,23.9h-2.9v1.03h2.9v-1.03ZM26.68,23.9h-2.9v1.03h2.9v-1.03ZM20.88,23.9h-2.9v1.03h2.9v-1.03ZM38.28,23.9h-2.9v1.03h2.9v-1.03ZM32.48,23.9h-2.9v1.03h2.9v-1.03ZM24.31,56.25h2.9v-1.03h-2.9v1.03ZM78.97,52.86h1.03v-2.9h-1.03v2.9ZM78.97,26.75v2.9h1.03v-2.9h-1.03ZM70.72,56.25h2.9v-1.03h-2.9v1.03ZM78.97,47.06h1.03v-2.9h-1.03v2.9ZM78.97,41.26h1.03v-2.9h-1.03v2.9ZM78.97,35.45h1.03v-2.9h-1.03v2.9ZM12.71,56.25h2.9v-1.03h-2.9v1.03ZM35.91,56.25h2.9v-1.03h-2.9v1.03ZM64.92,56.25h2.9v-1.03h-2.9v1.03ZM41.71,56.25h2.9v-1.03h-2.9v1.03ZM18.51,56.25h2.9v-1.03h-2.9v1.03ZM30.11,56.25h2.9v-1.03h-2.9v1.03ZM47.51,56.25h2.9v-1.03h-2.9v1.03ZM59.12,56.25h2.9v-1.03h-2.9v1.03ZM53.32,56.25h2.9v-1.03h-2.9v1.03ZM76.63,51.93c0,.38-.31.69-.69.69h-2.23s-.07-.02-.11-.02c-.03,0-.06.02-.1.02H6.37s-.02,0-.03,0c-.01,0-.02,0-.03,0h-2.38c-.29,0-.55-.27-.55-.55v-11.97s0-.02,0-.03c0,0,0-.02,0-.03v-11.97c0-.29.27-.55.55-.55h2.38s.02,0,.03,0c.01,0,.02,0,.03,0h50.98c.84-1.06,1.89-1.95,3.09-2.59h-1.86v-1.03h2.9v.56c1.14-.45,2.37-.71,3.67-.71.57,0,1.13.06,1.68.15h.45v.08c2.28.5,4.27,1.78,5.68,3.55h.54s.07.01.1.02c.04,0,.07-.02.11-.02h2.23c.38,0,.69.31.69.69v11.7c0,.06-.02.11-.03.16.01.05.03.1.03.16v11.7ZM56.22,33.72c0,4.93,4.01,8.94,8.94,8.94s8.94-4.01,8.94-8.94-4.01-8.94-8.94-8.94-8.94,4.01-8.94,8.94ZM56.64,28.56H6.85v6.42c.12-.17.25-.33.39-.45.64-.58,1.37-.63,2.03-.59v-.82s.03-.06.06-.06h.6v-.25h1.32v.25h.6s.06.03.06.06v2.64s-.03.06-.06.06h-2.52s-.06-.03-.06-.06v-.78c-.5-.03-.97-.01-1.33.32-.64.58-.99,2.01-1.07,4.26h50.21c-1.19-1.64-1.9-3.65-1.9-5.83,0-1.89.54-3.65,1.45-5.16ZM4.41,39.55h1.41v-10.99h-1.41v10.99ZM5.82,40.6h-1.41v10.99h1.41v-10.99ZM6.85,51.59h66.17v-10.99h-.65c-1.82,1.9-4.37,3.1-7.21,3.1s-5.39-1.19-7.21-3.1H6.85c.01,3.03.36,4.87,1.05,5.48.33.29.75.28,1.35.21v-1.03s.03-.06.06-.06h2.52s.06.03.06.06v2.64s-.03.06-.06.06h-.6v.25h-1.32v-.25h-.6s-.06-.03-.06-.06v-.59c-.18.02-.36.05-.55.05-.5,0-1.03-.11-1.49-.51-.13-.12-.25-.26-.37-.42v5.15ZM75.59,40.6h-1.54v10.99h1.54v-10.99ZM75.59,39.55v-10.99h-1.54v.67c.68,1.35,1.08,2.87,1.08,4.49s-.39,3.14-1.08,4.49v1.34h1.54ZM16.63,35.81s.06-.03.06-.06v-2.64s-.03-.06-.06-.06h-.6v-.25h-1.32v.25h-.6s-.06.03-.06.06v2.64s.03.06.06.06h2.52ZM21.42,35.81s.06-.03.06-.06v-2.64s-.03-.06-.06-.06h-.6v-.25h-1.32v.25h-.6s-.06.03-.06.06v2.64s.03.06.06.06h2.52ZM26.21,35.81s.06-.03.06-.06v-2.64s-.03-.06-.06-.06h-.6v-.25h-1.32v.25h-.6s-.06.03-.06.06v2.64s.03.06.06.06h2.52ZM31,35.81s.06-.03.06-.06v-2.64s-.03-.06-.06-.06h-.6v-.25h-1.32v.25h-.6s-.06.03-.06.06v2.64s.03.06.06.06h2.52ZM35.79,35.81s.06-.03.06-.06v-2.64s-.03-.06-.06-.06h-.6v-.25h-1.32v.25h-.6s-.06.03-.06.06v2.64s.03.06.06.06h2.52ZM40.58,35.81s.06-.03.06-.06v-2.64s-.03-.06-.06-.06h-.6v-.25h-1.32v.25h-.6s-.06.03-.06.06v2.64s.03.06.06.06h2.52ZM45.37,35.81s.06-.03.06-.06v-2.64s-.03-.06-.06-.06h-.6v-.25h-1.32v.25h-.6s-.06.03-.06.06v2.64s.03.06.06.06h2.52ZM50.16,35.81s.06-.03.06-.06v-2.64s-.03-.06-.06-.06h-.6v-.25h-1.32v.25h-.6s-.06.03-.06.06v2.64s.03.06.06.06h2.52ZM54.93,35.81s.06-.03.06-.06v-2.64s-.03-.06-.06-.06h-.6v-.25h-1.32v.25h-.6s-.06.03-.06.06v2.64s.03.06.06.06h2.52ZM61.99,45.21s-.06.03-.06.06v2.64s.03.06.06.06h.6v.25h1.32v-.25h.6s.06-.03.06-.06v-2.64s-.03-.06-.06-.06h-2.52ZM57.2,45.21s-.06.03-.06.06v2.64s.03.06.06.06h.6v.25h1.32v-.25h.6s.06-.03.06-.06v-2.64s-.03-.06-.06-.06h-2.52ZM52.41,45.21s-.06.03-.06.06v2.64s.03.06.06.06h.6v.25h1.32v-.25h.6s.06-.03.06-.06v-2.64s-.03-.06-.06-.06h-2.52ZM47.62,45.21s-.06.03-.06.06v2.64s.03.06.06.06h.6v.25h1.32v-.25h.6s.06-.03.06-.06v-2.64s-.03-.06-.06-.06h-2.52ZM42.83,45.21s-.06.03-.06.06v2.64s.03.06.06.06h.6v.25h1.32v-.25h.6s.06-.03.06-.06v-2.64s-.03-.06-.06-.06h-2.52ZM38.04,45.21s-.06.03-.06.06v2.64s.03.06.06.06h.6v.25h1.32v-.25h.6s.06-.03.06-.06v-2.64s-.03-.06-.06-.06h-2.52ZM33.25,45.21s-.06.03-.06.06v2.64s.03.06.06.06h.6v.25h1.32v-.25h.6s.06-.03.06-.06v-2.64s-.03-.06-.06-.06h-2.52ZM28.47,45.21s-.06.03-.06.06v2.64s.03.06.06.06h.6v.25h1.32v-.25h.6s.06-.03.06-.06v-2.64s-.03-.06-.06-.06h-2.52ZM23.68,45.21s-.06.03-.06.06v2.64s.03.06.06.06h.6v.25h1.32v-.25h.6s.06-.03.06-.06v-2.64s-.03-.06-.06-.06h-2.52ZM18.89,45.21s-.06.03-.06.06v2.64s.03.06.06.06h.6v.25h1.32v-.25h.6s.06-.03.06-.06v-2.64s-.03-.06-.06-.06h-2.52ZM14.1,45.21s-.06.03-.06.06v2.64s.03.06.06.06h.6v.25h1.32v-.25h.6s.06-.03.06-.06v-2.64s-.03-.06-.06-.06h-2.52ZM76.53,55.22h0v1.03h2.9s.17,0,.17,0v-1.04h-3.07ZM3.47,24.94h0v-1.03H.49v1.04h2.98Z"/></g></svg>