<?xml version="1.0" encoding="UTF-8"?><svg id="modifiers" xmlns="http://www.w3.org/2000/svg" viewBox="0 0 80 80"><defs><style>.cls-1{fill:#07182d;}</style></defs><path class="cls-1" d="M77.91,0H2.09C.94,0,0,.94,0,2.09v75.83c0,1.15.94,2.09,2.09,2.09h75.82c1.15,0,2.09-.94,2.09-2.09V2.09c0-1.15-.94-2.09-2.09-2.09ZM78.95,77.91c0,.57-.46,1.03-1.04,1.03H2.09c-.57,0-1.04-.46-1.04-1.03V2.09c0-.57.46-1.03,1.04-1.03h75.82c.57,0,1.04.46,1.04,1.03v75.83ZM27.81,20.72v-1.05s-7.59-.09-7.59-.09c-.1.03-.27.05-.37.15-.1.1-.16.23-.16.37l-.09,7.79h1.05s.08-6.53.08-6.53l16.86,16.86.74-.74-16.83-16.83,6.31.08ZM60.65,59.89l-16.86-16.86-.74.74,16.83,16.83-6.31-.08v1.05s7.59.09,7.59.09h0c.14,0,.27-.05.37-.15.1-.1.16-.23.16-.37l.09-7.79h-1.05s-.08,6.53-.08,6.53ZM45.05,33.82l.08-6.31h-1.05s-.09,7.59-.09,7.59c0,.14.05.27.15.37.1.1.23.16.37.16l7.79.09v-1.05s-6.53-.08-6.53-.08l16.86-16.86-.74-.74-16.83,16.83ZM37.46,41.96l-7.79-.09v1.05s6.52.08,6.52.08l-16.86,16.86.74.74,16.83-16.83-.08,6.31h1.05s.09-7.59.09-7.59c0-.14-.05-.27-.15-.37-.1-.1-.23-.16-.37-.16Z"/></svg>