<?xml version="1.0" encoding="UTF-8"?><svg id="modifiers" xmlns="http://www.w3.org/2000/svg" viewBox="0 0 80 80"><defs><style>.cls-1{fill:#fff;}</style></defs><path class="cls-1" d="M40,0C17.94,0,0,17.94,0,40s17.94,40,40,40,40-17.94,40-40S62.06,0,40,0ZM40,78.95C18.52,78.95,1.05,61.48,1.05,40S18.52,1.05,40,1.05s38.95,17.47,38.95,38.95-17.47,38.95-38.95,38.95ZM56.22,27.5c-6.89,0-12.5,5.61-12.5,12.5,0,5.11,3.09,9.51,7.5,11.45h-22.17c4.41-1.93,7.5-6.33,7.5-11.45,0-6.89-5.61-12.5-12.5-12.5s-12.5,5.61-12.5,12.5,5.61,12.5,12.5,12.5h32.18c6.89,0,12.5-5.61,12.5-12.5s-5.61-12.5-12.5-12.5ZM12.6,40c0-6.31,5.14-11.45,11.45-11.45s11.45,5.14,11.45,11.45-5.14,11.45-11.45,11.45-11.45-5.14-11.45-11.45ZM56.22,51.45c-6.31,0-11.45-5.14-11.45-11.45s5.14-11.45,11.45-11.45,11.45,5.14,11.45,11.45-5.14,11.45-11.45,11.45Z"/></svg>