<?xml version="1.0" encoding="UTF-8"?><svg id="modifiers" xmlns="http://www.w3.org/2000/svg" viewBox="0 0 80 80"><defs><style>.cls-1{fill:#fff;}</style></defs><path class="cls-1" d="M69.42,27.55c0-6.4-12.92-11.41-29.42-11.41s-29.42,5.01-29.42,11.41c0,2.3,1.68,4.42,4.59,6.19-2.99,1.82-4.59,3.94-4.59,6.17s1.49,4.17,4.08,5.88c-2.67,1.75-4.08,3.76-4.08,5.86,0,6.4,12.92,11.41,29.42,11.41s29.42-5.01,29.42-11.41c0-2.1-1.41-4.11-4.08-5.86,2.6-1.71,4.08-3.71,4.08-5.88s-1.58-4.35-4.58-6.17c2.9-1.77,4.58-3.89,4.58-6.19ZM68.37,51.65c0,5.61-12.99,10.36-28.37,10.36s-28.37-4.74-28.37-10.36c0-2.27,2.09-4.06,4.03-5.25,4.11,2.34,10.43,4.03,17.88,4.65.3,1.65,3.39,2.51,6.45,2.51s6.16-.86,6.45-2.51c7.46-.62,13.77-2.31,17.88-4.65,1.94,1.18,4.03,2.98,4.03,5.25ZM34.74,51.15c1.7.11,3.46.18,5.26.18s3.56-.06,5.26-.18c-.54.65-2.47,1.37-5.26,1.37s-4.72-.72-5.26-1.37ZM68.37,39.91c0,5.61-12.99,10.36-28.37,10.36s-28.37-4.74-28.37-10.36c0-2.47,2.48-4.39,4.56-5.56l-.02-.03c4.17,2.23,10.4,3.82,17.69,4.4-.26.35-.34.68-.34.94,0,1.82,3.26,2.77,6.48,2.77s6.48-.95,6.48-2.77c0-.27-.08-.6-.34-.94,7.27-.58,13.47-2.16,17.65-4.38,2.21,1.25,4.58,3.15,4.58,5.57ZM44.6,38.83c.51.27.83.58.83.83,0,.7-2.12,1.72-5.43,1.72s-5.43-1.02-5.43-1.72c0-.24.28-.53.75-.79l-.02-.04c1.53.09,3.1.14,4.71.14s3.1-.05,4.6-.13ZM63.75,33.12s-.05-.03-.08-.04l-.06.12c-5.14,2.81-13.89,4.7-23.61,4.7-15.38,0-28.37-4.74-28.37-10.36s12.99-10.36,28.37-10.36,28.37,4.74,28.37,10.36c0,2.03-1.71,3.95-4.62,5.57ZM33.52,27.55c0,1.82,3.26,2.77,6.48,2.77s6.48-.95,6.48-2.77c0-3.64-12.96-3.64-12.96,0ZM40,29.27c-3.31,0-5.43-1.02-5.43-1.72s2.12-1.72,5.43-1.72,5.43,1.02,5.43,1.72-2.12,1.72-5.43,1.72ZM77.51,0H2.49C1.12,0,0,1.12,0,2.49v75.03c0,1.37,1.12,2.49,2.49,2.49h75.03c1.37,0,2.49-1.12,2.49-2.49V2.49c0-1.37-1.12-2.49-2.49-2.49ZM78.95,77.51c0,.79-.64,1.43-1.43,1.43H2.49c-.79,0-1.43-.64-1.43-1.43V2.49c0-.79.64-1.43,1.43-1.43h75.03c.79,0,1.43.64,1.43,1.43v75.03Z"/></svg>