<?xml version="1.0" encoding="UTF-8"?><svg id="modifiers" xmlns="http://www.w3.org/2000/svg" viewBox="0 0 80 80"><defs><style>.cls-1{fill:#fff;}</style></defs><path class="cls-1" d="M77.91,0H2.09C.94,0,0,.94,0,2.09v75.83c0,1.15.94,2.09,2.09,2.09h75.82c1.15,0,2.09-.94,2.09-2.09V2.09c0-1.15-.94-2.09-2.09-2.09ZM78.95,77.91c0,.57-.46,1.03-1.04,1.03H2.09c-.57,0-1.04-.46-1.04-1.03V2.09c0-.57.46-1.03,1.04-1.03h75.82c.57,0,1.04.46,1.04,1.03v75.83ZM40,15.79c-13.24,0-24.02,10.78-24.02,24.02s10.78,24.02,24.02,24.02,24.02-10.78,24.02-24.02-10.78-24.02-24.02-24.02ZM40,62.77c-12.66,0-22.97-10.3-22.97-22.97s10.3-22.97,22.97-22.97,22.97,10.3,22.97,22.97-10.3,22.97-22.97,22.97ZM49.54,44.32c-2.17-.93-3.46.58-4.49,1.8-.32.37-.61.73-.98,1.06-.03.04-.12.15-.43.17-1.22.09-3.93-1.37-6.81-4.25-2.88-2.88-4.31-5.6-4.24-6.81.02-.31.13-.4.22-.48.35-.36.74-.68,1.11-.98,1.38-1.13,2.81-2.3,1.3-5.04-.14-.26-.33-.64-.54-1.09-1.3-2.71-2.38-4.78-3.68-4.65-2.48.22-4.23.59-5.76,3.61-1.85,3.23-1.02,6.52-.09,9.35,1.4,4.31,3.75,7.28,7.1,10.68,3.6,3.54,7.48,6.13,10.94,7.31,1.47.5,3.01.91,4.61.91,1.43,0,2.92-.33,4.45-1.2,3.02-1.53,3.4-3.28,3.63-5.77.19-1.5-3.33-3.35-6.33-4.64ZM54.82,48.85c-.23,2.47-.58,3.68-3.08,4.95-2.75,1.57-5.28,1.23-8.22.22-3.31-1.12-7.06-3.63-10.54-7.05-3.23-3.29-5.5-6.15-6.84-10.26-1.09-3.34-1.47-5.93.02-8.53,1.26-2.48,2.53-2.85,4.94-3.06,0,0,.01,0,.02,0,.44,0,1.32,1.36,2.62,4.06.22.47.42.87.57,1.14,1.08,1.97.28,2.63-1.05,3.72-.4.32-.81.66-1.15,1.02-.24.19-.53.55-.56,1.2-.1,1.73,1.73,4.79,4.55,7.61,2.82,2.82,5.89,4.66,7.61,4.55.65-.04,1.01-.33,1.13-.5.36-.32.7-.72,1.02-1.11,1.13-1.33,1.9-2.1,3.27-1.51,3.77,1.62,5.73,3.1,5.7,3.54l.52.07-.52-.05ZM10.16,17.51h-1.05s.09-7.8.09-7.8c0-.14.06-.27.16-.37.1-.1.24-.15.37-.15l7.6.09v1.05s-6.32-.08-6.32-.08l10.59,10.59-.74.74-10.62-10.62-.08,6.54ZM69.61,62.22h1.05s-.09,7.8-.09,7.8c0,.14-.06.27-.16.37-.1.1-.23.15-.37.15h0l-7.6-.09v-1.05s6.32.08,6.32.08l-10.51-10.51.74-.74,10.54,10.54.08-6.54ZM70.52,8.73l.74.74-10.79,10.79,6.54.08v1.05s-7.8-.09-7.8-.09c-.14,0-.27-.06-.37-.16-.1-.1-.15-.23-.15-.37l.09-7.6h1.05s-.08,6.32-.08,6.32l10.76-10.76ZM21.63,58.33c.1.1.15.23.15.37l-.09,7.6h-1.05s.08-6.32.08-6.32l-10.5,10.5-.74-.74,10.53-10.53-6.54-.08v-1.05s7.8.09,7.8.09c.14,0,.27.06.37.16Z"/></svg>