<?xml version="1.0" encoding="UTF-8"?><svg id="modifiers" xmlns="http://www.w3.org/2000/svg" viewBox="0 0 80 80"><defs><style>.cls-1{fill:#fff;}</style></defs><path class="cls-1" d="M23.15,18.23c1.76,0,3.2-1.43,3.2-3.2s-1.43-3.2-3.2-3.2-3.2,1.43-3.2,3.2,1.44,3.2,3.2,3.2ZM23.15,12.89c1.18,0,2.14.96,2.14,2.14s-.96,2.15-2.14,2.15-2.15-.96-2.15-2.15.96-2.14,2.15-2.14ZM18.26,27.69h-1.05v-5.79c0-1.84,1.5-3.34,3.34-3.34h5.31c1.84,0,3.34,1.5,3.34,3.34v5.79h-1.05v-5.79c0-1.26-1.02-2.29-2.29-2.29h-5.31c-1.26,0-2.29,1.03-2.29,2.29v5.79ZM60.71,34.79c0,1.76,1.44,3.2,3.2,3.2s3.2-1.43,3.2-3.2-1.44-3.2-3.2-3.2-3.2,1.43-3.2,3.2ZM66.05,34.79c0,1.18-.96,2.14-2.15,2.14s-2.15-.96-2.15-2.14.96-2.15,2.15-2.15,2.15.96,2.15,2.15ZM69.96,41.65v5.79h-1.05v-5.79c0-1.26-1.03-2.29-2.29-2.29h-5.31c-1.26,0-2.29,1.03-2.29,2.29v5.79h-1.05v-5.79c0-1.84,1.5-3.34,3.34-3.34h5.31c1.84,0,3.34,1.5,3.34,3.34ZM29.91,53.39c-1.76,0-3.2,1.43-3.2,3.2s1.44,3.2,3.2,3.2,3.2-1.43,3.2-3.2-1.44-3.2-3.2-3.2ZM29.91,58.73c-1.18,0-2.15-.96-2.15-2.15s.96-2.14,2.15-2.14,2.15.96,2.15,2.14-.96,2.15-2.15,2.15ZM35.95,63.44v5.79h-1.05v-5.79c0-1.26-1.03-2.29-2.29-2.29h-5.31c-1.26,0-2.29,1.03-2.29,2.29v5.79h-1.05v-5.79c0-1.84,1.5-3.34,3.34-3.34h5.31c1.84,0,3.34,1.5,3.34,3.34ZM16.82,49.91c1.26,2.99,3.07,5.67,5.38,7.97l-.74.74c-2.4-2.4-4.28-5.19-5.6-8.31-1.36-3.22-2.05-6.64-2.05-10.17s.69-6.95,2.05-10.17l.97.41c-1.31,3.09-1.97,6.38-1.97,9.76s.66,6.67,1.97,9.76ZM63.04,49.91l.97.41c-1.32,3.11-3.2,5.91-5.6,8.31-2.4,2.4-5.2,4.29-8.31,5.6-3.22,1.36-6.64,2.05-10.17,2.05v-1.05c3.39,0,6.67-.66,9.76-1.97,2.99-1.26,5.67-3.07,7.97-5.38,2.3-2.3,4.11-4.99,5.37-7.97ZM30.16,17.04l-.41-.97c3.22-1.36,6.64-2.05,10.17-2.05s6.95.69,10.17,2.05c3.11,1.32,5.91,3.2,8.31,5.6s4.28,5.2,5.6,8.31l-.97.41c-1.26-2.99-3.07-5.67-5.37-7.97s-4.99-4.11-7.97-5.38c-6.19-2.62-13.34-2.61-19.53,0ZM40,0C17.94,0,0,17.94,0,40s17.94,40,40,40,40-17.94,40-40S62.06,0,40,0ZM40,78.95C18.52,78.95,1.05,61.48,1.05,40S18.52,1.05,40,1.05s38.95,17.47,38.95,38.95-17.47,38.95-38.95,38.95ZM33.37,49.41l17.65-10.19c.16-.09.26-.27.26-.46s-.1-.36-.26-.46l-17.65-10.19c-.16-.09-.36-.09-.53,0-.16.09-.26.27-.26.46v20.38c0,.19.1.36.26.46.08.05.17.07.26.07s.18-.02.26-.07ZM33.63,29.48l16.07,9.28-16.07,9.28v-18.56Z"/></svg>