<?xml version="1.0" encoding="UTF-8"?><svg id="modifiers" xmlns="http://www.w3.org/2000/svg" viewBox="0 0 80 80"><defs><style>.cls-1{fill:#fff;}</style></defs><path class="cls-1" d="M40,0C17.94,0,0,17.94,0,40s17.94,40,40,40,40-17.94,40-40S62.06,0,40,0ZM40,78.95C18.52,78.95,1.05,61.48,1.05,40S18.52,1.05,40,1.05s38.95,17.47,38.95,38.95-17.47,38.95-38.95,38.95ZM44,67.99l-2.25-.03.92-3.08c.07-.21.02-.45-.11-.63-.13-.18-.35-.29-.57-.29h-3.99c-.31,0-.58.2-.67.49l-1.99,5.98c-.07.22-.04.46.1.64.13.19.35.3.58.3h2.32l-1.03,5.13c-.06.33.1.65.4.79.07.03.22.07.3.07.22,0,.43-.1.57-.28l5.98-7.94c.16-.22.19-.5.07-.74-.12-.24-.36-.39-.63-.4ZM38.63,75.24l.8-4.03c.04-.22-.01-.45-.15-.62s-.35-.27-.58-.27h-2.22l1.77-5.3h3.28l-.91,3.03c-.07.23-.02.47.12.66.14.19.36.3.59.3l1.97.02-4.67,6.2ZM57.1,19.34H23.08c-.29,0-.53.24-.53.53v36.71c0,.29.24.53.53.53h6.77v2.82c0,.29.24.53.53.53h19.89c.29,0,.53-.24.53-.53v-2.82h6.31c.29,0,.53-.24.53-.53V19.87c0-.29-.24-.53-.53-.53ZM56.57,56.05h-6.31c-.29,0-.53.24-.53.53v2.82h-18.83v-2.82c0-.29-.24-.53-.53-.53h-6.77V20.39h32.96v35.66Z"/></svg>