<?xml version="1.0" encoding="UTF-8"?><svg id="device" xmlns="http://www.w3.org/2000/svg" viewBox="0 0 80 80"><defs><style>.cls-1{fill:#07182d;fill-rule:evenodd;}</style></defs><g id="Layer_4"><path class="cls-1" d="M74.21,37.37c0,.3-.24.54-.54.54h-4.86c-.3,0-.54-.24-.54-.54s.24-.54.54-.54h4.86c.3,0,.54.24.54.54ZM73.67,42.09h-4.86c-.3,0-.54.24-.54.54s.24.54.54.54h4.86c.3,0,.54-.24.54-.54s-.24-.54-.54-.54ZM80,33.61v12.79c0,.4-.32.72-.72.72h-2.44s-.08-.02-.12-.02c-.04,0-.07.02-.11.02H3.25s-.03,0-.04,0c-.01,0-.02,0-.04,0H.58C.28,47.12,0,46.84,0,46.54v-13.08c0-.3.28-.58.58-.58h2.6s.03,0,.04,0c.01,0,.02,0,.04,0h73.36s.07.02.11.02c.04,0,.08-.02.12-.02h2.44c.4,0,.72.32.72.72ZM1.08,46.04h1.59v-12.07h-1.59v12.07ZM3.75,46.04h72.36v-12.07H3.75v12.07ZM78.92,33.96h-1.73v12.07h1.73v-12.07ZM8.05,36.41v-.69h-1.44v.69h-.66s-.06.03-.06.06v2.48s.03.06.06.06h2.75s.06-.03.06-.06v-2.48s-.03-.06-.06-.06h-.66ZM15.24,36.41v-.69h-1.44v.69h-.66s-.06.03-.06.06v2.48s.03.06.06.06h2.75s.06-.03.06-.06v-2.48s-.03-.06-.06-.06h-.66ZM22.44,36.41v-.69h-1.44v.69h-.66s-.06.03-.06.06v2.48s.03.06.06.06h2.75s.06-.03.06-.06v-2.48s-.03-.06-.06-.06h-.66ZM29.63,36.41v-.69h-1.44v.69h-.66s-.06.03-.06.06v2.48s.03.06.06.06h2.75s.06-.03.06-.06v-2.48s-.03-.06-.06-.06h-.66ZM36.83,36.41v-.69h-1.44v.69h-.66s-.06.03-.06.06v2.48s.03.06.06.06h2.75s.06-.03.06-.06v-2.48s-.03-.06-.06-.06h-.66ZM44.03,36.41v-.69h-1.44v.69h-.66s-.06.03-.06.06v2.48s.03.06.06.06h2.75s.06-.03.06-.06v-2.48s-.03-.06-.06-.06h-.66ZM51.22,36.41v-.69h-1.44v.69h-.66s-.06.03-.06.06v2.48s.03.06.06.06h2.75s.06-.03.06-.06v-2.48s-.03-.06-.06-.06h-.66ZM58.42,36.41v-.69h-1.44v.69h-.66s-.06.03-.06.06v2.48s.03.06.06.06h2.75s.06-.03.06-.06v-2.48s-.03-.06-.06-.06h-.66ZM65.61,36.41v-.69h-1.44v.69h-.66s-.06.03-.06.06v2.48s.03.06.06.06h2.75s.06-.03.06-.06v-2.48s-.03-.06-.06-.06h-.66ZM63.52,41.08s-.06.03-.06.06v2.48s.03.06.06.06h.66v.69h1.44v-.69h.66s.06-.03.06-.06v-2.48s-.03-.06-.06-.06h-2.75ZM56.32,41.08s-.06.03-.06.06v2.48s.03.06.06.06h.66v.69h1.44v-.69h.66s.06-.03.06-.06v-2.48s-.03-.06-.06-.06h-2.75ZM49.12,41.08s-.06.03-.06.06v2.48s.03.06.06.06h.66v.69h1.44v-.69h.66s.06-.03.06-.06v-2.48s-.03-.06-.06-.06h-2.75ZM41.93,41.08s-.06.03-.06.06v2.48s.03.06.06.06h.66v.69h1.44v-.69h.66s.06-.03.06-.06v-2.48s-.03-.06-.06-.06h-2.75ZM34.73,41.08s-.06.03-.06.06v2.48s.03.06.06.06h.66v.69h1.44v-.69h.66s.06-.03.06-.06v-2.48s-.03-.06-.06-.06h-2.75ZM27.54,41.08s-.06.03-.06.06v2.48s.03.06.06.06h.66v.69h1.44v-.69h.66s.06-.03.06-.06v-2.48s-.03-.06-.06-.06h-2.75ZM20.34,41.08s-.06.03-.06.06v2.48s.03.06.06.06h.66v.69h1.44v-.69h.66s.06-.03.06-.06v-2.48s-.03-.06-.06-.06h-2.75ZM13.14,41.08s-.06.03-.06.06v2.48s.03.06.06.06h.66v.69h1.44v-.69h.66s.06-.03.06-.06v-2.48s-.03-.06-.06-.06h-2.75ZM5.95,41.08s-.06.03-.06.06v2.48s.03.06.06.06h.66v.69h1.44v-.69h.66s.06-.03.06-.06v-2.48s-.03-.06-.06-.06h-2.75Z"/></g></svg>