<?xml version="1.0" encoding="UTF-8"?><svg id="modifiers" xmlns="http://www.w3.org/2000/svg" viewBox="0 0 80 80"><defs><style>.cls-1{fill:#07182d;}</style></defs><path class="cls-1" d="M40,0C17.94,0,0,17.94,0,40s17.94,40,40,40,40-17.94,40-40S62.06,0,40,0ZM40,78.95C18.52,78.95,1.05,61.48,1.05,40S18.52,1.05,40,1.05s38.95,17.47,38.95,38.95-17.47,38.95-38.95,38.95ZM59.35,54.51h1.05v9.55c0,.54-.44.98-.98.98H20.58c-.54,0-.98-.44-.98-.98v-9.55h1.05v9.48h38.69v-9.48ZM35.68,50.94l3.7,3.98v-11.17s1.3,0,1.3,0v11.17s3.7-3.99,3.7-3.99l.95.88-4.83,5.19c-.26.28-.69.28-.95,0l-4.83-5.19.95-.88ZM36.82,40.07h-11.23V16h28.89v24.07h-11.23v-14.44h-6.42v14.44Z"/></svg>