<?xml version="1.0" encoding="UTF-8"?><svg id="modifiers" xmlns="http://www.w3.org/2000/svg" viewBox="0 0 80 80"><defs><style>.cls-1{fill:#07182d;}</style></defs><path class="cls-1" d="M67.47,35.92c-1.71,0-3.42.36-4.97,1.06-2.34-10.46-11.71-17.99-22.52-17.99-8.98,0-17.14,5.24-20.92,13.4-1.42-.46-2.91-.69-4.43-.69-8.07,0-14.64,6.58-14.64,14.66s6.57,14.66,14.64,14.66h52.84c6.91,0,12.53-5.63,12.53-12.55s-5.62-12.55-12.53-12.55ZM67.47,59.96H14.64c-7.49,0-13.59-6.1-13.59-13.61s6.09-13.61,13.59-13.61c1.57,0,3.1.26,4.54.79.26.1.55-.03.66-.28,3.52-8.02,11.43-13.21,20.15-13.21,10.54,0,19.63,7.49,21.62,17.8.03.16.14.3.29.37.15.07.32.07.47,0,1.56-.81,3.32-1.24,5.1-1.24,6.33,0,11.47,5.16,11.47,11.49s-5.15,11.49-11.47,11.49Z"/></svg>