<?xml version="1.0" encoding="UTF-8"?><svg id="device" xmlns="http://www.w3.org/2000/svg" viewBox="0 0 80 80"><defs><style>.cls-1{fill:#07182d;}</style></defs><g id="Layer_4"><path class="cls-1" d="M80,28.81c0-.4-.32-.72-.72-.72h-2.45s-.08.02-.11.02c-.03,0-.07-.02-.1-.02h-1.05c-1.92-2.17-4.71-3.55-7.83-3.55s-5.91,1.38-7.83,3.55H3.25s-.02,0-.04,0c-.01,0-.02,0-.04,0H.58C.28,28.09,0,28.37,0,28.67v13.08s0,.02,0,.03c0,0,0,.02,0,.03v13.08c0,.3.28.58.58.58h2.6s.02,0,.04,0c.01,0,.02,0,.04,0h73.36s.07-.02.1-.02c.04,0,.07.02.11.02h2.45c.4,0,.72-.32.72-.72v-12.8c0-.06-.02-.11-.03-.17.01-.06.03-.11.03-.17v-12.8ZM67.73,25.63c5.17,0,9.38,4.21,9.38,9.38s-4.21,9.38-9.38,9.38-9.38-4.21-9.38-9.38,4.21-9.38,9.38-9.38ZM57.84,31.62h-.45v-.69h-1.44v.69h-.66s-.06.03-.06.06v2.48s.03.06.06.06h2.02c-.02.26-.04.52-.04.78,0,.43.03.86.09,1.28h-2.06s-.06.03-.06.06v2.48s.03.06.06.06h.66v.69h1.44v-.69h.63c.34.84.78,1.62,1.32,2.34H3.76v-4.08c.37-1.61,1.03-2.92,2.13-3.45v.47s.03.06.06.06h2.75s.06-.03.06-.06v-2.48s-.03-.06-.06-.06h-.66v-.69h-1.44v.69h-.66s-.06.03-.06.06v.67c-.86.24-1.57.76-2.13,1.56v-4.74h55.29c-.51.75-.91,1.58-1.21,2.45ZM1.09,29.17h1.59v7.2c-.35,1.31-.54,2.93-.57,4.85h-1.01v-12.05ZM2.67,54.37h-1.59v-12.05h1.01c.03,2.27.24,4,.57,5.32v6.73ZM3.76,50.14c.62.84,1.36,1.25,2.13,1.42v.4s.03.06.06.06h.66v.69h1.44v-.69h.66s.06-.03.06-.06v-2.48s-.03-.06-.06-.06h-2.75s-.06.03-.06.06v.82c-.79-.27-1.64-1.06-2.13-3.35v-4.63h56.51c1.04,1.06,2.3,1.89,3.7,2.43h-.46s-.06.03-.06.06v2.48s.03.06.06.06h2.75s.06-.03.06-.06v-1.93c.46.06.93.11,1.4.11,2.92,0,5.56-1.21,7.46-3.14h.91v12.05H3.76v-4.23ZM78.91,54.37h-1.72v-12.05h1.72v12.05ZM77.19,41.22v-1.77c.64-1.35,1.01-2.85,1.01-4.45s-.37-3.09-1.01-4.45v-1.38h1.72v12.05h-1.72ZM14.17,38.88s-.06-.03-.06-.06v-2.48s.03-.06.06-.06h2.75s.06.03.06.06v2.48s-.03.06-.06.06h-.66v.69h-1.44v-.69h-.66ZM22.4,38.88s-.06-.03-.06-.06v-2.48s.03-.06.06-.06h2.75s.06.03.06.06v2.48s-.03.06-.06.06h-.66v.69h-1.44v-.69h-.66ZM30.62,38.88s-.06-.03-.06-.06v-2.48s.03-.06.06-.06h2.75s.06.03.06.06v2.48s-.03.06-.06.06h-.66v.69h-1.44v-.69h-.66ZM38.84,38.88s-.06-.03-.06-.06v-2.48s.03-.06.06-.06h2.75s.06.03.06.06v2.48s-.03.06-.06.06h-.66v.69h-1.44v-.69h-.66ZM47.07,38.88s-.06-.03-.06-.06v-2.48s.03-.06.06-.06h2.75s.06.03.06.06v2.48s-.03.06-.06.06h-.66v.69h-1.44v-.69h-.66ZM8.71,36.28s.06.03.06.06v2.48s-.03.06-.06.06h-.66v.69h-1.44v-.69h-.66s-.06-.03-.06-.06v-2.48s.03-.06.06-.06h2.75ZM14.17,34.22s-.06-.03-.06-.06v-2.48s.03-.06.06-.06h.66v-.69h1.44v.69h.66s.06.03.06.06v2.48s-.03.06-.06.06h-2.75ZM22.4,34.22s-.06-.03-.06-.06v-2.48s.03-.06.06-.06h.66v-.69h1.44v.69h.66s.06.03.06.06v2.48s-.03.06-.06.06h-2.75ZM30.62,34.22s-.06-.03-.06-.06v-2.48s.03-.06.06-.06h.66v-.69h1.44v.69h.66s.06.03.06.06v2.48s-.03.06-.06.06h-2.75ZM38.84,34.22s-.06-.03-.06-.06v-2.48s.03-.06.06-.06h.66v-.69h1.44v.69h.66s.06.03.06.06v2.48s-.03.06-.06.06h-2.75ZM47.07,34.22s-.06-.03-.06-.06v-2.48s.03-.06.06-.06h.66v-.69h1.44v.69h.66s.06.03.06.06v2.48s-.03.06-.06.06h-2.75ZM8.71,44.76s.06.03.06.06v2.48s-.03.06-.06.06h-2.75s-.06-.03-.06-.06v-2.48s.03-.06.06-.06h.66v-.69h1.44v.69h.66ZM16.93,44.76s.06.03.06.06v2.48s-.03.06-.06.06h-2.75s-.06-.03-.06-.06v-2.48s.03-.06.06-.06h.66v-.69h1.44v.69h.66ZM25.15,44.76s.06.03.06.06v2.48s-.03.06-.06.06h-2.75s-.06-.03-.06-.06v-2.48s.03-.06.06-.06h.66v-.69h1.44v.69h.66ZM33.38,44.76s.06.03.06.06v2.48s-.03.06-.06.06h-2.75s-.06-.03-.06-.06v-2.48s.03-.06.06-.06h.66v-.69h1.44v.69h.66ZM41.6,44.76s.06.03.06.06v2.48s-.03.06-.06.06h-2.75s-.06-.03-.06-.06v-2.48s.03-.06.06-.06h.66v-.69h1.44v.69h.66ZM49.82,44.76s.06.03.06.06v2.48s-.03.06-.06.06h-2.75s-.06-.03-.06-.06v-2.48s.03-.06.06-.06h.66v-.69h1.44v.69h.66ZM58.05,44.76s.06.03.06.06v2.48s-.03.06-.06.06h-2.75s-.06-.03-.06-.06v-2.48s.03-.06.06-.06h.66v-.69h1.44v.69h.66ZM16.93,49.42s.06.03.06.06v2.48s-.03.06-.06.06h-.66v.69h-1.44v-.69h-.66s-.06-.03-.06-.06v-2.48s.03-.06.06-.06h2.75ZM25.15,49.42s.06.03.06.06v2.48s-.03.06-.06.06h-.66v.69h-1.44v-.69h-.66s-.06-.03-.06-.06v-2.48s.03-.06.06-.06h2.75ZM33.38,49.42s.06.03.06.06v2.48s-.03.06-.06.06h-.66v.69h-1.44v-.69h-.66s-.06-.03-.06-.06v-2.48s.03-.06.06-.06h2.75ZM41.6,49.42s.06.03.06.06v2.48s-.03.06-.06.06h-.66v.69h-1.44v-.69h-.66s-.06-.03-.06-.06v-2.48s.03-.06.06-.06h2.75ZM49.82,49.42s.06.03.06.06v2.48s-.03.06-.06.06h-.66v.69h-1.44v-.69h-.66s-.06-.03-.06-.06v-2.48s.03-.06.06-.06h2.75ZM58.05,49.42s.06.03.06.06v2.48s-.03.06-.06.06h-.66v.69h-1.44v-.69h-.66s-.06-.03-.06-.06v-2.48s.03-.06.06-.06h2.75ZM66.27,49.42s.06.03.06.06v2.48s-.03.06-.06.06h-.66v.69h-1.44v-.69h-.66s-.06-.03-.06-.06v-2.48s.03-.06.06-.06h2.75Z"/></g></svg>