<?xml version="1.0" encoding="UTF-8"?><svg id="modifiers" xmlns="http://www.w3.org/2000/svg" viewBox="0 0 80 80"><defs><style>.cls-1{fill:#fff;}</style></defs><path class="cls-1" d="M77.91,0H2.09C.94,0,0,.94,0,2.09v75.83c0,1.15.94,2.09,2.09,2.09h75.82c1.15,0,2.09-.94,2.09-2.09V2.09c0-1.15-.94-2.09-2.09-2.09ZM78.95,77.91c0,.57-.46,1.03-1.04,1.03H2.09c-.57,0-1.04-.46-1.04-1.03V2.09c0-.57.46-1.03,1.04-1.03h75.82c.57,0,1.04.46,1.04,1.03v75.83ZM53.85,51.82h-9.05c-.37,0-.68.3-.68.68v4.6c0,.37.3.68.68.68h9.05c.37,0,.68-.3.68-.68v-4.6c0-.37-.3-.68-.68-.68ZM53.47,56.72h-8.3v-3.85h8.3v3.85ZM33.13,51.82c-.37,0-.68.3-.68.68v4.6c0,.37.3.68.68.68h9.05c.37,0,.68-.3.68-.68v-4.6c0-.37-.3-.68-.68-.68h-9.05ZM41.81,56.72h-8.3v-3.85h8.3v3.85ZM25.6,57.1c0,.37.3.68.68.68h4.6c.37,0,.68-.3.68-.68v-4.6c0-.37-.3-.68-.68-.68h-4.6c-.37,0-.68.3-.68.68v4.6ZM26.65,52.88h3.85v3.85h-3.85v-3.85ZM25.6,45.31v4.6c0,.37.3.68.68.68h9.05c.37,0,.68-.3.68-.68v-4.6c0-.37-.3-.68-.68-.68h-9.05c-.37,0-.68.3-.68.68ZM26.65,45.69h8.3v3.85h-8.3v-3.85ZM47.67,49.91v-4.6c0-.37-.3-.68-.68-.68h-9.05c-.37,0-.68.3-.68.68v4.6c0,.37.3.68.68.68h9.05c.37,0,.68-.3.68-.68ZM46.62,49.53h-8.3v-3.85h8.3v3.85ZM53.85,44.63h-4.6c-.37,0-.68.3-.68.68v4.6c0,.37.3.68.68.68h4.6c.37,0,.68-.3.68-.68v-4.6c0-.37-.3-.68-.68-.68ZM53.47,49.53h-3.85v-3.85h3.85v3.85ZM35.33,59.02h-9.05c-.37,0-.68.3-.68.68v4.6c0,.37.3.68.68.68h9.05c.37,0,.68-.3.68-.68v-4.6c0-.37-.3-.68-.68-.68ZM34.95,63.92h-8.3v-3.85h8.3v3.85ZM46.99,59.02h-9.05c-.37,0-.68.3-.68.68v4.6c0,.37.3.68.68.68h9.05c.37,0,.68-.3.68-.68v-4.6c0-.37-.3-.68-.68-.68ZM46.62,63.92h-8.3v-3.85h8.3v3.85ZM53.85,59.02h-4.6c-.37,0-.68.3-.68.68v4.6c0,.37.3.68.68.68h4.6c.37,0,.68-.3.68-.68v-4.6c0-.37-.3-.68-.68-.68ZM53.47,63.92h-3.85v-3.85h3.85v3.85ZM47.75,26.43h-20.39c-.47,0-.84.38-.84.84v13.59c0,.47.38.84.84.84h20.39c.47,0,.84-.38.84-.84v-2.65l3.85,2.09c.26.14.58.14.84-.01.26-.15.42-.43.42-.73v-11c0-.3-.16-.58-.41-.72-.25-.15-.57-.16-.84-.02l-3.85,2.08v-2.63c0-.47-.38-.84-.84-.84ZM48.64,31.08l4.01-2.16v10.3l-4-2.18c-.23-.13-.5-.12-.73.01-.23.13-.36.37-.36.64v2.97h-19.97v-13.18h19.97v2.95c0,.26.13.5.36.63.23.14.5.14.73.02ZM66.01,39.06c0-6.98-2.72-13.55-7.66-18.48-4.94-4.94-11.5-7.66-18.48-7.66s-13.55,2.72-18.48,7.66c-4.94,4.94-7.66,11.5-7.66,18.48h-1.05c0-7.26,2.83-14.09,7.96-19.23,5.13-5.14,11.96-7.96,19.23-7.96s14.09,2.83,19.23,7.96c5.14,5.14,7.96,11.96,7.96,19.23h-1.05ZM13.4,48.08c1.81,0,3.29-1.47,3.29-3.29s-1.48-3.29-3.29-3.29-3.29,1.47-3.29,3.29,1.48,3.29,3.29,3.29ZM13.4,42.56c1.23,0,2.23,1,2.23,2.23s-1,2.23-2.23,2.23-2.23-1-2.23-2.23,1-2.23,2.23-2.23ZM19.64,51.88v5.99h-1.05v-5.99c0-1.31-1.07-2.38-2.38-2.38h-5.49c-1.31,0-2.38,1.07-2.38,2.38v5.99h-1.05v-5.99c0-1.89,1.54-3.43,3.43-3.43h5.49c1.89,0,3.43,1.54,3.43,3.43ZM63.19,44.79c0,1.81,1.48,3.29,3.29,3.29s3.29-1.47,3.29-3.29-1.48-3.29-3.29-3.29-3.29,1.47-3.29,3.29ZM68.72,44.79c0,1.23-1,2.23-2.23,2.23s-2.23-1-2.23-2.23,1-2.23,2.23-2.23,2.23,1,2.23,2.23ZM72.72,51.88v5.99h-1.05v-5.99c0-1.31-1.07-2.38-2.38-2.38h-5.49c-1.31,0-2.38,1.07-2.38,2.38v5.99h-1.05v-5.99c0-1.89,1.54-3.43,3.43-3.43h5.49c1.89,0,3.43,1.54,3.43,3.43Z"/></svg>