<?xml version="1.0" encoding="UTF-8"?><svg id="modifiers" xmlns="http://www.w3.org/2000/svg" viewBox="0 0 80 80"><defs><style>.cls-1{fill:#fff;}</style></defs><path class="cls-1" d="M40,0C17.94,0,0,17.94,0,40s17.94,40,40,40,40-17.94,40-40S62.06,0,40,0ZM40,78.95C18.52,78.95,1.05,61.48,1.05,40S18.52,1.05,40,1.05s38.95,17.47,38.95,38.95-17.47,38.95-38.95,38.95ZM59.62,52.79h1.05s-.09,7.67-.09,7.67c0,.14-.06.27-.16.37-.1.1-.23.15-.37.15h0l-7.48-.09v-1.05s6.2.08,6.2.08l-15.06-15.06.74-.74,15.09,15.09.08-6.41ZM38.9,39.57c.1.1.15.23.15.37s-.06.27-.16.37l-5.35,5.22-.73-.75,4.43-4.32H11.32v-1.05h25.95l-4.48-4.59.75-.74,5.35,5.48ZM68.85,39.82c0,.14-.06.27-.16.37l-5.35,5.22-.73-.75,4.43-4.32h-22.73v-1.05h22.77l-4.48-4.59.75-.74,5.35,5.48c.1.1.15.23.15.37ZM43.38,35.12l14.39-15.47-5.92-.07v-1.05s6.88.08,6.88.08l.1-.11.12.11h.57c.14,0,.27.07.37.17.1.1.15.23.15.37l-.09,7.48h-1.05s.08-6.74.08-6.74l-14.83,15.95-.77-.72Z"/></svg>