<?xml version="1.0" encoding="UTF-8"?><svg id="modifiers" xmlns="http://www.w3.org/2000/svg" viewBox="0 0 80 80"><defs><style>.cls-1{fill:#07182d;}</style></defs><path class="cls-1" d="M65.35,19.77H14.65c-.94,0-1.71.77-1.71,1.71v32.41c0,.94.77,1.71,1.71,1.71h24.82v3.64h-11.55v1.05h24.16v-1.05h-11.55v-3.64h24.82c.94,0,1.71-.77,1.71-1.71V21.48c0-.94-.77-1.71-1.71-1.71ZM14.65,20.83h50.69c.36,0,.66.29.66.66v26.97H14v-26.97c0-.36.29-.66.66-.66ZM66,53.9c0,.36-.29.66-.66.66H14.65c-.36,0-.66-.29-.66-.66v-4.39h52.01v4.39ZM47.61,40.93l-.52-.91.52-.91h0s0,0,0,0h1.05v.92c0,.19-.1.36-.26.46l-.79.46ZM42.37,43.94l-.52-.91,1.31-.75.52.91-1.31.75ZM44.99,42.43l-.52-.91,1.31-.75.52.91-1.31.75ZM39.74,45.14l-.79-.46.52-.91h0s0,0,0,0h1.05s0,0,0,0l.52.91-.79.46c-.08.05-.17.07-.26.07s-.18-.02-.26-.07ZM35.01,42.43l-1.31-.75.52-.91,1.31.75-.52.91ZM37.63,43.94l-1.31-.75.52-.91,1.31.75-.52.91ZM31.33,40.01v-.92h1.05s0,0,0,0l.52.91-.52.91-.79-.46c-.16-.09-.26-.27-.26-.46ZM36.85,37.75l-.52-.91,1.31-.75.52.91-1.31.75ZM34.23,39.26l-.52-.91,1.31-.75.52.91-1.31.75ZM45.77,39.26l-1.31-.75.52-.91,1.31.75-.52.91ZM43.15,37.75l-1.31-.75.52-.91,1.31.75-.52.91ZM47.61,33.29h1.05v1.45h-1.05v-1.45ZM47.61,36.19h1.05v1.45h-1.05v-1.45ZM32.39,31.84h-1.05v-.92c0-.19.1-.36.26-.46l.79-.46.52.91-.52.91h0s0,0,0,0ZM32.39,37.65h-1.05v-1.45h1.05v1.45ZM32.39,34.74h-1.05v-1.45h1.05v1.45ZM39.47,40.87h1.05v1.45h-1.05v-1.45ZM40.53,39.42h-1.05v-1.45h1.05v1.45ZM47.61,31.84l-.52-.91h0s.52-.91.52-.91l.79.46c.16.09.26.27.26.46v.92h-1.05s0,0,0,0ZM44.99,33.34l-.52-.91,1.31-.75.52.91-1.31.75ZM42.37,34.85l-.52-.91,1.31-.75.52.91-1.31.75ZM38.94,35.6l.08-.13-.08-.13.23-.13.3-.51.31.18c.14-.07.3-.07.44,0l.31-.18.3.51.23.13-.08.13.08.13-.23.13-.3.51h0s0,.27,0,.27h-1.05v-.27h0s-.3-.51-.3-.51l-.23-.13ZM37.63,34.85l-1.31-.75.52-.91,1.31.75-.52.91ZM35.01,33.34l-1.31-.75.52-.91,1.31.75-.52.91ZM36.85,28.67l-.52-.91,1.31-.75.52.91-1.31.75ZM34.23,30.17l-.52-.91,1.31-.75.52.91-1.31.75ZM39.47,27.16l-.52-.91.79-.46c.16-.09.36-.09.52,0l.79.46-.52.91-.53-.31-.53.31ZM45.77,30.17l-1.31-.75.52-.91,1.31.75-.52.91ZM43.15,28.67l-1.31-.75.52-.91,1.31.75-.52.91ZM40,0C17.94,0,0,17.94,0,40s17.94,40,40,40,40-17.94,40-40S62.06,0,40,0ZM40,78.95C18.52,78.95,1.05,61.48,1.05,40S18.52,1.05,40,1.05s38.95,17.47,38.95,38.95-17.47,38.95-38.95,38.95Z"/></svg>