<?xml version="1.0" encoding="UTF-8"?><svg id="device" xmlns="http://www.w3.org/2000/svg" viewBox="0 0 80 80"><defs><style>.cls-1{fill:#07182d;}</style></defs><g id="Layer_4"><path class="cls-1" d="M80,28.81c0-.41-.33-.75-.75-.75h-2.4s-.09.02-.13.03c-.04,0-.08-.03-.12-.03h-1.07c-1.92-2.14-4.69-3.5-7.79-3.5s-5.87,1.36-7.79,3.5H3.26s-.03,0-.04,0c-.01,0-.03,0-.04,0H.58C.28,28.06,0,28.35,0,28.65v13.07s0,.02,0,.03c0,.01,0,.02,0,.03v13.07c0,.3.28.58.58.58h2.59s.03,0,.04,0c.01,0,.03,0,.04,0h73.35s.08-.02.12-.03c.04,0,.08.03.13.03h2.4c.41,0,.75-.33.75-.75v-12.75c0-.07-.02-.13-.04-.19.02-.06.04-.13.04-.19v-12.75ZM2.67,54.35h-1.59v-11.84c.06,3.57.58,6.13,1.59,7.79v4.05ZM2.67,33.73c-.91,1.52-1.53,3.89-1.58,7.47h0v-12.05h1.59v4.58ZM67.75,25.65c5.17,0,9.38,4.21,9.38,9.38s-4.21,9.38-9.38,9.38-9.38-4.21-9.38-9.38,4.21-9.38,9.38-9.38ZM3.76,29.15h55.34c-1.15,1.68-1.82,3.71-1.82,5.89,0,2.31.76,4.43,2.03,6.16H4.34c.05-2.76.5-6.78,2.7-6.78v-.23h1.67s.06-.03.06-.06v-2.48s-.03-.06-.06-.06h-.66v-.69h-1.44v.28c-.97.07-1.97.41-2.85,1.2v-3.24ZM76.1,54.35H3.76v-2.76c.77.64,1.72.98,2.85,1.05v.04h1.44v-.69h.66s.06-.03.06-.06v-2.48s-.03-.06-.06-.06h-2.04c-.91-.1-2.25-.92-2.33-7.09h55.89c1.01,1.04,2.23,1.88,3.59,2.43h-.3s-.06.03-.06.06v2.48s.03.06.06.06h2.75s.06-.03.06-.06v-1.87c.46.06.94.11,1.42.11,2.95,0,5.62-1.23,7.52-3.2h.83v12.05ZM78.91,54.35h-1.72v-12.05h1.72v12.05ZM78.91,41.2h-1.72v-1.67c.65-1.36,1.03-2.88,1.03-4.49s-.38-3.13-1.03-4.49v-1.39h1.72v12.05ZM11.18,34.19s-.06-.03-.06-.06v-2.48s.03-.06.06-.06h.66v-.69h1.44v.69h.66s.06.03.06.06v2.48s-.03.06-.06.06h-2.75ZM16.42,34.19s-.06-.03-.06-.06v-2.48s.03-.06.06-.06h.66v-.69h1.44v.69h.66s.06.03.06.06v2.48s-.03.06-.06.06h-2.75ZM21.65,34.19s-.06-.03-.06-.06v-2.48s.03-.06.06-.06h.66v-.69h1.44v.69h.66s.06.03.06.06v2.48s-.03.06-.06.06h-2.75ZM26.88,34.19s-.06-.03-.06-.06v-2.48s.03-.06.06-.06h.66v-.69h1.44v.69h.66s.06.03.06.06v2.48s-.03.06-.06.06h-2.75ZM32.12,34.19s-.06-.03-.06-.06v-2.48s.03-.06.06-.06h.66v-.69h1.44v.69h.66s.06.03.06.06v2.48s-.03.06-.06.06h-2.75ZM37.35,34.19s-.06-.03-.06-.06v-2.48s.03-.06.06-.06h.66v-.69h1.44v.69h.66s.06.03.06.06v2.48s-.03.06-.06.06h-2.75ZM42.58,34.19s-.06-.03-.06-.06v-2.48s.03-.06.06-.06h.66v-.69h1.44v.69h.66s.06.03.06.06v2.48s-.03.06-.06.06h-2.75ZM47.82,34.19s-.06-.03-.06-.06v-2.48s.03-.06.06-.06h.66v-.69h1.44v.69h.66s.06.03.06.06v2.48s-.03.06-.06.06h-2.75ZM53.05,34.19s-.06-.03-.06-.06v-2.48s.03-.06.06-.06h.66v-.69h1.44v.69h.66s.06.03.06.06v2.48s-.03.06-.06.06h-2.75ZM8.71,44.73s.06.03.06.06v2.48s-.03.06-.06.06h-2.75s-.06-.03-.06-.06v-2.48s.03-.06.06-.06h.66v-.69h1.44v.69h.66ZM13.94,44.73s.06.03.06.06v2.48s-.03.06-.06.06h-2.75s-.06-.03-.06-.06v-2.48s.03-.06.06-.06h.66v-.69h1.44v.69h.66ZM19.17,44.73s.06.03.06.06v2.48s-.03.06-.06.06h-2.75s-.06-.03-.06-.06v-2.48s.03-.06.06-.06h.66v-.69h1.44v.69h.66ZM24.4,44.73s.06.03.06.06v2.48s-.03.06-.06.06h-2.75s-.06-.03-.06-.06v-2.48s.03-.06.06-.06h.66v-.69h1.44v.69h.66ZM29.64,44.73s.06.03.06.06v2.48s-.03.06-.06.06h-2.75s-.06-.03-.06-.06v-2.48s.03-.06.06-.06h.66v-.69h1.44v.69h.66ZM34.87,44.73s.06.03.06.06v2.48s-.03.06-.06.06h-2.75s-.06-.03-.06-.06v-2.48s.03-.06.06-.06h.66v-.69h1.44v.69h.66ZM40.1,44.73s.06.03.06.06v2.48s-.03.06-.06.06h-2.75s-.06-.03-.06-.06v-2.48s.03-.06.06-.06h.66v-.69h1.44v.69h.66ZM45.34,44.73s.06.03.06.06v2.48s-.03.06-.06.06h-2.75s-.06-.03-.06-.06v-2.48s.03-.06.06-.06h.66v-.69h1.44v.69h.66ZM50.57,44.73s.06.03.06.06v2.48s-.03.06-.06.06h-2.75s-.06-.03-.06-.06v-2.48s.03-.06.06-.06h.66v-.69h1.44v.69h.66ZM55.8,44.73s.06.03.06.06v2.48s-.03.06-.06.06h-2.75s-.06-.03-.06-.06v-2.48s.03-.06.06-.06h.66v-.69h1.44v.69h.66ZM61.04,44.73s.06.03.06.06v2.48s-.03.06-.06.06h-2.75s-.06-.03-.06-.06v-2.48s.03-.06.06-.06h.66v-.69h1.44v.69h.66ZM13.94,49.39s.06.03.06.06v2.48s-.03.06-.06.06h-.66v.69h-1.44v-.69h-.66s-.06-.03-.06-.06v-2.48s.03-.06.06-.06h2.75ZM19.17,49.39s.06.03.06.06v2.48s-.03.06-.06.06h-.66v.69h-1.44v-.69h-.66s-.06-.03-.06-.06v-2.48s.03-.06.06-.06h2.75ZM24.4,49.39s.06.03.06.06v2.48s-.03.06-.06.06h-.66v.69h-1.44v-.69h-.66s-.06-.03-.06-.06v-2.48s.03-.06.06-.06h2.75ZM29.64,49.39s.06.03.06.06v2.48s-.03.06-.06.06h-.66v.69h-1.44v-.69h-.66s-.06-.03-.06-.06v-2.48s.03-.06.06-.06h2.75ZM34.87,49.39s.06.03.06.06v2.48s-.03.06-.06.06h-.66v.69h-1.44v-.69h-.66s-.06-.03-.06-.06v-2.48s.03-.06.06-.06h2.75ZM40.1,49.39s.06.03.06.06v2.48s-.03.06-.06.06h-.66v.69h-1.44v-.69h-.66s-.06-.03-.06-.06v-2.48s.03-.06.06-.06h2.75ZM45.34,49.39s.06.03.06.06v2.48s-.03.06-.06.06h-.66v.69h-1.44v-.69h-.66s-.06-.03-.06-.06v-2.48s.03-.06.06-.06h2.75ZM50.57,49.39s.06.03.06.06v2.48s-.03.06-.06.06h-.66v.69h-1.44v-.69h-.66s-.06-.03-.06-.06v-2.48s.03-.06.06-.06h2.75ZM55.8,49.39s.06.03.06.06v2.48s-.03.06-.06.06h-.66v.69h-1.44v-.69h-.66s-.06-.03-.06-.06v-2.48s.03-.06.06-.06h2.75ZM61.04,49.39s.06.03.06.06v2.48s-.03.06-.06.06h-.66v.69h-1.44v-.69h-.66s-.06-.03-.06-.06v-2.48s.03-.06.06-.06h2.75ZM66.27,49.39s.06.03.06.06v2.48s-.03.06-.06.06h-.66v.69h-1.44v-.69h-.66s-.06-.03-.06-.06v-2.48s.03-.06.06-.06h2.75ZM8.72,36.24s.06.03.06.06v2.5s-.03.06-.06.06h-.66v.69h-1.45v-.69h-.66s-.06-.03-.06-.06v-2.5s.03-.06.06-.06h2.77ZM11.17,38.86s-.06-.03-.06-.06v-2.5s.03-.06.06-.06h2.77s.06.03.06.06v2.5s-.03.06-.06.06h-.66v.69h-1.45v-.69h-.66ZM16.41,38.86s-.06-.03-.06-.06v-2.5s.03-.06.06-.06h2.77s.06.03.06.06v2.5s-.03.06-.06.06h-.66v.69h-1.45v-.69h-.66ZM21.64,38.86s-.06-.03-.06-.06v-2.5s.03-.06.06-.06h2.77s.06.03.06.06v2.5s-.03.06-.06.06h-.66v.69h-1.45v-.69h-.66ZM26.87,38.86s-.06-.03-.06-.06v-2.5s.03-.06.06-.06h2.77s.06.03.06.06v2.5s-.03.06-.06.06h-.66v.69h-1.45v-.69h-.66ZM32.11,38.86s-.06-.03-.06-.06v-2.5s.03-.06.06-.06h2.77s.06.03.06.06v2.5s-.03.06-.06.06h-.66v.69h-1.45v-.69h-.66ZM37.34,38.86s-.06-.03-.06-.06v-2.5s.03-.06.06-.06h2.77s.06.03.06.06v2.5s-.03.06-.06.06h-.66v.69h-1.45v-.69h-.66ZM42.57,38.86s-.06-.03-.06-.06v-2.5s.03-.06.06-.06h2.77s.06.03.06.06v2.5s-.03.06-.06.06h-.66v.69h-1.45v-.69h-.66ZM47.81,38.86s-.06-.03-.06-.06v-2.5s.03-.06.06-.06h2.77s.06.03.06.06v2.5s-.03.06-.06.06h-.66v.69h-1.45v-.69h-.66ZM53.04,38.86s-.06-.03-.06-.06v-2.5s.03-.06.06-.06h2.77s.06.03.06.06v2.5s-.03.06-.06.06h-.66v.69h-1.45v-.69h-.66Z"/></g></svg>