<?xml version="1.0" encoding="UTF-8"?><svg id="modifiers" xmlns="http://www.w3.org/2000/svg" viewBox="0 0 80 61.96"><defs><style>.cls-1{fill:#07182d;}</style></defs><path class="cls-1" d="M80,16.03l-.73.76C68.67,6.65,54.74,1.06,40.06,1.06S11.35,6.69.73,16.92L0,16.15C10.81,5.74,25.04,0,40.06,0s29.14,5.69,39.94,16.03ZM16.26,29.01l.67.81c6.48-5.37,14.69-8.33,23.12-8.33s16.59,2.94,23.06,8.28l.67-.82c-6.66-5.5-15.09-8.52-23.74-8.52s-17.13,3.04-23.8,8.57ZM29.26,43.19l.63.85c2.96-2.2,6.48-3.36,10.18-3.36s7.22,1.16,10.18,3.36l.63-.85c-3.14-2.34-6.88-3.57-10.81-3.57s-7.66,1.23-10.81,3.57ZM44.27,57.75c0,2.32-1.89,4.21-4.21,4.21s-4.21-1.89-4.21-4.21,1.89-4.21,4.21-4.21,4.21,1.89,4.21,4.21ZM43.21,57.75c0-1.74-1.41-3.15-3.15-3.15s-3.15,1.41-3.15,3.15,1.41,3.15,3.15,3.15,3.15-1.41,3.15-3.15Z"/></svg>