<?xml version="1.0" encoding="UTF-8"?><svg id="device" xmlns="http://www.w3.org/2000/svg" viewBox="0 0 80 80"><defs><style>.cls-1{fill:#07182d;}</style></defs><g id="Layer_4"><path class="cls-1" d="M64.02,34.9v-1.34c0-.24.19-.43.43-.43h7.49c.24,0,.43.19.43.43v1.34c0,.24-.19.43-.43.43h-7.49c-.24,0-.43-.19-.43-.43ZM52.73,33.57v1.34c0,.24.19.43.43.43h7.49c.24,0,.43-.19.43-.43v-1.34c0-.24-.19-.43-.43-.43h-7.49c-.24,0-.43.19-.43.43ZM48.97,17.51v-.67h-1.41v.67h-.65s-.06.03-.06.06v2.44s.03.06.06.06h2.71s.06-.03.06-.06v-2.44s-.03-.06-.06-.06h-.65ZM15.48,33.14h-7.49c-.24,0-.43.19-.43.43v1.34c0,.24.19.43.43.43h7.49c.24,0,.43-.19.43-.43v-1.34c0-.24-.19-.43-.43-.43ZM26.77,33.14h-7.49c-.24,0-.43.19-.43.43v1.34c0,.24.19.43.43.43h7.49c.24,0,.43-.19.43-.43v-1.34c0-.24-.19-.43-.43-.43ZM38.06,33.14h-7.49c-.24,0-.43.19-.43.43v1.34c0,.24.19.43.43.43h7.49c.24,0,.43-.19.43-.43v-1.34c0-.24-.19-.43-.43-.43ZM49.35,33.14h-7.49c-.24,0-.43.19-.43.43v1.34c0,.24.19.43.43.43h7.49c.24,0,.43-.19.43-.43v-1.34c0-.24-.19-.43-.43-.43ZM47.98,63.8v-6.92c0-.3.29-.59.59-.59h9.19c.3,0,.59.29.59.59v6.92c0,.3-.29.59-.59.59h-9.19c-.3,0-.59-.29-.59-.59ZM49.06,63.31h8.21v-5.94h-8.21v5.94ZM61.1,63.76v-6.92c0-.3.29-.59.59-.59h9.19c.3,0,.59.29.59.59v6.92c0,.3-.29.59-.59.59h-9.19c-.3,0-.59-.29-.59-.59ZM62.18,63.27h8.21v-5.94h-8.21v5.94ZM41.86,48.5h7.49c.24,0,.43-.19.43-.43v-1.34c0-.24-.19-.43-.43-.43h-7.49c-.24,0-.43.19-.43.43v1.34c0,.24.19.43.43.43ZM53.15,48.5h7.49c.24,0,.43-.19.43-.43v-1.34c0-.24-.19-.43-.43-.43h-7.49c-.24,0-.43.19-.43.43v1.34c0,.24.19.43.43.43ZM8.34,63.8v-6.92c0-.3.29-.59.59-.59h9.19c.3,0,.59.29.59.59v6.92c0,.3-.29.59-.59.59h-9.19c-.3,0-.59-.29-.59-.59ZM9.42,63.31h8.21v-5.94h-8.21v5.94ZM46.91,22.09s-.06.03-.06.06v2.44s.03.06.06.06h.65v.67h1.41v-.67h.65s.06-.03.06-.06v-2.44s-.03-.06-.06-.06h-2.71ZM21.66,63.8v-6.92c0-.3.29-.59.59-.59h9.19c.3,0,.59.29.59.59v6.92c0,.3-.29.59-.59.59h-9.19c-.3,0-.59-.29-.59-.59ZM22.74,63.31h8.21v-5.94h-8.21v5.94ZM34.81,63.8v-6.92c0-.3.29-.59.59-.59h9.19c.3,0,.59.29.59.59v6.92c0,.3-.29.59-.59.59h-9.19c-.3,0-.59-.29-.59-.59ZM35.89,63.31h8.21v-5.94h-8.21v5.94ZM64.45,48.5h7.49c.24,0,.43-.19.43-.43v-1.34c0-.24-.19-.43-.43-.43h-7.49c-.24,0-.43.19-.43.43v1.34c0,.24.19.43.43.43ZM8.58,17.51v-.67h-1.41v.67h-.65s-.06.03-.06.06v2.44s.03.06.06.06h2.71s.06-.03.06-.06v-2.44s-.03-.06-.06-.06h-.65ZM80,27.46s-.02.09-.03.13c0,.04.03.08.03.12v13.07s0,.03-.01.05c0,.02.01.03.01.05v13.07s0,.03-.01.05c0,.02.01.03.01.05v13.07c0,.3-.28.58-.58.58h-2.73s-.03,0-.04,0c-.01,0-.03,0-.04,0H3.25s-.03,0-.04,0c-.01,0-.03,0-.04,0H.58c-.3,0-.58-.28-.58-.58v-13.07s0-.03.01-.05c0-.02-.01-.03-.01-.05v-13.07s0-.03.01-.05c0-.02-.01-.03-.01-.05v-13.07s0-.03,0-.04c0-.01,0-.03,0-.04v-13.07c0-.3.28-.58.58-.58h2.59s.03,0,.04,0c.01,0,.03,0,.04,0h50.32v-.64c0-.55.45-1,1-1h22.61c.55,0,1,.45,1,1v.64h1.08c.41,0,.74.33.74.74v12.75ZM2.67,54.53h-1.59v12.07h1.59v-12.07ZM2.67,41.36h-1.59v12.07h1.59v-12.07ZM2.67,28.2h-1.59v12.08h1.59v-12.08ZM2.67,15.04h-1.59v12.07h1.59v-12.07ZM54.57,28.76h22.53v-15.36h-22.53v15.36ZM3.75,27.12h49.82v-12.07H3.75v12.07ZM76.11,54.53H3.75v12.07h72.36v-12.07ZM76.11,41.36H3.75v12.07h72.36v-12.07ZM76.11,29.84h-21.54c-.55,0-1-.45-1-1v-.64H3.75v12.08h72.36v-10.43ZM78.92,54.53h-1.73v12.07h1.73v-12.07ZM78.92,41.36h-1.73v12.07h1.73v-12.07ZM78.92,28.2h-.74v.64c0,.55-.44.99-.99,1v10.43h1.73v-12.08ZM78.92,15.04h-.74v12.07h.74v-12.07ZM6.52,22.09s-.06.03-.06.06v2.44s.03.06.06.06h.65v.67h1.41v-.67h.65s.06-.03.06-.06v-2.44s-.03-.06-.06-.06h-2.71ZM14.6,22.09s-.06.03-.06.06v2.44s.03.06.06.06h.65v.67h1.41v-.67h.65s.06-.03.06-.06v-2.44s-.03-.06-.06-.06h-2.71ZM19.28,48.5h7.49c.24,0,.43-.19.43-.43v-1.34c0-.24-.19-.43-.43-.43h-7.49c-.24,0-.43.19-.43.43v1.34c0,.24.19.43.43.43ZM30.57,48.5h7.49c.24,0,.43-.19.43-.43v-1.34c0-.24-.19-.43-.43-.43h-7.49c-.24,0-.43.19-.43.43v1.34c0,.24.19.43.43.43ZM40.89,17.51v-.67h-1.41v.67h-.65s-.06.03-.06.06v2.44s.03.06.06.06h2.71s.06-.03.06-.06v-2.44s-.03-.06-.06-.06h-.65ZM24.74,17.51v-.67h-1.41v.67h-.65s-.06.03-.06.06v2.44s.03.06.06.06h2.71s.06-.03.06-.06v-2.44s-.03-.06-.06-.06h-.65ZM16.66,17.51v-.67h-1.41v.67h-.65s-.06.03-.06.06v2.44s.03.06.06.06h2.71s.06-.03.06-.06v-2.44s-.03-.06-.06-.06h-.65ZM38.83,22.09s-.06.03-.06.06v2.44s.03.06.06.06h.65v.67h1.41v-.67h.65s.06-.03.06-.06v-2.44s-.03-.06-.06-.06h-2.71ZM30.75,22.09s-.06.03-.06.06v2.44s.03.06.06.06h.65v.67h1.41v-.67h.65s.06-.03.06-.06v-2.44s-.03-.06-.06-.06h-2.71ZM32.81,17.51v-.67h-1.41v.67h-.65s-.06.03-.06.06v2.44s.03.06.06.06h2.71s.06-.03.06-.06v-2.44s-.03-.06-.06-.06h-.65ZM22.68,22.09s-.06.03-.06.06v2.44s.03.06.06.06h.65v.67h1.41v-.67h.65s.06-.03.06-.06v-2.44s-.03-.06-.06-.06h-2.71ZM7.99,48.5h7.49c.24,0,.43-.19.43-.43v-1.34c0-.24-.19-.43-.43-.43h-7.49c-.24,0-.43.19-.43.43v1.34c0,.24.19.43.43.43Z"/></g></svg>