<?xml version="1.0" encoding="UTF-8"?><svg id="modifiers" xmlns="http://www.w3.org/2000/svg" viewBox="0 0 80 80"><defs><style>.cls-1{fill:#07182d;}</style></defs><path class="cls-1" d="M40,0C17.94,0,0,17.94,0,40s17.94,40,40,40,40-17.94,40-40S62.06,0,40,0ZM40,78.95C18.52,78.95,1.05,61.48,1.05,40S18.52,1.05,40,1.05s38.95,17.47,38.95,38.95-17.47,38.95-38.95,38.95ZM68.89,31.48c-.45-1.38-1.4-2.5-2.69-3.16-1.29-.66-2.76-.77-4.14-.33-2.67.87-4.18,3.63-3.59,6.31l-7.93,2.58c-1.57-4.08-5.43-7.02-10.01-7.23v-8.37c2.74-.27,4.89-2.56,4.89-5.37,0-2.99-2.43-5.42-5.42-5.42s-5.42,2.43-5.42,5.42c0,2.81,2.16,5.1,4.89,5.37v8.37c-4.58.21-8.44,3.15-10.01,7.23l-7.93-2.58c.59-2.69-.92-5.45-3.59-6.31h0c-2.84-.92-5.91.64-6.83,3.48-.92,2.84.64,5.91,3.48,6.83.55.18,1.12.27,1.68.27.84,0,1.68-.2,2.46-.59,1.13-.58,1.98-1.52,2.48-2.67l7.92,2.57c-.27.97-.43,1.98-.43,3.03,0,3.55,1.65,6.72,4.22,8.79l-4.86,6.69c-1.08-.64-2.33-.9-3.58-.7-1.43.23-2.69,1-3.54,2.17-.85,1.17-1.2,2.6-.97,4.03.23,1.43,1,2.69,2.17,3.54.96.7,2.07,1.03,3.18,1.03,1.68,0,3.33-.77,4.39-2.23.85-1.17,1.2-2.6.97-4.03-.2-1.25-.83-2.36-1.77-3.19l4.86-6.68c1.79,1.19,3.93,1.88,6.23,1.88s4.44-.7,6.23-1.88l4.86,6.68c-.94.83-1.57,1.93-1.77,3.19-.23,1.43.12,2.86.97,4.03,1.06,1.46,2.71,2.23,4.39,2.23,1.11,0,2.22-.34,3.18-1.03,2.42-1.76,2.96-5.15,1.2-7.57-.85-1.17-2.11-1.94-3.54-2.17-1.25-.2-2.5.07-3.58.7l-4.86-6.69c2.57-2.07,4.22-5.24,4.22-8.79,0-1.05-.16-2.07-.43-3.03l7.92-2.57c.5,1.15,1.35,2.09,2.48,2.67.77.39,1.61.59,2.46.59.56,0,1.13-.09,1.68-.27h0c2.84-.92,4.4-3.99,3.48-6.83ZM18.25,37.05c-1.04.53-2.22.62-3.33.26-2.29-.74-3.55-3.21-2.8-5.5.36-1.11,1.13-2.01,2.17-2.54.62-.32,1.3-.48,1.98-.48.45,0,.91.07,1.35.22,2.29.74,3.55,3.21,2.8,5.5-.36,1.11-1.13,2.01-2.17,2.54ZM28.87,63.62c-1.42,1.95-4.15,2.38-6.1.97-1.95-1.42-2.38-4.15-.97-6.1.69-.94,1.7-1.56,2.85-1.75.23-.04.46-.05.69-.05.91,0,1.8.29,2.56.83,1.95,1.42,2.38,4.15.97,6.1ZM55.35,56.74c1.15.18,2.16.8,2.85,1.75.69.94.96,2.1.78,3.25s-.8,2.16-1.75,2.85c-1.95,1.41-4.69.98-6.1-.97-.69-.94-.96-2.1-.78-3.25s.8-2.16,1.75-2.85c.94-.69,2.1-.96,3.25-.78ZM35.63,15.91c0-2.41,1.96-4.37,4.37-4.37s4.37,1.96,4.37,4.37-1.96,4.37-4.37,4.37-4.37-1.96-4.37-4.37ZM40,51.16c-5.65,0-10.24-4.59-10.24-10.24s4.59-10.24,10.24-10.24,10.24,4.59,10.24,10.24-4.59,10.24-10.24,10.24ZM65.08,37.31c-1.11.36-2.29.27-3.33-.26-1.04-.53-1.81-1.43-2.17-2.54-.74-2.29.51-4.76,2.8-5.5.45-.15.9-.21,1.35-.21,1.84,0,3.56,1.17,4.16,3.02.74,2.29-.51,4.76-2.8,5.5Z"/></svg>