<?xml version="1.0" encoding="UTF-8"?><svg id="device" xmlns="http://www.w3.org/2000/svg" viewBox="0 0 80 80"><defs><style>.cls-1{fill:#07182d;fill-rule:evenodd;}</style></defs><g id="Layer_4"><path class="cls-1" d="M79.26,32.88h-2.4s-.09.02-.13.03c-.04,0-.08-.03-.12-.03H3.25s-.03,0-.04,0c-.01,0-.03,0-.04,0H.58c-.3,0-.58.28-.58.58v13.07c0,.3.28.58.58.58h2.59s.03,0,.04,0c.01,0,.03,0,.04,0h73.36s.08-.02.12-.03c.04,0,.08.03.13.03h2.4c.41,0,.74-.33.74-.74v-12.75c0-.41-.33-.74-.74-.74ZM2.67,46.04h-1.59v-12.07h1.59v12.07ZM76.11,46.04H3.75v-12.07h72.36v12.07ZM78.92,46.04h-1.73v-12.07h1.73v12.07ZM41.71,41.48v-2.97c0-.11.09-.21.21-.21h6.29c.11,0,.21.09.21.21v2.97c0,.11-.09.21-.21.21h-6.29c-.11,0-.21-.09-.21-.21ZM49.87,41.48v-2.97c0-.11.09-.21.21-.21h6.29c.11,0,.21.09.21.21v2.97c0,.11-.09.21-.21.21h-6.29c-.11,0-.21-.09-.21-.21ZM19.99,40.96s-.06-.03-.06-.06v-2.48s.03-.06.06-.06h2.75s.06.03.06.06v2.48s-.03.06-.06.06h-.66v.69h-1.44v-.69h-.66ZM25.17,40.96s-.06-.03-.06-.06v-2.48s.03-.06.06-.06h2.75s.06.03.06.06v2.48s-.03.06-.06.06h-.66v.69h-1.44v-.69h-.66ZM30.35,40.96s-.06-.03-.06-.06v-2.48s.03-.06.06-.06h2.75s.06.03.06.06v2.48s-.03.06-.06.06h-.66v.69h-1.44v-.69h-.66ZM35.53,40.96s-.06-.03-.06-.06v-2.48s.03-.06.06-.06h2.75s.06.03.06.06v2.48s-.03.06-.06.06h-.66v.69h-1.44v-.69h-.66Z"/></g></svg>