<?xml version="1.0" encoding="UTF-8"?><svg id="device" xmlns="http://www.w3.org/2000/svg" viewBox="0 0 80 80"><defs><style>.cls-1{fill:#fff;}</style></defs><g id="Layer_4"><path class="cls-1" d="M7.76,24.03v-7.12c0-.24.19-.43.43-.43h1.45c.24,0,.43.19.43.43v7.12c0,.24-.19.43-.43.43h-1.45c-.24,0-.43-.19-.43-.43ZM8.19,15.26h1.45c.24,0,.43-.19.43-.43v-2.33c0-.24-.19-.43-.43-.43h-1.45c-.24,0-.43.19-.43.43v2.33c0,.24.19.43.43.43ZM8.19,31.74h1.45c.24,0,.43-.19.43-.43v-2.33c0-.24-.19-.43-.43-.43h-1.45c-.24,0-.43.19-.43.43v2.33c0,.24.19.43.43.43ZM74.61,25.05v8.84c0,.28-.28.56-.56.56h-6.13c-.28,0-.56-.28-.56-.56v-8.84c0-.28.28-.56.56-.56h6.13c.28,0,.56.28.56.56ZM73.58,25.52h-5.19v7.9h5.19v-7.9ZM74.61,63.15v8.84c0,.28-.28.56-.56.56h-6.13c-.28,0-.56-.28-.56-.56v-8.84c0-.28.28-.56.56-.56h6.13c.28,0,.56.28.56.56ZM73.58,63.62h-5.19v7.9h5.19v-7.9ZM33.33,15.26h1.45c.24,0,.43-.19.43-.43v-2.33c0-.24-.19-.43-.43-.43h-1.45c-.24,0-.43.19-.43.43v2.33c0,.24.19.43.43.43ZM74.61,37.71v8.84c0,.28-.28.56-.56.56h-6.13c-.28,0-.56-.28-.56-.56v-8.84c0-.28.28-.56.56-.56h6.13c.28,0,.56.28.56.56ZM73.58,38.18h-5.19v7.9h5.19v-7.9ZM74.61,50.35v8.84c0,.28-.28.56-.56.56h-6.13c-.28,0-.56-.28-.56-.56v-8.84c0-.28.28-.56.56-.56h6.13c.28,0,.56.28.56.56ZM73.58,50.82h-5.19v7.9h5.19v-7.9ZM8.19,57.42h1.45c.24,0,.43-.19.43-.43v-7.12c0-.24-.19-.43-.43-.43h-1.45c-.24,0-.43.19-.43.43v7.12c0,.24.19.43.43.43ZM20.76,40.94h1.45c.24,0,.43-.19.43-.43v-7.12c0-.24-.19-.43-.43-.43h-1.45c-.24,0-.43.19-.43.43v7.12c0,.24.19.43.43.43ZM20.76,48.22h1.45c.24,0,.43-.19.43-.43v-2.33c0-.24-.19-.43-.43-.43h-1.45c-.24,0-.43.19-.43.43v2.33c0,.24.19.43.43.43ZM20.76,24.46h1.45c.24,0,.43-.19.43-.43v-7.12c0-.24-.19-.43-.43-.43h-1.45c-.24,0-.43.19-.43.43v7.12c0,.24.19.43.43.43ZM20.76,31.74h1.45c.24,0,.43-.19.43-.43v-2.33c0-.24-.19-.43-.43-.43h-1.45c-.24,0-.43.19-.43.43v2.33c0,.24.19.43.43.43ZM20.76,73.9h1.45c.24,0,.43-.19.43-.43v-7.12c0-.24-.19-.43-.43-.43h-1.45c-.24,0-.43.19-.43.43v7.12c0,.24.19.43.43.43ZM20.76,57.42h1.45c.24,0,.43-.19.43-.43v-7.12c0-.24-.19-.43-.43-.43h-1.45c-.24,0-.43.19-.43.43v7.12c0,.24.19.43.43.43ZM8.19,40.94h1.45c.24,0,.43-.19.43-.43v-7.12c0-.24-.19-.43-.43-.43h-1.45c-.24,0-.43.19-.43.43v7.12c0,.24.19.43.43.43ZM59.93,28.55h-1.45c-.24,0-.43.19-.43.43v2.33c0,.24.19.43.43.43h1.45c.24,0,.43-.19.43-.43v-2.33c0-.24-.19-.43-.43-.43ZM8.19,48.22h1.45c.24,0,.43-.19.43-.43v-2.33c0-.24-.19-.43-.43-.43h-1.45c-.24,0-.43.19-.43.43v2.33c0,.24.19.43.43.43ZM20.76,15.26h1.45c.24,0,.43-.19.43-.43v-2.33c0-.24-.19-.43-.43-.43h-1.45c-.24,0-.43.19-.43.43v2.33c0,.24.19.43.43.43ZM8.19,64.7h1.45c.24,0,.43-.19.43-.43v-2.33c0-.24-.19-.43-.43-.43h-1.45c-.24,0-.43.19-.43.43v2.33c0,.24.19.43.43.43ZM8.19,73.9h1.45c.24,0,.43-.19.43-.43v-7.12c0-.24-.19-.43-.43-.43h-1.45c-.24,0-.43.19-.43.43v7.12c0,.24.19.43.43.43ZM20.76,64.7h1.45c.24,0,.43-.19.43-.43v-2.33c0-.24-.19-.43-.43-.43h-1.45c-.24,0-.43.19-.43.43v2.33c0,.24.19.43.43.43ZM33.33,64.7h1.45c.24,0,.43-.19.43-.43v-2.33c0-.24-.19-.43-.43-.43h-1.45c-.24,0-.43.19-.43.43v2.33c0,.24.19.43.43.43ZM45.9,24.46h1.45c.24,0,.43-.19.43-.43v-7.12c0-.24-.19-.43-.43-.43h-1.45c-.24,0-.43.19-.43.43v7.12c0,.24.19.43.43.43ZM45.9,15.26h1.45c.24,0,.43-.19.43-.43v-2.33c0-.24-.19-.43-.43-.43h-1.45c-.24,0-.43.19-.43.43v2.33c0,.24.19.43.43.43ZM45.9,40.94h1.45c.24,0,.43-.19.43-.43v-7.12c0-.24-.19-.43-.43-.43h-1.45c-.24,0-.43.19-.43.43v7.12c0,.24.19.43.43.43ZM59.93,32.96h-1.45c-.24,0-.43.19-.43.43v7.12c0,.24.19.43.43.43h1.45c.24,0,.43-.19.43-.43v-7.12c0-.24-.19-.43-.43-.43ZM45.9,31.74h1.45c.24,0,.43-.19.43-.43v-2.33c0-.24-.19-.43-.43-.43h-1.45c-.24,0-.43.19-.43.43v2.33c0,.24.19.43.43.43ZM45.9,73.9h1.45c.24,0,.43-.19.43-.43v-7.12c0-.24-.19-.43-.43-.43h-1.45c-.24,0-.43.19-.43.43v7.12c0,.24.19.43.43.43ZM45.9,48.22h1.45c.24,0,.43-.19.43-.43v-2.33c0-.24-.19-.43-.43-.43h-1.45c-.24,0-.43.19-.43.43v2.33c0,.24.19.43.43.43ZM77.53,7.39s0,.03,0,.04c0,.01,0,.03,0,.04v69.45s0,.02,0,.04c0,.01,0,.02,0,.04v2.46c0,.28-.27.55-.55.55h-11.6s-.05-.01-.08-.02c-.03,0-.06.02-.09.02h-12.38s-.03,0-.04,0c-.01,0-.03,0-.04,0h-12.38s-.03,0-.04,0c-.01,0-.03,0-.04,0h-12.38s-.03,0-.04,0c-.01,0-.03,0-.04,0h-12.38s-.03,0-.04,0c-.01,0-.03,0-.04,0H3.02c-.28,0-.55-.27-.55-.55v-2.45s0-.03,0-.04c0-.01,0-.03,0-.04V7.47s0-.03,0-.04c0-.01,0-.03,0-.04v-2.58c0-.28.27-.56.55-.56h12.37s.03,0,.04,0c.01,0,.03,0,.04,0h12.37s.03,0,.04,0c.01,0,.03,0,.04,0h12.37s.03,0,.04,0c.01,0,.03,0,.04,0h12.37s.03,0,.04,0c.01,0,.03,0,.04,0h4.17c1.8-2.57,4.78-4.25,8.14-4.25s6.34,1.68,8.14,4.25h3.69c.28,0,.55.27.55.55v2.58ZM14.92,77.47H3.5v1.5h11.42v-1.5ZM14.92,7.94H3.5v68.5h11.42V7.94ZM14.92,5.28H3.5v1.63h11.42v-1.63ZM27.37,77.47h-11.42v1.5h11.42v-1.5ZM27.37,7.94h-11.42v68.5h11.42V7.94ZM27.37,5.28h-11.42v1.63h11.42v-1.63ZM39.83,77.47h-11.42v1.5h11.42v-1.5ZM39.83,7.94h-11.42v68.5h11.42V7.94ZM39.83,5.28h-11.42v1.63h11.42v-1.63ZM52.28,77.47h-11.42v1.5h11.42v-1.5ZM52.28,7.94h-11.42v68.5h11.42V7.94ZM52.28,5.28h-11.42v1.63h11.42v-1.63ZM56.23,9.94c0,4.91,4,8.91,8.91,8.91s8.91-4,8.91-8.91-4-8.91-8.91-8.91-8.91,4-8.91,8.91ZM68.35,20.81h5.2v-5.56c-1.2,1.9-3.03,3.36-5.2,4.1v1.46ZM53.31,6.91h2.37c.18-.57.41-1.11.69-1.63h-3.06v1.63ZM64.73,77.47h-11.42v1.5h11.42v-1.5ZM64.73,19.87c-1.58-.07-3.07-.49-4.37-1.22v5.38c0,.24-.19.43-.43.43h-1.45c-.24,0-.43-.19-.43-.43v-7.12s0-.01,0-.02c-1.76-1.79-2.84-4.24-2.84-6.95,0-.68.07-1.35.2-2h-2.1v68.5h11.42V19.87ZM76.5,77.47h-10.64v1.5h10.64v-1.5ZM76.5,7.94h-1.61c.13.65.2,1.32.2,2,0,1.1-.19,2.15-.52,3.14v8.2c0,.28-.28.56-.56.56h-6.13c-.28,0-.56-.28-.56-.56v-1.64c-.47.11-.96.17-1.46.21v56.59h10.64V7.94ZM76.5,5.28h-2.58c.28.52.51,1.06.69,1.63h1.89v-1.63ZM45.9,57.42h1.45c.24,0,.43-.19.43-.43v-7.12c0-.24-.19-.43-.43-.43h-1.45c-.24,0-.43.19-.43.43v7.12c0,.24.19.43.43.43ZM45.9,64.7h1.45c.24,0,.43-.19.43-.43v-2.33c0-.24-.19-.43-.43-.43h-1.45c-.24,0-.43.19-.43.43v2.33c0,.24.19.43.43.43ZM33.33,73.9h1.45c.24,0,.43-.19.43-.43v-7.12c0-.24-.19-.43-.43-.43h-1.45c-.24,0-.43.19-.43.43v7.12c0,.24.19.43.43.43ZM59.93,61.51h-1.45c-.24,0-.43.19-.43.43v2.33c0,.24.19.43.43.43h1.45c.24,0,.43-.19.43-.43v-2.33c0-.24-.19-.43-.43-.43ZM33.33,31.74h1.45c.24,0,.43-.19.43-.43v-2.33c0-.24-.19-.43-.43-.43h-1.45c-.24,0-.43.19-.43.43v2.33c0,.24.19.43.43.43ZM59.93,49.44h-1.45c-.24,0-.43.19-.43.43v7.12c0,.24.19.43.43.43h1.45c.24,0,.43-.19.43-.43v-7.12c0-.24-.19-.43-.43-.43ZM33.33,57.42h1.45c.24,0,.43-.19.43-.43v-7.12c0-.24-.19-.43-.43-.43h-1.45c-.24,0-.43.19-.43.43v7.12c0,.24.19.43.43.43ZM33.33,24.46h1.45c.24,0,.43-.19.43-.43v-7.12c0-.24-.19-.43-.43-.43h-1.45c-.24,0-.43.19-.43.43v7.12c0,.24.19.43.43.43ZM59.93,45.03h-1.45c-.24,0-.43.19-.43.43v2.33c0,.24.19.43.43.43h1.45c.24,0,.43-.19.43-.43v-2.33c0-.24-.19-.43-.43-.43ZM33.33,40.94h1.45c.24,0,.43-.19.43-.43v-7.12c0-.24-.19-.43-.43-.43h-1.45c-.24,0-.43.19-.43.43v7.12c0,.24.19.43.43.43ZM33.33,48.22h1.45c.24,0,.43-.19.43-.43v-2.33c0-.24-.19-.43-.43-.43h-1.45c-.24,0-.43.19-.43.43v2.33c0,.24.19.43.43.43ZM59.93,65.92h-1.45c-.24,0-.43.19-.43.43v7.12c0,.24.19.43.43.43h1.45c.24,0,.43-.19.43-.43v-7.12c0-.24-.19-.43-.43-.43Z"/></g></svg>