<?xml version="1.0" encoding="UTF-8"?><svg id="modifiers" xmlns="http://www.w3.org/2000/svg" viewBox="0 0 80 80"><defs><style>.cls-1{fill:#fff;}</style></defs><path class="cls-1" d="M78.37,13.07h-20.01c-.9,0-1.64.73-1.64,1.63v11.16c0,.9.73,1.63,1.64,1.63h20.01c.9,0,1.63-.73,1.63-1.63v-11.16c0-.9-.73-1.63-1.63-1.63ZM78.76,25.86c0,.22-.18.39-.39.39h-20.01c-.22,0-.39-.18-.39-.39v-11.16c0-.22.18-.39.39-.39h20.01c.22,0,.39.18.39.39v11.16ZM78.37,50.8h-20.01c-.9,0-1.64.73-1.64,1.63v11.16c0,.9.73,1.63,1.64,1.63h20.01c.9,0,1.63-.73,1.63-1.63v-11.16c0-.9-.73-1.63-1.63-1.63ZM78.76,63.59c0,.22-.18.39-.39.39h-20.01c-.22,0-.39-.18-.39-.39v-11.16c0-.22.18-.39.39-.39h20.01c.22,0,.39.18.39.39v11.16ZM78.3,32.12h-11.02c-.94,0-1.7.76-1.7,1.7v11.02c0,.94.76,1.7,1.7,1.7h11.02c.94,0,1.7-.76,1.7-1.7v-11.02c0-.94-.76-1.7-1.7-1.7ZM78.76,44.85c0,.25-.21.46-.46.46h-11.02c-.25,0-.46-.21-.46-.46v-11.02c0-.25.21-.46.46-.46h11.02c.25,0,.46.21.46.46v11.02ZM50.43,50.8h-5.18c-.09-1.4-.31-2.82-.66-4.25h15.19c.94,0,1.7-.76,1.7-1.7v-11.02c0-.94-.77-1.7-1.7-1.7h-22.99s-.09.02-.14.03c-1.09-1.17-2.26-2.27-3.51-3.26-.1-.08-.21-.12-.33-.13-.11,0-.22,0-.32.05-.54.25-.46.51.03,2.22.02.05.03.12.05.17.6,2.11,2.02,7.18,1.18,8.35-.07.09-.14.13-.26.14-1.52.07-2.82-.7-3.93-2.3-1.65-2.39-2.57-6.11-2.91-9.9h23.81c.97,0,1.76-.79,1.76-1.76v-10.91c0-.97-.79-1.76-1.76-1.76h-21.02s.07-.08.1-.12c.58-.74,1.08-1.37,1.37-1.98.11-.22.34-.68.04-1.08-.11-.14-.35-.37-.84-.28-.05,0-.1.02-.15.05-1.72.79-3.35,1.68-4.91,2.66-.58.37-1.14.76-1.7,1.15-10.43,7.32-16.41,18.84-15.44,30.63-1.4-.7-2.37-1.71-2.91-3-.77-1.84-.59-4.18.51-6.6.13-.3.02-.64-.27-.8-.28-.15-.64-.07-.82.21C-.25,41.11-1.21,49.16,1.49,56.08c.78,1.99,1.84,3.89,3.23,5.64,4.43,5.6,11.11,8.63,18.37,8.7.08,0,.15,0,.23,0,3.15,0,6.41-.56,9.65-1.71,2.64-.94,4.72-2.14,6.37-3.48h11.09c.99,0,1.8-.81,1.8-1.8v-10.83c0-.99-.81-1.8-1.8-1.8ZM59.79,33.37c.26,0,.46.21.46.46v11.02c0,.26-.21.46-.46.46h-15.52c-.02-.06-.04-.12-.06-.19-.09-.31-.2-.62-.3-.93-.07-.22-.15-.44-.23-.65-.14-.4-.3-.79-.46-1.18-.04-.11-.09-.22-.13-.33-1.29-3.06-3.1-6.03-5.33-8.67h22.04ZM50.47,14.31c.28,0,.52.23.52.52v10.91c0,.28-.23.52-.52.52h-23.89s0,0,0-.01c-.06-.96-.07-1.91-.06-2.84,0-.16,0-.31.01-.46.02-.77.06-1.53.13-2.24.02-.18.03-.36.05-.54,0-.08.02-.15.03-.23.02-.21.05-.4.08-.6.21-1.48.52-2.77.93-3.71.09-.21.2-.42.33-.63.13-.22.3-.45.45-.68h21.94ZM39.12,63.74c-.14.13-.27.27-.42.39,0,0,0,.01-.01.02-1.68,1.39-3.73,2.53-6.14,3.39-.69.25-1.38.46-2.08.65-4.29,1.18-8.57,1.27-12.5.39-4.85-1.09-9.16-3.68-12.28-7.63C.7,54.62-.1,46.36,3.31,38.58c0,1.06.18,2.06.56,2.97.78,1.87,2.36,3.28,4.57,4.09.2.08.43.04.6-.1.17-.13.26-.35.23-.56-1.51-12.91,5.4-23.63,14.36-30.18.55-.4,1.1-.79,1.67-1.16,1.27-.83,2.56-1.58,3.87-2.24-.18.24-.38.5-.59.76-.29.36-.58.75-.87,1.14,0,0,0,0,0,0,0,.01-.01.02-.02.04-.2.28-.4.57-.58.86-.02.03-.05.07-.06.1-.16.27-.31.54-.42.81-.13.3-.25.64-.37,1-.2.63-.36,1.34-.51,2.12-.01.08-.03.15-.04.23-.08.47-.15.95-.21,1.45,0,0,0,0,0,.01-.03.28-.06.56-.08.85,0,.11-.02.21-.03.32-.01.15-.03.3-.04.46-.02.25-.03.5-.04.75-.02.35-.03.7-.04,1.06,0,.07,0,.15,0,.22-.06,5.18.9,11.06,3.28,14.51,1.37,1.98,3.08,2.93,5.01,2.84.5-.02.92-.25,1.21-.65.89-1.24.39-4.16-.4-7.22-.17-.65-.35-1.31-.53-1.97.74.66,1.44,1.37,2.11,2.1,0,0,0,.02.02.03,3.4,3.74,5.97,8.3,7.23,12.86,0,0,0,0,0,.01.2.72.36,1.44.49,2.15.21,1.16.34,2.3.37,3.42.01.48,0,.96-.02,1.43,0,.11,0,.22-.01.33-.03.4-.08.8-.13,1.19-.05.32-.1.63-.16.94-.09.49-.2.97-.34,1.44-.1.33-.22.64-.34.96-.1.28-.21.56-.32.83-.14.32-.3.63-.47.94-.14.25-.28.5-.43.75-.18.29-.36.58-.56.85-.19.26-.39.5-.59.75-.2.24-.39.49-.61.72-.3.32-.63.62-.96.92ZM50.99,63.43c0,.31-.25.56-.56.56h-9.73c2.77-2.8,3.93-6,4.37-8.65.07-.41.11-.83.15-1.26.01-.11.03-.21.04-.31.03-.37.03-.74.04-1.11,0-.2.02-.4.02-.61h5.11c.31,0,.56.25.56.56v10.83Z"/></svg>