<?xml version="1.0" encoding="UTF-8"?><svg id="device" xmlns="http://www.w3.org/2000/svg" viewBox="0 0 80 80"><defs><style>.cls-1{fill:#07182d;}</style></defs><g id="Layer_4"><path class="cls-1" d="M79.28,32.88h-2.45s-.08.02-.12.02c-.03,0-.07-.02-.1-.02h-.7c-1.9-2.02-4.59-3.29-7.57-3.29s-5.67,1.27-7.57,3.29H3.25s-.02,0-.04,0c-.01,0-.02,0-.04,0H.58C.28,32.88,0,33.16,0,33.46v13.08c0,.3.28.58.58.58h2.6s.02,0,.04,0c.01,0,.02,0,.04,0h57.52c1.9,2.02,4.59,3.29,7.57,3.29s5.67-1.27,7.57-3.29h.7s.07-.02.1-.02c.04,0,.07.02.12.02h2.45c.4,0,.72-.32.72-.72v-12.79c0-.4-.32-.72-.72-.72ZM2.67,46.04h-1.59v-12.07h1.59v12.07ZM3.75,46.04v-12.07h56.13c-.54.75-.97,1.57-1.3,2.45h-.17v-.69h-1.44v.69h-.66s-.06.03-.06.06v2.48s.03.06.06.06h1.67c-.03.33-.05.65-.05.99,0,.36.02.72.06,1.08h-1.67s-.06.03-.06.06v2.48s.03.06.06.06h.66v.69h1.44v-.69h.2c.32.84.74,1.64,1.26,2.36H3.75ZM68.34,49.32c-5.14,0-9.33-4.18-9.33-9.32s4.18-9.32,9.33-9.32,9.32,4.18,9.32,9.32-4.18,9.32-9.32,9.32ZM78.92,46.04h-1.73v-.59c.98-1.59,1.55-3.45,1.55-5.44s-.58-3.86-1.55-5.44v-.59h1.73v12.07ZM8.7,36.41s.06.03.06.06v2.48s-.03.06-.06.06h-2.75s-.06-.03-.06-.06v-2.48s.03-.06.06-.06h.66v-.69h1.44v.69h.66ZM15.9,36.41s.06.03.06.06v2.48s-.03.06-.06.06h-2.75s-.06-.03-.06-.06v-2.48s.03-.06.06-.06h.66v-.69h1.44v.69h.66ZM23.09,36.41s.06.03.06.06v2.48s-.03.06-.06.06h-2.75s-.06-.03-.06-.06v-2.48s.03-.06.06-.06h.66v-.69h1.44v.69h.66ZM30.29,36.41s.06.03.06.06v2.48s-.03.06-.06.06h-2.75s-.06-.03-.06-.06v-2.48s.03-.06.06-.06h.66v-.69h1.44v.69h.66ZM37.49,36.41s.06.03.06.06v2.48s-.03.06-.06.06h-2.75s-.06-.03-.06-.06v-2.48s.03-.06.06-.06h.66v-.69h1.44v.69h.66ZM44.68,36.41s.06.03.06.06v2.48s-.03.06-.06.06h-2.75s-.06-.03-.06-.06v-2.48s.03-.06.06-.06h.66v-.69h1.44v.69h.66ZM51.88,36.41s.06.03.06.06v2.48s-.03.06-.06.06h-2.75s-.06-.03-.06-.06v-2.48s.03-.06.06-.06h.66v-.69h1.44v.69h.66ZM51.88,41.08s.06.03.06.06v2.48s-.03.06-.06.06h-.66v.69h-1.44v-.69h-.66s-.06-.03-.06-.06v-2.48s.03-.06.06-.06h2.75ZM44.68,41.08s.06.03.06.06v2.48s-.03.06-.06.06h-.66v.69h-1.44v-.69h-.66s-.06-.03-.06-.06v-2.48s.03-.06.06-.06h2.75ZM37.49,41.08s.06.03.06.06v2.48s-.03.06-.06.06h-.66v.69h-1.44v-.69h-.66s-.06-.03-.06-.06v-2.48s.03-.06.06-.06h2.75ZM30.29,41.08s.06.03.06.06v2.48s-.03.06-.06.06h-.66v.69h-1.44v-.69h-.66s-.06-.03-.06-.06v-2.48s.03-.06.06-.06h2.75ZM23.09,41.08s.06.03.06.06v2.48s-.03.06-.06.06h-.66v.69h-1.44v-.69h-.66s-.06-.03-.06-.06v-2.48s.03-.06.06-.06h2.75ZM15.9,41.08s.06.03.06.06v2.48s-.03.06-.06.06h-.66v.69h-1.44v-.69h-.66s-.06-.03-.06-.06v-2.48s.03-.06.06-.06h2.75ZM8.7,41.08s.06.03.06.06v2.48s-.03.06-.06.06h-.66v.69h-1.44v-.69h-.66s-.06-.03-.06-.06v-2.48s.03-.06.06-.06h2.75Z"/></g></svg>