<?xml version="1.0" encoding="UTF-8"?><svg id="device" xmlns="http://www.w3.org/2000/svg" viewBox="0 0 80 80"><defs><style>.cls-1{fill:#fff;}</style></defs><g id="Layer_4"><path class="cls-1" d="M42.18,32.23c-.08-.08-.13-.18-.13-.3v-1.34c0-.12.05-.22.13-.3s.18-.13.3-.13h7.49c.24,0,.43.19.43.43v1.34c0,.24-.19.43-.43.43h-7.49c-.12,0-.22-.05-.3-.13ZM9.49,46.36h-1.34c-.24,0-.43.19-.43.43v7.49c0,.06.01.12.03.17.06.15.22.26.39.26h1.34c.24,0,.43-.19.43-.43v-7.49c0-.12-.05-.22-.13-.3s-.18-.13-.3-.13ZM14.24,46.36h-1.34c-.24,0-.43.19-.43.43v7.49c0,.24.19.43.43.43h1.34c.24,0,.43-.19.43-.43v-7.49c0-.06-.01-.12-.03-.17-.07-.15-.22-.26-.39-.26ZM19,46.36h-1.34c-.18,0-.33.11-.39.26-.02.05-.03.11-.03.17v7.49c0,.24.19.43.43.43h1.34c.24,0,.43-.19.43-.43v-7.49c0-.06-.01-.12-.03-.17-.06-.15-.22-.26-.39-.26ZM23.75,46.36h-1.34c-.18,0-.33.11-.39.26-.02.05-.03.11-.03.17v7.49c0,.24.19.43.43.43h1.34c.12,0,.22-.05.3-.13s.13-.18.13-.3v-7.49c0-.06-.01-.12-.03-.17-.07-.15-.22-.26-.39-.26ZM28.5,46.36h-1.34c-.24,0-.43.19-.43.43v7.49c0,.18.11.33.26.39.05.02.11.03.17.03h1.34c.24,0,.43-.19.43-.43v-7.49c0-.12-.05-.22-.13-.3s-.18-.13-.3-.13ZM33.25,46.36h-1.34c-.24,0-.43.19-.43.43v7.49c0,.24.19.43.43.43h1.34c.06,0,.12-.01.17-.03.15-.06.26-.22.26-.39v-7.49c0-.12-.05-.22-.13-.3s-.18-.13-.3-.13ZM38,46.36h-1.34c-.18,0-.33.11-.39.26-.02.05-.03.11-.03.17v7.49c0,.12.05.22.13.3s.18.13.3.13h1.34c.24,0,.43-.19.43-.43v-7.49c0-.06-.01-.12-.03-.17-.07-.15-.22-.26-.39-.26ZM48.67,46.36h-1.34c-.18,0-.33.11-.39.26-.02.05-.03.11-.03.17v7.49c0,.24.19.43.43.43h1.34c.12,0,.22-.05.3-.13.08-.08.13-.18.13-.3v-7.49c0-.06-.01-.12-.03-.17-.07-.15-.22-.26-.39-.26ZM53.33,46.36h-1.34c-.24,0-.43.19-.43.43v7.49c0,.24.19.43.43.43h1.34c.24,0,.43-.19.43-.43v-7.49c0-.06-.01-.12-.03-.17-.06-.15-.22-.26-.39-.26ZM57.99,46.36h-1.34c-.18,0-.33.11-.39.26-.02.05-.03.11-.03.17v7.49c0,.24.19.43.43.43h1.34c.24,0,.43-.19.43-.43v-7.49c0-.12-.05-.22-.13-.3-.08-.08-.18-.13-.3-.13ZM62.65,46.36h-1.34c-.18,0-.33.11-.39.26-.02.05-.03.11-.03.17v7.49c0,.12.05.22.13.3s.18.13.3.13h1.34c.24,0,.43-.19.43-.43v-7.49c0-.06-.01-.12-.03-.17-.06-.15-.22-.26-.39-.26ZM67.31,46.36h-1.34c-.24,0-.43.19-.43.43v7.49c0,.24.19.43.43.43h1.34c.24,0,.43-.19.43-.43v-7.49c0-.12-.05-.22-.13-.3s-.18-.13-.3-.13ZM71.97,46.36h-1.34c-.18,0-.33.11-.39.26-.02.05-.03.11-.03.17v7.49c0,.24.19.43.43.43h1.34c.12,0,.22-.05.3-.13s.13-.18.13-.3v-7.49c0-.06-.01-.12-.03-.17-.06-.15-.22-.26-.39-.26ZM80,26.92v13.07s0,.03,0,.04c0,.01,0,.03,0,.04v16.29c0,.3-.29.59-.59.59h-2.72s-.03,0-.05-.01c-.02,0-.03.01-.05.01H3.26s-.03,0-.05-.01c-.02,0-.03.01-.05.01H.59C.29,56.95,0,56.66,0,56.37v-16.29s0-.03,0-.04c0-.01,0-.03,0-.04v-13.07c0-.3.28-.58.58-.58h2.59s.03,0,.04,0c.01,0,.03,0,.04,0h58.77c1.9-2.02,4.59-3.29,7.57-3.29s5.67,1.27,7.57,3.29h2.25c.3,0,.58.28.58.58ZM60.27,33.45c0,5.14,4.18,9.33,9.33,9.33s9.33-4.18,9.33-9.33-4.18-9.33-9.33-9.33-9.33,4.18-9.33,9.33ZM61.14,27.42H3.75v12.07h57.38c-.6-.83-1.07-1.75-1.4-2.74h-.01c-.24,0-.43-.19-.43-.43v-1.34s0-.04.01-.06c-.07-.48-.12-.97-.12-1.46s.05-.98.12-1.46c0-.02-.01-.04-.01-.06v-1.34c0-.24.19-.43.43-.43h0c.33-.99.81-1.91,1.41-2.75ZM2.67,40.57h-1.59v15.3h1.59v-15.3ZM2.67,39.49v-12.07h-1.59v12.07h1.59ZM3.75,55.87h72.36v-14.32c-1.08.87-2.34,1.53-3.71,1.91v1.18c0,.24-.19.43-.43.43h-1.34c-.24,0-.43-.19-.43-.43v-.82c-.2.01-.41.03-.61.03-.63,0-1.25-.07-1.86-.18v.96c0,.24-.19.43-.43.43h-1.34c-.24,0-.43-.19-.43-.43v-1.61c-1.34-.57-2.54-1.42-3.52-2.47H3.75v15.3ZM78.92,40.57h-1.73v15.3h1.73v-15.3ZM78.92,38.04c-.25.51-.54.99-.86,1.45h.86v-1.45ZM78.92,28.87v-1.45h-.87c.33.46.62.94.87,1.45ZM7.99,32.36h7.49c.24,0,.43-.19.43-.43v-1.34c0-.24-.19-.43-.43-.43h-7.49c-.24,0-.43.19-.43.43v1.34c0,.24.19.43.43.43ZM17.45,32.32c.05.02.11.03.17.03h2.48c.24,0,.43-.19.43-.43v-1.34c0-.24-.19-.43-.43-.43h-2.48c-.06,0-.12.01-.17.03-.15.06-.26.22-.26.39v1.34c0,.18.11.33.26.39ZM25.07,32.32c.05.02.11.03.17.03h7.49c.24,0,.43-.19.43-.43v-1.34c0-.24-.19-.43-.43-.43h-7.49c-.06,0-.12.01-.17.03-.15.06-.26.22-.26.39v1.34c0,.18.11.33.26.39ZM34.86,32.36h2.48c.24,0,.43-.19.43-.43v-1.34c0-.24-.19-.43-.43-.43h-2.48c-.24,0-.43.19-.43.43v1.34c0,.24.19.43.43.43ZM52.11,32.36h2.48c.24,0,.43-.19.43-.43v-1.34c0-.24-.19-.43-.43-.43h-2.48c-.24,0-.43.19-.43.43v1.34c0,.24.19.43.43.43ZM7.99,36.74h7.49c.24,0,.43-.19.43-.43v-1.34c0-.24-.19-.43-.43-.43h-7.49c-.24,0-.43.19-.43.43v1.34c0,.06.01.12.03.17.07.15.22.26.39.26ZM17.62,36.74h2.48c.18,0,.33-.11.39-.26.02-.05.03-.11.03-.17v-1.34c0-.24-.19-.43-.43-.43h-2.48c-.06,0-.12.01-.17.03-.15.06-.26.22-.26.39v1.34c0,.12.05.22.13.3.08.08.18.13.3.13ZM25.23,36.74h7.49c.18,0,.33-.11.39-.26.02-.05.03-.11.03-.17v-1.34c0-.24-.19-.43-.43-.43h-7.49c-.06,0-.12.01-.17.03-.15.06-.26.22-.26.39v1.34c0,.12.05.22.13.3s.18.13.3.13ZM34.86,36.74h2.48c.24,0,.43-.19.43-.43v-1.34c0-.24-.19-.43-.43-.43h-2.48c-.24,0-.43.19-.43.43v1.34c0,.12.05.22.13.3.08.08.18.13.3.13ZM42.48,36.74h7.49c.24,0,.43-.19.43-.43v-1.34c0-.24-.19-.43-.43-.43h-7.49c-.12,0-.22.05-.3.13s-.13.18-.13.3v1.34c0,.06.01.12.03.17.07.15.22.26.39.26ZM52.11,36.74h2.48c.18,0,.33-.11.39-.26.02-.05.03-.11.03-.17v-1.34c0-.24-.19-.43-.43-.43h-2.48c-.24,0-.43.19-.43.43v1.34c0,.06.01.12.03.17.06.15.22.26.39.26ZM9.49,41.74h-1.34c-.18,0-.33.11-.39.26-.02.05-.03.11-.03.17v2.48c0,.06.01.12.03.17.06.15.22.26.39.26h1.34c.24,0,.43-.19.43-.43v-2.48c0-.24-.19-.43-.43-.43ZM14.24,41.74h-1.34c-.24,0-.43.19-.43.43v2.48c0,.24.19.43.43.43h1.34c.24,0,.43-.19.43-.43v-2.48c0-.24-.19-.43-.43-.43ZM19,41.74h-1.34c-.24,0-.43.19-.43.43v2.48c0,.24.19.43.43.43h1.34c.24,0,.43-.19.43-.43v-2.48c0-.24-.19-.43-.43-.43ZM23.75,41.74h-1.34c-.24,0-.43.19-.43.43v2.48c0,.24.19.43.43.43h1.34c.12,0,.22-.05.3-.13s.13-.18.13-.3v-2.48c0-.12-.05-.23-.13-.3-.08-.08-.18-.13-.3-.13ZM28.5,41.74h-1.34c-.06,0-.12.01-.17.03-.15.06-.26.22-.26.39v2.48c0,.18.11.33.26.39.05.02.11.03.17.03h1.34c.24,0,.43-.19.43-.43v-2.48c0-.24-.19-.43-.43-.43ZM33.42,41.77c-.05-.02-.11-.03-.17-.03h-1.34c-.24,0-.43.19-.43.43v2.48c0,.24.19.43.43.43h1.34c.06,0,.12-.01.17-.03.15-.07.26-.22.26-.39v-2.48c0-.18-.11-.33-.26-.39ZM38,41.74h-1.34c-.12,0-.22.05-.3.13-.08.08-.13.18-.13.3v2.48c0,.12.05.23.13.3s.18.13.3.13h1.34c.24,0,.43-.19.43-.43v-2.48c0-.24-.19-.43-.43-.43ZM48.67,41.74h-1.34c-.24,0-.43.19-.43.43v2.48c0,.24.19.43.43.43h1.34c.12,0,.22-.05.3-.13.08-.08.13-.18.13-.3v-2.48c0-.12-.05-.23-.13-.3s-.18-.13-.3-.13ZM53.33,41.74h-1.34c-.24,0-.43.19-.43.43v2.48c0,.24.19.43.43.43h1.34c.24,0,.43-.19.43-.43v-2.48c0-.24-.19-.43-.43-.43ZM57.99,41.74h-1.34c-.24,0-.43.19-.43.43v2.48c0,.24.19.43.43.43h1.34c.24,0,.43-.19.43-.43v-2.48c0-.24-.19-.43-.43-.43ZM62.65,41.74h-1.34c-.12,0-.22.05-.3.13-.08.08-.13.18-.13.3v2.48c0,.12.05.23.13.3s.18.13.3.13h1.34c.24,0,.43-.19.43-.43v-2.48c0-.24-.19-.43-.43-.43Z"/></g></svg>