<?xml version="1.0" encoding="UTF-8"?><svg id="device" xmlns="http://www.w3.org/2000/svg" viewBox="0 0 80 80"><defs><style>.cls-1{fill:#07182d;}</style></defs><g id="Layer_4"><path class="cls-1" d="M64.23,35.15l4.09,4.09-.76.76-4.12-4.12v1.11s-1.09-.01-1.09-.01l.03-2.39c0-.14.06-.28.16-.38.1-.1.24-.17.38-.15l2.33.03v1.08s-1.02-.01-1.02-.01ZM73.39,44.34l-4-4-.76.76,3.97,3.97h-1.01s-.01,1.07-.01,1.07l2.33.03h0c.14,0,.28-.05.38-.15.1-.1.16-.24.16-.38l.03-2.39h-1.08s-.01,1.09-.01,1.09ZM69.91,37.81v-1s-1.07-.01-1.07-.01l-.03,2.33c0,.14.05.28.15.38.1.1.24.16.38.16l2.39.03v-1.08s-1.09-.01-1.09-.01l4.02-4.02-.76-.76-3.98,3.98ZM67.44,40.53l-2.39-.03v1.08s1.09.01,1.09.01l-3.98,3.98.76.76,3.95-3.95v1.01s1.07.01,1.07.01l.03-2.33c0-.14-.05-.28-.15-.38-.1-.1-.24-.16-.38-.16ZM27.59,43.63h.62v.69h1.68v-.69h.58v-2.69h-2.87v2.69ZM46.05,38.31h-1.68v.69h-.58v2.69h2.87v-2.69h-.62v-.69ZM24.61,35.68h-1.68v.69h-.58v2.69h2.87v-2.69h-.62v-.69ZM22.35,43.63h.62v.69h1.68v-.69h.58v-2.69h-2.87v2.69ZM40.82,38.31h-1.68v.69h-.58v2.69h2.87v-2.69h-.62v-.69ZM80,33.63v12.75c0,.41-.33.74-.74.74h-2.4s-.09-.02-.13-.03c-.04,0-.08.03-.12.03h-.69c-1.9,2.02-4.59,3.29-7.57,3.29s-5.67-1.27-7.57-3.29H3.25s-.03,0-.04,0c-.01,0-.03,0-.04,0H.58C.28,47.12,0,46.83,0,46.54v-13.07c0-.3.28-.58.58-.58h2.59s.03,0,.04,0c.01,0,.03,0,.04,0h57.53c1.9-2.02,4.59-3.29,7.57-3.29s5.67,1.27,7.57,3.29h.69s.08.02.12.03c.04,0,.08-.03.13-.03h2.4c.41,0,.74.33.74.74ZM2.67,33.96h-1.59v12.07h1.59v-12.07ZM59.9,46.04c-1.22-1.7-1.95-3.79-1.95-6.04s.73-4.33,1.95-6.04H3.75v12.07h56.14ZM77.68,40c0-5.14-4.18-9.33-9.33-9.33s-9.33,4.18-9.33,9.33,4.18,9.33,9.33,9.33,9.33-4.18,9.33-9.33ZM78.92,33.96h-1.73v.57c.99,1.59,1.57,3.46,1.57,5.46s-.58,3.87-1.57,5.46v.57h1.73v-12.07ZM56.43,35.68h-1.68v.69h-.58v2.69h2.87v-2.69h-.62v-.69ZM51.24,35.68h-1.68v.69h-.58v2.69h2.87v-2.69h-.62v-.69ZM54.18,43.63h.62v.69h1.68v-.69h.58v-2.69h-2.87v2.69ZM48.99,43.63h.62v.69h1.68v-.69h.58v-2.69h-2.87v2.69Z"/></g></svg>