<?xml version="1.0" encoding="utf-8"?>
<!-- Generator: Adobe Illustrator 26.2.1, SVG Export Plug-In . SVG Version: 6.00 Build 0)  -->
<svg version="1.1" id="a" xmlns="http://www.w3.org/2000/svg" xmlns:xlink="http://www.w3.org/1999/xlink" x="0px" y="0px"
	 viewBox="0 0 64 64" style="enable-background:new 0 0 64 64;" xml:space="preserve">
<g>
	<g>
		<path d="M32,10.8L32,10.8c-2.6,0-4.8-2.1-4.7-4.8c0-1.3,0.5-2.5,1.4-3.4s2.1-1.4,3.4-1.4l0,0c2.6,0,4.7,2.1,4.7,4.8
			C36.7,8.6,34.6,10.8,32,10.8z M32,2.8c-0.9,0-1.7,0.3-2.3,0.9c-0.6,0.6-1,1.4-1,2.3c0,1.8,1.5,3.3,3.2,3.3l0,0
			c1.8,0,3.2-1.5,3.2-3.2C35.3,4.2,33.8,2.8,32,2.8L32,2.8z"/>
	</g>
	<g>
		<rect x="31.2" y="10" width="1.5" height="12"/>
	</g>
	<g>
		<path d="M32,62.8L32,62.8c-2.6,0-4.8-2.1-4.8-4.8c0-2.6,2.1-4.7,4.8-4.7l0,0c2.6,0,4.7,2.1,4.7,4.8c0,1.3-0.5,2.5-1.4,3.4
			C34.5,62.3,33.3,62.8,32,62.8z M32,54.8c-1.8,0-3.2,1.5-3.3,3.2c0,1.8,1.5,3.3,3.2,3.3l0,0c0.9,0,1.7-0.3,2.3-0.9l0,0
			c0.6-0.6,1-1.4,1-2.3C35.3,56.2,33.8,54.8,32,54.8L32,54.8z"/>
	</g>
	<g>
		<rect x="31.2" y="46" width="1.5" height="8"/>
	</g>
	<g>
		<rect x="12.4" y="40.2" transform="matrix(0.8589 -0.5121 0.5121 0.8589 -18.6505 14.1512)" width="8" height="1.5"/>
	</g>
	<g>
		<rect x="43.6" y="22.3" transform="matrix(0.866 -0.5001 0.5001 0.866 -5.147 26.8757)" width="8" height="1.5"/>
	</g>
	<g>
		<rect x="46.7" y="36.9" transform="matrix(0.5 -0.866 0.866 0.5 -11.7634 61.5688)" width="1.5" height="8.1"/>
	</g>
	<g>
		<rect x="15.4" y="19" transform="matrix(0.5 -0.866 0.866 0.5 -11.7443 25.4813)" width="1.5" height="7.8"/>
	</g>
	<g>
		<path d="M9.5,49.8c-0.4,0-0.8-0.1-1.2-0.2c-1.2-0.3-2.2-1.1-2.9-2.2c-1.3-2.3-0.5-5.2,1.8-6.5s5.2-0.5,6.5,1.8s0.5,5.2-1.8,6.5
			C11.1,49.5,10.3,49.8,9.5,49.8z M9.5,41.8c-0.5,0-1.1,0.1-1.6,0.4c-1.6,0.9-2.1,2.9-1.2,4.4c0.4,0.8,1.1,1.3,2,1.5
			c0.8,0.2,1.7,0.1,2.5-0.3c1.6-0.9,2.1-2.9,1.2-4.4C11.7,42.3,10.6,41.8,9.5,41.8z"/>
	</g>
	<g>
		<path d="M54.5,23.7c-1.6,0-3.2-0.9-4.1-2.4c-1.3-2.3-0.5-5.2,1.8-6.5c1.1-0.6,2.4-0.8,3.6-0.5c1.2,0.3,2.2,1.1,2.9,2.2
			c0.6,1.1,0.8,2.4,0.5,3.6S58.1,22.3,57,23C56.1,23.5,55.3,23.7,54.5,23.7z M54.5,15.7c-0.6,0-1.1,0.1-1.6,0.4
			c-1.6,0.9-2.1,2.9-1.2,4.4c0.9,1.6,2.9,2.1,4.4,1.2c0.8-0.4,1.3-1.1,1.5-2c0.2-0.8,0.1-1.7-0.3-2.5s-1.1-1.3-2-1.5
			C55.1,15.8,54.8,15.7,54.5,15.7z"/>
	</g>
	<g>
		<path d="M54.5,49.8c-0.8,0-1.6-0.2-2.4-0.6c-1.1-0.6-1.9-1.7-2.2-2.9s-0.2-2.5,0.5-3.6c0.6-1.1,1.7-1.9,2.9-2.2s2.5-0.2,3.6,0.5
			c1.1,0.6,1.9,1.7,2.2,2.9s0.2,2.5-0.5,3.6s-1.7,1.9-2.9,2.2C55.3,49.7,54.9,49.8,54.5,49.8z M54.5,41.7c-0.3,0-0.6,0-0.8,0.1
			c-0.8,0.2-1.5,0.8-2,1.5s-0.6,1.6-0.3,2.5s0.8,1.5,1.5,2c0.8,0.4,1.6,0.6,2.5,0.3c0.8-0.2,1.5-0.8,2-1.5c0.4-0.8,0.6-1.6,0.3-2.5
			c-0.2-0.8-0.8-1.5-1.5-2C55.6,41.9,55.1,41.7,54.5,41.7z"/>
	</g>
	<g>
		<path d="M9.5,23.8c-0.8,0-1.6-0.2-2.4-0.6c-1.1-0.6-1.9-1.7-2.2-2.9c-0.3-1.2-0.2-2.5,0.5-3.6c0.6-1.1,1.7-1.9,2.9-2.2
			s2.5-0.2,3.6,0.5c1.1,0.6,1.9,1.7,2.2,2.9s0.2,2.5-0.5,3.6c-0.6,1.1-1.7,1.9-2.9,2.2C10.3,23.7,9.9,23.8,9.5,23.8z M9.5,15.7
			c-0.3,0-0.6,0-0.8,0.1c-0.8,0.2-1.5,0.8-2,1.5c-0.4,0.8-0.6,1.6-0.3,2.5c0.2,0.8,0.8,1.5,1.5,2c0.8,0.4,1.6,0.6,2.5,0.3
			c0.8-0.2,1.5-0.8,2-1.5c0.4-0.8,0.6-1.6,0.3-2.5c-0.2-0.8-0.8-1.5-1.5-2C10.6,15.9,10.1,15.7,9.5,15.7z"/>
	</g>
	<g>
		<g>
			<path d="M32,46.8c-8.1,0-14.8-6.6-14.8-14.8c0-8.1,6.6-14.8,14.8-14.8c8.1,0,14.8,6.6,14.8,14.8C46.8,40.1,40.1,46.8,32,46.8z
				 M32,18.8c-7.3,0-13.2,5.9-13.2,13.2S24.7,45.2,32,45.2S45.2,39.3,45.2,32S39.3,18.8,32,18.8z"/>
		</g>
		<g>
			<path d="M22.1,42.6c-0.2,0-0.4-0.1-0.5-0.2s-0.2-0.3-0.2-0.5s0.1-0.4,0.2-0.5l8.6-8.6H18v-1.5h13.2V18h1.5v14v0.1l0,0l0,0l0,0
				l0,0v0.1l0,0l0,0l0,0l0,0l0,0c0,0.1-0.1,0.2-0.2,0.3l0,0l0,0l0,0l0,0l0,0l0,0l0,0l0,0l-9.9,9.9C22.5,42.6,22.3,42.6,22.1,42.6z"
				/>
		</g>
	</g>
</g>
</svg>
