<?xml version="1.0" encoding="UTF-8"?><svg id="a" xmlns="http://www.w3.org/2000/svg" viewBox="0 0 80 80"><path d="M67.10742,51.78125c-.3252-1.22656-1.10938-2.25293-2.20605-2.88916-1.09766-.63672-2.37598-.80957-3.60352-.48291-.98389,.26123-1.82715,.82751-2.45532,1.60352l-5.7229-3.30396c1.03467-2.01526,1.63037-4.29175,1.63037-6.70874,0-2.41687-.59546-4.69336-1.63037-6.7085l5.71533-3.2998c.91797,1.13013,2.28564,1.75732,3.69043,1.75732,.80078,0,1.61328-.20312,2.35645-.62988,1.10059-.63184,1.88965-1.6543,2.2207-2.87891,.33105-1.2251,.16504-2.50537-.4668-3.60596-.63184-1.1001-1.6543-1.88867-2.87988-2.21973-1.22266-.32959-2.50293-.16504-3.60547,.46631-2.05029,1.17822-2.87402,3.66223-2.05615,5.80664l-5.72461,3.30518c-2.50342-3.85364-6.7522-6.45801-11.61963-6.70459v-6.61389c2.25781-.36243,3.99463-2.3053,4-4.66345,.00586-2.61865-2.12012-4.75439-4.73828-4.76074h-.01074c-1.26562,0-2.45605,.49121-3.35254,1.3833-.89844,.89453-1.39551,2.08594-1.39844,3.35596-.00537,2.36572,1.73438,4.3208,4,4.68433v6.6145c-4.86743,.24658-9.11621,2.85083-11.61963,6.70447l-5.72168-3.30334c.35547-.92505,.42456-1.93115,.16553-2.90796-.3252-1.22656-1.10938-2.25244-2.20605-2.88916-2.26562-1.31445-5.17676-.54199-6.49316,1.72412-.63672,1.09766-.80859,2.37695-.48242,3.60254,.3252,1.22656,1.10938,2.25293,2.20605,2.88916,.73438,.42627,1.5498,.64404,2.37695,.64404,.40918,0,.82031-.05322,1.22656-.16113,.98389-.26123,1.82715-.82751,2.45532-1.60352l5.7229,3.30396c-1.03491,2.01538-1.63037,4.29175-1.63037,6.70874,0,2.38062,.58008,4.62366,1.58594,6.61646l-5.68433,3.38892c-1.44263-1.76733-3.98999-2.29736-6.03345-1.12451-1.10059,.63184-1.88965,1.6543-2.2207,2.87891-.33105,1.2251-.16504,2.50537,.4668,3.60596,.63184,1.1001,1.6543,1.88867,2.87988,2.21973,.41211,.11133,.83105,.1665,1.24707,.1665,.81934,0,1.62793-.21387,2.3584-.63281,2.05298-1.17981,2.87549-3.66895,2.05225-5.81543l5.67529-3.38354c.57275,.89478,1.22925,1.73047,1.97559,2.4801,.00781,.00854,.01025,.01965,.01855,.02795,.0083,.00818,.01929,.01074,.02783,.01843,2.50244,2.49158,5.89551,4.07507,9.65088,4.26526v6.61389c-2.25781,.36243-3.99463,2.3053-4,4.66345-.00586,2.61865,2.12012,4.75439,4.73828,4.76074h.01074c1.26562,0,2.45605-.49121,3.35254-1.3833,.89844-.89453,1.39551-2.08594,1.39844-3.35596,.00537-2.36572-1.73438-4.3208-4-4.68433v-6.6145c4.86743-.24658,9.11621-2.85083,11.61963-6.70435l5.72168,3.30322c-.35547,.92505-.42456,1.93115-.16553,2.90796,.3252,1.22656,1.10938,2.25244,2.20605,2.88916,.74902,.43457,1.56738,.64111,2.37695,.64111,1.63867,0,3.23535-.84814,4.11621-2.36523,.63672-1.09766,.80859-2.37695,.48242-3.60254Zm-6.20996-27.59961c.5-.28662,1.05371-.43311,1.61426-.43311,.28418,0,.57129,.03809,.85352,.11426,.83789,.22656,1.53711,.76562,1.96973,1.51855s.5459,1.62891,.31934,2.46729c-.22656,.83789-.76562,1.5376-1.51855,1.96973-1.55273,.8916-3.54395,.354-4.4375-1.19971-.8916-1.5542-.35352-3.54443,1.19922-4.43701Zm-42.58008,5.95947c-.83887,.22266-1.71387,.10645-2.46582-.33057-.75-.43555-1.28711-1.1377-1.50977-1.97656s-.10547-1.71436,.33008-2.46533c.60254-1.0376,1.69531-1.61816,2.81738-1.61816,.55273,0,1.11328,.1416,1.62598,.43896,.75098,.43555,1.28711,1.1377,1.50977,1.97656s.10449,1.71436-.33105,2.46533-1.1377,1.28711-1.97656,1.50977Zm.78516,25.67725c-.75293,.43164-1.62891,.54443-2.46777,.31885-.83789-.22656-1.53711-.76562-1.96973-1.51855s-.5459-1.62891-.31934-2.46729c.22656-.83789,.76562-1.5376,1.51855-1.96973,.50879-.29199,1.06445-.43066,1.61328-.43066,1.12695,0,2.22363,.58545,2.82422,1.63037,.8916,1.5542,.35352,3.54443-1.19922,4.43701ZM36.75,13.99268c.00195-.86865,.3418-1.68408,.95703-2.2959,.61328-.61084,1.42773-.94678,2.29395-.94678h.00684c1.79199,.00439,3.24609,1.46582,3.24219,3.25781-.00391,1.78906-1.46191,3.24219-3.25098,3.24219h-.00684c-1.79199-.00439-3.24609-1.46582-3.24219-3.25732Zm2.5,12.79541v12.46191h-12.46191c.37817-6.70679,5.75537-12.08374,12.46191-12.46191Zm-9.11987,22.02087c-1.93774-2.1687-3.16797-4.97156-3.34204-8.05896h11.40137l-8.05933,8.05896Zm13.11987,17.19836c-.00195,.86865-.3418,1.68408-.95703,2.2959-.61328,.61084-1.42773,.94678-2.29395,.94678h-.00684c-1.79199-.00439-3.24609-1.46582-3.24219-3.25781,.00391-1.78906,1.46191-3.24219,3.25098-3.24219h.00684c1.79199,.00439,3.24609,1.46582,3.24219,3.25732Zm-3.25-12.75732c-3.38354,0-6.46533-1.28577-8.80957-3.38049l9.33984-9.33923,.00195-.00146v-.00049l.00098-.00098,.00391-.00342v-.00049l.00098-.00146c.09277-.09521,.15625-.21094,.18848-.33447v-.00342c.00684-.02637,.0127-.05371,.0166-.08105v-.00049l.00098-.00537c.00391-.03418,.00586-.06836,.00586-.10303v-13.20605c6.95605,.39233,12.5,6.15894,12.5,13.21191,0,7.30615-5.94434,13.25-13.25,13.25Zm25.32812,1.38135c-.90039,1.54883-2.89062,2.07959-4.44336,1.1792-.75098-.43555-1.28711-1.1377-1.50977-1.97656s-.10449-1.71436,.33105-2.46533,1.1377-1.28711,1.97656-1.50977c.27832-.07373,.55957-.11035,.83984-.11035,.56543,0,1.12305,.14893,1.62598,.44092,.75,.43555,1.28711,1.1377,1.50977,1.97656s.10547,1.71436-.33008,2.46533Z"/></svg>