<?xml version="1.0" encoding="UTF-8"?><svg id="modifiers" xmlns="http://www.w3.org/2000/svg" viewBox="0 0 80 80"><defs><style>.cls-1{fill:#07182d;}</style></defs><path class="cls-1" d="M72.65,34.61h-7.98c-2.51-11.54-12.81-19.87-24.66-19.87s-22.15,8.33-24.67,19.87H7.11c-.65,0-1.18.53-1.18,1.18v8.44c0,.65.53,1.18,1.18,1.18h8.23c2.51,11.54,12.81,19.87,24.67,19.87s22.15-8.33,24.66-19.87h7.98c.65,0,1.18-.53,1.18-1.18v-8.44c0-.65-.53-1.18-1.18-1.18ZM6.98,44.22v-8.44c0-.07.05-.12.12-.12h18.17c.07,0,.12.05.12.12v8.44c0,.07-.05.12-.12.12H7.11c-.07,0-.12-.05-.12-.12ZM40.01,64.21c-11.29,0-21.09-7.88-23.58-18.81h8.86c.65,0,1.18-.53,1.18-1.18v-8.44c0-.65-.53-1.18-1.18-1.18h-8.86c2.49-10.94,12.3-18.81,23.58-18.81s21.09,7.88,23.58,18.81h-9.11c-.65,0-1.18.53-1.18,1.18v8.44c0,.65.53,1.18,1.18,1.18h9.11c-2.49,10.94-12.29,18.81-23.58,18.81ZM72.78,44.22c0,.07-.05.12-.12.12h-18.17c-.07,0-.12-.05-.12-.12v-8.44c0-.07.05-.12.12-.12h18.17c.07,0,.12.05.12.12v8.44ZM77.91,0H2.09C.94,0,0,.94,0,2.09v75.83c0,1.15.94,2.09,2.09,2.09h75.83c1.15,0,2.09-.94,2.09-2.09V2.09c0-1.15-.94-2.09-2.09-2.09ZM78.95,77.91c0,.57-.46,1.03-1.03,1.03H2.09c-.57,0-1.03-.46-1.03-1.03V2.09c0-.57.46-1.03,1.03-1.03h75.83c.57,0,1.03.46,1.03,1.03v75.83Z"/></svg>