<?xml version="1.0" encoding="UTF-8"?><svg id="device" xmlns="http://www.w3.org/2000/svg" viewBox="0 0 80 80"><defs><style>.cls-1{fill:#fff;fill-rule:evenodd;}</style></defs><g id="Layer_4"><path class="cls-1" d="M49.6,43.63h-.62v-2.69h2.87v2.69h-.58v.69h-1.68v-.69ZM51.86,36.37h-.62v-.69h-1.68v.69h-.58v2.69h2.87v-2.69ZM46.67,39h-.62v-.69h-1.68v.69h-.58v2.69h2.87v-2.69ZM28.2,44.32h1.68v-.69h.58v-2.69h-2.87v2.69h.62v.69ZM22.97,44.32h1.68v-.69h.58v-2.69h-2.87v2.69h.62v.69ZM41.43,39h-.62v-.69h-1.68v.69h-.58v2.69h2.87v-2.69ZM80,33.63v12.75c0,.41-.33.74-.74.74h-2.4s-.09-.02-.13-.03c-.04,0-.08.03-.12.03H3.25s-.03,0-.04,0c-.01,0-.03,0-.04,0H.58c-.3,0-.58-.28-.58-.58v-13.07c0-.3.28-.58.58-.58h2.59s.03,0,.04,0c.01,0,.03,0,.04,0h73.36s.08.02.12.03c.04,0,.08-.03.13-.03h2.4c.41,0,.74.33.74.74ZM2.67,33.96h-1.59v12.07h1.59v-12.07ZM76.11,33.96H3.75v12.07h72.36v-12.07ZM78.92,33.96h-1.73v12.07h1.73v-12.07ZM25.22,36.37h-.62v-.69h-1.68v.69h-.58v2.69h2.87v-2.69ZM57.05,36.37h-.62v-.69h-1.68v.69h-.58v2.69h2.87v-2.69ZM54.79,44.32h1.68v-.69h.58v-2.69h-2.87v2.69h.62v.69Z"/></g></svg>