<?xml version="1.0" encoding="UTF-8"?><svg id="modifiers" xmlns="http://www.w3.org/2000/svg" viewBox="0 0 80 80"><defs><style>.cls-1{fill:#fff;}</style></defs><path class="cls-1" d="M16.33,55.19h-1.06V1.25c0-.66.54-1.2,1.2-1.2h33.18v1.06H16.48c-.08,0-.14.07-.14.14v53.94ZM77.34,28.68v33.28c0,.08-.07.14-.14.14H27.37v1.06h49.82c.66,0,1.2-.54,1.2-1.2V28.68h-1.06ZM61.83,15.66V.87c0-.48.39-.87.87-.87h14.79c.48,0,.87.39.87.87v14.79c0,.48-.39.87-.87.87h-14.79c-.48,0-.87-.39-.87-.87ZM62.89,15.46h14.4V1.06h-14.4v14.4ZM44.72,33.8v14.79c0,.48-.39.87-.87.87h-14.79c-.48,0-.87-.39-.87-.87v-14.79c0-.48.39-.87.87-.87h14.79c.48,0,.87.39.87.87ZM43.66,33.99h-14.4v14.4h14.4v-14.4ZM49.92,32.93h14.79c.48,0,.87.39.87.87v14.79c0,.48-.39.87-.87.87h-14.79c-.48,0-.87-.39-.87-.87v-14.79c0-.48.39-.87.87-.87ZM50.11,48.4h14.4v-14.4h-14.4v14.4ZM44.72,28.41c0,.48-.39.87-.87.87h-14.79c-.48,0-.87-.39-.87-.87v-14.79c0-.48.39-.87.87-.87h14.79c.48,0,.87.39.87.87v14.79ZM43.66,13.81h-14.4v14.4h14.4v-14.4ZM26.92,68.51c.27,1.3.27,1.44.27,1.6,0,2.22-2.49,3.46-5.78,3.46-7.43,0-13.92-4.35-13.92-7.22,0-.4.08-.79.24-1.16-2.67.13-6.13.6-6.13,3.65,0,5,11.84,11.16,21.2,11.16,7.19,0,9-3.25,9-5.82,0-2.02-1.75-4.3-4.89-5.67ZM21.76,70.32c1.98,0,4.86-.41,4.86-2.78,0-.18-.02-.36-.05-.54l-1.17-5.14c-.27-1.13-.51-1.65-2.49-2.63-1.54-.79-4.89-2.08-5.89-2.08-.94,0-1.21,1.19-2.3,1.19s-1.84-.89-2.84-.89-1.57.65-2.05,1.98c0,0-1.33,3.76-1.51,4.32-.03.1-.04.2-.03.3-.02,1.46,5.75,6.25,13.47,6.27Z"/></svg>