<?xml version="1.0" encoding="UTF-8"?><svg id="modifiers" xmlns="http://www.w3.org/2000/svg" viewBox="0 0 80 80"><defs><style>.cls-1{fill:#fff;}</style></defs><path class="cls-1" d="M40.2,20.07c-10.89,0-19.74,8.86-19.74,19.74s8.86,19.74,19.74,19.74,19.74-8.86,19.74-19.74-8.86-19.74-19.74-19.74ZM40.2,58.5c-10.31,0-18.69-8.38-18.69-18.69s8.38-18.69,18.69-18.69,18.69,8.38,18.69,18.69-8.38,18.69-18.69,18.69ZM48.04,43.42c-1.85-.79-2.97.53-3.78,1.5-.26.3-.5.59-.81.87-.05.06-.14.09-.28.1-.95.07-3.18-1.14-5.49-3.45s-3.5-4.55-3.44-5.49c0-.14.04-.24.15-.33.28-.29.6-.55.9-.8,1.11-.91,2.36-1.93,1.09-4.24-.12-.21-.27-.52-.44-.89-1.08-2.25-1.98-3.96-3.11-3.85-2,.18-3.52.49-4.79,3-1.53,2.68-.84,5.39-.08,7.73,1.15,3.53,3.16,6.06,5.83,8.77,2.95,2.9,6.14,5.03,8.99,6,1.21.41,2.48.75,3.8.75,1.18,0,2.41-.27,3.68-.99,2.51-1.28,2.83-2.73,3.02-4.79.13-1.04-1.63-2.35-5.23-3.89ZM52.22,47.21c-.18,1.98-.47,2.95-2.47,3.97-2.22,1.27-4.26.99-6.65.18-2.7-.92-5.75-2.96-8.58-5.75-2.63-2.68-4.48-5.01-5.57-8.35-.88-2.71-1.19-4.8,0-6.9,1.01-1.99,1.98-2.28,3.95-2.45.53.07,1.69,2.47,2.07,3.26.18.38.34.71.47.94.85,1.54.25,2.03-.83,2.92-.33.27-.66.54-.94.83-.21.17-.46.48-.5,1.05-.08,1.44,1.43,3.97,3.75,6.3,2.33,2.33,4.87,3.83,6.3,3.75.56-.03.88-.29.98-.43.3-.27.58-.6.85-.91.89-1.05,1.49-1.67,2.56-1.21,2.75,1.18,4.52,2.37,4.6,2.81h0ZM15.94,16.46l8.52,8.52.74-.74-8.49-8.49,4.92.06v-1.05s-6.2-.08-6.2-.08c-.18,0-.27.05-.37.15-.1.1-.16.23-.16.37l-.08,6.37h1.05s.06-5.11.06-5.11ZM64.26,63.26l-8.46-8.46-.74.74,8.43,8.43-4.92-.06v1.05s6.2.08,6.2.08h0c.14,0,.27-.05.37-.15.1-.1.16-.23.16-.37l.08-6.37h-1.05s-.06,5.11-.06,5.11ZM56.46,22.96l.06-4.92h-1.05s-.08,6.2-.08,6.2c0,.14.05.27.15.37.1.1.23.16.37.16l6.37.08v-1.05s-5.11-.06-5.11-.06l8.66-8.66-.74-.74-8.63,8.63ZM24.87,54.74l-6.37-.08v1.05s5.11.06,5.11.06l-8.45,8.45.74.74,8.42-8.42-.06,4.92h1.05s.08-6.2.08-6.2c0-.14-.05-.27-.15-.37-.1-.1-.23-.16-.37-.16ZM40,0C17.94,0,0,17.94,0,40s17.94,40,40,40,40-17.94,40-40S62.06,0,40,0ZM40,78.95C18.52,78.95,1.05,61.48,1.05,40S18.52,1.05,40,1.05s38.95,17.47,38.95,38.95-17.47,38.95-38.95,38.95Z"/></svg>