<?xml version="1.0" encoding="UTF-8"?><svg id="a" xmlns="http://www.w3.org/2000/svg" viewBox="0 0 80 80"><path d="M24,58.75H56c.41406,0,.75-.33594,.75-.75V22c0-.41406-.33594-.75-.75-.75H24c-.41406,0-.75,.33594-.75,.75V58c0,.41406,.33594,.75,.75,.75Zm.75-36h30.5v10.5H24.75v-10.5Zm0,12h30.5v10.5H24.75v-10.5Zm0,12h30.5v10.5H24.75v-10.5Z"/><rect x="40" y="51.25" width="12" height="1.5"/><rect x="40" y="39.25" width="12" height="1.5"/><rect x="40" y="27.25" width="12" height="1.5"/><path d="M10,54.75h10v-1.5H10.75V26.75h9.25v-1.5H10c-.41406,0-.75,.33594-.75,.75v28c0,.41406,.33594,.75,.75,.75Z"/><path d="M70.75,54V26c0-.41406-.33594-.75-.75-.75h-10v1.5h9.25v26.5h-9.25v1.5h10c.41406,0,.75-.33594,.75-.75Z"/><circle cx="28" cy="28" r="1"/><circle cx="32" cy="28" r="1"/><circle cx="36" cy="28" r="1"/><circle cx="28" cy="40" r="1"/><circle cx="32" cy="40" r="1"/><circle cx="36" cy="40" r="1"/><circle cx="28" cy="52" r="1"/><circle cx="32" cy="52" r="1"/><circle cx="36" cy="52" r="1"/></svg>