<?xml version="1.0" encoding="UTF-8"?><svg id="modifiers" xmlns="http://www.w3.org/2000/svg" viewBox="0 0 80 80"><defs><style>.cls-1{fill:#fff;}</style></defs><path class="cls-1" d="M59.92,12.55h.4V0h-1.06v12.38c-1.18-.24-2.4-.37-3.65-.37h-31.23c-1.25,0-2.47.13-3.65.37V0h-1.06v12.55h.4c-8.06,1.94-14.07,9.2-14.07,17.85v31.23c0,10.13,8.24,18.38,18.38,18.38h31.23c10.13,0,18.38-8.24,18.38-18.38v-31.23c0-8.65-6.01-15.9-14.07-17.85ZM72.93,61.62c0,9.55-7.77,17.32-17.32,17.32h-31.23c-9.55,0-17.32-7.77-17.32-17.32v-31.23c0-9.55,7.77-17.32,17.32-17.32h31.23c9.55,0,17.32,7.77,17.32,17.32v31.23ZM40,26.33c9.61,0,18.73,3.66,25.67,10.31l-.73.77c-6.74-6.46-15.6-10.01-24.94-10.01s-18.26,3.58-25.02,10.09l-.73-.76c6.95-6.7,16.1-10.38,25.75-10.38ZM40,39.4c5.58,0,11.01,1.95,15.3,5.49l-.67.82c-4.1-3.39-9.3-5.25-14.63-5.25s-10.56,1.88-14.67,5.28l-.68-.82c4.3-3.56,9.75-5.53,15.34-5.53ZM40,51.67c2.55,0,4.98.8,7.03,2.32l-.63.85c-1.86-1.38-4.07-2.11-6.39-2.11s-4.53.73-6.39,2.11l-.63-.85c2.04-1.52,4.47-2.32,7.03-2.32ZM40,60.57c-1.59,0-2.88,1.29-2.88,2.88s1.29,2.88,2.88,2.88,2.88-1.29,2.88-2.88-1.29-2.88-2.88-2.88ZM40,65.28c-1.01,0-1.82-.82-1.82-1.82s.82-1.82,1.82-1.82,1.82.82,1.82,1.82-.82,1.82-1.82,1.82Z"/></svg>