<?xml version="1.0" encoding="UTF-8"?><svg id="modifiers" xmlns="http://www.w3.org/2000/svg" viewBox="0 0 80 80"><defs><style>.cls-1{fill:#fff;}</style></defs><path class="cls-1" d="M63.32,27.32c-2.82.92-4.44,3.84-3.8,6.67l-8.4,2.73c-1.65-4.32-5.74-7.44-10.59-7.65v-8.88c2.9-.27,5.17-2.71,5.17-5.67,0-3.14-2.56-5.7-5.7-5.7s-5.7,2.56-5.7,5.7c0,2.96,2.28,5.41,5.17,5.67v8.88c-4.85.21-8.94,3.33-10.59,7.65l-8.4-2.73c.64-2.84-.98-5.76-3.8-6.67-2.99-.97-6.21.67-7.18,3.66-.47,1.45-.35,2.99.34,4.35.69,1.36,1.87,2.36,3.32,2.83.58.19,1.17.28,1.76.28,2.23,0,4.31-1.33,5.22-3.45l8.41,2.73c-.29,1.03-.46,2.11-.46,3.23,0,3.75,1.75,7.1,4.47,9.28l-5.17,7.11c-1.14-.68-2.45-.96-3.79-.75-1.5.24-2.82,1.05-3.72,2.28s-1.26,2.74-1.02,4.24c.24,1.5,1.05,2.82,2.28,3.72.98.72,2.14,1.09,3.34,1.09.3,0,.6-.02.9-.07,1.5-.24,2.82-1.05,3.72-2.28s1.26-2.74,1.02-4.24c-.21-1.33-.89-2.49-1.88-3.37l5.16-7.11c1.89,1.26,4.15,2,6.59,2s4.7-.74,6.59-2l5.16,7.11c-1,.87-1.67,2.04-1.88,3.37-.24,1.5.12,3.01,1.02,4.24s2.22,2.04,3.72,2.28c.3.05.6.07.9.07,1.19,0,2.35-.37,3.34-1.09,1.23-.89,2.04-2.21,2.28-3.72.24-1.5-.12-3.01-1.02-4.24s-2.22-2.04-3.72-2.28c-1.33-.21-2.65.07-3.79.75l-5.17-7.11c2.72-2.18,4.47-5.53,4.47-9.28,0-1.12-.17-2.2-.46-3.23l8.41-2.73c.91,2.12,2.99,3.45,5.22,3.45.58,0,1.17-.09,1.76-.28,1.45-.47,2.63-1.48,3.32-2.83.69-1.36.81-2.9.34-4.35-.97-2.99-4.19-4.63-7.18-3.66ZM13.49,37.16c-1.18-.38-2.14-1.2-2.7-2.31s-.66-2.36-.28-3.54c.64-1.96,2.46-3.21,4.42-3.21.47,0,.96.07,1.43.23,2.44.79,3.77,3.42,2.98,5.85-.79,2.43-3.42,3.77-5.85,2.98ZM29.09,61.49c.19,1.23-.1,2.45-.83,3.46-.73,1-1.81,1.66-3.03,1.86-1.23.19-2.45-.1-3.46-.83-1-.73-1.66-1.81-1.86-3.03-.19-1.23.1-2.45.83-3.46.73-1,1.81-1.66,3.03-1.86.25-.04.49-.06.74-.06.97,0,1.92.31,2.72.89,1,.73,1.66,1.81,1.86,3.03ZM55.49,57.57c.24,0,.49.02.74.06,1.23.19,2.3.85,3.03,1.86.73,1,1.02,2.23.83,3.46-.19,1.23-.85,2.3-1.86,3.03s-2.23,1.02-3.46.83c-1.23-.19-2.3-.85-3.03-1.86-.73-1-1.02-2.23-.83-3.46.19-1.23.85-2.3,1.86-3.03.8-.58,1.75-.89,2.72-.89ZM35.35,14.52c0-2.56,2.08-4.65,4.65-4.65s4.65,2.08,4.65,4.65-2.08,4.65-4.65,4.65-4.65-2.08-4.65-4.65ZM40,51.8c-5.98,0-10.85-4.87-10.85-10.85s4.87-10.85,10.85-10.85,10.85,4.87,10.85,10.85-4.87,10.85-10.85,10.85ZM69.22,34.85c-.56,1.11-1.52,1.93-2.7,2.31-2.44.79-5.06-.55-5.85-2.98-.79-2.44.55-5.06,2.98-5.85.47-.15.96-.23,1.43-.23,1.96,0,3.78,1.25,4.42,3.21.38,1.18.28,2.44-.28,3.54ZM77.91,0H2.09C.94,0,0,.94,0,2.09v75.83c0,1.15.94,2.09,2.09,2.09h75.82c1.15,0,2.09-.94,2.09-2.09V2.09c0-1.15-.94-2.09-2.09-2.09ZM78.95,77.91c0,.57-.46,1.03-1.04,1.03H2.09c-.57,0-1.04-.46-1.04-1.03V2.09c0-.57.46-1.03,1.04-1.03h75.82c.57,0,1.04.46,1.04,1.03v75.83Z"/></svg>