<?xml version="1.0" encoding="UTF-8"?><svg id="modifiers" xmlns="http://www.w3.org/2000/svg" viewBox="0 0 80 80"><defs><style>.cls-1{fill:#fff;}</style></defs><rect class="cls-1" x="7.39" y="26.69" width="13.52" height="1.05"/><path class="cls-1" d="M12.46,33.16l-5.44-5.57c-.1-.1-.15-.23-.15-.37,0-.14.06-.27.16-.37l5.44-5.31.74.75-5.06,4.94,5.07,5.2-.75.73Z"/><rect class="cls-1" x="6.73" y="50.96" width="13.66" height="1.05"/><path class="cls-1" d="M15.33,57.43l-.75-.73,5.07-5.2-5.06-4.94.74-.75,5.44,5.31c.1.1.16.23.16.37,0,.14-.05.27-.15.37l-5.44,5.57Z"/><rect class="cls-1" x="59.44" y="26.56" width="13.52" height="1.05"/><path class="cls-1" d="M67.9,33.03l-.75-.73,5.07-5.2-5.06-4.94.74-.75,5.44,5.31c.1.1.16.23.16.37,0,.14-.05.27-.15.37l-5.44,5.57Z"/><rect class="cls-1" x="59.44" y="50.96" width="14.04" height="1.05"/><path class="cls-1" d="M64.5,57.43l-5.44-5.57c-.1-.1-.15-.23-.15-.37,0-.14.06-.27.16-.37l5.44-5.31.74.75-5.06,4.94,5.07,5.2-.75.73Z"/><path class="cls-1" d="M77.91,80H2.09c-1.15,0-2.09-.94-2.09-2.09V2.09C0,.94.94,0,2.09,0h75.82C79.06,0,80,.94,80,2.09v75.82c0,1.15-.94,2.09-2.09,2.09ZM2.09,1.05c-.57,0-1.04.46-1.04,1.04v75.82c0,.57.46,1.03,1.04,1.03h75.82c.57,0,1.04-.46,1.04-1.03V2.09c0-.57-.46-1.04-1.04-1.04H2.09Z"/><path class="cls-1" d="M40,58.65c-10.62,0-19.26-8.64-19.26-19.26s8.64-19.26,19.26-19.26,19.26,8.64,19.26,19.26-8.64,19.26-19.26,19.26ZM40,21.19c-10.04,0-18.21,8.17-18.21,18.21s8.17,18.21,18.21,18.21,18.21-8.17,18.21-18.21-8.17-18.21-18.21-18.21Z"/><g id="g3015"><g id="path3017"><path class="cls-1" d="M46.33,51.77c-1.26,0-2.46-.32-3.62-.71-2.7-.92-5.73-2.94-8.53-5.69-2.53-2.58-4.44-4.98-5.53-8.33-.72-2.22-1.37-4.8.08-7.35,1.21-2.39,2.66-2.69,4.56-2.86,1.07-.1,1.94,1.53,2.97,3.67.16.34.31.64.42.83,1.22,2.21.02,3.19-1.04,4.05-.28.23-.58.47-.85.75-.11.09-.13.21-.13.29-.05.89,1.08,3.01,3.26,5.19s4.26,3.3,5.19,3.26c.09,0,.2-.02.25-.09.29-.27.52-.54.76-.83.78-.92,1.85-2.19,3.62-1.43,3.42,1.47,5.1,2.72,4.98,3.72-.18,1.91-.49,3.35-2.88,4.56-1.21.69-2.38.95-3.5.95ZM33.38,27.88c-1.85.16-2.76.43-3.72,2.31-1.13,1.98-.84,3.96,0,6.52,1.03,3.16,2.78,5.37,5.28,7.91,2.69,2.64,5.57,4.57,8.12,5.44,2.25.77,4.19,1.03,6.28-.16,1.89-.96,2.16-1.88,2.33-3.74,0,0,0,0,0,0-.1-.41-1.78-1.54-4.35-2.64-1-.43-1.56.15-2.4,1.14-.26.3-.52.62-.81.87-.1.14-.41.38-.95.42-1.39.07-3.78-1.35-5.99-3.56-2.21-2.21-3.64-4.61-3.56-5.99.03-.54.28-.85.48-1.01.26-.27.58-.54.89-.79,1.05-.86,1.58-1.29.78-2.73-.12-.21-.27-.52-.44-.89-.36-.74-1.44-2.99-1.94-3.08ZM51.67,46.15h0ZM51.67,46.13h0s0,0,0,0Z"/></g></g></svg>