<?xml version="1.0" encoding="UTF-8"?><svg id="device" xmlns="http://www.w3.org/2000/svg" viewBox="0 0 80 80"><defs><style>.cls-1{fill:#fff;}</style></defs><g id="Layer_4"><path class="cls-1" d="M79.64.58c0-.3-.28-.58-.58-.58h-12.25s-.06.02-.1.02c-.03,0-.06-.02-.09-.02h-13.07s-.03,0-.04,0c-.01,0-.03,0-.04,0h-13.07s-.03,0-.04,0c-.01,0-.03,0-.04,0h-13.07s-.03,0-.04,0c-.01,0-.03,0-.04,0h-13.07s-.03,0-.04,0c-.01,0-.03,0-.04,0H.95C.65,0,.36.29.36.59v2.72s0,.03,0,.04c0,.01,0,.03,0,.04v73.34s0,.03,0,.04c0,.01,0,.03,0,.04v2.59c0,.3.28.58.58.58h13.07s.03,0,.04,0c.01,0,.03,0,.04,0h13.07s.03,0,.04,0c.01,0,.03,0,.04,0h13.07s.03,0,.04,0c.01,0,.03,0,.04,0h13.07s.03,0,.04,0c.01,0,.03,0,.04,0h13.07s.06-.02.1-.02c.03,0,.06.02.09.02h12.25c.3,0,.58-.28.58-.58v-2.59s0-.03,0-.04c0-.01,0-.03,0-.04V3.39s0-.03,0-.04c0-.01,0-.03,0-.04V.58ZM1.45,3.9h12.06v72.34H1.45V3.9ZM14.6,3.9h12.06v72.34h-12.06V3.9ZM27.75,3.9h12.06v72.34h-12.06V3.9ZM40.9,3.9h12.06v72.34h-12.06V3.9ZM54.06,3.9h12.06v72.34h-12.06V3.9ZM67.31,3.9h11.24v72.34h-11.24V3.9ZM67.31,1.09h11.24v1.72h-11.24v-1.72ZM66.12,2.81h-12.06v-1.72h12.06v1.72ZM52.97,2.81h-12.06v-1.72h12.06v1.72ZM39.82,2.81h-12.06v-1.72h12.06v1.72ZM26.66,2.81h-12.06v-1.72h12.06v1.72ZM1.45,1.09h12.06v1.72H1.45v-1.72ZM1.45,77.33h12.06v1.58H1.45v-1.58ZM14.6,77.33h12.06v1.58h-12.06v-1.58ZM27.75,77.33h12.06v1.58h-12.06v-1.58ZM40.9,77.33h12.06v1.58h-12.06v-1.58ZM66.12,78.91h-12.06v-1.58h12.06v1.58ZM78.55,78.91h-11.24v-1.58h11.24v1.58ZM75.96,61.61h-6.48c-.3,0-.59.29-.59.59v9.33c0,.3.29.59.59.59h6.48c.3,0,.59-.29.59-.59v-9.33c0-.3-.29-.59-.59-.59ZM75.47,71.04h-5.49v-8.34h5.49v8.34ZM75.96,48.09h-6.48c-.3,0-.59.29-.59.59v9.33c0,.3.29.59.59.59h6.48c.3,0,.59-.29.59-.59v-9.33c0-.3-.29-.59-.59-.59ZM75.47,57.52h-5.49v-8.34h5.49v8.34ZM75.96,34.74h-6.48c-.3,0-.59.29-.59.59v9.33c0,.3.29.59.59.59h6.48c.3,0,.59-.29.59-.59v-9.33c0-.3-.29-.59-.59-.59ZM75.47,44.17h-5.49v-8.34h5.49v8.34ZM75.96,21.38h-6.48c-.3,0-.59.29-.59.59v9.33c0,.3.29.59.59.59h6.48c.3,0,.59-.29.59-.59v-9.33c0-.3-.29-.59-.59-.59ZM75.47,30.81h-5.49v-8.34h5.49v8.34ZM69.44,18.58h6.48c.3,0,.59-.29.59-.59v-9.33c0-.3-.29-.59-.59-.59h-6.48c-.3,0-.59.29-.59.59v9.33c0,.3.29.59.59.59ZM69.94,9.15h5.49v8.34h-5.49v-8.34ZM8.39,65.59v7.52c0,.25-.2.45-.45.45h-1.54c-.25,0-.45-.2-.45-.45v-7.52c0-.25.2-.45.45-.45h1.54c.25,0,.45.2.45.45ZM8.39,60.92v2.46c0,.25-.2.45-.45.45h-1.54c-.25,0-.45-.2-.45-.45v-2.46c0-.25.2-.45.45-.45h1.54c.25,0,.45.2.45.45ZM8.39,48.18v7.52c0,.25-.2.45-.45.45h-1.54c-.25,0-.45-.2-.45-.45v-7.52c0-.25.2-.45.45-.45h1.54c.25,0,.45.2.45.45ZM8.39,43.52v2.46c0,.25-.2.45-.45.45h-1.54c-.25,0-.45-.2-.45-.45v-2.46c0-.25.2-.45.45-.45h1.54c.25,0,.45.2.45.45ZM8.39,30.78v7.52c0,.25-.2.45-.45.45h-1.54c-.25,0-.45-.2-.45-.45v-7.52c0-.25.2-.45.45-.45h1.54c.25,0,.45.2.45.45ZM8.39,26.11v2.46c0,.25-.2.45-.45.45h-1.54c-.25,0-.45-.2-.45-.45v-2.46c0-.25.2-.45.45-.45h1.54c.25,0,.45.2.45.45ZM8.39,13.37v7.52c0,.25-.2.45-.45.45h-1.54c-.25,0-.45-.2-.45-.45v-7.52c0-.25.2-.45.45-.45h1.54c.25,0,.45.2.45.45ZM8.39,8.71v2.46c0,.25-.2.45-.45.45h-1.54c-.25,0-.45-.2-.45-.45v-2.46c0-.25.2-.45.45-.45h1.54c.25,0,.45.2.45.45ZM21.67,65.59v7.52c0,.25-.2.45-.45.45h-1.54c-.25,0-.45-.2-.45-.45v-7.52c0-.25.2-.45.45-.45h1.54c.25,0,.45.2.45.45ZM21.67,60.92v2.46c0,.25-.2.45-.45.45h-1.54c-.25,0-.45-.2-.45-.45v-2.46c0-.25.2-.45.45-.45h1.54c.25,0,.45.2.45.45ZM21.67,48.18v7.52c0,.25-.2.45-.45.45h-1.54c-.25,0-.45-.2-.45-.45v-7.52c0-.25.2-.45.45-.45h1.54c.25,0,.45.2.45.45ZM21.67,43.52v2.46c0,.25-.2.45-.45.45h-1.54c-.25,0-.45-.2-.45-.45v-2.46c0-.25.2-.45.45-.45h1.54c.25,0,.45.2.45.45ZM21.67,30.78v7.52c0,.25-.2.45-.45.45h-1.54c-.25,0-.45-.2-.45-.45v-7.52c0-.25.2-.45.45-.45h1.54c.25,0,.45.2.45.45ZM21.67,26.11v2.46c0,.25-.2.45-.45.45h-1.54c-.25,0-.45-.2-.45-.45v-2.46c0-.25.2-.45.45-.45h1.54c.25,0,.45.2.45.45ZM21.67,13.37v7.52c0,.25-.2.45-.45.45h-1.54c-.25,0-.45-.2-.45-.45v-7.52c0-.25.2-.45.45-.45h1.54c.25,0,.45.2.45.45ZM21.67,8.71v2.46c0,.25-.2.45-.45.45h-1.54c-.25,0-.45-.2-.45-.45v-2.46c0-.25.2-.45.45-.45h1.54c.25,0,.45.2.45.45ZM34.94,65.59v7.52c0,.25-.2.45-.45.45h-1.54c-.25,0-.45-.2-.45-.45v-7.52c0-.25.2-.45.45-.45h1.54c.25,0,.45.2.45.45ZM34.94,60.92v2.46c0,.25-.2.45-.45.45h-1.54c-.25,0-.45-.2-.45-.45v-2.46c0-.25.2-.45.45-.45h1.54c.25,0,.45.2.45.45ZM34.94,48.18v7.52c0,.25-.2.45-.45.45h-1.54c-.25,0-.45-.2-.45-.45v-7.52c0-.25.2-.45.45-.45h1.54c.25,0,.45.2.45.45ZM34.94,43.52v2.46c0,.25-.2.45-.45.45h-1.54c-.25,0-.45-.2-.45-.45v-2.46c0-.25.2-.45.45-.45h1.54c.25,0,.45.2.45.45ZM34.94,30.78v7.52c0,.25-.2.45-.45.45h-1.54c-.25,0-.45-.2-.45-.45v-7.52c0-.25.2-.45.45-.45h1.54c.25,0,.45.2.45.45ZM34.94,26.11v2.46c0,.25-.2.45-.45.45h-1.54c-.25,0-.45-.2-.45-.45v-2.46c0-.25.2-.45.45-.45h1.54c.25,0,.45.2.45.45ZM34.94,13.37v7.52c0,.25-.2.45-.45.45h-1.54c-.25,0-.45-.2-.45-.45v-7.52c0-.25.2-.45.45-.45h1.54c.25,0,.45.2.45.45ZM34.94,8.71v2.46c0,.25-.2.45-.45.45h-1.54c-.25,0-.45-.2-.45-.45v-2.46c0-.25.2-.45.45-.45h1.54c.25,0,.45.2.45.45ZM48.22,65.59v7.52c0,.25-.2.45-.45.45h-1.54c-.25,0-.45-.2-.45-.45v-7.52c0-.25.2-.45.45-.45h1.54c.25,0,.45.2.45.45ZM48.22,60.92v2.46c0,.25-.2.45-.45.45h-1.54c-.25,0-.45-.2-.45-.45v-2.46c0-.25.2-.45.45-.45h1.54c.25,0,.45.2.45.45ZM48.22,48.18v7.52c0,.25-.2.45-.45.45h-1.54c-.25,0-.45-.2-.45-.45v-7.52c0-.25.2-.45.45-.45h1.54c.25,0,.45.2.45.45ZM48.22,43.52v2.46c0,.25-.2.45-.45.45h-1.54c-.25,0-.45-.2-.45-.45v-2.46c0-.25.2-.45.45-.45h1.54c.25,0,.45.2.45.45ZM48.22,30.78v7.52c0,.25-.2.45-.45.45h-1.54c-.25,0-.45-.2-.45-.45v-7.52c0-.25.2-.45.45-.45h1.54c.25,0,.45.2.45.45ZM48.22,26.11v2.46c0,.25-.2.45-.45.45h-1.54c-.25,0-.45-.2-.45-.45v-2.46c0-.25.2-.45.45-.45h1.54c.25,0,.45.2.45.45ZM48.22,13.37v7.52c0,.25-.2.45-.45.45h-1.54c-.25,0-.45-.2-.45-.45v-7.52c0-.25.2-.45.45-.45h1.54c.25,0,.45.2.45.45ZM48.22,8.71v2.46c0,.25-.2.45-.45.45h-1.54c-.25,0-.45-.2-.45-.45v-2.46c0-.25.2-.45.45-.45h1.54c.25,0,.45.2.45.45ZM61.5,65.59v7.52c0,.25-.2.45-.45.45h-1.54c-.25,0-.45-.2-.45-.45v-7.52c0-.25.2-.45.45-.45h1.54c.25,0,.45.2.45.45ZM61.5,60.92v2.46c0,.25-.2.45-.45.45h-1.54c-.25,0-.45-.2-.45-.45v-2.46c0-.25.2-.45.45-.45h1.54c.25,0,.45.2.45.45ZM61.5,48.18v7.52c0,.25-.2.45-.45.45h-1.54c-.25,0-.45-.2-.45-.45v-7.52c0-.25.2-.45.45-.45h1.54c.25,0,.45.2.45.45ZM61.5,43.52v2.46c0,.25-.2.45-.45.45h-1.54c-.25,0-.45-.2-.45-.45v-2.46c0-.25.2-.45.45-.45h1.54c.25,0,.45.2.45.45ZM61.5,30.78v7.52c0,.25-.2.45-.45.45h-1.54c-.25,0-.45-.2-.45-.45v-7.52c0-.25.2-.45.45-.45h1.54c.25,0,.45.2.45.45ZM61.5,26.11v2.46c0,.25-.2.45-.45.45h-1.54c-.25,0-.45-.2-.45-.45v-2.46c0-.25.2-.45.45-.45h1.54c.25,0,.45.2.45.45ZM61.5,13.37v7.52c0,.25-.2.45-.45.45h-1.54c-.25,0-.45-.2-.45-.45v-7.52c0-.25.2-.45.45-.45h1.54c.25,0,.45.2.45.45ZM61.5,8.71v2.46c0,.25-.2.45-.45.45h-1.54c-.25,0-.45-.2-.45-.45v-2.46c0-.25.2-.45.45-.45h1.54c.25,0,.45.2.45.45Z"/></g></svg>