<?xml version="1.0" encoding="UTF-8"?><svg id="device" xmlns="http://www.w3.org/2000/svg" viewBox="0 0 80 80"><defs><style>.cls-1{fill:#fff;}</style></defs><g id="Layer_4"><path class="cls-1" d="M79.28,32.88h-2.44s-.08.02-.12.02c-.03,0-.07-.02-.1-.02h-.7c-1.9-2.02-4.58-3.29-7.57-3.29s-5.67,1.27-7.57,3.29H3.25s-.02,0-.04,0c-.01,0-.02,0-.04,0H.58C.28,32.88,0,33.16,0,33.46v13.08c0,.3.28.58.58.58h2.6s.02,0,.04,0c.01,0,.02,0,.04,0h57.53c1.9,2.02,4.58,3.29,7.57,3.29s5.67-1.27,7.57-3.29h.7s.07-.02.1-.02c.04,0,.08.02.12.02h2.44c.4,0,.72-.32.72-.72v-12.79c0-.4-.32-.72-.72-.72ZM2.67,46.04h-1.59v-12.08h1.59v12.08ZM3.75,46.04v-12.08h56.14c-1.22,1.7-1.95,3.79-1.95,6.04s.73,4.33,1.95,6.04H3.75ZM68.35,49.32c-5.14,0-9.32-4.18-9.32-9.32s4.18-9.32,9.32-9.32,9.32,4.18,9.32,9.32-4.18,9.32-9.32,9.32ZM78.92,46.04h-1.73v-.59c.98-1.59,1.56-3.45,1.56-5.45s-.58-3.86-1.56-5.45v-.59h1.73v12.08ZM8.7,36.41s.06.03.06.06v2.48s-.03.06-.06.06h-2.75s-.06-.03-.06-.06v-2.48s.03-.06.06-.06h.66v-.69h1.44v.69h.66ZM17.43,36.41s.06.03.06.06v2.48s-.03.06-.06.06h-2.75s-.06-.03-.06-.06v-2.48s.03-.06.06-.06h.66v-.69h1.44v.69h.66ZM26.15,36.41s.06.03.06.06v2.48s-.03.06-.06.06h-2.75s-.06-.03-.06-.06v-2.48s.03-.06.06-.06h.66v-.69h1.44v.69h.66ZM34.87,36.41s.06.03.06.06v2.48s-.03.06-.06.06h-2.75s-.06-.03-.06-.06v-2.48s.03-.06.06-.06h.66v-.69h1.44v.69h.66ZM34.87,40.99s.06.03.06.06v2.48s-.03.06-.06.06h-.66v.69h-1.44v-.69h-.66s-.06-.03-.06-.06v-2.48s.03-.06.06-.06h2.75ZM26.15,40.99s.06.03.06.06v2.48s-.03.06-.06.06h-.66v.69h-1.44v-.69h-.66s-.06-.03-.06-.06v-2.48s.03-.06.06-.06h2.75ZM17.43,40.99s.06.03.06.06v2.48s-.03.06-.06.06h-.66v.69h-1.44v-.69h-.66s-.06-.03-.06-.06v-2.48s.03-.06.06-.06h2.75ZM8.7,40.99s.06.03.06.06v2.48s-.03.06-.06.06h-.66v.69h-1.44v-.69h-.66s-.06-.03-.06-.06v-2.48s.03-.06.06-.06h2.75Z"/></g></svg>