<?xml version="1.0" encoding="UTF-8"?><svg id="modifiers" xmlns="http://www.w3.org/2000/svg" viewBox="0 0 80 80"><defs><style>.cls-1{fill:#07182d;}</style></defs><path class="cls-1" d="M74.09,7.38l-2.19-.03.91-3.07c.06-.21.02-.44-.11-.62,0,0,0,0,0,0-.13-.18-.35-.29-.57-.29h-3.91c-.31,0-.58.2-.67.49l-1.96,5.96c-.07.22-.03.45.09.63.13.19.35.3.58.3h2.27l-1.01,5.11c-.07.33.1.65.39.78.07.03.22.07.3.07.22,0,.43-.11.57-.29l5.87-7.91c.16-.21.19-.5.07-.73-.12-.24-.36-.4-.63-.4ZM68.85,14.57l.78-3.98c.04-.22-.01-.45-.16-.62-.14-.17-.35-.27-.58-.27h-2.17l1.73-5.27h3.2l-.89,3.02c-.07.23-.03.47.12.66.14.19.35.3.59.3l1.93.02-4.56,6.14ZM77.91,0H2.09C.94,0,0,.94,0,2.09v75.83c0,1.15.94,2.09,2.09,2.09h75.83c1.15,0,2.09-.94,2.09-2.09V2.09c0-1.15-.94-2.09-2.09-2.09ZM78.95,77.91c0,.57-.46,1.03-1.03,1.03H2.09c-.57,0-1.03-.46-1.03-1.03V2.09c0-.57.46-1.03,1.03-1.03h75.83c.57,0,1.03.46,1.03,1.03v75.83ZM20.29,40.64l.75-.73-4.57-4.68h23.84v-1.05h-23.8l4.51-4.41-.73-.75-5.44,5.31c-.1.1-.16.23-.16.37,0,.14.05.27.15.37l5.44,5.57ZM21.04,46.21l-.73-.75-5.44,5.31c-.1.1-.16.23-.16.37,0,.14.05.27.15.37l5.44,5.57.75-.73-4.57-4.68h23.84v-1.05h-23.8l4.51-4.41ZM59.75,22.92l-.73.75,4.51,4.41h-23.8v1.05h23.84l-4.57,4.68.75.73,5.44-5.57c.1-.1.15-.23.15-.37,0-.14-.06-.27-.16-.37l-5.44-5.31ZM59.75,39.36l-.73.75,4.51,4.41h-23.8v1.05h23.84l-4.57,4.68.75.73,5.44-5.57c.1-.1.15-.23.15-.37,0-.14-.06-.27-.16-.37l-5.44-5.31Z"/></svg>