<?xml version="1.0" encoding="UTF-8"?><svg id="device" xmlns="http://www.w3.org/2000/svg" viewBox="0 0 80 80"><defs><style>.cls-1{fill:#fff;}</style></defs><g id="Layer_4"><path class="cls-1" d="M15.91,37.14v1.34c0,.24-.19.43-.43.43h-7.49c-.24,0-.43-.19-.43-.43v-1.34c0-.24.19-.43.43-.43h7.49c.24,0,.43.19.43.43ZM20.1,36.71h-2.48c-.24,0-.43.19-.43.43v1.34c0,.24.19.43.43.43h2.48c.24,0,.43-.19.43-.43v-1.34c0-.24-.19-.43-.43-.43ZM32.72,36.71h-7.49c-.24,0-.43.19-.43.43v1.34c0,.24.19.43.43.43h7.49c.24,0,.43-.19.43-.43v-1.34c0-.24-.19-.43-.43-.43ZM37.35,36.71h-2.48c-.24,0-.43.19-.43.43v1.34c0,.24.19.43.43.43h2.48c.24,0,.43-.19.43-.43v-1.34c0-.24-.19-.43-.43-.43ZM49.97,36.71h-7.49c-.24,0-.43.19-.43.43v1.34c0,.24.19.43.43.43h7.49c.24,0,.43-.19.43-.43v-1.34c0-.24-.19-.43-.43-.43ZM15.48,41.1h-7.49c-.24,0-.43.19-.43.43v1.34c0,.24.19.43.43.43h7.49c.24,0,.43-.19.43-.43v-1.34c0-.24-.19-.43-.43-.43ZM20.1,41.1h-2.48c-.24,0-.43.19-.43.43v1.34c0,.24.19.43.43.43h2.48c.24,0,.43-.19.43-.43v-1.34c0-.24-.19-.43-.43-.43ZM32.72,41.1h-7.49c-.24,0-.43.19-.43.43v1.34c0,.24.19.43.43.43h7.49c.24,0,.43-.19.43-.43v-1.34c0-.24-.19-.43-.43-.43ZM37.35,41.1h-2.48c-.24,0-.43.19-.43.43v1.34c0,.24.19.43.43.43h2.48c.24,0,.43-.19.43-.43v-1.34c0-.24-.19-.43-.43-.43ZM49.97,41.1h-7.49c-.24,0-.43.19-.43.43v1.34c0,.24.19.43.43.43h7.49c.24,0,.43-.19.43-.43v-1.34c0-.24-.19-.43-.43-.43ZM80,33.46v13.07c0,.3-.28.58-.58.58h-.71v.64c0,.55-.45,1-1,1h-22.61c-.55,0-1-.45-1-1v-.64H3.25s-.03,0-.04,0c-.01,0-.03,0-.04,0H.58c-.3,0-.58-.28-.58-.58v-13.07c0-.3.28-.58.58-.58h2.59s.03,0,.04,0c.01,0,.03,0,.04,0h50.85v-.64c0-.55.45-1,1-1h22.61c.55,0,1,.45,1,1v.64h.71c.3,0,.58.28.58.58ZM1.08,46.04h1.59v-12.07h-1.59v12.07ZM54.03,46.04v-2.75h-1.94c-.22,0-.4-.18-.4-.4v-1.39c0-.22.18-.4.4-.4h1.94v-2.19h-1.94c-.22,0-.4-.18-.4-.4v-1.39c0-.22.18-.4.4-.4h1.94v-2.75H3.75v12.07h50.28ZM77.63,46.58v-14.26h-22.53v15.36h22.53v-1.11ZM78.92,33.96h-.21v12.07h.21v-12.07Z"/></g></svg>