<?xml version="1.0" encoding="UTF-8"?><svg id="device" xmlns="http://www.w3.org/2000/svg" viewBox="0 0 80 80"><defs><style>.cls-1{fill:#07182d;}</style></defs><g id="Layer_4"><path class="cls-1" d="M32.48,23.82h-2.9v1.03h2.9v-1.03ZM49.89,23.82h-2.9v1.03h2.9v-1.03ZM44.08,23.82h-2.9v1.03h2.9v-1.03ZM38.28,23.82h-2.9v1.03h2.9v-1.03ZM26.68,23.82h-2.9v1.03h2.9v-1.03ZM9.27,23.82h-2.9v1.03h2.9v-1.03ZM20.88,23.82h-2.9v1.03h2.9v-1.03ZM15.08,23.82h-2.9v1.03h2.9v-1.03ZM78.97,41.18h1.03v-2.9h-1.03v2.9ZM78.97,52.78h1.03v-2.9h-1.03v2.9ZM78.97,46.98h1.03v-2.9h-1.03v2.9ZM73.09,23.82h-2.9v1.03h2.9v-1.03ZM67.29,23.82h-2.9v1.03h2.9v-1.03ZM78.89,23.82h-2.9v1.03h2.9v-1.03ZM61.49,23.82h-2.9v1.03h2.9v-1.03ZM55.69,23.82h-2.9v1.03h2.9v-1.03ZM47.51,56.18h2.9v-1.03h-2.9v1.03ZM53.32,56.18h2.9v-1.03h-2.9v1.03ZM35.91,56.18h2.9v-1.03h-2.9v1.03ZM41.71,56.18h2.9v-1.03h-2.9v1.03ZM30.11,56.18h2.9v-1.03h-2.9v1.03ZM59.12,56.18h2.9v-1.03h-2.9v1.03ZM70.72,56.18h2.9v-1.03h-2.9v1.03ZM78.97,26.68v2.9h1.03v-2.9h-1.03ZM64.92,56.18h2.9v-1.03h-2.9v1.03ZM24.31,56.18h2.9v-1.03h-2.9v1.03ZM0,47.52h1.03v-2.9H0v2.9ZM0,35.91h1.03v-2.9H0v2.9ZM18.51,56.18h2.9v-1.03h-2.9v1.03ZM0,41.72h1.03v-2.9H0v2.9ZM0,30.11h1.03v-2.9H0v2.9ZM0,53.32h1.03v-2.9H0v2.9ZM78.97,35.38h1.03v-2.9h-1.03v2.9ZM12.71,56.18h2.9v-1.03h-2.9v1.03ZM6.9,56.18h2.9v-1.03h-2.9v1.03ZM1.1,56.18h2.9v-1.03H1.1v1.03ZM76.63,40.16c0-.06-.02-.11-.03-.16.01-.05.03-.11.03-.16v-11.7c0-.38-.31-.69-.69-.69h-.69v-.55c0-.53-.43-.96-.96-.96h-21.68c-.53,0-.96.43-.96.96v.55H6.37s-.02,0-.04,0c-.01,0-.02,0-.04,0h-2.38c-.29,0-.55.27-.55.55v11.97s0,.02,0,.03c0,0,0,.02,0,.03v11.97c0,.29.26.55.55.55h2.38s.02,0,.04,0c.01,0,.02,0,.04,0h67.13s.07-.01.1-.02c.04,0,.07.02.11.02h2.23c.38,0,.69-.31.69-.69v-11.7ZM52.61,26.97h21.6v14.73h-21.6v-14.73ZM6.87,39.48c.07-2.25.43-3.68,1.07-4.26.37-.33.83-.36,1.33-.32v.79s.03.06.06.06h2.52s.06-.03.06-.06v-2.64s-.03-.06-.06-.06h-.6v-.25h-1.32v.25h-.6s-.06.03-.06.06v.82c-.66-.04-1.39.01-2.03.59-.14.13-.27.28-.39.45v-6.42h44.79v10.99H6.87ZM4.41,28.49h1.41v10.99h-1.41v-10.99ZM5.82,51.51h-1.41v-10.99h1.41v10.99ZM6.85,46.36c.11.16.23.3.37.42.46.41.99.51,1.49.51.19,0,.37-.03.55-.05v.59s.03.06.06.06h.6v.25h1.32v-.25h.6s.06-.03.06-.06v-2.64s-.03-.06-.06-.06h-2.52s-.06.03-.06.06v1.03c-.6.07-1.02.08-1.35-.21-.68-.6-1.04-2.45-1.05-5.48h44.79v1.25c0,.53.43.96.96.96h20.41v8.77H6.85v-5.15ZM75.59,51.51h-1.54v-8.77h.23c.53,0,.96-.43.96-.96v-1.25h.35v10.99ZM75.25,39.48v-10.99h.35v10.99h-.35ZM16.03,32.98v-.25h-1.32v.25h-.6s-.06.03-.06.06v2.64s.03.06.06.06h2.52s.06-.03.06-.06v-2.64s-.03-.06-.06-.06h-.6ZM20.82,32.98v-.25h-1.32v.25h-.6s-.06.03-.06.06v2.64s.03.06.06.06h2.52s.06-.03.06-.06v-2.64s-.03-.06-.06-.06h-.6ZM25.61,32.98v-.25h-1.32v.25h-.6s-.06.03-.06.06v2.64s.03.06.06.06h2.52s.06-.03.06-.06v-2.64s-.03-.06-.06-.06h-.6ZM30.4,32.98v-.25h-1.32v.25h-.6s-.06.03-.06.06v2.64s.03.06.06.06h2.52s.06-.03.06-.06v-2.64s-.03-.06-.06-.06h-.6ZM35.19,32.98v-.25h-1.32v.25h-.6s-.06.03-.06.06v2.64s.03.06.06.06h2.52s.06-.03.06-.06v-2.64s-.03-.06-.06-.06h-.6ZM39.98,32.98v-.25h-1.32v.25h-.6s-.06.03-.06.06v2.64s.03.06.06.06h2.52s.06-.03.06-.06v-2.64s-.03-.06-.06-.06h-.6ZM44.77,32.98v-.25h-1.32v.25h-.6s-.06.03-.06.06v2.64s.03.06.06.06h2.52s.06-.03.06-.06v-2.64s-.03-.06-.06-.06h-.6ZM49.56,32.98v-.25h-1.32v.25h-.6s-.06.03-.06.06v2.64s.03.06.06.06h2.52s.06-.03.06-.06v-2.64s-.03-.06-.06-.06h-.6ZM61.99,45.13s-.06.03-.06.06v2.64s.03.06.06.06h.6v.25h1.32v-.25h.6s.06-.03.06-.06v-2.64s-.03-.06-.06-.06h-2.52ZM57.2,45.13s-.06.03-.06.06v2.64s.03.06.06.06h.6v.25h1.32v-.25h.6s.06-.03.06-.06v-2.64s-.03-.06-.06-.06h-2.52ZM52.41,45.13s-.06.03-.06.06v2.64s.03.06.06.06h.6v.25h1.32v-.25h.6s.06-.03.06-.06v-2.64s-.03-.06-.06-.06h-2.52ZM47.62,45.13s-.06.03-.06.06v2.64s.03.06.06.06h.6v.25h1.32v-.25h.6s.06-.03.06-.06v-2.64s-.03-.06-.06-.06h-2.52ZM42.83,45.13s-.06.03-.06.06v2.64s.03.06.06.06h.6v.25h1.32v-.25h.6s.06-.03.06-.06v-2.64s-.03-.06-.06-.06h-2.52ZM38.04,45.13s-.06.03-.06.06v2.64s.03.06.06.06h.6v.25h1.32v-.25h.6s.06-.03.06-.06v-2.64s-.03-.06-.06-.06h-2.52ZM33.25,45.13s-.06.03-.06.06v2.64s.03.06.06.06h.6v.25h1.32v-.25h.6s.06-.03.06-.06v-2.64s-.03-.06-.06-.06h-2.52ZM28.46,45.13s-.06.03-.06.06v2.64s.03.06.06.06h.6v.25h1.32v-.25h.6s.06-.03.06-.06v-2.64s-.03-.06-.06-.06h-2.52ZM23.68,45.13s-.06.03-.06.06v2.64s.03.06.06.06h.6v.25h1.32v-.25h.6s.06-.03.06-.06v-2.64s-.03-.06-.06-.06h-2.52ZM18.89,45.13s-.06.03-.06.06v2.64s.03.06.06.06h.6v.25h1.32v-.25h.6s.06-.03.06-.06v-2.64s-.03-.06-.06-.06h-2.52ZM14.1,45.13s-.06.03-.06.06v2.64s.03.06.06.06h.6v.25h1.32v-.25h.6s.06-.03.06-.06v-2.64s-.03-.06-.06-.06h-2.52ZM76.53,55.14h0v1.03h2.91s.08,0,.08,0v-1.04h-2.98ZM3.47,24.86h0v-1.03H.57s0,0,0,0h-.23v1.04h3.13Z"/></g></svg>