<?xml version="1.0" encoding="UTF-8"?><svg id="modifiers" xmlns="http://www.w3.org/2000/svg" viewBox="0 0 80 80"><defs><style>.cls-1{fill:#fff;}</style></defs><path class="cls-1" d="M61.5,41.71c-1.09,1.09-2.53,1.69-4.07,1.69s-2.98-.6-4.07-1.69l-1.34-1.34c.05-.19.1-.39.14-.58h.01s0-.02,0-.02c.29-1.19.45-2.41.45-3.66,0-4.11-1.6-7.98-4.51-10.89-2.91-2.91-6.78-4.51-10.89-4.51s-7.98,1.6-10.89,4.51c-2.91,2.91-4.51,6.78-4.51,10.89,0,.88.09,1.74.23,2.59H6.89v1.05h15.37c.66,2.72,2.03,5.22,4.06,7.25,2.91,2.91,6.78,4.51,10.89,4.51s7.65-1.48,10.51-4.17l12.45,12.21.74-.75-12.44-12.2c1.4-1.5,2.47-3.24,3.17-5.12l.97.97c1.29,1.29,3,2,4.82,2s3.53-.71,4.82-2c1.09-1.09,2.53-1.69,4.07-1.69h6.22v-1.05h-6.22c-1.82,0-3.53.71-4.82,1.99ZM27.07,25.97c2.71-2.71,6.31-4.2,10.15-4.2s7.44,1.49,10.15,4.2c2.71,2.71,4.2,6.31,4.2,10.15,0,.95-.09,1.88-.27,2.79l-8.75-8.75c-1.39-1.39-3.23-2.15-5.19-2.15s-3.8.76-5.19,2.15l-6.49,6.49c-.73.73-1.66,1.21-2.67,1.42-.09-.64-.15-1.29-.15-1.94,0-3.83,1.49-7.44,4.2-10.15ZM37.22,50.46c-3.83,0-7.44-1.49-10.15-4.2-1.74-1.74-2.97-3.85-3.63-6.15,1.42-.29,2.71-.96,3.73-1.98l6.49-6.49c.99-.99,2.3-1.53,3.7-1.53s2.71.54,3.7,1.53l9.57,9.57c-.71,1.87-1.8,3.59-3.26,5.05-2.71,2.71-6.31,4.2-10.15,4.2ZM77.91.05H2.09C.94.05,0,.99,0,2.14v75.83c0,1.15.94,2.09,2.09,2.09h75.83c1.15,0,2.09-.94,2.09-2.09V2.14c0-1.15-.94-2.09-2.09-2.09ZM78.95,77.97c0,.57-.46,1.03-1.03,1.03H2.09c-.57,0-1.03-.46-1.03-1.03V2.14c0-.57.46-1.04,1.03-1.04h75.83c.57,0,1.03.46,1.03,1.04v75.83Z"/></svg>