<?xml version="1.0" encoding="UTF-8"?><svg id="modifiers" xmlns="http://www.w3.org/2000/svg" viewBox="0 0 80 80"><defs><style>.cls-1{fill:#fff;}</style></defs><path class="cls-1" d="M40,0C17.94,0,0,17.94,0,40s17.94,40,40,40,40-17.94,40-40S62.06,0,40,0ZM40,78.95C18.52,78.95,1.05,61.48,1.05,40S18.52,1.05,40,1.05s38.95,17.47,38.95,38.95-17.47,38.95-38.95,38.95ZM71.15,34.85h-7.57c-2.4-10.96-12.18-18.88-23.46-18.88s-21.06,7.92-23.46,18.88h-7.81c-.63,0-1.14.51-1.14,1.14v8.02c0,.63.51,1.14,1.14,1.14h7.81c2.4,10.96,12.18,18.88,23.46,18.88s21.06-7.92,23.46-18.88h7.57c.63,0,1.14-.51,1.14-1.14v-8.02c0-.63-.51-1.14-1.14-1.14ZM8.76,44.01v-8.02s.04-.09.09-.09h17.27c.05,0,.09.04.09.09v8.02s-.04.09-.09.09H8.85c-.05,0-.09-.04-.09-.09ZM40.12,62.98c-10.7,0-20-7.46-22.38-17.83h8.38c.63,0,1.14-.51,1.14-1.14v-8.02c0-.63-.51-1.14-1.14-1.14h-8.38c2.38-10.36,11.67-17.83,22.38-17.83s20,7.46,22.38,17.83h-8.62c-.63,0-1.14.51-1.14,1.14v8.02c0,.63.51,1.14,1.14,1.14h8.62c-2.38,10.36-11.67,17.83-22.38,17.83ZM71.24,44.01s-.04.09-.09.09h-17.27c-.05,0-.09-.04-.09-.09v-8.02s.04-.09.09-.09h17.27c.05,0,.09.04.09.09v8.02Z"/></svg>