<?xml version="1.0" encoding="UTF-8"?><svg id="modifiers" xmlns="http://www.w3.org/2000/svg" viewBox="0 0 80 80"><defs><style>.cls-1{fill:#07182d;}</style></defs><path class="cls-1" d="M77.91,0H2.09C.94,0,0,.94,0,2.09v75.82c0,1.15.94,2.09,2.09,2.09h75.82c1.15,0,2.09-.94,2.09-2.09V2.09c0-1.15-.94-2.09-2.09-2.09ZM78.95,77.91c0,.57-.46,1.04-1.04,1.04H2.09c-.57,0-1.04-.46-1.04-1.04V2.09c0-.57.46-1.04,1.04-1.04h75.82c.57,0,1.04.46,1.04,1.04v75.82ZM64.15,13.41c2.8,2.8,4.39,6.53,4.48,10.49l-1.05.02c-.08-3.69-1.56-7.16-4.17-9.77-2.62-2.62-6.1-4.1-9.81-4.17l.02-1.05c3.98.08,7.72,1.67,10.53,4.48ZM60.42,17.15c1.64,1.64,2.67,3.82,2.89,6.13l-1.05.1c-.2-2.07-1.12-4.02-2.59-5.49s-3.43-2.4-5.5-2.59l.1-1.05c2.32.22,4.5,1.24,6.15,2.89ZM56.92,20.65c.78.78,1.27,1.76,1.43,2.84l-1.04.15c-.13-.86-.52-1.64-1.13-2.25-.62-.62-1.4-1.01-2.25-1.13l.15-1.04c1.08.16,2.07.65,2.84,1.43ZM52.33,22.95c-1.05,0-1.9.85-1.9,1.9,0,.3.08.58.2.84l-1.68,1.68-20.8,1.97-4.87-4.87h0c-.18-.18-.47-.25-.69-.28-.26,0-.5.11-.67.29-8.11,8.44-7.97,22.05.31,30.34,1.57,1.57,3.33,2.85,5.21,3.83l-5.65,11.3c-.08.16-.07.41.03.56.1.16.31.27.49.27h15.33c.18,0,.4-.12.49-.27.1-.16.11-.4.03-.56l-4.6-9.2c1.32.25,2.67.37,4.01.37,5.42,0,10.84-1.99,15-5.99.19-.18.29-.42.29-.68,0-.26-.1-.5-.28-.68l-4.74-4.74,1.99-21.04s0-.01,0-.02l1.51-1.51c.29.18.62.28.99.28,1.05,0,1.9-.85,1.9-1.9s-.85-1.9-1.9-1.9ZM47.78,28.54l-10.22,10.22-8.45-8.45,18.67-1.77ZM32.25,60.51l4.62,9.23h-13.79l5.31-10.61c.29.14.6.24.89.37.07.03.13.05.19.08.91.37,1.84.69,2.79.93ZM22.97,54.08c-7.87-7.87-8.01-20.81-.39-28.81l14.82,14.82,9.42,9.42s0,0,0,0l4.94,4.94c-8.04,7.64-20.93,7.49-28.79-.37ZM46.88,48.07l-8.57-8.57,10.36-10.36-1.79,18.93Z"/></svg>