<?xml version="1.0" encoding="UTF-8"?><svg id="device" xmlns="http://www.w3.org/2000/svg" viewBox="0 0 80 80"><defs><style>.cls-1{fill:#fff;}</style></defs><g id="Layer_4"><path class="cls-1" d="M72.31,41.4c-1.09-.47-1.76.33-2.16.8-.11.13-.22.26-.31.37-.21.04-1.22-.35-2.45-1.58-1.23-1.23-1.62-2.24-1.59-2.41.13-.14.28-.25.41-.36.53-.43,1.32-1.08.59-2.41-.05-.1-.12-.25-.21-.42-.59-1.23-1.09-2.08-1.78-2.02-1.03.09-1.86.27-2.54,1.59-.8,1.39-.45,2.78-.06,3.97.57,1.76,1.57,3.01,2.89,4.35,1.46,1.43,3.04,2.48,4.45,2.97.62.21,1.26.38,1.94.38.61,0,1.24-.14,1.9-.51,1.34-.68,1.52-1.51,1.61-2.54.04-.3.09-.98-2.7-2.18ZM72.88,45.17c-.98.56-1.87.44-2.98.06-1.26-.43-2.7-1.39-4.03-2.71-1.24-1.27-2.12-2.36-2.62-3.93-.4-1.23-.55-2.18-.01-3.12.41-.81.77-.94,1.59-1.02.24.22.65,1.07.81,1.41.09.19.17.36.23.47.3.54.2.62-.33,1.05-.17.14-.34.28-.45.4-.15.12-.33.34-.35.71-.05.95.99,2.35,1.9,3.26.91.91,2.29,1.94,3.26,1.9.38-.02.6-.2.65-.28.15-.13.29-.3.44-.47.47-.55.61-.64.91-.51,1.06.45,1.85.94,2.04,1.16-.08.84-.21,1.18-1.04,1.61ZM27.59,40.94h2.87v2.69h-.58v.69h-1.68v-.69h-.62v-2.69ZM24.61,36.37h.62v2.69h-2.87v-2.69h.58v-.69h1.68v.69ZM22.35,40.94h2.87v2.69h-.58v.69h-1.68v-.69h-.62v-2.69ZM40.82,39h.62v2.69h-2.87v-2.69h.58v-.69h1.68v.69ZM51.24,36.37h.62v2.69h-2.87v-2.69h.58v-.69h1.68v.69ZM46.05,39h.62v2.69h-2.87v-2.69h.58v-.69h1.68v.69ZM56.43,36.37h.62v2.69h-2.87v-2.69h.58v-.69h1.68v.69ZM79.26,32.88h-2.4s-.09.02-.13.03c-.04,0-.08-.03-.12-.03h-.69c-1.9-2.02-4.59-3.29-7.57-3.29s-5.67,1.27-7.57,3.29H3.25s-.03,0-.04,0c-.01,0-.03,0-.04,0H.58c-.3,0-.58.28-.58.58v13.07c0,.3.28.58.58.58h2.59s.03,0,.04,0c.01,0,.03,0,.04,0h57.53c1.9,2.02,4.59,3.29,7.57,3.29s5.67-1.27,7.57-3.29h.69s.08-.02.12-.03c.04,0,.08.03.13.03h2.4c.41,0,.74-.33.74-.74v-12.75c0-.41-.33-.74-.74-.74ZM2.67,46.04h-1.59v-12.07h1.59v12.07ZM3.75,46.04v-12.07h56.14c-1.22,1.7-1.95,3.79-1.95,6.04s.73,4.33,1.95,6.04H3.75ZM68.35,49.33c-5.14,0-9.33-4.18-9.33-9.33s4.18-9.33,9.33-9.33,9.33,4.18,9.33,9.33-4.18,9.33-9.33,9.33ZM78.92,46.04h-1.73v-.57c.99-1.59,1.57-3.46,1.57-5.46s-.58-3.87-1.57-5.46v-.57h1.73v12.07ZM48.99,40.94h2.87v2.69h-.58v.69h-1.68v-.69h-.62v-2.69ZM54.18,40.94h2.87v2.69h-.58v.69h-1.68v-.69h-.62v-2.69Z"/></g></svg>