<?xml version="1.0" encoding="UTF-8"?><svg id="modifiers" xmlns="http://www.w3.org/2000/svg" viewBox="0 0 80 80"><defs><style>.cls-1{fill:#07182d;}</style></defs><path class="cls-1" d="M55.97,27.64c-6.82,0-12.36,5.55-12.36,12.36,0,5.05,3.05,9.39,7.39,11.31h-21.87c4.35-1.92,7.39-6.26,7.39-11.31,0-6.82-5.55-12.36-12.36-12.36s-12.36,5.55-12.36,12.36,5.55,12.36,12.36,12.36h31.82c6.82,0,12.36-5.55,12.36-12.36s-5.55-12.36-12.36-12.36ZM12.85,40c0-6.24,5.07-11.31,11.31-11.31s11.31,5.07,11.31,11.31-5.07,11.31-11.31,11.31-11.31-5.07-11.31-11.31ZM55.97,51.31c-6.24,0-11.31-5.07-11.31-11.31s5.07-11.31,11.31-11.31,11.31,5.07,11.31,11.31-5.07,11.31-11.31,11.31ZM77.91,0H2.09C.94,0,0,.94,0,2.09v75.83c0,1.15.94,2.09,2.09,2.09h75.83c1.15,0,2.09-.94,2.09-2.09V2.09c0-1.15-.94-2.09-2.09-2.09ZM78.95,77.91c0,.57-.46,1.03-1.03,1.03H2.09c-.57,0-1.03-.46-1.03-1.03V2.09c0-.57.46-1.03,1.03-1.03h75.83c.57,0,1.03.46,1.03,1.03v75.83Z"/></svg>