<?xml version="1.0" encoding="UTF-8"?>
<svg id="art" xmlns="http://www.w3.org/2000/svg" viewBox="0 0 80 80">
  <rect x="39.25" y="29" width="1.5" height="24.57"/>
  <path d="M54,43.75h-6c-2.62,0-4.75-2.13-4.75-4.75v-10h1.5v10c0,1.79,1.46,3.25,3.25,3.25h6v1.5Z"/>
  <path d="M32,43.75h-6v-1.5h6c1.79,0,3.25-1.46,3.25-3.25v-10h1.5v10c0,2.62-2.13,4.75-4.75,4.75Z"/>
  <path d="M53,29.75h-25c-3.72,0-6.75-3.03-6.75-6.75s3.03-6.75,6.75-6.75c.75,0,1.49.12,2.19.37,1.72-3.84,5.56-6.37,9.81-6.37,5.18,0,9.52,3.61,10.53,8.57.77-.38,1.61-.57,2.47-.57,3.17,0,5.75,2.58,5.75,5.75s-2.58,5.75-5.75,5.75ZM28,17.75c-2.89,0-5.25,2.35-5.25,5.25s2.36,5.25,5.25,5.25h25c2.34,0,4.25-1.91,4.25-4.25s-1.91-4.25-4.25-4.25c-.93,0-1.82.31-2.59.9-.22.17-.51.2-.76.1-.25-.11-.42-.35-.45-.62-.45-4.78-4.4-8.38-9.21-8.38-3.88,0-7.37,2.45-8.69,6.11-.07.2-.23.36-.42.44-.19.08-.42.07-.61-.02-.72-.35-1.49-.53-2.28-.53Z"/>
  <g>
    <path d="M26,47.75H10c-.41,0-.75-.34-.75-.75v-8c0-.41.34-.75.75-.75h16c.41,0,.75.34.75.75v8c0,.41-.34.75-.75.75ZM10.75,46.25h14.5v-6.5h-14.5v6.5Z"/>
    <rect x="17" y="42.25" width="6" height="1.5"/>
    <circle cx="14" cy="43" r="1"/>
  </g>
  <g>
    <path d="M26,55.75H10c-.41,0-.75-.34-.75-.75v-8c0-.41.34-.75.75-.75h16c.41,0,.75.34.75.75v8c0,.41-.34.75-.75.75ZM10.75,54.25h14.5v-6.5h-14.5v6.5Z"/>
    <rect x="17" y="50.25" width="6" height="1.5"/>
    <circle cx="14" cy="51" r="1"/>
  </g>
  <g>
    <path d="M70,47.75h-16c-.41,0-.75-.34-.75-.75v-8c0-.41.34-.75.75-.75h16c.41,0,.75.34.75.75v8c0,.41-.34.75-.75.75ZM54.75,46.25h14.5v-6.5h-14.5v6.5Z"/>
    <rect x="61" y="42.25" width="6" height="1.5"/>
    <circle cx="58" cy="43" r="1"/>
  </g>
  <g>
    <path d="M70,55.75h-16c-.41,0-.75-.34-.75-.75v-8c0-.41.34-.75.75-.75h16c.41,0,.75.34.75.75v8c0,.41-.34.75-.75.75ZM54.75,54.25h14.5v-6.5h-14.5v6.5Z"/>
    <rect x="61" y="50.25" width="6" height="1.5"/>
    <circle cx="58" cy="51" r="1"/>
  </g>
  <g>
    <path d="M48.09,62.32h-16c-.41,0-.75-.34-.75-.75v-8c0-.41.34-.75.75-.75h16c.41,0,.75.34.75.75v8c0,.41-.34.75-.75.75ZM32.84,60.82h14.5v-6.5h-14.5v6.5Z"/>
    <rect x="39.09" y="56.82" width="6" height="1.5"/>
    <circle cx="36.09" cy="57.57" r="1"/>
  </g>
  <g>
    <path d="M48.09,70.32h-16c-.41,0-.75-.34-.75-.75v-8c0-.41.34-.75.75-.75h16c.41,0,.75.34.75.75v8c0,.41-.34.75-.75.75ZM32.84,68.82h14.5v-6.5h-14.5v6.5Z"/>
    <rect x="39.09" y="64.82" width="6" height="1.5"/>
    <circle cx="36.09" cy="65.57" r="1"/>
  </g>
</svg>