<?xml version="1.0" encoding="UTF-8"?>
<svg id="art" xmlns="http://www.w3.org/2000/svg" viewBox="0 0 80 80">
  <rect x="39.25" y="29" width="1.5" height="24.57"/>
  <path d="M54,43.75h-6c-2.62,0-4.75-2.13-4.75-4.75v-10h1.5v10c0,1.79,1.46,3.25,3.25,3.25h6v1.5Z"/>
  <path d="M32,43.75h-6v-1.5h6c1.79,0,3.25-1.46,3.25-3.25v-10h1.5v10c0,2.62-2.13,4.75-4.75,4.75Z"/>
  <g>
    <path d="M26,47.75H10c-.41,0-.75-.34-.75-.75v-8c0-.41.34-.75.75-.75h16c.41,0,.75.34.75.75v8c0,.41-.34.75-.75.75ZM10.75,46.25h14.5v-6.5h-14.5v6.5Z"/>
    <rect x="17" y="42.25" width="6" height="1.5"/>
    <circle cx="14" cy="43" r="1"/>
  </g>
  <g>
    <path d="M26,55.75H10c-.41,0-.75-.34-.75-.75v-8c0-.41.34-.75.75-.75h16c.41,0,.75.34.75.75v8c0,.41-.34.75-.75.75ZM10.75,54.25h14.5v-6.5h-14.5v6.5Z"/>
    <rect x="17" y="50.25" width="6" height="1.5"/>
    <circle cx="14" cy="51" r="1"/>
  </g>
  <g>
    <path d="M70,47.75h-16c-.41,0-.75-.34-.75-.75v-8c0-.41.34-.75.75-.75h16c.41,0,.75.34.75.75v8c0,.41-.34.75-.75.75ZM54.75,46.25h14.5v-6.5h-14.5v6.5Z"/>
    <rect x="61" y="42.25" width="6" height="1.5"/>
    <circle cx="58" cy="43" r="1"/>
  </g>
  <g>
    <path d="M70,55.75h-16c-.41,0-.75-.34-.75-.75v-8c0-.41.34-.75.75-.75h16c.41,0,.75.34.75.75v8c0,.41-.34.75-.75.75ZM54.75,54.25h14.5v-6.5h-14.5v6.5Z"/>
    <rect x="61" y="50.25" width="6" height="1.5"/>
    <circle cx="58" cy="51" r="1"/>
  </g>
  <g>
    <path d="M48.09,62.32h-16c-.41,0-.75-.34-.75-.75v-8c0-.41.34-.75.75-.75h16c.41,0,.75.34.75.75v8c0,.41-.34.75-.75.75ZM32.84,60.82h14.5v-6.5h-14.5v6.5Z"/>
    <rect x="39.09" y="56.82" width="6" height="1.5"/>
    <circle cx="36.09" cy="57.57" r="1"/>
  </g>
  <g>
    <path d="M48.09,70.32h-16c-.41,0-.75-.34-.75-.75v-8c0-.41.34-.75.75-.75h16c.41,0,.75.34.75.75v8c0,.41-.34.75-.75.75ZM32.84,68.82h14.5v-6.5h-14.5v6.5Z"/>
    <rect x="39.09" y="64.82" width="6" height="1.5"/>
    <circle cx="36.09" cy="65.57" r="1"/>
  </g>
  <path d="M53,28.74v-1.5c2.34,0,4.25-1.91,4.25-4.25s-1.91-4.25-4.25-4.25c-.93,0-1.82.31-2.59.9-.22.17-.51.2-.76.1-.25-.11-.42-.35-.45-.62-.45-4.78-4.4-8.38-9.21-8.38-3.88,0-7.37,2.45-8.69,6.11-.07.2-.23.36-.42.44-.2.08-.42.07-.61-.02-.72-.35-1.49-.53-2.28-.53-2.89,0-5.25,2.35-5.25,5.25s2.36,5.25,5.25,5.25v1.5c-3.72,0-6.75-3.03-6.75-6.75s3.03-6.75,6.75-6.75c.75,0,1.49.12,2.19.37,1.72-3.84,5.56-6.37,9.81-6.37,5.18,0,9.52,3.61,10.53,8.57.77-.38,1.61-.57,2.47-.57,3.17,0,5.75,2.58,5.75,5.75s-2.58,5.75-5.75,5.75Z"/>
  <g>
    <g>
      <path d="M42.37,23.99h-1.54l-.7-1.94h-3.42l-.7,1.94h-1.46l3.11-8h1.6l3.11,8ZM38.43,17.28l-1.36,3.72h2.68l-1.32-3.72Z"/>
      <path d="M42.37,24.14h-1.54c-.06,0-.12-.04-.14-.1l-.66-1.85h-3.21l-.66,1.85c-.02.06-.08.1-.14.1h-1.46s-.1-.02-.12-.07c-.03-.04-.03-.09-.02-.14l3.11-8c.02-.06.08-.1.14-.1h1.6c.06,0,.12.04.14.1l3.11,8s.01.1-.02.14c-.03.04-.07.07-.12.07ZM40.93,23.84h1.22l-2.99-7.7h-1.39l-2.99,7.7h1.13l.66-1.85c.02-.06.08-.1.14-.1h3.42c.06,0,.12.04.14.1l.66,1.85ZM39.76,21.15h-2.68s-.09-.02-.12-.06-.03-.09-.02-.14l1.36-3.72c.02-.06.08-.1.14-.1h0c.06,0,.12.04.14.1l1.32,3.72s0,.1-.02.14c-.03.04-.07.06-.12.06ZM37.29,20.85h2.25l-1.11-3.13-1.14,3.13Z"/>
    </g>
    <g>
      <path d="M43.47,15.99h1.42v8h-1.42v-8Z"/>
      <path d="M44.89,24.14h-1.42c-.08,0-.15-.07-.15-.15v-8c0-.08.07-.15.15-.15h1.42c.08,0,.15.07.15.15v8c0,.08-.07.15-.15.15ZM43.62,23.84h1.12v-7.7h-1.12v7.7Z"/>
    </g>
  </g>
</svg>