<?xml version="1.0" encoding="UTF-8"?>
<svg id="art" xmlns="http://www.w3.org/2000/svg" width="80" height="80" viewBox="0 0 80 80">
  <defs>
    <style>
      .cls-1 {
        fill: #000;
        stroke-width: 0px;
      }
    </style>
  </defs>
  <path class="cls-1" d="M62,68.75H14c-.26,0-.5-.13-.64-.36-.14-.22-.15-.5-.03-.73l4-8c.13-.25.39-.42.67-.42h44c.41,0,.75.34.75.75v8c0,.41-.34.75-.75.75ZM15.21,67.25h46.04v-6.5H18.46l-3.25,6.5Z"/>
  <path class="cls-1" d="M51,56.75c-2.07,0-3.75-1.68-3.75-3.75s1.68-3.75,3.75-3.75,3.75,1.68,3.75,3.75-1.68,3.75-3.75,3.75ZM51,50.75c-1.24,0-2.25,1.01-2.25,2.25s1.01,2.25,2.25,2.25,2.25-1.01,2.25-2.25-1.01-2.25-2.25-2.25Z"/>
  <path class="cls-1" d="M46.67,28.75c-2.07,0-3.75-1.68-3.75-3.75s1.68-3.75,3.75-3.75,3.75,1.68,3.75,3.75-1.68,3.75-3.75,3.75ZM46.67,22.75c-1.24,0-2.25,1.01-2.25,2.25s1.01,2.25,2.25,2.25,2.25-1.01,2.25-2.25-1.01-2.25-2.25-2.25Z"/>
  <path class="cls-1" d="M51,56.75h-27c-.41,0-.75-.34-.75-.75v-6c0-.41.34-.75.75-.75h27c.41,0,.75.34.75.75s-.34.75-.75.75h-26.25v4.5h26.25c.41,0,.75.34.75.75s-.34.75-.75.75Z"/>
  <g>
    <path class="cls-1" d="M37.2,36.21c-.13,0-.26-.03-.38-.1l-8.66-5c-.36-.21-.48-.67-.27-1.02l10.8-18.71c.1-.17.26-.3.46-.35.19-.05.4-.02.57.08l8.66,5c.36.21.48.67.27,1.02l-10.8,18.71c-.1.17-.26.3-.46.35-.06.02-.13.03-.19.03ZM29.56,30.19l7.36,4.25,10.05-17.41-7.36-4.25-10.05,17.41Z"/>
    <path class="cls-1" d="M32.27,40.75c-.13,0-.26-.03-.37-.1l-5.2-3c-.17-.1-.3-.26-.35-.46-.05-.19-.02-.4.08-.57l3.2-5.54c.21-.36.67-.48,1.02-.27l5.2,3c.17.1.3.26.35.46.05.19.02.4-.08.57l-3.2,5.54c-.14.24-.39.38-.65.38ZM28.1,36.73l3.9,2.25,2.45-4.24-3.9-2.25-2.45,4.24Z"/>
  </g>
  <path class="cls-1" d="M54.47,53.08l-.94-1.17c3.63-2.91,5.72-7.25,5.72-11.91,0-6.25-3.74-11.8-9.53-14.14l.56-1.39c6.36,2.58,10.47,8.67,10.47,15.53,0,5.11-2.29,9.88-6.28,13.08Z"/>
</svg>