<?xml version="1.0" encoding="UTF-8"?><svg id="a" xmlns="http://www.w3.org/2000/svg" viewBox="0 0 80 80"><path d="M9.25,44c0,3.72217,3.02832,6.75,6.75,6.75,1.1709,0,2.27271-.30066,3.23364-.82745l6.30933,9.02161c-1.40234,1.23773-2.29297,3.04266-2.29297,5.05585,0,3.72217,3.02832,6.75,6.75,6.75,3.46802,0,6.33105-2.63,6.70581-6h20.58838c.37476,3.37,3.23779,6,6.70581,6,3.72168,0,6.75-3.02783,6.75-6.75s-3.02832-6.75-6.75-6.75c-.19678,0-.39038,.01294-.58301,.02954l-5.36304-26.85144c2.72021-.87128,4.69604-3.42224,4.69604-6.4281,0-3.72217-3.02832-6.75-6.75-6.75-3.00537,0-5.55664,1.97546-6.42798,4.69574l-26.85156-5.3623c.0166-.19269,.02954-.38647,.02954-.58344,0-3.72217-3.02832-6.75-6.75-6.75s-6.75,3.02783-6.75,6.75c0,3.46838,2.63037,6.33118,6,6.70575v14.5885c-3.36963,.37457-6,3.23737-6,6.70575Zm11.20703,5.05585c1.40234-1.23773,2.29297-3.04266,2.29297-5.05585,0-.81677-.15332-1.59656-.42017-2.32184l12.18921-6.09863,7.91504,7.91504-9.41113,14.47876c-.91064-.4588-1.93555-.72333-3.02295-.72333-1.1709,0-2.27271,.30066-3.23364,.82745l-6.30933-9.02161Zm1.20386-8.71997c-1.07544-1.65582-2.85376-2.81293-4.91089-3.04163v-14.5885c1.29956-.14447,2.4873-.65991,3.45825-1.43701l13.19287,13.19287-11.74023,5.87427Zm8.33911,28.91412c-2.89453,0-5.25-2.35498-5.25-5.25s2.35547-5.25,5.25-5.25,5.25,2.35498,5.25,5.25-2.35547,5.25-5.25,5.25Zm27.29419-6h-20.58838c-.19922-1.7912-1.09985-3.37372-2.42285-4.46277l9.23535-14.20837,15.21289,15.21295c-.7771,.97095-1.29248,2.15863-1.43701,3.45819Zm6.70581-4.5c2.89453,0,5.25,2.35498,5.25,5.25s-2.35547,5.25-5.25,5.25-5.25-2.35498-5.25-5.25,2.35547-5.25,5.25-5.25Zm-2.05396-1.1781c-.79175,.25366-1.51904,.65094-2.1543,1.15936l-15.43774-15.43793,8.62305-13.26666c.91064,.4588,1.93555,.72333,3.02295,.72333,.19678,0,.39038-.01294,.58301-.02954l5.36304,26.85144Zm-5.94604-38.8219c2.89453,0,5.25,2.35498,5.25,5.25s-2.35547,5.25-5.25,5.25-5.25-2.35498-5.25-5.25,2.35547-5.25,5.25-5.25Zm-4.28296,10.46277l-8.44751,12.99628-7.33691-7.33691,14.40649-7.20801c.37915,.58362,.84229,1.10773,1.37793,1.54865Zm-29.28906-11.15851l26.85156,5.3623c-.0166,.19269-.02954,.38647-.02954,.58344,0,.81665,.15308,1.59631,.41992,2.32147l-14.85498,7.4328-13.54614-13.54608c.5083-.63513,.90552-1.36212,1.15918-2.15393Zm-11.67798-2.05426c0-2.89502,2.35547-5.25,5.25-5.25s5.25,2.35498,5.25,5.25-2.35547,5.25-5.25,5.25-5.25-2.35498-5.25-5.25Zm5.25,22.75c2.89453,0,5.25,2.35498,5.25,5.25s-2.35547,5.25-5.25,5.25-5.25-2.35498-5.25-5.25,2.35547-5.25,5.25-5.25Z"/></svg>