<?xml version="1.0" encoding="UTF-8"?><svg id="a" xmlns="http://www.w3.org/2000/svg" viewBox="0 0 80 80"><path d="M66.50977,45.44971c-1.33984-1.34082-3.67871-1.34229-5.02051,.00146l-1.41748,1.42432-.6001-.56885c-1.39258-1.31641-3.55469-1.29785-4.92969,.04736l-6.91724,6.95923c-.20435-.03467-.41089-.06323-.62476-.06323h-14.51465c-1.80176,0-3.49707,.70215-4.77344,1.97705l-14.24219,14.24268,1.06055,1.06055,14.24219-14.24219c.99219-.9917,2.31152-1.53809,3.71289-1.53809h14.51465c1.24023,0,2.25,1.00928,2.25,2.25,0,.48169-.29492,1.02686-.70654,1.45984l-.05029,.05042,.00098,.00098c-.42285,.42529-.95703,.73047-1.42871,.73047l-11.06641,.0083,.00195,1.5,11.06543-.0083c.91675,0,1.85645-.50781,2.55933-1.24426l12.92505-12.98718c.77344-.77441,2.125-.77441,2.89844,0,.39844,.39795,.61719,.92725,.61719,1.48975s-.21875,1.0918-.61719,1.48975l-14.22168,14.22217c-.99219,.9917-2.31152,1.53809-3.71289,1.53809h-14.68652c-.73438,0-1.4248,.28613-1.94434,.80566l-3.41406,3.41406,1.06055,1.06055,3.41406-3.41406c.23242-.23291,.55469-.36621,.88379-.36621h14.68652c1.80176,0,3.49707-.70215,4.77344-1.97705l14.22168-14.22266c.68164-.68115,1.05664-1.58691,1.05664-2.55029s-.375-1.86914-1.05664-2.55029Zm-15.82935,10.86267c-.18408-.98621-.7522-1.8363-1.54663-2.38904l6.46484-6.50439c.79102-.77295,2.03906-.78174,2.8418-.02295l.57324,.54285-8.33325,8.37354Z"/><path d="M56,40.75c.41406,0,.75-.33594,.75-.75V10c0-.41406-.33594-.75-.75-.75H24c-.41406,0-.75,.33594-.75,.75v30c0,.41406,.33594,.75,.75,.75H56ZM24.75,10.75h30.5v6.5H24.75v-6.5Zm0,8h30.5v20.5H24.75V18.75Z"/><circle cx="28" cy="14" r="1"/><circle cx="32" cy="14" r="1"/><circle cx="36" cy="14" r="1"/></svg>