<?xml version="1.0" encoding="UTF-8"?><svg id="a" xmlns="http://www.w3.org/2000/svg" viewBox="0 0 80 80"><path d="M14,62.75c2.61914,0,4.75-2.13086,4.75-4.75,0-2.3623-1.73828-4.31152-4-4.67413v-4.57587h24.5v4.57587c-2.26172,.36261-4,2.31183-4,4.67413,0,2.61914,2.13086,4.75,4.75,4.75s4.75-2.13086,4.75-4.75c0-2.3623-1.73828-4.31152-4-4.67413v-4.57587h24.5v4.57587c-2.26172,.36261-4,2.31183-4,4.67413,0,2.61914,2.13086,4.75,4.75,4.75s4.75-2.13086,4.75-4.75c0-2.3623-1.73828-4.31152-4-4.67413v-5.32587c0-.41406-.33594-.75-.75-.75h-25.25v-8.5h13.69434c3.47656,0,6.30566-2.82861,6.30566-6.30566s-2.8291-6.30566-6.30566-6.30566c-.98242,0-1.93555,.23145-2.80762,.67676-1.07227-5.5293-5.88086-9.56543-11.63672-9.56543-4.70703,0-8.97266,2.82227-10.85156,7.09863-.79883-.28711-1.63086-.43213-2.48145-.43213-4.08984,0-7.41699,3.32715-7.41699,7.41699,0,4.08936,3.32715,7.4165,7.41699,7.4165h12.58301v8.5H14c-.41406,0-.75,.33594-.75,.75v5.32587c-2.26172,.36261-4,2.31183-4,4.67413,0,2.61914,2.13086,4.75,4.75,4.75Zm55.25-4.75c0,1.79199-1.45801,3.25-3.25,3.25s-3.25-1.45801-3.25-3.25,1.45801-3.25,3.25-3.25,3.25,1.45801,3.25,3.25ZM26.66699,37.25c-3.2627,0-5.91699-2.6543-5.91699-5.9165,0-3.2627,2.6543-5.91699,5.91699-5.91699,.88867,0,1.75293,.19971,2.56836,.59375,.19043,.09277,.41309,.09961,.60938,.01953s.34961-.23975,.42188-.43945c1.48047-4.09131,5.39258-6.84033,9.7334-6.84033,5.37988,0,9.8125,4.03613,10.31152,9.38818,.02539,.27246,.19727,.50928,.44824,.61816,.25391,.10889,.54199,.07129,.75879-.09521,.8623-.66895,1.87402-1.02246,2.92578-1.02246,2.64941,0,4.80566,2.15576,4.80566,4.80566s-2.15625,4.80566-4.80566,4.80566H26.66699Zm13.33301,17.5c1.79199,0,3.25,1.45801,3.25,3.25s-1.45801,3.25-3.25,3.25-3.25-1.45801-3.25-3.25,1.45801-3.25,3.25-3.25Zm-26,0c1.79199,0,3.25,1.45801,3.25,3.25s-1.45801,3.25-3.25,3.25-3.25-1.45801-3.25-3.25,1.45801-3.25,3.25-3.25Z"/><polygon points="64.7002 14.1499 64.7002 7.8501 63.32422 7.8501 63.32422 10.3999 60.97559 10.3999 60.97559 7.8501 59.6084 7.8501 59.6084 14.1499 60.97559 14.1499 60.97559 11.5332 63.32422 11.5332 63.32422 14.1499 64.7002 14.1499"/><polygon points="72.18359 7.8501 70.6543 7.8501 69.32617 9.79102 68.02148 7.8501 66.38867 7.8501 68.50098 10.8999 66.24707 14.1499 67.78809 14.1499 69.22363 12.00537 70.62793 14.1499 72.2832 14.1499 70.0332 10.84424 72.18359 7.8501"/></svg>