<?xml version="1.0" encoding="UTF-8"?><svg id="a" xmlns="http://www.w3.org/2000/svg" viewBox="0 0 80 80"><polygon points="45.60449 56.75049 45.60449 55.25049 41.24512 55.25049 41.24512 62.27197 45.60059 62.27197 45.60059 60.77197 42.74512 60.77197 42.74512 59.4585 44.69141 59.4585 44.69141 57.9585 42.74512 57.9585 42.74512 56.75049 45.60449 56.75049"/><path d="M70.52051,29.46045c-8.15332-7.87402-18.99316-12.21045-30.52051-12.21045s-22.36719,4.33643-30.52051,12.21045l1.04102,1.0791c7.87305-7.60254,18.34277-11.78955,29.47949-11.78955s21.60645,4.18701,29.47949,11.78955l1.04102-1.0791Z"/><path d="M60.52148,39.46045c-5.48242-5.29443-12.77051-8.21045-20.52148-8.21045s-15.03906,2.91602-20.52148,8.21045l1.04297,1.0791c5.20117-5.02295,12.11816-7.78955,19.47852-7.78955s14.27734,2.7666,19.47852,7.78955l1.04297-1.0791Z"/><path d="M50.52051,49.46045c-2.81152-2.71533-6.54785-4.21045-10.52051-4.21045s-7.70898,1.49512-10.52051,4.21045l1.04102,1.0791c2.53125-2.44385,5.89844-3.78955,9.47949-3.78955s6.94824,1.3457,9.47949,3.78955l1.04102-1.0791Z"/><path d="M38.37891,56.04785l-.35742-1.45703c-2.79785,.68799-3.83789,2.15088-3.83789,5.39844,0,1.51025,1.22852,2.73926,2.73926,2.73926s2.73926-1.229,2.73926-2.73926-1.22852-2.73926-2.73926-2.73926c-.25684,0-.50049,.04688-.73633,.11328,.42603-.72131,1.13135-1.05457,2.19238-1.31543Zm-1.45605,2.70215c.68359,0,1.23926,.55615,1.23926,1.23926s-.55566,1.23926-1.23926,1.23926-1.23926-.55615-1.23926-1.23926,.55566-1.23926,1.23926-1.23926Z"/></svg>