<?xml version="1.0" encoding="UTF-8"?><svg id="a" xmlns="http://www.w3.org/2000/svg" viewBox="0 0 80 80"><path d="M13.46973,44.53027l1.06055-1.06055-2.71973-2.71973H31.25v14.5H10v1.5H31.25v13.25c0,.41406,.33594,.75,.75,.75h16c.41406,0,.75-.33594,.75-.75v-13.25h19.43945l-2.71973,2.71973,1.06055,1.06055,4-4c.29297-.29297,.29297-.76758,0-1.06055l-4-4-1.06055,1.06055,2.71973,2.71973h-19.43945v-14.5h21.25v-1.5h-21.25v-14.5h19.43945l-2.71973,2.71973,1.06055,1.06055,4-4c.29297-.29297,.29297-.76758,0-1.06055l-4-4-1.06055,1.06055,2.71973,2.71973h-19.43945V10c0-.41406-.33594-.75-.75-.75h-16c-.41406,0-.75,.33594-.75,.75v13.25H10v1.5H31.25v14.5H11.81055l2.71973-2.71973-1.06055-1.06055-4,4c-.29297,.29297-.29297,.76758,0,1.06055l4,4ZM32.75,10.75h14.5v12.5h-7.25v1.5h7.25v14.5h-7.25v1.5h7.25v14.5h-7.25v1.5h7.25v12.5h-14.5V10.75Z"/></svg>