<?xml version="1.0" encoding="UTF-8"?><svg id="a" xmlns="http://www.w3.org/2000/svg" viewBox="0 0 80 80"><path d="M12,70.75h28c1.5166,0,2.75-1.2334,2.75-2.75v-15.61761c3.08813,2.81146,7.04541,4.36761,11.25,4.36761,4.47363,0,8.68066-1.74268,11.84375-4.90625,3.16406-3.16357,4.90625-7.36963,4.90625-11.84375s-1.74219-8.68018-4.90625-11.84375c-3.16309-3.16357-7.37012-4.90625-11.84375-4.90625-4.20459,0-8.16187,1.55615-11.25,4.36761V12c0-1.5166-1.2334-2.75-2.75-2.75H12c-1.5166,0-2.75,1.2334-2.75,2.75v56c0,1.5166,1.2334,2.75,2.75,2.75ZM54,24.75c4.07324,0,7.90332,1.58643,10.7832,4.4668,2.88086,2.88037,4.4668,6.70996,4.4668,10.7832s-1.58594,7.90283-4.4668,10.7832c-2.87988,2.88037-6.70996,4.4668-10.7832,4.4668s-7.90332-1.58643-10.7832-4.4668c-2.88086-2.88037-4.4668-6.70996-4.4668-10.7832s1.58594-7.90283,4.4668-10.7832c2.87988-2.88037,6.70996-4.4668,10.7832-4.4668ZM10.75,12c0-.68945,.56055-1.25,1.25-1.25h28c.68945,0,1.25,.56055,1.25,1.25V29.15515c-2.58228,3.02594-4,6.82397-4,10.84485,0,4.0213,1.41772,7.81891,4,10.84485v17.15515c0,.68945-.56055,1.25-1.25,1.25H12c-.68945,0-1.25-.56055-1.25-1.25V12Z"/><rect x="22" y="15.25" width="8" height="1.5"/><path d="M26,59.25c-1.5166,0-2.75,1.2334-2.75,2.75s1.2334,2.75,2.75,2.75,2.75-1.2334,2.75-2.75-1.2334-2.75-2.75-2.75Zm0,4c-.68945,0-1.25-.56055-1.25-1.25s.56055-1.25,1.25-1.25,1.25,.56055,1.25,1.25-.56055,1.25-1.25,1.25Z"/><path d="M26,34.81787c2.81348,0,5.46191,1.1582,7.45605,3.26123l1.08789-1.03223c-2.28027-2.40479-5.31445-3.729-8.54395-3.729s-6.26367,1.32422-8.54395,3.729l1.08789,1.03223c1.99414-2.10303,4.64258-3.26123,7.45605-3.26123Z"/><path d="M20.12305,39.85889l1.08789,1.03223c1.28125-1.35156,2.98145-2.0957,4.78906-2.0957s3.50781,.74414,4.78906,2.0957l1.08789-1.03223c-1.56641-1.65283-3.65332-2.56348-5.87695-2.56348s-4.31055,.91064-5.87695,2.56348Z"/><path d="M22.78906,42.67139l1.08789,1.03223c1.13867-1.20117,3.10742-1.20117,4.24609,0l1.08789-1.03223c-.85547-.90234-1.99609-1.39893-3.21094-1.39893s-2.35547,.49658-3.21094,1.39893Z"/><path d="M47.45996,46.53955c-1.74707-1.74805-2.70996-4.07031-2.70996-6.53955,0-5.10059,4.14941-9.25,9.25-9.25,2.2168,0,4.31274,.78162,5.98364,2.20575l-4.65259,4.65271c-.39624-.22144-.8457-.35846-1.33105-.35846-1.5166,0-2.75,1.2334-2.75,2.75s1.2334,2.75,2.75,2.75,2.75-1.2334,2.75-2.75c0-.48529-.13696-.93481-.3584-1.33099l8.13867-8.13873-1.06055-1.06055-2.42554,2.42548c-1.95654-1.70526-4.427-2.6452-7.04419-2.6452-5.92773,0-10.75,4.82227-10.75,10.75,0,2.86963,1.11816,5.56885,3.14941,7.6001l1.06055-1.06055Zm6.54004-5.28955c-.68945,0-1.25-.56055-1.25-1.25s.56055-1.25,1.25-1.25,1.25,.56055,1.25,1.25-.56055,1.25-1.25,1.25Z"/><circle cx="26" cy="45.87238" r="1"/></svg>