<?xml version="1.0" encoding="utf-8"?>
<!-- Generator: Adobe Illustrator 28.3.0, SVG Export Plug-In . SVG Version: 6.00 Build 0)  -->
<svg version="1.1" xmlns="http://www.w3.org/2000/svg" xmlns:xlink="http://www.w3.org/1999/xlink" x="0px" y="0px"
	 viewBox="0 0 80 80" style="enable-background:new 0 0 80 80;" xml:space="preserve">
<style type="text/css">
	.st0{display:none;}
	.st1{display:inline;opacity:0.75;}
	.st2{fill:#FFFFFF;}
	.st3{display:inline;}
	.st4{fill:none;stroke:#00FFFF;stroke-width:5.000000e-02;stroke-linecap:round;stroke-miterlimit:10;}
	.st5{fill:none;}
	.st6{opacity:0.22;fill:none;stroke:#FF0000;stroke-width:5.000000e-02;stroke-linecap:round;stroke-miterlimit:10;}
	.st7{opacity:0.22;}
	.st8{fill:none;stroke:#FF0000;stroke-width:5.000000e-02;stroke-linecap:round;stroke-miterlimit:10;}
	.st9{fill:none;stroke:#000000;stroke-width:1.5;stroke-linejoin:round;stroke-miterlimit:10;}
</style>
<g id="border" class="st0">
	<g class="st1">
		<path class="st2" d="M72,8v64H8V8H72 M80,0H0v80h80V0L80,0z"/>
	</g>
</g>
<g id="_x38__grid" class="st0">
	<g class="st3">
		<rect x="8" y="8" class="st4" width="8" height="64"/>
		<rect x="16" y="8" class="st4" width="8" height="64"/>
		<rect x="24" y="8" class="st4" width="8" height="64"/>
		<rect x="32" y="8" class="st4" width="8" height="64"/>
		<rect x="40" y="8" class="st4" width="8" height="64"/>
		<rect x="48" y="8" class="st4" width="8" height="64"/>
		<rect x="56" y="8" class="st4" width="8" height="64"/>
		<rect x="64" y="8" class="st4" width="8" height="64"/>
	</g>
	<g class="st3">
		<rect x="36" y="36" transform="matrix(6.123234e-17 -1 1 6.123234e-17 -28 108)" class="st4" width="8" height="64"/>
		<rect x="36" y="28" transform="matrix(6.123234e-17 -1 1 6.123234e-17 -20 100)" class="st4" width="8" height="64"/>
		<rect x="36" y="20" transform="matrix(6.123234e-17 -1 1 6.123234e-17 -12 92)" class="st4" width="8" height="64"/>
		<rect x="36" y="12" transform="matrix(6.123234e-17 -1 1 6.123234e-17 -4 84)" class="st4" width="8" height="64"/>
		<rect x="36" y="4" transform="matrix(6.123234e-17 -1 1 6.123234e-17 4 76)" class="st4" width="8" height="64"/>
		<rect x="36" y="-4" transform="matrix(6.123234e-17 -1 1 6.123234e-17 12 68)" class="st4" width="8" height="64"/>
		<rect x="36" y="-12" transform="matrix(6.123234e-17 -1 1 6.123234e-17 20 60)" class="st4" width="8" height="64"/>
		<rect x="36" y="-20" transform="matrix(6.123234e-17 -1 1 6.123234e-17 28 52)" class="st4" width="8" height="64"/>
	</g>
</g>
<g id="export_frame" class="st0">
	<g class="st3">
		<rect y="0" class="st5" width="80" height="80"/>
	</g>
</g>
<g id="guide_shapes" class="st0">
	<g class="st3">
		<line class="st6" x1="8" y1="8" x2="72" y2="72"/>
		<line class="st6" x1="72" y1="8" x2="8" y2="72"/>
		<line class="st6" x1="8" y1="40" x2="72" y2="40"/>
		<line class="st6" x1="40" y1="8" x2="40" y2="72"/>
		<rect x="8" y="8" class="st6" width="64" height="64"/>
		<circle class="st6" cx="40" cy="40" r="16"/>
		<circle class="st6" cx="40" cy="40" r="24"/>
		<rect x="24" y="24" class="st6" width="32" height="32"/>
		<circle class="st6" cx="40" cy="40" r="30"/>
		<rect x="12" y="12" class="st6" width="56" height="56"/>
		<line class="st6" x1="40" y1="40" x2="71.9" y2="31.5"/>
		<line class="st6" x1="8.1" y1="48.5" x2="40" y2="40"/>
		<g class="st7">
			<line class="st8" x1="40" y1="40" x2="71.9" y2="48.5"/>
			<line class="st8" x1="8.1" y1="31.5" x2="40" y2="40"/>
		</g>
		<line class="st6" x1="40" y1="40" x2="48.5" y2="71.9"/>
		<line class="st6" x1="31.5" y1="8.1" x2="40" y2="40"/>
		<line class="st6" x1="40" y1="40" x2="31.5" y2="71.9"/>
		<line class="st6" x1="48.5" y1="8.1" x2="40" y2="40"/>
		<g class="st7">
			<line class="st8" x1="40" y1="40" x2="71.9" y2="48.5"/>
			<line class="st8" x1="8.1" y1="31.5" x2="40" y2="40"/>
		</g>
	</g>
</g>
<g id="art">
	<g>
		<path d="M40,70.8C23,70.8,9.2,57,9.2,40S23,9.2,40,9.2c6.7,0,13.1,2.1,18.5,6.2l-0.9,1.2c-5.1-3.8-11.2-5.8-17.6-5.8
			c-16.1,0-29.2,13.1-29.2,29.2S23.9,69.2,40,69.2S69.2,56.1,69.2,40c0-3.3-0.6-6.6-1.7-9.8l1.4-0.5c1.2,3.3,1.8,6.7,1.8,10.2
			C70.8,57,57,70.8,40,70.8z"/>
	</g>
	<g>
		<path d="M38,50.8C38,50.8,38,50.8,38,50.8c-0.2,0-0.4-0.1-0.6-0.3l-10-12l1.2-1L38,48.9l31.4-33.4l1.1,1l-32,34
			C38.4,50.7,38.2,50.8,38,50.8z"/>
	</g>
	<g>
		<path d="M52.2,17.8L52,16.3l5.2-0.9l-0.9-5.2l1.5-0.3l1,5.9c0.1,0.4-0.2,0.8-0.6,0.9L52.2,17.8z"/>
	</g>
	<g>
		<g>
			<path d="M61.3,35.5c-0.1,0-0.3,0-0.4-0.1c-0.1,0-0.2-0.1-0.3-0.2c0,0-0.1-0.1-0.1-0.2c0-0.1-0.1-0.1-0.1-0.2c0-0.1,0-0.1,0-0.2
				c0-0.1,0-0.1,0-0.2c0-0.1,0-0.3,0.1-0.4s0.1-0.2,0.2-0.3c0.1-0.1,0.2-0.2,0.3-0.2c0.2-0.1,0.5-0.1,0.8,0c0.1,0,0.2,0.1,0.3,0.2
				c0.1,0.1,0.2,0.2,0.2,0.3c0.1,0.1,0.1,0.2,0.1,0.4c0,0.1,0,0.1,0,0.2c0,0.1,0,0.1-0.1,0.2c0,0.1,0,0.1-0.1,0.2
				c0,0-0.1,0.1-0.1,0.2c-0.1,0.1-0.2,0.2-0.3,0.2C61.6,35.5,61.4,35.5,61.3,35.5z"/>
		</g>
		<g>
			<path d="M40.6,62c0-0.6,0.4-1,0.9-1.1l0,0c0.5,0,1,0.4,1.1,0.9l0,0c0,0.6-0.4,1-0.9,1.1l0,0l0,0l0,0c0,0,0,0-0.1,0l0,0
				C41,63,40.6,62.5,40.6,62z M35,62.5c-0.5-0.1-0.9-0.7-0.8-1.2l0,0c0.1-0.5,0.6-0.9,1.2-0.8l0,0c0.5,0.1,0.9,0.6,0.8,1.2l0,0
				c-0.1,0.5-0.5,0.8-1,0.8l0,0C35.1,62.5,35,62.5,35,62.5z M46.9,60.9c-0.2-0.5,0.1-1.1,0.6-1.3l0,0c0.5-0.2,1.1,0.1,1.3,0.6l0,0
				c0.2,0.5-0.1,1.1-0.6,1.3l0,0c-0.1,0-0.2,0.1-0.4,0.1l0,0C47.4,61.6,47,61.3,46.9,60.9z M28.7,60c-0.5-0.3-0.7-0.9-0.4-1.4l0,0
				c0.3-0.5,0.9-0.7,1.4-0.4l0,0c0.5,0.3,0.6,0.9,0.4,1.4l0,0c-0.2,0.3-0.5,0.5-0.9,0.5l0,0C29,60.2,28.9,60.1,28.7,60z M52.6,58.1
				c-0.3-0.4-0.2-1.1,0.2-1.4l0,0c0.4-0.3,1.1-0.2,1.4,0.2l0,0c0.3,0.4,0.2,1.1-0.2,1.4l0,0l0,0l0,0c-0.2,0.1-0.4,0.2-0.6,0.2l0,0
				C53.1,58.5,52.8,58.3,52.6,58.1z M23.4,56L23.4,56L23.4,56c-0.4-0.4-0.4-1,0-1.4l0,0c0.4-0.4,1-0.4,1.4,0l0,0
				c0.4,0.4,0.4,1,0,1.4l0,0c-0.2,0.2-0.4,0.3-0.7,0.3l0,0C23.9,56.3,23.6,56.1,23.4,56z M57.3,53.7c-0.5-0.3-0.6-1-0.2-1.4l0,0
				c0.3-0.5,1-0.5,1.4-0.2l0,0c0.4,0.3,0.5,0.9,0.2,1.4l0,0c-0.2,0.3-0.5,0.4-0.8,0.4l0,0C57.7,53.8,57.5,53.8,57.3,53.7z
				 M19.5,50.5C19.5,50.5,19.5,50.5,19.5,50.5L19.5,50.5c-0.3-0.5-0.1-1.1,0.4-1.3l0,0c0.5-0.2,1.1-0.1,1.3,0.4l0,0
				c0.2,0.5,0.1,1.1-0.4,1.3l0,0C20.7,51,20.6,51,20.4,51l0,0C20.1,51,19.7,50.8,19.5,50.5z M60.5,48.1c-0.5-0.2-0.8-0.8-0.6-1.3
				l0,0c0.2-0.5,0.8-0.8,1.3-0.6l0,0c0.5,0.2,0.8,0.8,0.6,1.3l0,0c-0.1,0.4-0.5,0.7-0.9,0.7l0,0C60.7,48.2,60.6,48.1,60.5,48.1z
				 M17.4,44.2c-0.1-0.5,0.3-1.1,0.8-1.2l0,0c0.5-0.1,1.1,0.3,1.2,0.8l0,0c0.1,0.5-0.3,1.1-0.8,1.2l0,0c-0.1,0-0.1,0-0.2,0l0,0
				C17.9,45,17.5,44.6,17.4,44.2z M62,41.9c-0.6,0-1-0.5-1-1l0,0c0-0.5,0.5-1,1-1l0,0c0.5,0,1,0.5,1,1l0,0
				C63,41.5,62.5,41.9,62,41.9L62,41.9C62,41.9,62,41.9,62,41.9z M18,38.6c-0.5-0.1-0.9-0.6-0.9-1.1l0,0c0-0.6,0.5-1,1.1-0.9l0,0
				c0.5,0.1,0.9,0.5,0.9,1.1l0,0c-0.1,0.5-0.5,0.9-1,0.9l0,0C18.1,38.6,18.1,38.6,18,38.6z M19.3,32.3c-0.5-0.2-0.7-0.8-0.5-1.3l0,0
				c0.2-0.5,0.8-0.8,1.3-0.5l0,0c0.5,0.2,0.7,0.8,0.5,1.3l0,0c-0.2,0.4-0.5,0.6-0.9,0.6l0,0C19.6,32.4,19.5,32.4,19.3,32.3z
				 M22.4,26.7c-0.4-0.4-0.5-1-0.1-1.4l0,0c0.4-0.4,1-0.5,1.4-0.1l0,0c0.4,0.3,0.5,1,0.1,1.4l0,0c-0.2,0.2-0.5,0.4-0.8,0.4l0,0
				C22.9,26.9,22.6,26.9,22.4,26.7z M27,22.2c-0.3-0.5-0.2-1.1,0.3-1.4l0,0l0,0l0,0c0.5-0.3,1.1-0.2,1.4,0.3l0,0
				c0.3,0.5,0.2,1.1-0.3,1.4l0,0c-0.2,0.1-0.4,0.2-0.5,0.2l0,0C27.5,22.7,27.2,22.5,27,22.2z M32.7,19.2c-0.2-0.5,0.1-1.1,0.7-1.2
				l0,0l0,0l0,0c0.5-0.2,1.1,0.1,1.2,0.7l0,0c0.2,0.5-0.1,1.1-0.7,1.2l0,0c-0.1,0-0.2,0-0.3,0l0,0C33.2,19.9,32.8,19.6,32.7,19.2z
				 M46,19.9c-0.5-0.2-0.8-0.7-0.7-1.2l0,0c0.2-0.5,0.7-0.8,1.2-0.7l0,0c0.5,0.2,0.8,0.7,0.7,1.2l0,0c-0.1,0.4-0.5,0.7-1,0.7l0,0
				C46.2,19.9,46.1,19.9,46,19.9z M40,19L40,19L40,19L40,19L40,19z M39,18c0-0.5,0.4-1,1-1l0,0c0.5,0,1,0.5,1,1l0,0c0,0.5-0.5,1-1,1
				l0,0C39.4,19,39,18.6,39,18z"/>
		</g>
		<g>
			<path d="M52.2,22.7c-0.3,0-0.5-0.1-0.7-0.3c-0.2-0.2-0.3-0.4-0.3-0.7c0-0.3,0.1-0.5,0.3-0.7c0.4-0.4,1-0.4,1.4,0
				c0.2,0.2,0.3,0.4,0.3,0.7c0,0.3-0.1,0.5-0.3,0.7C52.7,22.6,52.4,22.7,52.2,22.7z"/>
		</g>
	</g>
</g>
</svg>
