<?xml version="1.0" encoding="UTF-8"?><svg id="a" xmlns="http://www.w3.org/2000/svg" viewBox="0 0 80 80"><path d="M31.46973,37.46973l-6,6c-.29297,.29297-.29297,.76758,0,1.06055l6,6,1.06055-1.06055-5.46973-5.46973,5.46973-5.46973-1.06055-1.06055Z"/><path d="M48.53027,37.46973l-1.06055,1.06055,5.46973,5.46973-5.46973,5.46973,1.06055,1.06055,6-6c.29297-.29297,.29297-.76758,0-1.06055l-6-6Z"/><rect x="27.18399" y="43.25015" width="25.63201" height="1.4997" transform="translate(-15.24007 66.01216) rotate(-69.45269)"/><path d="M9.25,16v48c0,.41406,.33594,.75,.75,.75h60c.41406,0,.75-.33594,.75-.75V16c0-.41406-.33594-.75-.75-.75H10c-.41406,0-.75,.33594-.75,.75Zm1.5,.75h58.5v6.5H10.75v-6.5Zm0,8h58.5V63.25H10.75V24.75Z"/><circle cx="16" cy="20" r="1"/><circle cx="22" cy="20" r="1"/><circle cx="28" cy="20" r="1"/></svg>