<?xml version="1.0" encoding="UTF-8"?><svg id="a" xmlns="http://www.w3.org/2000/svg" viewBox="0 0 80 80"><path d="M10,62.75h7.25v2.5h-3.25v1.5h8v-1.5h-3.25v-2.5h7.25c.41406,0,.75-.33594,.75-.75v-10c0-.41406-.33594-.75-.75-.75H10c-.41406,0-.75,.33594-.75,.75v10c0,.41406,.33594,.75,.75,.75Zm.75-10h14.5v8.5H10.75v-8.5Z"/><path d="M55.40039,63.1416h13.59961c.96484,0,1.75-.78516,1.75-1.75v-8.18311c0-.96484-.78516-1.75-1.75-1.75h-13.59961c-.96484,0-1.75,.78516-1.75,1.75v8.18311c0,.96484,.78516,1.75,1.75,1.75Zm-.25-9.93311c0-.1377,.1123-.25,.25-.25h13.59961c.1377,0,.25,.1123,.25,.25v8.18311c0,.1377-.1123,.25-.25,.25h-13.59961c-.1377,0-.25-.1123-.25-.25v-8.18311Z"/><rect x="52" y="65.25" width="20" height="1.5"/><path d="M37.00488,66.75h6c.96484,0,1.75-.78516,1.75-1.75v-12c0-.96484-.78516-1.75-1.75-1.75h-6c-.96484,0-1.75,.78516-1.75,1.75v12c0,.96484,.78516,1.75,1.75,1.75Zm-.25-13.75c0-.1377,.1123-.25,.25-.25h6c.1377,0,.25,.1123,.25,.25v12c0,.1377-.1123,.25-.25,.25h-6c-.1377,0-.25-.1123-.25-.25v-12Z"/><path d="M39.25,8v29.32587c-2.26172,.36261-4,2.31183-4,4.67413,0,2.61914,2.13086,4.75,4.75,4.75s4.75-2.13086,4.75-4.75c0-2.3623-1.73828-4.31152-4-4.67413V8h-1.5Zm4,34c0,1.79199-1.45801,3.25-3.25,3.25s-3.25-1.45801-3.25-3.25,1.45801-3.25,3.25-3.25,3.25,1.45801,3.25,3.25Z"/><path d="M47.25,8V29.74072c0,.41406,.33594,.75,.75,.75h13.25v6.83514c-2.26172,.36261-4,2.31183-4,4.67413,0,2.61914,2.13086,4.75,4.75,4.75s4.75-2.13086,4.75-4.75c0-2.3623-1.73828-4.31152-4-4.67413v-7.58514c0-.41406-.33594-.75-.75-.75h-13.25V8h-1.5Zm18,34c0,1.79199-1.45801,3.25-3.25,3.25s-3.25-1.45801-3.25-3.25,1.45801-3.25,3.25-3.25,3.25,1.45801,3.25,3.25Z"/><path d="M32,30.75c.41406,0,.75-.33594,.75-.75V8h-1.5V29.25h-13.25c-.41406,0-.75,.33594-.75,.75v7.32587c-2.26172,.36261-4,2.31183-4,4.67413,0,2.61914,2.13086,4.75,4.75,4.75s4.75-2.13086,4.75-4.75c0-2.3623-1.73828-4.31152-4-4.67413v-6.57587h13.25Zm-10.75,11.25c0,1.79199-1.45801,3.25-3.25,3.25s-3.25-1.45801-3.25-3.25,1.45801-3.25,3.25-3.25,3.25,1.45801,3.25,3.25Z"/></svg>