<?xml version="1.0" encoding="UTF-8"?><svg id="a" xmlns="http://www.w3.org/2000/svg" viewBox="0 0 80 80"><path d="M70.53027,39.46973l-4-4-1.06055,1.06055,2.71973,2.71973h-5.51538c-.36255-2.26172-2.31177-4-4.67407-4-2.61914,0-4.75,2.13086-4.75,4.75,0,2.3623,1.73828,4.31152,4,4.67407v20.57593h-12.57593c-.323-2.01575-1.90845-3.60095-3.92407-3.92407V18.67407c2.26172-.36255,4-2.31177,4-4.67407,0-2.61914-2.13086-4.75-4.75-4.75-2.3623,0-4.31152,1.73828-4.67407,4h-11.32593c-.41406,0-.75,.33594-.75,.75v25.25h-4.57593c-.36255-2.26172-2.31177-4-4.67407-4-2.61914,0-4.75,2.13086-4.75,4.75s2.13086,4.75,4.75,4.75c2.3623,0,4.31152-1.73828,4.67407-4h5.32593c.41406,0,.75-.33594,.75-.75V14.75h10.57593c.323,2.01575,1.90845,3.60095,3.92407,3.92407V61.32593c-2.26172,.36255-4,2.31177-4,4.67407,0,2.61914,2.13086,4.75,4.75,4.75,2.3623,0,4.31152-1.73828,4.67407-4h13.32593c.41406,0,.75-.33594,.75-.75v-21.32593c2.01562-.32312,3.60107-1.90833,3.92407-3.92407h5.51538l-2.71973,2.71973,1.06055,1.06055,4-4c.29297-.29297,.29297-.76758,0-1.06055Zm-56.53027,3.78027c-1.79199,0-3.25-1.45801-3.25-3.25s1.45801-3.25,3.25-3.25,3.25,1.45801,3.25,3.25-1.45801,3.25-3.25,3.25ZM36.75,14c0-1.79199,1.45801-3.25,3.25-3.25s3.25,1.45801,3.25,3.25-1.45801,3.25-3.25,3.25-3.25-1.45801-3.25-3.25Zm3.25,55.25c-1.79199,0-3.25-1.45801-3.25-3.25s1.45801-3.25,3.25-3.25,3.25,1.45801,3.25,3.25-1.45801,3.25-3.25,3.25Zm18-26c-1.79199,0-3.25-1.45801-3.25-3.25s1.45801-3.25,3.25-3.25,3.25,1.45801,3.25,3.25-1.45801,3.25-3.25,3.25Z"/><polygon points="30.53027 42.53027 32 41.06055 33.46973 42.53027 34.53027 41.46973 33.06055 40 34.53027 38.53027 33.46973 37.46973 32 38.93945 30.53027 37.46973 29.46973 38.53027 30.93945 40 29.46973 41.46973 30.53027 42.53027"/><polygon points="49.46973 37.46973 48 38.93945 46.53027 37.46973 45.46973 38.53027 46.93945 40 45.46973 41.46973 46.53027 42.53027 48 41.06055 49.46973 42.53027 50.53027 41.46973 49.06055 40 50.53027 38.53027 49.46973 37.46973"/></svg>