<?xml version="1.0" encoding="UTF-8"?><svg id="a" xmlns="http://www.w3.org/2000/svg" viewBox="0 0 80 80"><path d="M9.25,65.87256c0,.41406,.33594,.75,.75,.75h60c.41406,0,.75-.33594,.75-.75v-16c0-.41406-.33594-.75-.75-.75h-29.25V29.87256h-1.5v19.25H10c-.41406,0-.75,.33594-.75,.75v16Zm1.5-15.25h58.5v14.5H10.75v-14.5Z"/><rect x="34" y="57.12256" width="30" height="1.5"/><circle cx="16" cy="57.97876" r="1"/><circle cx="22" cy="57.97876" r="1"/><circle cx="28" cy="57.97876" r="1"/><circle cx="40" cy="23.97876" r="1"/><path d="M28.8623,12.0874l-1.02539-1.09473c-3.57812,3.35303-5.62988,8.08643-5.62988,12.98584,0,4.81738,1.89453,9.32861,5.33398,12.70264l1.05078-1.07129c-3.15039-3.08936-4.88477-7.22021-4.88477-11.63135,0-4.55273,1.83105-8.77539,5.15527-11.89111Z"/><path d="M57.79297,23.97852c0-4.88867-1.94238-9.44629-5.46973-12.83398l-1.03906,1.08203c3.22949,3.10205,5.00879,7.27539,5.00879,11.75195,0,4.35107-1.69531,8.44287-4.77246,11.521l1.06055,1.06055c3.36133-3.36133,5.21191-7.82959,5.21191-12.58154Z"/><path d="M35.66797,20.31152c-.86621,1.02344-1.34375,2.32568-1.34375,3.66699,0,1.22217,.38281,2.38721,1.10645,3.36719,.10352,.14062,.21387,.27588,.33008,.40625l1.12109-.99609c-.08496-.09619-.16602-.19531-.24316-.2998-.5332-.72168-.81445-1.57812-.81445-2.47754,0-.98682,.35059-1.94482,.98828-2.69824l-1.14453-.96875Z"/><path d="M43.12598,26.74707l1.12305,.99512c.10938-.12354,.21289-.25146,.31055-.38281,.73047-.98389,1.11621-2.15283,1.11621-3.38086,0-1.17432-.35547-2.30127-1.02734-3.25684-.10254-.14746-.21387-.29004-.33203-.42773l-1.13867,.97559c.08496,.09961,.16504,.20312,.24219,.3125,.49414,.7041,.75586,1.53271,.75586,2.39648,0,.90332-.28418,1.76318-.82129,2.4873-.07227,.09717-.14844,.19092-.22852,.28125Z"/><path d="M31.33496,31.64551l1.11914-.99805c-.20605-.23145-.40137-.47217-.58594-.72217-1.28809-1.74414-1.96875-3.81689-1.96875-5.99365,0-2.38965,.84863-4.70703,2.39062-6.52637l-1.14453-.96973c-1.77051,2.08984-2.74609,4.75195-2.74609,7.49609,0,2.5,.78223,4.88037,2.26172,6.88428,.21191,.28711,.43652,.56396,.67383,.82959Z"/><path d="M47.56152,30.62988l1.12305,.99316c.22266-.25146,.43555-.51221,.63574-.78223,1.49121-2.00977,2.28027-4.39893,2.28027-6.90918,0-2.40039-.72656-4.70312-2.10059-6.66016-.21094-.30029-.43652-.58984-.67285-.86816l-1.14258,.97168c.20703,.24316,.40332,.49561,.58789,.7583,1.19629,1.70312,1.82812,3.7085,1.82812,5.79834,0,2.18555-.68652,4.26562-1.98535,6.01562-.1748,.23584-.36035,.46338-.55371,.68262Z"/></svg>