<?xml version="1.0" encoding="UTF-8"?><svg id="a" xmlns="http://www.w3.org/2000/svg" viewBox="0 0 80 80"><path d="M40,9.25c-13.5459,0-25.34766,8.68311-29.36719,21.60645l1.43164,.44531c3.82422-12.29248,15.05078-20.55176,27.93555-20.55176,16.12891,0,29.25,13.12158,29.25,29.25s-13.12109,29.25-29.25,29.25c-12.06641,0-22.74121-7.24561-27.19531-18.45898l-1.39453,.55371c4.68262,11.78809,15.9043,19.40527,28.58984,19.40527,16.95605,0,30.75-13.79443,30.75-30.75s-13.79395-30.75-30.75-30.75Z"/><path d="M24.71582,27.72412c-1.91113,0-3.46582,1.55469-3.46582,3.46582s1.55469,3.46582,3.46582,3.46582c1.01562,0,1.92139-.44678,2.55591-1.14502l4.64526,2.66895c-2.00928,.39307-3.53125,2.16309-3.53125,4.28564,0,1.71619,1.00317,3.1897,2.4458,3.90454l-3.60596,2.12903c-.63208-.66736-1.52026-1.08923-2.50977-1.08923-1.91113,0-3.46582,1.55469-3.46582,3.46582s1.55469,3.46582,3.46582,3.46582,3.46582-1.55469,3.46582-3.46582c0-.38171-.0769-.74255-.19141-1.08618l5.00122-2.95288h6.25757v9.4502c-1.55078,.34424-2.71582,1.72583-2.71582,3.37891,0,1.91113,1.55469,3.46582,3.46582,3.46582s3.46582-1.55469,3.46582-3.46582c0-1.65308-1.16504-3.03467-2.71582-3.37891v-9.4502h6.11768l5.16626,2.96948c-.11108,.33899-.18628,.69409-.18628,1.06958,0,1.91113,1.55469,3.46582,3.46582,3.46582,1.91016,0,3.46484-1.55469,3.46484-3.46582s-1.55469-3.46582-3.46484-3.46582c-.99561,0-1.8877,.42773-2.52026,1.10205l-3.45581-1.98633c1.33691-.57935,2.27588-1.90918,2.27588-3.45654,0-2.07764-1.69043-3.76758-3.76758-3.76758-.44141,0-.87305,.07812-1.28223,.22998-.03247-.12524-.0874-.2395-.12646-.36157l6.34546-3.62866c.6333,.6814,1.52954,1.11475,2.53101,1.11475,1.91016,0,3.46484-1.55469,3.46484-3.46582s-1.55469-3.46582-3.46484-3.46582c-1.91113,0-3.46582,1.55469-3.46582,3.46582,0,.37012,.07373,.71997,.18164,1.05457l-6.20752,3.54968c-1.06104-1.79309-2.90967-3.02161-5.07178-3.25793v-6.797c1.55078-.34424,2.71582-1.72583,2.71582-3.37891,0-1.91113-1.55469-3.46582-3.46582-3.46582s-3.46582,1.55469-3.46582,3.46582c0,1.65308,1.16504,3.03467,2.71582,3.37891v6.78809c-2.09619,.23633-3.9563,1.44556-5.04077,3.23804l-6.19604-3.55981c.1001-.32324,.16943-.65991,.16943-1.01562,0-1.91113-1.55469-3.46582-3.46582-3.46582Zm0,5.43164c-1.08398,0-1.96582-.88184-1.96582-1.96582s.88184-1.96582,1.96582-1.96582,1.96582,.88184,1.96582,1.96582-.88184,1.96582-1.96582,1.96582Zm0,17.68555c-1.08398,0-1.96582-.88184-1.96582-1.96582s.88184-1.96582,1.96582-1.96582,1.96582,.88184,1.96582,1.96582-.88184,1.96582-1.96582,1.96582Zm30.59668-3.93164c1.08301,0,1.96484,.88184,1.96484,1.96582s-.88184,1.96582-1.96484,1.96582c-1.08398,0-1.96582-.88184-1.96582-1.96582s.88184-1.96582,1.96582-1.96582Zm0-17.68555c1.08301,0,1.96484,.88184,1.96484,1.96582s-.88184,1.96582-1.96484,1.96582c-1.08398,0-1.96582-.88184-1.96582-1.96582s.88184-1.96582,1.96582-1.96582Zm-13.34766,28.44141c0,1.08398-.88184,1.96582-1.96582,1.96582s-1.96582-.88184-1.96582-1.96582,.88184-1.96582,1.96582-1.96582,1.96582,.88184,1.96582,1.96582Zm-3.93164-35.30518c0-1.08398,.88184-1.96582,1.96582-1.96582s1.96582,.88184,1.96582,1.96582-.88184,1.96582-1.96582,1.96582-1.96582-.88184-1.96582-1.96582Zm-4.03125,15.52197c.19238,.09326,.41211,.1001,.60938,.02002s.35059-.23975,.42285-.43945c.75586-2.08691,2.75098-3.48926,4.96484-3.48926,2.74512,0,5.00586,2.05859,5.25977,4.78809,.02539,.27246,.19727,.50977,.44824,.61865,.25293,.1084,.54199,.07275,.75879-.09521,.4082-.31641,.88477-.48389,1.37891-.48389,1.25,0,2.26758,1.01709,2.26758,2.26758s-1.01758,2.26758-2.26758,2.26758h-15.08789c-1.58301,0-2.87109-1.28809-2.87109-2.87109s1.28809-2.87061,2.87109-2.87061c.43262,0,.85156,.09668,1.24512,.2876Z"/><path d="M19.25,39.25h-2.57593c-.34839-1.70972-1.86353-3-3.67407-3-2.06738,0-3.75,1.68213-3.75,3.75s1.68262,3.75,3.75,3.75c1.81055,0,3.32568-1.29028,3.67407-3h2.57593v2h1.5v-2h2.5v2h1.5v-2h1.25v-1.5h-6.75Zm-6.25,3c-1.24023,0-2.25-1.00928-2.25-2.25s1.00977-2.25,2.25-2.25,2.25,1.00928,2.25,2.25-1.00977,2.25-2.25,2.25Z"/></svg>