<?xml version="1.0" encoding="UTF-8"?><svg id="a" xmlns="http://www.w3.org/2000/svg" viewBox="0 0 80 80"><rect x="40" y="41.25" width="12" height="1.5"/><path d="M24,60.75H56c.41406,0,.75-.33594,.75-.75V24c0-.41406-.33594-.75-.75-.75H24c-.41406,0-.75,.33594-.75,.75V60c0,.41406,.33594,.75,.75,.75Zm.75-36h30.5v10.5H24.75v-10.5Zm0,12h30.5v10.5H24.75v-10.5Zm0,12h30.5v10.5H24.75v-10.5Z"/><rect x="40" y="53.25" width="12" height="1.5"/><rect x="40" y="29.25" width="12" height="1.5"/><path d="M40.75,11.81055l2.71973,2.71973,1.06055-1.06055-4-4c-.29297-.29297-.76758-.29297-1.06055,0l-4,4,1.06055,1.06055,2.71973-2.71973v7.43945H20c-.41406,0-.75,.33594-.75,.75v44c0,.41406,.33594,.75,.75,.75h19.25v7.25h1.5v-7.25h19.25c.41406,0,.75-.33594,.75-.75V20c0-.41406-.33594-.75-.75-.75h-19.25v-7.43945Zm18.5,8.93945V63.25H20.75V20.75H59.25Z"/><path d="M66.73438,11.25l2.16699-3.25h-1.80273l-2.38965,3.58398c-.15332,.22998-.16797,.52588-.03711,.77002,.13086,.24365,.38477,.396,.66113,.396h3.93262l-2.16699,3.25h1.80273l2.38965-3.58398c.15332-.22998,.16797-.52588,.03711-.77002-.13086-.24365-.38477-.396-.66113-.396h-3.93262Z"/><circle cx="28" cy="30" r="1"/><circle cx="32" cy="30" r="1"/><circle cx="36" cy="30" r="1"/><circle cx="28" cy="42" r="1"/><circle cx="32" cy="42" r="1"/><circle cx="36" cy="42" r="1"/><circle cx="28" cy="54" r="1"/><circle cx="32" cy="54" r="1"/><circle cx="36" cy="54" r="1"/></svg>