<?xml version="1.0" encoding="UTF-8"?><svg id="a" xmlns="http://www.w3.org/2000/svg" viewBox="0 0 80 80"><path d="M32.39844,38.39844l1.06055,1.06055c3.60742-3.60645,9.47461-3.60645,13.08203,0l1.06055-1.06055c-4.19141-4.19141-11.01172-4.19141-15.20312,0Z"/><path d="M42.54102,43.80225l1.06055-1.06055c-1.98633-1.98535-5.2168-1.98535-7.20312,0l1.06055,1.06055c1.40039-1.40039,3.68164-1.40039,5.08203,0Z"/><path d="M52.53027,34.44043c-3.34668-3.34717-7.79688-5.19043-12.53027-5.19043s-9.18359,1.84326-12.53027,5.19043l1.06055,1.06055c3.06348-3.06348,7.13672-4.75098,11.46973-4.75098s8.40625,1.6875,11.46973,4.75098l1.06055-1.06055Z"/><path d="M66.75,40c0-12.4668-8.46191-23.17236-20.57715-26.03418l-.3457,1.45996c11.43652,2.70117,19.42285,12.80615,19.42285,24.57422,0,13.92285-11.32715,25.25-25.25,25.25h-.18945l2.71973-2.71973-1.06055-1.06055-4.53027,4.53027,4.53027,4.53027,1.06055-1.06055-2.71973-2.71973h.18945c14.75,0,26.75-12,26.75-26.75Z"/><path d="M14.75,40c0-13.92285,11.32715-25.25,25.25-25.25h.18945l-2.71973,2.71973,1.06055,1.06055,4.53027-4.53027-4.53027-4.53027-1.06055,1.06055,2.71973,2.71973h-.18945c-14.75,0-26.75,12-26.75,26.75,0,12.4668,8.46191,23.17236,20.57715,26.03418l.3457-1.45996c-11.43652-2.70117-19.42285-12.80615-19.42285-24.57422Z"/><circle cx="40.00049" cy="47.00006" r="1"/></svg>