<?xml version="1.0" encoding="UTF-8"?><svg id="a" xmlns="http://www.w3.org/2000/svg" viewBox="0 0 80 80"><path d="M45.55273,42.04736c-1.80371-1.80371-4.20215-2.79736-6.75293-2.79736s-4.94922,.99316-6.75293,2.79736c-3.72363,3.72363-3.72363,9.78174,0,13.50537,1.86133,1.86182,4.30762,2.79297,6.75293,2.79297,2.21021,0,4.41675-.76843,6.1958-2.28949l6.47412,6.47406,1.06055-1.06055-6.47412-6.47412c3.20386-3.74799,3.04126-9.40363-.50342-12.94824Zm-1.06055,12.44482c-3.13867,3.13867-8.24609,3.13867-11.38477,0s-3.13867-8.24561,0-11.38428c1.52051-1.52051,3.54199-2.35791,5.69238-2.35791s4.17188,.8374,5.69238,2.35791c3.13867,3.13867,3.13867,8.24561,0,11.38428Z"/><path d="M40,9.25c-9.23633,0-16.75,7.51416-16.75,16.75v7.25h-7.25c-.41406,0-.75,.33594-.75,.75v34.3335c0,.41406,.33594,.75,.75,.75h48c.41406,0,.75-.33594,.75-.75V34c0-.41406-.33594-.75-.75-.75h-7.25v-7.25c0-9.23584-7.51367-16.75-16.75-16.75Zm-15.25,16.75c0-8.40869,6.84082-15.25,15.25-15.25s15.25,6.84131,15.25,15.25v7.25H24.75v-7.25Zm38.5,8.75v32.8335H16.75V34.75H63.25Z"/></svg>