<svg id="DO_NOT_TOUCH_Outlines_" data-name="DO NOT TOUCH (Outlines)" xmlns="http://www.w3.org/2000/svg" viewBox="0 0 80 80"><path d="M68,19.25H12A2.75,2.75,0,0,0,9.25,22V56A2.75,2.75,0,0,0,12,58.75H39.25v2.5H26v1.5H54v-1.5H40.75v-2.5H68A2.75,2.75,0,0,0,70.75,56V22A2.75,2.75,0,0,0,68,19.25Zm-56,1.5H68A1.25,1.25,0,0,1,69.25,22V51.25H10.75V22A1.25,1.25,0,0,1,12,20.75Zm56,36.5H12A1.25,1.25,0,0,1,10.75,56V52.75h58.5V56A1.25,1.25,0,0,1,68,57.25Z"/><path d="M40,37.75A5.26,5.26,0,0,1,45.25,43h1.5a6.75,6.75,0,0,0-4-6.15,4.75,4.75,0,1,0-5.52,0,6.75,6.75,0,0,0-4,6.15h1.5A5.26,5.26,0,0,1,40,37.75ZM36.75,33A3.25,3.25,0,1,1,40,36.25,3.26,3.26,0,0,1,36.75,33Z"/><path d="M57,37.75A5.26,5.26,0,0,1,62.25,43h1.5a6.75,6.75,0,0,0-4-6.15,4.75,4.75,0,1,0-5.52,0,6.75,6.75,0,0,0-4,6.15h1.5A5.26,5.26,0,0,1,57,37.75ZM53.75,33A3.25,3.25,0,1,1,57,36.25,3.26,3.26,0,0,1,53.75,33Z"/><path d="M23,37.75A5.26,5.26,0,0,1,28.25,43h1.5a6.75,6.75,0,0,0-4-6.15,4.75,4.75,0,1,0-5.52,0,6.75,6.75,0,0,0-4,6.15h1.5A5.26,5.26,0,0,1,23,37.75ZM19.75,33A3.25,3.25,0,1,1,23,36.25,3.26,3.26,0,0,1,19.75,33Z"/></svg>