<?xml version="1.0" encoding="UTF-8"?><svg id="a" xmlns="http://www.w3.org/2000/svg" viewBox="0 0 80 80"><path d="M12,60.75h27.25v2.5h-11.25v1.5h24v-1.5h-11.25v-2.5h27.25c1.5166,0,2.75-1.2334,2.75-2.75V22c0-1.5166-1.2334-2.75-2.75-2.75H12c-1.5166,0-2.75,1.2334-2.75,2.75V58c0,1.5166,1.2334,2.75,2.75,2.75Zm-1.25-38.75c0-.68945,.56055-1.25,1.25-1.25h56c.68945,0,1.25,.56055,1.25,1.25V58c0,.68945-.56055,1.25-1.25,1.25H12c-.68945,0-1.25-.56055-1.25-1.25V22Z"/><path d="M67.46973,9.46973l-3.46973,3.46973v2.12109l4-4,4,4v-2.12109l-3.46973-3.46973c-.29297-.29297-.76758-.29297-1.06055,0Z"/><path d="M25.33887,44.29785h1.42188c.08301,0,.15039-.06689,.15039-.1499v-3.33887h3.23242v3.33887c0,.08301,.06738,.1499,.15039,.1499h1.43359c.08301,0,.15039-.06689,.15039-.1499v-8c0-.08301-.06738-.1499-.15039-.1499h-1.43359c-.08301,0-.15039,.06689-.15039,.1499v3.25h-3.23242v-3.25c0-.08301-.06738-.1499-.15039-.1499h-1.42188c-.08301,0-.15039,.06689-.15039,.1499v8c0,.08301,.06738,.1499,.15039,.1499Z"/><path d="M34.14941,44.29785c.0498,0,.09668-.0249,.125-.06641l1.89648-2.8335,1.85352,2.83203c.02832,.04248,.0752,.06787,.12598,.06787h1.72168c.05566,0,.10645-.03076,.13281-.07959,.02539-.04932,.02246-.10889-.00879-.15479l-2.80762-4.12402,2.66113-3.7041c.03223-.04541,.03711-.10596,.01172-.15576-.02637-.05029-.07715-.08154-.13379-.08154h-1.54492c-.0498,0-.0957,.02441-.12402,.06543l-1.75195,2.56201-1.72168-2.56104c-.02734-.0415-.07422-.06641-.12402-.06641h-1.68945c-.05566,0-.10742,.03076-.13281,.08008-.02637,.0498-.02246,.10938,.00977,.15527l2.61914,3.78125-2.80762,4.04785c-.03223,.0459-.03613,.10547-.00977,.15479,.02539,.0498,.07715,.08057,.13281,.08057h1.56641Z"/><path d="M40.72754,44.29785h2.72168c1.17969,0,2.13965-.30322,2.85254-.90186,.85352-.72266,1.28711-1.81592,1.28711-3.24854,0-1.28467-.32324-2.29102-.96094-2.99023-.70215-.76904-1.75977-1.15918-3.14551-1.15918h-2.75488c-.08301,0-.15039,.06689-.15039,.1499v8c0,.08301,.06738,.1499,.15039,.1499Zm1.57227-6.94482h1.19434c.69629,0,1.24902,.19482,1.63965,.5791,.47949,.47266,.72168,1.21777,.72168,2.21533,0,.86572-.18359,1.5415-.54688,2.00928-.38965,.50684-.99316,.76367-1.79199,.76367h-1.2168v-5.56738Z"/><path d="M48.68359,44.29785h1.42188c.08301,0,.15039-.06689,.15039-.1499v-2.62793h1.13867c2.26758,0,3.41699-.92139,3.41699-2.73877,0-1.84668-1.14941-2.7832-3.41699-2.7832h-2.71094c-.08301,0-.15039,.06689-.15039,.1499v8c0,.08301,.06738,.1499,.15039,.1499Zm1.57227-6.93359h1.16113c.49707,0,.88867,.10547,1.16211,.3125,.30566,.23926,.4541,.6001,.4541,1.10449,0,.92334-.52832,1.37207-1.61621,1.37207h-1.16113v-2.78906Z"/></svg>