<?xml version="1.0" encoding="UTF-8"?><svg id="a" xmlns="http://www.w3.org/2000/svg" viewBox="0 0 80 80"><path d="M39.25,8v12.18945l-4.71973-4.71973-1.06055,1.06055,6,6c.14648,.14648,.33789,.21973,.53027,.21973s.38379-.07324,.53027-.21973l6-6-1.06055-1.06055-4.71973,4.71973V8h-1.5Z"/><path d="M20,66.75H61.66699c5.00879,0,9.08301-4.07471,9.08301-9.0835,0-5.0083-4.07422-9.08301-9.08301-9.08301-1.58301,0-3.11426,.41846-4.49023,1.21875-1.37109-8.37842-8.5498-14.55225-17.17676-14.55225-7.03125,0-13.39258,4.28809-16.07422,10.75098-1.25684-.49854-2.57422-.75098-3.92578-.75098-5.92773,0-10.75,4.82227-10.75,10.75s4.82227,10.75,10.75,10.75Zm0-20c1.3916,0,2.74219,.31201,4.01562,.92773,.19043,.09229,.41309,.09912,.60938,.01953,.19629-.08008,.34961-.23975,.42188-.43945,2.27441-6.28516,8.2832-10.50781,14.95312-10.50781,8.26465,0,15.0752,6.2002,15.84082,14.42236,.02539,.27295,.19727,.50977,.44824,.61865,.25293,.10889,.54199,.07129,.75879-.09521,1.35938-1.05469,2.95703-1.6123,4.61914-1.6123,4.18164,0,7.58301,3.40186,7.58301,7.58301,0,4.18164-3.40137,7.5835-7.58301,7.5835H20c-5.10059,0-9.25-4.14941-9.25-9.25s4.14941-9.25,9.25-9.25Z"/><path d="M19.25,20v10c0,.41406,.33594,.75,.75,.75H60c.41406,0,.75-.33594,.75-.75v-10h-1.5v9.25H20.75v-9.25h-1.5Z"/></svg>