<?xml version="1.0" encoding="UTF-8"?><svg id="a" xmlns="http://www.w3.org/2000/svg" viewBox="0 0 80 80"><path d="M54.75,40.24768c5.91211-2.09705,10-7.86829,10-14.24768v-2h-1.5v2c0,5.5686-3.44824,10.62903-8.5,12.65552v-4.65552c0-.41406-.33594-.75-.75-.75H26c-.41406,0-.75,.33594-.75,.75v4.65552c-5.05176-2.02649-8.5-7.08691-8.5-12.65552v-2h-1.5v2c0,6.37939,4.08789,12.15063,10,14.24768v7.00232H8v1.5H25.25v3.25c0,1.23853,.17188,2.44189,.46289,3.60278-6.10181,1.93848-10.46289,7.86719-10.46289,14.39722v2h1.5v-2c0-5.87793,3.9165-11.2146,9.39868-12.96362,2.08032,5.78442,7.57593,10.04712,13.85132,10.04712s11.771-4.2627,13.85132-10.04712c5.48218,1.74902,9.39868,7.08569,9.39868,12.96362v2h1.5v-2c0-6.53003-4.36108-12.45874-10.46289-14.39722,.29102-1.16089,.46289-2.36426,.46289-3.60278v-3.25h17.25v-1.5h-17.25v-7.00232Zm-1.5,11.75232c0,7.10376-5.65161,13.12695-12.5,13.54321v-23.54321h-1.5v23.54321c-6.84839-.41626-12.5-6.43945-12.5-13.54321v-17.25h26.5v17.25Z"/><path d="M56.75,10v-2h-1.5v2c0,3.87085-1.64941,7.5144-4.52051,10.12549-2.71436-2.974-6.54639-4.87549-10.72949-4.87549s-8.01514,1.90149-10.72949,4.87549c-2.87109-2.61108-4.52051-6.25464-4.52051-10.12549v-2h-1.5v2c0,4.31909,1.84839,8.38281,5.0647,11.28125-1.90625,2.54297-3.0647,5.68494-3.0647,9.05225,0,.41406,.33594,.75,.75,.75h28c.41406,0,.75-.33594,.75-.75,0-3.36731-1.15845-6.50928-3.0647-9.05225,3.21631-2.89844,5.0647-6.96216,5.0647-11.28125Zm-3.52148,19.5835H26.77148c.39355-7.03076,6.29102-12.8335,13.22852-12.8335s12.83496,5.80273,13.22852,12.8335Z"/></svg>