<?xml version="1.0" encoding="utf-8"?>
<!-- Generator: Adobe Illustrator 28.3.0, SVG Export Plug-In . SVG Version: 6.00 Build 0)  -->
<svg version="1.1" xmlns="http://www.w3.org/2000/svg" xmlns:xlink="http://www.w3.org/1999/xlink" x="0px" y="0px"
	 viewBox="0 0 80 80" style="enable-background:new 0 0 80 80;" xml:space="preserve">
<style type="text/css">
	.st0{display:none;}
	.st1{display:inline;opacity:0.75;}
	.st2{fill:#FFFFFF;}
	.st3{display:inline;}
	.st4{fill:none;stroke:#00FFFF;stroke-width:5.000000e-02;stroke-linecap:round;stroke-miterlimit:10;}
	.st5{fill:none;}
	.st6{opacity:0.22;fill:none;stroke:#FF0000;stroke-width:5.000000e-02;stroke-linecap:round;stroke-miterlimit:10;}
	.st7{opacity:0.22;}
	.st8{fill:none;stroke:#FF0000;stroke-width:5.000000e-02;stroke-linecap:round;stroke-miterlimit:10;}
	.st9{fill:none;stroke:#000000;stroke-width:1.5;stroke-linejoin:round;stroke-miterlimit:10;}
</style>
<g id="border" class="st0">
	<g class="st1">
		<path class="st2" d="M72,8v64H8V8H72 M80,0H0v80h80V0L80,0z"/>
	</g>
</g>
<g id="_x38__grid" class="st0">
	<g class="st3">
		<rect x="8" y="8.3" class="st4" width="8" height="64"/>
		<rect x="16" y="8.3" class="st4" width="8" height="64"/>
		<rect x="24" y="8.3" class="st4" width="8" height="64"/>
		<rect x="32" y="8.3" class="st4" width="8" height="64"/>
		<rect x="40" y="8.3" class="st4" width="8" height="64"/>
		<rect x="48" y="8.3" class="st4" width="8" height="64"/>
		<rect x="56" y="8.3" class="st4" width="8" height="64"/>
		<rect x="64" y="8.3" class="st4" width="8" height="64"/>
	</g>
	<g class="st3">
		<rect x="36" y="36.3" transform="matrix(6.123234e-17 -1 1 6.123234e-17 -28.2588 108.2588)" class="st4" width="8" height="64"/>
		<rect x="36" y="28.3" transform="matrix(6.123234e-17 -1 1 6.123234e-17 -20.2588 100.2588)" class="st4" width="8" height="64"/>
		<rect x="36" y="20.3" transform="matrix(6.123234e-17 -1 1 6.123234e-17 -12.2588 92.2588)" class="st4" width="8" height="64"/>
		<rect x="36" y="12.3" transform="matrix(6.123234e-17 -1 1 6.123234e-17 -4.2588 84.2588)" class="st4" width="8" height="64"/>
		<rect x="36" y="4.3" transform="matrix(6.123234e-17 -1 1 6.123234e-17 3.7412 76.2588)" class="st4" width="8" height="64"/>
		<rect x="36" y="-3.7" transform="matrix(6.123234e-17 -1 1 6.123234e-17 11.7412 68.2588)" class="st4" width="8" height="64"/>
		<rect x="36" y="-11.7" transform="matrix(6.123234e-17 -1 1 6.123234e-17 19.7412 60.2588)" class="st4" width="8" height="64"/>
		<rect x="36" y="-19.7" transform="matrix(6.123234e-17 -1 1 6.123234e-17 27.7412 52.2588)" class="st4" width="8" height="64"/>
	</g>
</g>
<g id="export_frame" class="st0">
</g>
<g id="guide_shapes" class="st0">
	<g class="st3">
		<line class="st6" x1="8" y1="8.3" x2="72" y2="72.3"/>
		<line class="st6" x1="72" y1="8.3" x2="8" y2="72.3"/>
		<line class="st6" x1="8" y1="40.3" x2="72" y2="40.3"/>
		<line class="st6" x1="40" y1="8.3" x2="40" y2="72.3"/>
		<rect x="8" y="8.3" class="st6" width="64" height="64"/>
		<circle class="st6" cx="40" cy="40.3" r="16"/>
		<circle class="st6" cx="40" cy="40.3" r="24"/>
		<rect x="24" y="24.3" class="st6" width="32" height="32"/>
		<circle class="st6" cx="40" cy="40.3" r="30"/>
		<rect x="12" y="12.3" class="st6" width="56" height="56"/>
		<line class="st6" x1="40" y1="40.3" x2="71.9" y2="31.7"/>
		<line class="st6" x1="8.1" y1="48.8" x2="40" y2="40.3"/>
		<g class="st7">
			<line class="st8" x1="40" y1="40.3" x2="71.9" y2="48.8"/>
			<line class="st8" x1="8.1" y1="31.7" x2="40" y2="40.3"/>
		</g>
		<line class="st6" x1="40" y1="40.3" x2="48.5" y2="72.1"/>
		<line class="st6" x1="31.5" y1="8.4" x2="40" y2="40.3"/>
		<line class="st6" x1="40" y1="40.3" x2="31.5" y2="72.1"/>
		<line class="st6" x1="48.5" y1="8.4" x2="40" y2="40.3"/>
		<g class="st7">
			<line class="st8" x1="40" y1="40.3" x2="71.9" y2="48.8"/>
			<line class="st8" x1="8.1" y1="31.7" x2="40" y2="40.3"/>
		</g>
	</g>
</g>
<g id="art">
	<g>
		<path d="M66,48.9H48v-1.5h17.2C64.8,33.9,53.7,23,40,23S15.2,33.9,14.8,47.4H32v1.5H14c-0.4,0-0.8-0.3-0.8-0.8
			c0-14.7,12-26.7,26.8-26.7s26.8,12,26.8,26.7C66.8,48.6,66.4,48.9,66,48.9z"/>
	</g>
	<g>
		<rect x="40.2" y="40.5" transform="matrix(0.7683 -0.6401 0.6401 0.7683 -15.2877 40.2812)" width="15.6" height="1.5"/>
	</g>
	<g>
		<path d="M40.1,51c-0.7,0-1.5-0.3-2-0.8c-0.5-0.5-0.8-1.2-0.8-2c0-0.8,0.3-1.5,0.8-2c1.1-1.1,2.9-1.1,4,0l0,0
			c0.5,0.5,0.8,1.2,0.8,2c0,0.8-0.3,1.5-0.8,2C41.5,50.7,40.8,51,40.1,51z M40.1,46.8c-0.3,0-0.7,0.1-0.9,0.4
			c-0.5,0.5-0.5,1.4,0,1.9c0.5,0.5,1.4,0.5,1.9,0c0.5-0.5,0.5-1.4,0-1.9l0,0C40.8,47,40.4,46.8,40.1,46.8z"/>
	</g>
	<g>
		<path d="M18.2,45.2c-0.5-0.1-0.9-0.6-0.8-1.2l0,0c0.1-0.5,0.6-0.9,1.2-0.8l0,0c0.5,0.1,0.9,0.6,0.8,1.2l0,0
			c-0.1,0.5-0.5,0.8-1,0.8l0,0C18.3,45.3,18.2,45.2,18.2,45.2z M60.4,43.4c-0.1-0.5,0.2-1.1,0.7-1.2l0,0c0.5-0.1,1.1,0.2,1.2,0.7
			l0,0c0.1,0.5-0.2,1.1-0.8,1.2l0,0c-0.1,0-0.1,0-0.2,0l0,0C61,44.2,60.5,43.9,60.4,43.4z M21.7,36c-0.4-0.3-0.5-1-0.2-1.4l0,0l0,0
			l0,0c0.3-0.4,1-0.5,1.4-0.2l0,0c0.5,0.3,0.5,0.9,0.2,1.4v0c-0.2,0.3-0.5,0.4-0.8,0.4l0,0C22.1,36.2,21.9,36.1,21.7,36z M56.2,34.9
			c-0.4-0.4-0.3-1,0.1-1.4l0,0c0.4-0.4,1.1-0.3,1.4,0.1l0,0c0.4,0.4,0.3,1.1-0.1,1.4l0,0c-0.2,0.1-0.4,0.2-0.6,0.2l0,0
			C56.7,35.3,56.4,35.2,56.2,34.9z M29,29.2c-0.3-0.5-0.1-1.1,0.4-1.4l0,0c0.5-0.3,1.1-0.1,1.4,0.4l0,0c0.3,0.5,0.1,1.1-0.4,1.4l0,0
			c-0.1,0.1-0.3,0.1-0.5,0.1l0,0C29.5,29.7,29.1,29.5,29,29.2z M48.8,29.2L48.8,29.2c-0.5-0.2-0.7-0.8-0.5-1.3l0,0
			c0.2-0.5,0.8-0.7,1.3-0.5l0,0c0,0,0,0,0,0l0,0c0.5,0.2,0.7,0.8,0.5,1.3l0,0c-0.2,0.4-0.5,0.6-0.9,0.6l0,0
			C49,29.2,48.9,29.2,48.8,29.2z M38.4,26.3c0-0.5,0.4-1,1-1l0,0c0.6,0,1,0.4,1,1l0,0c0,0.5-0.4,1-1,1l0,0c0,0,0,0,0,0l0,0
			C38.9,27.3,38.5,26.8,38.4,26.3z"/>
	</g>
</g>
</svg>
