<?xml version="1.0" encoding="utf-8"?>
<!-- Generator: Adobe Illustrator 28.3.0, SVG Export Plug-In . SVG Version: 6.00 Build 0)  -->
<svg version="1.1" xmlns="http://www.w3.org/2000/svg" xmlns:xlink="http://www.w3.org/1999/xlink" x="0px" y="0px"
	 viewBox="0 0 80 80" style="enable-background:new 0 0 80 80;" xml:space="preserve">
<style type="text/css">
	.st0{display:none;}
	.st1{display:inline;opacity:0.75;}
	.st2{fill:#FFFFFF;}
	.st3{display:inline;}
	.st4{fill:none;stroke:#00FFFF;stroke-width:5.000000e-02;stroke-linecap:round;stroke-miterlimit:10;}
	.st5{fill:none;}
	.st6{opacity:0.22;fill:none;stroke:#FF0000;stroke-width:5.000000e-02;stroke-linecap:round;stroke-miterlimit:10;}
	.st7{opacity:0.22;}
	.st8{fill:none;stroke:#FF0000;stroke-width:5.000000e-02;stroke-linecap:round;stroke-miterlimit:10;}
	.st9{fill:none;stroke:#000000;stroke-width:1.5;stroke-linejoin:round;stroke-miterlimit:10;}
</style>
<g id="border" class="st0">
	<g class="st1">
		<path class="st2" d="M72,8v64H8V8H72 M80,0H0v80h80V0L80,0z"/>
	</g>
</g>
<g id="_x38__grid" class="st0">
	<g class="st3">
		<rect x="8" y="8.3" class="st4" width="8" height="64"/>
		<rect x="16" y="8.3" class="st4" width="8" height="64"/>
		<rect x="24" y="8.3" class="st4" width="8" height="64"/>
		<rect x="32" y="8.3" class="st4" width="8" height="64"/>
		<rect x="40" y="8.3" class="st4" width="8" height="64"/>
		<rect x="48" y="8.3" class="st4" width="8" height="64"/>
		<rect x="56" y="8.3" class="st4" width="8" height="64"/>
		<rect x="64" y="8.3" class="st4" width="8" height="64"/>
	</g>
	<g class="st3">
		<rect x="36" y="36.3" transform="matrix(6.123234e-17 -1 1 6.123234e-17 -28.2588 108.2588)" class="st4" width="8" height="64"/>
		<rect x="36" y="28.3" transform="matrix(6.123234e-17 -1 1 6.123234e-17 -20.2588 100.2588)" class="st4" width="8" height="64"/>
		<rect x="36" y="20.3" transform="matrix(6.123234e-17 -1 1 6.123234e-17 -12.2588 92.2588)" class="st4" width="8" height="64"/>
		<rect x="36" y="12.3" transform="matrix(6.123234e-17 -1 1 6.123234e-17 -4.2588 84.2588)" class="st4" width="8" height="64"/>
		<rect x="36" y="4.3" transform="matrix(6.123234e-17 -1 1 6.123234e-17 3.7412 76.2588)" class="st4" width="8" height="64"/>
		<rect x="36" y="-3.7" transform="matrix(6.123234e-17 -1 1 6.123234e-17 11.7412 68.2588)" class="st4" width="8" height="64"/>
		<rect x="36" y="-11.7" transform="matrix(6.123234e-17 -1 1 6.123234e-17 19.7412 60.2588)" class="st4" width="8" height="64"/>
		<rect x="36" y="-19.7" transform="matrix(6.123234e-17 -1 1 6.123234e-17 27.7412 52.2588)" class="st4" width="8" height="64"/>
	</g>
</g>
<g id="export_frame" class="st0">
	<g class="st3">
		<rect x="-76" y="-75.7" class="st5" width="80" height="80"/>
	</g>
</g>
<g id="guide_shapes" class="st0">
	<g class="st3">
		<line class="st6" x1="8" y1="8.3" x2="72" y2="72.3"/>
		<line class="st6" x1="72" y1="8.3" x2="8" y2="72.3"/>
		<line class="st6" x1="8" y1="40.3" x2="72" y2="40.3"/>
		<line class="st6" x1="40" y1="8.3" x2="40" y2="72.3"/>
		<rect x="8" y="8.3" class="st6" width="64" height="64"/>
		<circle class="st6" cx="40" cy="40.3" r="16"/>
		<circle class="st6" cx="40" cy="40.3" r="24"/>
		<rect x="24" y="24.3" class="st6" width="32" height="32"/>
		<circle class="st6" cx="40" cy="40.3" r="30"/>
		<rect x="12" y="12.3" class="st6" width="56" height="56"/>
		<line class="st6" x1="40" y1="40.3" x2="71.9" y2="31.7"/>
		<line class="st6" x1="8.1" y1="48.8" x2="40" y2="40.3"/>
		<g class="st7">
			<line class="st8" x1="40" y1="40.3" x2="71.9" y2="48.8"/>
			<line class="st8" x1="8.1" y1="31.7" x2="40" y2="40.3"/>
		</g>
		<line class="st6" x1="40" y1="40.3" x2="48.5" y2="72.1"/>
		<line class="st6" x1="31.5" y1="8.4" x2="40" y2="40.3"/>
		<line class="st6" x1="40" y1="40.3" x2="31.5" y2="72.1"/>
		<line class="st6" x1="48.5" y1="8.4" x2="40" y2="40.3"/>
		<g class="st7">
			<line class="st8" x1="40" y1="40.3" x2="71.9" y2="48.8"/>
			<line class="st8" x1="8.1" y1="31.7" x2="40" y2="40.3"/>
		</g>
	</g>
</g>
<g id="art">
	<g>
		<rect x="14" y="53.3" width="28" height="1.5"/>
	</g>
	<g>
		<rect x="40" y="53.3" width="26" height="1.5"/>
	</g>
	<g>
		<path d="M62.5,58.8l-1.1-1.1l3.5-3.5l-3.5-3.5l1.1-1.1l4,4c0.3,0.3,0.3,0.8,0,1.1L62.5,58.8z"/>
	</g>
	<g>
		<path d="M40,54.8v-1.5c9.5,0,17.2-7.7,17.2-17.2S49.5,18.8,40,18.8S22.8,26.5,22.8,36c0,4.9,2.1,9.6,5.8,12.9l-1,1.1
			c-4-3.6-6.2-8.6-6.2-14c0-10.3,8.4-18.8,18.8-18.8S58.8,25.7,58.8,36S50.3,54.8,40,54.8z"/>
	</g>
	<g>
		<path d="M28,50.2C28,50.2,28,50.2,28,50.2l-2.8,0l0-1.5l2.1,0l0-2.1l1.5,0l0,2.8C28.8,49.9,28.4,50.2,28,50.2z"/>
	</g>
</g>
</svg>
