<?xml version="1.0" encoding="UTF-8"?><svg id="a" xmlns="http://www.w3.org/2000/svg" viewBox="0 0 80 80"><path d="M17.48926,48.30322c-2.61914,0-4.75,2.13086-4.75,4.75s2.13086,4.75,4.75,4.75,4.75-2.13086,4.75-4.75c0-.62378-.12793-1.2168-.34766-1.76294l7.69043-4.54028h9.66797v14.57593c-2.26172,.36255-4,2.31177-4,4.67407,0,2.61914,2.13086,4.75,4.75,4.75s4.75-2.13086,4.75-4.75c0-2.3623-1.73828-4.31152-4-4.67407v-14.57593h9.45898l7.93506,4.56104c-.21436,.54077-.34131,1.12598-.34131,1.74219,0,2.61914,2.13086,4.75,4.75,4.75s4.75-2.13086,4.75-4.75-2.13086-4.75-4.75-4.75c-1.46387,0-2.75879,.67981-3.63086,1.72437l-6.03857-3.47119c2.21924-.59094,3.8667-2.59814,3.8667-5.00073,0-2.86426-2.33008-5.19434-5.19434-5.19434-.74414,0-1.46777,.16113-2.13867,.47217-.08789-.41113-.20996-.8075-.34717-1.1958l9.83643-5.62537c.87207,1.0553,2.17383,1.74304,3.64648,1.74304,2.61914,0,4.75-2.13086,4.75-4.75s-2.13086-4.75-4.75-4.75-4.75,2.13086-4.75,4.75c0,.60791,.125,1.18494,.33447,1.71973l-9.6792,5.53516c-1.52246-2.802-4.37744-4.7251-7.70801-4.97791v-10.60828c2.26172-.36255,4-2.31177,4-4.67407,0-2.61914-2.13086-4.75-4.75-4.75s-4.75,2.13086-4.75,4.75c0,2.3623,1.73828,4.31152,4,4.67407v10.6311c-3.22217,.25537-6.09033,2.12036-7.64844,4.92334l-9.67871-5.56042c.19531-.51941,.31641-1.07568,.31641-1.66272,0-2.61914-2.13086-4.75-4.75-4.75s-4.75,2.13086-4.75,4.75,2.13086,4.75,4.75,4.75c1.49365,0,2.81201-.70679,3.68311-1.78784l8.04492,4.62183c-3.30078,.0625-5.96729,2.76221-5.96729,6.07715,0,2.62598,1.67529,4.86194,4.01074,5.71216l-6.15381,3.63306c-.87207-1.0354-2.16113-1.7085-3.61768-1.7085Zm0,8c-1.79199,0-3.25-1.45801-3.25-3.25s1.45801-3.25,3.25-3.25,3.25,1.45801,3.25,3.25-1.45801,3.25-3.25,3.25Zm45.06348-6.5c1.79199,0,3.25,1.45801,3.25,3.25s-1.45801,3.25-3.25,3.25-3.25-1.45801-3.25-3.25,1.45801-3.25,3.25-3.25Zm0-26.04785c1.79199,0,3.25,1.45801,3.25,3.25s-1.45801,3.25-3.25,3.25-3.25-1.45801-3.25-3.25,1.45801-3.25,3.25-3.25Zm-45.06348,6.5c-1.79199,0-3.25-1.45801-3.25-3.25s1.45801-3.25,3.25-3.25,3.25,1.45801,3.25,3.25-1.45801,3.25-3.25,3.25Zm25.76074,35.74463c0,1.79199-1.45801,3.25-3.25,3.25s-3.25-1.45801-3.25-3.25,1.45801-3.25,3.25-3.25,3.25,1.45801,3.25,3.25Zm-6.5-52c0-1.79199,1.45801-3.25,3.25-3.25s3.25,1.45801,3.25,3.25-1.45801,3.25-3.25,3.25-3.25-1.45801-3.25-3.25Zm-12,26.6665c0-2.52686,2.05566-4.58301,4.58301-4.58301,.68945,0,1.35938,.15479,1.99023,.45947,.19043,.09277,.41309,.09961,.60938,.01953s.34961-.23975,.42188-.43945c1.16309-3.21387,4.23535-5.37305,7.64551-5.37305,4.22559,0,7.70801,3.17041,8.09961,7.37402,.02539,.27295,.19727,.50977,.44824,.61865,.24902,.1084,.54004,.07275,.75781-.09521,.66406-.51416,1.44238-.78613,2.25-.78613,2.03711,0,3.69434,1.65723,3.69434,3.69434s-1.65723,3.69434-3.69434,3.69434H29.33301c-2.52734,0-4.58301-2.05615-4.58301-4.5835Z"/><path d="M62.73438,15.13477c-.54199,0-.9834-.44092-.9834-.9834h-1.5c0,1.36914,1.11426,2.4834,2.4834,2.4834s2.4834-1.11426,2.4834-2.4834c0-1.36963-1.11426-2.48389-2.4834-2.48389h-.69434v-.81152h2.42773v-1.5h-3.92773v3.81152h2.19434c.54199,0,.9834,.44141,.9834,.98389s-.44141,.9834-.9834,.9834Z"/><path d="M68.2666,10.75c.54199,0,.9834,.44092,.9834,.9834h1.5c0-1.36914-1.11426-2.4834-2.4834-2.4834s-2.4834,1.11426-2.4834,2.4834v2.5332c0,1.36914,1.11426,2.4834,2.4834,2.4834,1.36865,0,2.48242-1.1134,2.4834-2.48193v-1.9834h-2.75977v1.5h1.25977v.48193c0,.54248-.44141,.9834-.9834,.9834s-.9834-.44092-.9834-.9834v-2.5332c0-.54248,.44141-.9834,.9834-.9834Z"/></svg>