<?xml version="1.0" encoding="UTF-8"?><svg id="a" xmlns="http://www.w3.org/2000/svg" viewBox="0 0 80 80"><rect x="26" y="31.25" width="28" height="1.5"/><rect x="26" y="37.25" width="28" height="1.5"/><rect x="26" y="43.25" width="28" height="1.5"/><rect x="26" y="49.25" width="20" height="1.5"/><path d="M61,70.75c5.37598,0,9.75-4.37402,9.75-9.75s-4.37402-9.75-9.75-9.75-9.75,4.37402-9.75,9.75,4.37402,9.75,9.75,9.75Zm0-18c4.54883,0,8.25,3.70117,8.25,8.25s-3.70117,8.25-8.25,8.25-8.25-3.70117-8.25-8.25,3.70117-8.25,8.25-8.25Z"/><path d="M60,64.75c.19238,0,.38379-.07324,.53027-.21973l6-6-1.06055-1.06055-5.46973,5.46973-2.46973-2.46973-1.06055,1.06055,3,3c.14648,.14648,.33789,.21973,.53027,.21973Z"/><path d="M60.75,48V24c0-.19873-.0791-.38965-.21973-.53027l-14-14c-.14062-.14062-.33105-.21973-.53027-.21973H20c-.41406,0-.75,.33594-.75,.75v60c0,.41406,.33594,.75,.75,.75h30v-1.5H20.75V10.75h24.5v13.25c0,.41406,.33594,.75,.75,.75h13.25v23.25h1.5Zm-14-24.75V11.81055l11.43945,11.43945h-11.43945Z"/></svg>