<?xml version="1.0" encoding="UTF-8"?>
<svg id="DO_NOT_TOUCH_Outlines_" data-name="DO NOT TOUCH (Outlines)" xmlns="http://www.w3.org/2000/svg" viewBox="0 0 80 80">
  <path d="m70,17.25H22.75v-5.25c0-.41-.34-.75-.75-.75h-6c-3.72,0-6.75,3.03-6.75,6.75v44c0,3.72,3.03,6.75,6.75,6.75h54c.41,0,.75-.34.75-.75V18c0-.41-.34-.75-.75-.75Zm-59.25.75c0-2.89,2.36-5.25,5.25-5.25h5.25v42.5h-5.25c-2.12,0-4.01.98-5.25,2.52V18Zm58.5,49.25H16c-2.89,0-5.25-2.36-5.25-5.25s2.36-5.25,5.25-5.25h6c.41,0,.75-.34.75-.75V18.75h46.5v48.5Z"/>
  <path d="m38.71,33.29s-.1-.09-.15-.12c-.06-.04-.12-.07-.18-.09-.06-.03-.12-.05-.19-.06-.32-.07-.67.04-.9.27-.09.1-.16.21-.21.33s-.08.25-.08.38.03.26.08.38.12.23.21.33c.1.09.21.16.33.21s.25.08.38.08c.27,0,.52-.1.71-.29.09-.1.16-.21.21-.33s.08-.25.08-.38-.03-.26-.08-.38-.12-.23-.21-.33Z"/>
  <path d="m42.71,33.29c-.24-.23-.58-.34-.91-.27-.06.01-.12.03-.18.06-.06.02-.12.05-.18.09-.05.03-.1.08-.15.12-.09.1-.16.21-.21.33s-.08.25-.08.38.03.26.08.38.12.23.21.33c.19.19.44.29.71.29s.52-.1.71-.29c.09-.1.16-.21.21-.33s.08-.25.08-.38-.03-.26-.08-.38-.12-.23-.21-.33Z"/>
  <rect x="46" y="33.25" width="8" height="1.5"/>
  <path d="m37.29,42.71c.1.09.21.16.33.21s.25.08.38.08.26-.03.38-.08.23-.12.33-.21c.19-.19.29-.44.29-.71s-.11-.52-.29-.71c-.05-.04-.1-.09-.15-.12-.06-.04-.12-.07-.18-.09-.06-.03-.12-.05-.18-.06-.33-.07-.68.04-.91.27-.18.19-.29.45-.29.71,0,.13.03.26.08.38s.12.23.21.33Z"/>
  <path d="m41.29,42.71c.19.19.44.29.71.29s.52-.1.7-.29c.1-.1.17-.21.22-.33.06-.12.08-.25.08-.38,0-.26-.11-.52-.3-.71-.04-.04-.09-.09-.15-.12-.05-.04-.11-.07-.17-.09-.06-.03-.12-.05-.19-.06-.32-.07-.67.04-.9.27-.18.19-.29.45-.29.71,0,.13.02.26.07.38.06.12.13.23.22.33Z"/>
  <rect x="46" y="41.25" width="8" height="1.5"/>
  <path d="m34,54.75h24c.41,0,.75-.34.75-.75v-24c0-.41-.34-.75-.75-.75h-24c-.41,0-.75.34-.75.75v24c0,.41.34.75.75.75Zm23.25-9.5h-22.5v-6.5h22.5v6.5Zm0,8h-22.5v-6.5h22.5v6.5Zm-22.5-22.5h22.5v6.5h-22.5v-6.5Z"/>
  <path d="m37.29,50.71c.1.09.21.16.33.21s.25.08.38.08.26-.03.38-.08.23-.12.33-.21c.09-.1.16-.21.21-.33s.08-.25.08-.38-.03-.26-.08-.38c-.05-.13-.12-.23-.21-.33-.05-.04-.1-.09-.16-.12-.05-.04-.11-.07-.17-.09-.06-.03-.12-.05-.19-.06-.12-.03-.26-.03-.39,0-.06.01-.12.03-.18.06-.06.02-.12.05-.18.09-.05.03-.1.08-.15.12-.09.1-.16.2-.21.33-.05.12-.08.25-.08.38s.03.26.08.38.12.23.21.33Z"/>
  <path d="m41.29,50.71c.19.19.44.29.71.29.13,0,.26-.03.38-.08s.23-.12.33-.21c.09-.1.16-.21.21-.33s.08-.25.08-.38-.03-.26-.08-.38c-.05-.13-.12-.23-.21-.33-.37-.37-1.04-.37-1.42,0-.09.1-.16.2-.21.33-.05.12-.08.25-.08.38s.03.26.08.38.12.23.21.33Z"/>
  <rect x="46" y="49.25" width="8" height="1.5"/>
  <path d="m28,50.75h2v-1.5h-1.25v-14.5h1.25v-1.5h-2c-.41,0-.75.34-.75.75v16c0,.41.34.75.75.75Z"/>
  <path d="m64.75,50v-16c0-.41-.34-.75-.75-.75h-2v1.5h1.25v14.5h-1.25v1.5h2c.41,0,.75-.34.75-.75Z"/>
</svg>