<?xml version="1.0" encoding="UTF-8"?><svg id="a" xmlns="http://www.w3.org/2000/svg" viewBox="0 0 80 80"><path d="M15,59.25c-3.1709,0-5.75,2.57959-5.75,5.75s2.5791,5.75,5.75,5.75,5.75-2.57959,5.75-5.75c0-1.31537-.44873-2.52521-1.19482-3.49518l10.64038-10.64038c3.05444,1.55408,6.36719,2.38556,9.80444,2.38556,3.43701,0,6.74976-.83148,9.80396-2.38544l10.64087,10.64026c-.74609,.96997-1.19482,2.17981-1.19482,3.49518,0,3.17041,2.5791,5.75,5.75,5.75s5.75-2.57959,5.75-5.75-2.5791-5.75-5.75-5.75c-1.31519,0-2.5249,.44861-3.49463,1.19434l-9.65503-9.65454,.00024-.00024-.67969-.6795c3.68066-2.19672,6.93042-5.4873,9.47266-9.7243,.1416-.2373,.1416-.53418,0-.77148-2.54224-4.23712-5.79199-7.52771-9.4729-9.72443l10.33423-10.33453c.96973,.74597,2.17969,1.1947,3.49512,1.1947,3.1709,0,5.75-2.57959,5.75-5.75s-2.5791-5.75-5.75-5.75-5.75,2.57959-5.75,5.75c0,1.31512,.44873,2.52478,1.19434,3.49463l-10.64038,10.64081c-3.0542-1.55396-6.36694-2.38544-9.80396-2.38544s-6.74976,.83148-9.80396,2.38544l-10.64087-10.64026c.74609-.96997,1.19482-2.17981,1.19482-3.49518,0-3.17041-2.5791-5.75-5.75-5.75s-5.75,2.57959-5.75,5.75,2.5791,5.75,5.75,5.75c1.31519,0,2.5249-.44861,3.49463-1.19434l9.65503,9.65454-.00024,.00024,.67969,.6795c-3.68066,2.19672-6.93042,5.4873-9.47266,9.7243-.1416,.2373-.1416,.53418,0,.77148,2.54224,4.237,5.79199,7.52753,9.47266,9.72424l-10.33447,10.33429c-.96973-.74573-2.17944-1.19427-3.49463-1.19427Zm50,1.5c2.34375,0,4.25,1.90674,4.25,4.25s-1.90625,4.25-4.25,4.25-4.25-1.90674-4.25-4.25,1.90625-4.25,4.25-4.25Zm0-50c2.34375,0,4.25,1.90674,4.25,4.25s-1.90625,4.25-4.25,4.25-4.25-1.90674-4.25-4.25,1.90625-4.25,4.25-4.25ZM15,19.25c-2.34375,0-4.25-1.90674-4.25-4.25s1.90625-4.25,4.25-4.25,4.25,1.90674,4.25,4.25-1.90625,4.25-4.25,4.25Zm25,9c7.54492,0,14.49219,4.27588,19.12207,11.75-2.45117,3.95685-5.55566,7.00629-9.05078,9.0105l-3.38184-3.38184c1.28345-1.52289,2.06055-3.48578,2.06055-5.62866,0-4.82471-3.9248-8.75-8.75-8.75-2.14307,0-4.10596,.77716-5.62891,2.06073l-3.05273-3.05261c2.72461-1.30817,5.65308-2.00812,8.68164-2.00812Zm-4.56494,6.12463c1.24731-1.01416,2.83545-1.62463,4.56494-1.62463,3.99805,0,7.25,3.25244,7.25,7.25,0,1.72919-.61035,3.31738-1.62451,4.56482l-10.19043-10.19019Zm9.12988,11.25073c-1.24731,1.01416-2.83545,1.62463-4.56494,1.62463-3.99805,0-7.25-3.25244-7.25-7.25,0-1.72919,.61035-3.31738,1.62451-4.56482l10.19043,10.19019Zm-23.68701-5.62537c2.45117-3.95685,5.55566-7.00629,9.05078-9.0105l3.38184,3.38184c-1.28345,1.52289-2.06055,3.48578-2.06055,5.62866,0,4.82471,3.9248,8.75,8.75,8.75,2.14307,0,4.10596-.77716,5.62891-2.06073l3.05273,3.05261c-2.72461,1.30817-5.65308,2.00812-8.68164,2.00812-7.54492,0-14.49219-4.27588-19.12207-11.75Zm-5.87793,29.25c-2.34375,0-4.25-1.90674-4.25-4.25s1.90625-4.25,4.25-4.25,4.25,1.90674,4.25,4.25-1.90625,4.25-4.25,4.25Z"/></svg>