<?xml version="1.0" encoding="UTF-8"?><svg id="a" xmlns="http://www.w3.org/2000/svg" viewBox="0 0 80 80"><path d="M39.30469,36.54053c0-.80957-.2666-1.45459-.79199-1.9165-.58398-.51367-1.46582-.77393-2.62305-.77393h-2.68848c-.11035,0-.2002,.08936-.2002,.19922v7.90137c0,.10986,.08984,.19922,.2002,.19922h1.4043c.11035,0,.2002-.08936,.2002-.19922v-2.76367h1.21484l1.78516,2.86914c.03613,.05811,.10156,.09375,.16992,.09375h1.66797c.07227,0,.13965-.03955,.17383-.10205,.03516-.06348,.0332-.14111-.00781-.20654l-1.98535-3.02539c.98242-.44434,1.48047-1.2085,1.48047-2.27539Zm-2.18848,.83008c-.26172,.24219-.64844,.36475-1.14941,.36475h-1.16113v-2.43359h1.10645c1.04688,0,1.53418,.39355,1.53418,1.23877,0,.34717-.1084,.61914-.33008,.83008Z"/><path d="M45.38281,42.1499h1.41602c.11035,0,.2002-.08936,.2002-.19922v-7.90137c0-.10986-.08984-.19922-.2002-.19922h-1.41602c-.10938,0-.19922,.08936-.19922,.19922v3.15918h-3.09082v-3.15918c0-.10986-.08984-.19922-.2002-.19922h-1.4043c-.10938,0-.19922,.08936-.19922,.19922v7.90137c0,.10986,.08984,.19922,.19922,.19922h1.4043c.11035,0,.2002-.08936,.2002-.19922v-3.24609h3.09082v3.24609c0,.10986,.08984,.19922,.19922,.19922Z"/><path d="M70.75,61c0-5.37598-4.37402-9.75-9.75-9.75s-9.75,4.37402-9.75,9.75,4.37402,9.75,9.75,9.75,9.75-4.37402,9.75-9.75Zm-9.75,8.25c-4.54883,0-8.25-3.70117-8.25-8.25s3.70117-8.25,8.25-8.25,8.25,3.70117,8.25,8.25-3.70117,8.25-8.25,8.25Z"/><path d="M60,62.93945l-2.46973-2.46973-1.06055,1.06055,3,3c.14648,.14648,.33789,.21973,.53027,.21973s.38379-.07324,.53027-.21973l6-6-1.06055-1.06055-5.46973,5.46973Z"/><path d="M60.75,48V24c0-.19873-.0791-.38965-.21973-.53027l-14-14c-.14062-.14062-.33105-.21973-.53027-.21973H20c-.41406,0-.75,.33594-.75,.75v60c0,.41406,.33594,.75,.75,.75h30v-1.5H20.75V10.75h24.5v13.25c0,.41406,.33594,.75,.75,.75h13.25v23.25h1.5Zm-14-24.75V11.81055l11.43945,11.43945h-11.43945Z"/></svg>