<?xml version="1.0" encoding="UTF-8"?><svg id="a" xmlns="http://www.w3.org/2000/svg" viewBox="0 0 80 80"><path d="M66.75,28c0-2.61914-2.13086-4.75-4.75-4.75-1.52344,0-2.8667,.73376-3.73682,1.85254l-13.80469-7.51978c.17725-.4975,.2915-1.02509,.2915-1.58276,0-2.61914-2.13086-4.75-4.75-4.75s-4.75,2.13086-4.75,4.75c0,.55762,.11426,1.08521,.2915,1.5827l-13.80469,7.51984c-.87012-1.11877-2.21338-1.85254-3.73682-1.85254-2.61914,0-4.75,2.13086-4.75,4.75,0,2.3623,1.73828,4.31152,4,4.67413v14.65173c-2.26172,.36261-4,2.31183-4,4.67413,0,2.61914,2.13086,4.75,4.75,4.75,1.52344,0,2.8667-.73376,3.73682-1.85254l13.80469,7.51984c-.17725,.4975-.2915,1.02509-.2915,1.5827,0,2.61914,2.13086,4.75,4.75,4.75s4.75-2.13086,4.75-4.75c0-.55762-.11426-1.08527-.2915-1.58276l13.80469-7.51978c.87012,1.11877,2.21338,1.85254,3.73682,1.85254,2.61914,0,4.75-2.13086,4.75-4.75,0-2.3623-1.73828-4.31152-4-4.67413v-14.65173c2.26172-.36261,4-2.31183,4-4.67413Zm-7.8208,3.59344l-4.26074,6.96918-2.61768-4.28113,6.2124-3.38403c.19824,.255,.4209,.48615,.66602,.69598Zm1.27002,.79712c.33203,.13672,.68604,.2251,1.05078,.28357v14.65173c-.36475,.05847-.71875,.14685-1.05078,.28357l-4.65234-7.60944,4.65234-7.60944Zm-27.11084,18.85944l-3.0376-4.96851,6.2124-3.38403c.72314,.93018,1.77393,1.58221,2.98682,1.77667v6.57587h-6.16162Zm6.16162,1.5v6.57587c-.36475,.05847-.71875,.14685-1.05078,.28357l-4.19385-6.85944h5.24463Zm0-24v6.57587c-1.21289,.19446-2.26367,.8465-2.98682,1.77667l-6.2124-3.38403,3.0376-4.96851h6.16162Zm-5.24463-1.5l4.19385-6.85944c.33203,.13672,.68604,.2251,1.05078,.28357v6.57587h-5.24463Zm1.53613,11.1673c-.17725,.4975-.2915,1.02509-.2915,1.5827s.11426,1.08521,.2915,1.5827l-6.27393,3.4176-3.05713-5.00031,3.05713-5.00031,6.27393,3.4176Zm-4.21045,12.8327h-8.65674c-.04639-.28796-.12012-.56439-.21582-.83276l6.27393-3.41754,2.59863,4.25031Zm5.41895-11.25c0-1.79199,1.45801-3.25,3.25-3.25s3.25,1.45801,3.25,3.25-1.45801,3.25-3.25,3.25-3.25-1.45801-3.25-3.25Zm10.16162-11.25l3.0376,4.96851-6.2124,3.38403c-.72314-.93018-1.77393-1.58221-2.98682-1.77667v-6.57587h6.16162Zm-6.16162-1.5v-6.57587c.36475-.05847,.71875-.14685,1.05078-.28357l4.19385,6.85944h-5.24463Zm7.91895,1.5h8.65674c.04639,.28796,.12012,.56433,.21582,.8327l-6.27393,3.4176-2.59863-4.25031Zm-7.91895,24h5.24463l-4.19385,6.85938c-.33203-.13672-.68604-.22504-1.05078-.28351v-6.57587Zm0-1.5v-6.57587c1.21289-.19446,2.26367-.8465,2.98682-1.77667l6.2124,3.38403-3.0376,4.96851h-6.16162Zm3.7085-9.66724c.17725-.4975,.2915-1.02509,.2915-1.58276,0-.55762-.11426-1.08527-.2915-1.58276l6.27393-3.41754,3.05713,5.00031-3.05713,5.00031-6.27393-3.41754Zm-.72168-22.6853l13.80469,7.51984c-.0957,.26837-.16943,.54474-.21582,.8327h-9.57373l-4.68115-7.65656c.24512-.20984,.46777-.44098,.66602-.69598Zm-3.73682-6.14746c1.79199,0,3.25,1.45801,3.25,3.25s-1.45801,3.25-3.25,3.25-3.25-1.45801-3.25-3.25,1.45801-3.25,3.25-3.25Zm-3.73682,6.14746c.19824,.255,.4209,.48615,.66602,.69598l-4.68115,7.65656h-9.57373c-.04639-.28796-.12012-.56439-.21582-.83276l13.80469-7.51978Zm-13.58887,9.85254h8.65674l-2.59863,4.25031-6.27393-3.41754c.0957-.26837,.16943-.5448,.21582-.83276Zm-.9375,2.14746l6.2124,3.38403-2.61768,4.28113-4.26074-6.96918c.24512-.20984,.46777-.44098,.66602-.69598Zm2.71631,9.10254l-4.65234,7.60938c-.33203-.13672-.68604-.22504-1.05078-.28351v-14.65173c.36475-.05847,.71875-.14685,1.05078-.28357l4.65234,7.60944Zm-9.70312-12c0-1.79199,1.45801-3.25,3.25-3.25s3.25,1.45801,3.25,3.25-1.45801,3.25-3.25,3.25-3.25-1.45801-3.25-3.25Zm3.25,27.25c-1.79199,0-3.25-1.45801-3.25-3.25s1.45801-3.25,3.25-3.25,3.25,1.45801,3.25,3.25-1.45801,3.25-3.25,3.25Zm3.0708-6.84344l4.26074-6.96918,2.61768,4.28113-6.2124,3.38403c-.19824-.255-.4209-.48615-.66602-.69598Zm15.19238,12.69598l-13.80469-7.51978c.0957-.26837,.16943-.5448,.21582-.83276h9.57373l4.68115,7.65656c-.24512,.20984-.46777,.44098-.66602,.69598Zm3.73682,6.14746c-1.79199,0-3.25-1.45801-3.25-3.25s1.45801-3.25,3.25-3.25,3.25,1.45801,3.25,3.25-1.45801,3.25-3.25,3.25Zm3.73682-6.14746c-.19824-.255-.4209-.48615-.66602-.69598l4.68115-7.65656h9.57373c.04639,.28796,.12012,.56433,.21582,.8327l-13.80469,7.51984Zm13.58887-9.85254h-8.65674l2.59863-4.25031,6.27393,3.4176c-.0957,.26837-.16943,.54474-.21582,.8327Zm.9375-2.14746l-6.2124-3.38403,2.61768-4.28113,4.26074,6.96918c-.24512,.20984-.46777,.44098-.66602,.69598Zm6.98682,2.89746c0,1.79199-1.45801,3.25-3.25,3.25s-3.25-1.45801-3.25-3.25,1.45801-3.25,3.25-3.25,3.25,1.45801,3.25,3.25Zm-3.25-20.75c-1.79199,0-3.25-1.45801-3.25-3.25s1.45801-3.25,3.25-3.25,3.25,1.45801,3.25,3.25-1.45801,3.25-3.25,3.25Z"/></svg>