<?xml version="1.0" encoding="utf-8"?>
<!-- Generator: Adobe Illustrator 28.3.0, SVG Export Plug-In . SVG Version: 6.00 Build 0)  -->
<svg version="1.1" xmlns="http://www.w3.org/2000/svg" xmlns:xlink="http://www.w3.org/1999/xlink" x="0px" y="0px"
	 viewBox="0 0 80 80" style="enable-background:new 0 0 80 80;" xml:space="preserve">
<style type="text/css">
	.st0{display:none;}
	.st1{display:inline;opacity:0.75;}
	.st2{fill:#FFFFFF;}
	.st3{display:inline;}
	.st4{fill:none;stroke:#00FFFF;stroke-width:5.000000e-02;stroke-linecap:round;stroke-miterlimit:10;}
	.st5{fill:none;}
	.st6{opacity:0.22;fill:none;stroke:#FF0000;stroke-width:5.000000e-02;stroke-linecap:round;stroke-miterlimit:10;}
	.st7{opacity:0.22;}
	.st8{fill:none;stroke:#FF0000;stroke-width:5.000000e-02;stroke-linecap:round;stroke-miterlimit:10;}
	.st9{fill:none;stroke:#000000;stroke-width:1.5;stroke-linejoin:round;stroke-miterlimit:10;}
</style>
<g id="border" class="st0">
	<g class="st1">
		<path class="st2" d="M72,8v64H8V8H72 M80,0H0v80h80V0L80,0z"/>
	</g>
</g>
<g id="_x38__grid" class="st0">
	<g class="st3">
		<rect x="8" y="8" class="st4" width="8" height="64"/>
		<rect x="16" y="8" class="st4" width="8" height="64"/>
		<rect x="24" y="8" class="st4" width="8" height="64"/>
		<rect x="32" y="8" class="st4" width="8" height="64"/>
		<rect x="40" y="8" class="st4" width="8" height="64"/>
		<rect x="48" y="8" class="st4" width="8" height="64"/>
		<rect x="56" y="8" class="st4" width="8" height="64"/>
		<rect x="64" y="8" class="st4" width="8" height="64"/>
	</g>
	<g class="st3">
		<rect x="36" y="36" transform="matrix(6.123234e-17 -1 1 6.123234e-17 -28 108)" class="st4" width="8" height="64"/>
		<rect x="36" y="28" transform="matrix(6.123234e-17 -1 1 6.123234e-17 -20 100)" class="st4" width="8" height="64"/>
		<rect x="36" y="20" transform="matrix(6.123234e-17 -1 1 6.123234e-17 -12 92)" class="st4" width="8" height="64"/>
		<rect x="36" y="12" transform="matrix(6.123234e-17 -1 1 6.123234e-17 -4 84)" class="st4" width="8" height="64"/>
		<rect x="36" y="4" transform="matrix(6.123234e-17 -1 1 6.123234e-17 4 76)" class="st4" width="8" height="64"/>
		<rect x="36" y="-4" transform="matrix(6.123234e-17 -1 1 6.123234e-17 12 68)" class="st4" width="8" height="64"/>
		<rect x="36" y="-12" transform="matrix(6.123234e-17 -1 1 6.123234e-17 20 60)" class="st4" width="8" height="64"/>
		<rect x="36" y="-20" transform="matrix(6.123234e-17 -1 1 6.123234e-17 28 52)" class="st4" width="8" height="64"/>
	</g>
</g>
<g id="export_frame" class="st0">
	<g class="st3">
		<rect class="st5" width="80" height="80"/>
	</g>
</g>
<g id="guide_shapes" class="st0">
	<g class="st3">
		<line class="st6" x1="8" y1="8" x2="72" y2="72"/>
		<line class="st6" x1="72" y1="8" x2="8" y2="72"/>
		<line class="st6" x1="8" y1="40" x2="72" y2="40"/>
		<line class="st6" x1="40" y1="8" x2="40" y2="72"/>
		<rect x="8" y="8" class="st6" width="64" height="64"/>
		<circle class="st6" cx="40" cy="40" r="16"/>
		<circle class="st6" cx="40" cy="40" r="24"/>
		<rect x="24" y="24" class="st6" width="32" height="32"/>
		<circle class="st6" cx="40" cy="40" r="30"/>
		<rect x="12" y="12" class="st6" width="56" height="56"/>
		<line class="st6" x1="40" y1="40" x2="71.9" y2="31.5"/>
		<line class="st6" x1="8.1" y1="48.5" x2="40" y2="40"/>
		<g class="st7">
			<line class="st8" x1="40" y1="40" x2="71.9" y2="48.5"/>
			<line class="st8" x1="8.1" y1="31.5" x2="40" y2="40"/>
		</g>
		<line class="st6" x1="40" y1="40" x2="48.5" y2="71.9"/>
		<line class="st6" x1="31.5" y1="8.1" x2="40" y2="40"/>
		<line class="st6" x1="40" y1="40" x2="31.5" y2="71.9"/>
		<line class="st6" x1="48.5" y1="8.1" x2="40" y2="40"/>
		<g class="st7">
			<line class="st8" x1="40" y1="40" x2="71.9" y2="48.5"/>
			<line class="st8" x1="8.1" y1="31.5" x2="40" y2="40"/>
		</g>
	</g>
</g>
<g id="art">
	<g>
		<rect x="47.3" y="12.9" transform="matrix(0.964 -0.2659 0.2659 0.964 -9.7066 14.3129)" width="1.5" height="60.2"/>
	</g>
	<g>
		<rect x="1.9" y="42.3" transform="matrix(0.2658 -0.964 0.964 0.2658 -17.958 62.4215)" width="60.2" height="1.5"/>
	</g>
	<g>
		<path d="M49.7,18.7L40,14.8l-9.7,3.9l-0.6-1.4l10-4c0.2-0.1,0.4-0.1,0.6,0l10,4L49.7,18.7z"/>
	</g>
	<g>
		<path d="M51.8,30.7L40,26.8l-11.8,3.9l-0.5-1.4l12-4c0.2-0.1,0.3-0.1,0.5,0l12,4L51.8,30.7z"/>
	</g>
	<g>
		<rect x="8" y="71.2" width="64" height="1.5"/>
	</g>
	<g>
		<rect x="40.8" y="32" transform="matrix(0.553 -0.8332 0.8332 0.553 -15.5951 52.9314)" width="1.5" height="18.1"/>
	</g>
	<g>
		<rect x="29.5" y="40.2" transform="matrix(0.8312 -0.5559 0.5559 0.8312 -16.2906 28.3357)" width="18" height="1.5"/>
	</g>
	<g>
		<g>
			<path d="M24.4,31.5c-1.9-2-2.9-4.7-2.9-7.5s1-5.5,2.9-7.5l1.1,1c-1.6,1.7-2.5,4-2.5,6.5s0.9,4.8,2.5,6.5L24.4,31.5z"/>
		</g>
		<g>
			<path d="M19.9,35c-2.9-2.9-4.5-6.9-4.5-11s1.6-8.1,4.5-11L21,14c-2.6,2.7-4.1,6.2-4.1,10s1.4,7.3,4.1,10L19.9,35z"/>
		</g>
		<g>
			<path d="M15.3,38.5c-3.9-3.9-6.1-9-6.1-14.5s2.2-10.6,6.1-14.5l1.1,1.1c-3.6,3.6-5.6,8.4-5.6,13.5s2,9.9,5.6,13.5L15.3,38.5z"/>
		</g>
	</g>
	<g>
		<g>
			<path d="M55.6,31.5l-1.1-1c1.6-1.7,2.5-4,2.5-6.5s-0.9-4.8-2.5-6.5l1.1-1c1.9,2,2.9,4.7,2.9,7.5S57.5,29.5,55.6,31.5z"/>
		</g>
		<g>
			<path d="M60.1,35L59,34c2.6-2.7,4.1-6.2,4.1-10s-1.4-7.3-4.1-10l1.1-1.1c2.9,2.9,4.5,6.9,4.5,11S63,32.1,60.1,35z"/>
		</g>
		<g>
			<path d="M64.7,38.5l-1.1-1.1c3.6-3.6,5.6-8.4,5.6-13.5s-2-9.9-5.6-13.5l1.1-1.1c3.9,3.9,6.1,9,6.1,14.5S68.6,34.6,64.7,38.5z"/>
		</g>
	</g>
	<g>
		<path d="M40,14.8c-1.5,0-2.8-1.2-2.8-2.8s1.2-2.8,2.8-2.8s2.8,1.2,2.8,2.8S41.5,14.8,40,14.8z M40,10.8c-0.7,0-1.2,0.6-1.2,1.2
			s0.6,1.2,1.2,1.2s1.2-0.6,1.2-1.2S40.7,10.8,40,10.8z"/>
	</g>
</g>
</svg>
