<?xml version="1.0" encoding="UTF-8"?><svg id="a" xmlns="http://www.w3.org/2000/svg" viewBox="0 0 80 80"><path d="M62.75,18c0-.41406-.33594-.75-.75-.75h-9.25V8h-1.5v9.25h-10.5V8h-1.5v9.25h-10.5V8h-1.5v9.25h-9.25c-.41406,0-.75,.33594-.75,.75v9.25H8v1.5h9.25v10.5H8v1.5h9.25v10.5H8v1.5h9.25v9.25c0,.41406,.33594,.75,.75,.75h9.25v9.25h1.5v-9.25h10.5v9.25h1.5v-9.25h10.5v9.25h1.5v-9.25h9.25c.41406,0,.75-.33594,.75-.75v-9.25h9.25v-1.5h-9.25v-10.5h9.25v-1.5h-9.25v-10.5h9.25v-1.5h-9.25v-9.25Zm-1.5,43.25H18.75V18.75H61.25V61.25Z"/><path d="M39.25,33.81055v13.43945h-2v1.5h5.5v-1.5h-2v-15.25c0-.30322-.18262-.57666-.46289-.69287s-.60254-.05225-.81738,.1626l-2.53027,2.53027,1.06055,1.06055,1.25-1.25Z"/></svg>