<?xml version="1.0" encoding="UTF-8"?><svg id="a" xmlns="http://www.w3.org/2000/svg" viewBox="0 0 80 80"><path d="M13.51562,22.75h9.48438v-1.5H13.51562c-1.44922,0-2.62891,1.15479-2.62891,2.57373V56.17627c0,1.41895,1.17969,2.57373,2.62891,2.57373h25.73438v4.5h-13.25v1.5h28v-1.5h-13.25v-4.5h25.37109c1.44922,0,2.62891-1.15479,2.62891-2.57373V23.82373c0-1.41895-1.17969-2.57373-2.62891-2.57373h-9.12109v1.5h9.12109c.62207,0,1.12891,.48145,1.12891,1.07373v27.42627H12.38672V23.82373c0-.59229,.50684-1.07373,1.12891-1.07373Zm53.73438,30v3.42627c0,.59229-.50684,1.07373-1.12891,1.07373H13.51562c-.62207,0-1.12891-.48145-1.12891-1.07373v-3.42627h54.86328Z"/><path d="M25.25,32.98779c0,1.5166,1.2334,2.75,2.75,2.75,.73584,0,1.40161-.29431,1.89551-.7666l7.44995,4.34821c-.0564,.21887-.09546,.44434-.09546,.6806,0,1.5166,1.2334,2.75,2.75,2.75s2.75-1.2334,2.75-2.75c0-.23627-.03906-.46173-.09546-.6806l7.44995-4.34821c.4939,.47229,1.15967,.7666,1.89551,.7666,1.5166,0,2.75-1.2334,2.75-2.75,0-1.25488-.84937-2.30408-2-2.63293v-8.94263c1.15063-.32886,2-1.37805,2-2.63293,0-1.5166-1.2334-2.75-2.75-2.75-.80811,0-1.52832,.35651-2.03174,.91296l-7.31348-4.26208c.05615-.21875,.09521-.44409,.09521-.68018,0-1.5166-1.2334-2.75-2.75-2.75s-2.75,1.2334-2.75,2.75c0,.23608,.03906,.46143,.09521,.68018l-7.31348,4.26208c-.50342-.55646-1.22363-.91296-2.03174-.91296-1.5166,0-2.75,1.2334-2.75,2.75,0,1.25488,.84937,2.30408,2,2.63293v8.94263c-1.15063,.32886-2,1.37805-2,2.63293Zm2.75,1.25c-.68945,0-1.25-.56055-1.25-1.25s.56055-1.25,1.25-1.25,1.25,.56055,1.25,1.25-.56055,1.25-1.25,1.25Zm12,7.01221c-.68945,0-1.25-.56055-1.25-1.25s.56055-1.25,1.25-1.25,1.25,.56055,1.25,1.25-.56055,1.25-1.25,1.25Zm13.25-8.26221c0,.68945-.56055,1.25-1.25,1.25s-1.25-.56055-1.25-1.25,.56055-1.25,1.25-1.25,1.25,.56055,1.25,1.25Zm-1.25-15.4585c.68945,0,1.25,.56055,1.25,1.25s-.56055,1.25-1.25,1.25-1.25-.56055-1.25-1.25,.56055-1.25,1.25-1.25Zm-12-6.7793c.68945,0,1.25,.56055,1.25,1.25s-.56055,1.25-1.25,1.25-1.25-.56055-1.25-1.25,.56055-1.25,1.25-1.25Zm-1.9021,3.22803c.49438,.47571,1.16309,.77197,1.9021,.77197s1.40771-.29626,1.9021-.77197l7.39746,4.31097c-.02905,.15967-.04956,.32239-.04956,.4903,0,1.25488,.84937,2.30408,2,2.63293v8.94263c-1.15063,.32886-2,1.37805-2,2.63293,0,.23895,.04028,.46674,.09766,.68793l-7.4458,4.34595c-.49463-.47552-1.16309-.77167-1.90186-.77167s-1.40723,.29614-1.90186,.77167l-7.4458-4.34595c.05737-.22119,.09766-.44897,.09766-.68793,0-1.25488-.84937-2.30408-2-2.63293v-8.94263c1.15063-.32886,2-1.37805,2-2.63293,0-.16791-.02051-.33063-.04956-.4903l7.39746-4.31097Zm-11.3479,4.80127c0-.68945,.56055-1.25,1.25-1.25s1.25,.56055,1.25,1.25-.56055,1.25-1.25,1.25-1.25-.56055-1.25-1.25Z"/></svg>