<?xml version="1.0" encoding="UTF-8"?>
<svg id="DO_NOT_TOUCH_Outlines_" data-name="DO NOT TOUCH (Outlines)" xmlns="http://www.w3.org/2000/svg" viewBox="0 0 80 80">
  <path d="m70,48.75h-20c-.41,0-.75-.34-.75-.75v-12c0-.41.34-.75.75-.75h20c.41,0,.75.34.75.75v12c0,.41-.34.75-.75.75Zm-19.25-1.5h18.5v-10.5h-18.5v10.5Z"/>
  <rect x="59.25" y="48" width="1.5" height="4"/>
  <rect x="56" y="51.25" width="8" height="1.5"/>
  <path d="m50,64.75h-20c-.41,0-.75-.34-.75-.75v-12c0-.41.34-.75.75-.75h20c.41,0,.75.34.75.75v12c0,.41-.34.75-.75.75Zm-19.25-1.5h18.5v-10.5h-18.5v10.5Z"/>
  <rect x="39.25" y="64" width="1.5" height="4"/>
  <rect x="36" y="67.25" width="8" height="1.5"/>
  <path d="m30,48.75H10c-.41,0-.75-.34-.75-.75v-12c0-.41.34-.75.75-.75h20c.41,0,.75.34.75.75v12c0,.41-.34.75-.75.75Zm-19.25-1.5h18.5v-10.5H10.75v10.5Z"/>
  <rect x="19.25" y="48" width="1.5" height="4"/>
  <rect x="16" y="51.25" width="8" height="1.5"/>
  <rect x="39.25" y="28" width="1.5" height="24"/>
  <path d="m50,42.75h-2c-2.62,0-4.75-2.13-4.75-4.75v-10h1.5v10c0,1.79,1.46,3.25,3.25,3.25h2v1.5Z"/>
  <path d="m32,42.75h-2v-1.5h2c1.79,0,3.25-1.46,3.25-3.25v-10h1.5v10c0,2.62-2.13,4.75-4.75,4.75Z"/>
  <path d="m50,16.75h-20c-.41,0-.75-.34-.75-.75v-6c0-.41.34-.75.75-.75h20c.41,0,.75.34.75.75v6c0,.41-.34.75-.75.75Zm-19.25-1.5h18.5v-4.5h-18.5v4.5Z"/>
  <path d="m50,22.75h-20c-.41,0-.75-.34-.75-.75v-6c0-.41.34-.75.75-.75h20c.41,0,.75.34.75.75v6c0,.41-.34.75-.75.75Zm-19.25-1.5h18.5v-4.5h-18.5v4.5Z"/>
  <path d="m50,28.75h-20c-.41,0-.75-.34-.75-.75v-6c0-.41.34-.75.75-.75h20c.41,0,.75.34.75.75v6c0,.41-.34.75-.75.75Zm-19.25-1.5h18.5v-4.5h-18.5v4.5Z"/>
</svg>