<?xml version="1.0" encoding="UTF-8"?>
<svg id="art" xmlns="http://www.w3.org/2000/svg" width="80" height="80" viewBox="0 0 80 80">
  <defs>
    <style>
      .cls-1 {
        fill: #000;
        stroke-width: 0px;
      }
    </style>
  </defs>
  <path class="cls-1" d="M49.09,70l-11.21-33.63-11.21,33.63h-1.58l12.08-36.24c.1-.31.39-.51.71-.51s.61.21.71.51l12.08,36.24h-1.58Z"/>
  <rect class="cls-1" x="37.13" y="34" width="1.5" height="36"/>
  <rect class="cls-1" x="31.15" y="53.25" width="13.23" height="1.5"/>
  <g>
    <path class="cls-1" d="M39.73,37.01c-.27,0-.53-.15-.67-.4l-5.54-10.65c-.09-.18-.11-.38-.05-.57.06-.19.19-.35.37-.44l16.15-8.26c.37-.19.82-.04,1.01.32l5.54,10.65c.09.18.11.38.05.57-.06.19-.19.35-.37.44l-16.15,8.26c-.11.06-.23.08-.34.08ZM35.21,25.94l4.85,9.32,14.82-7.58-4.85-9.31-14.82,7.58Z"/>
    <path class="cls-1" d="M61.57,27.5c-.41,0-.81-.06-1.21-.19-1.02-.32-1.86-1.02-2.35-1.98l-4.37-8.4c-.5-.95-.59-2.04-.27-3.06.32-1.02,1.02-1.86,1.98-2.35l4.2-2.18c.37-.19.82-.05,1.01.32l7.38,14.19c.09.18.11.38.05.57-.06.19-.19.35-.37.44l-4.2,2.18c-.58.3-1.21.46-1.85.46ZM59.57,11.01l-3.53,1.84c-.6.31-1.04.83-1.24,1.47-.2.64-.14,1.32.17,1.92l4.37,8.4c.31.6.83,1.04,1.47,1.24.64.2,1.32.14,1.92-.17l3.53-1.84-6.69-12.86Z"/>
    <path class="cls-1" d="M21.92,41.77c-.08,0-.15-.01-.23-.04-.19-.06-.35-.19-.44-.37l-1.85-3.55c-.19-.37-.05-.82.32-1.01l15.97-8.31c.18-.09.38-.11.57-.05s.35.19.44.37l1.85,3.55c.19.37.05.82-.32,1.01l-15.97,8.31c-.11.06-.23.08-.35.08ZM21.08,37.79l1.15,2.22,14.64-7.61-1.15-2.22-14.64,7.61Z"/>
    <path class="cls-1" d="M17.69,46.22c-.27,0-.53-.15-.67-.4l-3.69-7.1c-.19-.37-.05-.82.32-1.01l5.15-2.68c.18-.09.38-.11.57-.05.19.06.35.19.44.37l3.69,7.1c.09.18.11.38.05.57-.06.19-.19.35-.37.44l-5.15,2.68c-.11.06-.23.08-.35.08ZM15.01,38.7l3,5.77,3.82-1.98-3-5.77-3.82,1.99Z"/>
  </g>
</svg>