<?xml version="1.0" encoding="UTF-8"?><svg id="a" xmlns="http://www.w3.org/2000/svg" viewBox="0 0 80 80"><path d="M10,70.75h60c.41406,0,.75-.33594,.75-.75v-12h-1.5v11.25H10.75v-11.25h-1.5v12c0,.41406,.33594,.75,.75,.75Z"/><path d="M10,52.75h60c.41406,0,.75-.33594,.75-.75v-12h-1.5v11.25H10.75v-11.25h-1.5v12c0,.41406,.33594,.75,.75,.75Z"/><path d="M10,34.75h60c.41406,0,.75-.33594,.75-.75v-12h-1.5v11.25H10.75v-11.25h-1.5v12c0,.41406,.33594,.75,.75,.75Z"/><path d="M39.25,8V24.18945l-5.6084-5.6084-1.06055,1.06055,6.88867,6.88867c.14648,.14648,.33789,.21973,.53027,.21973s.38379-.07324,.53027-.21973l6.88867-6.88867-1.06055-1.06055-5.6084,5.6084V8h-1.5Z"/><rect x="34" y="43.25" width="28" height="1.5"/><rect x="34" y="61.25" width="28" height="1.5"/><circle cx="20" cy="44" r="1"/><circle cx="24" cy="44" r="1"/><circle cx="28" cy="44" r="1"/><circle cx="20" cy="62" r="1"/><circle cx="24" cy="62" r="1"/><circle cx="28" cy="62" r="1"/></svg>