<?xml version="1.0" encoding="UTF-8"?><svg id="a" xmlns="http://www.w3.org/2000/svg" viewBox="0 0 80 80"><path d="M27.25,22c0,7.03027,5.71973,12.75,12.75,12.75s12.75-5.71973,12.75-12.75-5.71973-12.75-12.75-12.75-12.75,5.71973-12.75,12.75Zm12.75-11.25c6.20312,0,11.25,5.04688,11.25,11.25s-5.04688,11.25-11.25,11.25-11.25-5.04688-11.25-11.25,5.04688-11.25,11.25-11.25Z"/><path d="M64.75,52c0-7.03027-5.71973-12.75-12.75-12.75H28c-7.03027,0-12.75,5.71973-12.75,12.75v20h1.5v-20c0-6.20312,5.04688-11.25,11.25-11.25h24c6.20312,0,11.25,5.04688,11.25,11.25v20h1.5v-20Z"/><path d="M48,50.93945l-2.53027,2.53027c-.29297,.29297-.29297,.76758,0,1.06055l2.53027,2.53027,1.06055-1.06055-2-2,2-2-1.06055-1.06055Z"/><path d="M56,57.06055l2.53027-2.53027c.29297-.29297,.29297-.76758,0-1.06055l-2.53027-2.53027-1.06055,1.06055,2,2-2,2,1.06055,1.06055Z"/><rect x="45.67544" y="53.24958" width="12.64911" height="1.50085" transform="translate(-15.67274 86.25523) rotate(-71.56505)"/></svg>