<?xml version="1.0" encoding="UTF-8"?><svg id="a" xmlns="http://www.w3.org/2000/svg" viewBox="0 0 80 80"><path d="M40,9.25c-16.95605,0-30.75,13.79443-30.75,30.75s13.79395,30.75,30.75,30.75,30.75-13.79443,30.75-30.75-13.79395-30.75-30.75-30.75Zm29.23096,30h-6.49512c-.20654-11.57104-5.16162-21.57349-12.32959-26.58032,10.78271,4.11963,18.5166,14.4408,18.82471,26.58032Zm-28.48096,13.5h9.34351c-1.7793,9.31006-5.42505,15.69531-9.34351,16.4248v-16.4248Zm-1.5,16.4248c-3.91846-.72949-7.56421-7.11475-9.34351-16.4248h9.34351v16.4248Zm12.37158-16.4248h4.37842v-1.5H24v1.5h4.37842c1.35938,7.32983,3.74634,12.80981,6.68896,15.69604-9.17529-3.01465-16.05542-14.23743-16.30347-27.69604h6.48608v6.25c0,.96484,.78516,1.75,1.75,1.75h26c.96484,0,1.75-.78516,1.75-1.75v-6.25h6.48608c-.24805,13.45862-7.12817,24.6814-16.30347,27.69604,2.94263-2.88623,5.32959-8.36621,6.68896-15.69604Zm-12.37158-23.5h-9.68896c1.60938-10.32141,5.47607-17.63525,9.68896-18.4198V29.25Zm13.75,1.5c.1377,0,.25,.1123,.25,.25v16c0,.1377-.1123,.25-.25,.25H27c-.1377,0-.25-.1123-.25-.25V31c0-.1377,.1123-.25,.25-.25h26Zm-12.25-1.5V10.8302c4.21289,.78455,8.07959,8.09839,9.68896,18.4198h-9.68896Zm-12.70679,0h-1.04321c-.96484,0-1.75,.78516-1.75,1.75v8.25h-6.48608c.2478-13.4541,7.12354-24.67407,16.29443-27.69312-3.21753,3.16675-5.76392,9.43176-7.01514,17.69312Zm26.70679,10v-8.25c0-.96484-.78516-1.75-1.75-1.75h-1.04321c-1.25122-8.26135-3.79761-14.52637-7.01514-17.69312,9.1709,3.01904,16.04663,14.23901,16.29443,27.69312h-6.48608ZM29.59375,12.66968c-7.16797,5.00684-12.12305,15.00928-12.32959,26.58032h-6.49512c.30811-12.13953,8.04199-22.46069,18.82471-26.58032ZM10.76904,40.75h6.49512c.20654,11.57104,5.16162,21.57349,12.32959,26.58032-10.78271-4.11963-18.5166-14.4408-18.82471-26.58032Zm39.63721,26.58032c7.16797-5.00684,12.12305-15.00928,12.32959-26.58032h6.49512c-.30811,12.13953-8.04199,22.46069-18.82471,26.58032Z"/></svg>