<?xml version="1.0" encoding="UTF-8"?><svg id="a" xmlns="http://www.w3.org/2000/svg" viewBox="0 0 80 80"><path d="M60.66602,64.6665v-21.33301c0-1.10254-.89648-2-1.99805-2h-1.98535c.03491-.44128,.06738-.8833,.06738-1.3335,0-1.80273-.29907-3.56091-.85718-5.25h1.44019c4.08984,0,7.41699-3.32715,7.41699-7.4165,0-4.08984-3.32715-7.41699-7.41699-7.41699-1.22168,0-2.40527,.30469-3.47949,.88965-1.19434-6.66748-6.9502-11.55615-13.85352-11.55615-5.63672,0-10.74023,3.40771-12.94043,8.55811-.98242-.37061-2.00879-.55811-3.05957-.55811-4.8252,0-8.75,3.92529-8.75,8.75s3.9248,8.75,8.75,8.75h.10498c-.54761,1.65344-.85498,3.41528-.85498,5.25,0,.44775,.02856,.89124,.06323,1.3335h-1.95288c-1.10156,0-1.99805,.89746-1.99805,2v21.33301c0,1.10254,.89648,2,1.99805,2h17.95312v2.6333h-9.09961v1.40039h19.60059v-1.40039h-9.10059v-2.6333h17.9541c1.10156,0,1.99805-.89746,1.99805-2ZM24,33.25c-3.99805,0-7.25-3.25244-7.25-7.25s3.25195-7.25,7.25-7.25c1.08984,0,2.14941,.24463,3.14746,.72705,.19043,.09229,.41309,.09961,.60938,.01953s.34961-.23975,.42188-.43945c1.79883-4.96875,6.54883-8.30713,11.82129-8.30713,6.5332,0,11.91797,4.90186,12.52344,11.40186,.02539,.27246,.19727,.50928,.44922,.61816s.54199,.07178,.75781-.09521c1.06055-.82324,2.30664-1.2583,3.60254-1.2583,3.2627,0,5.91699,2.6543,5.91699,5.91699,0,3.26221-2.6543,5.9165-5.91699,5.9165H26.3457c2.49609-5.02759,7.67065-8.5,13.6543-8.5h.18945l-2.71973,2.71973,1.06055,1.06055,4-4c.29297-.29297,.29297-.76758,0-1.06055l-4-4-1.06055,1.06055,2.71973,2.71973h-.18945c-6.83398,0-12.71533,4.1189-15.31763,10h-.68237Zm31.25,6.75c0,.4502-.0293,.89319-.06763,1.3335H24.81323c-.03833-.44165-.06323-.88574-.06323-1.3335,0-1.84692,.34668-3.61023,.95093-5.25h28.60474c.61646,1.6792,.94434,3.44019,.94434,5.25Zm-33.88965,25.3335c-.36719,0-.66602-.29932-.66602-.66699v-21.33301c0-.36768,.29883-.66699,.66602-.66699h2.11768c.198,1.23608,.51733,2.44714,.98975,3.61475l1.39062-.5625c-.3999-.98792-.68262-2.00952-.86646-3.05225h30.00952c-1.2666,7.13965-7.50342,12.5835-15.00146,12.5835h-.18945l2.71973-2.71973-1.06055-1.06055-4,4c-.29297,.29297-.29297,.76758,0,1.06055l4,4,1.06055-1.06055-2.71973-2.71973h.18945c8.32666,0,15.2334-6.11353,16.51709-14.0835h2.15088c.36719,0,.66602,.29932,.66602,.66699v21.33301c0,.36768-.29883,.66699-.66602,.66699H21.36035Z"/></svg>