<?xml version="1.0" encoding="UTF-8"?><svg id="a" xmlns="http://www.w3.org/2000/svg" viewBox="0 0 80 80"><path d="M26,45.25v1.5h3.25v3.25c0,.41406,.33594,.75,.75,.75h3.25v3.25h1.5v-3.25h4.5v3.25h1.5v-3.25h4.5v3.25h1.5v-3.25h3.25c.41406,0,.75-.33594,.75-.75v-3.25h3.25v-1.5h-3.25v-4.5h3.25v-1.5h-3.25v-4.5h3.25v-1.5h-3.25v-3.25c0-.41406-.33594-.75-.75-.75h-3.25v-3.25h-1.5v3.25h-4.5v-3.25h-1.5v3.25h-4.5v-3.25h-1.5v3.25h-3.25c-.41406,0-.75,.33594-.75,.75v3.25h-3.25v1.5h3.25v4.5h-3.25v1.5h3.25v4.5h-3.25Zm4.75-14.5h18.5v18.5H30.75V30.75Z"/><path d="M67.31445,25.86279l-1.33203,.69043c2.16797,4.18066,3.26758,8.70459,3.26758,13.44678,0,16.12842-13.12109,29.25-29.25,29.25-7.80078,0-15.08887-3.01837-20.60278-8.5h6.60278v-1.5h-8c-.41406,0-.75,.33594-.75,.75v8h1.5v-5.78192c5.74634,5.50806,13.2417,8.53192,21.25,8.53192,16.95605,0,30.75-13.79443,30.75-30.75,0-4.91455-1.18848-9.80322-3.43555-14.13721Z"/><path d="M14.01758,53.44678c-2.16797-4.18066-3.26758-8.70459-3.26758-13.44678,0-16.12842,13.12109-29.25,29.25-29.25,7.80078,0,15.08887,3.01837,20.60278,8.5h-6.60278v1.5h8c.41406,0,.75-.33594,.75-.75V12h-1.5v5.78192c-5.74634-5.50806-13.2417-8.53192-21.25-8.53192-16.95605,0-30.75,13.79443-30.75,30.75,0,4.91455,1.18848,9.80322,3.43555,14.13721l1.33203-.69043Z"/></svg>