<?xml version="1.0" encoding="UTF-8"?><svg id="a" xmlns="http://www.w3.org/2000/svg" viewBox="0 0 80 80"><path d="M31.86719,33.8501c-.06543,0-.12305,.04199-.14258,.10352l-2.05664,6.33545-2.03613-6.33496c-.01953-.06201-.07715-.104-.14258-.104h-1.48926c-.04883,0-.09375,.02344-.12207,.06299s-.03516,.09033-.01953,.13574l2.7666,8c.02051,.06055,.07812,.10107,.1416,.10107h1.74512c.06445,0,.12109-.04053,.1416-.10107l2.74414-8c.01562-.0459,.00879-.09668-.01953-.13623-.02832-.03906-.07324-.0625-.12207-.0625h-1.38867Z"/><path d="M40.95605,42.1499h1.31152c.08301,0,.15039-.06689,.15039-.1499v-8c0-.08301-.06738-.1499-.15039-.1499h-1.7666c-.06348,0-.12012,.04004-.1416,.1001l-2.14062,6.10693-2.25586-6.10889c-.02148-.05908-.07812-.09814-.14062-.09814h-1.7998c-.08301,0-.15039,.06689-.15039,.1499v8c0,.08301,.06738,.1499,.15039,.1499h1.28906c.08301,0,.15039-.06689,.15039-.1499v-5.13574l1.96387,5.18896c.02246,.05811,.07812,.09668,.14062,.09668h1.24512c.06348,0,.11914-.03955,.14062-.09912l1.85352-5.12793v5.07715c0,.08301,.06738,.1499,.15039,.1499Z"/><path d="M51.95801,42.03613l1.98828-8c.01074-.04492,.00098-.09229-.02734-.12842-.02832-.03662-.07227-.05762-.11816-.05762h-1.33301c-.06934,0-.12988,.04785-.14648,.11572l-1.34863,5.7583-1.4707-5.76123c-.01758-.06641-.07715-.11279-.14551-.11279h-1.67773c-.06836,0-.12793,.0459-.14551,.1123l-1.49219,5.76807-1.36133-5.76514c-.01562-.06738-.07617-.11523-.14551-.11523h-1.4668c-.0459,0-.08984,.02148-.11816,.05762-.02832,.03662-.03906,.08447-.02734,.12939l2.0332,8c.0166,.06641,.07715,.11279,.14551,.11279h1.67773c.06836,0,.12793-.0459,.14551-.1123l1.54297-5.96973,1.5332,5.96924c.01758,.06641,.07715,.11279,.14551,.11279h1.66699c.06934,0,.12891-.04688,.14551-.11377Z"/><path d="M61,70.75c5.37598,0,9.75-4.37402,9.75-9.75s-4.37402-9.75-9.75-9.75-9.75,4.37402-9.75,9.75,4.37402,9.75,9.75,9.75Zm0-18c4.54883,0,8.25,3.70117,8.25,8.25s-3.70117,8.25-8.25,8.25-8.25-3.70117-8.25-8.25,3.70117-8.25,8.25-8.25Z"/><path d="M60,64.75c.19238,0,.38379-.07324,.53027-.21973l6-6-1.06055-1.06055-5.46973,5.46973-2.46973-2.46973-1.06055,1.06055,3,3c.14648,.14648,.33789,.21973,.53027,.21973Z"/><path d="M46.53027,9.46973c-.14062-.14062-.33105-.21973-.53027-.21973H20c-.41406,0-.75,.33594-.75,.75v60c0,.41406,.33594,.75,.75,.75h30v-1.5H20.75V10.75h24.5v13.25c0,.41406,.33594,.75,.75,.75h13.25v23.25h1.5V24c0-.19873-.0791-.38965-.21973-.53027l-14-14Zm.21973,13.78027V11.81055l11.43945,11.43945h-11.43945Z"/></svg>