<?xml version="1.0" encoding="UTF-8"?><svg id="a" xmlns="http://www.w3.org/2000/svg" viewBox="0 0 80 80"><path d="M56,18.75c7.30566,0,13.25,5.94385,13.25,13.25h1.5c0-8.1333-6.61719-14.75-14.75-14.75s-14.75,6.6167-14.75,14.75v20c0,8.1333,6.61719,14.75,14.75,14.75s14.75-6.6167,14.75-14.75v-10.75h-16.75v1.5h15.25v9.25c0,7.30615-5.94434,13.25-13.25,13.25s-13.25-5.94385-13.25-13.25v-20c0-7.30615,5.94434-13.25,13.25-13.25Z"/><path d="M24,66.75c8.13281,0,14.75-6.6167,14.75-14.75s-6.61719-14.75-14.75-14.75H12.75V20.75h23.25v-1.5H11.25v19.5h12.75c7.30566,0,13.25,5.94385,13.25,13.25s-5.94434,13.25-13.25,13.25-13.25-5.94385-13.25-13.25h-1.5c0,8.1333,6.61719,14.75,14.75,14.75Z"/></svg>