<svg xmlns="http://www.w3.org/2000/svg" viewBox="0 0 80 80"><path d="M40.01367,9.25A30.75,30.75,0,1,0,70.76367,40,30.78457,30.78457,0,0,0,40.01367,9.25ZM15.84277,23.54932l1.709,2.73486A30.57828,30.57828,0,0,0,34.135,39.25H10.78271A29.07373,29.07373,0,0,1,15.84277,23.54932ZM10.78271,40.75h23.314A30.57924,30.57924,0,0,0,17.55176,53.70459l-1.71289,2.74072A29.07422,29.07422,0,0,1,10.78271,40.75Zm29.231,28.5A29.215,29.215,0,0,1,16.78955,57.75366l2.03369-3.25415A29.08462,29.08462,0,0,1,43.627,40.752H58.97852V40.75h1.21093L49.46973,51.46973l1.06054,1.06054,12-12a.74972.74972,0,0,0,0-1.06054l-12-12-1.06054,1.06054L60.18945,39.25H58.97852v-.01318H43.627A29.08462,29.08462,0,0,1,18.82324,25.48926L16.7937,22.24133A29.2427,29.2427,0,1,1,40.01367,69.25Z"/></svg>