<?xml version="1.0" encoding="UTF-8"?><svg id="a" xmlns="http://www.w3.org/2000/svg" viewBox="0 0 80 80"><path d="M24.43262,16.48682c-1.8916,2.01611-2.93262,4.68408-2.93262,7.51318s1.04102,5.49707,2.93262,7.51318l1.09375-1.02637c-1.62891-1.73682-2.52637-4.04053-2.52637-6.48682s.89746-4.75,2.52637-6.48682l-1.09375-1.02637Z"/><path d="M19.92578,12.97314c-2.90332,2.94385-4.50293,6.85986-4.50293,11.02686s1.59961,8.08301,4.50293,11.02686l1.06836-1.05371c-2.62598-2.66113-4.07129-6.20264-4.07129-9.97314s1.44531-7.31201,4.07129-9.97314l-1.06836-1.05371Z"/><path d="M15.32324,38.53271l1.05664-1.06543c-3.63086-3.59863-5.62988-8.38184-5.62988-13.46729s1.99902-9.86865,5.62988-13.46729l-1.05664-1.06543c-3.91602,3.88281-6.07324,9.04395-6.07324,14.53271s2.15723,10.6499,6.07324,14.53271Z"/><path d="M55.56738,31.51318c1.8916-2.01611,2.93262-4.68408,2.93262-7.51318s-1.04102-5.49707-2.93262-7.51318l-1.09375,1.02637c1.62891,1.73682,2.52637,4.04053,2.52637,6.48682s-.89746,4.75-2.52637,6.48682l1.09375,1.02637Z"/><path d="M60.07422,35.02686c2.90332-2.94385,4.50293-6.85986,4.50293-11.02686s-1.59961-8.08301-4.50293-11.02686l-1.06836,1.05371c2.62598,2.66113,4.07129,6.20264,4.07129,9.97314s-1.44531,7.31201-4.07129,9.97314l1.06836,1.05371Z"/><path d="M64.67676,9.46729l-1.05664,1.06543c3.63086,3.59863,5.62988,8.38184,5.62988,13.46729s-1.99902,9.86865-5.62988,13.46729l1.05664,1.06543c3.91602-3.88281,6.07324-9.04395,6.07324-14.53271s-2.15723-10.6499-6.07324-14.53271Z"/><path d="M46.75,32V16h-1.5v9.25h-2.5V14c0-.41406-.33594-.75-.75-.75h-4c-.41406,0-.75,.33594-.75,.75v11.25h-2.5v-9.25h-1.5v16h1.5v-5.25h2.5v7.25c0,.41406,.33594,.75,.75,.75h1.25v6.5h-1.25c-.41406,0-.75,.33594-.75,.75v28c0,.41406,.33594,.75,.75,.75h4c.41406,0,.75-.33594,.75-.75v-28c0-.41406-.33594-.75-.75-.75h-1.25v-6.5h1.25c.41406,0,.75-.33594,.75-.75v-7.25h2.5v5.25h1.5Zm-5.5,37.25h-2.5v-16.5h2.5v16.5Zm0-26.5v8.5h-2.5v-8.5h2.5Zm0-9.5h-2.5V14.75h2.5v18.5Z"/></svg>