<?xml version="1.0" encoding="UTF-8"?><svg id="a" xmlns="http://www.w3.org/2000/svg" viewBox="0 0 80 80"><path d="M70.75,40c0-16.95557-13.79395-30.75-30.75-30.75S9.25,23.04443,9.25,40s13.79395,30.75,30.75,30.75c8.20874,0,15.67041-3.23932,21.19043-8.4989l8.2793,8.27917,1.06055-1.06055-8.2793-8.27917c5.25977-5.52026,8.49902-12.98193,8.49902-21.19055Zm-60,0c0-16.12842,13.12109-29.25,29.25-29.25s29.25,13.12158,29.25,29.25-13.12109,29.25-29.25,29.25-29.25-13.12158-29.25-29.25Z"/><path d="M58.75,46.32581v-12.65161c1.70947-.34851,3-1.86322,3-3.67419,0-2.06787-1.68262-3.75-3.75-3.75-1.08057,0-2.04834,.46631-2.7334,1.20032l-11.75293-7.18176c.14453-.39807,.23633-.82129,.23633-1.26855,0-2.06787-1.68262-3.75-3.75-3.75s-3.75,1.68213-3.75,3.75c0,.44727,.0918,.87048,.23633,1.26855l-11.75269,7.18207c-.68481-.73419-1.65283-1.20062-2.73364-1.20062-2.06738,0-3.75,1.68213-3.75,3.75,0,1.81097,1.29053,3.32568,3,3.67419v12.65161c-1.70947,.34851-3,1.86322-3,3.67419,0,2.06787,1.68262,3.75,3.75,3.75,1.08057,0,2.04858-.46637,2.73364-1.20044l11.75244,7.18195c-.14429,.39801-.23608,.82129-.23608,1.26849,0,2.06787,1.68262,3.75,3.75,3.75s3.75-1.68213,3.75-3.75c0-.4472-.0918-.87036-.23608-1.26837l11.75244-7.18207c.68506,.73407,1.65308,1.20044,2.73364,1.20044,2.06738,0,3.75-1.68213,3.75-3.75,0-1.81097-1.29053-3.32568-3-3.67419Zm-.75-18.57581c1.24023,0,2.25,1.00928,2.25,2.25s-1.00977,2.25-2.25,2.25-2.25-1.00928-2.25-2.25,1.00977-2.25,2.25-2.25Zm-18-11c1.24023,0,2.25,1.00928,2.25,2.25s-1.00977,2.25-2.25,2.25-2.25-1.00928-2.25-2.25,1.00977-2.25,2.25-2.25Zm-20.25,13.25c0-1.24072,1.00977-2.25,2.25-2.25s2.25,1.00928,2.25,2.25-1.00977,2.25-2.25,2.25-2.25-1.00928-2.25-2.25Zm2.25,22.25c-1.24023,0-2.25-1.00928-2.25-2.25s1.00977-2.25,2.25-2.25,2.25,1.00928,2.25,2.25-1.00977,2.25-2.25,2.25Zm18,11c-1.24023,0-2.25-1.00928-2.25-2.25s1.00977-2.25,2.25-2.25,2.25,1.00928,2.25,2.25-1.00977,2.25-2.25,2.25Zm2.73364-4.79938c-.68481-.73419-1.65283-1.20062-2.73364-1.20062s-2.04858,.46643-2.73364,1.20056l-11.75269-7.18188c.14453-.39807,.23633-.82141,.23633-1.26868,0-1.81097-1.29053-3.32568-3-3.67419v-12.65161c1.70947-.34851,3-1.86322,3-3.67419,0-.4472-.0918-.87036-.23608-1.26837l11.75244-7.18213c.68506,.73413,1.65308,1.2005,2.73364,1.2005s2.04858-.46637,2.73364-1.2005l11.75269,7.1817c-.14453,.39813-.23633,.82147-.23633,1.2688,0,1.81097,1.29053,3.32568,3,3.67419v12.65161c-1.70947,.34851-3,1.86322-3,3.67419,0,.44727,.0918,.87061,.23633,1.26868l-11.75269,7.18195Zm15.26636-6.20062c-1.24023,0-2.25-1.00928-2.25-2.25s1.00977-2.25,2.25-2.25,2.25,1.00928,2.25,2.25-1.00977,2.25-2.25,2.25Z"/><path d="M48,39.25h-8c-.41406,0-.75,.33594-.75,.75v8c0,.41406,.33594,.75,.75,.75h8c.41406,0,.75-.33594,.75-.75v-8c0-.41406-.33594-.75-.75-.75Zm-.75,8h-6.5v-6.5h6.5v6.5Z"/><path d="M36.75,36.75h6.5v1.25h1.5v-2c0-.41406-.33594-.75-.75-.75h-8c-.41406,0-.75,.33594-.75,.75v8c0,.41406,.33594,.75,.75,.75h2v-1.5h-1.25v-6.5Z"/><path d="M32.75,32.75h6.5v1.25h1.5v-2c0-.41406-.33594-.75-.75-.75h-8c-.41406,0-.75,.33594-.75,.75v8c0,.41406,.33594,.75,.75,.75h2v-1.5h-1.25v-6.5Z"/></svg>