<?xml version="1.0" encoding="UTF-8"?><svg id="a" xmlns="http://www.w3.org/2000/svg" viewBox="0 0 80 80"><path d="M70.09082,34.48975c-.25-1.36816-1.48633-2.30615-2.89844-2.16553-2.98535,.28711-5.86426-1.19971-7.35449-3.77979-1.48926-2.5791-1.33203-5.81934,.40137-8.25439,.81152-1.14111,.63379-2.68115-.41504-3.58203-1.42969-1.22852-2.95117-2.31152-4.52051-3.21826-1.56738-.90479-3.26562-1.68018-5.04785-2.30469-1.30371-.45654-2.72852,.15723-3.31055,1.43115-1.24121,2.71826-3.96777,4.4751-6.94727,4.47559-2.98047,0-5.70898-1.75781-6.9502-4.47803-.58496-1.28076-2.01465-1.89404-3.3252-1.42725-3.54004,1.26221-6.7793,3.14111-9.62793,5.58398-1.00781,.86377-1.15332,2.37598-.33887,3.51709,1.73633,2.43506,1.89551,5.67725,.4043,8.25977-1.49219,2.58252-4.37695,4.06543-7.35449,3.78027-1.39551-.12891-2.63086,.74756-2.87695,2.05225-.69043,3.68896-.69727,7.43359-.01953,11.13037,.25098,1.36768,1.49609,2.30518,2.89844,2.16553,2.98926-.28662,5.86328,1.19971,7.35449,3.77979,1.48926,2.5791,1.33203,5.81934-.40137,8.25439-.81152,1.14111-.63379,2.68115,.41504,3.58203,1.42969,1.22852,2.95117,2.31152,4.52051,3.21826,1.56738,.90479,3.26562,1.68018,5.04785,2.30469,1.30273,.4585,2.72949-.15723,3.31055-1.43115,1.24121-2.71826,3.96777-4.4751,6.94727-4.47559h.00098c2.98047,0,5.70801,1.75781,6.94922,4.47803,.45312,.9917,1.41211,1.58301,2.42969,1.58301,.29688,0,.59961-.05029,.89551-.15576,3.54004-1.26221,6.7793-3.14111,9.62793-5.58447,1.00781-.86328,1.15332-2.37549,.33887-3.5166-1.73633-2.43506-1.89551-5.67725-.4043-8.25977,1.48926-2.58252,4.37793-4.06982,7.35449-3.78027,1.40039,.13135,2.63281-.74756,2.87695-2.05225,.69043-3.68945,.69727-7.43408,.01953-11.13037Zm-1.49414,10.854c-.10059,.53516-.64746,.89307-1.25879,.83545-3.56152-.33936-7.01367,1.43311-8.79688,4.52344-1.78418,3.08984-1.59473,6.96826,.48242,9.88086,.35938,.50439,.31934,1.15234-.09473,1.50684-2.70801,2.32324-5.78809,4.10986-9.15527,5.31006-.58301,.20898-1.19336-.06201-1.45605-.63721-1.48535-3.25342-4.74805-5.35498-8.31445-5.35498h-.00098c-3.56445,.00049-6.82715,2.10156-8.3125,5.35254-.26074,.57275-.86816,.84082-1.44922,.63916-1.69434-.59424-3.30762-1.33057-4.79395-2.18848-1.48926-.86035-2.93359-1.88867-4.29297-3.05713-.46387-.39893-.53613-1.06104-.16992-1.57422,2.07227-2.9126,2.25977-6.78809,.47754-9.87451-1.7832-3.08887-5.24414-4.86719-8.7959-4.52295-.64941,.06201-1.16895-.33643-1.28125-.94287-.64355-3.51514-.6377-7.07617,.01953-10.5835,.09961-.53516,.62012-.89844,1.25879-.83545,3.5625,.33789,7.0127-1.43408,8.79688-4.52344,1.78418-3.08984,1.59473-6.96826-.48242-9.88086-.35938-.50439-.31934-1.15234,.09473-1.50732,2.70898-2.32324,5.78906-4.10938,9.15527-5.30957,.58301-.21094,1.19336,.06152,1.45605,.63721,1.48535,3.25293,4.74902,5.35498,8.31543,5.35498,3.56445-.00049,6.82715-2.10156,8.3125-5.35254,.26172-.57275,.86719-.83984,1.44922-.63916,1.69434,.59424,3.30762,1.33057,4.79395,2.18848,1.48926,.86035,2.93359,1.88867,4.29297,3.05713,.46387,.39893,.53613,1.06104,.16992,1.57422-2.07227,2.9126-2.25977,6.78809-.47754,9.87451,1.7832,3.08887,5.23145,4.86133,8.7959,4.52295,.65332-.05615,1.16895,.33691,1.28125,.94287,.64355,3.51514,.6377,7.07568-.01953,10.5835Z"/><path d="M54.40039,35.6499c-2.1416,0-3.91699,1.55933-4.2749,3.6001h-5.85156c-.1123-.64026-.35986-1.23157-.72021-1.74329l4.75293-4.75275c.70703,.4978,1.56445,.79584,2.49316,.79584,2.39844,0,4.35059-1.95117,4.35059-4.34961s-1.95215-4.3501-4.35059-4.3501-4.34961,1.95166-4.34961,4.3501c0,.92871,.29785,1.78595,.7959,2.49323l-4.75293,4.75262c-.51172-.36029-1.10303-.60803-1.74316-.72028v-5.85144c2.04053-.35779,3.59961-2.13263,3.59961-4.27423,0-2.39844-1.95117-4.3501-4.34961-4.3501s-4.34961,1.95166-4.34961,4.3501c0,2.1416,1.55908,3.91644,3.59961,4.27423v5.85144c-.64014,.11224-1.23145,.35999-1.74316,.72028l-4.75293-4.75262c.49805-.70728,.7959-1.56451,.7959-2.49323,0-2.39844-1.95117-4.3501-4.34961-4.3501s-4.35059,1.95166-4.35059,4.3501,1.95215,4.34961,4.35059,4.34961c.92871,0,1.78613-.29803,2.49316-.79584l4.75293,4.75275c-.36035,.51172-.60791,1.10303-.72021,1.74329h-5.85156c-.35791-2.04077-2.1333-3.6001-4.2749-3.6001-2.39844,0-4.34961,1.95166-4.34961,4.3501s1.95117,4.3501,4.34961,4.3501c2.1416,0,3.91699-1.55933,4.2749-3.6001h5.85156c.1123,.64026,.35986,1.23157,.72021,1.74329l-4.75293,4.75275c-.70703-.4978-1.56445-.79584-2.49316-.79584-2.39844,0-4.35059,1.95117-4.35059,4.34961s1.95215,4.3501,4.35059,4.3501,4.34961-1.95166,4.34961-4.3501c0-.92871-.29785-1.78595-.7959-2.49323l4.75293-4.75262c.51172,.36029,1.10303,.60803,1.74316,.72028v5.85144c-2.04053,.35779-3.59961,2.13263-3.59961,4.27423,0,2.39844,1.95117,4.3501,4.34961,4.3501s4.34961-1.95166,4.34961-4.3501c0-2.1416-1.55908-3.91644-3.59961-4.27423v-5.85144c.64014-.11224,1.23145-.35999,1.74316-.72028l4.75293,4.75262c-.49805,.70728-.7959,1.56451-.7959,2.49323,0,2.39844,1.95117,4.3501,4.34961,4.3501s4.35059-1.95166,4.35059-4.3501-1.95215-4.34961-4.35059-4.34961c-.92871,0-1.78613,.29803-2.49316,.79584l-4.75293-4.75275c.36035-.51172,.60791-1.10303,.72021-1.74329h5.85156c.35791,2.04077,2.1333,3.6001,4.2749,3.6001,2.39844,0,4.34961-1.95166,4.34961-4.3501s-1.95117-4.3501-4.34961-4.3501Zm-28.80078,7.2002c-1.57129,0-2.84961-1.27832-2.84961-2.8501s1.27832-2.8501,2.84961-2.8501c1.57227,0,2.85059,1.27832,2.85059,2.8501s-1.27832,2.8501-2.85059,2.8501Zm25.2002-16.5c1.57227,0,2.85059,1.27832,2.85059,2.8501,0,1.57129-1.27832,2.84961-2.85059,2.84961-1.57129,0-2.84961-1.27832-2.84961-2.84961,0-1.57178,1.27832-2.8501,2.84961-2.8501Zm-13.64941-.75c0-1.57178,1.27832-2.8501,2.84961-2.8501s2.84961,1.27832,2.84961,2.8501-1.27832,2.8501-2.84961,2.8501-2.84961-1.27832-2.84961-2.8501Zm-7.9502,6.44971c-1.57227,0-2.85059-1.27832-2.85059-2.84961,0-1.57178,1.27832-2.8501,2.85059-2.8501,1.57129,0,2.84961,1.27832,2.84961,2.8501,0,1.57129-1.27832,2.84961-2.84961,2.84961Zm0,21.6001c-1.57227,0-2.85059-1.27832-2.85059-2.8501,0-1.57129,1.27832-2.84961,2.85059-2.84961,1.57129,0,2.84961,1.27832,2.84961,2.84961,0,1.57178-1.27832,2.8501-2.84961,2.8501Zm13.64941,.75c0,1.57178-1.27832,2.8501-2.84961,2.8501s-2.84961-1.27832-2.84961-2.8501,1.27832-2.8501,2.84961-2.8501,2.84961,1.27832,2.84961,2.8501Zm-2.84961-11.5498c-1.57129,0-2.84961-1.27832-2.84961-2.8501s1.27832-2.8501,2.84961-2.8501,2.84961,1.27832,2.84961,2.8501-1.27832,2.8501-2.84961,2.8501Zm10.7998,5.1001c1.57227,0,2.85059,1.27832,2.85059,2.84961,0,1.57178-1.27832,2.8501-2.85059,2.8501-1.57129,0-2.84961-1.27832-2.84961-2.8501,0-1.57129,1.27832-2.84961,2.84961-2.84961Zm3.60059-5.1001c-1.57227,0-2.85059-1.27832-2.85059-2.8501s1.27832-2.8501,2.85059-2.8501c1.57129,0,2.84961,1.27832,2.84961,2.8501s-1.27832,2.8501-2.84961,2.8501Z"/></svg>