<?xml version="1.0" encoding="utf-8"?>
<!-- Generator: Adobe Illustrator 28.3.0, SVG Export Plug-In . SVG Version: 6.00 Build 0)  -->
<svg version="1.1" xmlns="http://www.w3.org/2000/svg" xmlns:xlink="http://www.w3.org/1999/xlink" x="0px" y="0px"
	 viewBox="0 0 80 80" style="enable-background:new 0 0 80 80;" xml:space="preserve">
<style type="text/css">
	.st0{display:none;}
	.st1{display:inline;opacity:0.75;}
	.st2{fill:#FFFFFF;}
	.st3{display:inline;}
	.st4{fill:none;stroke:#00FFFF;stroke-width:5.000000e-02;stroke-linecap:round;stroke-miterlimit:10;}
	.st5{fill:none;}
	.st6{opacity:0.22;fill:none;stroke:#FF0000;stroke-width:5.000000e-02;stroke-linecap:round;stroke-miterlimit:10;}
	.st7{opacity:0.22;}
	.st8{fill:none;stroke:#FF0000;stroke-width:5.000000e-02;stroke-linecap:round;stroke-miterlimit:10;}
	.st9{fill:none;stroke:#000000;stroke-width:1.5;stroke-linejoin:round;stroke-miterlimit:10;}
</style>
<g id="border" class="st0">
	<g class="st1">
		<path class="st2" d="M72,8v64H8V8H72 M80,0H0v80h80V0L80,0z"/>
	</g>
</g>
<g id="_x38__grid" class="st0">
	<g class="st3">
		<rect x="8" y="8" class="st4" width="8" height="64"/>
		<rect x="16" y="8" class="st4" width="8" height="64"/>
		<rect x="24" y="8" class="st4" width="8" height="64"/>
		<rect x="32" y="8" class="st4" width="8" height="64"/>
		<rect x="40" y="8" class="st4" width="8" height="64"/>
		<rect x="48" y="8" class="st4" width="8" height="64"/>
		<rect x="56" y="8" class="st4" width="8" height="64"/>
		<rect x="64" y="8" class="st4" width="8" height="64"/>
	</g>
	<g class="st3">
		<rect x="36" y="36" transform="matrix(6.123234e-17 -1 1 6.123234e-17 -28 108)" class="st4" width="8" height="64"/>
		<rect x="36" y="28" transform="matrix(6.123234e-17 -1 1 6.123234e-17 -20 100)" class="st4" width="8" height="64"/>
		<rect x="36" y="20" transform="matrix(6.123234e-17 -1 1 6.123234e-17 -12 92)" class="st4" width="8" height="64"/>
		<rect x="36" y="12" transform="matrix(6.123234e-17 -1 1 6.123234e-17 -4 84)" class="st4" width="8" height="64"/>
		<rect x="36" y="4" transform="matrix(6.123234e-17 -1 1 6.123234e-17 4 76)" class="st4" width="8" height="64"/>
		<rect x="36" y="-4" transform="matrix(6.123234e-17 -1 1 6.123234e-17 12 68)" class="st4" width="8" height="64"/>
		<rect x="36" y="-12" transform="matrix(6.123234e-17 -1 1 6.123234e-17 20 60)" class="st4" width="8" height="64"/>
		<rect x="36" y="-20" transform="matrix(6.123234e-17 -1 1 6.123234e-17 28 52)" class="st4" width="8" height="64"/>
	</g>
</g>
<g id="export_frame" class="st0">
	<g class="st3">
		<rect x="0" class="st5" width="80" height="80"/>
	</g>
</g>
<g id="guide_shapes" class="st0">
	<g class="st3">
		<line class="st6" x1="8" y1="8" x2="72" y2="72"/>
		<line class="st6" x1="72" y1="8" x2="8" y2="72"/>
		<line class="st6" x1="8" y1="40" x2="72" y2="40"/>
		<line class="st6" x1="40" y1="8" x2="40" y2="72"/>
		<rect x="8" y="8" class="st6" width="64" height="64"/>
		<circle class="st6" cx="40" cy="40" r="16"/>
		<circle class="st6" cx="40" cy="40" r="24"/>
		<rect x="24" y="24" class="st6" width="32" height="32"/>
		<circle class="st6" cx="40" cy="40" r="30"/>
		<rect x="12" y="12" class="st6" width="56" height="56"/>
		<line class="st6" x1="40" y1="40" x2="71.9" y2="31.5"/>
		<line class="st6" x1="8.1" y1="48.5" x2="40" y2="40"/>
		<g class="st7">
			<line class="st8" x1="40" y1="40" x2="71.9" y2="48.5"/>
			<line class="st8" x1="8.1" y1="31.5" x2="40" y2="40"/>
		</g>
		<line class="st6" x1="40" y1="40" x2="48.5" y2="71.9"/>
		<line class="st6" x1="31.5" y1="8.1" x2="40" y2="40"/>
		<line class="st6" x1="40" y1="40" x2="31.5" y2="71.9"/>
		<line class="st6" x1="48.5" y1="8.1" x2="40" y2="40"/>
		<g class="st7">
			<line class="st8" x1="40" y1="40" x2="71.9" y2="48.5"/>
			<line class="st8" x1="8.1" y1="31.5" x2="40" y2="40"/>
		</g>
	</g>
</g>
<g id="art">
	<g>
		<rect x="10" y="51.2" width="60" height="1.5"/>
	</g>
	<g>
		<path d="M68,58.8H12c-1.5,0-2.8-1.2-2.8-2.8V22c0-1.5,1.2-2.8,2.8-2.8h56c1.5,0,2.8,1.2,2.8,2.8v34C70.8,57.5,69.5,58.8,68,58.8z
			 M12,20.8c-0.7,0-1.2,0.6-1.2,1.2v34c0,0.7,0.6,1.2,1.2,1.2h56c0.7,0,1.2-0.6,1.2-1.2V22c0-0.7-0.6-1.2-1.2-1.2H12z"/>
	</g>
	<g>
		<rect x="39.2" y="58" width="1.5" height="4"/>
	</g>
	<g>
		<rect x="26" y="61.2" width="28" height="1.5"/>
	</g>
	<g>
		<g>
			<path d="M40,44.8c-5,0-9.6-2.8-12.6-7.7c-0.2-0.2-0.2-0.6,0-0.8c3.1-4.9,7.7-7.7,12.6-7.7s9.6,2.8,12.6,7.7
				c0.2,0.2,0.2,0.6,0,0.8C49.6,41.9,45,44.8,40,44.8z M28.9,36.6c2.8,4.2,6.8,6.6,11.1,6.6s8.3-2.4,11.1-6.6
				C48.3,32.4,44.3,30,40,30S31.7,32.4,28.9,36.6z"/>
		</g>
		<g>
			<path d="M40,41.4c-2.6,0-4.8-2.1-4.8-4.8s2.1-4.8,4.8-4.8s4.8,2.1,4.8,4.8S42.6,41.4,40,41.4z M40,33.4c-1.8,0-3.2,1.5-3.2,3.2
				s1.5,3.2,3.2,3.2s3.2-1.5,3.2-3.2S41.8,33.4,40,33.4z"/>
		</g>
	</g>
</g>
</svg>
