<?xml version="1.0" encoding="UTF-8"?><svg id="a" xmlns="http://www.w3.org/2000/svg" viewBox="0 0 80 80"><path d="M40.35547,9.33984c-.22266-.12012-.48828-.12012-.71094,0L13.64453,23.33984c-.24316,.13086-.39453,.38428-.39453,.66016V56c0,.27588,.15137,.5293,.39453,.66016l26,14c.11133,.06006,.2334,.08984,.35547,.08984s.24414-.02979,.35547-.08984l26-14c.24316-.13086,.39453-.38428,.39453-.66016V24c0-.27588-.15137-.5293-.39453-.66016l-26-14Zm24.89453,46.2124l-25.25,13.5957-25.25-13.5957V24.44775l25.25-13.5957,25.25,13.5957v31.10449Z"/><path d="M23.25,40c0,4.60657,1.87012,8.78381,4.89014,11.81506,.00732,.0083,.01025,.01917,.01807,.02722,.0083,.00812,.01904,.01062,.02734,.01831,3.03125,3.01935,7.20801,4.8894,11.81445,4.8894,9.23633,0,16.75-7.51416,16.75-16.75s-7.51367-16.75-16.75-16.75-16.75,7.51416-16.75,16.75Zm16-15.21204v14.46204h-14.46191c.38232-7.80914,6.65234-14.07947,14.46191-14.46204Zm-14.46191,15.96204h13.40137l-9.47266,9.47302c-2.29785-2.53381-3.75049-5.83459-3.92871-9.47302Zm15.74414-.22119v-.00049l.00098-.00098,.00195-.00195,.00195-.00146v-.00049l.00098-.00146h.00098c.08594-.08936,.14648-.1958,.18066-.31055v-.00195h.00098v-.00342l.00098-.00049c.01074-.03955,.01855-.07959,.02344-.12109v-.00146l.00098-.00195c.00293-.02881,.00391-.05762,.00391-.08643v-15.20667c8.05957,.39484,14.5,7.05646,14.5,15.21204,0,8.40869-6.84082,15.25-15.25,15.25-3.93506,0-7.51465-1.5108-10.22266-3.96643l10.75293-10.7533,.00195-.00146Z"/></svg>