<?xml version="1.0" encoding="UTF-8"?>
<svg id="DO_NOT_TOUCH_Outlines_" data-name="DO NOT TOUCH (Outlines)" xmlns="http://www.w3.org/2000/svg" viewBox="0 0 80 80">
  <rect x="20.01" y="25.25" width="16" height="1.5"/>
  <rect x="28.01" y="33.25" width="5.99" height="1.5"/>
  <rect x="28.01" y="41.25" width="5.97" height="1.5"/>
  <rect x="28.01" y="49.25" width="5.99" height="1.5"/>
  <rect x="44.01" y="25.25" width="16" height="1.5"/>
  <rect x="52.01" y="33.25" width="6" height="1.5"/>
  <rect x="52.01" y="41.25" width="5.99" height="1.5"/>
  <rect x="52.01" y="49.25" width="6" height="1.5"/>
  <path d="m68.01,19.25H12.01c-1.52,0-2.75,1.23-2.75,2.75v34c0,1.52,1.23,2.75,2.75,2.75h27.25v2.5h-13.25v1.5h28v-1.5h-13.25v-2.5h27.25c1.52,0,2.75-1.23,2.75-2.75V22c0-1.52-1.23-2.75-2.75-2.75Zm1.25,36.75c0,.69-.56,1.25-1.25,1.25H12.01c-.69,0-1.25-.56-1.25-1.25V22c0-.69.56-1.25,1.25-1.25h56c.69,0,1.25.56,1.25,1.25v34Z"/>
  <polygon points="47.47 47.47 46 48.94 44.53 47.47 43.47 48.53 44.94 50 43.47 51.47 44.53 52.53 46 51.06 47.47 52.53 48.53 51.47 47.06 50 48.53 48.53 47.47 47.47"/>
  <path d="m22,40.94l-1.47-1.47-1.06,1.06,2,2c.15.15.34.22.53.22s.38-.07.53-.22l4-4-1.06-1.06-3.47,3.47Z"/>
  <path d="m22,48.94l-1.47-1.47-1.06,1.06,2,2c.15.15.34.22.53.22s.38-.07.53-.22l4-4-1.06-1.06-3.47,3.47Z"/>
  <path d="m22,32.94l-1.47-1.47-1.06,1.06,2,2c.15.15.34.22.53.22s.38-.07.53-.22l4-4-1.06-1.06-3.47,3.47Z"/>
  <path d="m46,40.94l-1.47-1.47-1.06,1.06,2,2c.15.15.34.22.53.22s.38-.07.53-.22l4-4-1.06-1.06-3.47,3.47Z"/>
  <path d="m46,32.94l-1.47-1.47-1.06,1.06,2,2c.15.15.34.22.53.22s.38-.07.53-.22l4-4-1.06-1.06-3.47,3.47Z"/>
</svg>