<?xml version="1.0" encoding="UTF-8"?><svg id="a" xmlns="http://www.w3.org/2000/svg" viewBox="0 0 80 80"><path d="M32,52.75h26v-1.5h-1.25V16c0-.41406-.33594-.75-.75-.75h-8c-.41406,0-.75,.33594-.75,.75V51.25h-2.5V26c0-.41406-.33594-.75-.75-.75h-8c-.41406,0-.75,.33594-.75,.75v25.25h-2.5v-15.25c0-.41406-.33594-.75-.75-.75h-8c-.41406,0-.75,.33594-.75,.75v15.25h-1.25v1.5h10ZM48.75,16.75h6.5V51.25h-6.5V16.75Zm-12,10h6.5v24.5h-6.5V26.75Zm-12,10h6.5v14.5h-6.5v-14.5Z"/><path d="M33.25,11.81049v6.18951h1.5V10c0-.41406-.33594-.75-.75-.75h-8v1.5h6.18945L12.53809,30.3999c-3.13281,3.13281-4.02539,7.62207-2.33008,11.71533s5.50098,6.63574,9.93164,6.63574v-1.5c-3.8125,0-7.08691-2.18799-8.5459-5.70996s-.69043-7.38477,2.00488-10.08057L33.25,11.81049Z"/><path d="M69.79004,37.88623c-1.69531-4.09326-5.5-6.63623-9.93066-6.63623v1.5c3.81152,0,7.08594,2.18799,8.54492,5.70996,1.45898,3.52246,.69043,7.38525-2.00488,10.08105l-19.64941,19.6499v-6.19092h-1.5v8c0,.41406,.33594,.75,.75,.75h8v-1.5h-6.18799l19.64795-19.64844c3.13281-3.13281,4.02637-7.62207,2.33008-11.71533Z"/></svg>