<?xml version="1.0" encoding="UTF-8"?><svg id="a" xmlns="http://www.w3.org/2000/svg" viewBox="0 0 80 80"><path d="M70.75,60V26c0-1.5166-1.2334-2.75-2.75-2.75h-6v1.5h6c.68945,0,1.25,.56055,1.25,1.25v29.25H10.75V26c0-.68945,.56055-1.25,1.25-1.25h6v-1.5h-6c-1.5166,0-2.75,1.2334-2.75,2.75V60c0,1.5166,1.2334,2.75,2.75,2.75h27.25v2.5h-9.25v1.5h20v-1.5h-9.25v-2.5h27.25c1.5166,0,2.75-1.2334,2.75-2.75Zm-58.75,1.25c-.68945,0-1.25-.56055-1.25-1.25v-3.25h58.5v3.25c0,.68945-.56055,1.25-1.25,1.25H12Z"/><path d="M52,48.75c.41406,0,.75-.33594,.75-.75v-16c0-.41406-.33594-.75-.75-.75H28c-.41406,0-.75,.33594-.75,.75v16c0,.41406,.33594,.75,.75,.75h24Zm-23.25-16h22.5v14.5H28.75v-14.5Z"/><rect x="26" y="51.25" width="28" height="1.5"/><path d="M58.75,23c0-3.17041-2.5791-5.75-5.75-5.75-.8623,0-1.70117,.1958-2.47266,.57324-1.00781-4.9624-5.34375-8.57324-10.52734-8.57324-4.24219,0-8.08984,2.52979-9.80664,6.37012-.70605-.24609-1.44141-.37012-2.19336-.37012-3.72168,0-6.75,3.02783-6.75,6.75s3.02832,6.75,6.75,6.75h25c3.1709,0,5.75-2.57959,5.75-5.75Zm-5.75,4.25H28c-2.89453,0-5.25-2.35498-5.25-5.25s2.35547-5.25,5.25-5.25c.79004,0,1.55664,.17725,2.27832,.52686,.19238,.09277,.41504,.09961,.60938,.01953,.19727-.08008,.35059-.23975,.42285-.43945,1.32227-3.65283,4.81445-6.10693,8.68945-6.10693,4.80273,0,8.76074,3.60303,9.20605,8.38135,.02539,.27246,.19727,.50928,.44824,.61816,.25391,.10889,.54297,.07129,.75879-.09521,.7627-.5918,1.65723-.9043,2.58691-.9043,2.34375,0,4.25,1.90674,4.25,4.25s-1.90625,4.25-4.25,4.25Z"/></svg>