<?xml version="1.0" encoding="UTF-8"?><svg id="a" xmlns="http://www.w3.org/2000/svg" viewBox="0 0 80 80"><path d="M60.13184,57.10791c.74902,.43457,1.56738,.64111,2.37695,.64111,1.63867,0,3.23535-.84814,4.11621-2.36523,.63672-1.09766,.80859-2.37695,.48242-3.60254-.3252-1.22656-1.10938-2.25293-2.20605-2.88916-.51172-.29712-1.06494-.48254-1.63184-.57397V31.68286c.55249-.08813,1.09912-.26904,1.6123-.56372,1.10059-.63184,1.88965-1.6543,2.2207-2.87891,.33105-1.2251,.16504-2.50537-.4668-3.60596-.63184-1.1001-1.6543-1.88867-2.87988-2.21973-1.22363-.33008-2.50391-.16553-3.60547,.46631-.521,.29932-.95337,.69067-1.31079,1.13184l-14.41528-8.3219c.20093-.52393,.32422-1.08643,.32568-1.68005,.00586-2.61865-2.12012-4.75439-4.73828-4.76074h-.01074c-1.26562,0-2.45605,.49121-3.35254,1.3833-.89844,.89453-1.39551,2.08594-1.39844,3.35596-.00146,.59937,.12085,1.16821,.32324,1.69727l-14.41357,8.32104c-.35791-.43945-.78711-.82251-1.2915-1.11548-2.26465-1.31396-5.17676-.54297-6.49316,1.72412-.63672,1.09766-.80859,2.37695-.48242,3.60254,.3252,1.22656,1.10938,2.25293,2.20605,2.88916,.51196,.29712,1.06445,.48633,1.63184,.57764v16.63928c-.55225,.08826-1.09912,.2616-1.6123,.55603-1.10059,.63184-1.88965,1.6543-2.2207,2.87891-.33105,1.2251-.16504,2.50537,.4668,3.60596,.63184,1.1001,1.6543,1.88867,2.87988,2.21973,.41211,.11133,.83105,.1665,1.24707,.1665,.81934,0,1.62793-.21387,2.3584-.63281,.521-.29932,.95337-.69067,1.31079-1.13184l14.41528,8.32202c-.20093,.5238-.32422,1.0863-.32568,1.67993-.00586,2.61865,2.12012,4.75439,4.73828,4.76074h.01074c1.26562,0,2.45605-.49121,3.35254-1.3833,.89844-.89453,1.39551-2.08594,1.39844-3.35596,.00146-.59937-.12085-1.16821-.32324-1.69727l14.41357-8.32104c.35791,.43945,.78711,.82251,1.2915,1.11548Zm4.0166-6.91846c.75,.43555,1.28711,1.1377,1.50977,1.97656s.10547,1.71436-.33008,2.46533c-.90039,1.54883-2.8916,2.07959-4.44336,1.1792-.75098-.43555-1.28711-1.1377-1.50977-1.97656s-.10449-1.71436,.33105-2.46533,1.1377-1.28711,1.97656-1.50977c.27832-.07373,.55957-.11035,.83984-.11035,.56543,0,1.12305,.14893,1.62598,.44092Zm-3.25098-26.00781c.5-.28662,1.05371-.43311,1.61426-.43311,.28418,0,.57129,.03809,.85352,.11426,.83789,.22656,1.53711,.76562,1.96973,1.51855s.5459,1.62891,.31934,2.46729c-.22656,.83789-.76562,1.5376-1.51855,1.96973-1.55176,.89258-3.54395,.354-4.4375-1.19971-.8916-1.5542-.35352-3.54443,1.19922-4.43701Zm-23.19043-12.48486c.61328-.61084,1.42773-.94678,2.29395-.94678h.00684c1.79199,.00439,3.24609,1.46582,3.24219,3.25781-.00391,1.78906-1.46191,3.24219-3.25098,3.24219h-.00684c-1.79199-.00439-3.24609-1.46582-3.24219-3.25732,.00195-.86865,.3418-1.68408,.95703-2.2959ZM15.85156,29.81055c-.75-.43555-1.28711-1.1377-1.50977-1.97656s-.10547-1.71436,.33008-2.46533c.60254-1.0376,1.69531-1.61816,2.81738-1.61816,.55273,0,1.11328,.1416,1.62598,.43896,.75098,.43555,1.28711,1.1377,1.50977,1.97656s.10449,1.71436-.33105,2.46533-1.1377,1.28711-1.97656,1.50977-1.71387,.10645-2.46582-.33057Zm3.25098,26.00781c-.75293,.43164-1.62891,.54492-2.46777,.31885-.83789-.22656-1.53711-.76562-1.96973-1.51855s-.5459-1.62891-.31934-2.46729c.22656-.83789,.76562-1.5376,1.51855-1.96973,.50879-.29199,1.06445-.43066,1.61328-.43066,1.12695,0,2.22363,.58545,2.82422,1.63037,.8916,1.5542,.35352,3.54443-1.19922,4.43701Zm23.19043,12.48486c-.61328,.61084-1.42773,.94678-2.29395,.94678h-.00684c-1.79199-.00439-3.24609-1.46582-3.24219-3.25781,.00391-1.78906,1.46191-3.24219,3.25098-3.24219h.00684c1.79199,.00439,3.24609,1.46582,3.24219,3.25732-.00195,.86865-.3418,1.68408-.95703,2.2959Zm15.63281-14.08447c.04346,.16357,.11548,.31299,.1748,.46899l-14.43262,8.33191c-.86914-1.0675-2.17578-1.76599-3.65625-1.76965h-.01074c-1.48315,0-2.79395,.69727-3.66602,1.76575l-14.4353-8.3335c.48804-1.28577,.43921-2.76501-.29712-4.04797-.7417-1.29053-2.00537-2.08069-3.37207-2.30103V31.68408c.15771-.02539,.31519-.05176,.47168-.09326,1.22656-.32568,2.25195-1.10938,2.88867-2.20654,.6377-1.09717,.80859-2.37646,.4834-3.60303-.04346-.16357-.11548-.31299-.1748-.46899l14.43262-8.33191c.86914,1.0675,2.17578,1.76599,3.65625,1.76965h.01074c1.48315,0,2.79395-.69727,3.66602-1.76575l14.4353,8.3335c-.48804,1.28577-.43921,2.76501,.29712,4.04797,.74243,1.2915,2.00439,2.09607,3.37207,2.31592v16.65039c-.15747,.02539-.31543,.03564-.47168,.07715-1.22656,.32568-2.25195,1.10938-2.88867,2.20654-.6377,1.09717-.80859,2.37646-.4834,3.60303Z"/></svg>