<?xml version="1.0" encoding="UTF-8"?><svg id="a" xmlns="http://www.w3.org/2000/svg" viewBox="0 0 80 80"><rect x="39.25" y="34" width="1.5" height="30"/><rect x="23.25" y="34" width="1.5" height="30"/><path d="M16,70.75h48c.41406,0,.75-.33594,.75-.75V10c0-.41406-.33594-.75-.75-.75H16c-.41406,0-.75,.33594-.75,.75v60c0,.41406,.33594,.75,.75,.75ZM48.75,10.75h14.5v58.5h-14.5V10.75Zm-16,0h14.5v58.5h-14.5V10.75Zm-16,0h14.5v58.5h-14.5V10.75Z"/><rect x="55.25" y="34" width="1.5" height="30"/><circle cx="24" cy="16" r="1"/><circle cx="24" cy="22" r="1"/><circle cx="24" cy="28" r="1"/><circle cx="40" cy="16" r="1"/><circle cx="40" cy="22" r="1"/><circle cx="40" cy="28" r="1"/><circle cx="56" cy="16" r="1"/><circle cx="56" cy="22" r="1"/><circle cx="56" cy="28" r="1"/></svg>