<?xml version="1.0" encoding="UTF-8"?>
<svg id="art" xmlns="http://www.w3.org/2000/svg" width="80" height="80" viewBox="0 0 80 80">
  <defs>
    <style>
      .cls-1 {
        fill: #000;
        stroke-width: 0px;
      }
    </style>
  </defs>
  <path class="cls-1" d="M40,34.75c-5.34,0-10.16-3.37-11.98-8.39l1.41-.51c1.61,4.43,5.86,7.4,10.58,7.4s8.96-2.97,10.58-7.4l1.41.51c-1.83,5.02-6.64,8.39-11.98,8.39Z"/>
  <path class="cls-1" d="M48.95,15.18c-2.15-2.82-5.41-4.43-8.95-4.43s-6.8,1.62-8.95,4.43l-1.19-.91c2.44-3.19,6.13-5.02,10.14-5.02s7.71,1.83,10.14,5.02l-1.19.91Z"/>
  <path class="cls-1" d="M64.75,72h-1.5v-20c0-6.2-5.05-11.25-11.25-11.25h-24c-6.2,0-11.25,5.05-11.25,11.25v20h-1.5v-20c0-7.03,5.72-12.75,12.75-12.75h24c7.03,0,12.75,5.72,12.75,12.75v20Z"/>
  <path class="cls-1" d="M50,27.48h-5.06c-.73,0-1.47-.17-2.12-.5l-1.37-.68c-.91-.46-2-.46-2.91,0l-1.37.68c-.66.33-1.39.5-2.12.5h-5.06c-1.52,0-2.75-1.23-2.75-2.75v-8c0-1.52,1.23-2.75,2.75-2.75h20c1.52,0,2.75,1.23,2.75,2.75v8c0,1.52-1.23,2.75-2.75,2.75ZM40,24.45c.73,0,1.46.17,2.12.5l1.37.68c.45.22.95.34,1.45.34h5.06c.69,0,1.25-.56,1.25-1.25v-8c0-.69-.56-1.25-1.25-1.25h-20c-.69,0-1.25.56-1.25,1.25v8c0,.69.56,1.25,1.25,1.25h5.06c.5,0,1-.12,1.45-.34l1.37-.68c.67-.33,1.4-.5,2.12-.5Z"/>
  <path class="cls-1" d="M18,37.48h-2v-1.5h2c1.79,0,3.25-1.46,3.25-3.25v-8c0-2.62,2.13-4.75,4.75-4.75h2v1.5h-2c-1.79,0-3.25,1.46-3.25,3.25v8c0,2.62-2.13,4.75-4.75,4.75Z"/>
</svg>