<?xml version="1.0" encoding="UTF-8"?><svg id="a" xmlns="http://www.w3.org/2000/svg" viewBox="0 0 80 80"><rect x="31.25" y="40" width="1.5" height="2"/><rect x="35.25" y="38" width="1.5" height="4"/><path d="M67.10742,51.78125c-.3252-1.22656-1.10938-2.25293-2.20605-2.88916-1.09766-.63721-2.37598-.80859-3.60352-.48291-.98389,.26123-1.82715,.82751-2.45508,1.60352l-5.65137-3.2627h2.80859c.41406,0,.75-.33594,.75-.75v-12c0-.41406-.33594-.75-.75-.75h-2.80371l5.6377-3.25909c.91797,1.13074,2.28613,1.75812,3.69141,1.75812,.80078,0,1.61328-.20312,2.35645-.62988,1.10059-.63184,1.88965-1.6543,2.2207-2.87891,.33105-1.2251,.16504-2.50537-.4668-3.60596-.63184-1.1001-1.6543-1.88867-2.87988-2.21973-1.22266-.33008-2.50391-.16504-3.60547,.46631-2.0498,1.17798-2.87354,3.66138-2.05664,5.80554l-7.89453,4.5636h-9.44922v-14.57581c2.25781-.36237,3.99463-2.30536,4-4.66345,.00586-2.61865-2.12012-4.75439-4.73828-4.76074h-.01074c-1.26562,0-2.45605,.49121-3.35254,1.3833-.89844,.89453-1.39551,2.08594-1.39844,3.35596-.00537,2.36572,1.73438,4.32086,4,4.68427v14.57648h-2.5v-9.25h-1.5v9.25h-2.49902l-.00098-5.25h-1.5l.00098,5.25h-1.4502l-7.8916-4.56183c.35498-.9248,.42383-1.93048,.16504-2.90692-.3252-1.22656-1.10938-2.25244-2.20605-2.88916-2.26465-1.31396-5.17676-.54248-6.49316,1.72412-.63672,1.09766-.80859,2.37695-.48242,3.60254,.3252,1.22656,1.10938,2.25293,2.20605,2.88916,.73438,.42627,1.5498,.64404,2.37695,.64404,.40918,0,.82031-.05322,1.22656-.16113,.98438-.26135,1.82764-.828,2.45605-1.60443l5.64551,3.26361h-2.80371c-.41406,0-.75,.33594-.75,.75v12c0,.41406,.33594,.75,.75,.75h2.61133l-5.45996,3.25537c-1.44238-1.76685-3.98877-2.29688-6.0332-1.12451-1.10059,.63184-1.88965,1.6543-2.2207,2.87891-.33105,1.2251-.16504,2.50537,.4668,3.60596,.63184,1.1001,1.6543,1.88867,2.87988,2.21973,.41211,.11133,.83105,.1665,1.24707,.1665,.81934,0,1.62793-.21387,2.3584-.63281,2.05322-1.17981,2.87549-3.66895,2.05225-5.81537l7.63721-4.55377h9.71094v14.57581c-2.25781,.36237-3.99463,2.30536-4,4.66345-.00586,2.61865,2.12012,4.75439,4.73828,4.76074h.01074c1.26562,0,2.45605-.49121,3.35254-1.3833,.89844-.89453,1.39551-2.08594,1.39844-3.35596,.00537-2.36572-1.73438-4.32086-4-4.68427v-14.57648h9.44189l7.89941,4.56085c-.35547,.92505-.42432,1.93109-.16553,2.9079,.3252,1.22656,1.10938,2.25244,2.20605,2.88916,.74902,.43457,1.56738,.64111,2.37695,.64111,1.63867,0,3.23535-.84814,4.11621-2.36523,.63672-1.09766,.80859-2.37695,.48242-3.60254Zm-6.20996-27.59961c.5-.28662,1.05371-.43311,1.61426-.43311,.28418,0,.57129,.03809,.85352,.11426,.83789,.22656,1.53711,.76562,1.96973,1.51855s.5459,1.62891,.31934,2.46729c-.22656,.83789-.76562,1.5376-1.51855,1.96973-1.55273,.89209-3.54395,.35449-4.4375-1.19971-.8916-1.5542-.35352-3.54443,1.19922-4.43701Zm-40.60352,4.44971c-.43555,.75098-1.1377,1.28711-1.97656,1.50977-.83984,.22266-1.71387,.10596-2.46582-.33057-.75-.43555-1.28711-1.1377-1.50977-1.97656s-.10547-1.71436,.33008-2.46533c.60254-1.0376,1.69531-1.61816,2.81738-1.61816,.55273,0,1.11328,.1416,1.62598,.43896,.75098,.43555,1.28711,1.1377,1.50977,1.97656s.10449,1.71436-.33105,2.46533Zm-1.19141,27.18701c-.75391,.43213-1.62793,.54541-2.46777,.31885-.83789-.22656-1.53711-.76562-1.96973-1.51855s-.5459-1.62891-.31934-2.46729c.22656-.83789,.76562-1.5376,1.51855-1.96973,.50879-.29199,1.06445-.43066,1.61328-.43066,1.12695,0,2.22363,.58545,2.82422,1.63037,.8916,1.5542,.35352,3.54443-1.19922,4.43701ZM36.75,13.99268c.00195-.86865,.3418-1.68408,.95703-2.2959,.61328-.61084,1.42773-.94678,2.29395-.94678h.00684c1.79199,.00439,3.24609,1.46582,3.24219,3.25781-.00391,1.78906-1.46191,3.24219-3.25098,3.24219h-.00684c-1.79199-.00439-3.24609-1.46582-3.24219-3.25732Zm6.5,52.01465c-.00195,.86865-.3418,1.68408-.95703,2.2959-.61328,.61084-1.42773,.94678-2.29395,.94678h-.00684c-1.79199-.00439-3.24609-1.46582-3.24219-3.25781,.00391-1.78906,1.46191-3.24219,3.25098-3.24219h.00684c1.79199,.00439,3.24609,1.46582,3.24219,3.25732Zm-18.5-20.75732v-10.5h30.5v10.5H24.75Zm40.57812,9.38135c-.89941,1.54834-2.8916,2.07959-4.44336,1.1792-.75098-.43555-1.28711-1.1377-1.50977-1.97656s-.10449-1.71436,.33105-2.46533,1.1377-1.28711,1.97656-1.50977c.27832-.07373,.55957-.11035,.83984-.11035,.56543,0,1.12305,.14893,1.62598,.44092,.75,.43555,1.28711,1.1377,1.50977,1.97656s.10547,1.71436-.33008,2.46533Z"/><circle cx="46" cy="40" r="1"/><circle cx="50" cy="40" r="1"/></svg>