<?xml version="1.0" encoding="UTF-8"?><svg id="a" xmlns="http://www.w3.org/2000/svg" viewBox="0 0 80 80"><path d="M39.3291,9.66455l-4,8c-.11621,.23242-.10352,.50879,.0332,.72998,.13672,.2207,.37793,.35547,.6377,.35547h6.78613l-3.45703,6.91455,1.3418,.6709,4-8c.11621-.23242,.10352-.50879-.0332-.72998-.13672-.2207-.37793-.35547-.6377-.35547h-6.78613l3.45703-6.91455-1.3418-.6709Z"/><path d="M9.25,70c0,.41406,.33594,.75,.75,.75h60c.41406,0,.75-.33594,.75-.75v-12h-1.5v11.25H10.75v-11.25h-1.5v12Z"/><path d="M9.25,52c0,.41406,.33594,.75,.75,.75h60c.41406,0,.75-.33594,.75-.75v-12h-1.5v11.25H10.75v-11.25h-1.5v12Z"/><path d="M9.25,22v12c0,.41406,.33594,.75,.75,.75h60c.41406,0,.75-.33594,.75-.75v-12h-1.5v11.25H10.75v-11.25h-1.5Z"/></svg>