<?xml version="1.0" encoding="UTF-8"?><svg id="a" xmlns="http://www.w3.org/2000/svg" viewBox="0 0 80 80"><path d="M50,26.75c3.99805,0,7.25,3.25244,7.25,7.25h1.5c0-4.82471-3.9248-8.75-8.75-8.75s-8.75,3.92529-8.75,8.75v12c0,4.82471,3.9248,8.75,8.75,8.75s8.75-3.92529,8.75-8.75v-6.75h-8.75v1.5h7.25v5.25c0,3.99756-3.25195,7.25-7.25,7.25s-7.25-3.25244-7.25-7.25v-12c0-3.99756,3.25195-7.25,7.25-7.25Z"/><path d="M23.25,38.75h6.75c3.99805,0,7.25,3.25244,7.25,7.25s-3.25195,7.25-7.25,7.25-7.25-3.25244-7.25-7.25h-1.5c0,4.82471,3.9248,8.75,8.75,8.75s8.75-3.92529,8.75-8.75-3.9248-8.75-8.75-8.75h-5.25v-8.5h13.25v-1.5h-14.75v11.5Z"/><path d="M17.25,14V52.82861c0,4.93408,2.91797,9.61572,7.09766,11.38477l15.36133,6.47754c.09277,.03955,.19141,.05908,.29102,.05908s.19922-.01953,.29199-.05908l15.30469-6.47803c4.17773-1.76855,7.0957-6.44971,7.0957-11.38428V14c0-.41406-.33594-.75-.75-.75h-9.94238v1.5h9.19238V52.82861c0,4.28027-2.59863,8.4873-6.17969,10.00293l-15.01367,6.35449-15.06836-6.354c-3.58105-1.5166-6.18066-5.72363-6.18066-10.00342V14.75h9.25v-1.5h-10c-.41406,0-.75,.33594-.75,.75Z"/><path d="M45.25,13.25h-6.57568c-.34863-1.70972-1.86377-3-3.67432-3-2.06738,0-3.75,1.68213-3.75,3.75s1.68262,3.75,3.75,3.75c1.81055,0,3.32568-1.29028,3.67432-3h2.57568v2h1.5v-2h2.5v2h1.5v-2h1.25v-1.5h-2.75Zm-10.25,3c-1.24023,0-2.25-1.00928-2.25-2.25s1.00977-2.25,2.25-2.25,2.25,1.00928,2.25,2.25-1.00977,2.25-2.25,2.25Z"/></svg>