<?xml version="1.0" encoding="UTF-8"?><svg id="a" xmlns="http://www.w3.org/2000/svg" viewBox="0 0 80 80"><path d="M70.75,46v-8c0-.41406-.33594-.75-.75-.75h-16c-.41406,0-.75,.33594-.75,.75v5.25h-5.25c-1.79199,0-3.25-1.45801-3.25-3.25v-9.25h8.25c3.1709,0,5.75-2.57959,5.75-5.75s-2.5791-5.75-5.75-5.75c-.8623,0-1.70117,.1958-2.47266,.57324-1.00781-4.9624-5.34375-8.57324-10.52734-8.57324-4.24219,0-8.08984,2.52979-9.80664,6.37012-.70605-.24609-1.44141-.37012-2.19336-.37012-3.72168,0-6.75,3.02783-6.75,6.75s3.02832,6.75,6.75,6.75h7.25v9.25c0,1.79199-1.45801,3.25-3.25,3.25h-5.25v-5.25c0-.41406-.33594-.75-.75-.75H10c-.41406,0-.75,.33594-.75,.75v12c0,.41406,.33594,.75,.75,.75H26c.41406,0,.75-.33594,.75-.75v-5.25h5.25c2.61914,0,4.75-2.13086,4.75-4.75v-9.25h2.5v22.5h-7.25c-.41406,0-.75,.33594-.75,.75v12c0,.41406,.33594,.75,.75,.75h16c.41406,0,.75-.33594,.75-.75v-12c0-.41406-.33594-.75-.75-.75h-7.25V30.75h2.5v9.25c0,2.61914,2.13086,4.75,4.75,4.75h5.25v5.25c0,.41406,.33594,.75,.75,.75h16c.41406,0,.75-.33594,.75-.75v-4Zm-45.5,3.25H10.75v-2.5h14.5v2.5Zm0-4H10.75v-2.5h14.5v2.5Zm0-4H10.75v-2.5h14.5v2.5Zm22,24h-14.5v-2.5h14.5v2.5Zm0-4h-14.5v-2.5h14.5v2.5Zm0-6.5v2.5h-14.5v-2.5h14.5ZM28,29.25c-2.89453,0-5.25-2.35498-5.25-5.25s2.35547-5.25,5.25-5.25c.79004,0,1.55664,.17725,2.27832,.52686,.19238,.09229,.41504,.09961,.60938,.01953,.19727-.08008,.35059-.23975,.42285-.43945,1.32227-3.65283,4.81445-6.10693,8.68945-6.10693,4.80273,0,8.76074,3.60303,9.20605,8.38135,.02539,.27246,.19727,.50928,.44824,.61816,.25391,.1084,.54297,.07129,.75879-.09521,.7627-.5918,1.65723-.9043,2.58691-.9043,2.34375,0,4.25,1.90674,4.25,4.25s-1.90625,4.25-4.25,4.25H28Zm41.25,20h-14.5v-2.5h14.5v2.5Zm0-4h-14.5v-2.5h14.5v2.5Zm0-4h-14.5v-2.5h14.5v2.5Z"/></svg>