<?xml version="1.0" encoding="UTF-8"?>
<svg id="art" xmlns="http://www.w3.org/2000/svg" width="80" height="80" viewBox="0 0 80 80">
  <defs>
    <style>
      .cls-1 {
        fill: #000;
        stroke-width: 0px;
      }
    </style>
  </defs>
  <path class="cls-1" d="M58,48.75H22c-.41,0-.75-.34-.75-.75v-16c0-.41.34-.75.75-.75h36c.41,0,.75.34.75.75v16c0,.41-.34.75-.75.75ZM22.75,47.25h34.5v-14.5H22.75v14.5Z"/>
  <path class="cls-1" d="M58,64.75H22c-.41,0-.75-.34-.75-.75v-16c0-.41.34-.75.75-.75h36c.41,0,.75.34.75.75v16c0,.41-.34.75-.75.75ZM22.75,63.25h34.5v-14.5H22.75v14.5Z"/>
  <path class="cls-1" d="M58,32.75H22c-.41,0-.75-.34-.75-.75v-16c0-.41.34-.75.75-.75h36c.41,0,.75.34.75.75v16c0,.41-.34.75-.75.75ZM22.75,31.25h34.5v-14.5H22.75v14.5Z"/>
  <path class="cls-1" d="M32,25c-.26,0-.52-.11-.71-.29-.09-.1-.16-.2-.21-.33-.05-.12-.08-.25-.08-.38,0-.26.11-.52.29-.71.05-.04.1-.08.16-.12.05-.04.11-.07.17-.09.06-.03.12-.05.19-.06.12-.03.26-.03.39,0,.06.01.12.03.18.06.06.02.12.05.18.09.05.04.1.08.15.12.18.19.29.45.29.71,0,.13-.02.26-.08.38-.05.13-.12.23-.21.33-.19.18-.45.29-.71.29Z"/>
  <path class="cls-1" d="M40,25c-.13,0-.26-.02-.38-.08-.12-.05-.23-.12-.33-.21-.09-.1-.16-.2-.21-.33-.05-.12-.08-.25-.08-.38,0-.26.11-.52.29-.71.1-.09.21-.16.33-.21.18-.08.38-.1.58-.06.06.01.12.03.18.06.06.02.12.05.18.09.05.04.1.08.15.12.18.19.29.45.29.71,0,.13-.03.26-.08.38-.05.13-.12.23-.21.33-.19.18-.45.29-.71.29Z"/>
  <path class="cls-1" d="M48,25c-.26,0-.52-.11-.71-.29-.09-.1-.16-.2-.21-.33-.05-.12-.08-.25-.08-.38,0-.26.11-.52.29-.71.05-.04.1-.08.15-.12.06-.04.12-.07.18-.09.06-.03.12-.05.18-.06.33-.07.67.04.91.27.18.19.29.45.29.71,0,.13-.03.26-.08.38-.05.13-.12.23-.21.33-.19.18-.45.29-.71.29Z"/>
  <path class="cls-1" d="M32,41c-.13,0-.26-.02-.38-.08-.12-.05-.23-.12-.33-.21-.18-.19-.29-.45-.29-.71,0-.13.03-.26.08-.38.05-.12.12-.23.21-.33.1-.09.21-.16.33-.21.24-.1.52-.11.76,0,.13.05.23.12.33.21.09.1.16.21.21.33.05.12.08.25.08.38,0,.26-.11.52-.29.71-.1.09-.2.16-.33.21-.12.06-.25.08-.38.08Z"/>
  <path class="cls-1" d="M40,41c-.26,0-.52-.11-.71-.29-.18-.19-.29-.45-.29-.71,0-.13.03-.26.08-.38.05-.12.12-.23.21-.33.24-.23.58-.34.91-.27.06.01.12.03.18.06.06.02.12.05.18.09.05.03.1.08.15.12.09.1.16.2.21.33.06.12.08.25.08.38,0,.27-.11.52-.29.71-.05.04-.1.09-.15.12-.06.04-.12.07-.18.09-.06.03-.12.05-.18.06-.07.02-.13.02-.2.02Z"/>
  <path class="cls-1" d="M48,41c-.06,0-.13,0-.2-.02-.06,0-.12-.03-.18-.06-.06-.02-.12-.05-.17-.09-.06-.03-.11-.08-.16-.12-.18-.19-.29-.44-.29-.71,0-.13.03-.26.08-.38.05-.13.12-.23.21-.33.05-.04.1-.09.16-.12.05-.04.11-.07.17-.09.06-.03.12-.05.18-.06.13-.03.27-.03.4,0,.06.01.12.03.18.06.06.02.12.05.18.09.05.03.1.08.15.12.09.1.16.21.21.33.06.12.08.25.08.38,0,.26-.11.52-.29.71-.19.18-.45.29-.71.29Z"/>
  <path class="cls-1" d="M32,57c-.06,0-.13,0-.19-.02-.07,0-.13-.03-.19-.06-.06-.02-.12-.05-.17-.09-.06-.03-.11-.08-.16-.12-.09-.09-.16-.2-.21-.33-.05-.12-.08-.25-.08-.38,0-.26.11-.52.29-.71.05-.04.1-.08.16-.12.05-.04.11-.07.17-.09.06-.03.12-.05.19-.06.19-.04.39-.02.57.06.13.05.24.12.33.21.19.19.29.45.29.71,0,.13-.02.26-.08.38-.05.13-.12.23-.21.33-.09.09-.2.16-.33.21-.12.06-.25.08-.38.08Z"/>
  <path class="cls-1" d="M40,57c-.06,0-.13,0-.19-.02-.07,0-.13-.03-.19-.06-.06-.02-.12-.05-.17-.09-.06-.03-.11-.08-.16-.12-.09-.09-.16-.2-.21-.33-.05-.12-.08-.25-.08-.38s.03-.26.08-.38c.05-.12.12-.23.21-.33.05-.04.1-.08.16-.12.05-.04.11-.07.17-.09.06-.03.12-.05.19-.06.32-.07.66.04.9.27.09.1.16.21.21.33.05.12.08.25.08.38s-.03.26-.08.38c-.05.13-.12.24-.21.33-.19.18-.45.29-.71.29Z"/>
  <path class="cls-1" d="M48,57c-.06,0-.13,0-.19-.02-.07,0-.13-.03-.19-.06-.06-.02-.12-.05-.17-.09-.06-.03-.11-.08-.16-.12-.09-.09-.16-.2-.21-.33-.05-.12-.08-.25-.08-.38s.03-.26.08-.38c.05-.12.12-.23.21-.33.05-.04.1-.08.16-.12.05-.04.11-.07.17-.09.06-.03.12-.05.19-.06.12-.03.26-.03.39,0,.06.01.12.03.18.06.06.02.12.05.18.09.05.04.1.08.15.12.09.1.16.21.21.33.05.12.08.25.08.38s-.03.26-.08.38c-.05.13-.12.24-.21.33-.05.04-.1.09-.15.12-.06.04-.12.07-.18.09-.06.03-.12.05-.18.06-.07.01-.14.02-.2.02Z"/>
</svg>