<?xml version="1.0" encoding="UTF-8"?><svg id="a" xmlns="http://www.w3.org/2000/svg" viewBox="0 0 80 80"><path d="M60.75,41.28796v-8.03796h-6v-3.25c0-1.79199,1.45801-3.25,3.25-3.25v-1.5c-2.61914,0-4.75,2.13086-4.75,4.75v3.25h-5.71387l-4,8h-15.53613c-4.62695,0-8.56885,2.94385-10.08105,7.05249-1.39697-2.97925-4.4165-5.05249-7.91895-5.05249h-.75v17.5h.75c3.50244,0,6.52222-2.07324,7.91895-5.05249,1.51245,4.10864,5.4541,7.05249,10.08105,7.05249H60c5.92773,0,10.75-4.82227,10.75-10.75,0-5.67456-4.42236-10.32422-10-10.71204ZM10.75,59.21143v-14.42285c3.64648,.37646,6.5,3.4668,6.5,7.21143s-2.85352,6.83496-6.5,7.21143Zm37.71387-24.46143h10.78613v6.5h-14.03613l3.25-6.5Zm11.53613,26.5H28c-5.10059,0-9.25-4.14941-9.25-9.25s4.14941-9.25,9.25-9.25H60c5.10059,0,9.25,4.14941,9.25,9.25s-4.14941,9.25-9.25,9.25Z"/><path d="M37,48.25c-2.06738,0-3.75,1.68213-3.75,3.75s1.68262,3.75,3.75,3.75,3.75-1.68213,3.75-3.75-1.68262-3.75-3.75-3.75Zm0,6c-1.24023,0-2.25-1.00928-2.25-2.25s1.00977-2.25,2.25-2.25,2.25,1.00928,2.25,2.25-1.00977,2.25-2.25,2.25Z"/><path d="M49,48.25c-2.06738,0-3.75,1.68213-3.75,3.75s1.68262,3.75,3.75,3.75,3.75-1.68213,3.75-3.75-1.68262-3.75-3.75-3.75Zm0,6c-1.24023,0-2.25-1.00928-2.25-2.25s1.00977-2.25,2.25-2.25,2.25,1.00928,2.25,2.25-1.00977,2.25-2.25,2.25Z"/><path d="M61,48.25c-2.06738,0-3.75,1.68213-3.75,3.75s1.68262,3.75,3.75,3.75,3.75-1.68213,3.75-3.75-1.68262-3.75-3.75-3.75Zm0,6c-1.24023,0-2.25-1.00928-2.25-2.25s1.00977-2.25,2.25-2.25,2.25,1.00928,2.25,2.25-1.00977,2.25-2.25,2.25Z"/><path d="M37.25,32c0,1.5166,1.2334,2.75,2.75,2.75s2.75-1.2334,2.75-2.75-1.2334-2.75-2.75-2.75-2.75,1.2334-2.75,2.75Zm4,0c0,.68945-.56055,1.25-1.25,1.25s-1.25-.56055-1.25-1.25,.56055-1.25,1.25-1.25,1.25,.56055,1.25,1.25Z"/><path d="M35,28.75c2.06738,0,3.75-1.68213,3.75-3.75s-1.68262-3.75-3.75-3.75-3.75,1.68213-3.75,3.75,1.68262,3.75,3.75,3.75Zm0-6c1.24023,0,2.25,1.00928,2.25,2.25s-1.00977,2.25-2.25,2.25-2.25-1.00928-2.25-2.25,1.00977-2.25,2.25-2.25Z"/><path d="M48.75,16c0-2.61914-2.13086-4.75-4.75-4.75s-4.75,2.13086-4.75,4.75,2.13086,4.75,4.75,4.75,4.75-2.13086,4.75-4.75Zm-8,0c0-1.79199,1.45801-3.25,3.25-3.25s3.25,1.45801,3.25,3.25-1.45801,3.25-3.25,3.25-3.25-1.45801-3.25-3.25Z"/></svg>