<?xml version="1.0" encoding="UTF-8"?><svg id="a" xmlns="http://www.w3.org/2000/svg" viewBox="0 0 80 80"><path d="M39.01465,41.99512h1.24316c.10742,0,.19531-.0874,.19531-.19531v-7.58887c0-.10791-.08789-.19531-.19531-.19531h-1.67578c-.07812,0-.14941,.04736-.18457,.13037l-1.98145,5.6543-2.08887-5.65869c-.02832-.07568-.10156-.12598-.18262-.12598h-1.70801c-.10742,0-.19531,.0874-.19531,.19531v7.58887c0,.10791,.08789,.19531,.19531,.19531h1.22266c.1084,0,.19629-.0874,.19629-.19531v-4.58203l1.76074,4.6499c.02832,.07617,.10156,.12744,.18262,.12744h1.18164c.08203,0,.15625-.05225,.18359-.12939l1.65527-4.5791v4.51318c0,.10791,.08789,.19531,.19531,.19531Z"/><path d="M44.49609,40.74072c-.4502,0-.82227-.0957-1.10449-.28467-.29395-.19678-.4707-.48438-.52637-.8584-.0166-.09473-.09766-.16357-.19336-.16357h-1.33887c-.05469,0-.1084,.02344-.14844,.06836-.03711,.04248-.05273,.09912-.04492,.15625,.10645,.70752,.43066,1.29102,.96582,1.73438,.61719,.50488,1.4248,.76074,2.40039,.76074,.93652,0,1.70996-.21826,2.29688-.64844,.63379-.4585,.95605-1.07178,.95605-1.82324,0-.67285-.22754-1.22168-.67578-1.63135l-.00098-.00098c-.44238-.39746-1.2041-.74219-2.26465-1.02441-.82715-.20996-1.18848-.37256-1.34766-.47314-.2168-.13281-.31738-.31445-.31738-.5708,0-.20117,.07031-.35059,.21973-.46826,.2168-.16797,.57324-.25342,1.06055-.25342,.42188,0,.76953,.07324,1.03027,.21582,.27734,.15918,.43262,.38184,.47363,.67871,.01172,.09717,.0957,.16992,.19336,.16992h1.32812c.05957,0,.11523-.02637,.14746-.06836,.04004-.04639,.05566-.10645,.04492-.15576-.09863-.65332-.40723-1.18506-.91797-1.58154-.57227-.43848-1.33984-.66064-2.2793-.66064-.87891,0-1.59668,.18066-2.13086,.53662-.61133,.40186-.9209,.97461-.9209,1.70215,0,.62305,.20117,1.13184,.59863,1.51172,.38574,.36523,1.0459,.67236,1.96094,.91309,.78223,.20654,1.31836,.39453,1.59863,.56152,.30176,.16748,.44824,.39746,.44824,.70312,0,.25537-.09668,.46777-.28711,.62939-.26562,.21582-.67773,.3252-1.22461,.3252Z"/><path d="M61,51.25c-5.37598,0-9.75,4.37402-9.75,9.75s4.37402,9.75,9.75,9.75,9.75-4.37402,9.75-9.75-4.37402-9.75-9.75-9.75Zm0,18c-4.54883,0-8.25-3.70117-8.25-8.25s3.70117-8.25,8.25-8.25,8.25,3.70117,8.25,8.25-3.70117,8.25-8.25,8.25Z"/><path d="M60,62.93945l-2.46973-2.46973-1.06055,1.06055,3,3c.14648,.14648,.33789,.21973,.53027,.21973s.38379-.07324,.53027-.21973l6-6-1.06055-1.06055-5.46973,5.46973Z"/><path d="M19.25,10v60c0,.41406,.33594,.75,.75,.75h30v-1.5H20.75V10.75h24.5v13.25c0,.41406,.33594,.75,.75,.75h13.25v23.25h1.5V24c0-.19873-.0791-.38965-.21973-.53027l-14-14c-.14062-.14062-.33105-.21973-.53027-.21973H20c-.41406,0-.75,.33594-.75,.75Zm27.5,1.81055l11.43945,11.43945h-11.43945V11.81055Z"/></svg>