<?xml version="1.0" encoding="UTF-8"?><svg id="a" xmlns="http://www.w3.org/2000/svg" viewBox="0 0 80 80"><rect x="34" y="39.25" width="30" height="1.5"/><path d="M70,31.25h-29.25V10h-1.5V31.25H10c-.41406,0-.75,.33594-.75,.75v16c0,.41406,.33594,.75,.75,.75h27.70898l-28.15234,20.64502,.88672,1.20996,28.80664-21.12488v20.5199h1.5v-20.5199l28.80664,21.12488,.88672-1.20996-28.15234-20.64502h27.70898c.41406,0,.75-.33594,.75-.75v-16c0-.41406-.33594-.75-.75-.75Zm-.75,16H10.75v-14.5h58.5v14.5Z"/><circle cx="16" cy="40" r="1"/><circle cx="22" cy="40" r="1"/><circle cx="28" cy="40" r="1"/></svg>