<?xml version="1.0" encoding="UTF-8"?><svg id="a" xmlns="http://www.w3.org/2000/svg" viewBox="0 0 80 80"><path d="M70,9.25H36c-.41406,0-.75,.33594-.75,.75v23.25H18c-.41406,0-.75,.33594-.75,.75v19.25h-7.25c-.41406,0-.75,.33594-.75,.75v16c0,.41406,.33594,.75,.75,.75H26c.41406,0,.75-.33594,.75-.75v-7.25h19.25c.41406,0,.75-.33594,.75-.75v-17.25h23.25c.41406,0,.75-.33594,.75-.75V10c0-.41406-.33594-.75-.75-.75ZM25.25,69.25H10.75v-14.5h6.5v7.25c0,.41406,.33594,.75,.75,.75h7.25v6.5Zm0-8h-6.5v-6.5h6.5v6.5Zm20,0H26.75v-7.25c0-.41406-.33594-.75-.75-.75h-7.25v-18.5h16.5v9.25c0,.41406,.33594,.75,.75,.75h9.25v16.5Zm0-18h-8.5v-8.5h8.5v8.5Zm24,0h-22.5v-9.25c0-.41406-.33594-.75-.75-.75h-9.25V10.75h32.5V43.25Z"/></svg>