<?xml version="1.0" encoding="UTF-8"?><svg id="a" xmlns="http://www.w3.org/2000/svg" viewBox="0 0 80 80"><path d="M14,55.25c-.41406,0-.75,.33594-.75,.75v5.32587c-2.26172,.36261-4,2.31183-4,4.67413,0,2.61914,2.13086,4.75,4.75,4.75s4.75-2.13086,4.75-4.75c0-2.3623-1.73828-4.31152-4-4.67413v-4.57587h24.5v4.57587c-2.26172,.36261-4,2.31183-4,4.67413,0,2.61914,2.13086,4.75,4.75,4.75s4.75-2.13086,4.75-4.75c0-2.3623-1.73828-4.31152-4-4.67413v-4.57587h24.5v4.57587c-2.26172,.36261-4,2.31183-4,4.67413,0,2.61914,2.13086,4.75,4.75,4.75s4.75-2.13086,4.75-4.75c0-2.3623-1.73828-4.31152-4-4.67413v-5.32587c0-.41406-.33594-.75-.75-.75h-25.25v-4.5h29.25c.41406,0,.75-.33594,.75-.75V30c0-.41406-.33594-.75-.75-.75h-29.25v-4.5h25.25c.41406,0,.75-.33594,.75-.75v-5.32587c2.26172-.36261,4-2.31183,4-4.67413,0-2.61914-2.13086-4.75-4.75-4.75s-4.75,2.13086-4.75,4.75c0,2.3623,1.73828,4.31152,4,4.67413v4.57587h-24.5v-4.57587c2.26172-.36261,4-2.31183,4-4.67413,0-2.61914-2.13086-4.75-4.75-4.75s-4.75,2.13086-4.75,4.75c0,2.3623,1.73828,4.31152,4,4.67413v4.57587H14.75v-4.57587c2.26172-.36261,4-2.31183,4-4.67413,0-2.61914-2.13086-4.75-4.75-4.75s-4.75,2.13086-4.75,4.75c0,2.3623,1.73828,4.31152,4,4.67413v5.32587c0,.41406,.33594,.75,.75,.75h25.25v4.5H10c-.41406,0-.75,.33594-.75,.75v20c0,.41406,.33594,.75,.75,.75h29.25v4.5H14Zm3.25,10.75c0,1.79199-1.45801,3.25-3.25,3.25s-3.25-1.45801-3.25-3.25,1.45801-3.25,3.25-3.25,3.25,1.45801,3.25,3.25Zm52,0c0,1.79199-1.45801,3.25-3.25,3.25s-3.25-1.45801-3.25-3.25,1.45801-3.25,3.25-3.25,3.25,1.45801,3.25,3.25Zm-6.5-52c0-1.79199,1.45801-3.25,3.25-3.25s3.25,1.45801,3.25,3.25-1.45801,3.25-3.25,3.25-3.25-1.45801-3.25-3.25Zm-52,0c0-1.79199,1.45801-3.25,3.25-3.25s3.25,1.45801,3.25,3.25-1.45801,3.25-3.25,3.25-3.25-1.45801-3.25-3.25Zm29.24902,31.25098c-1.79199,0-3.25-1.45801-3.25-3.25s1.45801-3.25,3.25-3.25,3.25,1.45801,3.25,3.25-1.45801,3.25-3.25,3.25Zm-3.24902-31.25098c0-1.79199,1.45801-3.25,3.25-3.25s3.25,1.45801,3.25,3.25-1.45801,3.25-3.25,3.25-3.25-1.45801-3.25-3.25ZM10.75,49.25V30.75h28.5v2.53894c-4.4751,.3819-8.00098,4.14014-8.00098,8.71204h1.5c0-3.99756,3.25195-7.25,7.25-7.25s7.25,3.25244,7.25,7.25h1.5c0-4.57123-3.5249-8.3291-7.99902-8.71191v-2.53906h28.5v18.5h-28.5v-2.57495c2.26123-.36304,3.99902-2.31207,3.99902-4.67407,0-2.61914-2.13086-4.75-4.75-4.75s-4.75,2.13086-4.75,4.75c0,2.36267,1.73877,4.31195,4.00098,4.67426v2.57477H10.75Zm29.25,13.5c1.79199,0,3.25,1.45801,3.25,3.25s-1.45801,3.25-3.25,3.25-3.25-1.45801-3.25-3.25,1.45801-3.25,3.25-3.25Z"/></svg>