<?xml version="1.0" encoding="utf-8"?>
<!-- Generator: Adobe Illustrator 26.2.1, SVG Export Plug-In . SVG Version: 6.00 Build 0)  -->
<svg version="1.1" id="a" xmlns="http://www.w3.org/2000/svg" xmlns:xlink="http://www.w3.org/1999/xlink" x="0px" y="0px"
	 viewBox="0 0 64 64" style="enable-background:new 0 0 64 64;" xml:space="preserve">
<g>
	<g>
		<path d="M52,62.8h-8c-0.4,0-0.8-0.3-0.8-0.8v-8c0-0.4,0.3-0.8,0.8-0.8h8c0.4,0,0.8,0.3,0.8,0.8v8C52.8,62.4,52.4,62.8,52,62.8z
			 M44.8,61.2h6.5v-6.5h-6.5V61.2z"/>
	</g>
	<g>
		<path d="M20,62.8h-8c-0.4,0-0.8-0.3-0.8-0.8v-8c0-0.4,0.3-0.8,0.8-0.8h8c0.4,0,0.8,0.3,0.8,0.8v8C20.8,62.4,20.4,62.8,20,62.8z
			 M12.8,61.2h6.5v-6.5h-6.5V61.2z"/>
	</g>
	<g>
		<rect x="36" y="5.2" width="8" height="1.5"/>
	</g>
	<g>
		<rect x="20" y="5.2" width="8" height="1.5"/>
	</g>
	<g>
		<path d="M32,62.8c-1.3,0-2.5-0.5-3.4-1.4l0,0l0,0c-0.9-0.9-1.4-2.1-1.4-3.4s0.5-2.5,1.4-3.4s2.1-1.4,3.4-1.4
			c1.3,0,2.5,0.5,3.4,1.4c0.9,0.9,1.4,2.1,1.4,3.4s-0.5,2.5-1.4,3.4C34.5,62.3,33.3,62.8,32,62.8z M32,54.8c-0.9,0-1.7,0.3-2.3,1
			c-0.6,0.6-1,1.4-1,2.3s0.3,1.7,1,2.3l0,0c1.2,1.2,3.4,1.2,4.6,0c0.6-0.6,1-1.4,1-2.3s-0.3-1.7-1-2.3S32.9,54.8,32,54.8z"/>
	</g>
	<g>
		<path d="M16,10.7c-1.2,0-2.4-0.5-3.4-1.4l0,0c-1.9-1.9-1.9-4.9,0-6.7c1.9-1.9,4.9-1.9,6.7,0c1.9,1.9,1.9,4.9,0,6.7
			C18.4,10.3,17.2,10.7,16,10.7z M13.7,8.3c1.3,1.3,3.3,1.3,4.6,0c1.3-1.3,1.3-3.3,0-4.6c-1.3-1.3-3.3-1.3-4.6,0S12.4,7,13.7,8.3
			L13.7,8.3z"/>
	</g>
	<g>
		<path d="M48,10.8c-1.3,0-2.5-0.5-3.4-1.4l0,0l0,0c-1.9-1.9-1.9-4.9,0-6.7c0.9-0.9,2.1-1.4,3.4-1.4s2.5,0.5,3.4,1.4
			c1.9,1.9,1.9,4.9,0,6.7C50.5,10.3,49.3,10.8,48,10.8z M48,2.8c-0.9,0-1.7,0.3-2.3,1c-1.3,1.3-1.3,3.3,0,4.6l0,0
			c1.2,1.2,3.4,1.2,4.6,0c1.3-1.3,1.3-3.3,0-4.6C49.7,3.1,48.9,2.8,48,2.8z"/>
	</g>
	<g>
		<rect x="36" y="57.2" width="8" height="1.5"/>
	</g>
	<g>
		<rect x="20" y="57.2" width="8" height="1.5"/>
	</g>
	<g>
		<path d="M36,10.8h-8c-0.4,0-0.8-0.3-0.8-0.8V2c0-0.4,0.3-0.8,0.8-0.8h8c0.4,0,0.8,0.3,0.8,0.8v8C36.8,10.4,36.4,10.8,36,10.8z
			 M28.8,9.2h6.5V2.7h-6.5V9.2z"/>
	</g>
	<g>
		<path d="M46.4,42.8H18.7c-4.1,0-7.4-3.3-7.4-7.4s3.3-7.4,7.4-7.4c0.9,0,1.7,0.1,2.5,0.4c1.9-4.3,6.1-7.1,10.9-7.1
			c5.8,0,10.6,4,11.6,9.6c0.9-0.4,1.8-0.7,2.8-0.7c3.5,0,6.3,2.8,6.3,6.3C52.8,39.9,49.9,42.8,46.4,42.8z M18.7,29.4
			c-3.3,0-5.9,2.7-5.9,5.9c0,3.3,2.7,5.9,5.9,5.9h27.8c2.6,0,4.8-2.2,4.8-4.8s-2.2-4.8-4.8-4.8c-1.1,0-2.1,0.4-2.9,1
			c-0.2,0.2-0.5,0.2-0.8,0.1c-0.3-0.1-0.4-0.3-0.4-0.6c-0.5-5.4-4.9-9.4-10.3-9.4c-4.3,0-8.3,2.7-9.7,6.8c-0.1,0.2-0.2,0.4-0.4,0.4
			c-0.2,0.1-0.4,0.1-0.6,0C20.4,29.6,19.6,29.4,18.7,29.4z"/>
	</g>
	<g>
		<rect x="31.2" y="42" width="1.5" height="12"/>
	</g>
	<g>
		<rect x="31.2" y="10" width="1.5" height="12"/>
	</g>
</g>
</svg>
