<?xml version="1.0" encoding="UTF-8"?><svg id="a" xmlns="http://www.w3.org/2000/svg" viewBox="0 0 80 80"><path d="M40,25.25c-3.94043,0-7.64453,1.53418-10.42969,4.32031-2.78613,2.78564-4.32031,6.49023-4.32031,10.42969,0,3.93994,1.53418,7.64404,4.32031,10.42969,2.78516,2.78613,6.48926,4.32031,10.42969,4.32031s7.64453-1.53418,10.42969-4.32031c2.78613-2.78564,4.32031-6.48975,4.32031-10.42969s-1.53418-7.64404-4.32031-10.42969c-2.78516-2.78613-6.48926-4.32031-10.42969-4.32031Zm9.36914,24.11914c-2.50195,2.50244-5.83008,3.88086-9.36914,3.88086s-6.86719-1.37842-9.36914-3.88086c-2.50293-2.50244-3.88086-5.83008-3.88086-9.36914s1.37793-6.8667,3.88086-9.36914c2.50195-2.50244,5.83008-3.88086,9.36914-3.88086s6.86719,1.37842,9.36914,3.88086c2.50293,2.50244,3.88086,5.83008,3.88086,9.36914s-1.37793,6.8667-3.88086,9.36914Z"/><path d="M46.87988,32.05957l-1.14307,1.14124c-3.49365-2.95129-8.74023-2.78711-12.03174,.50427-3.4707,3.47119-3.4707,9.11865,0,12.58984l1.06055-1.06055c-2.88574-2.88623-2.88574-7.58252,0-10.46875,2.70703-2.70618,7.00464-2.87439,9.90967-.505l-3.36743,3.36188c-.40088-.23041-.85913-.3725-1.35376-.3725-1.50977,0-2.7373,1.22803-2.7373,2.7373,0,1.50977,1.22754,2.73779,2.7373,2.73779s2.73828-1.22803,2.73828-2.73779c0-.46912-.12964-.90424-.33838-1.29059l5.58643-5.5766-1.06055-1.06055Zm-6.92578,9.16553c-.68262,0-1.2373-.55518-1.2373-1.23779,0-.68213,.55469-1.2373,1.2373-1.2373s1.23828,.55518,1.23828,1.2373c0,.68262-.55566,1.23779-1.23828,1.23779Z"/><path d="M67.10742,51.78125c-.3252-1.22656-1.10938-2.25293-2.20605-2.88916-.51172-.29688-1.06494-.4823-1.63184-.57379V31.68286c.55249-.0882,1.09912-.2691,1.6123-.56372,1.10059-.63184,1.88965-1.6543,2.2207-2.87891,.33105-1.2251,.16504-2.50537-.4668-3.60596-.63184-1.1001-1.6543-1.88867-2.87988-2.21973-1.22363-.32959-2.50488-.16504-3.60547,.46631-.521,.29932-.95361,.69055-1.31104,1.13177l-14.41504-8.32184c.20093-.52393,.32422-1.08643,.32568-1.68005,.00293-1.26855-.48828-2.4624-1.38281-3.36182-.89551-.89941-2.08691-1.396-3.35547-1.39893h-.01074c-1.26562,0-2.45605,.49121-3.35254,1.3833-.89844,.89453-1.39551,2.08594-1.39844,3.35596-.00146,.59943,.12085,1.16821,.32324,1.69733l-14.41357,8.32092c-.35791-.43933-.78711-.82251-1.2915-1.11542-2.2666-1.31543-5.17773-.54248-6.49316,1.72363-.63672,1.09814-.80762,2.37744-.48242,3.60303,.3252,1.22656,1.10938,2.25293,2.20605,2.88916,.51196,.29718,1.06445,.48633,1.63184,.5777v16.63928c-.55225,.08813-1.09912,.26154-1.6123,.55597-1.10059,.63184-1.88965,1.6543-2.2207,2.87891-.33105,1.2251-.16504,2.50537,.4668,3.60547,.63086,1.09961,1.65332,1.88818,2.87891,2.22021h.00098c.41211,.11133,.83105,.1665,1.24707,.1665,.81934,0,1.62793-.21387,2.3584-.63281,.521-.29932,.95337-.69061,1.31079-1.1319l14.41138,8.31976c-.20264,.53125-.32031,1.0965-.32178,1.68225-.00586,2.61865,2.12012,4.75439,4.73828,4.76074h.01074c1.26562,0,2.45605-.49121,3.35254-1.3833,.89844-.89453,1.39551-2.08594,1.39844-3.35596,.00146-.59949-.12085-1.16833-.32324-1.69739l14.41357-8.32086c.35791,.43933,.78711,.82251,1.2915,1.11542,.74902,.43457,1.56738,.64111,2.37695,.64111,1.63867,0,3.23535-.84814,4.11621-2.36523,.63672-1.09766,.80859-2.37695,.48242-3.60254Zm-6.20898-27.59961c.49902-.28662,1.05176-.43311,1.6123-.43311,.28516,0,.57227,.03809,.85449,.11426,.83789,.22656,1.53711,.76562,1.96973,1.51855s.5459,1.62891,.31934,2.46729c-.22656,.83789-.76562,1.5376-1.51855,1.96973-1.55371,.89111-3.54492,.354-4.4375-1.2002-.8916-1.55371-.35352-3.54395,1.2002-4.43652Zm-23.19141-12.48486c.61328-.61084,1.42773-.94678,2.29395-.94678h.00684c1.79199,.00391,3.24609,1.46533,3.24219,3.25781-.00391,1.78906-1.46191,3.24219-3.25098,3.24219h-.00684c-1.79199-.00439-3.24609-1.46582-3.24219-3.25732,.00195-.86865,.3418-1.68408,.95703-2.2959ZM14.3418,27.83398c-.22266-.83887-.10547-1.71484,.33008-2.46582,.90039-1.55029,2.89355-2.07861,4.44336-1.17871,.75098,.43555,1.28711,1.1377,1.50977,1.97656s.10449,1.71436-.33105,2.46533-1.1377,1.28711-1.97656,1.50977-1.71387,.10645-2.46582-.33057c-.75-.43555-1.28711-1.1377-1.50977-1.97656Zm4.76074,27.98438c-.75391,.43164-1.62793,.5459-2.4668,.31885s-1.53906-.7666-1.9707-1.51904c-.43262-.75293-.5459-1.62891-.31934-2.4668s.76562-1.5376,1.51855-1.96973c1.55371-.89111,3.54492-.35449,4.4375,1.19971,.8916,1.5542,.35352,3.54443-1.19922,4.43701Zm23.19043,12.48486c-.61328,.61084-1.42773,.94678-2.29395,.94678h-.00684c-1.79199-.00439-3.24609-1.46582-3.24219-3.25781,.00195-.86768,.3418-1.68311,.95703-2.29541,.61328-.61084,1.42773-.94678,2.29297-.94678h.00781c.86816,.00195,1.68359,.3418,2.2959,.95703s.94824,1.43262,.94629,2.30029c-.00195,.86865-.3418,1.68408-.95703,2.2959Zm1.37524-5.28369c-.86938-1.06775-2.17603-1.76624-3.65649-1.76953h-.01172c-1.26465,0-2.45508,.49121-3.35156,1.3833-.11841,.11798-.21069,.25378-.31494,.38159l-14.43384-8.33264c.48804-1.28577,.43921-2.76495-.29712-4.04797-.7417-1.29016-2.00537-2.08051-3.37207-2.30084V31.68408c.15771-.02539,.31519-.0517,.47168-.09326,1.22656-.32568,2.25195-1.10938,2.88867-2.20654,.6377-1.09717,.80859-2.37695,.4834-3.60303-.04346-.16357-.11548-.31305-.1748-.46899l14.43262-8.33191c.86914,1.06757,2.17578,1.76605,3.65625,1.76965h.01074c1.48315,0,2.79395-.6972,3.66602-1.76575l14.43506,8.33331c-.48828,1.28577-.43896,2.76489,.29736,4.04767,.74243,1.29199,2.00439,2.09656,3.37207,2.31635v16.65033c-.15747,.02545-.31543,.03577-.47168,.07727-1.22656,.32568-2.25195,1.10889-2.88867,2.20605-.6377,1.09717-.80859,2.37695-.4834,3.60352,.04346,.16357,.11548,.31305,.1748,.46899l-14.43237,8.33179Zm21.65991-8.38818c-.90039,1.54883-2.8916,2.07959-4.44336,1.1792-.75098-.43555-1.28711-1.1377-1.50977-1.97656-.22266-.83936-.10449-1.71484,.33105-2.46582,.43555-.75049,1.1377-1.28662,1.97656-1.50928,.27832-.07373,.55957-.11035,.83984-.11035,.56543,0,1.12305,.14893,1.62598,.44092,.75,.43555,1.28711,1.1377,1.50977,1.97656s.10547,1.71436-.33008,2.46533Z"/></svg>