<?xml version="1.0" encoding="UTF-8"?>
<svg id="art" xmlns="http://www.w3.org/2000/svg" width="80" height="80" viewBox="0 0 80 80">
  <defs>
    <style>
      .cls-1 {
        fill: #000;
        stroke-width: 0px;
      }
    </style>
  </defs>
  <path class="cls-1" d="M40,52.75c-7.03,0-12.75-5.72-12.75-12.75s5.72-12.75,12.75-12.75,12.75,5.72,12.75,12.75-5.72,12.75-12.75,12.75ZM40,28.75c-6.2,0-11.25,5.05-11.25,11.25s5.05,11.25,11.25,11.25,11.25-5.05,11.25-11.25-5.05-11.25-11.25-11.25Z"/>
  <path class="cls-1" d="M66,20.75c-2.62,0-4.75-2.13-4.75-4.75s2.13-4.75,4.75-4.75,4.75,2.13,4.75,4.75-2.13,4.75-4.75,4.75ZM66,12.75c-1.79,0-3.25,1.46-3.25,3.25s1.46,3.25,3.25,3.25,3.25-1.46,3.25-3.25-1.46-3.25-3.25-3.25Z"/>
  <path class="cls-1" d="M14,20.75c-2.62,0-4.75-2.13-4.75-4.75s2.13-4.75,4.75-4.75,4.75,2.13,4.75,4.75-2.13,4.75-4.75,4.75ZM14,12.75c-1.79,0-3.25,1.46-3.25,3.25s1.46,3.25,3.25,3.25,3.25-1.46,3.25-3.25-1.46-3.25-3.25-3.25Z"/>
  <path class="cls-1" d="M66,68.75c-2.62,0-4.75-2.13-4.75-4.75s2.13-4.75,4.75-4.75,4.75,2.13,4.75,4.75-2.13,4.75-4.75,4.75ZM66,60.75c-1.79,0-3.25,1.46-3.25,3.25s1.46,3.25,3.25,3.25,3.25-1.46,3.25-3.25-1.46-3.25-3.25-3.25Z"/>
  <path class="cls-1" d="M14,68.75c-2.62,0-4.75-2.13-4.75-4.75s2.13-4.75,4.75-4.75,4.75,2.13,4.75,4.75-2.13,4.75-4.75,4.75ZM14,60.75c-1.79,0-3.25,1.46-3.25,3.25s1.46,3.25,3.25,3.25,3.25-1.46,3.25-3.25-1.46-3.25-3.25-3.25Z"/>
  <path class="cls-1" d="M66,44.75c-2.62,0-4.75-2.13-4.75-4.75s2.13-4.75,4.75-4.75,4.75,2.13,4.75,4.75-2.13,4.75-4.75,4.75ZM66,36.75c-1.79,0-3.25,1.46-3.25,3.25s1.46,3.25,3.25,3.25,3.25-1.46,3.25-3.25-1.46-3.25-3.25-3.25Z"/>
  <path class="cls-1" d="M14,44.75c-2.62,0-4.75-2.13-4.75-4.75s2.13-4.75,4.75-4.75,4.75,2.13,4.75,4.75-2.13,4.75-4.75,4.75ZM14,36.75c-1.79,0-3.25,1.46-3.25,3.25s1.46,3.25,3.25,3.25,3.25-1.46,3.25-3.25-1.46-3.25-3.25-3.25Z"/>
  <rect class="cls-1" x="18" y="39.25" width="10" height="1.5"/>
  <rect class="cls-1" x="52" y="39.25" width="10" height="1.5"/>
  <path class="cls-1" d="M20,64.75h-2v-1.5h2c7.31,0,13.25-5.94,13.25-13.25h1.5c0,8.13-6.62,14.75-14.75,14.75Z"/>
  <path class="cls-1" d="M62,64.75h-2c-8.13,0-14.75-6.62-14.75-14.75h1.5c0,7.31,5.94,13.25,13.25,13.25h2v1.5Z"/>
  <path class="cls-1" d="M34.75,30h-1.5c0-7.31-5.94-13.25-13.25-13.25h-2v-1.5h2c8.13,0,14.75,6.62,14.75,14.75Z"/>
  <path class="cls-1" d="M46.75,30h-1.5c0-8.13,6.62-14.75,14.75-14.75h2v1.5h-2c-7.31,0-13.25,5.94-13.25,13.25Z"/>
</svg>