<?xml version="1.0" encoding="UTF-8"?><svg id="a" xmlns="http://www.w3.org/2000/svg" viewBox="0 0 80 80"><path d="M40,51.25c-2.61914,0-4.75,2.13086-4.75,4.75v3.25h-3.25c-.41406,0-.75,.33594-.75,.75v10c0,.41406,.33594,.75,.75,.75h16c.41406,0,.75-.33594,.75-.75v-10c0-.41406-.33594-.75-.75-.75h-3.25v-3.25c0-2.61914-2.13086-4.75-4.75-4.75Zm-3.25,4.75c0-1.79199,1.45801-3.25,3.25-3.25s3.25,1.45801,3.25,3.25v3.25h-6.5v-3.25Zm10.5,4.75v8.5h-14.5v-8.5h14.5Z"/><path d="M40,15.25c-4.8252,0-8.75,3.92529-8.75,8.75s3.9248,8.75,8.75,8.75,8.75-3.92529,8.75-8.75-3.9248-8.75-8.75-8.75Zm0,16c-3.99805,0-7.25-3.25244-7.25-7.25s3.25195-7.25,7.25-7.25,7.25,3.25244,7.25,7.25-3.25195,7.25-7.25,7.25Z"/><path d="M70.75,54.0835V11.9165c0-1.47021-1.2334-2.6665-2.75-2.6665H12c-1.5166,0-2.75,1.19629-2.75,2.6665v52.0835c0,.41406,.33594,.75,.75,.75h8c.32227,0,.60938-.20654,.71094-.5127l2.49976-7.4873h10.78931v-1.5H12c-.68945,0-1.25-.52344-1.25-1.1665v-5.3335h58.5v5.3335c0,.64307-.56055,1.1665-1.25,1.1665h-20v1.5h10.78931l2.49976,7.4873c.10156,.30615,.38867,.5127,.71094,.5127h8c.41406,0,.75-.33594,.75-.75v-9.9165Zm-58.75,2.6665h7.62939l-2.16943,6.5h-6.70996v-6.80499c.37671,.18842,.79761,.30499,1.25,.30499Zm57.25,6.5h-6.70996l-2.16943-6.5h7.62939c.45239,0,.87329-.11658,1.25-.30499v6.80499Zm-18-16H28.75v-4.78857c0-3.14941,2.35547-5.71143,5.25-5.71143h12c2.89453,0,5.25,2.56201,5.25,5.71143v4.78857Zm18,0h-16.5v-4.78857c0-3.97656-3.02832-7.21143-6.75-7.21143h-12c-3.72168,0-6.75,3.23486-6.75,7.21143v4.78857H10.75V11.9165c0-.64307,.56055-1.1665,1.25-1.1665h56c.68945,0,1.25,.52344,1.25,1.1665V47.25Z"/><circle cx="64" cy="16" r="1"/></svg>