<?xml version="1.0" encoding="UTF-8"?>
<svg id="DO_NOT_TOUCH_Outlines_" data-name="DO NOT TOUCH (Outlines)" xmlns="http://www.w3.org/2000/svg" viewBox="0 0 80 80">
  <path d="m70,35.25h-20c-.41,0-.75.34-.75.75v5.25h-1.25c-1.79,0-3.25-1.46-3.25-3.25v-9.25h5.25c.41,0,.75-.34.75-.75V10c0-.41-.34-.75-.75-.75h-20c-.41,0-.75.34-.75.75v18c0,.41.34.75.75.75h5.25v9.25c0,1.79-1.46,3.25-3.25,3.25h-1.25v-5.25c0-.41-.34-.75-.75-.75H10c-.41,0-.75.34-.75.75v12c0,.41.34.75.75.75h9.25v2.5h-3.25v1.5h8v-1.5h-3.25v-2.5h9.25c.41,0,.75-.34.75-.75v-5.25h1.25c2.62,0,4.75-2.13,4.75-4.75v-9.25h2.5v22.5h-9.25c-.41,0-.75.34-.75.75v12c0,.41.34.75.75.75h9.25v2.5h-3.25v1.5h8v-1.5h-3.25v-2.5h9.25c.41,0,.75-.34.75-.75v-12c0-.41-.34-.75-.75-.75h-9.25v-22.5h2.5v9.25c0,2.62,2.13,4.75,4.75,4.75h1.25v5.25c0,.41.34.75.75.75h9.25v2.5h-3.25v1.5h8v-1.5h-3.25v-2.5h9.25c.41,0,.75-.34.75-.75v-12c0-.41-.34-.75-.75-.75Zm-40.75,12H10.75v-10.5h18.5v10.5Zm20,16h-18.5v-10.5h18.5v10.5ZM30.75,16.75h18.5v4.5h-18.5v-4.5Zm0-6h18.5v4.5h-18.5v-4.5Zm0,12h18.5v4.5h-18.5v-4.5Zm38.5,24.5h-18.5v-10.5h18.5v10.5Z"/>
  <path d="m65.18,16.15s.1-.03.12-.07l1.39-2.08,1.36,2.08s.07.07.12.07h1.29c.06,0,.11-.03.13-.08.03-.05.02-.11,0-.15l-2.09-3.07,1.98-2.76s.04-.11.01-.16c-.03-.05-.08-.08-.13-.08h-1.16s-.1.02-.12.07l-1.28,1.88-1.26-1.88s-.07-.07-.12-.07h-1.27c-.06,0-.11.03-.13.08-.03.05-.02.11,0,.15l1.95,2.82-2.09,3.01s-.04.11,0,.16c.03.05.08.08.13.08h1.18Z"/>
</svg>