<?xml version="1.0" encoding="UTF-8"?><svg id="a" xmlns="http://www.w3.org/2000/svg" viewBox="0 0 80 80"><path d="M12,60.75h27.25v2.5h-11.25v1.5h24v-1.5h-11.25v-2.5h27.25c1.5166,0,2.75-1.3335,2.75-2.97217V22.22217c0-1.63867-1.2334-2.97217-2.75-2.97217h-27.25V8h-1.5v11.25H12c-1.5166,0-2.75,1.3335-2.75,2.97217V57.77783c0,1.63867,1.2334,2.97217,2.75,2.97217Zm-1.25-38.52783c0-.81152,.56055-1.47217,1.25-1.47217h56c.68945,0,1.25,.66064,1.25,1.47217V57.77783c0,.81152-.56055,1.47217-1.25,1.47217H12c-.68945,0-1.25-.66064-1.25-1.47217V22.22217Z"/><path d="M29,51.75049c1.81079,0,3.32593-1.29065,3.67432-3.00049h25.32568v-1.5h-25.32593c-.34863-1.70935-1.86353-2.99951-3.67407-2.99951s-3.32544,1.29016-3.67407,2.99951h-3.32593v1.5h3.32568c.34839,1.70984,1.86353,3.00049,3.67432,3.00049Zm0-6c1.24023,0,2.25,1.00928,2.25,2.25s-1.00977,2.25-2.25,2.25-2.25-1.00928-2.25-2.25,1.00977-2.25,2.25-2.25Z"/><path d="M51,43.75049c1.81079,0,3.32593-1.29065,3.67432-3.00049h3.32568v-1.5h-3.32593c-.34863-1.70935-1.86353-2.99951-3.67407-2.99951s-3.32544,1.29016-3.67407,2.99951H22v1.5h25.32568c.34839,1.70984,1.86353,3.00049,3.67432,3.00049Zm0-6c1.24023,0,2.25,1.00928,2.25,2.25s-1.00977,2.25-2.25,2.25-2.25-1.00928-2.25-2.25,1.00977-2.25,2.25-2.25Z"/><path d="M37,35.75049c1.81079,0,3.32593-1.29065,3.67432-3.00049h17.32568v-1.5h-17.32593c-.34863-1.70935-1.86353-2.99951-3.67407-2.99951s-3.32544,1.29016-3.67407,2.99951h-11.32593v1.5h11.32568c.34839,1.70984,1.86353,3.00049,3.67432,3.00049Zm0-6c1.24023,0,2.25,1.00928,2.25,2.25s-1.00977,2.25-2.25,2.25-2.25-1.00928-2.25-2.25,1.00977-2.25,2.25-2.25Z"/></svg>