<?xml version="1.0" encoding="UTF-8"?><svg id="a" xmlns="http://www.w3.org/2000/svg" viewBox="0 0 80 80"><path d="M27.25,22c0,7.03027,5.71973,12.75,12.75,12.75s12.75-5.71973,12.75-12.75-5.71973-12.75-12.75-12.75-12.75,5.71973-12.75,12.75Zm24,0c0,6.20312-5.04688,11.25-11.25,11.25s-11.25-5.04688-11.25-11.25,5.04688-11.25,11.25-11.25,11.25,5.04688,11.25,11.25Z"/><path d="M64.75,72v-20c0-7.03027-5.71973-12.75-12.75-12.75H28c-7.03027,0-12.75,5.71973-12.75,12.75v20h1.5v-20c0-6.20312,5.04688-11.25,11.25-11.25h24c6.20312,0,11.25,5.04688,11.25,11.25v20h1.5Z"/><path d="M51.46973,45.46973l-4.83789,4.83801c-1.60596-1.86823-3.98047-3.05774-6.63184-3.05774-4.8252,0-8.75,3.92529-8.75,8.75s3.9248,8.75,8.75,8.75,8.75-3.92529,8.75-8.75c0-1.62848-.45532-3.14905-1.23315-4.45624l5.01343-5.01349-1.06055-1.06055Zm-11.46973,17.78027c-3.99805,0-7.25-3.25244-7.25-7.25s3.25195-7.25,7.25-7.25c2.23779,0,4.24072,1.01984,5.57153,2.61792l-5.57153,5.57153-3.46973-3.46973-1.06055,1.06055,4,4c.14648,.14648,.33789,.21973,.53027,.21973s.38379-.07324,.53027-.21973l5.88892-5.88898c.52808,1.00519,.83081,2.14661,.83081,3.3587,0,3.99756-3.25195,7.25-7.25,7.25Z"/></svg>