<?xml version="1.0" encoding="UTF-8"?><svg id="a" xmlns="http://www.w3.org/2000/svg" viewBox="0 0 80 80"><path d="M68.01367,19.25H12.01367c-1.5166,0-2.75,1.2334-2.75,2.75V56c0,1.5166,1.2334,2.75,2.75,2.75h27.25v2.5h-13.25v1.5h28v-1.5h-13.25v-2.5h27.25c1.5166,0,2.75-1.2334,2.75-2.75V22c0-1.5166-1.2334-2.75-2.75-2.75Zm1.25,36.75c0,.68945-.56055,1.25-1.25,1.25H12.01367c-.68945,0-1.25-.56055-1.25-1.25v-3.25h58.5v3.25Zm0-4.75H10.76367V22c0-.68945,.56055-1.25,1.25-1.25h56c.68945,0,1.25,.56055,1.25,1.25v29.25Z"/><path d="M21.46973,29.46973l-6,6c-.29297,.29297-.29297,.76758,0,1.06055l6,6,1.06055-1.06055-5.46973-5.46973,5.46973-5.46973-1.06055-1.06055Z"/><path d="M58.53027,29.46973l-1.06055,1.06055,5.46973,5.46973-5.46973,5.46973,1.06055,1.06055,6-6c.29297-.29297,.29297-.76758,0-1.06055l-6-6Z"/><path d="M48,33.25c-.48535,0-.93457,.13702-1.33105,.35846l-4.27734-4.27747c.22119-.39618,.3584-.8457,.3584-1.33099,0-1.5166-1.2334-2.75-2.75-2.75s-2.75,1.2334-2.75,2.75c0,.48529,.13721,.93481,.3584,1.33099l-4.27734,4.27747c-.39648-.22144-.8457-.35846-1.33105-.35846-1.5166,0-2.75,1.2334-2.75,2.75s1.2334,2.75,2.75,2.75,2.75-1.2334,2.75-2.75c0-.48529-.13721-.93481-.3584-1.33099l4.27734-4.27747c.39648,.22144,.8457,.35846,1.33105,.35846s.93457-.13702,1.33105-.35846l4.27734,4.27747c-.22119,.39618-.3584,.8457-.3584,1.33099s.13721,.93481,.3584,1.33099l-4.27734,4.27747c-.39648-.22144-.8457-.35846-1.33105-.35846-1.5166,0-2.75,1.2334-2.75,2.75s1.2334,2.75,2.75,2.75,2.75-1.2334,2.75-2.75c0-.48529-.13721-.93481-.3584-1.33099l4.27734-4.27747c.39648,.22144,.8457,.35846,1.33105,.35846,1.5166,0,2.75-1.2334,2.75-2.75s-1.2334-2.75-2.75-2.75Zm-16,4c-.68945,0-1.25-.56055-1.25-1.25s.56055-1.25,1.25-1.25,1.25,.56055,1.25,1.25-.56055,1.25-1.25,1.25Zm8-8c-.68945,0-1.25-.56055-1.25-1.25s.56055-1.25,1.25-1.25,1.25,.56055,1.25,1.25-.56055,1.25-1.25,1.25Zm0,16c-.68945,0-1.25-.56055-1.25-1.25s.56055-1.25,1.25-1.25,1.25,.56055,1.25,1.25-.56055,1.25-1.25,1.25Zm8-8c-.68945,0-1.25-.56055-1.25-1.25s.56055-1.25,1.25-1.25,1.25,.56055,1.25,1.25-.56055,1.25-1.25,1.25Z"/><path d="M40,38.75c1.5166,0,2.75-1.2334,2.75-2.75s-1.2334-2.75-2.75-2.75-2.75,1.2334-2.75,2.75c0,.48529,.13721,.93481,.3584,1.33099l-4.72852,4.72858,1.06055,1.06055,4.72852-4.72858c.39648,.22144,.8457,.35846,1.33105,.35846Zm0-4c.68945,0,1.25,.56055,1.25,1.25s-.56055,1.25-1.25,1.25-1.25-.56055-1.25-1.25,.56055-1.25,1.25-1.25Z"/></svg>