<?xml version="1.0" encoding="utf-8"?>
<!-- Generator: Adobe Illustrator 28.3.0, SVG Export Plug-In . SVG Version: 6.00 Build 0)  -->
<svg version="1.1" xmlns="http://www.w3.org/2000/svg" xmlns:xlink="http://www.w3.org/1999/xlink" x="0px" y="0px"
	 viewBox="0 0 80 80" style="enable-background:new 0 0 80 80;" xml:space="preserve">
<style type="text/css">
	.st0{display:none;}
	.st1{display:inline;opacity:0.75;}
	.st2{fill:#FFFFFF;}
	.st3{display:inline;}
	.st4{fill:none;stroke:#00FFFF;stroke-width:5.000000e-02;stroke-linecap:round;stroke-miterlimit:10;}
	.st5{fill:none;}
	.st6{opacity:0.22;fill:none;stroke:#FF0000;stroke-width:5.000000e-02;stroke-linecap:round;stroke-miterlimit:10;}
	.st7{opacity:0.22;}
	.st8{fill:none;stroke:#FF0000;stroke-width:5.000000e-02;stroke-linecap:round;stroke-miterlimit:10;}
	.st9{fill:none;stroke:#000000;stroke-width:1.5;stroke-linejoin:round;stroke-miterlimit:10;}
</style>
<g id="border" class="st0">
	<g class="st1">
		<path class="st2" d="M72,8v64H8V8H72 M80,0H0v80h80V0L80,0z"/>
	</g>
</g>
<g id="_x38__grid" class="st0">
	<g class="st3">
		<rect x="8" y="8" class="st4" width="8" height="64"/>
		<rect x="16" y="8" class="st4" width="8" height="64"/>
		<rect x="24" y="8" class="st4" width="8" height="64"/>
		<rect x="32" y="8" class="st4" width="8" height="64"/>
		<rect x="40" y="8" class="st4" width="8" height="64"/>
		<rect x="48" y="8" class="st4" width="8" height="64"/>
		<rect x="56" y="8" class="st4" width="8" height="64"/>
		<rect x="64" y="8" class="st4" width="8" height="64"/>
	</g>
	<g class="st3">
		<rect x="36" y="36" transform="matrix(6.123234e-17 -1 1 6.123234e-17 -28 108)" class="st4" width="8" height="64"/>
		<rect x="36" y="28" transform="matrix(6.123234e-17 -1 1 6.123234e-17 -20 100)" class="st4" width="8" height="64"/>
		<rect x="36" y="20" transform="matrix(6.123234e-17 -1 1 6.123234e-17 -12 92)" class="st4" width="8" height="64"/>
		<rect x="36" y="12" transform="matrix(6.123234e-17 -1 1 6.123234e-17 -4 84)" class="st4" width="8" height="64"/>
		<rect x="36" y="4" transform="matrix(6.123234e-17 -1 1 6.123234e-17 4 76)" class="st4" width="8" height="64"/>
		<rect x="36" y="-4" transform="matrix(6.123234e-17 -1 1 6.123234e-17 12 68)" class="st4" width="8" height="64"/>
		<rect x="36" y="-12" transform="matrix(6.123234e-17 -1 1 6.123234e-17 20 60)" class="st4" width="8" height="64"/>
		<rect x="36" y="-20" transform="matrix(6.123234e-17 -1 1 6.123234e-17 28 52)" class="st4" width="8" height="64"/>
	</g>
</g>
<g id="export_frame" class="st0">
	<g class="st3">
		<rect class="st5" width="80" height="80"/>
	</g>
</g>
<g id="guide_shapes" class="st0">
	<g class="st3">
		<line class="st6" x1="8" y1="8" x2="72" y2="72"/>
		<line class="st6" x1="72" y1="8" x2="8" y2="72"/>
		<line class="st6" x1="8" y1="40" x2="72" y2="40"/>
		<line class="st6" x1="40" y1="8" x2="40" y2="72"/>
		<rect x="8" y="8" class="st6" width="64" height="64"/>
		<circle class="st6" cx="40" cy="40" r="16"/>
		<circle class="st6" cx="40" cy="40" r="24"/>
		<rect x="24" y="24" class="st6" width="32" height="32"/>
		<circle class="st6" cx="40" cy="40" r="30"/>
		<rect x="12" y="12" class="st6" width="56" height="56"/>
		<line class="st6" x1="40" y1="40" x2="71.9" y2="31.5"/>
		<line class="st6" x1="8.1" y1="48.5" x2="40" y2="40"/>
		<g class="st7">
			<line class="st8" x1="40" y1="40" x2="71.9" y2="48.5"/>
			<line class="st8" x1="8.1" y1="31.5" x2="40" y2="40"/>
		</g>
		<line class="st6" x1="40" y1="40" x2="48.5" y2="71.9"/>
		<line class="st6" x1="31.5" y1="8.1" x2="40" y2="40"/>
		<line class="st6" x1="40" y1="40" x2="31.5" y2="71.9"/>
		<line class="st6" x1="48.5" y1="8.1" x2="40" y2="40"/>
		<g class="st7">
			<line class="st8" x1="40" y1="40" x2="71.9" y2="48.5"/>
			<line class="st8" x1="8.1" y1="31.5" x2="40" y2="40"/>
		</g>
	</g>
</g>
<g id="art">
	<g>
		<g>
			<path d="M58,22.8c-0.2,0-0.4-0.1-0.5-0.2c-0.1-0.1-0.1-0.2-0.2-0.2c0-0.1-0.1-0.2-0.1-0.3c0-0.2,0.1-0.4,0.2-0.5
				c0.3-0.3,0.8-0.3,1.1,0c0.1,0.1,0.2,0.3,0.2,0.5s-0.1,0.4-0.2,0.5C58.4,22.7,58.2,22.8,58,22.8z"/>
		</g>
		<g>
			<path d="M39.3,66c0-0.4,0.3-0.8,0.7-0.8l0,0c0.4,0,0.8,0.3,0.8,0.8l0,0c0,0.4-0.3,0.8-0.8,0.8l0,0c0,0,0,0,0,0l0,0
				C39.6,66.8,39.3,66.4,39.3,66z M33.8,66c-0.4-0.1-0.7-0.5-0.6-0.9l0,0c0.1-0.4,0.5-0.7,0.9-0.6l0,0c0.4,0.1,0.7,0.5,0.6,0.9l0,0
				C34.6,65.8,34.3,66,34,66l0,0C33.9,66,33.9,66,33.8,66z M45.4,65.5c-0.1-0.4,0.1-0.8,0.5-0.9v0c0.4-0.1,0.8,0.2,0.9,0.6l0,0
				c0.1,0.4-0.1,0.8-0.6,0.9l0,0l0,0l0,0c-0.1,0-0.1,0-0.2,0l0,0C45.8,66,45.4,65.8,45.4,65.5z M27.9,63.9L27.9,63.9L27.9,63.9
				c-0.4-0.2-0.5-0.6-0.3-1l0,0c0.2-0.4,0.6-0.5,1-0.3l0,0c0.4,0.2,0.5,0.6,0.3,1l0,0c-0.1,0.3-0.4,0.4-0.7,0.4l0,0
				C28.1,64,28,63.9,27.9,63.9z M51.1,63.5c-0.2-0.4,0-0.8,0.3-1l0,0c0.4-0.2,0.8,0,1,0.3l0,0c0.2,0.4,0,0.8-0.3,1l0,0
				c-0.1,0.1-0.2,0.1-0.3,0.1l0,0C51.5,63.9,51.3,63.8,51.1,63.5z M22.7,60.4c-0.3-0.3-0.4-0.7-0.1-1.1l0,0c0.3-0.3,0.7-0.3,1.1-0.1
				l0,0c0.3,0.3,0.4,0.7,0.1,1l0,0c-0.1,0.2-0.4,0.3-0.6,0.3l0,0C23,60.6,22.8,60.5,22.7,60.4z M56.3,60.3c-0.3-0.3-0.2-0.8,0.1-1
				l0,0c0.3-0.3,0.8-0.2,1.1,0.1l0,0c0.3,0.3,0.2,0.8-0.1,1.1l0,0c-0.1,0.1-0.3,0.2-0.5,0.2l0,0C56.7,60.5,56.4,60.5,56.3,60.3z
				 M18.4,55.8L18.4,55.8L18.4,55.8c-0.2-0.3-0.2-0.8,0.2-1l0,0c0.3-0.2,0.8-0.2,1,0.2l0,0c0.2,0.3,0.2,0.8-0.2,1l0,0
				c-0.1,0.1-0.3,0.2-0.4,0.2l0,0C18.8,56.1,18.6,56,18.4,55.8z M60.6,55.9c-0.3-0.2-0.4-0.7-0.2-1l0,0c0.2-0.3,0.7-0.4,1.1-0.2l0,0
				c0.3,0.2,0.4,0.7,0.2,1l0,0c-0.1,0.2-0.4,0.3-0.6,0.3l0,0C60.9,56.1,60.7,56,60.6,55.9z M15.3,50.4c-0.2-0.4,0-0.8,0.4-1l0,0
				c0.4-0.2,0.8,0,1,0.4l0,0c0.2,0.4,0,0.8-0.4,1l0,0c-0.1,0-0.2,0.1-0.3,0.1l0,0C15.7,50.8,15.4,50.6,15.3,50.4z M63.7,50.7
				c-0.4-0.2-0.6-0.6-0.4-1l0,0c0.2-0.4,0.6-0.6,1-0.4l0,0c0.4,0.2,0.6,0.6,0.4,1l0,0c-0.1,0.3-0.4,0.5-0.7,0.5l0,0
				C63.9,50.8,63.8,50.7,63.7,50.7z M13.6,44.3c-0.1-0.4,0.2-0.8,0.6-0.9l0,0c0.4-0.1,0.8,0.2,0.9,0.6l0,0c0.1,0.4-0.2,0.8-0.6,0.9
				l0,0c0,0-0.1,0-0.1,0l0,0C14,45,13.7,44.7,13.6,44.3z M65.5,44.9c-0.4-0.1-0.7-0.5-0.6-0.8v0c0.1-0.4,0.5-0.7,0.9-0.6l0,0
				c0.4,0.1,0.7,0.5,0.6,0.9l0,0l0,0l0,0c-0.1,0.4-0.4,0.6-0.7,0.6l0,0C65.6,44.9,65.6,44.9,65.5,44.9z M14,38.9
				c-0.4,0-0.7-0.4-0.7-0.8l0,0c0-0.4,0.4-0.7,0.8-0.7l0,0c0.4,0,0.7,0.4,0.7,0.8l0,0C14.8,38.6,14.5,38.9,14,38.9L14,38.9
				C14,38.9,14,38.9,14,38.9z M65.2,38.1c0-0.4,0.3-0.8,0.7-0.8l0,0c0.4,0,0.8,0.3,0.8,0.7l0,0c0,0.4-0.3,0.8-0.7,0.8l0,0
				c0,0,0,0-0.1,0l0,0C65.5,38.8,65.2,38.5,65.2,38.1z M15,32.9c-0.4-0.1-0.6-0.6-0.5-0.9l0,0c0.1-0.4,0.6-0.6,1-0.5l0,0
				c0.4,0.1,0.6,0.6,0.5,0.9l0,0c-0.1,0.3-0.4,0.5-0.7,0.5l0,0C15.2,32.9,15.1,32.9,15,32.9z M64,32.3L64,32.3
				c-0.1-0.4,0.1-0.8,0.5-1l0,0c0.4-0.1,0.8,0.1,1,0.5l0,0l0,0l0,0c0.1,0.4-0.1,0.8-0.5,1l0,0c-0.1,0-0.2,0-0.2,0l0,0
				C64.4,32.8,64.1,32.6,64,32.3z M17.6,27.3c-0.3-0.2-0.4-0.7-0.2-1l0,0c0.2-0.3,0.7-0.4,1-0.2l0,0c0.3,0.2,0.4,0.7,0.2,1l0,0
				c-0.1,0.2-0.4,0.3-0.6,0.3l0,0C17.9,27.5,17.7,27.4,17.6,27.3z M61.3,27.1c-0.2-0.3-0.1-0.8,0.2-1l0,0c0.3-0.2,0.8-0.1,1,0.2l0,0
				c0.2,0.3,0.1,0.8-0.2,1l0,0c-0.1,0.1-0.3,0.1-0.4,0.1l0,0C61.7,27.4,61.5,27.3,61.3,27.1z"/>
		</g>
		<g>
			<path d="M22,22.8c-0.2,0-0.4-0.1-0.5-0.2c-0.1-0.1-0.1-0.2-0.2-0.2c0-0.1-0.1-0.2-0.1-0.3c0-0.2,0.1-0.4,0.2-0.5
				c0.3-0.3,0.8-0.3,1.1,0c0.1,0.1,0.2,0.3,0.2,0.5s-0.1,0.4-0.2,0.5C22.4,22.7,22.2,22.8,22,22.8z"/>
		</g>
	</g>
	<g>
		<path d="M46.5,34.5l-1.1-1.1L56.9,22c-3.2-2.9-9.2-7.3-16.9-7.3S26.3,19.1,23.1,22l11.5,11.5l-1.1,1.1l-12-12
			c-0.1-0.1-0.2-0.3-0.2-0.5c0-0.2,0.1-0.4,0.2-0.5c5.5-5.3,12.1-8.2,18.5-8.2s13,2.9,18.5,8.2c0.1,0.1,0.2,0.3,0.2,0.5
			c0,0.2-0.1,0.4-0.2,0.5L46.5,34.5z"/>
	</g>
	<g>
		<g>
			<path d="M40,48.1c-5,0-9.6-2.8-12.6-7.7c-0.2-0.2-0.2-0.6,0-0.8c3.1-4.9,7.7-7.7,12.6-7.7s9.6,2.8,12.6,7.7
				c0.2,0.2,0.2,0.6,0,0.8C49.6,45.3,45,48.1,40,48.1z M28.9,40c2.8,4.2,6.8,6.6,11.1,6.6s8.3-2.4,11.1-6.6
				c-2.8-4.2-6.8-6.6-11.1-6.6S31.7,35.8,28.9,40z"/>
		</g>
		<g>
			<path d="M40,44.8c-2.6,0-4.8-2.1-4.8-4.8s2.1-4.8,4.8-4.8s4.8,2.1,4.8,4.8S42.6,44.8,40,44.8z M40,36.8c-1.8,0-3.2,1.5-3.2,3.2
				s1.5,3.2,3.2,3.2s3.2-1.5,3.2-3.2S41.8,36.8,40,36.8z"/>
		</g>
	</g>
	<g>
		<rect x="35.2" y="24" width="1.5" height="4"/>
	</g>
	<g>
		<rect x="39.2" y="22" width="1.5" height="6"/>
	</g>
	<g>
		<rect x="43.2" y="18" width="1.5" height="10"/>
	</g>
</g>
</svg>
