<?xml version="1.0" encoding="utf-8"?>
<!-- Generator: Adobe Illustrator 27.7.0, SVG Export Plug-In . SVG Version: 6.00 Build 0)  -->
<svg version="1.1" xmlns="http://www.w3.org/2000/svg" xmlns:xlink="http://www.w3.org/1999/xlink" x="0px" y="0px"
	 viewBox="0 0 80 80" style="enable-background:new 0 0 80 80;" xml:space="preserve">
<style type="text/css">
	.st0{display:none;}
	.st1{display:inline;}
	.st2{fill:none;stroke:#00FFFF;stroke-width:5.000000e-02;stroke-linecap:round;stroke-miterlimit:10;}
	.st3{opacity:0.22;fill:none;stroke:#FF0000;stroke-width:5.000000e-02;stroke-linecap:round;stroke-miterlimit:10;}
	.st4{opacity:0.22;}
	.st5{fill:none;stroke:#FF0000;stroke-width:5.000000e-02;stroke-linecap:round;stroke-miterlimit:10;}
</style>
<g id="Layer_1" class="st0">
	<g class="st1">
		<rect x="8" y="8" class="st2" width="8" height="64"/>
		<rect x="16" y="8" class="st2" width="8" height="64"/>
		<rect x="24" y="8" class="st2" width="8" height="64"/>
		<rect x="32" y="8" class="st2" width="8" height="64"/>
		<rect x="40" y="8" class="st2" width="8" height="64"/>
		<rect x="48" y="8" class="st2" width="8" height="64"/>
		<rect x="56" y="8" class="st2" width="8" height="64"/>
		<rect x="64" y="8" class="st2" width="8" height="64"/>
	</g>
	<g class="st1">
		<rect x="36" y="36" transform="matrix(6.123234e-17 -1 1 6.123234e-17 -28 108)" class="st2" width="8" height="64"/>
		<rect x="36" y="28" transform="matrix(6.123234e-17 -1 1 6.123234e-17 -20 100)" class="st2" width="8" height="64"/>
		<rect x="36" y="20" transform="matrix(6.123234e-17 -1 1 6.123234e-17 -12 92)" class="st2" width="8" height="64"/>
		<rect x="36" y="12" transform="matrix(6.123234e-17 -1 1 6.123234e-17 -4 84)" class="st2" width="8" height="64"/>
		<rect x="36" y="4" transform="matrix(6.123234e-17 -1 1 6.123234e-17 4 76)" class="st2" width="8" height="64"/>
		<rect x="36" y="-4" transform="matrix(6.123234e-17 -1 1 6.123234e-17 12 68)" class="st2" width="8" height="64"/>
		<rect x="36" y="-12" transform="matrix(6.123234e-17 -1 1 6.123234e-17 20 60)" class="st2" width="8" height="64"/>
		<rect x="36" y="-20" transform="matrix(6.123234e-17 -1 1 6.123234e-17 28 52)" class="st2" width="8" height="64"/>
	</g>
	<g class="st1">
		<line class="st3" x1="8" y1="8" x2="72" y2="72"/>
		<line class="st3" x1="72" y1="8" x2="8" y2="72"/>
		<line class="st3" x1="8" y1="40" x2="72" y2="40"/>
		<line class="st3" x1="40" y1="8" x2="40" y2="72"/>
		<rect x="8" y="8" class="st3" width="64" height="64"/>
		<circle class="st3" cx="40" cy="40" r="16"/>
		<circle class="st3" cx="40" cy="40" r="24"/>
		<rect x="24" y="24" class="st3" width="32" height="32"/>
		<circle class="st3" cx="40" cy="40" r="30"/>
		<rect x="12" y="12" class="st3" width="56" height="56"/>
		<line class="st3" x1="40" y1="40" x2="71.9" y2="31.5"/>
		<line class="st3" x1="8.1" y1="48.5" x2="40" y2="40"/>
		<g class="st4">
			<line class="st5" x1="40" y1="40" x2="71.9" y2="48.5"/>
			<line class="st5" x1="8.1" y1="31.5" x2="40" y2="40"/>
		</g>
		<line class="st3" x1="40" y1="40" x2="48.5" y2="71.9"/>
		<line class="st3" x1="31.5" y1="8.1" x2="40" y2="40"/>
		<line class="st3" x1="40" y1="40" x2="31.5" y2="71.9"/>
		<line class="st3" x1="48.5" y1="8.1" x2="40" y2="40"/>
		<g class="st4">
			<line class="st5" x1="40" y1="40" x2="71.9" y2="48.5"/>
			<line class="st5" x1="8.1" y1="31.5" x2="40" y2="40"/>
		</g>
	</g>
</g>
<g id="Layer_2">
	<g>
		<path d="M70.8,58.8H70c-15.4,0-23.1-9.3-30.6-18.3C31.8,31.4,24.6,22.8,10,22.8H9.2v-1.5H10c15.4,0,23.1,9.3,30.6,18.3
			c7.6,9.1,14.8,17.7,29.4,17.7h0.8V58.8z"/>
		<path d="M10,58.8H9.2v-1.5H10c13.2,0,20.6-7.4,27.1-14.9l0.5-0.6l1.1,1l-0.5,0.6C31.5,51.1,23.9,58.8,10,58.8z"/>
		<path d="M42.6,38.1l-1.1-1l0.5-0.6c6.6-7.7,14.2-15.3,28.1-15.3h0.8v1.5H70c-13.2,0-20.5,7.3-26.9,14.7L42.6,38.1z"/>
	</g>
</g>
</svg>
