<?xml version="1.0" encoding="UTF-8"?><svg id="a" xmlns="http://www.w3.org/2000/svg" viewBox="0 0 80 80"><path d="M10,70.75h62v-1.5H10.75V8h-1.5v62c0,.41406,.33594,.75,.75,.75Z"/><path d="M32.76562,56v-14.18933l2.73438,2.73474,1.06055-1.06055-4.01465-4.01514c-.14062-.14062-.33105-.21973-.53027-.21973s-.38965,.0791-.53027,.21973l-4.01562,4.01514,1.06055,1.06055,2.73535-2.73499v14.18958h1.5Z"/><path d="M48.73438,56V25.81042l2.73535,2.73499,1.06055-1.06055-4.01562-4.01514c-.28125-.28125-.7793-.28125-1.06055,0l-4.01465,4.01514,1.06055,1.06055,2.73438-2.73474v30.18933h1.5Z"/><path d="M68.60645,10.39307c.21875,.21973,.33984,.51172,.33984,.82129h1.25c0-.64307-.25-1.24805-.70508-1.70459-.30176-.30139-.67993-.49298-1.08008-.59485v-.91492h-1.25v.91449c-.40112,.10199-.7793,.29407-1.08008,.59528-.45508,.45557-.70605,1.06104-.70605,1.70459,0,1.24414,.76465,2.0498,2.27148,2.39502,1.19922,.27441,1.2998,.75098,1.2998,1.17627,0,.30957-.12109,.60156-.33984,.8208-.4375,.43848-1.20312,.43848-1.64062,0-.21973-.21973-.34082-.51123-.34082-.8208h-1.25c0,.64355,.25098,1.24902,.70605,1.7041,.30273,.30365,.67578,.50659,1.08008,.61475v.89551h1.25v-.89575c.40332-.10815,.77637-.31085,1.08008-.6145,.45508-.45605,.70508-1.06104,.70508-1.7041,0-1.24414-.76367-2.0498-2.27051-2.39502-1.2002-.27441-1.30078-.75098-1.30078-1.17627,0-.30957,.12109-.60107,.34082-.82129,.4375-.4375,1.20312-.4375,1.64062,0Z"/></svg>