<?xml version="1.0" encoding="utf-8"?>
<!-- Generator: Adobe Illustrator 28.3.0, SVG Export Plug-In . SVG Version: 6.00 Build 0)  -->
<svg version="1.1" xmlns="http://www.w3.org/2000/svg" xmlns:xlink="http://www.w3.org/1999/xlink" x="0px" y="0px"
	 viewBox="0 0 80 80" style="enable-background:new 0 0 80 80;" xml:space="preserve">
<style type="text/css">
	.st0{display:none;}
	.st1{display:inline;opacity:0.75;}
	.st2{fill:#FFFFFF;}
	.st3{display:inline;}
	.st4{fill:none;stroke:#00FFFF;stroke-width:5.000000e-02;stroke-linecap:round;stroke-miterlimit:10;}
	.st5{fill:none;}
	.st6{opacity:0.22;fill:none;stroke:#FF0000;stroke-width:5.000000e-02;stroke-linecap:round;stroke-miterlimit:10;}
	.st7{opacity:0.22;}
	.st8{fill:none;stroke:#FF0000;stroke-width:5.000000e-02;stroke-linecap:round;stroke-miterlimit:10;}
	.st9{fill:none;stroke:#000000;stroke-width:1.5;stroke-linejoin:round;stroke-miterlimit:10;}
</style>
<g id="border" class="st0">
	<g class="st1">
		<path class="st2" d="M72,8v64H8V8H72 M80,0H0v80h80V0L80,0z"/>
	</g>
</g>
<g id="_x38__grid" class="st0">
	<g class="st3">
		<rect x="8" y="8" class="st4" width="8" height="64"/>
		<rect x="16" y="8" class="st4" width="8" height="64"/>
		<rect x="24" y="8" class="st4" width="8" height="64"/>
		<rect x="32" y="8" class="st4" width="8" height="64"/>
		<rect x="40" y="8" class="st4" width="8" height="64"/>
		<rect x="48" y="8" class="st4" width="8" height="64"/>
		<rect x="56" y="8" class="st4" width="8" height="64"/>
		<rect x="64" y="8" class="st4" width="8" height="64"/>
	</g>
	<g class="st3">
		<rect x="36" y="36" transform="matrix(6.123234e-17 -1 1 6.123234e-17 -28 108)" class="st4" width="8" height="64"/>
		<rect x="36" y="28" transform="matrix(6.123234e-17 -1 1 6.123234e-17 -20 100)" class="st4" width="8" height="64"/>
		<rect x="36" y="20" transform="matrix(6.123234e-17 -1 1 6.123234e-17 -12 92)" class="st4" width="8" height="64"/>
		<rect x="36" y="12" transform="matrix(6.123234e-17 -1 1 6.123234e-17 -4 84)" class="st4" width="8" height="64"/>
		<rect x="36" y="4" transform="matrix(6.123234e-17 -1 1 6.123234e-17 4 76)" class="st4" width="8" height="64"/>
		<rect x="36" y="-4" transform="matrix(6.123234e-17 -1 1 6.123234e-17 12 68)" class="st4" width="8" height="64"/>
		<rect x="36" y="-12" transform="matrix(6.123234e-17 -1 1 6.123234e-17 20 60)" class="st4" width="8" height="64"/>
		<rect x="36" y="-20" transform="matrix(6.123234e-17 -1 1 6.123234e-17 28 52)" class="st4" width="8" height="64"/>
	</g>
</g>
<g id="export_frame" class="st0">
	<g class="st3">
		<rect class="st5" width="80" height="80"/>
	</g>
</g>
<g id="guide_shapes" class="st0">
	<g class="st3">
		<line class="st6" x1="8" y1="8" x2="72" y2="72"/>
		<line class="st6" x1="72" y1="8" x2="8" y2="72"/>
		<line class="st6" x1="8" y1="40" x2="72" y2="40"/>
		<line class="st6" x1="40" y1="8" x2="40" y2="72"/>
		<rect x="8" y="8" class="st6" width="64" height="64"/>
		<circle class="st6" cx="40" cy="40" r="16"/>
		<circle class="st6" cx="40" cy="40" r="24"/>
		<rect x="24" y="24" class="st6" width="32" height="32"/>
		<circle class="st6" cx="40" cy="40" r="30"/>
		<rect x="12" y="12" class="st6" width="56" height="56"/>
		<line class="st6" x1="40" y1="40" x2="71.9" y2="31.5"/>
		<line class="st6" x1="8.1" y1="48.5" x2="40" y2="40"/>
		<g class="st7">
			<line class="st8" x1="40" y1="40" x2="71.9" y2="48.5"/>
			<line class="st8" x1="8.1" y1="31.5" x2="40" y2="40"/>
		</g>
		<line class="st6" x1="40" y1="40" x2="48.5" y2="71.9"/>
		<line class="st6" x1="31.5" y1="8.1" x2="40" y2="40"/>
		<line class="st6" x1="40" y1="40" x2="31.5" y2="71.9"/>
		<line class="st6" x1="48.5" y1="8.1" x2="40" y2="40"/>
		<g class="st7">
			<line class="st8" x1="40" y1="40" x2="71.9" y2="48.5"/>
			<line class="st8" x1="8.1" y1="31.5" x2="40" y2="40"/>
		</g>
	</g>
</g>
<g id="art">
	<g>
		<path d="M68,62.8H12c-1.5,0-2.8-1.2-2.8-2.8v-4c0-0.4,0.3-0.8,0.8-0.8h60c0.4,0,0.8,0.3,0.8,0.8v4C70.8,61.5,69.5,62.8,68,62.8z
			 M10.8,56.8V60c0,0.7,0.6,1.2,1.2,1.2h56c0.7,0,1.2-0.6,1.2-1.2v-3.2H10.8z"/>
	</g>
	<g>
		<rect x="39.2" y="62" width="1.5" height="4"/>
	</g>
	<g>
		<rect x="26" y="65.2" width="28" height="1.5"/>
	</g>
	<g>
		<path d="M69.1,56.8h-4v-1.5h4V56.8z M61.1,56.8h-4v-1.5h4V56.8z M53.1,56.8h-4v-1.5h4V56.8z M45.1,56.8h-4v-1.5h4V56.8z
			 M37.1,56.8h-4v-1.5h4V56.8z M29.1,56.8h-4v-1.5h4V56.8z M21.1,56.8h-4v-1.5h4V56.8z M13.1,56.8H10c-0.4,0-0.8-0.3-0.8-0.8v-0.9
			h1.5v0.1h2.4V56.8z M70.8,52.9h-1.5v-4h1.5V52.9z M10.8,51.1H9.2v-4h1.5V51.1z M70.8,44.9h-1.5v-4h1.5V44.9z M10.8,43.1H9.2v-4
			h1.5V43.1z M70.8,36.9h-1.5v-4h1.5V36.9z M10.8,35.1H9.2v-4h1.5V35.1z M70.8,28.9h-1.5V26c0-0.2-0.1-0.5-0.2-0.7l1.3-0.8
			c0.3,0.4,0.4,1,0.4,1.5V28.9z M10.8,27.1H9.2V26c0-1.4,1-2.5,2.4-2.7l0.2,1.5c-0.6,0.1-1.1,0.6-1.1,1.2V27.1z M66,24.8h-4v-1.5h4
			V24.8z M18,24.8h-2.3v-1.5H18V24.8z"/>
	</g>
	<g>
		<path d="M53,28.8H28c-3.7,0-6.8-3-6.8-6.8s3-6.8,6.8-6.8c0.8,0,1.5,0.1,2.2,0.4c1.7-3.8,5.6-6.4,9.8-6.4c5.2,0,9.5,3.6,10.5,8.6
			c0.8-0.4,1.6-0.6,2.5-0.6c3.2,0,5.8,2.6,5.8,5.8S56.2,28.8,53,28.8z M28,16.8c-2.9,0-5.2,2.4-5.2,5.2s2.4,5.2,5.2,5.2h25
			c2.3,0,4.2-1.9,4.2-4.2s-1.9-4.2-4.2-4.2c-0.9,0-1.8,0.3-2.6,0.9c-0.2,0.2-0.5,0.2-0.8,0.1c-0.3-0.1-0.4-0.3-0.4-0.6
			c-0.4-4.8-4.4-8.4-9.2-8.4c-3.9,0-7.4,2.5-8.7,6.1c-0.1,0.2-0.2,0.4-0.4,0.4c-0.2,0.1-0.4,0.1-0.6,0C29.6,16.9,28.8,16.8,28,16.8z
			"/>
	</g>
</g>
</svg>
