<?xml version="1.0" encoding="utf-8"?>
<!-- Generator: Adobe Illustrator 27.2.0, SVG Export Plug-In . SVG Version: 6.00 Build 0)  -->
<svg version="1.1" id="Layer_1" xmlns="http://www.w3.org/2000/svg" xmlns:xlink="http://www.w3.org/1999/xlink" x="0px" y="0px"
	 viewBox="0 0 80 80" style="enable-background:new 0 0 80 80;" xml:space="preserve">
<style type="text/css">
	.st0{fill:none;}
</style>
<g id="DO_NOT_TOUCH_Outlines_">
	<g>
		<path d="M20,51.2h-7.8c-0.4,0-0.8,0.3-0.8,0.8v14c0,0.4,0.3,0.8,0.8,0.8H20c0.4,0,0.8-0.3,0.8-0.8V52C20.8,51.6,20.4,51.2,20,51.2
			z M19.2,65.2H13V52.8h6.3V65.2z"/>
		<path d="M70,51.2H58.2c-0.4,0-0.8,0.3-0.8,0.8v18c0,0.4,0.3,0.8,0.8,0.8H70c0.4,0,0.8-0.3,0.8-0.8V52C70.8,51.6,70.4,51.2,70,51.2
			z M69.2,69.2H58.9V52.8h10.3V69.2z"/>
		<path d="M28,49.2c-0.4,0-0.8,0.3-0.8,0.8v15.7c0,0.4,0.3,0.8,0.8,0.8h24c0.4,0,0.8-0.3,0.8-0.8V50c0-0.4-0.3-0.8-0.8-0.8H28z
			 M51.2,64.9H28.8V50.8h22.5V64.9z"/>
		<rect x="26" y="69.2" width="28" height="1.5"/>
		<path d="M31.7,20.7v1.5c1.9,0,3.4,1.6,3.4,3.5h1.5C36.6,22.9,34.4,20.7,31.7,20.7z"/>
		<path d="M35.2,14.3h-1.5c0,2.8,2.2,5,4.9,5v-1.5C36.7,17.8,35.2,16.2,35.2,14.3z"/>
		<path d="M56.6,27.9v-1.5c-1.9,0-3.4-1.6-3.4-3.5h-1.5C51.7,25.6,53.9,27.9,56.6,27.9z"/>
		<path d="M16,48.8c0.2,0,0.4-0.1,0.5-0.2l3-3l-1.1-1.1l-1.7,1.7v-7.4H32c0.4,0,0.8-0.3,0.8-0.8v-7.2h6.5v12l-1.5-1.5l-1.1,1.1
			l2.8,2.8c0.2,0.2,0.3,0.2,0.5,0.2s0.4-0.1,0.5-0.2l2.8-2.8l-1.1-1.1l-1.5,1.5v-12h6.5V38c0,0.4,0.3,0.8,0.8,0.8h15.2v7.4l-1.7-1.7
			l-1.1,1.1l3,3c0.2,0.2,0.3,0.2,0.5,0.2s0.4-0.1,0.5-0.2l3-3l-1.1-1.1l-1.7,1.7V38c0-0.4-0.3-0.8-0.8-0.8H48.7v-6.5h7.9
			c2.7,0,4.9-2.3,4.9-5c0-2.1-1.3-4-3.2-4.7c0-0.2,0-0.4,0-0.5c0-3.2-2.5-5.8-5.6-5.8c-0.7,0-1.3,0.1-1.9,0.4
			c-0.1-0.3-0.2-0.5-0.4-0.8c0-0.1-0.1-0.1-0.1-0.1c-0.1-0.2-0.3-0.4-0.4-0.6c0,0,0-0.1,0-0.1c-0.2-0.2-0.3-0.4-0.5-0.6
			c-0.1-0.1-0.1-0.1-0.2-0.2c-0.2-0.2-0.4-0.3-0.5-0.4c0,0-0.1-0.1-0.1-0.1c-0.2-0.1-0.4-0.3-0.6-0.4c-0.1,0-0.1-0.1-0.2-0.1
			c-0.2-0.1-0.5-0.2-0.8-0.3c0,0,0,0,0,0c-0.2-0.1-0.5-0.1-0.8-0.2c-0.1,0-0.1,0-0.2,0c-0.3,0-0.6-0.1-0.8-0.1c-0.3,0-0.6,0-0.9,0.1
			c-0.1,0-0.2,0.1-0.3,0.1c-0.2,0-0.4,0.1-0.6,0.1c-0.1,0-0.2,0.1-0.3,0.1c-0.2,0.1-0.4,0.1-0.5,0.2c-0.1,0.1-0.2,0.1-0.3,0.2
			C42,11.9,41.9,12,41.8,12v0c-0.1,0.1-0.3,0.2-0.4,0.3c-0.2-0.2-0.3-0.4-0.5-0.6l0,0c0,0-0.1-0.1-0.1-0.1c0-0.1-0.1-0.1-0.1-0.1
			c-0.1-0.1-0.3-0.3-0.4-0.4c-0.1-0.1-0.2-0.2-0.3-0.3c-0.1-0.1-0.2-0.1-0.3-0.2c-0.2-0.1-0.3-0.2-0.5-0.3c-0.1,0-0.1-0.1-0.2-0.1
			c-0.2-0.1-0.3-0.2-0.5-0.3c-0.1,0-0.1-0.1-0.2-0.1c-0.2-0.1-0.4-0.1-0.6-0.2c-0.1,0-0.1,0-0.2-0.1c-0.2-0.1-0.4-0.1-0.5-0.1
			c-0.1,0-0.2,0-0.3-0.1c-0.2,0-0.3-0.1-0.4-0.1c-0.3,0-0.5-0.1-0.8-0.1c-0.3,0-0.7,0-1,0.1c-0.1,0-0.2,0-0.2,0
			c-0.3,0.1-0.6,0.1-0.9,0.2c0,0-0.1,0-0.1,0c-0.3,0.1-0.6,0.2-0.9,0.4c-0.1,0-0.1,0.1-0.2,0.1c-0.2,0.1-0.5,0.3-0.7,0.4
			c0,0-0.1,0.1-0.1,0.1c-0.3,0.2-0.5,0.4-0.8,0.6c-0.1,0.1-0.1,0.1-0.2,0.2c-0.2,0.2-0.4,0.4-0.6,0.6c0,0.1-0.1,0.1-0.1,0.1
			c-0.2,0.2-0.4,0.5-0.6,0.8c0,0.1-0.1,0.1-0.1,0.1c-0.2,0.3-0.3,0.6-0.5,0.9c0,0,0,0,0,0c-0.3-0.1-0.7-0.1-1-0.1
			c-3.5,0-6.3,2.9-6.3,6.4c0,0.3,0,0.5,0,0.8v0l0,0c0,0,0,0.1,0,0.1c-1.7,0.8-2.8,2.6-2.8,4.5c0,2.8,2.2,5,4.9,5l0,0h7.9v6.5H16
			c-0.4,0-0.8,0.3-0.8,0.8v8.2l-1.7-1.7l-1.1,1.1l3,3C15.6,48.7,15.8,48.8,16,48.8L16,48.8z M20,25.7c0-1.3,0.7-2.4,1.7-3
			c0.9,2.3,3.2,4,5.8,4v-1.5c-2.6,0-4.8-2.2-4.8-4.9s2.1-4.9,4.8-4.9c0.2,0,0.4,0,0.5,0c-0.1,0.6-0.2,1.1-0.2,1.7c0,1,0.2,2.1,0.6,3
			l1.4-0.6c-0.3-0.8-0.5-1.6-0.5-2.5c0-0.7,0.1-1.4,0.3-2.1c0.2-0.6,0.5-1.2,0.9-1.7c0,0,0-0.1,0.1-0.1c0.2-0.2,0.4-0.4,0.6-0.7
			c0,0,0,0,0.1-0.1c0.2-0.2,0.4-0.4,0.6-0.5c0,0,0.1-0.1,0.1-0.1c0.2-0.2,0.5-0.3,0.7-0.4c0,0,0.1,0,0.1-0.1
			c0.2-0.1,0.5-0.2,0.7-0.3c0,0,0,0,0.1,0c0.3-0.1,0.5-0.1,0.8-0.2c0.1,0,0.1,0,0.2,0c0.3,0,0.6-0.1,0.9-0.1c0.2,0,0.5,0,0.7,0.1
			c0.1,0,0.1,0,0.2,0c0.2,0,0.3,0.1,0.5,0.1c0.1,0,0.1,0,0.2,0.1c0.2,0.1,0.4,0.1,0.5,0.2c0,0,0.1,0,0.1,0.1
			c0.5,0.2,0.9,0.4,1.3,0.7c0,0,0.1,0.1,0.1,0.1c0.2,0.1,0.3,0.3,0.5,0.4c0,0,0.1,0.1,0.1,0.1c0.3,0.4,0.7,0.8,0.9,1.2
			c0.1,0.2,0.3,0.3,0.5,0.4s0.5-0.1,0.6-0.2c0.4-0.4,0.9-0.8,1.5-1c0,0,0.1,0,0.1-0.1c0.2-0.1,0.4-0.1,0.6-0.2c0.1,0,0.2,0,0.2-0.1
			c0.3-0.1,0.5-0.1,0.8-0.1c0.3,0,0.6,0,0.9,0.1c0.1,0,0.2,0.1,0.3,0.1c0.2,0.1,0.4,0.1,0.6,0.2c0.1,0,0.2,0.1,0.3,0.1
			c0.2,0.1,0.3,0.2,0.5,0.3c0.1,0.1,0.2,0.1,0.3,0.2c0.2,0.1,0.3,0.2,0.4,0.4c0.1,0.1,0.2,0.1,0.2,0.2c0.2,0.2,0.3,0.3,0.4,0.5
			c0,0.1,0.1,0.1,0.1,0.2c0.2,0.2,0.3,0.5,0.4,0.8c0.1,0.1,0.1,0.3,0.1,0.4c0.2,0.5,0.3,1,0.3,1.6c0,1.5-0.7,2.9-1.8,3.9l1,1.2
			c1.5-1.2,2.4-3.1,2.4-5c0-0.3,0-0.7-0.1-1c0.5-0.2,1-0.3,1.5-0.3c2.3,0,4.1,1.9,4.1,4.2c0,0.3,0,0.6-0.1,0.9
			c-0.1,0.4,0.2,0.8,0.6,0.9c1.5,0.4,2.7,1.8,2.7,3.5c0,2-1.5,3.5-3.4,3.5H40.8v-4.7c0-2.2,1.3-4.2,3.2-5.1L43.4,18
			c-2.5,1.1-4.1,3.7-4.1,6.5v4.7H23.4C21.5,29.2,20,27.6,20,25.7L20,25.7z"/>
	</g>
</g>
<g id="export_frame">
	<rect class="st0" width="80" height="80"/>
	<rect class="st0" width="80" height="80"/>
</g>
</svg>
