<?xml version="1.0" encoding="utf-8"?>
<!-- Generator: Adobe Illustrator 27.2.0, SVG Export Plug-In . SVG Version: 6.00 Build 0)  -->
<svg version="1.1" id="Layer_1" xmlns="http://www.w3.org/2000/svg" xmlns:xlink="http://www.w3.org/1999/xlink" x="0px" y="0px"
	 viewBox="0 0 80 80" style="enable-background:new 0 0 80 80;" xml:space="preserve">
<style type="text/css">
	.st0{fill:none;}
</style>
<g id="DO_NOT_TOUCH_Outlines_">
	<g>
		<path d="M70,39.2H56c-0.4,0-0.8,0.3-0.8,0.8v5.2H44.8V38h-1.5v8c0,0.4,0.3,0.8,0.8,0.8h11.2V52c0,0.4,0.3,0.8,0.8,0.8h14
			c0.4,0,0.8-0.3,0.8-0.8V40C70.8,39.6,70.4,39.2,70,39.2z M69.2,51.2H56.8V40.8h12.5V51.2z"/>
		<path d="M20,45c0.3,0,0.5-0.1,0.7-0.3c0.2-0.2,0.3-0.5,0.3-0.7s-0.1-0.5-0.3-0.7c-0.4-0.4-1-0.4-1.4,0C19.1,43.5,19,43.7,19,44
			s0.1,0.5,0.3,0.7C19.5,44.9,19.7,45,20,45z"/>
		<path d="M40,34.8c8.2,0,15.7-4.5,20.6-12.4c0.2-0.2,0.2-0.5,0-0.8C55.7,13.8,48.2,9.3,40,9.3s-15.7,4.5-20.6,12.4
			c-0.1,0.2-0.1,0.5,0,0.8C24.3,30.2,31.8,34.8,40,34.8z M40,10.8c7.5,0,14.5,4.1,19.1,11.2C54.5,29.2,47.5,33.2,40,33.2
			S25.5,29.2,20.9,22C25.5,14.8,32.5,10.8,40,10.8z"/>
		<path d="M40,30.8c4.8,0,8.8-3.9,8.8-8.8s-3.9-8.8-8.8-8.8s-8.8,3.9-8.8,8.8S35.2,30.8,40,30.8z M40,14.8c4,0,7.2,3.2,7.2,7.2
			S44,29.2,40,29.2S32.8,26,32.8,22S36,14.8,40,14.8z"/>
		<path d="M36,46.8c0.4,0,0.8-0.3,0.8-0.8v-8h-1.5v7.2H24.8V40c0-0.4-0.3-0.8-0.8-0.8H12c-0.4,0-0.8,0.3-0.8,0.8v12
			c0,0.4,0.3,0.8,0.8,0.8h1.2V56h1.5v-3.2h2.5V56h1.5v-3.2h2.5V56h1.5v-3.2H24c0.4,0,0.8-0.3,0.8-0.8v-5.2H36z M23.2,51.2H12.8V40.8
			h10.5V51.2z"/>
		<path d="M54,61.2H40.8V38h-1.5v23.2H35V56h-2v5.2h-2V58h-2v3.2h-3c-0.4,0-0.8,0.3-0.8,0.8v8c0,0.4,0.3,0.8,0.8,0.8h28
			c0.4,0,0.8-0.3,0.8-0.8v-8C54.8,61.6,54.4,61.2,54,61.2z M53.2,69.2H26.8v-6.5h26.5V69.2z"/>
		<rect x="40" y="65.2" width="10.5" height="1.5"/>
		<path d="M34,67c0.1,0,0.3,0,0.4-0.1c0.1-0.1,0.2-0.1,0.3-0.2c0.2-0.2,0.3-0.4,0.3-0.7c0-0.1,0-0.3-0.1-0.4c0-0.1-0.1-0.2-0.2-0.3
			c-0.1-0.1-0.2-0.2-0.3-0.2c-0.4-0.2-0.8-0.1-1.1,0.2c-0.1,0.1-0.2,0.2-0.2,0.3S33,65.9,33,66c0,0.3,0.1,0.5,0.3,0.7
			C33.5,66.9,33.7,67,34,67z"/>
		<path d="M30,67c0.1,0,0.1,0,0.2,0c0.1,0,0.1,0,0.2-0.1c0.1,0,0.1-0.1,0.2-0.1c0,0,0.1-0.1,0.1-0.1c0.2-0.2,0.3-0.4,0.3-0.7
			s-0.1-0.5-0.3-0.7c0,0-0.1-0.1-0.1-0.1c-0.1,0-0.1-0.1-0.2-0.1c-0.1,0-0.1-0.1-0.2-0.1c-0.3-0.1-0.7,0-0.9,0.3
			C29.1,65.5,29,65.7,29,66s0.1,0.5,0.3,0.7C29.5,66.9,29.7,67,30,67z"/>
		<rect x="58" y="43.2" width="2" height="1.5"/>
		<rect x="58" y="47.2" width="2" height="1.5"/>
		<rect x="62" y="43.2" width="2" height="1.5"/>
		<rect x="62" y="47.2" width="2" height="1.5"/>
		<rect x="66" y="43.2" width="2" height="1.5"/>
		<rect x="66" y="47.2" width="2" height="1.5"/>
	</g>
</g>
<g id="export_frame">
	<rect class="st0" width="80" height="80"/>
	<rect class="st0" width="80" height="80"/>
</g>
</svg>
