<svg id="DO_NOT_TOUCH_Outlines_" data-name="DO NOT TOUCH (Outlines)" xmlns="http://www.w3.org/2000/svg" viewBox="0 0 80 80"><path d="M40,34.75A12.75,12.75,0,1,0,27.25,22,12.76,12.76,0,0,0,40,34.75Zm0-24A11.25,11.25,0,1,1,28.75,22,11.27,11.27,0,0,1,40,10.75Z"/><path d="M52,39.25H28A12.76,12.76,0,0,0,15.25,52V72h1.5V52A11.27,11.27,0,0,1,28,40.75H52A11.27,11.27,0,0,1,63.25,52V72h1.5V52A12.76,12.76,0,0,0,52,39.25Z"/><path d="M55.24,46.29l-3-1a.75.75,0,0,0-1,.47l-4,12a.67.67,0,0,0,0,.24v4a.74.74,0,0,0,.46.69.74.74,0,0,0,.82-.16l3-3a.79.79,0,0,0,.18-.29l4-12A.75.75,0,0,0,55.24,46.29Zm-4.9,12.3-1.59,1.6V58.12L52.47,47l1.58.52Z"/></svg>