<?xml version="1.0" encoding="UTF-8"?><svg id="a" xmlns="http://www.w3.org/2000/svg" viewBox="0 0 80 80"><path d="M10,70.75H30c.41406,0,.75-.33594,.75-.75v-3.25h26.25c7.58203,0,13.75-6.16846,13.75-13.75s-6.16797-13.75-13.75-13.75H23c-6.75488,0-12.25-5.49512-12.25-12.25s5.49512-12.25,12.25-12.25h26.25v3.25c0,.41406,.33594,.75,.75,.75h20c.41406,0,.75-.33594,.75-.75V10c0-.41406-.33594-.75-.75-.75h-20c-.41406,0-.75,.33594-.75,.75v3.25H23c-7.58203,0-13.75,6.16846-13.75,13.75s6.16797,13.75,13.75,13.75H57c6.75488,0,12.25,5.49512,12.25,12.25s-5.49512,12.25-12.25,12.25H30.75v-3.25c0-.41406-.33594-.75-.75-.75H10c-.41406,0-.75,.33594-.75,.75v8c0,.41406,.33594,.75,.75,.75ZM50.75,10.75h18.5v6.5h-18.5v-6.5ZM10.75,62.75H29.25v6.5H10.75v-6.5Z"/></svg>