<?xml version="1.0" encoding="UTF-8"?><svg id="a" xmlns="http://www.w3.org/2000/svg" viewBox="0 0 80 80"><path d="M58,27.25h-12c-.41406,0-.75,.33594-.75,.75v8c0,.41406,.33594,.75,.75,.75h12c2.35352,0,3.40625,1.63232,3.40625,3.25,0,.85889-.29785,1.65479-.83984,2.24121-.60938,.66016-1.49707,1.00879-2.56641,1.00879h-12c-.41406,0-.75,.33594-.75,.75v8c0,.41406,.33594,.75,.75,.75h12c8.75977,0,12.75-6.60938,12.75-12.75s-3.99023-12.75-12.75-12.75Zm-6.75,8h-4.5v-6.5h4.5v6.5Zm0,16h-4.5v-6.5h4.5v6.5Zm6.75,0h-5.25v-6.5h5.25c1.49902,0,2.76758-.51562,3.66797-1.49121,.79883-.86426,1.23828-2.02148,1.23828-3.25879,0-2.36035-1.68555-4.75-4.90625-4.75h-5.25v-6.5h5.25c7.72949,0,11.25,5.83154,11.25,11.25s-3.52051,11.25-11.25,11.25Z"/><path d="M12,48.75l6.72754,.00049c.62134,.6579,1.30859,1.23932,2.0437,1.74512,.01392,.01105,.02417,.02557,.03931,.03564l.13672,.0918,.0083-.01221c2.07178,1.37421,4.51685,2.13916,7.04443,2.13916,7.03027,0,12.75-5.71973,12.75-12.75s-5.71973-12.75-12.75-12.75c-2.24121,0-4.44629,.58984-6.37598,1.70654l.75195,1.29834c1.70117-.98438,3.64551-1.50488,5.62402-1.50488,6.20312,0,11.25,5.04688,11.25,11.25,0,3.40979-1.53052,6.46399-3.93433,8.52887-.70532-2.1062-2.28052-3.76312-4.27954-4.59918,1.43945-.96277,2.39062-2.60095,2.39062-4.45898,0-2.95752-2.40625-5.36377-5.36328-5.36377-2.95801,0-5.36426,2.40625-5.36426,5.36377,0,1.85889,.95215,3.4975,2.39282,4.46008-.90283,.37994-1.7373,.9328-2.46021,1.64636-.85303,.867-1.48145,1.8988-1.85352,3.02917-.40869-.34241-.80322-.70392-1.16309-1.10583-.1416-.15918-.3457-.25-.55859-.25l-7.05664-.00049v1.5Zm12.19922-9.2793c0-2.13037,1.7334-3.86377,3.86426-3.86377,2.12988,0,3.86328,1.7334,3.86328,3.86377,0,2.12067-1.71851,3.84479-3.83496,3.86041l-.02344-.00104-.0293,.0014c-2.11938-.01361-3.83984-1.73877-3.83984-3.86078Zm-.50684,7.16602c1.17456-1.15802,2.7168-1.79761,4.34668-1.80524,.0083,.00006,.01611,.0025,.02441,.0025l.02295-.00232c2.8479,.0083,5.25488,1.94305,5.92871,4.65875-1.74194,1.10815-3.802,1.75958-6.01514,1.75958-2.10986,0-4.15234-.60651-5.91528-1.69727,.26831-1.0968,.80835-2.10272,1.60767-2.91602Z"/><path d="M15.97559,44.25l1.41406-.5c-.4248-1.2002-.63965-2.46191-.63965-3.75,0-.41406-.33594-.75-.75-.75H8v1.5h7.27148c.06934,1.19873,.30566,2.37305,.7041,3.5Z"/><path d="M17.39258,36.24951c.49023-1.38672,1.23828-2.64844,2.22559-3.74902,.19727-.22021,.24707-.53613,.12598-.80615-.12012-.27051-.38867-.44434-.68457-.44434h-7.05957v1.5h5.5127c-.64258,.92529-1.15625,1.92969-1.53418,3.00049l1.41406,.49902Z"/></svg>