<?xml version="1.0" encoding="UTF-8"?><svg id="a" xmlns="http://www.w3.org/2000/svg" viewBox="0 0 80 80"><path d="M9.46973,38.53369l4,3.99707,1.06055-1.06152-2.71875-2.71631h5.43848v14.07568c0,4.93408,2.91797,9.61572,7.09766,11.38477l15.36133,6.47754c.09277,.03955,.19141,.05908,.29102,.05908s.19922-.01953,.29199-.05908l15.30469-6.47754v-.00049c4.17773-1.76855,7.0957-6.44971,7.0957-11.38428v-14.09424h5.50195l-2.72559,2.73633,1.0625,1.05859,4-4.01562c.14062-.14111,.21875-.33203,.21875-.53076s-.08008-.38965-.2207-.52979l-4-3.98438-1.05859,1.0625,2.71387,2.70312h-5.49219V14c0-.41406-.33594-.75-.75-.75H18c-.41406,0-.75,.33594-.75,.75v23.25293h-5.44043l2.7207-2.72266-1.06055-1.06055-4,4.00293c-.14062,.14062-.21973,.33154-.21973,.53076,0,.19873,.0791,.38965,.21973,.53027ZM18.75,14.75H61.19238V52.82861c0,4.28027-2.59863,8.4873-6.17969,10.00342l-15.01367,6.354-15.06836-6.354c-3.58105-1.5166-6.18066-5.72363-6.18066-10.00342V14.75Z"/><path d="M30,46.75h3.25v3.25c0,.41406,.33594,.75,.75,.75h3.25v1.25c0,.41406,.33594,.75,.75,.75h4c.41406,0,.75-.33594,.75-.75v-1.25h3.25c.41406,0,.75-.33594,.75-.75v-3.25h3.25c.41406,0,.75-.33594,.75-.75V28c0-.41406-.33594-.75-.75-.75H30c-.41406,0-.75,.33594-.75,.75v18c0,.41406,.33594,.75,.75,.75Zm.75-18h18.5v16.5h-3.25c-.41406,0-.75,.33594-.75,.75v3.25h-3.25c-.41406,0-.75,.33594-.75,.75v1.25h-2.5v-1.25c0-.41406-.33594-.75-.75-.75h-3.25v-3.25c0-.41406-.33594-.75-.75-.75h-3.25V28.75Z"/><rect x="33.25" y="32" width="1.5" height="4"/><rect x="37.25" y="32" width="1.5" height="4"/><rect x="41.25" y="32" width="1.5" height="4"/><rect x="45.25" y="32" width="1.5" height="4"/></svg>