<?xml version="1.0" encoding="UTF-8"?><svg id="a" xmlns="http://www.w3.org/2000/svg" viewBox="0 0 80 80"><path d="M40,29.25c-3.94043,0-7.64453,1.53418-10.42969,4.32031-2.78613,2.78564-4.32031,6.49023-4.32031,10.42969,0,3.93994,1.53418,7.64404,4.32031,10.42969,2.78516,2.78613,6.48926,4.32031,10.42969,4.32031s7.64453-1.53418,10.42969-4.32031c2.78613-2.78564,4.32031-6.48975,4.32031-10.42969s-1.53418-7.64404-4.32031-10.42969c-2.78516-2.78613-6.48926-4.32031-10.42969-4.32031Zm9.36914,24.11914c-2.50195,2.50244-5.83008,3.88086-9.36914,3.88086s-6.86719-1.37842-9.36914-3.88086c-2.50293-2.50244-3.88086-5.83008-3.88086-9.36914s1.37793-6.8667,3.88086-9.36914c2.50195-2.50244,5.83008-3.88086,9.36914-3.88086s6.86719,1.37842,9.36914,3.88086c2.50293,2.50244,3.88086,5.83008,3.88086,9.36914s-1.37793,6.8667-3.88086,9.36914Z"/><path d="M46.87988,36.05957l-1.14307,1.14124c-3.49365-2.95129-8.74023-2.78711-12.03174,.50427-3.4707,3.47119-3.4707,9.11865,0,12.58984l1.06055-1.06055c-2.88574-2.88623-2.88574-7.58252,0-10.46875,2.70703-2.70618,7.00464-2.87439,9.90967-.505l-3.36743,3.36188c-.40088-.23041-.85913-.3725-1.35376-.3725-1.50977,0-2.7373,1.22803-2.7373,2.7373,0,1.50977,1.22754,2.73779,2.7373,2.73779s2.73828-1.22803,2.73828-2.73779c0-.46912-.12964-.90424-.33838-1.29059l5.58643-5.5766-1.06055-1.06055Zm-6.92578,9.16553c-.68262,0-1.2373-.55518-1.2373-1.23779,0-.68213,.55469-1.2373,1.2373-1.2373s1.23828,.55518,1.23828,1.2373c0,.68262-.55566,1.23779-1.23828,1.23779Z"/><path d="M9.25,24v40c0,.41406,.33594,.75,.75,.75h60c.41406,0,.75-.33594,.75-.75V16c0-.41406-.33594-.75-.75-.75H10c-.41406,0-.75,.33594-.75,.75v8Zm1.5-7.25h58.5v6.5H10.75v-6.5Zm0,8h58.5V63.25H10.75V24.75Z"/><circle cx="16" cy="20" r="1"/><circle cx="22" cy="20" r="1"/><circle cx="28" cy="20" r="1"/></svg>