<?xml version="1.0" encoding="UTF-8"?><svg id="a" xmlns="http://www.w3.org/2000/svg" viewBox="0 0 80 80"><path d="M15,59.25c-3.1709,0-5.75,2.57959-5.75,5.75s2.5791,5.75,5.75,5.75,5.75-2.57959,5.75-5.75c0-1.31537-.44873-2.52521-1.19482-3.49518l10.5752-10.57513c2.61719,2.3656,6.07251,3.82031,9.86963,3.82031,3.79688,0,7.2522-1.45465,9.86938-3.82013l10.57544,10.57495c-.74609,.96997-1.19482,2.17981-1.19482,3.49518,0,3.17041,2.5791,5.75,5.75,5.75s5.75-2.57959,5.75-5.75-2.5791-5.75-5.75-5.75c-1.31519,0-2.5249,.44861-3.49463,1.19434l-10.57544-10.57495c2.36548-2.61707,3.82007-6.07227,3.82007-9.86938s-1.45459-7.25232-3.82007-9.86938l10.57495-10.57532c.96973,.74597,2.17969,1.1947,3.49512,1.1947,3.1709,0,5.75-2.57959,5.75-5.75s-2.5791-5.75-5.75-5.75-5.75,2.57959-5.75,5.75c0,1.31512,.44873,2.52478,1.19434,3.49463l-10.57495,10.57544c-2.61719-2.36548-6.07251-3.82007-9.86938-3.82007s-7.2522,1.45465-9.86938,3.82013l-10.57544-10.57495c.74609-.96997,1.19482-2.17981,1.19482-3.49518,0-3.17041-2.5791-5.75-5.75-5.75s-5.75,2.57959-5.75,5.75,2.5791,5.75,5.75,5.75c1.31519,0,2.5249-.44861,3.49463-1.19434l10.57544,10.57495c-2.36548,2.61707-3.82007,6.07227-3.82007,9.86938s1.45459,7.25208,3.81982,9.86908l-10.5752,10.5752c-.96973-.74573-2.17944-1.19427-3.49463-1.19427Zm50,1.5c2.34375,0,4.25,1.90674,4.25,4.25s-1.90625,4.25-4.25,4.25-4.25-1.90674-4.25-4.25,1.90625-4.25,4.25-4.25Zm0-50c2.34375,0,4.25,1.90674,4.25,4.25s-1.90625,4.25-4.25,4.25-4.25-1.90674-4.25-4.25,1.90625-4.25,4.25-4.25ZM15,19.25c-2.34375,0-4.25-1.90674-4.25-4.25s1.90625-4.25,4.25-4.25,4.25,1.90674,4.25,4.25-1.90625,4.25-4.25,4.25Zm25.53027,21.28027l.00195-.00146v-.00049l.00098-.00098,.00391-.00342v-.00049l.00098-.00146c.09277-.09521,.15625-.21094,.18848-.33447v-.00342c.00684-.02637,.0127-.05371,.0166-.08105v-.00049l.00098-.00537c.00391-.03418,.00586-.06836,.00586-.10303v-13.20612c6.95605,.39233,12.5,6.159,12.5,13.21198,0,7.30615-5.94434,13.25-13.25,13.25-3.38354,0-6.46533-1.28577-8.80957-3.38049l9.33984-9.33923Zm-1.28027-13.74225v12.46198h-12.46191c.37817-6.70679,5.75537-12.08374,12.46191-12.46198Zm-12.46191,13.96198h11.40137l-8.05933,8.05896c-1.93774-2.1687-3.16797-4.9715-3.34204-8.05896Zm-11.78809,28.5c-2.34375,0-4.25-1.90674-4.25-4.25s1.90625-4.25,4.25-4.25,4.25,1.90674,4.25,4.25-1.90625,4.25-4.25,4.25Z"/></svg>