<?xml version="1.0" encoding="UTF-8"?><svg id="a" xmlns="http://www.w3.org/2000/svg" viewBox="0 0 80 80"><path d="M70.53027,69.46973l-18.52588-18.52588c9.11914-9.68713,8.96704-24.97394-.50342-34.44482-9.65039-9.64941-25.35156-9.64941-35.00195,0-9.64941,9.6499-9.64941,25.35205,0,35.00195,4.8252,4.82471,11.16309,7.2373,17.50098,7.2373,6.10278,0,12.19165-2.26056,16.94385-6.73395l18.52588,18.52594,1.06055-1.06055Zm-20.08984-19.0293c-9.06543,9.06396-23.81543,9.06494-32.88086,0-9.06445-9.06543-9.06445-23.81543,0-32.88086,4.53223-4.53223,10.48633-6.79834,16.44043-6.79834s11.9082,2.26611,16.44043,6.79834c9.06348,9.06543,9.06445,23.81592,0,32.88086Z"/><path d="M45,41.25c-.02148,0-.04126,.00598-.06274,.00635l-2.40991-10.83911c1.30664-.58667,2.22266-1.89441,2.22266-3.41724,0-2.06787-1.68262-3.75-3.75-3.75-1.52295,0-2.83105,.91614-3.41772,2.22339l-10.83862-2.41064c.00049-.02142,.00635-.04126,.00635-.06274,0-2.06787-1.68262-3.75-3.75-3.75s-3.75,1.68213-3.75,3.75c0,1.81097,1.29053,3.32568,3,3.67419v4.65161c-1.70947,.34851-3,1.86322-3,3.67419,0,2.06787,1.68262,3.75,3.75,3.75,.43604,0,.84863-.08923,1.23828-.22675l2.23657,3.72302c-.74756,.68597-1.22485,1.66156-1.22485,2.75372,0,2.06787,1.68262,3.75,3.75,3.75,1.81055,0,3.32568-1.29034,3.67407-3h8.65186c.34839,1.70966,1.86353,3,3.67407,3,2.06738,0,3.75-1.68213,3.75-3.75s-1.68262-3.75-3.75-3.75Zm-4-16.5c1.24023,0,2.25,1.00928,2.25,2.25s-1.00977,2.25-2.25,2.25-2.25-1.00928-2.25-2.25,1.00977-2.25,2.25-2.25Zm-3.04248,4.42529c.11646,.16248,.24023,.31958,.38086,.4613l-3.05518,4.58606-2.67285-2.67297,5.34717-2.37439Zm-11.30005,5.01764l4.48389-1.99103,3.2937,3.29376-1.98291,2.97675-5.80322-2.63837c.06152-.26917,.10107-.54645,.10107-.83405,0-.27765-.03516-.54645-.09253-.80707Zm-.23975-9.66632l10.83862,2.41064c-.00049,.02142-.00635,.04126-.00635,.06274,0,.27753,.03516,.5462,.09253,.8067l-5.8689,2.60638-5.34839-5.34839c.11255-.16962,.20825-.35071,.29248-.53809Zm3.58716,6.53882l-3.96216,1.75958c-.54175-.75543-1.35034-1.30707-2.29272-1.49921v-4.65161c.47778-.09741,.92139-.28827,1.3147-.54901l4.94019,4.94025Zm-9.25488-8.06543c0-1.24072,1.00977-2.25,2.25-2.25s2.25,1.00928,2.25,2.25-1.00977,2.25-2.25,2.25-2.25-1.00928-2.25-2.25Zm2.25,14.25c-1.24023,0-2.25-1.00928-2.25-2.25s1.00977-2.25,2.25-2.25,2.25,1.00928,2.25,2.25-1.00977,2.25-2.25,2.25Zm6,10c-1.24023,0-2.25-1.00928-2.25-2.25s1.00977-2.25,2.25-2.25,2.25,1.00928,2.25,2.25-1.00977,2.25-2.25,2.25Zm1.41431-5.71851c-.43726-.17896-.91357-.28149-1.41431-.28149-.43604,0-.84863,.08923-1.23828,.22675l-2.23657-3.72302c.18433-.16901,.35132-.3537,.49902-.55615l5.58545,2.53949-1.19531,1.79443Zm10.91162,2.71851h-8.65186c-.14819-.72754-.50854-1.37811-1.01245-1.8866l1.33081-1.99762,8.35864,3.80017c-.00659,.02875-.01929,.05499-.02515,.08405Zm-7.49097-5.14886l1.68164-2.52411,6.03027,6.03033-7.71191-3.50623Zm2.52954-3.79718l3.22119-4.83545c.43726,.17896,.91357,.28149,1.41431,.28149,.02148,0,.04126-.00598,.06274-.00635l2.40991,10.83911c-.18701,.08405-.36792,.17975-.53735,.29205l-6.5708-6.57086Zm8.6355,11.94604c-1.24023,0-2.25-1.00928-2.25-2.25s1.00977-2.25,2.25-2.25,2.25,1.00928,2.25,2.25-1.00977,2.25-2.25,2.25Z"/></svg>