<?xml version="1.0" encoding="UTF-8"?><svg id="a" xmlns="http://www.w3.org/2000/svg" viewBox="0 0 80 80"><path d="M12,62.70215h27.25v2.54785h-7.7041v1.5h16.9082v-1.5h-7.7041v-2.54785h27.25c1.5166,0,2.75-1.2334,2.75-2.75V28.08301c0-1.5166-1.2334-2.75-2.75-2.75h-4v1.5h4c.68945,0,1.25,.56055,1.25,1.25v27.16699H10.75V28.08301c0-.68945,.56055-1.25,1.25-1.25h4v-1.5h-4c-1.5166,0-2.75,1.2334-2.75,2.75v31.86914c0,1.5166,1.2334,2.75,2.75,2.75Zm-1.25-5.95215h58.5v3.20215c0,.68945-.56055,1.25-1.25,1.25H12c-.68945,0-1.25-.56055-1.25-1.25v-3.20215Z"/><path d="M19.25,20v10c0,.41406,.33594,.75,.75,.75H60c.41406,0,.75-.33594,.75-.75v-10h-1.5v9.25H20.75v-9.25h-1.5Z"/><path d="M39.25,8v12.18945l-4.71973-4.71973-1.06055,1.06055,6,6c.14648,.14648,.33789,.21973,.53027,.21973s.38379-.07324,.53027-.21973l6-6-1.06055-1.06055-4.71973,4.71973V8h-1.5Z"/></svg>