<?xml version="1.0" encoding="UTF-8"?><svg id="modifiers" xmlns="http://www.w3.org/2000/svg" viewBox="0 0 80 80"><defs><style>.cls-1{fill:#fff;}</style></defs><path class="cls-1" d="M52.84,39.84h4.92v1.05h-4.8s-.03.08-.04.14l-.43,2.08c-.13.65-.66,1.08-1.32,1.09h0c-.65,0-1.19-.43-1.33-1.07l-1.16-5.36-1.51,8.75c-.14.78-.66,1.03-.98,1.04-.38,0-.85-.31-.96-1.13l-1.75-13.59-1.64,18.13c-.08.89-.58,1.21-.98,1.21h0c-.44,0-.92-.39-.98-1.24l-1.95-15.26-2.01,11.05c-.05.81-.53,1.2-.98,1.2h0c-.44,0-.92-.38-.99-1.24l-1.63-11.17-1.06,9.28c-.08.72-.64,1.22-1.36,1.22,0,0,0,0,0,0-.72,0-1.28-.51-1.36-1.23l-.39-3.67c-.01-.11-.04-.19-.06-.23h-5.43v-1.05h5.56c.51,0,.91.47.98,1.18l.39,3.67c.03.26.19.3.32.29.09,0,.29-.03.32-.29l1.12-9.81c.1-.87.56-1.18.99-1.16.44,0,.91.39.97,1.24l1.64,11.26,2.02-11.08c.05-.81.53-1.2.98-1.2h0c.44,0,.92.38.99,1.24l1.93,15.1,1.64-18.11c.08-.88.57-1.2.97-1.21.34,0,.88.28.99,1.13l1.77,13.76,1.49-8.64c.13-.76.57-1.04.95-1.04.39.01.81.24.96.96l1.25,5.78c.05.22.22.24.3.24h0c.07,0,.25-.03.3-.24l.43-2.08c.12-.6.5-.98.95-.98ZM67.56,21.64l-.73.75-3.98-3.88v20.68h-.06c.03.51.06,1.02.06,1.54,0,10.2-6.72,18.85-15.97,21.77h15.26l-3.83-3.74.73-.75,4.75,4.64c.1.1.16.23.16.37,0,.14-.05.27-.15.37l-4.75,4.87-.75-.73,3.88-3.98h-20.68v-.05c-.49.03-.98.05-1.48.05-10.19,0-18.84-6.71-21.76-15.95v14.95l3.74-3.83.75.73-4.64,4.75c-.1.1-.23.16-.37.16h0c-.14,0-.27-.05-.37-.15l-4.87-4.75.73-.75,3.98,3.88v-20.68h.02c-.02-.39-.03-.79-.03-1.19,0-10.19,6.72-18.84,15.96-21.77h-14.96l3.83,3.74-.73.75-4.75-4.64c-.1-.1-.16-.23-.16-.37,0-.14.05-.27.15-.37l4.75-4.87.75.73-3.88,3.98h20.68v.03c.39-.02.79-.03,1.19-.03,10.2,0,18.86,6.73,21.77,15.98v-15.33l-3.74,3.83-.75-.73,4.64-4.75c.1-.1.23-.16.37-.16.12,0,.27.05.37.15l4.87,4.75ZM61.8,40.73c0-12-9.77-21.77-21.77-21.77s-21.77,9.77-21.77,21.77,9.77,21.77,21.77,21.77,21.77-9.77,21.77-21.77ZM80,40c0,22.06-17.94,40-40,40S0,62.06,0,40,17.94,0,40,0s40,17.94,40,40ZM78.95,40C78.95,18.52,61.48,1.05,40,1.05S1.05,18.52,1.05,40s17.47,38.95,38.95,38.95,38.95-17.47,38.95-38.95Z"/></svg>