<?xml version="1.0" encoding="UTF-8"?><svg id="device" xmlns="http://www.w3.org/2000/svg" viewBox="0 0 80 80"><defs><style>.cls-1{fill:#fff;}</style></defs><g id="Layer_4"><path class="cls-1" d="M15.08,24.86h-2.9v-1.03h2.9v1.03ZM20.88,23.82h-2.9v1.03h2.9v-1.03ZM35.91,56.18h2.9v-1.03h-2.9v1.03ZM41.71,56.18h2.9v-1.03h-2.9v1.03ZM53.32,56.18h2.9v-1.03h-2.9v1.03ZM0,47.52h1.03v-2.9H0v2.9ZM47.51,56.18h2.9v-1.03h-2.9v1.03ZM26.68,23.82h-2.9v1.03h2.9v-1.03ZM30.11,56.18h2.9v-1.03h-2.9v1.03ZM59.12,56.18h2.9v-1.03h-2.9v1.03ZM64.92,56.18h2.9v-1.03h-2.9v1.03ZM24.31,56.18h2.9v-1.03h-2.9v1.03ZM44.08,23.82h-2.9v1.03h2.9v-1.03ZM0,53.32h1.03v-2.9H0v2.9ZM0,30.11h1.03v-2.9H0v2.9ZM0,41.72h1.03v-2.9H0v2.9ZM0,35.91h1.03v-2.9H0v2.9ZM18.51,56.18h2.9v-1.03h-2.9v1.03ZM12.71,56.18h2.9v-1.03h-2.9v1.03ZM1.1,56.18h2.9v-1.03H1.1v1.03ZM9.28,23.82h-2.9v1.03h2.9v-1.03ZM6.91,56.18h2.9v-1.03h-2.9v1.03ZM70.72,56.18h2.9v-1.03h-2.9v1.03ZM38.28,23.82h-2.9v1.03h2.9v-1.03ZM73.09,23.82h-2.9v1.03h2.9v-1.03ZM32.48,23.82h-2.9v1.03h2.9v-1.03ZM78.89,23.82h-2.9v1.03h2.9v-1.03ZM61.49,23.82h-2.9v1.03h2.9v-1.03ZM67.29,23.82h-2.9v1.03h2.9v-1.03ZM49.88,23.82h-2.9v1.03h2.9v-1.03ZM55.69,23.82h-2.9v1.03h2.9v-1.03ZM78.97,35.38h1.03v-2.9h-1.03v2.9ZM78.97,41.18h1.03v-2.9h-1.03v2.9ZM78.97,26.68v2.9h1.03v-2.9h-1.03ZM78.97,52.78h1.03v-2.9h-1.03v2.9ZM79.51,55.99v-.86h-2.98s0,0,0,0v1.03h2.9s0,0,0,0h.08s.03-.01.04-.01l-.04-.17ZM78.97,46.98h1.03v-2.9h-1.03v2.9ZM76.63,51.86c0,.38-.31.69-.69.69h-2.23s-.07-.02-.11-.02c-.03,0-.06.02-.1.02H6.37s-.02,0-.03,0c-.01,0-.02,0-.03,0h-2.38c-.29,0-.55-.27-.55-.55v-11.97s0-.02,0-.03c0,0,0-.02,0-.03v-11.97c0-.29.27-.55.55-.55h2.38s.02,0,.03,0c.01,0,.02,0,.03,0h67.13s.07.01.1.02c.04,0,.07-.02.11-.02h2.23c.38,0,.69.31.69.69v11.7c0,.06-.02.11-.03.16.01.05.03.1.03.16v11.7ZM75.59,28.49h-1.54v10.99h1.54v-10.99ZM73.02,28.49H6.85v6.42c.12-.17.25-.33.39-.45.64-.58,1.37-.63,2.03-.59v-.82s.03-.06.06-.06h.6v-.25h1.32v.25h.6s.06.03.06.06v2.64s-.03.06-.06.06h-2.52s-.06-.03-.06-.06v-.79c-.5-.04-.97-.01-1.33.32-.64.58-.99,2.01-1.07,4.26h66.15v-10.99ZM4.41,28.49v10.99h1.41v-10.99h-1.41ZM4.41,51.51h1.41v-10.99h-1.41v10.99ZM6.85,51.51h66.17v-10.99H6.85c.01,3.03.36,4.88,1.05,5.48.33.29.75.28,1.35.21v-1.03s.03-.06.06-.06h2.52s.06.03.06.06v2.64s-.03.06-.06.06h-.6v.25h-1.32v-.25h-.6s-.06-.03-.06-.06v-.59c-.18.02-.36.05-.55.05-.5,0-1.03-.11-1.49-.51-.13-.12-.25-.26-.37-.42v5.15ZM75.59,51.51v-10.99h-1.54v10.99h1.54ZM16.63,35.74s.06-.03.06-.06v-2.64s-.03-.06-.06-.06h-.6v-.25h-1.32v.25h-.6s-.06.03-.06.06v2.64s.03.06.06.06h2.52ZM21.42,35.74s.06-.03.06-.06v-2.64s-.03-.06-.06-.06h-.6v-.25h-1.32v.25h-.6s-.06.03-.06.06v2.64s.03.06.06.06h2.52ZM26.21,35.74s.06-.03.06-.06v-2.64s-.03-.06-.06-.06h-.6v-.25h-1.32v.25h-.6s-.06.03-.06.06v2.64s.03.06.06.06h2.52ZM31,35.74s.06-.03.06-.06v-2.64s-.03-.06-.06-.06h-.6v-.25h-1.32v.25h-.6s-.06.03-.06.06v2.64s.03.06.06.06h2.52ZM35.79,35.74s.06-.03.06-.06v-2.64s-.03-.06-.06-.06h-.6v-.25h-1.32v.25h-.6s-.06.03-.06.06v2.64s.03.06.06.06h2.52ZM40.58,35.74s.06-.03.06-.06v-2.64s-.03-.06-.06-.06h-.6v-.25h-1.32v.25h-.6s-.06.03-.06.06v2.64s.03.06.06.06h2.52ZM45.37,35.74s.06-.03.06-.06v-2.64s-.03-.06-.06-.06h-.6v-.25h-1.32v.25h-.6s-.06.03-.06.06v2.64s.03.06.06.06h2.52ZM50.16,35.74s.06-.03.06-.06v-2.64s-.03-.06-.06-.06h-.6v-.25h-1.32v.25h-.6s-.06.03-.06.06v2.64s.03.06.06.06h2.52ZM54.93,35.74s.06-.03.06-.06v-2.64s-.03-.06-.06-.06h-.6v-.25h-1.32v.25h-.6s-.06.03-.06.06v2.64s.03.06.06.06h2.52ZM59.7,35.74s.06-.03.06-.06v-2.64s-.03-.06-.06-.06h-.6v-.25h-1.32v.25h-.6s-.06.03-.06.06v2.64s.03.06.06.06h2.52ZM64.48,35.74s.06-.03.06-.06v-2.64s-.03-.06-.06-.06h-.6v-.25h-1.32v.25h-.6s-.06.03-.06.06v2.64s.03.06.06.06h2.52ZM61.99,45.13s-.06.03-.06.06v2.64s.03.06.06.06h.6v.25h1.32v-.25h.6s.06-.03.06-.06v-2.64s-.03-.06-.06-.06h-2.52ZM57.2,45.13s-.06.03-.06.06v2.64s.03.06.06.06h.6v.25h1.32v-.25h.6s.06-.03.06-.06v-2.64s-.03-.06-.06-.06h-2.52ZM52.41,45.13s-.06.03-.06.06v2.64s.03.06.06.06h.6v.25h1.32v-.25h.6s.06-.03.06-.06v-2.64s-.03-.06-.06-.06h-2.52ZM47.62,45.13s-.06.03-.06.06v2.64s.03.06.06.06h.6v.25h1.32v-.25h.6s.06-.03.06-.06v-2.64s-.03-.06-.06-.06h-2.52ZM42.83,45.13s-.06.03-.06.06v2.64s.03.06.06.06h.6v.25h1.32v-.25h.6s.06-.03.06-.06v-2.64s-.03-.06-.06-.06h-2.52ZM38.04,45.13s-.06.03-.06.06v2.64s.03.06.06.06h.6v.25h1.32v-.25h.6s.06-.03.06-.06v-2.64s-.03-.06-.06-.06h-2.52ZM33.25,45.13s-.06.03-.06.06v2.64s.03.06.06.06h.6v.25h1.32v-.25h.6s.06-.03.06-.06v-2.64s-.03-.06-.06-.06h-2.52ZM28.46,45.13s-.06.03-.06.06v2.64s.03.06.06.06h.6v.25h1.32v-.25h.6s.06-.03.06-.06v-2.64s-.03-.06-.06-.06h-2.52ZM23.68,45.13s-.06.03-.06.06v2.64s.03.06.06.06h.6v.25h1.32v-.25h.6s.06-.03.06-.06v-2.64s-.03-.06-.06-.06h-2.52ZM18.89,45.13s-.06.03-.06.06v2.64s.03.06.06.06h.6v.25h1.32v-.25h.6s.06-.03.06-.06v-2.64s-.03-.06-.06-.06h-2.52ZM14.1,45.13s-.06.03-.06.06v2.64s.03.06.06.06h.6v.25h1.32v-.25h.6s.06-.03.06-.06v-2.64s-.03-.06-.06-.06h-2.52ZM3.47,24.86h0v-1.03H.49v1.04h2.98Z"/></g></svg>