<?xml version="1.0" encoding="UTF-8"?><svg id="device" xmlns="http://www.w3.org/2000/svg" viewBox="0 0 80 80"><defs><style>.cls-1{fill:#fff;}</style></defs><g id="Layer_4"><path class="cls-1" d="M64.45,34.11h7.49c.24,0,.43.19.43.43v1.34c0,.24-.19.43-.43.43h-7.49c-.24,0-.43-.19-.43-.43v-1.34c0-.24.19-.43.43-.43ZM54.99,23.06s-.06.03-.06.06v2.44s.03.06.06.06h.65v.67h1.41v-.67h.65s.06-.03.06-.06v-2.44s-.03-.06-.06-.06h-2.71ZM46.91,23.06s-.06.03-.06.06v2.44s.03.06.06.06h.65v.67h1.41v-.67h.65s.06-.03.06-.06v-2.44s-.03-.06-.06-.06h-2.71ZM57.05,18.48v-.67h-1.41v.67h-.65s-.06.03-.06.06v2.44s.03.06.06.06h2.71s.06-.03.06-.06v-2.44s-.03-.06-.06-.06h-.65ZM47.98,64.77v-6.92c0-.3.29-.59.59-.59h9.19c.3,0,.59.29.59.59v6.92c0,.3-.29.59-.59.59h-9.19c-.3,0-.59-.29-.59-.59ZM49.06,64.28h8.21v-5.94h-8.21v5.94ZM40.89,18.48v-.67h-1.41v.67h-.65s-.06.03-.06.06v2.44s.03.06.06.06h2.71s.06-.03.06-.06v-2.44s-.03-.06-.06-.06h-.65ZM32.81,18.48v-.67h-1.41v.67h-.65s-.06.03-.06.06v2.44s.03.06.06.06h2.71s.06-.03.06-.06v-2.44s-.03-.06-.06-.06h-.65ZM38.83,23.06s-.06.03-.06.06v2.44s.03.06.06.06h.65v.67h1.41v-.67h.65s.06-.03.06-.06v-2.44s-.03-.06-.06-.06h-2.71ZM48.97,18.48v-.67h-1.41v.67h-.65s-.06.03-.06.06v2.44s.03.06.06.06h2.71s.06-.03.06-.06v-2.44s-.03-.06-.06-.06h-.65ZM49.35,34.11h-7.49c-.24,0-.43.19-.43.43v1.34c0,.24.19.43.43.43h7.49c.24,0,.43-.19.43-.43v-1.34c0-.24-.19-.43-.43-.43ZM61.1,64.73v-6.92c0-.3.29-.59.59-.59h9.19c.3,0,.59.29.59.59v6.92c0,.3-.29.59-.59.59h-9.19c-.3,0-.59-.29-.59-.59ZM62.18,64.24h8.21v-5.94h-8.21v5.94ZM60.64,34.11h-7.49c-.24,0-.43.19-.43.43v1.34c0,.24.19.43.43.43h7.49c.24,0,.43-.19.43-.43v-1.34c0-.24-.19-.43-.43-.43ZM26.77,34.11h-7.49c-.24,0-.43.19-.43.43v1.34c0,.24.19.43.43.43h7.49c.24,0,.43-.19.43-.43v-1.34c0-.24-.19-.43-.43-.43ZM30.75,23.06s-.06.03-.06.06v2.44s.03.06.06.06h.65v.67h1.41v-.67h.65s.06-.03.06-.06v-2.44s-.03-.06-.06-.06h-2.71ZM15.48,34.11h-7.49c-.24,0-.43.19-.43.43v1.34c0,.24.19.43.43.43h7.49c.24,0,.43-.19.43-.43v-1.34c0-.24-.19-.43-.43-.43ZM34.81,64.77v-6.92c0-.3.29-.59.59-.59h9.19c.3,0,.59.29.59.59v6.92c0,.3-.29.59-.59.59h-9.19c-.3,0-.59-.29-.59-.59ZM35.89,64.28h8.21v-5.94h-8.21v5.94ZM38.06,34.11h-7.49c-.24,0-.43.19-.43.43v1.34c0,.24.19.43.43.43h7.49c.24,0,.43-.19.43-.43v-1.34c0-.24-.19-.43-.43-.43ZM64.45,49.46h7.49c.24,0,.43-.19.43-.43v-1.34c0-.24-.19-.43-.43-.43h-7.49c-.24,0-.43.19-.43.43v1.34c0,.24.19.43.43.43ZM53.15,49.46h7.49c.24,0,.43-.19.43-.43v-1.34c0-.24-.19-.43-.43-.43h-7.49c-.24,0-.43.19-.43.43v1.34c0,.24.19.43.43.43ZM30.57,49.46h7.49c.24,0,.43-.19.43-.43v-1.34c0-.24-.19-.43-.43-.43h-7.49c-.24,0-.43.19-.43.43v1.34c0,.24.19.43.43.43ZM41.86,49.46h7.49c.24,0,.43-.19.43-.43v-1.34c0-.24-.19-.43-.43-.43h-7.49c-.24,0-.43.19-.43.43v1.34c0,.24.19.43.43.43ZM19.28,49.46h7.49c.24,0,.43-.19.43-.43v-1.34c0-.24-.19-.43-.43-.43h-7.49c-.24,0-.43.19-.43.43v1.34c0,.24.19.43.43.43ZM80,28.42s-.02.09-.03.13c0,.04.03.08.03.12v13.07s0,.03-.01.05c0,.02.01.03.01.05v13.07s0,.03-.01.05c0,.02.01.03.01.05v13.07c0,.3-.28.58-.58.58h-2.73s-.03,0-.04,0c-.01,0-.03,0-.04,0H3.25s-.03,0-.04,0c-.01,0-.03,0-.04,0H.58C.28,68.65,0,68.37,0,68.07v-13.07s0-.03.01-.05c0-.02-.01-.03-.01-.05v-13.07s0-.03.01-.05c0-.02-.01-.03-.01-.05v-13.07s0-.03,0-.04c0-.01,0-.03,0-.04v-13.07c0-.3.28-.58.58-.58h2.59s.03,0,.04,0c.01,0,.03,0,.04,0h58.44c1.91-2.19,4.71-3.58,7.84-3.58s5.93,1.39,7.84,3.58h1.9c.41,0,.74.33.74.74v12.75ZM2.67,55.5h-1.59v12.07h1.59v-12.07ZM2.67,42.33h-1.59v12.07h1.59v-12.07ZM2.67,29.17h-1.59v12.08h1.59v-12.08ZM2.67,16.01h-1.59v12.07h1.59v-12.07ZM78.19,16.01c.27.41.51.85.73,1.3v-1.3h-.73ZM60.2,21.76c0,5.14,4.18,9.33,9.33,9.33s9.33-4.18,9.33-9.33-4.18-9.33-9.33-9.33-9.33,4.18-9.33,9.33ZM3.75,28.09h57.54c-1.35-1.76-2.17-3.95-2.17-6.33,0-2.12.64-4.1,1.74-5.74H3.75v12.07ZM76.11,55.5H3.75v12.07h72.36v-12.07ZM76.11,42.33H3.75v12.07h72.36v-12.07ZM76.11,29.8c-1.8,1.47-4.09,2.36-6.59,2.36-2.84,0-5.41-1.14-7.29-2.99H3.75v12.08h72.36v-11.44ZM78.92,55.5h-1.73v12.07h1.73v-12.07ZM78.92,42.33h-1.73v12.07h1.73v-12.07ZM78.92,29.17h-1.73v12.08h1.73v-12.08ZM78.92,26.2c-.32.67-.71,1.31-1.16,1.89h1.16v-1.89ZM7.99,49.46h7.49c.24,0,.43-.19.43-.43v-1.34c0-.24-.19-.43-.43-.43h-7.49c-.24,0-.43.19-.43.43v1.34c0,.24.19.43.43.43ZM14.6,23.06s-.06.03-.06.06v2.44s.03.06.06.06h.65v.67h1.41v-.67h.65s.06-.03.06-.06v-2.44s-.03-.06-.06-.06h-2.71ZM16.66,18.48v-.67h-1.41v.67h-.65s-.06.03-.06.06v2.44s.03.06.06.06h2.71s.06-.03.06-.06v-2.44s-.03-.06-.06-.06h-.65ZM8.34,64.77v-6.92c0-.3.29-.59.59-.59h9.19c.3,0,.59.29.59.59v6.92c0,.3-.29.59-.59.59h-9.19c-.3,0-.59-.29-.59-.59ZM9.42,64.28h8.21v-5.94h-8.21v5.94ZM22.68,23.06s-.06.03-.06.06v2.44s.03.06.06.06h.65v.67h1.41v-.67h.65s.06-.03.06-.06v-2.44s-.03-.06-.06-.06h-2.71ZM24.74,18.48v-.67h-1.41v.67h-.65s-.06.03-.06.06v2.44s.03.06.06.06h2.71s.06-.03.06-.06v-2.44s-.03-.06-.06-.06h-.65ZM21.66,64.77v-6.92c0-.3.29-.59.59-.59h9.19c.3,0,.59.29.59.59v6.92c0,.3-.29.59-.59.59h-9.19c-.3,0-.59-.29-.59-.59ZM22.74,64.28h8.21v-5.94h-8.21v5.94ZM8.58,18.48v-.67h-1.41v.67h-.65s-.06.03-.06.06v2.44s.03.06.06.06h2.71s.06-.03.06-.06v-2.44s-.03-.06-.06-.06h-.65ZM6.52,23.06s-.06.03-.06.06v2.44s.03.06.06.06h.65v.67h1.41v-.67h.65s.06-.03.06-.06v-2.44s-.03-.06-.06-.06h-2.71Z"/></g></svg>