<?xml version="1.0" encoding="UTF-8"?><svg id="modifiers" xmlns="http://www.w3.org/2000/svg" viewBox="0 0 80 80"><defs><style>.cls-1{fill:#fff;}</style></defs><path class="cls-1" d="M62.86,17.18c2.53,2.53,3.96,5.89,4.04,9.46l-1.05.02c-.07-3.3-1.4-6.4-3.73-8.74-2.34-2.34-5.46-3.67-8.78-3.73l.02-1.05c3.59.07,6.96,1.5,9.5,4.04ZM53.95,17.92l-.1,1.05c1.85.17,3.59.99,4.91,2.31,1.31,1.31,2.13,3.05,2.31,4.9l1.05-.1c-.2-2.09-1.13-4.05-2.61-5.54-1.49-1.49-3.46-2.42-5.56-2.62ZM53.78,22.38l-.15,1.04c.76.11,1.45.46,1.99,1,.54.54.89,1.23,1,2l1.04-.15c-.15-.99-.6-1.88-1.3-2.59-.71-.71-1.6-1.16-2.59-1.3ZM53.91,27.5c0,.94-.76,1.71-1.71,1.71-.31,0-.59-.09-.84-.23l-1.35,1.35s0,0,0,0l-1.79,18.87,4.24,4.24c.17.17.27.41.27.65,0,.25-.1.47-.28.64-3.75,3.6-8.63,5.4-13.51,5.4-1.18,0-2.35-.11-3.51-.32l4.09,8.18c.08.16.07.41-.03.56-.1.15-.3.27-.49.27h-13.77c-.18,0-.39-.12-.49-.27s-.11-.39-.03-.56h0s5.06-10.12,5.06-10.12c-1.68-.88-3.25-2.02-4.65-3.42-7.46-7.46-7.59-19.72-.28-27.33.17-.18.4-.27.65-.28h0c.24,0,.48.1.65.27l4.35,4.35,18.65-1.76,1.51-1.51c-.1-.21-.15-.45-.15-.7,0-.94.76-1.71,1.71-1.71s1.71.76,1.71,1.71ZM31.47,32.44l7.47,7.47,9.04-9.04-16.51,1.56ZM31.64,58.74s-.1-.04-.14-.06c-.26-.11-.52-.2-.78-.32l-4.7,9.41h12.22l-4.1-8.19c-.85-.22-1.68-.51-2.5-.84ZM51.62,54.08l-4.41-4.41s0,0,0,0l-17.18-17.18s0,0,0,0l-4.52-4.52c-6.81,7.2-6.66,18.72.37,25.75,1.66,1.66,3.57,2.92,5.62,3.81.18.08.37.16.55.24.44.18.89.34,1.34.48.08.03.17.05.25.08,6.14,1.81,13.06.41,17.98-4.24ZM48.85,31.5l-9.16,9.16,5.35,5.35,2.23,2.23,1.58-16.74ZM80,40c0,22.06-17.94,40-40,40S0,62.06,0,40,17.94,0,40,0s40,17.94,40,40ZM78.95,40C78.95,18.52,61.48,1.05,40,1.05S1.05,18.52,1.05,40s17.47,38.95,38.95,38.95,38.95-17.47,38.95-38.95Z"/></svg>