<?xml version="1.0" encoding="UTF-8"?><svg id="modifiers" xmlns="http://www.w3.org/2000/svg" viewBox="0 0 80 80"><defs><style>.cls-1{fill:#fff;}</style></defs><path class="cls-1" d="M77.91,0H2.09C.94,0,0,.94,0,2.09v75.82c0,1.15.94,2.09,2.09,2.09h75.83c1.15,0,2.09-.94,2.09-2.09V2.09c0-1.15-.94-2.09-2.09-2.09ZM78.95,77.91c0,.57-.46,1.04-1.03,1.04H2.09c-.57,0-1.03-.46-1.03-1.04V2.09c0-.57.46-1.03,1.03-1.03h75.83c.57,0,1.03.46,1.03,1.03v75.82ZM71.82,14.7H8.18c-1.11,0-2.01.9-2.01,2.01v40.69c0,1.11.9,2.01,2.01,2.01h31.29v4.84h-14.64v1.05h30.33v-1.05h-14.64v-4.84h31.29c1.11,0,2.01-.9,2.01-2.01V16.71c0-1.11-.9-2.01-2.01-2.01ZM8.18,15.75h63.64c.53,0,.96.43.96.96v33.99H7.22V16.71c0-.53.43-.96.96-.96ZM72.78,57.4c0,.53-.43.96-.96.96H8.18c-.53,0-.96-.43-.96-.96v-5.64h65.56v5.64ZM49.69,40.88l-.52-.91h0s.52-.91.52-.91h0s0,0,0,0h1.05v.92c0,.19-.1.36-.26.46l-.79.46ZM46.24,42.86l-.52-.91,1.73-.99.52.91-1.73.99ZM42.78,44.85l-.52-.91,1.73-.99.52.91-1.73.99ZM39.74,46.3l-.79-.46.52-.91h0s0,0,0,0h1.05s0,0,0,0l.52.91-.79.46c-.08.05-.17.07-.26.07s-.18-.02-.26-.07ZM37.22,44.85l-1.73-.99.52-.91,1.73.99-.52.91ZM33.76,42.86l-1.73-.99.52-.91,1.73.99-.52.91ZM29.25,39.97v-.92h1.05s0,0,0,0l.52.91-.52.91-.79-.46c-.16-.09-.26-.27-.26-.46ZM37.22,35.09l.52.91-1.73.99-.52-.91,1.73-.99ZM33.76,37.07l.52.91-1.73.99-.52-.91,1.73-.99ZM43.98,36.99l-1.73-.99.52-.91,1.73.99-.52.91ZM47.44,38.98l-1.73-.99.52-.91,1.73.99-.52.91ZM49.69,35.22h1.05v1.92h-1.05v-1.92ZM49.69,31.39h1.05v1.92h-1.05v-1.92ZM30.31,29.48h-1.05v-.92c0-.19.1-.36.26-.46l.79-.46.52.91-.52.91h0s0,0,0,0ZM30.31,37.14h-1.05v-1.92h1.05v1.92ZM30.31,33.31h-1.05v-1.92h1.05v1.92ZM40.53,39.18h-1.05v-1.92h1.05v1.92ZM39.47,41.09h1.05v1.92h-1.05v-1.92ZM49.69,29.48l-.52-.91h0s.52-.91.52-.91l.79.46c.16.09.26.27.26.46v.92h-1.05s0,0,0,0ZM46.24,31.46l-.52-.91,1.73-.99.52.91-1.73.99ZM42.78,33.44l-.52-.91,1.73-.99.52.91-1.73.99ZM38.94,34.43l.1-.17-.1-.17.29-.17.24-.41.24.14.03-.02c.16-.09.36-.09.52,0l.03.02.24-.14.24.41.29.17-.1.17.1.17-.29.17-.24.41h0s0,.34,0,.34h-1.05v-.34h0s-.24-.41-.24-.41l-.29-.17ZM37.22,33.44l-1.73-.99.52-.91,1.73.99-.52.91ZM33.76,31.46l-1.73-.99.52-.91,1.73.99-.52.91ZM32.56,27.57l-.52-.91,1.73-.99.52.91-1.73.99ZM36.02,25.59l-.52-.91,1.73-.99.52.91-1.73.99ZM39.47,23.61l-.52-.91.79-.46c.16-.09.36-.09.52,0l.79.46-.52.91-.53-.31-.53.31ZM43.98,25.59l-1.73-.99.52-.91,1.73.99-.52.91ZM47.44,27.57l-1.73-.99.52-.91,1.73.99-.52.91Z"/></svg>