<?xml version="1.0" encoding="UTF-8"?><svg id="modifiers" xmlns="http://www.w3.org/2000/svg" viewBox="0 0 80 80"><defs><style>.cls-1{fill:#fff;}</style></defs><path class="cls-1" d="M77.91,0H2.09C.94,0,0,.94,0,2.09v75.83c0,1.15.94,2.09,2.09,2.09h75.83c1.15,0,2.09-.94,2.09-2.09V2.09c0-1.15-.94-2.09-2.09-2.09ZM78.95,77.91c0,.57-.46,1.03-1.03,1.03H2.09c-.57,0-1.03-.46-1.03-1.03V2.09c0-.57.46-1.03,1.03-1.03h75.83c.57,0,1.03.46,1.03,1.03v75.83ZM67.09,37.95l5.43,5.31-.73.75-4.54-4.43v12.29h0v.17s0,.09-.02.14l-.07.26c-.02.09-.06.27-.12.46-.11.31-.23.53-.31.67-.08.15-.22.36-.43.6-.14.17-.29.3-.42.41-.16.14-.34.27-.55.39l-17.23,9.91-.52-.91,17.23-9.91c.14-.08.27-.17.39-.28.11-.09.21-.18.31-.3.15-.18.25-.33.31-.44.06-.1.15-.26.22-.49.05-.14.08-.26.09-.36l.06-.23v-12.34l-4.27,4.37-.75-.73,5.18-5.31c.1-.1.23-.16.37-.16.14,0,.27.05.37.15ZM12.91,39.14l-5.43-5.31.73-.75,4.53,4.42v-12s.01-.09.01-.14v-.14h.01c.03-.35.09-.71.22-1.05l.13-.31c.19-.4.44-.75.74-1.05.25-.24.51-.45.8-.61l23.43-13.46c1.15-.66,2.65-.66,3.8,0l23.43,13.46c.28.16.55.37.79.6.31.31.57.68.76,1.08l.12.28c.17.44.25.89.25,1.34v8.9h-1.05v-8.9c0-.32-.06-.65-.18-.97l-.09-.21c-.14-.3-.32-.55-.55-.78-.17-.17-.36-.32-.57-.43l-23.43-13.46c-.84-.48-1.92-.48-2.75,0l-23.44,13.46c-.21.12-.4.27-.58.45-.21.21-.39.47-.53.76l-.1.23c-.1.27-.15.55-.16.82v12.11l4.27-4.38.75.73-5.18,5.31c-.1.1-.23.16-.37.16h0c-.14,0-.27-.05-.37-.15ZM14.91,53.89l17.52,10.07-.52.91-17.58-10.1s-.08-.05-.11-.09l-.19-.19c-.08-.07-.2-.18-.33-.32-.22-.26-.35-.47-.43-.6-.08-.14-.2-.36-.3-.66-.08-.23-.12-.42-.15-.57-.05-.22-.07-.45-.07-.68v-8.9h1.05v8.9c0,.16.02.32.05.48.02.13.06.27.11.43.07.21.16.37.22.47.06.1.15.25.31.44.08.1.17.18.25.25l.17.17ZM57.09,28.74s-.15-.12-.18-.14l-16.47-9.46s-.06-.01-.1-.03l-.08-.05c-.17-.1-.38-.1-.54,0l-.08.05s-.07,0-.09.03l-16.47,9.46s-.16.11-.19.15c-.07.07-.13.15-.2.33-.04.11-.06.21-.06.31v18.38c0,.08.02.15.01.11,0,.04.03.15.04.18.02.06.05.11.07.16.02.03.08.11.1.14.05.06.11.11.09.08.03.04.09.08.14.11l16.46,9.46s.11.05.14.06c0,0,.01,0,.02,0,0,0,0,.01.02.02.09.05.18.07.28.07s.19-.03.28-.08l.05-.03s.01,0,.02,0c.03-.01.08-.03.1-.05l16.46-9.46c.07-.04.12-.08.1-.07.03-.02.11-.09.13-.12.04-.04.07-.09.1-.15.02-.03.06-.12.07-.15.02-.06.03-.11.03-.13.01-.04.02-.12.02-.16v-18.38c0-.1-.02-.21-.06-.32,0-.01-.02-.06-.03-.07-.05-.1-.1-.18-.18-.25ZM24.62,29l15.37-8.83,15.37,8.83-15.37,8.83-15.37-8.83ZM39.44,56.16l-15.49-8.9v-17.23l15.49,8.9v17.23ZM40.55,39.1l15.48-9.05v17.54l-15.48,9.05v-17.54ZM43.63,64.73h-.47c.01-.12.03-.24.03-.35,0-1.9-1.43-3.44-3.18-3.44s-3.18,1.54-3.18,3.44c0,.12.01.23.03.35h-.5c-.59,0-1.07.48-1.07,1.07v5.88c0,.59.48,1.07,1.07,1.07h7.27c.59,0,1.07-.48,1.07-1.07v-5.88c0-.59-.48-1.07-1.07-1.07ZM37.88,64.38c0-1.32.95-2.39,2.12-2.39s2.12,1.07,2.12,2.39c0,.11,0,.23-.03.35h-4.19c-.02-.12-.03-.24-.03-.35ZM43.64,71.68s0,.02-.02.02l-7.29-.02.02-5.9,7.29.02v5.88ZM40.52,70.05h-1.05v-2.79h1.05v2.79Z"/></svg>