<?xml version="1.0" encoding="UTF-8"?><svg id="modifiers" xmlns="http://www.w3.org/2000/svg" viewBox="0 0 80 80"><defs><style>.cls-1{fill:#07182d;}</style></defs><path class="cls-1" d="M77.91,0H2.09C.94,0,0,.94,0,2.09v75.82c0,1.15.94,2.09,2.09,2.09h75.83c1.15,0,2.09-.94,2.09-2.09V2.09c0-1.15-.94-2.09-2.09-2.09ZM78.95,77.91c0,.57-.46,1.04-1.03,1.04H2.09c-.57,0-1.03-.46-1.03-1.04V2.09c0-.57.46-1.04,1.03-1.04h75.83c.57,0,1.03.46,1.03,1.04v75.82ZM65.1,24.87c4.01,6.69,5.17,14.53,3.28,22.1l-1.02-.25c1.83-7.29.71-14.86-3.16-21.3-3.86-6.45-10-11-17.28-12.83-2.24-.56-4.55-.85-6.86-.85-12.92,0-24.14,8.76-27.28,21.3l-1.02-.25c3.26-13.01,14.9-22.1,28.31-22.1,2.39,0,4.79.3,7.11.88,7.56,1.89,13.92,6.62,17.93,13.31ZM58.96,28.55c3.02,5.05,3.9,10.97,2.47,16.67-2.05,8.18-5.56,15.42-10.44,21.53l-.82-.66c4.78-5.98,8.23-13.09,10.24-21.13,1.36-5.43.53-11.07-2.35-15.88-2.88-4.8-7.45-8.2-12.88-9.56-1.67-.42-3.39-.63-5.11-.63-9.63,0-17.99,6.53-20.33,15.87-1.03,4.11-3.03,6.62-6.89,8.66l-.49-.93c3.57-1.89,5.42-4.2,6.36-7.98,2.46-9.82,11.24-16.67,21.35-16.67,1.81,0,3.61.22,5.37.66,5.7,1.43,10.51,4.99,13.53,10.04ZM54.48,43.48c-2.55,10.19-7.67,18.63-15.21,25.08l-.68-.8c7.37-6.31,12.37-14.57,14.87-24.54.9-3.58.35-7.29-1.55-10.45s-4.91-5.4-8.48-6.29c-1.1-.28-2.24-.42-3.36-.42-6.34,0-11.84,4.3-13.38,10.45-1.52,6.06-4.85,10.27-10.49,13.25-.64.34-1.26.73-1.84,1.17l-.63-.84c.63-.47,1.29-.89,1.98-1.26,5.36-2.83,8.52-6.83,9.96-12.58,1.66-6.62,7.58-11.25,14.4-11.25,1.22,0,2.43.15,3.62.45,3.85.96,7.09,3.37,9.13,6.77,2.04,3.4,2.63,7.4,1.67,11.25ZM47.53,41.74c-2.66,10.63-8.57,18.98-17.55,24.83l-.57-.88c8.75-5.7,14.5-13.84,17.1-24.2.43-1.72.17-3.51-.75-5.03-.91-1.52-2.36-2.6-4.08-3.03-1.72-.43-3.5-.17-5.03.74-1.52.91-2.6,2.36-3.03,4.08-2.02,8.06-6.63,13.9-14.09,17.85-.61.32-1.15.73-1.63,1.21l-.75-.74c.55-.56,1.18-1.03,1.89-1.4,7.18-3.8,11.62-9.41,13.57-17.17.5-1.99,1.74-3.67,3.51-4.73,1.76-1.06,3.83-1.36,5.82-.86,1.99.5,3.67,1.74,4.73,3.51,1.06,1.76,1.36,3.83.86,5.82ZM22.88,62.44l-.49-.93c8.96-4.73,14.73-12.06,17.17-21.76l1.02.25c-2.51,10.01-8.46,17.56-17.7,22.44Z"/></svg>